<svg width="49" height="49" viewBox="0 0 49 49" fill="none" xmlns="http://www.w3.org/2000/svg">
<mask id="mask0_1154_32293" style="mask-type:alpha" maskUnits="userSpaceOnUse" x="0" y="0" width="49" height="49">
<rect x="0.5" y="0.447266" width="48" height="48" fill="#004680"/>
</mask>
<g mask="url(#mask0_1154_32293)">
<path d="M22.7 30.449H26.3C26.6 30.449 26.8583 30.324 27.075 30.074C27.2917 29.824 27.3667 29.549 27.3 29.249L26.35 23.999C27.0167 23.6657 27.5417 23.1824 27.925 22.549C28.3083 21.9157 28.5 21.2157 28.5 20.449C28.5 19.349 28.1083 18.4074 27.325 17.624C26.5417 16.8407 25.6 16.449 24.5 16.449C23.4 16.449 22.4583 16.8407 21.675 17.624C20.8917 18.4074 20.5 19.349 20.5 20.449C20.5 21.2157 20.6917 21.9157 21.075 22.549C21.4583 23.1824 21.9833 23.6657 22.65 23.999L21.7 29.249C21.6333 29.549 21.7083 29.824 21.925 30.074C22.1417 30.324 22.4 30.449 22.7 30.449ZM24.5 44.249C24.2667 44.249 24.05 44.2324 23.85 44.199C23.65 44.1657 23.45 44.1157 23.25 44.049C18.75 42.549 15.1667 39.774 12.5 35.724C9.83333 31.674 8.5 27.3157 8.5 22.649V13.199C8.5 12.3657 8.74167 11.6157 9.225 10.949C9.70833 10.2824 10.3333 9.79902 11.1 9.49902L23.1 4.99902C23.5667 4.83236 24.0333 4.74902 24.5 4.74902C24.9667 4.74902 25.4333 4.83236 25.9 4.99902L37.9 9.49902C38.6667 9.79902 39.2917 10.2824 39.775 10.949C40.2583 11.6157 40.5 12.3657 40.5 13.199V22.649C40.5 27.3157 39.1667 31.674 36.5 35.724C33.8333 39.774 30.25 42.549 25.75 44.049C25.55 44.1157 25.35 44.1657 25.15 44.199C24.95 44.2324 24.7333 44.249 24.5 44.249Z" fill="#004680"/>
</g>
</svg>
