<svg xmlns="http://www.w3.org/2000/svg" width="49" height="48" viewBox="0 0 49 48" fill="none">
  <mask id="mask0_1090_30830" style="mask-type:alpha" maskUnits="userSpaceOnUse" x="0" y="0" width="49" height="48">
    <path d="M0.5 0H48.5V48H0.5V0Z" fill="#D9D9D9"/>
  </mask>
  <g mask="url(#mask0_1090_30830)">
    <path d="M24.27 40C24.4033 40 24.5367 39.9667 24.67 39.9C24.8033 39.8333 24.9033 39.7667 24.97 39.7L41.37 23.3C41.77 22.9 42.0617 22.45 42.245 21.95C42.4283 21.45 42.52 20.95 42.52 20.45C42.52 19.9167 42.4283 19.4083 42.245 18.925C42.0617 18.4417 41.77 18.0167 41.37 17.65L32.87 9.15C32.5033 8.75 32.0783 8.45833 31.595 8.275C31.1117 8.09167 30.6033 8 30.07 8C29.57 8 29.07 8.09167 28.57 8.275C28.07 8.45833 27.62 8.75 27.22 9.15L26.67 9.7L30.37 13.45C30.87 13.9167 31.2367 14.45 31.47 15.05C31.7033 15.65 31.82 16.2833 31.82 16.95C31.82 18.35 31.345 19.525 30.395 20.475C29.445 21.425 28.27 21.9 26.87 21.9C26.2033 21.9 25.5617 21.7833 24.945 21.55C24.3283 21.3167 23.7867 20.9667 23.32 20.5L19.57 16.8L10.82 25.55C10.72 25.65 10.645 25.7583 10.595 25.875C10.545 25.9917 10.52 26.1167 10.52 26.25C10.52 26.5167 10.62 26.7583 10.82 26.975C11.02 27.1917 11.2533 27.3 11.52 27.3C11.6533 27.3 11.7867 27.2667 11.92 27.2C12.0533 27.1333 12.1533 27.0667 12.22 27L19.02 20.2L21.82 23L15.07 29.8C14.97 29.9 14.895 30.0083 14.845 30.125C14.795 30.2417 14.77 30.3667 14.77 30.5C14.77 30.7667 14.87 31 15.07 31.2C15.27 31.4 15.5033 31.5 15.77 31.5C15.9033 31.5 16.0367 31.4667 16.17 31.4C16.3033 31.3333 16.4033 31.2667 16.47 31.2L23.27 24.45L26.07 27.25L19.32 34.05C19.22 34.1167 19.145 34.2167 19.095 34.35C19.045 34.4833 19.02 34.6167 19.02 34.75C19.02 35.0167 19.12 35.25 19.32 35.45C19.52 35.65 19.7533 35.75 20.02 35.75C20.1533 35.75 20.2783 35.725 20.395 35.675C20.5117 35.625 20.62 35.55 20.72 35.45L27.52 28.7L30.32 31.5L23.52 38.3C23.42 38.4 23.345 38.5083 23.295 38.625C23.245 38.7417 23.22 38.8667 23.22 39C23.22 39.2667 23.3283 39.5 23.545 39.7C23.7617 39.9 24.0033 40 24.27 40ZM24.22 44C22.9867 44 21.895 43.5917 20.945 42.775C19.995 41.9583 19.4367 40.9333 19.27 39.7C18.1367 39.5333 17.1867 39.0667 16.42 38.3C15.6533 37.5333 15.1867 36.5833 15.02 35.45C13.8867 35.2833 12.945 34.8083 12.195 34.025C11.445 33.2417 10.9867 32.3 10.82 31.2C9.55333 31.0333 8.52 30.4833 7.72 29.55C6.92 28.6167 6.52 27.5167 6.52 26.25C6.52 25.5833 6.645 24.9417 6.895 24.325C7.145 23.7083 7.50333 23.1667 7.97 22.7L19.57 11.15L26.12 17.7C26.1867 17.8 26.2867 17.875 26.42 17.925C26.5533 17.975 26.6867 18 26.82 18C27.12 18 27.37 17.9083 27.57 17.725C27.77 17.5417 27.87 17.3 27.87 17C27.87 16.8667 27.845 16.7333 27.795 16.6C27.745 16.4667 27.67 16.3667 27.57 16.3L20.42 9.15C20.0533 8.75 19.6283 8.45833 19.145 8.275C18.6617 8.09167 18.1533 8 17.62 8C17.12 8 16.62 8.09167 16.12 8.275C15.62 8.45833 15.17 8.75 14.77 9.15L7.72 16.25C7.42 16.55 7.17 16.9 6.97 17.3C6.77 17.7 6.63667 18.1 6.57 18.5C6.50333 18.9 6.50333 19.3083 6.57 19.725C6.63667 20.1417 6.77 20.5333 6.97 20.9L4.07 23.8C3.50333 23.0333 3.08667 22.1917 2.82 21.275C2.55333 20.3583 2.45333 19.4333 2.52 18.5C2.58667 17.5667 2.82 16.6583 3.22 15.775C3.62 14.8917 4.17 14.1 4.87 13.4L11.92 6.35C12.72 5.58333 13.6117 5 14.595 4.6C15.5783 4.2 16.5867 4 17.62 4C18.6533 4 19.6617 4.2 20.645 4.6C21.6283 5 22.5033 5.58333 23.27 6.35L23.82 6.9L24.37 6.35C25.17 5.58333 26.0617 5 27.045 4.6C28.0283 4.2 29.0367 4 30.07 4C31.1033 4 32.1117 4.2 33.095 4.6C34.0783 5 34.9533 5.58333 35.72 6.35L44.17 14.8C44.9367 15.5667 45.52 16.45 45.92 17.45C46.32 18.45 46.52 19.4667 46.52 20.5C46.52 21.5333 46.32 22.5417 45.92 23.525C45.52 24.5083 44.9367 25.3833 44.17 26.15L27.77 42.5C27.3033 42.9667 26.7617 43.3333 26.145 43.6C25.5283 43.8667 24.8867 44 24.22 44Z" fill="white" fill-opacity="0.87"/>
  </g>
</svg>
