<svg width="49" height="49" viewBox="0 0 49 49" fill="none" xmlns="http://www.w3.org/2000/svg">
<mask id="mask0_1154_32288" style="mask-type:alpha" maskUnits="userSpaceOnUse" x="0" y="0" width="49" height="49">
<rect x="0.5" y="0.447266" width="48" height="48" fill="#004680"/>
</mask>
<g mask="url(#mask0_1154_32288)">
<path d="M6.5 40.4473V34.4473C6.5 33.3473 6.89167 32.4056 7.675 31.6223C8.45833 30.8389 9.4 30.4473 10.5 30.4473H12.5V26.4473C12.5 25.3473 12.8917 24.4056 13.675 23.6223C14.4583 22.8389 15.4 22.4473 16.5 22.4473H22.5V18.4473H20.5C19.4 18.4473 18.4583 18.0556 17.675 17.2723C16.8917 16.4889 16.5 15.5473 16.5 14.4473V8.44727C16.5 7.34727 16.8917 6.4056 17.675 5.62227C18.4583 4.83893 19.4 4.44727 20.5 4.44727H28.5C29.6 4.44727 30.5417 4.83893 31.325 5.62227C32.1083 6.4056 32.5 7.34727 32.5 8.44727V14.4473C32.5 15.5473 32.1083 16.4889 31.325 17.2723C30.5417 18.0556 29.6 18.4473 28.5 18.4473H26.5V22.4473H32.5C33.6 22.4473 34.5417 22.8389 35.325 23.6223C36.1083 24.4056 36.5 25.3473 36.5 26.4473V30.4473H38.5C39.6 30.4473 40.5417 30.8389 41.325 31.6223C42.1083 32.4056 42.5 33.3473 42.5 34.4473V40.4473C42.5 41.5473 42.1083 42.4889 41.325 43.2723C40.5417 44.0556 39.6 44.4473 38.5 44.4473H30.5C29.4 44.4473 28.4583 44.0556 27.675 43.2723C26.8917 42.4889 26.5 41.5473 26.5 40.4473V34.4473C26.5 33.3473 26.8917 32.4056 27.675 31.6223C28.4583 30.8389 29.4 30.4473 30.5 30.4473H32.5V26.4473H16.5V30.4473H18.5C19.6 30.4473 20.5417 30.8389 21.325 31.6223C22.1083 32.4056 22.5 33.3473 22.5 34.4473V40.4473C22.5 41.5473 22.1083 42.4889 21.325 43.2723C20.5417 44.0556 19.6 44.4473 18.5 44.4473H10.5C9.4 44.4473 8.45833 44.0556 7.675 43.2723C6.89167 42.4889 6.5 41.5473 6.5 40.4473Z" fill="#004680"/>
</g>
</svg>
