<svg xmlns="http://www.w3.org/2000/svg" width="25" height="24" viewBox="0 0 25 24" fill="none">
  <mask id="mask0_1555_191" style="mask-type:alpha" maskUnits="userSpaceOnUse" x="0" y="0" width="25" height="24">
    <rect x="0.5" width="24" height="24" fill="#D9D9D9"/>
  </mask>
  <g mask="url(#mask0_1555_191)">
    <path d="M9.5 12.5H10.5V10.5H11.5C11.7833 10.5 12.0208 10.4042 12.2125 10.2125C12.4042 10.0208 12.5 9.78333 12.5 9.5V8.5C12.5 8.21667 12.4042 7.97917 12.2125 7.7875C12.0208 7.59583 11.7833 7.5 11.5 7.5H9.5V12.5ZM10.5 9.5V8.5H11.5V9.5H10.5ZM13.5 12.5H15.5C15.7833 12.5 16.0208 12.4042 16.2125 12.2125C16.4042 12.0208 16.5 11.7833 16.5 11.5V8.5C16.5 8.21667 16.4042 7.97917 16.2125 7.7875C16.0208 7.59583 15.7833 7.5 15.5 7.5H13.5V12.5ZM14.5 11.5V8.5H15.5V11.5H14.5ZM17.5 12.5H18.5V10.5H19.5V9.5H18.5V8.5H19.5V7.5H17.5V12.5ZM8.5 18C7.95 18 7.47917 17.8042 7.0875 17.4125C6.69583 17.0208 6.5 16.55 6.5 16V4C6.5 3.45 6.69583 2.97917 7.0875 2.5875C7.47917 2.19583 7.95 2 8.5 2H20.5C21.05 2 21.5208 2.19583 21.9125 2.5875C22.3042 2.97917 22.5 3.45 22.5 4V16C22.5 16.55 22.3042 17.0208 21.9125 17.4125C21.5208 17.8042 21.05 18 20.5 18H8.5ZM8.5 16H20.5V4H8.5V16ZM4.5 22C3.95 22 3.47917 21.8042 3.0875 21.4125C2.69583 21.0208 2.5 20.55 2.5 20V6H4.5V20H18.5V22H4.5Z" fill="#91C6E5"/>
  </g>
</svg>
