<svg width="43" height="43" viewBox="0 0 43 43" fill="none" xmlns="http://www.w3.org/2000/svg">
<g id="Work">
<mask id="mask0_1634_3600" style="mask-type:alpha" maskUnits="userSpaceOnUse" x="0" y="0" width="43" height="43">
<rect id="Bounding box" x="0.5" y="0.447266" width="42" height="42" fill="#D9D9D9"/>
</mask>
<g mask="url(#mask0_1634_3600)">
<path id="work" d="M7.5 37.1973C6.5375 37.1973 5.71354 36.8546 5.02813 36.1691C4.34271 35.4837 4 34.6598 4 33.6973V14.4473C4 13.4848 4.34271 12.6608 5.02813 11.9754C5.71354 11.29 6.5375 10.9473 7.5 10.9473H14.5V7.44727C14.5 6.48477 14.8427 5.66081 15.5281 4.97539C16.2135 4.28997 17.0375 3.94727 18 3.94727H25C25.9625 3.94727 26.7865 4.28997 27.4719 4.97539C28.1573 5.66081 28.5 6.48477 28.5 7.44727V10.9473H35.5C36.4625 10.9473 37.2865 11.29 37.9719 11.9754C38.6573 12.6608 39 13.4848 39 14.4473V33.6973C39 34.6598 38.6573 35.4837 37.9719 36.1691C37.2865 36.8546 36.4625 37.1973 35.5 37.1973H7.5ZM18 10.9473H25V7.44727H18V10.9473Z" fill="#004680"/>
</g>
</g>
</svg>
