<svg width="535" height="316" viewBox="0 0 535 316" fill="none" xmlns="http://www.w3.org/2000/svg">
<path d="M316.846 101.335C316.321 92.6533 314.315 84.1256 310.915 76.1216C310.416 74.9242 309.253 73.4938 308.107 74.1092C308.771 77.8014 309.441 81.4825 310.117 85.1526C303.299 80.6322 297.383 74.8792 292.671 68.1884C292.273 67.498 291.7 66.9245 291.01 66.5252C290.663 66.3301 290.253 66.2783 289.869 66.3808C289.484 66.4833 289.154 66.732 288.95 67.0741C288.867 67.3948 288.857 67.7299 288.921 68.055C288.984 68.3801 289.119 68.687 289.315 68.9534C291.327 72.5626 293.662 75.9807 296.294 79.1652C292.971 74.1757 289.332 68.9867 284.048 66.0762C284.599 71.8557 286.771 77.3617 290.312 81.9593L281.855 72.5459C281.091 71.681 279.812 70.7663 278.914 71.4814C278.017 72.1966 278.615 73.6103 279.23 74.5416L285.112 83.3231C282.121 80.6953 279.014 78.2117 275.791 75.8722C276.356 81.2275 280.443 85.5185 284.796 88.6618C289.149 91.8052 294.051 94.3332 297.623 98.3414C299.765 100.969 301.594 103.838 303.072 106.89" fill="white"/>
<path d="M303.089 107.656C303.21 107.679 303.334 107.679 303.454 107.656C303.629 107.558 303.759 107.395 303.815 107.202C303.871 107.009 303.849 106.801 303.753 106.625C302.259 103.513 300.396 100.593 298.204 97.9264C295.516 95.1512 292.471 92.7462 289.149 90.7748C287.836 89.91 286.524 89.1116 285.261 88.1304C280.709 84.8041 277.901 81.3447 276.954 77.719C279.595 79.7148 282.187 81.8104 284.663 83.9725C284.793 84.1225 284.977 84.2146 285.175 84.2286C285.373 84.2427 285.568 84.1775 285.718 84.0473C285.868 83.9172 285.96 83.7328 285.974 83.5348C285.988 83.3367 285.923 83.1412 285.793 82.9912L279.911 74.2098C279.413 73.4447 279.047 72.5466 279.446 72.1641C279.845 71.7815 280.692 72.4135 281.34 73.1287L289.797 82.5588C289.941 82.6932 290.131 82.768 290.329 82.768C290.526 82.768 290.716 82.6932 290.86 82.5588C291.014 82.4348 291.112 82.2552 291.134 82.0589C291.156 81.8626 291.099 81.6657 290.977 81.511C287.847 77.4396 285.806 72.6373 285.045 67.5571C287.197 69.0516 289.122 70.8498 290.761 72.8959C292.286 75.2442 293.95 77.499 295.745 79.6483C295.871 79.7975 296.049 79.8939 296.243 79.9185C296.436 79.9432 296.632 79.8942 296.792 79.7813C296.945 79.6625 297.047 79.49 297.078 79.2985C297.109 79.1071 297.066 78.9111 296.958 78.7502C295.415 76.4089 293.751 74.1495 291.973 71.9811C291.259 70.8668 290.594 69.7359 289.946 68.6548C289.73 68.239 289.481 67.7401 289.614 67.4407C289.639 67.3895 289.674 67.344 289.716 67.3068C289.759 67.2696 289.809 67.2416 289.863 67.2245C290.114 67.1254 290.393 67.1254 290.644 67.2245C291.2 67.5738 291.661 68.0534 291.99 68.6215C296.762 75.3954 302.751 81.2214 309.652 85.802C309.778 85.8836 309.925 85.927 310.075 85.927C310.226 85.927 310.373 85.8836 310.499 85.802C310.623 85.7212 310.719 85.605 310.775 85.4684C310.832 85.3319 310.845 85.1814 310.815 85.0369C310.2 81.7106 309.569 78.2512 308.97 74.8584C309.529 75.2784 309.946 75.8585 310.167 76.5215C313.534 84.4401 315.517 92.8784 316.032 101.469C316.045 101.672 316.138 101.861 316.291 101.995C316.444 102.129 316.643 102.197 316.846 102.184C317.049 102.171 317.238 102.078 317.372 101.925C317.506 101.772 317.574 101.572 317.56 101.369C317.036 92.5997 315.007 83.9862 311.562 75.9062C311.166 74.8099 310.354 73.9138 309.303 73.4114C309.035 73.304 308.746 73.2587 308.459 73.2789C308.171 73.2991 307.891 73.3842 307.641 73.5279C307.499 73.6009 307.385 73.7185 307.316 73.8626C307.247 74.0068 307.227 74.1696 307.259 74.3262C307.807 77.4197 308.372 80.4965 308.921 83.59C302.809 79.2875 297.481 73.9655 293.17 67.8565C292.697 67.0478 292.021 66.377 291.209 65.9106C290.581 65.6536 289.877 65.6536 289.249 65.9106C289.003 65.999 288.779 66.1359 288.587 66.313C288.396 66.4902 288.242 66.704 288.135 66.9418C287.967 67.3293 287.927 67.7603 288.019 68.1725C286.873 67.1793 285.625 66.3097 284.297 65.578C284.18 65.5041 284.045 65.4648 283.907 65.4648C283.769 65.4648 283.633 65.5041 283.516 65.578C283.401 65.6523 283.308 65.7564 283.246 65.8793C283.185 66.0022 283.158 66.1394 283.168 66.2765C283.491 69.6059 284.344 72.8623 285.693 75.9228L282.37 72.1641C280.974 70.6007 279.446 70.1683 278.382 71.0331C277.319 71.898 277.419 73.3948 278.549 75.1079L281.456 79.4321C279.795 78.035 277.967 76.6879 276.189 75.3906C276.067 75.3138 275.926 75.273 275.782 75.273C275.638 75.273 275.497 75.3138 275.375 75.3906C275.247 75.4616 275.142 75.5688 275.074 75.699C275.006 75.8291 274.978 75.9763 274.993 76.1224C275.491 80.8457 278.615 85.3363 284.314 89.4276C285.593 90.359 286.922 91.2239 288.252 92.1053C291.463 94.0073 294.408 96.3283 297.008 99.0074C299.108 101.562 300.903 104.353 302.358 107.323C302.437 107.441 302.547 107.535 302.676 107.593C302.805 107.652 302.948 107.674 303.089 107.656Z" fill="#231F20"/>
<path d="M525.994 114.042C519.349 106.641 508.815 101.751 499.992 99.689C478.31 94.5831 454.268 92.7037 432.818 100.188C399.339 111.83 406.351 153.509 403.343 182.215C401.798 196.95 401.565 213.066 396.116 226.921C390.085 242.238 393.308 255.793 406.949 266.836C417.2 275.152 430.858 278.246 444.033 278.013C458.638 277.747 482.015 283.601 494.393 274.853C512.038 262.379 515.294 234.787 520.063 215.378C526.305 189.921 530.45 163.994 532.458 137.858C533.082 133.238 532.851 128.541 531.776 124.004C530.632 120.286 528.655 116.879 525.994 114.042Z" fill="#231F20"/>
<path d="M473.791 280.441C481.766 280.441 489.325 279.359 494.825 275.451C509.928 264.774 514.53 243.751 518.584 225.19C519.315 221.864 520.03 218.538 520.761 215.561C527.019 190.06 531.176 164.089 533.189 137.908C533.828 133.198 533.591 128.411 532.491 123.788C531.295 119.967 529.263 116.461 526.543 113.526C520.545 106.873 510.676 101.418 500.158 98.9567C473.973 92.8031 451.227 92.9694 432.569 99.4723C405.354 108.969 404.44 138.008 403.626 163.62C403.41 170.173 403.21 176.377 402.612 182.131C402.297 185.208 402.031 188.368 401.748 191.545C400.751 203.453 399.705 215.777 395.435 226.637C389.138 242.637 392.859 256.358 406.5 267.401C415.838 274.985 429.163 279.043 444.05 278.744C448.137 278.661 452.922 279.077 457.973 279.509C463.024 279.942 468.54 280.441 473.791 280.441ZM464.486 95.9464C476.398 96.0656 488.257 97.5613 499.826 100.404C510.077 102.799 519.648 108.104 525.463 114.524C528.042 117.291 529.961 120.605 531.079 124.22C532.121 128.672 532.346 133.276 531.743 137.808C529.716 163.909 525.571 189.801 519.349 215.228C518.601 218.272 517.886 221.498 517.139 224.908C513.151 243.202 508.615 263.925 493.978 274.27C485.305 280.391 470.85 279.16 458.106 278.062C453.005 277.63 448.137 277.214 444.033 277.297C429.445 277.58 416.486 273.638 407.48 266.287C394.404 255.676 390.865 242.521 396.863 227.186C401.2 216.126 402.263 203.702 403.277 191.678C403.543 188.518 403.809 185.374 404.141 182.298C404.756 176.493 404.938 170.273 405.154 163.687C405.952 138.54 406.816 110.033 433.117 100.886C443.223 97.4914 453.827 95.8216 464.486 95.9464Z" fill="#231F20"/>
<path d="M460.781 76.6049L456.062 57.6782C450.962 37.2047 443.933 16.0992 421.553 9.71272C414.907 7.83335 408.261 8.58177 403.792 14.5858C399.273 10.7771 392.161 12.8228 387.509 16.4319C381.029 21.4213 376.759 28.7891 373.935 36.3898C368.95 49.8946 368.07 64.4971 362.304 77.9687C390.849 99.0576 431.622 102.035 462.924 85.3199L460.781 76.6049Z" fill="white"/>
<path d="M418.812 97.0604C434.324 97.1236 449.615 93.3713 463.34 86.1334C463.49 86.056 463.609 85.93 463.679 85.776C463.748 85.622 463.763 85.449 463.722 85.2852L461.512 76.5037L456.793 57.577C451.809 37.5027 444.548 15.5324 421.769 9.07931C414.143 6.90057 407.746 8.51383 403.659 13.6031C398.774 10.177 391.713 12.3225 387.044 15.9149C381.212 20.3888 376.56 27.241 373.221 36.2719C371.052 42.5717 369.314 49.0119 368.02 55.5479C366.578 63.1472 364.454 70.6007 361.673 77.8176C361.609 77.9764 361.598 78.1519 361.643 78.3171C361.688 78.4824 361.786 78.6283 361.922 78.7324C378.459 90.7356 398.385 97.1552 418.812 97.0604ZM462.11 85.069C446.557 93.03 429.12 96.5666 411.697 95.2939C394.275 94.0212 377.535 87.9878 363.301 77.8509C366 70.7211 368.073 63.37 369.499 55.8806C370.784 49.3802 372.505 42.9736 374.649 36.7044C377.873 27.9561 382.359 21.3368 387.941 17.0292C392.344 13.7029 399.04 11.6073 403.277 15.1665C403.356 15.2341 403.449 15.284 403.55 15.3126C403.65 15.3413 403.755 15.3482 403.858 15.3328C403.96 15.3219 404.059 15.2896 404.148 15.238C404.237 15.1864 404.313 15.1167 404.373 15.0334C409.075 8.61362 416.17 8.99615 421.321 10.4431C443.369 16.63 450.264 37.3031 455.248 57.8597L462.11 85.069Z" fill="#231F20"/>
<path d="M372.174 100.538C366.409 105.927 353.532 126.234 341.802 147.522L317.494 96.4632L297.756 102.351C297.756 102.351 315.617 196.635 333.229 200.477C350.84 204.319 374.849 162.224 374.849 162.224L401.782 88.1973C401.782 88.1973 380.78 92.4716 372.174 100.538Z" fill="#004680"/>
<path d="M403.742 97.1446C403.742 97.1446 377.158 112.113 371.924 138.008C366.691 163.904 376.909 243.087 376.909 243.087L442.87 240.343C442.87 240.343 432.12 145.975 438.567 125.435C445.013 104.895 444.814 99.1903 438.567 97.1613C432.319 95.1322 415.372 84.3051 403.742 97.1446Z" fill="white"/>
<path d="M376.892 243.852L442.887 241.158C443.095 241.15 443.292 241.06 443.435 240.908C443.502 240.828 443.551 240.735 443.58 240.635C443.608 240.535 443.615 240.429 443.601 240.326C443.501 239.378 432.951 145.875 439.265 125.735C445.778 105.028 445.678 98.7415 438.783 96.4963C437.803 96.1803 436.507 95.6148 435.011 94.9662C427.435 91.6399 413.412 85.586 403.293 96.6293C401.399 97.727 376.211 112.878 371.21 137.926C366.076 163.605 376.045 242.455 376.194 243.253C376.228 243.417 376.314 243.564 376.441 243.673C376.567 243.781 376.726 243.844 376.892 243.852ZM441.956 239.611L377.507 242.305C376.527 234.439 367.821 162.307 372.639 138.158C377.623 112.928 403.842 97.9599 404.091 97.8102C404.17 97.7801 404.239 97.7282 404.29 97.6605C413.628 87.3156 426.604 92.9371 434.363 96.2967C435.892 96.962 437.204 97.5274 438.268 97.8767C443.435 99.5399 444.515 103.731 437.769 125.219C431.638 144.878 440.91 229.749 441.956 239.611Z" fill="#231F20"/>
<path d="M387.36 256.808C389.121 214.863 393.158 180.901 394.006 169.026C394.953 156.02 398.292 118.267 401.881 101.751C406.533 91.4732 404.523 88.4462 404.523 88.4462C404.523 88.4462 378.271 84.754 370.462 123.971C368.153 135.53 362.288 202.905 356.639 255.244L387.36 256.808Z" fill="#004680"/>
<path d="M401.815 81.4934L401.699 101.684C401.699 101.684 403.742 113.093 416.004 109.601C419.623 108.546 422.963 106.699 425.782 104.194C428.601 101.689 430.828 98.5874 432.303 95.1147L430.908 60.1884C429.294 54.078 428.611 47.759 428.881 41.4446C413.927 41.1951 402.297 29.9355 402.297 29.9355C402.297 29.9355 397.179 37.6526 394.953 40.0808C393.168 41.9109 391.616 43.9556 390.334 46.168C388.274 50.0598 388.357 54.8995 388.456 59.2071C388.502 64.3094 389.008 69.3972 389.968 74.4084C391.896 83.905 401.815 81.4934 401.815 81.4934Z" fill="white"/>
<path d="M411.651 111.014C413.192 110.993 414.724 110.764 416.203 110.332C419.949 109.26 423.405 107.358 426.316 104.767C429.226 102.176 431.517 98.9621 433.018 95.3639C433.041 95.2711 433.041 95.174 433.018 95.0812C433.018 95.0812 431.639 60.3378 431.639 60.1549C431.574 59.5895 431.452 59.0321 431.273 58.4917C429.891 52.9492 429.331 47.2332 429.612 41.5275C429.616 41.4261 429.599 41.3248 429.561 41.2304C429.524 41.1359 429.468 41.0502 429.396 40.9787C429.328 40.9048 429.246 40.8459 429.155 40.8058C429.063 40.7657 428.964 40.7453 428.864 40.7458C414.442 40.513 402.862 29.5694 402.745 29.453C402.663 29.3788 402.566 29.323 402.461 29.2892C402.355 29.2554 402.244 29.2444 402.134 29.257C402.024 29.2696 401.918 29.3054 401.823 29.3622C401.728 29.4189 401.646 29.4952 401.582 29.5861C401.582 29.6692 396.465 37.2698 394.305 39.565C392.478 41.4446 390.893 43.5454 389.586 45.8185C387.41 49.9098 387.51 55.0656 387.609 59.2235C387.647 64.3711 388.159 69.5043 389.138 74.5578C389.346 75.861 389.819 77.1076 390.528 78.2204C391.237 79.3332 392.166 80.2887 393.258 81.0275C395.609 82.3684 398.342 82.8781 401.017 82.4745L400.901 101.767C401.493 104.892 403.282 107.661 405.886 109.484C407.617 110.546 409.621 111.078 411.651 111.014ZM431.589 94.9981C430.128 98.3172 427.963 101.278 425.242 103.673C422.522 106.069 419.313 107.842 415.838 108.869C414.377 109.399 412.82 109.613 411.27 109.495C409.721 109.378 408.214 108.932 406.849 108.187C404.602 106.608 403.044 104.228 402.496 101.534L402.579 81.4932C402.58 81.3786 402.555 81.2653 402.506 81.1617C402.457 81.058 402.386 80.9667 402.297 80.8945C402.205 80.8253 402.1 80.7762 401.989 80.7504C401.877 80.7246 401.761 80.7227 401.649 80.7448C399.086 81.2912 396.412 80.9081 394.106 79.6637C393.185 79.0318 392.405 78.2168 391.813 77.2697C391.222 76.3225 390.831 75.2635 390.666 74.1587C389.705 69.2262 389.199 64.2156 389.154 59.1903C389.154 55.0157 388.955 50.2757 390.965 46.517C392.203 44.3596 393.704 42.3651 395.435 40.5795C397.279 38.5505 401.017 33.0787 402.363 31.0829C405.022 33.428 415.24 41.6439 428.083 42.1595C427.837 47.7545 428.396 53.3558 429.745 58.7911C429.888 59.2519 429.988 59.7252 430.044 60.2048C430.044 60.2048 430.177 60.7536 431.539 94.9981H431.589Z" fill="#231F20"/>
<path d="M401.931 91.4724C401.931 91.4724 410.122 91.8383 415.373 86.3831C420.623 80.9279 419.859 75.4062 419.859 75.4062C419.859 75.4062 411.003 81.3604 401.815 81.5599L401.931 91.4724Z" fill="#231F20"/>
<path d="M402.297 92.2219C404.058 92.2219 411.086 91.8893 415.904 86.8832C421.354 81.2285 420.623 75.5571 420.59 75.2411C420.572 75.1178 420.523 75.0012 420.447 74.9022C420.371 74.8033 420.272 74.7253 420.158 74.6756C420.052 74.6143 419.931 74.582 419.809 74.582C419.686 74.582 419.566 74.6143 419.46 74.6756C419.46 74.6756 410.67 80.4967 401.798 80.6962C401.607 80.7006 401.425 80.7796 401.292 80.9164C401.158 81.0532 401.084 81.2368 401.084 81.428L401.2 91.407C401.204 91.5926 401.278 91.7697 401.408 91.9024C401.537 92.0352 401.713 92.1138 401.898 92.1222L402.297 92.2219ZM419.161 76.7213C418.872 80.1892 417.344 83.4367 414.857 85.8687C410.754 90.1264 404.689 90.6752 402.662 90.7417L402.562 82.2596C408.441 81.6885 414.115 79.7952 419.161 76.7213Z" fill="#231F20"/>
<path d="M408.959 52.5547C408.959 52.5547 402.463 62.2509 403.975 63.9473C405.487 65.6437 409.84 64.5128 409.84 64.5128" fill="white"/>
<path d="M407.065 65.6103C408.095 65.5992 409.121 65.4709 410.122 65.2278C410.31 65.1769 410.471 65.0546 410.57 64.8868C410.67 64.7191 410.7 64.5192 410.654 64.3297C410.631 64.2353 410.589 64.1465 410.531 64.0685C410.473 63.9905 410.4 63.9248 410.317 63.8752C410.233 63.8257 410.141 63.7933 410.045 63.7799C409.948 63.7666 409.851 63.7725 409.757 63.7975C408.743 64.0469 405.636 64.5459 404.623 63.4482C404.074 62.6665 406.417 57.7768 409.607 52.9703C409.69 52.8076 409.71 52.6204 409.664 52.4437C409.619 52.2671 409.51 52.1133 409.359 52.0111C409.208 51.909 409.025 51.8655 408.844 51.889C408.664 51.9125 408.498 52.0013 408.378 52.1387C406.334 55.2156 401.732 62.5335 403.51 64.4461C403.992 64.8725 404.556 65.1958 405.167 65.396C405.779 65.5962 406.424 65.6691 407.065 65.6103Z" fill="#231F20"/>
<path d="M395.642 52.9879C395.028 52.9638 394.567 52.0067 394.612 50.8502C394.657 49.6937 395.192 48.7758 395.807 48.8C396.421 48.8242 396.882 49.7812 396.837 50.9377C396.791 52.0942 396.257 53.0121 395.642 52.9879Z" fill="#231F20"/>
<path d="M413.917 51.3961C413.302 51.372 412.841 50.4149 412.886 49.2584C412.932 48.102 413.467 47.184 414.081 47.2082C414.695 47.2324 415.157 48.1895 415.111 49.3459C415.066 50.5024 414.531 51.4203 413.917 51.3961Z" fill="#231F20"/>
<path d="M404.539 69.6352L409.707 68.3047C409.707 68.3047 410.753 75.8554 407.846 76.5207C404.938 77.186 404.539 69.6352 404.539 69.6352Z" fill="white"/>
<path d="M407.497 77.3032C407.668 77.3275 407.841 77.3275 408.012 77.3032C411.485 76.5048 410.554 69.0539 410.388 68.189C410.371 68.0871 410.333 67.9899 410.275 67.9039C410.218 67.8179 410.143 67.7451 410.056 67.6901C409.973 67.6298 409.878 67.5894 409.777 67.5721C409.676 67.5548 409.572 67.561 409.474 67.5903L404.307 68.9042C404.143 68.9463 403.999 69.0438 403.899 69.1803C403.799 69.3167 403.75 69.4837 403.759 69.6526C403.759 70.2347 404.108 75.3074 406.118 76.8208C406.509 77.1346 406.996 77.3049 407.497 77.3032ZM409.075 69.2368C409.291 71.6484 409.192 75.457 407.68 75.8895C407.57 75.919 407.455 75.9208 407.345 75.8947C407.235 75.8686 407.133 75.8153 407.048 75.7398C406.052 74.9914 405.487 72.2139 405.387 70.2846L409.075 69.2368Z" fill="#231F20"/>
<path d="M424.178 49.893C425.524 46.3505 430.027 45.0366 433.449 45.7185C434.579 45.9043 435.627 46.4204 436.464 47.2017C437.301 47.983 437.888 48.9946 438.151 50.1092C438.425 51.4928 438.425 52.9168 438.151 54.3004C437.762 56.8401 436.924 59.29 435.676 61.5351C435.098 62.7061 434.235 63.7127 433.167 64.4623C432.48 64.8729 431.684 65.0642 430.886 65.0107C430.087 64.9573 429.324 64.6615 428.698 64.1629" fill="white"/>
<path d="M431.223 65.8098C432.06 65.8052 432.878 65.563 433.582 65.1113C434.754 64.2944 435.702 63.1965 436.34 61.918C437.655 59.5675 438.533 56.998 438.932 54.334C439.227 52.8517 439.227 51.3258 438.932 49.8435C438.642 48.5878 437.984 47.4474 437.043 46.5676C436.102 45.6878 434.92 45.1086 433.649 44.9039C429.827 44.1389 424.993 45.669 423.514 49.5441C423.443 49.7317 423.448 49.9397 423.529 50.1232C423.61 50.3067 423.76 50.4512 423.946 50.5254C424.135 50.5954 424.345 50.5875 424.528 50.5034C424.712 50.4192 424.855 50.2657 424.926 50.0763C426.122 46.9662 430.143 45.7521 433.35 46.3841C434.341 46.533 435.265 46.9776 436 47.6601C436.735 48.3425 437.247 49.2309 437.47 50.2094C437.723 51.4943 437.723 52.8162 437.47 54.1012C437.09 56.5888 436.269 58.9884 435.045 61.1862C434.524 62.2382 433.754 63.1463 432.802 63.8307C432.239 64.1617 431.588 64.3122 430.938 64.2616C430.287 64.2111 429.668 63.962 429.163 63.5479C429.08 63.4911 428.987 63.4513 428.888 63.4305C428.79 63.4098 428.689 63.4087 428.59 63.4273C428.491 63.4458 428.397 63.4836 428.313 63.5386C428.229 63.5935 428.156 63.6645 428.099 63.7475C428.043 63.8305 428.003 63.9239 427.982 64.0223C427.962 64.1207 427.96 64.2222 427.979 64.321C427.997 64.4199 428.035 64.5141 428.09 64.5983C428.145 64.6826 428.216 64.7551 428.299 64.8119C429.151 65.4325 430.17 65.7803 431.223 65.8098Z" fill="#231F20"/>
<path d="M472.262 256.807C469.83 246.723 468.032 236.497 466.878 226.188C464.752 202.272 466.878 120.86 461.794 104.661C459.335 96.9272 433.333 91.2559 433.333 91.2559C433.333 91.2559 408.411 223.244 408.411 258.902L472.262 256.807Z" fill="#004680"/>
<path d="M428.182 188.334C422.068 187.286 416.552 184.442 410.82 182.031C408.527 181.066 406.184 180.185 403.808 179.453C401.017 178.588 398.342 176.925 395.351 176.842C393.49 176.842 393.972 179.42 394.67 180.368C395.386 181.231 396.246 181.962 397.212 182.53C398.957 183.727 402.645 185.856 403.277 188.018C400.955 188.415 398.603 188.604 396.249 188.584C393.723 188.866 391.264 189.249 388.739 189.731C386.213 190.214 383.887 190.779 381.494 191.394C379.354 191.778 377.248 192.335 375.197 193.058C374.716 193.307 374.201 193.673 374.167 194.205C374.051 196.101 378.304 195.868 379.368 195.769L398.957 193.806C392.098 194.452 385.306 195.676 378.653 197.465C378.006 197.567 377.417 197.897 376.992 198.396C375.33 200.908 382.342 201.041 383.123 201.057C386.736 201.146 390.352 201.052 393.956 200.775L385.15 202.238C383.189 202.571 381.212 202.887 379.268 203.386C378.191 203.591 377.188 204.079 376.361 204.799C376.248 204.897 376.176 205.034 376.161 205.182C376.161 205.382 376.377 205.515 376.56 205.598C378.219 206.274 380.003 206.591 381.794 206.529C385.463 206.602 389.132 206.357 392.759 205.797L381.893 206.962C380.921 206.958 379.979 207.3 379.235 207.926C379.15 208.236 379.167 208.566 379.284 208.865C379.401 209.165 379.611 209.419 379.883 209.589C380.448 209.926 381.087 210.12 381.744 210.155C385.75 210.404 389.767 210.404 393.773 210.155C398.145 210.177 402.514 209.899 406.849 209.323C415.421 208.253 423.754 205.757 431.505 201.939" fill="white"/>
<path d="M386.014 211.22C387.31 211.22 388.573 211.22 389.836 211.12C391.098 211.021 392.461 211.021 393.79 211.12C398.195 211.134 402.597 210.856 406.966 210.289C415.63 209.205 424.054 206.681 431.888 202.821C432.069 202.728 432.206 202.569 432.271 202.376C432.336 202.184 432.324 201.974 432.237 201.79C432.141 201.612 431.981 201.478 431.789 201.416C431.597 201.354 431.388 201.369 431.207 201.457C423.537 205.247 415.287 207.72 406.799 208.775C402.481 209.344 398.128 209.605 393.773 209.557C392.428 209.557 391.082 209.557 389.753 209.657C387.117 209.829 384.472 209.785 381.844 209.524C381.309 209.49 380.788 209.343 380.315 209.091C380.199 209.018 380.103 208.917 380.034 208.799C379.964 208.68 379.924 208.547 379.917 208.409C380.527 208.02 381.236 207.812 381.96 207.811L387.061 207.262C389.005 207.145 390.949 206.929 392.876 206.646C393.072 206.61 393.246 206.5 393.363 206.339C393.48 206.179 393.532 205.979 393.508 205.782C393.479 205.587 393.376 205.412 393.222 205.291C393.067 205.17 392.872 205.114 392.677 205.133L386.945 205.748C385.239 205.848 383.527 205.881 381.811 205.848C380.252 205.903 378.697 205.666 377.225 205.15C377.903 204.689 378.665 204.366 379.468 204.202C381.379 203.719 383.356 203.387 385.283 203.071L394.072 201.607C394.171 201.596 394.266 201.566 394.352 201.518C394.439 201.471 394.515 201.406 394.577 201.329C394.638 201.252 394.684 201.163 394.712 201.068C394.739 200.973 394.748 200.874 394.737 200.776C394.726 200.677 394.696 200.582 394.648 200.495C394.601 200.409 394.536 200.332 394.459 200.271C394.382 200.209 394.294 200.163 394.199 200.135C394.104 200.108 394.004 200.099 393.906 200.11C390.334 200.376 386.712 200.46 383.14 200.376C379.568 200.293 377.74 199.645 377.524 199.229C377.524 199.146 377.524 198.979 377.624 198.896C377.957 198.564 378.388 198.349 378.853 198.281C385.465 196.478 392.219 195.243 399.04 194.589C399.225 194.568 399.397 194.481 399.522 194.343C399.648 194.205 399.719 194.027 399.721 193.84V193.757C399.696 193.559 399.596 193.377 399.442 193.25C399.287 193.123 399.09 193.061 398.891 193.075L379.302 195.054C377.859 195.31 376.373 195.13 375.032 194.539C374.932 194.439 374.915 194.372 374.932 194.289C374.949 194.206 375.065 194.006 375.53 193.79C376.777 193.26 378.082 192.88 379.418 192.659C380.199 192.493 380.98 192.343 381.711 192.127C384.07 191.462 386.479 190.88 388.889 190.464C391.298 190.048 393.873 189.599 396.332 189.333C397.182 189.251 398.036 189.212 398.891 189.217C400.434 189.262 401.976 189.1 403.476 188.734C403.575 188.709 403.668 188.664 403.748 188.601C403.828 188.538 403.894 188.458 403.942 188.368C404.017 188.182 404.017 187.973 403.942 187.786C403.31 185.691 400.436 183.795 398.342 182.398L397.312 181.699C396.516 181.233 395.808 180.63 395.219 179.92C395.011 179.604 394.871 179.249 394.808 178.877C394.745 178.505 394.76 178.123 394.853 177.757C394.853 177.757 394.986 177.574 395.269 177.591C397.159 177.746 399.003 178.26 400.702 179.105C401.616 179.47 402.563 179.87 403.526 180.169C405.88 180.897 408.193 181.752 410.455 182.73C411.501 183.163 412.548 183.628 413.578 184.077C418.162 186.329 423.006 188.005 428 189.067C428.186 189.074 428.367 189.013 428.511 188.895C428.655 188.778 428.751 188.612 428.782 188.428C428.812 188.245 428.775 188.056 428.677 187.899C428.579 187.741 428.427 187.624 428.249 187.57C423.384 186.523 418.663 184.887 414.193 182.697L411.053 181.317C408.739 180.328 406.376 179.457 403.975 178.705C403.061 178.413 402.163 178.074 401.283 177.691C399.405 176.782 397.379 176.218 395.302 176.028C394.94 176.01 394.58 176.094 394.262 176.27C393.945 176.447 393.684 176.708 393.508 177.026C393.278 177.642 393.201 178.304 393.285 178.956C393.369 179.609 393.611 180.23 393.989 180.768C394.673 181.63 395.506 182.363 396.448 182.93L397.512 183.645C399.244 184.653 400.799 185.94 402.114 187.454C401.014 187.612 399.903 187.684 398.791 187.67C397.892 187.659 396.994 187.698 396.099 187.786C393.574 188.052 391.115 188.452 388.523 188.934C385.931 189.416 383.622 189.998 381.229 190.68C380.531 190.88 379.784 191.029 379.053 191.179C377.595 191.422 376.172 191.841 374.816 192.426C374.429 192.557 374.086 192.793 373.825 193.107C373.564 193.421 373.395 193.802 373.337 194.206C373.318 194.476 373.36 194.746 373.461 194.997C373.562 195.247 373.718 195.472 373.919 195.653C375.082 196.767 377.906 196.701 379.036 196.601L378.388 196.784C377.567 196.934 376.829 197.377 376.311 198.031C376.106 198.295 375.979 198.612 375.947 198.944C375.915 199.277 375.978 199.612 376.128 199.911C376.76 201.108 379.086 201.773 383.024 201.857C381.694 202.089 380.332 202.339 379.003 202.688C377.76 202.915 376.607 203.492 375.68 204.351C375.553 204.471 375.453 204.616 375.384 204.776C375.316 204.936 375.281 205.108 375.281 205.283C375.3 205.524 375.388 205.755 375.536 205.947C375.683 206.139 375.883 206.284 376.112 206.364C376.993 206.763 377.928 207.032 378.886 207.162C378.762 207.264 378.645 207.375 378.537 207.495C378.478 207.556 378.432 207.63 378.405 207.711C378.244 208.186 378.246 208.701 378.412 209.174C378.578 209.647 378.897 210.051 379.318 210.322C379.987 210.73 380.746 210.964 381.528 211.004C383.017 211.182 384.516 211.254 386.014 211.22Z" fill="#231F20"/>
<path d="M461.894 104.629C461.894 104.629 513.018 197.766 494.692 204.019C487.182 206.58 419.925 210.522 419.925 210.522L412.797 181.483L463.174 173.683L461.894 104.629Z" fill="#004680"/>
<path d="M395.717 62.7167C398.066 62.7101 400.36 62.0067 402.31 60.6953C404.259 59.3839 405.777 57.5234 406.67 55.349C407.564 53.1745 407.793 50.7837 407.33 48.4787C406.866 46.1738 405.731 44.058 404.066 42.399C402.402 40.7399 400.284 39.6119 397.979 39.1577C395.674 38.7034 393.287 38.9432 391.119 39.8468C388.95 40.7503 387.098 42.2771 385.796 44.2341C384.494 46.1911 383.801 48.4905 383.804 50.8418C383.806 52.4048 384.116 53.9521 384.716 55.3951C385.316 56.8381 386.195 58.1485 387.301 59.2514C388.408 60.3543 389.72 61.2281 391.165 61.8227C392.609 62.4173 394.156 62.7211 395.717 62.7167ZM395.717 40.4803C397.764 40.4803 399.766 41.088 401.468 42.2265C403.17 43.365 404.497 44.9833 405.28 46.8766C406.064 48.7699 406.269 50.8533 405.869 52.8632C405.47 54.8731 404.484 56.7193 403.036 58.1684C401.589 59.6175 399.744 60.6043 397.736 61.0041C395.729 61.4039 393.647 61.1987 391.756 60.4145C389.864 59.6303 388.248 58.3022 387.11 56.5983C385.973 54.8944 385.366 52.8911 385.366 50.8418C385.37 48.0951 386.462 45.4622 388.403 43.52C390.343 41.5778 392.973 40.4847 395.717 40.4803Z" fill="#231F20"/>
<path d="M418.696 60.8046C421.042 60.8046 423.335 60.1081 425.286 58.8033C427.237 57.4985 428.758 55.6439 429.656 53.474C430.553 51.3041 430.788 48.9165 430.331 46.613C429.873 44.3094 428.743 42.1935 427.084 40.5328C425.425 38.872 423.311 37.7411 421.01 37.2829C418.709 36.8247 416.323 37.0598 414.156 37.9586C411.988 38.8574 410.135 40.3795 408.832 42.3323C407.528 44.2851 406.833 46.581 406.833 48.9296C406.837 52.0777 408.088 55.0956 410.312 57.3216C412.536 59.5477 415.551 60.8002 418.696 60.8046ZM418.696 38.5682C420.744 38.5649 422.746 39.1698 424.451 40.3063C426.155 41.4428 427.485 43.0599 428.271 44.9529C429.057 46.846 429.264 48.9298 428.866 50.9409C428.469 52.9519 427.484 54.7997 426.037 56.2504C424.59 57.7011 422.746 58.6896 420.738 59.0908C418.729 59.4919 416.647 59.2877 414.755 58.504C412.862 57.7202 411.245 56.3922 410.107 54.6879C408.969 52.9836 408.361 50.9797 408.361 48.9296C408.365 46.1858 409.455 43.5554 411.392 41.6137C413.328 39.672 415.954 38.577 418.696 38.5682Z" fill="#231F20"/>
<path d="M412.78 182.231H412.897L463.273 174.431C463.378 174.416 463.478 174.379 463.567 174.321C463.656 174.264 463.732 174.188 463.788 174.098C463.849 174.012 463.89 173.914 463.91 173.811C463.93 173.708 463.928 173.602 463.905 173.499L451.776 121.11C451.736 120.909 451.618 120.733 451.448 120.619C451.279 120.505 451.071 120.463 450.87 120.503C450.67 120.543 450.493 120.66 450.379 120.83C450.266 121 450.224 121.209 450.264 121.409L462.21 172.967L412.631 180.634C412.532 180.651 412.436 180.686 412.351 180.739C412.265 180.792 412.191 180.862 412.132 180.944C412.074 181.026 412.032 181.118 412.009 181.217C411.986 181.315 411.983 181.416 412 181.516C412.004 181.614 412.027 181.711 412.069 181.8C412.111 181.889 412.169 181.969 412.242 182.036C412.314 182.102 412.399 182.153 412.492 182.187C412.584 182.221 412.682 182.236 412.78 182.231Z" fill="#231F20"/>
<path d="M362.786 195.869C362.971 195.87 363.15 195.803 363.288 195.68C363.426 195.557 363.513 195.387 363.534 195.204L371.459 129.442C373.004 116.57 373.004 116.57 372.307 116.42L372.008 117.917L372.157 117.168H371.393C371.293 118.299 362.122 194.306 362.022 195.071C361.999 195.271 362.055 195.473 362.18 195.632C362.304 195.791 362.486 195.894 362.687 195.919L362.786 195.869Z" fill="#231F20"/>
<path d="M351.455 165.815C351.584 165.814 351.71 165.78 351.823 165.717C351.935 165.654 352.029 165.563 352.097 165.454C352.165 165.344 352.205 165.22 352.211 165.091C352.218 164.962 352.192 164.834 352.136 164.718L322.03 104.295C321.941 104.115 321.784 103.978 321.595 103.913C321.405 103.847 321.198 103.859 321.017 103.946C320.836 104.039 320.699 104.198 320.633 104.391C320.568 104.583 320.581 104.793 320.668 104.977L350.774 165.399C350.837 165.526 350.934 165.632 351.055 165.706C351.175 165.78 351.314 165.817 351.455 165.815Z" fill="#231F20"/>
<path d="M501.239 167.13H501.338C501.556 167.105 501.755 166.995 501.892 166.823C502.029 166.652 502.093 166.433 502.069 166.215C502.069 165.933 498.846 137.725 502.069 123.522C503.731 115.955 506.19 113.161 507.918 112.146C508.26 111.908 508.647 111.742 509.055 111.656C509.463 111.57 509.884 111.567 510.294 111.647C510.505 111.71 510.733 111.688 510.928 111.585C511.124 111.483 511.272 111.308 511.34 111.098C511.404 110.891 511.383 110.667 511.284 110.474C511.185 110.282 511.014 110.136 510.809 110.067C510.193 109.914 509.553 109.889 508.928 109.992C508.302 110.095 507.704 110.324 507.17 110.666C504.213 112.329 501.953 116.537 500.524 123.173C497.201 137.626 500.375 165.234 500.524 166.415C500.545 166.597 500.627 166.767 500.757 166.897C500.887 167.027 501.056 167.109 501.239 167.13Z" fill="white"/>
<path d="M429.778 155.005C429.889 154.996 429.996 154.962 430.091 154.904C430.187 154.846 430.267 154.767 430.326 154.673L445.695 137.043C445.827 136.904 445.901 136.719 445.901 136.528C445.901 136.336 445.827 136.151 445.695 136.012L435.726 125.817L445.695 116.486C445.823 116.364 445.904 116.201 445.926 116.025C445.947 115.849 445.906 115.671 445.811 115.522C444.15 113.077 436.108 100.853 435.427 100.171C435.284 100.028 435.089 99.9473 434.887 99.9473C434.684 99.9473 434.49 100.028 434.347 100.171C434.277 100.241 434.221 100.323 434.183 100.415C434.145 100.506 434.125 100.604 434.125 100.703C434.125 100.802 434.145 100.9 434.183 100.991C434.221 101.083 434.277 101.166 434.347 101.235C434.879 101.834 440.395 110.083 444.183 115.821L434.214 125.235C434.14 125.305 434.081 125.391 434.041 125.485C434.001 125.579 433.98 125.681 433.981 125.784C433.985 125.986 434.062 126.181 434.197 126.332L444.166 136.577L429.213 153.741C429.084 153.897 429.021 154.097 429.037 154.299C429.052 154.5 429.145 154.688 429.296 154.822C429.432 154.935 429.601 154.999 429.778 155.005Z" fill="#231F20"/>
<path d="M392.112 150.748C392.27 150.745 392.425 150.699 392.56 150.615C392.722 150.496 392.831 150.318 392.865 150.12C392.899 149.922 392.855 149.718 392.743 149.551L380.697 132.371L393.258 122.392C393.34 122.324 393.407 122.241 393.456 122.146C393.504 122.052 393.533 121.949 393.541 121.843C393.551 121.74 393.539 121.635 393.505 121.537C393.47 121.44 393.414 121.351 393.341 121.277L385.732 113.294L399.023 101.303C399.163 101.157 399.24 100.964 399.24 100.762C399.24 100.561 399.163 100.367 399.023 100.222C398.88 100.078 398.686 99.998 398.483 99.998C398.281 99.998 398.087 100.078 397.943 100.222L384.153 112.745C384.077 112.812 384.016 112.894 383.973 112.985C383.93 113.077 383.906 113.176 383.904 113.277C383.898 113.379 383.914 113.481 383.951 113.576C383.988 113.671 384.046 113.756 384.12 113.826L391.68 121.76L379.202 131.739C379.048 131.857 378.946 132.031 378.918 132.224C378.89 132.416 378.939 132.612 379.052 132.77L391.514 150.549C391.594 150.622 391.689 150.677 391.792 150.712C391.895 150.746 392.004 150.759 392.112 150.748Z" fill="#231F20"/>
<path d="M96.8315 82.592C93.3257 82.4423 89.8366 81.8436 85.7659 81.4943C81.9777 81.1617 77.1096 79.8312 77.0431 75.956C77.0431 72.6297 80.8812 70.0352 80.0172 66.8918C79.7193 66.0477 79.2624 65.2685 78.6714 64.5966C73.2626 57.3326 70.8699 48.256 71.994 39.2663C73.1181 30.2767 77.672 22.0705 84.7026 16.3651C84.4309 16.4124 84.1523 16.4018 83.885 16.334C83.6177 16.2662 83.3677 16.1427 83.1513 15.9716C82.935 15.8006 82.7571 15.5857 82.6293 15.3411C82.5015 15.0965 82.4267 14.8277 82.4097 14.5522C82.3933 13.4116 82.8295 12.3111 83.6226 11.492C86.4315 8.37555 90.0859 6.14488 94.1399 5.07222C106.946 1.12176 120.644 1.12176 133.451 5.07222C143.287 7.94949 155.05 15.783 153.771 27.6579C153.306 31.9156 149.966 36.0901 145.679 36.2731C143.486 48.9962 136.824 57.6779 128.45 66.8918C122.839 73.2021 115.755 78.0245 107.831 80.9289C104.311 82.2076 100.572 82.7729 96.8315 82.592Z" fill="white"/>
<path d="M98.3769 83.4563C101.689 83.4767 104.979 82.9138 108.097 81.7932C116.16 78.8516 123.366 73.9477 129.065 67.5233C136.807 59.0245 143.935 50.2763 146.377 37.1374C150.963 36.5386 154.136 32.0481 154.602 27.8237C155.864 16.1816 145.015 7.66622 133.684 4.35653C120.718 0.370739 106.856 0.370739 93.8909 4.35653C89.6933 5.48769 85.906 7.79582 82.9749 11.0092C82.5131 11.4971 82.1521 12.0715 81.9126 12.6994C81.6731 13.3273 81.5598 13.9963 81.5792 14.6681C81.6279 15.1069 81.7702 15.53 81.9967 15.9088C82.2232 16.2877 82.5285 16.6132 82.8918 16.8635C76.2049 22.8384 71.9949 31.1029 71.0909 40.0296C70.1868 48.9562 72.6541 57.8983 78.007 65.0951L78.1233 65.2448C78.5914 65.7991 78.9622 66.429 79.2199 67.1075C79.2877 67.8582 79.2067 68.6149 78.9814 69.3342C78.7562 70.0534 78.3911 70.7211 77.9073 71.2987C76.9238 72.6682 76.3477 74.2885 76.2458 75.9721C76.2458 79.4481 79.8513 81.8098 85.7329 82.3088C87.3944 82.4584 89.0559 82.658 90.5346 82.8243C92.7112 83.0904 94.7548 83.3399 96.8317 83.4231L98.3769 83.4563ZM113.181 3.04264C119.965 3.05724 126.713 4.04293 133.218 5.9698C141.227 8.31485 154.286 15.4831 152.857 27.6574C152.458 31.3163 149.534 35.3744 145.563 35.5574C145.374 35.5626 145.193 35.6335 145.05 35.7579C144.908 35.8823 144.813 36.0525 144.782 36.2393C142.739 48.0643 136.99 56.1972 127.752 66.4256C122.233 72.6376 115.263 77.3857 107.465 80.2464C104.046 81.4596 100.419 81.9742 96.7985 81.7599C94.7715 81.7599 92.7611 81.4273 90.6177 81.1778C89.0725 80.9949 87.4609 80.8119 85.7495 80.6622C84.0382 80.5126 77.8575 79.6976 77.791 75.9389C77.9271 74.5658 78.4324 73.2554 79.2531 72.1469C80.25 70.4837 81.2967 68.7041 80.7318 66.6751C80.436 65.7863 79.9736 64.9622 79.3694 64.2469L79.2531 64.0972C73.9831 57.0135 71.654 48.1641 72.7534 39.4007C73.8527 30.6373 78.2953 22.6391 85.1514 17.0797C85.3021 16.9561 85.4046 16.7835 85.441 16.592C85.4775 16.4005 85.4455 16.2022 85.3508 16.0319C85.2617 15.8594 85.114 15.7243 84.9343 15.6511C84.7546 15.578 84.5546 15.5714 84.3705 15.6328C84.2689 15.6639 84.1612 15.6696 84.0569 15.6493C83.9526 15.629 83.8549 15.5833 83.7724 15.5163C83.6058 15.4063 83.4647 15.2617 83.3586 15.0925C83.2526 14.9232 83.184 14.7331 83.1576 14.5351C83.1725 13.6126 83.5414 12.7312 84.1878 12.0736C86.9126 8.74727 91.2823 6.93443 94.3228 5.93654C100.415 3.97291 106.781 2.99597 113.181 3.04264Z" fill="#231F20"/>
<path d="M149.069 54.8828C149.069 54.8828 158.14 69.8512 156.03 72.7784C153.92 75.7056 147.374 73.4603 147.374 73.4603" fill="white"/>
<path d="M152.109 75.0901C152.973 75.1633 153.842 75.0279 154.643 74.695C155.444 74.3622 156.154 73.8418 156.712 73.1775C158.955 70.0341 151.976 57.9928 149.783 54.3671C149.732 54.2642 149.659 54.1731 149.571 54.0997C149.482 54.0262 149.38 53.9719 149.269 53.9403C149.158 53.9086 149.043 53.9003 148.929 53.9158C148.815 53.9313 148.705 53.9703 148.607 54.0304C148.509 54.0905 148.424 54.1703 148.359 54.2648C148.293 54.3593 148.248 54.4664 148.225 54.5793C148.203 54.6923 148.205 54.8086 148.23 54.9209C148.255 55.0333 148.303 55.1392 148.371 55.232C152.591 62.2006 156.462 70.6661 155.349 72.1962C153.92 74.2086 149.318 73.1608 147.657 72.5953C147.447 72.5258 147.219 72.5407 147.02 72.637C146.822 72.7333 146.669 72.9033 146.593 73.1109C146.524 73.3183 146.54 73.5445 146.636 73.7405C146.732 73.9366 146.902 74.0868 147.108 74.1587C148.719 74.7185 150.405 75.0325 152.109 75.0901Z" fill="#231F20"/>
<path d="M147.756 35.5238C153.688 40.7793 151.511 51.2739 151.195 58.2092C150.752 67.8888 150.082 77.5518 149.185 87.1981C148.62 93.3185 132.736 92.8362 130.011 90.8903L131.556 115.222C131.556 115.222 123.864 117.018 111.286 110.599C98.7088 104.179 98.7088 101.135 98.7088 101.135L100.852 73.1777C100.852 73.1777 111.32 73.6267 117.965 61.3692C124.611 49.1118 125.176 29.9355 125.176 29.9355C125.176 29.9355 141.974 30.4179 147.756 35.5238Z" fill="white"/>
<path d="M128.699 116.254C129.725 116.279 130.75 116.19 131.756 115.988C131.95 115.948 132.121 115.837 132.238 115.677C132.355 115.517 132.408 115.32 132.387 115.123L130.925 92.1548C134.481 93.2692 142.157 93.4188 146.493 91.423C147.413 91.1228 148.23 90.5712 148.852 89.8305C149.475 89.0899 149.878 88.1898 150.016 87.2319C150.896 77.6188 151.578 67.8561 152.026 58.1931C152.026 57.0456 152.176 55.7982 152.292 54.4677C152.857 47.815 153.555 39.4993 148.305 34.9089C142.356 29.6534 125.891 29.0713 125.193 29.0546C125.086 29.0433 124.978 29.057 124.877 29.0945C124.776 29.132 124.685 29.1923 124.612 29.2708C124.53 29.3443 124.464 29.4339 124.418 29.534C124.372 29.6342 124.348 29.7428 124.346 29.8529C124.346 30.0525 123.781 49.0292 117.284 60.9706C110.954 72.6127 101.284 72.33 100.886 72.3134C100.779 72.3066 100.671 72.321 100.57 72.3559C100.469 72.3907 100.375 72.4452 100.295 72.5163C100.215 72.5874 100.149 72.6736 100.102 72.7701C100.055 72.8665 100.028 72.9713 100.022 73.0784L97.8949 101.019C97.8949 101.685 98.5096 104.945 110.921 111.281C116.373 114.317 122.464 116.021 128.699 116.254ZM130.693 114.474C128.566 114.707 121.687 114.923 111.669 109.801C100.204 103.947 99.5398 101.036 99.5398 101.003L101.617 73.9599C104.292 73.8268 112.898 72.4963 118.747 61.7689C124.595 51.0416 125.791 34.6595 125.974 30.751C129.38 30.934 142.423 31.9319 147.208 36.1563C151.827 40.231 151.162 48.0479 150.631 54.3346C150.514 55.6818 150.415 56.9458 150.365 58.1266C149.916 67.7563 149.235 77.4858 148.354 87.0656C148.255 88.2298 147.391 89.1778 145.796 89.9096C141.16 92.055 132.271 91.4397 130.493 90.1757C130.362 90.0912 130.209 90.0462 130.053 90.0462C129.897 90.0462 129.744 90.0912 129.613 90.1757C129.474 90.2513 129.359 90.3651 129.283 90.5035C129.206 90.642 129.171 90.7994 129.181 90.9574L130.693 114.474Z" fill="#231F20"/>
<path d="M149.235 79.9303C149.235 79.9303 141.559 84.2545 137.87 76.3379L149.235 79.9303Z" fill="white"/>
<path d="M144.55 81.9431C146.289 81.9048 147.996 81.4606 149.534 80.6458C149.631 80.5939 149.716 80.523 149.784 80.4374C149.852 80.3517 149.903 80.2532 149.932 80.1476C149.962 80.042 149.97 79.9315 149.956 79.8228C149.941 79.7141 149.905 79.6094 149.85 79.5149C149.742 79.3233 149.562 79.1824 149.35 79.1232C149.138 79.0639 148.912 79.0912 148.72 79.1989C146.835 80.2009 144.648 80.4789 142.573 79.9806C141.654 79.6393 140.817 79.1071 140.119 78.4192C139.42 77.7312 138.875 76.903 138.519 75.989C138.472 75.8891 138.406 75.7995 138.325 75.7252C138.244 75.651 138.149 75.5937 138.045 75.5565C137.942 75.5194 137.832 75.5032 137.722 75.5089C137.612 75.5147 137.504 75.5421 137.405 75.5898C137.208 75.6836 137.056 75.8514 136.981 76.0568C136.906 76.2622 136.916 76.4888 137.007 76.6875C137.455 77.8148 138.139 78.8329 139.013 79.6735C139.887 80.514 140.931 81.1575 142.074 81.5606C142.874 81.817 143.71 81.9461 144.55 81.9431Z" fill="#231F20"/>
<path d="M129.979 63.4147C129.701 61.4053 128.793 59.536 127.387 58.076C126.426 56.7031 125.267 55.4811 123.947 54.4503C122.461 53.3446 120.628 52.8078 118.78 52.9368C118.029 53.0167 117.301 53.248 116.642 53.6167C115.982 53.9855 115.404 54.484 114.942 55.0823C114.174 56.1665 113.73 57.4471 113.663 58.7745C113.131 64.4292 116.82 70.4166 122.917 73.7429L122.402 73.2606" fill="white"/>
<path d="M122.95 74.5259C123.083 74.524 123.213 74.4915 123.331 74.4309C123.45 74.3703 123.552 74.2833 123.631 74.1766C123.749 74.0111 123.803 73.808 123.781 73.6057C123.76 73.4034 123.665 73.216 123.515 73.0789L122.983 72.5966C122.9 72.5171 122.8 72.4566 122.691 72.4192C122.582 72.3819 122.467 72.3687 122.352 72.3804C117.168 69.1539 114.045 63.8318 114.51 58.8589C114.56 57.6647 114.952 56.5101 115.64 55.5326C116.04 55.0187 116.541 54.5926 117.113 54.2808C117.685 53.9689 118.314 53.778 118.963 53.7198C120.61 53.6095 122.243 54.0933 123.565 55.0836C124.836 56.0677 125.955 57.2332 126.888 58.5429C128.165 59.8679 129.011 61.5497 129.314 63.3661C129.314 63.5866 129.401 63.7982 129.557 63.9541C129.713 64.1101 129.924 64.1977 130.144 64.1977C130.365 64.1977 130.576 64.1101 130.732 63.9541C130.888 63.7982 130.975 63.5866 130.975 63.3661C130.705 61.1662 129.732 59.1127 128.2 57.5118C127.195 56.079 125.98 54.8063 124.595 53.7364C122.944 52.502 120.901 51.9109 118.846 52.0733C117.983 52.1674 117.148 52.4355 116.391 52.8614C115.635 53.2873 114.972 53.8622 114.443 54.5514C113.578 55.7598 113.076 57.1911 112.998 58.676C112.45 64.6135 116.321 70.9335 122.684 74.3928C122.765 74.452 122.855 74.4969 122.95 74.5259Z" fill="#231F20"/>
<path d="M130.012 90.8408C130.012 90.8408 121.887 87.9802 118.265 82.1758C118.265 82.1758 118.265 96.928 130.693 101.685L130.012 90.8408Z" fill="#231F20"/>
<path d="M130.692 102.516C130.873 102.52 131.049 102.461 131.191 102.35C131.303 102.27 131.393 102.161 131.451 102.036C131.51 101.911 131.534 101.772 131.523 101.635L130.842 90.7908C130.832 90.6285 130.775 90.4727 130.677 90.3427C130.58 90.2126 130.447 90.114 130.294 90.059C130.211 90.059 122.385 87.215 118.979 81.7432C118.886 81.5859 118.743 81.4638 118.574 81.3957C118.404 81.3276 118.217 81.3174 118.041 81.3666C117.865 81.4159 117.71 81.5219 117.6 81.6681C117.491 81.8144 117.432 81.9928 117.434 82.1757C117.434 82.3253 117.567 97.5599 130.41 102.466C130.5 102.5 130.596 102.517 130.692 102.516ZM129.214 91.4394L129.779 100.404C122.219 96.8447 120.009 89.111 119.361 84.9531C122.16 87.7848 125.515 90.0048 129.214 91.4727V91.4394Z" fill="#231F20"/>
<path d="M143.115 51.3291C142.378 51.1749 142.098 49.5339 142.488 47.6638C142.879 45.7937 143.793 44.4027 144.529 44.5568C145.266 44.711 145.546 46.352 145.155 48.2221C144.765 50.0922 143.851 51.4833 143.115 51.3291Z" fill="#231F20"/>
<path d="M188.595 201.242C192.932 203.77 198.564 202.123 202.718 199.279C206.192 196.85 209.081 193.676 211.173 189.987C213.266 186.298 214.509 182.189 214.814 177.958C215.13 175.126 214.592 172.265 213.269 169.742C202.02 150.898 170.884 190.93 188.595 201.242Z" fill="white"/>
<path d="M193.43 203.303C196.926 203.17 200.305 202.013 203.15 199.977C206.709 197.476 209.668 194.216 211.815 190.43C213.961 186.645 215.241 182.43 215.562 178.09C215.899 175.105 215.32 172.088 213.9 169.441C211.391 165.233 207.753 163.454 203.316 164.269C194.643 165.932 184.658 177.574 182.78 188.218C181.7 194.422 183.628 199.295 188.197 201.973C189.788 202.884 191.598 203.344 193.43 203.303ZM205.36 165.549C206.875 165.588 208.352 166.04 209.629 166.858C210.906 167.676 211.935 168.828 212.604 170.19C213.87 172.569 214.374 175.281 214.05 177.957C213.744 182.069 212.53 186.063 210.496 189.649C208.461 193.236 205.658 196.326 202.286 198.696C198.598 201.241 193.165 203.07 188.994 200.625C183.894 197.648 183.628 192.31 184.309 188.451C186.07 178.472 195.624 167.196 203.632 165.716C204.203 165.613 204.78 165.558 205.36 165.549Z" fill="#231F20"/>
<path d="M270.574 207.811L193.098 206.863L228.987 115.439L306.462 116.371L270.574 207.811Z" fill="white"/>
<path d="M270.574 208.558C270.726 208.563 270.876 208.519 271.002 208.432C271.127 208.345 271.222 208.22 271.271 208.076L307.176 116.602C307.233 116.495 307.263 116.375 307.263 116.253C307.263 116.131 307.233 116.011 307.176 115.904C307.111 115.8 307.02 115.715 306.912 115.657C306.805 115.599 306.684 115.569 306.562 115.571L229.086 114.623C228.937 114.638 228.793 114.69 228.669 114.775C228.544 114.859 228.442 114.972 228.372 115.105L192.467 206.579C192.425 206.693 192.41 206.816 192.425 206.937C192.439 207.058 192.482 207.174 192.551 207.274C192.619 207.375 192.71 207.458 192.817 207.517C192.924 207.575 193.043 207.607 193.165 207.61L270.64 208.542L270.574 208.558ZM305.365 117.085L270.059 207.011L194.195 206.08L229.502 116.17L305.365 117.085Z" fill="#231F20"/>
<path d="M267.932 205.582L190.456 204.65L226.345 113.227L303.82 114.158L267.932 205.582Z" fill="white"/>
<path d="M267.932 206.347C268.084 206.349 268.233 206.304 268.358 206.218C268.483 206.131 268.578 206.008 268.63 205.865L304.534 114.391C304.587 114.282 304.615 114.163 304.615 114.042C304.615 113.921 304.587 113.802 304.534 113.693C304.468 113.589 304.377 113.504 304.27 113.443C304.163 113.382 304.043 113.348 303.92 113.343L226.428 112.412C226.277 112.423 226.131 112.473 226.006 112.558C225.881 112.642 225.78 112.758 225.713 112.894L189.825 204.368C189.781 204.482 189.765 204.606 189.779 204.728C189.794 204.85 189.838 204.966 189.908 205.067C189.975 205.17 190.066 205.256 190.173 205.317C190.28 205.378 190.4 205.412 190.523 205.416L267.998 206.347H267.932ZM302.707 114.874L267.417 204.784L191.553 203.869L226.86 113.959L302.707 114.874Z" fill="#231F20"/>
<path d="M275.126 160.576C275.345 160.572 275.554 160.483 275.709 160.328C275.863 160.173 275.952 159.964 275.957 159.745C275.957 159.524 275.869 159.313 275.713 159.157C275.557 159.001 275.346 158.913 275.126 158.913L219.831 158.248C219.614 158.248 219.405 158.333 219.25 158.486C219.094 158.638 219.005 158.845 219.001 159.063C219.001 159.285 219.088 159.498 219.243 159.657C219.398 159.816 219.61 159.907 219.831 159.911L275.126 160.576Z" fill="#D1D3D4"/>
<path d="M271.471 169.89C271.691 169.89 271.903 169.802 272.058 169.646C272.214 169.49 272.302 169.279 272.302 169.058C272.302 168.838 272.214 168.626 272.058 168.47C271.903 168.314 271.691 168.227 271.471 168.227L216.177 167.562C216.066 167.552 215.954 167.566 215.849 167.603C215.744 167.64 215.649 167.699 215.568 167.777C215.488 167.854 215.425 167.947 215.384 168.051C215.343 168.154 215.324 168.265 215.329 168.376C215.327 168.486 215.346 168.594 215.386 168.696C215.426 168.798 215.485 168.891 215.561 168.969C215.636 169.048 215.727 169.111 215.827 169.155C215.927 169.199 216.034 169.222 216.143 169.225L271.454 169.89H271.471Z" fill="#D1D3D4"/>
<path d="M267.799 179.203C268.019 179.203 268.23 179.116 268.386 178.96C268.542 178.804 268.629 178.592 268.629 178.372C268.629 178.151 268.542 177.94 268.386 177.784C268.23 177.628 268.019 177.54 267.799 177.54L212.488 176.875C212.267 176.875 212.056 176.963 211.9 177.119C211.744 177.275 211.657 177.486 211.657 177.707C211.657 177.927 211.744 178.139 211.9 178.295C212.056 178.451 212.267 178.538 212.488 178.538L267.799 179.203Z" fill="#D1D3D4"/>
<path d="M243.907 188.285C244.126 188.281 244.334 188.192 244.489 188.037C244.644 187.882 244.733 187.673 244.737 187.453C244.737 187.233 244.65 187.021 244.494 186.865C244.338 186.709 244.127 186.622 243.907 186.622L208.849 186.189C208.629 186.189 208.417 186.277 208.262 186.433C208.106 186.589 208.018 186.8 208.018 187.021C208.018 187.242 208.106 187.453 208.262 187.609C208.417 187.765 208.629 187.853 208.849 187.853L243.907 188.285Z" fill="#D1D3D4"/>
<path d="M278.05 153.093C278.218 153.098 278.383 153.051 278.522 152.959C278.662 152.866 278.77 152.733 278.831 152.577L290.761 122.108C290.805 121.983 290.82 121.849 290.803 121.717C290.786 121.586 290.738 121.46 290.664 121.35C290.59 121.24 290.491 121.149 290.375 121.084C290.259 121.019 290.129 120.983 289.997 120.977L259.857 120.611C259.69 120.609 259.527 120.657 259.387 120.749C259.248 120.841 259.14 120.973 259.076 121.127L247.13 151.596C247.081 151.721 247.063 151.856 247.078 151.989C247.092 152.122 247.139 152.25 247.213 152.361C247.286 152.475 247.387 152.568 247.507 152.632C247.626 152.696 247.759 152.729 247.894 152.727L278.034 153.093H278.05ZM288.8 122.624L277.502 151.43L249.124 151.08L260.439 122.275L288.8 122.624Z" fill="#D1D3D4"/>
<path d="M231.778 130.757H233.622L235.118 126.931H236.463L237.361 130.773H239.587L238.407 126.748C239.163 126.684 239.887 126.414 240.501 125.967C241.076 125.549 241.516 124.97 241.764 124.304C241.951 123.911 242.015 123.47 241.946 123.04C241.869 122.715 241.673 122.43 241.398 122.241C241.073 122.022 240.704 121.875 240.318 121.809C239.858 121.72 239.391 121.676 238.922 121.676H235.317L231.778 130.757ZM235.666 125.584L236.63 123.123H238.291H239.005C239.217 123.148 239.424 123.204 239.62 123.289C239.78 123.368 239.905 123.505 239.969 123.672C240.012 123.771 240.034 123.879 240.034 123.988C240.034 124.096 240.012 124.204 239.969 124.304C239.876 124.572 239.716 124.813 239.504 125.002C239.3 125.162 239.069 125.286 238.823 125.368C238.567 125.438 238.306 125.482 238.042 125.501H237.228L235.666 125.584Z" fill="#D1D3D4"/>
<path d="M240.916 130.873L248.044 130.956L248.609 129.509H243.325L244.289 127.064H249.041L249.622 125.617H244.854L245.734 123.405H250.719L251.284 121.958L244.422 121.875L240.916 130.873Z" fill="#D1D3D4"/>
<path d="M237.045 133.783C236.754 133.434 236.367 133.179 235.932 133.051C235.443 132.895 234.933 132.816 234.42 132.818C233.929 132.806 233.438 132.851 232.958 132.951C232.469 133.062 231.995 133.23 231.545 133.45C231.106 133.663 230.702 133.944 230.349 134.282C229.991 134.621 229.713 135.036 229.535 135.496C229.336 135.892 229.288 136.348 229.402 136.777C229.512 137.095 229.722 137.369 230 137.558C230.311 137.766 230.653 137.923 231.014 138.024C231.369 138.128 231.718 138.25 232.06 138.39C232.332 138.495 232.581 138.654 232.792 138.856C232.868 138.969 232.909 139.102 232.909 139.238C232.909 139.375 232.868 139.508 232.792 139.621C232.705 139.829 232.575 140.016 232.409 140.17C232.236 140.325 232.04 140.454 231.828 140.552C231.616 140.651 231.393 140.724 231.163 140.768C230.937 140.8 230.708 140.8 230.482 140.768C230.112 140.776 229.746 140.69 229.419 140.519C229.138 140.358 228.921 140.105 228.804 139.804L226.96 140.968C227.22 141.418 227.632 141.76 228.123 141.932C228.685 142.122 229.274 142.223 229.867 142.232C230.381 142.234 230.894 142.178 231.396 142.066C231.887 141.956 232.362 141.783 232.808 141.55C233.246 141.315 233.644 141.012 233.988 140.652C234.34 140.288 234.616 139.859 234.802 139.388C234.993 138.989 235.04 138.537 234.935 138.107C234.822 137.786 234.613 137.507 234.337 137.309C234.025 137.101 233.683 136.944 233.323 136.843C232.941 136.727 232.592 136.594 232.276 136.477C232.005 136.376 231.752 136.23 231.529 136.045C231.444 135.948 231.39 135.828 231.376 135.7C231.361 135.573 231.385 135.443 231.446 135.33C231.529 135.137 231.647 134.962 231.795 134.814C231.954 134.668 232.133 134.545 232.326 134.448C232.531 134.364 232.742 134.298 232.958 134.249H233.606C233.936 134.247 234.263 134.309 234.569 134.432C234.697 134.478 234.813 134.551 234.91 134.646C235.008 134.74 235.084 134.854 235.134 134.98L237.045 133.783Z" fill="#D1D3D4"/>
<path d="M247.562 133.2H245.718L243.491 138.855C243.397 139.104 243.268 139.34 243.109 139.554C242.924 139.803 242.706 140.027 242.461 140.219C242.176 140.428 241.863 140.596 241.531 140.718C241.152 140.85 240.752 140.912 240.351 140.901C239.995 140.913 239.642 140.839 239.321 140.685C239.099 140.572 238.919 140.391 238.806 140.169C238.707 139.962 238.667 139.732 238.69 139.504C238.704 139.265 238.754 139.029 238.839 138.805L241.099 133.051H239.255L237.012 138.772C236.811 139.239 236.72 139.745 236.746 140.252C236.768 140.663 236.926 141.055 237.194 141.367C237.469 141.703 237.831 141.956 238.241 142.098C238.735 142.281 239.259 142.372 239.786 142.364C240.376 142.379 240.965 142.301 241.531 142.132C242.117 141.993 242.678 141.763 243.192 141.45C243.682 141.138 244.129 140.763 244.521 140.335C244.904 139.904 245.208 139.409 245.419 138.872L247.562 133.2Z" fill="#D1D3D4"/>
<path d="M223.454 151.697H224.866L227.242 145.659L227.408 151.73H228.438L233.34 145.726L230.98 151.763H232.393L235.25 144.495H233.007L228.754 149.568L228.538 144.445H226.278L223.454 151.697Z" fill="#D1D3D4"/>
<path d="M234.27 151.829H240.002L240.467 150.665H236.214L236.978 148.703H240.816L241.265 147.539H237.444L238.141 145.759H242.179L242.644 144.578H237.128L234.27 151.829Z" fill="#D1D3D4"/>
<path d="M277.568 143.896C279.23 141.933 278.665 139.638 278.781 137.41C278.898 135.181 279.778 133.019 279.861 130.89C279.797 129.462 279.369 128.074 278.619 126.857C277.869 125.641 276.821 124.636 275.575 123.938C274.819 123.43 273.921 123.174 273.011 123.207C272.101 123.24 271.225 123.56 270.507 124.121C269.693 122.84 267.666 122.94 266.104 123.605C263.955 124.6 262.088 126.114 260.671 128.013C258.866 130.17 257.621 132.741 257.049 135.497C256.771 136.777 256.768 138.102 257.04 139.384C257.312 140.666 257.853 141.875 258.627 142.931C260.246 144.778 262.488 145.963 264.925 146.258C267.465 146.578 270.039 146.534 272.567 146.125C274.183 146.023 275.733 145.444 277.02 144.461C277.215 144.285 277.399 144.096 277.568 143.896Z" fill="white"/>
<path d="M267.849 147.255C269.461 147.24 271.071 147.118 272.667 146.889C274.444 146.799 276.153 146.173 277.568 145.093C277.801 144.888 278.018 144.666 278.216 144.428C279.363 142.856 279.857 140.901 279.595 138.973C279.595 138.457 279.595 137.958 279.595 137.459C279.684 136.405 279.857 135.359 280.11 134.332C280.401 133.243 280.59 132.13 280.675 131.006C280.622 129.423 280.161 127.881 279.337 126.529C278.513 125.177 277.354 124.061 275.973 123.289C275.185 122.769 274.268 122.477 273.324 122.444C272.38 122.412 271.446 122.641 270.623 123.106C269.905 122.646 269.077 122.385 268.224 122.35C267.372 122.315 266.526 122.507 265.772 122.906C263.49 123.95 261.508 125.552 260.006 127.563C258.11 129.826 256.803 132.523 256.202 135.413C255.905 136.811 255.908 138.256 256.212 139.653C256.515 141.049 257.112 142.365 257.963 143.513C259.717 145.505 262.141 146.783 264.775 147.105C265.794 147.239 266.822 147.289 267.849 147.255ZM276.937 143.363C276.789 143.542 276.628 143.709 276.455 143.862C275.288 144.711 273.893 145.192 272.451 145.243C270.006 145.644 267.516 145.694 265.057 145.392C262.829 145.136 260.772 144.071 259.275 142.399C258.571 141.44 258.08 140.341 257.837 139.176C257.593 138.011 257.602 136.807 257.863 135.646C258.418 133.027 259.604 130.583 261.319 128.528C262.652 126.744 264.404 125.316 266.42 124.37C267.666 123.854 269.277 123.738 269.743 124.57C269.8 124.668 269.879 124.753 269.974 124.816C270.069 124.88 270.178 124.92 270.291 124.935C270.403 124.958 270.519 124.956 270.631 124.93C270.743 124.904 270.848 124.855 270.939 124.786C271.524 124.318 272.245 124.053 272.994 124.029C273.742 124.005 274.479 124.224 275.093 124.653C276.209 125.275 277.15 126.17 277.827 127.255C278.504 128.34 278.895 129.579 278.964 130.856C278.891 131.907 278.719 132.948 278.449 133.966C278.166 135.057 277.977 136.17 277.884 137.293C277.884 137.825 277.884 138.374 277.884 138.956C278.13 140.483 277.772 142.046 276.887 143.313L276.937 143.363Z" fill="#D1D3D4"/>
<path d="M262.698 145.643L262.582 145.776C262.302 146.157 262.002 146.523 261.685 146.873C260.502 148.456 259.504 150.169 258.711 151.979H252.447H250.785C251.035 151.464 251.251 151.081 251.417 150.798C254.125 146.191 256.999 144.329 259.259 143.63C260.446 143.256 261.706 143.177 262.931 143.397C263.168 143.437 263.402 143.499 263.629 143.58C263.629 143.58 263.795 144.146 262.698 145.643Z" fill="#D1D3D4"/>
<path d="M263.595 141.567L261.635 146.856C261.635 146.856 261.086 149.933 264.592 149.8C265.663 149.727 266.71 149.442 267.671 148.963C268.632 148.483 269.488 147.818 270.191 147.006L273.182 137.742C273.358 136.026 273.783 134.345 274.445 132.753C271.993 131.99 269.921 130.326 268.646 128.096C268.646 128.096 266.569 129.759 265.772 130.308C265.129 130.673 264.532 131.114 263.994 131.622C263.187 132.584 262.618 133.724 262.333 134.948C261.866 136.28 261.51 137.648 261.269 139.039C260.854 141.567 263.595 141.567 263.595 141.567Z" fill="white"/>
<path d="M264.359 150.631H264.625C265.812 150.546 266.97 150.228 268.034 149.694C269.097 149.16 270.045 148.422 270.823 147.521C270.877 147.437 270.921 147.348 270.956 147.255C273.182 140.352 273.764 138.54 273.913 138.007C273.976 137.814 274.009 137.612 274.013 137.409C274.192 135.892 274.584 134.409 275.176 133.001C275.225 132.897 275.25 132.784 275.25 132.669C275.25 132.554 275.225 132.44 275.176 132.336C275.124 132.23 275.049 132.136 274.958 132.061C274.866 131.986 274.759 131.933 274.644 131.904C272.42 131.199 270.541 129.686 269.377 127.663C269.317 127.553 269.234 127.457 269.134 127.382C269.033 127.308 268.918 127.256 268.796 127.23C268.676 127.206 268.552 127.21 268.434 127.242C268.316 127.274 268.206 127.332 268.114 127.413C267.55 127.879 265.955 129.076 265.323 129.559C264.634 129.954 263.993 130.429 263.412 130.972C262.488 132.01 261.822 133.253 261.468 134.598C260.974 135.969 260.607 137.384 260.372 138.822C260.281 139.251 260.288 139.695 260.391 140.121C260.495 140.547 260.693 140.945 260.97 141.284C261.366 141.735 261.886 142.059 262.465 142.215L260.804 146.556C260.691 147.072 260.693 147.606 260.811 148.121C260.929 148.636 261.159 149.118 261.485 149.533C261.851 149.921 262.299 150.221 262.797 150.411C263.295 150.601 263.829 150.676 264.359 150.631ZM269.46 146.589C268.167 147.995 266.381 148.847 264.476 148.968C264.162 149.013 263.843 148.99 263.539 148.901C263.235 148.812 262.954 148.659 262.715 148.452C262.417 148.026 262.292 147.503 262.366 146.988L264.293 141.849C264.334 141.722 264.347 141.588 264.329 141.455C264.312 141.323 264.266 141.196 264.193 141.084C264.114 140.978 264.012 140.891 263.893 140.83C263.775 140.769 263.645 140.737 263.512 140.735C263.002 140.738 262.509 140.548 262.133 140.203C262.02 140.04 261.943 139.855 261.909 139.659C261.874 139.464 261.883 139.263 261.934 139.072C262.156 137.731 262.496 136.412 262.947 135.13C263.234 134.04 263.763 133.028 264.492 132.17C264.996 131.705 265.554 131.303 266.154 130.972C266.686 130.64 267.699 129.841 268.397 129.309C269.632 131.088 271.367 132.46 273.381 133.251C272.902 134.537 272.584 135.878 272.434 137.242C272.434 137.375 272.434 137.459 272.434 137.525C272.434 137.592 269.859 145.375 269.46 146.589Z" fill="#D1D3D4"/>
<path d="M274.046 133.051C274.346 132.851 274.699 132.744 275.06 132.744C275.42 132.744 275.773 132.851 276.073 133.051C276.309 133.356 276.451 133.722 276.484 134.105C276.516 134.489 276.437 134.874 276.256 135.213C275.918 136.086 275.453 136.904 274.877 137.642C274.569 138.109 274.16 138.501 273.681 138.789C273.458 138.932 273.194 138.998 272.93 138.977C272.666 138.956 272.416 138.849 272.218 138.673" fill="white"/>
<path d="M272.949 139.803C273.331 139.802 273.706 139.711 274.046 139.537C274.646 139.194 275.157 138.715 275.541 138.14C276.164 137.335 276.667 136.445 277.037 135.496C277.286 135.001 277.38 134.442 277.305 133.893C277.231 133.344 276.993 132.83 276.621 132.419C276.19 132.102 275.673 131.924 275.139 131.909C274.604 131.894 274.078 132.043 273.631 132.336C273.439 132.446 273.299 132.628 273.241 132.842C273.183 133.055 273.213 133.283 273.323 133.475C273.433 133.667 273.615 133.807 273.829 133.865C274.042 133.923 274.27 133.893 274.461 133.783C274.612 133.671 274.79 133.601 274.977 133.581C275.164 133.561 275.353 133.59 275.525 133.666C275.707 133.833 275.674 134.365 275.525 134.93C275.216 135.727 274.79 136.472 274.262 137.142C274.028 137.511 273.716 137.823 273.348 138.057C273.204 138.114 273.044 138.114 272.899 138.057C272.832 137.972 272.748 137.901 272.652 137.848C272.556 137.796 272.451 137.763 272.343 137.753C272.234 137.742 272.125 137.753 272.02 137.785C271.916 137.817 271.82 137.87 271.736 137.941C271.567 138.083 271.459 138.287 271.438 138.507C271.416 138.728 271.481 138.949 271.62 139.122C271.773 139.331 271.973 139.502 272.204 139.62C272.435 139.739 272.69 139.802 272.949 139.803Z" fill="#D1D3D4"/>
<path d="M276.954 148.868C276.833 149.994 276.617 151.107 276.306 152.195H271.089H267.882C268.879 150.149 269.76 148.32 270.408 147.022C270.541 146.773 270.657 146.523 270.757 146.324L271.454 144.91C272.282 145.194 273.092 145.527 273.88 145.908C275.376 146.59 277.004 147.671 276.954 148.868Z" fill="#D1D3D4"/>
<path d="M262.467 135.123C261.477 133.904 261.789 132.01 263.164 130.892C264.538 129.773 266.454 129.855 267.444 131.074C268.434 132.293 268.122 134.188 266.747 135.306C265.373 136.424 263.457 136.342 262.467 135.123Z" fill="white"/>
<path d="M264.559 136.96C265.443 136.944 266.302 136.662 267.025 136.152C267.748 135.642 268.301 134.927 268.613 134.099C268.796 133.615 268.874 133.099 268.842 132.583C268.811 132.067 268.67 131.563 268.43 131.105C268.201 130.684 267.883 130.317 267.499 130.03C267.115 129.743 266.673 129.542 266.204 129.442C265.18 129.222 264.112 129.381 263.195 129.888C262.279 130.396 261.577 131.218 261.22 132.203C261.04 132.687 260.961 133.202 260.99 133.717C261.019 134.232 261.153 134.736 261.386 135.197C261.617 135.62 261.937 135.988 262.324 136.275C262.712 136.563 263.157 136.762 263.629 136.86C263.933 136.932 264.246 136.966 264.559 136.96ZM267.051 133.534C266.818 134.108 266.397 134.585 265.856 134.888C265.315 135.19 264.688 135.299 264.077 135.197C263.835 135.139 263.607 135.033 263.407 134.885C263.207 134.736 263.039 134.548 262.914 134.332C262.796 134.071 262.735 133.787 262.735 133.5C262.735 133.213 262.796 132.93 262.914 132.669C263.14 132.089 263.56 131.605 264.103 131.302C264.645 130.998 265.277 130.894 265.888 131.006C266.132 131.055 266.361 131.158 266.56 131.308C266.758 131.457 266.92 131.65 267.035 131.87C267.153 132.132 267.214 132.415 267.214 132.702C267.214 132.989 267.153 133.272 267.035 133.534H267.051Z" fill="#D1D3D4"/>
<path d="M267.917 134.584C266.929 133.359 267.247 131.46 268.628 130.343C270.01 129.227 271.931 129.314 272.92 130.539C273.908 131.765 273.59 133.663 272.208 134.78C270.827 135.897 268.906 135.809 267.917 134.584Z" fill="white"/>
<path d="M270.69 137.876C271.574 137.859 272.433 137.578 273.156 137.068C273.878 136.558 274.432 135.843 274.744 135.015C274.927 134.531 275.005 134.015 274.973 133.499C274.942 132.983 274.801 132.479 274.561 132.021C274.332 131.6 274.014 131.233 273.63 130.946C273.246 130.659 272.804 130.458 272.335 130.358C271.311 130.138 270.242 130.297 269.326 130.804C268.41 131.312 267.708 132.134 267.35 133.119C267.17 133.603 267.092 134.118 267.121 134.633C267.149 135.148 267.284 135.652 267.517 136.113C267.748 136.536 268.068 136.904 268.455 137.191C268.842 137.479 269.288 137.678 269.76 137.776C270.064 137.847 270.377 137.88 270.69 137.876ZM273.182 134.45C272.952 135.026 272.53 135.505 271.989 135.808C271.448 136.111 270.819 136.218 270.208 136.113C269.966 136.056 269.737 135.949 269.537 135.801C269.337 135.652 269.17 135.464 269.045 135.248C268.927 134.987 268.865 134.703 268.865 134.416C268.865 134.129 268.927 133.846 269.045 133.585C269.273 133.007 269.694 132.525 270.236 132.222C270.778 131.919 271.408 131.813 272.019 131.922C272.26 131.977 272.487 132.083 272.684 132.232C272.882 132.381 273.046 132.57 273.166 132.786C273.284 133.048 273.345 133.331 273.345 133.618C273.345 133.905 273.284 134.188 273.166 134.45H273.182Z" fill="#D1D3D4"/>
<path d="M268.214 134.398C268.214 134.398 265.606 136.544 265.838 137.076C266.071 137.608 267.317 137.592 267.317 137.592" fill="white"/>
<path d="M267.251 138.423H267.334C267.554 138.423 267.766 138.336 267.921 138.18C268.077 138.024 268.165 137.812 268.165 137.592C268.165 137.371 268.077 137.16 267.921 137.004C267.766 136.848 267.554 136.76 267.334 136.76H266.968C267.532 136.163 268.137 135.607 268.779 135.097C268.951 134.956 269.06 134.752 269.082 134.531C269.104 134.309 269.037 134.088 268.896 133.916C268.755 133.744 268.551 133.635 268.33 133.613C268.109 133.592 267.888 133.659 267.716 133.8C264.626 136.361 264.941 137.126 265.124 137.475C265.49 138.324 266.752 138.423 267.251 138.423Z" fill="#D1D3D4"/>
<path d="M266.586 140.336C267.096 140.334 267.602 140.244 268.081 140.07C268.187 140.035 268.284 139.98 268.368 139.907C268.452 139.833 268.52 139.744 268.568 139.644C268.617 139.544 268.645 139.435 268.651 139.324C268.657 139.213 268.64 139.102 268.602 138.998C268.565 138.893 268.506 138.797 268.431 138.716C268.355 138.634 268.264 138.569 268.163 138.523C268.062 138.477 267.952 138.452 267.841 138.449C267.73 138.447 267.62 138.466 267.517 138.507C266.995 138.667 266.442 138.69 265.909 138.573C265.377 138.457 264.883 138.205 264.476 137.842C264.399 137.764 264.307 137.702 264.206 137.66C264.104 137.617 263.996 137.596 263.886 137.596C263.777 137.596 263.668 137.617 263.567 137.66C263.465 137.702 263.374 137.764 263.296 137.842C263.217 137.916 263.154 138.007 263.11 138.107C263.067 138.207 263.045 138.315 263.045 138.424C263.045 138.533 263.067 138.641 263.11 138.741C263.154 138.841 263.217 138.931 263.296 139.006C264.2 139.827 265.366 140.298 266.586 140.336Z" fill="#D1D3D4"/>
<path d="M290.761 132.303C291.633 132.286 292.483 132.024 293.214 131.548C293.945 131.072 294.529 130.4 294.898 129.609L300.331 115.738C300.546 115.261 300.638 114.737 300.601 114.214C300.563 113.692 300.396 113.187 300.115 112.745C299.767 112.285 299.314 111.917 298.793 111.671C298.272 111.424 297.7 111.308 297.124 111.331C295.912 111.353 294.73 111.714 293.712 112.372C292.693 113.03 291.878 113.96 291.359 115.056L289.697 119.447C289.657 119.549 289.637 119.657 289.638 119.767C289.64 119.876 289.663 119.984 289.706 120.084C289.749 120.185 289.812 120.276 289.89 120.352C289.969 120.428 290.061 120.488 290.163 120.528C290.368 120.606 290.595 120.6 290.796 120.513C290.998 120.427 291.158 120.265 291.243 120.063L292.904 115.655C293.298 114.872 293.897 114.211 294.638 113.742C295.378 113.273 296.232 113.015 297.108 112.994C297.419 112.96 297.735 113.004 298.025 113.123C298.315 113.242 298.571 113.432 298.769 113.676C298.881 113.904 298.939 114.154 298.939 114.408C298.939 114.662 298.881 114.912 298.769 115.14L293.319 128.994C293.08 129.485 292.71 129.9 292.25 130.194C291.789 130.487 291.257 130.648 290.711 130.657C290.547 130.672 290.382 130.648 290.229 130.588C290.076 130.527 289.939 130.431 289.83 130.308C289.769 130.192 289.737 130.064 289.737 129.933C289.737 129.803 289.769 129.674 289.83 129.559L294.084 118.532C294.168 118.372 294.295 118.238 294.45 118.144C294.605 118.05 294.783 118 294.964 118L291.076 127.979C291.027 128.083 291 128.195 290.996 128.309C290.993 128.424 291.013 128.537 291.055 128.644C291.097 128.75 291.161 128.846 291.242 128.927C291.323 129.007 291.42 129.07 291.527 129.112C291.633 129.153 291.747 129.172 291.862 129.167C291.976 129.162 292.088 129.134 292.191 129.084C292.293 129.034 292.385 128.963 292.459 128.876C292.533 128.789 292.588 128.687 292.622 128.578L296.559 118.599C296.668 118.356 296.712 118.09 296.689 117.825C296.666 117.56 296.575 117.306 296.426 117.086C296.266 116.853 296.049 116.666 295.796 116.541C295.543 116.416 295.263 116.357 294.981 116.37C294.46 116.386 293.955 116.552 293.525 116.846C293.095 117.141 292.758 117.553 292.555 118.034L288.235 129.044C288.078 129.41 288.012 129.808 288.044 130.206C288.076 130.603 288.204 130.986 288.418 131.322C288.673 131.674 289.012 131.957 289.403 132.146C289.795 132.334 290.227 132.423 290.661 132.403L290.761 132.303Z" fill="#ED2D24"/>
<path d="M185.289 182.781C187.668 176.36 191.982 170.839 197.634 166.981C200.333 164.919 203.426 163.436 206.722 162.623C210.245 162.024 210.959 165.5 208.201 167.396L201.273 172.12C200.774 172.469 200.176 172.785 199.711 173.184C198.913 173.899 199.03 173.517 199.196 174.432C199.766 177.283 199.623 180.231 198.78 183.013C198.067 185.098 197.189 187.122 196.155 189.067" fill="white"/>
<path d="M196.056 189.831C196.197 189.833 196.336 189.795 196.456 189.722C196.577 189.648 196.674 189.542 196.737 189.415C197.791 187.431 198.691 185.368 199.429 183.245C200.297 180.342 200.445 177.271 199.861 174.297V174.031L200.176 173.765C200.471 173.515 200.788 173.293 201.123 173.1L201.672 172.751L208.617 167.977C209.381 167.552 209.979 166.879 210.311 166.069C210.643 165.259 210.69 164.36 210.444 163.52C210.091 162.841 209.515 162.305 208.813 162.002C208.11 161.699 207.325 161.648 206.59 161.857C203.188 162.691 199.994 164.214 197.202 166.331C191.427 170.286 187.016 175.933 184.575 182.497C184.505 182.686 184.513 182.896 184.597 183.08C184.681 183.264 184.834 183.407 185.024 183.478C185.213 183.548 185.423 183.54 185.606 183.456C185.79 183.372 185.933 183.218 186.004 183.029C188.325 176.75 192.541 171.35 198.066 167.578C200.68 165.589 203.67 164.152 206.855 163.354C207.952 163.171 208.766 163.454 209.032 164.102C209.298 164.751 209.032 165.882 207.769 166.747L200.841 171.47L200.342 171.803C199.942 172.033 199.563 172.3 199.213 172.601L198.847 172.9C198.627 173.029 198.46 173.232 198.375 173.472C198.29 173.713 198.292 173.975 198.382 174.214V174.547C198.924 177.276 198.793 180.096 198 182.763C197.286 184.81 196.42 186.8 195.408 188.717C195.36 188.805 195.33 188.901 195.321 189.001C195.312 189.101 195.323 189.201 195.354 189.296C195.386 189.391 195.436 189.479 195.502 189.554C195.569 189.629 195.65 189.689 195.74 189.731C195.835 189.792 195.944 189.826 196.056 189.831Z" fill="#231F20"/>
<path d="M226.428 306.02H141.775V236.466H226.428V306.02Z" fill="#D1D3D4"/>
<path d="M141.775 306.852H226.511C226.731 306.852 226.943 306.764 227.098 306.609C227.254 306.453 227.342 306.241 227.342 306.021V236.484C227.342 236.263 227.254 236.052 227.098 235.896C226.943 235.74 226.731 235.652 226.511 235.652H141.775C141.555 235.652 141.343 235.74 141.188 235.896C141.032 236.052 140.944 236.263 140.944 236.484V306.021C140.944 306.241 141.032 306.453 141.188 306.609C141.343 306.764 141.555 306.852 141.775 306.852ZM225.597 305.189H142.523V237.316H225.597V305.189Z" fill="#D1D3D4"/>
<path d="M218.453 236.467H146.527V226.987H218.453V236.467Z" fill="white"/>
<path d="M146.527 237.232H218.452C218.652 237.232 218.844 237.153 218.987 237.014C219.13 236.874 219.212 236.683 219.217 236.483V226.987C219.212 226.787 219.13 226.596 218.987 226.456C218.844 226.317 218.652 226.238 218.452 226.238H146.527C146.327 226.238 146.135 226.317 145.992 226.456C145.849 226.596 145.767 226.787 145.762 226.987V236.483C145.767 236.683 145.849 236.874 145.992 237.014C146.135 237.153 146.327 237.232 146.527 237.232ZM217.655 235.718H147.258V227.752H217.655V235.718Z" fill="#231F20"/>
<path d="M321.847 226.604L136.042 226.604V210.77L321.847 210.77V226.604Z" fill="white"/>
<path d="M136.043 227.37H321.847C321.947 227.37 322.046 227.35 322.137 227.312C322.229 227.273 322.312 227.216 322.382 227.145C322.452 227.074 322.506 226.989 322.543 226.897C322.58 226.804 322.597 226.705 322.595 226.605V210.789C322.597 210.689 322.58 210.59 322.543 210.497C322.506 210.404 322.452 210.32 322.382 210.248C322.312 210.177 322.229 210.121 322.137 210.082C322.046 210.043 321.947 210.023 321.847 210.023H136.043C135.84 210.023 135.646 210.104 135.502 210.248C135.359 210.391 135.279 210.586 135.279 210.789V226.605C135.279 226.808 135.359 227.003 135.502 227.146C135.646 227.29 135.84 227.37 136.043 227.37ZM321.083 225.857H136.79V211.537H321.083V225.857Z" fill="#231F20"/>
<path d="M512.254 226.604L308.854 226.604V210.77L512.254 210.77V226.604Z" fill="white"/>
<path d="M308.854 227.37H512.271C512.37 227.37 512.469 227.35 512.561 227.312C512.653 227.273 512.736 227.216 512.805 227.145C512.875 227.074 512.93 226.989 512.966 226.897C513.003 226.804 513.021 226.705 513.018 226.605V210.789C513.021 210.689 513.003 210.59 512.966 210.497C512.93 210.404 512.875 210.32 512.805 210.248C512.736 210.177 512.653 210.121 512.561 210.082C512.469 210.043 512.37 210.023 512.271 210.023H308.854C308.652 210.023 308.457 210.104 308.314 210.248C308.171 210.391 308.09 210.586 308.09 210.789V226.605C308.09 226.808 308.171 227.003 308.314 227.146C308.457 227.29 308.652 227.37 308.854 227.37ZM511.556 225.857H309.619V211.537H511.506L511.556 225.857Z" fill="#231F20"/>
<path d="M142.024 119.78L138.236 104.046L83.8385 94.5332L82.4262 113.51L142.024 119.78Z" fill="white"/>
<path d="M142.024 120.61C142.15 120.608 142.273 120.579 142.386 120.523C142.499 120.467 142.597 120.387 142.675 120.288C142.753 120.19 142.808 120.075 142.836 119.952C142.865 119.829 142.865 119.702 142.838 119.579L139.05 103.846C139.013 103.687 138.931 103.542 138.812 103.43C138.694 103.317 138.546 103.242 138.385 103.214L83.9713 93.7172C83.8577 93.6994 83.7417 93.705 83.6303 93.7336C83.5189 93.7622 83.4144 93.8132 83.3233 93.8835C83.2332 93.9569 83.1588 94.0478 83.1045 94.1506C83.0503 94.2535 83.0173 94.3663 83.0076 94.4822L81.5954 113.442C81.5811 113.659 81.6508 113.874 81.79 114.041C81.9291 114.208 82.1271 114.315 82.3431 114.34L141.941 120.594L142.024 120.61ZM137.571 104.777L140.894 118.831L83.2735 112.777L84.5529 95.53L137.571 104.777Z" fill="#231F20"/>
<path d="M40.6396 124.736C40.6396 124.736 65.1632 101.768 113.612 108.271C162.061 114.774 157.509 138.208 160.998 161.243C164.487 184.277 160.998 267.768 160.998 267.768C160.998 267.768 225.431 256.824 232.442 267.768C239.454 278.711 233.572 308.232 233.572 308.232H159.004L55.1112 299.734L40.6396 124.736Z" fill="#004680"/>
<path d="M129.031 282.735C129.031 282.735 114.809 123.072 93.0434 105.044C71.2779 87.0151 11.6304 93.4016 3.32297 115.023C-4.98448 136.644 32.2827 275.334 40.5403 294.078C48.7979 312.822 52.1708 311.957 91.4816 311.957C116.404 311.957 208.799 318.71 215.545 305.953C222.291 293.197 200.957 281.272 129.031 282.735Z" fill="#231F20"/>
<path d="M163.042 314.519C191.287 314.519 212.887 312.706 216.293 306.369C217.13 304.988 217.573 303.403 217.573 301.787C217.573 300.172 217.13 298.587 216.293 297.205C209.647 286.445 178.943 281.056 129.779 282.037C128.599 269.181 114.826 122.042 93.6084 104.479C79.0371 92.4042 49.5623 91.6058 29.2423 96.9778C15.1362 100.703 5.74881 106.957 2.80797 114.824C-5.73209 137.359 32.1499 276.516 40.0253 294.445C48.1002 312.739 51.7389 312.739 86.6634 312.739H91.6479C96.8151 312.739 105.039 313.039 114.576 313.388C131.357 314.003 148.122 314.519 163.042 314.519ZM140.446 283.385C182.299 283.385 209.215 288.607 214.98 297.971C215.695 299.13 216.073 300.466 216.073 301.829C216.073 303.192 215.695 304.528 214.98 305.688C209.846 315.367 147.856 313.139 114.543 311.941C105.006 311.592 96.7652 311.292 91.5648 311.292H86.5803C51.8385 311.292 48.9642 311.292 41.2881 293.846C32.8145 274.57 -3.90448 136.461 4.0873 115.339C6.86198 108.021 15.9005 102.034 29.5247 98.3915C56.2913 91.3065 81.9946 96.8282 92.6614 105.61C113.912 123.206 128.217 281.256 128.35 282.836C128.37 283.018 128.455 283.188 128.589 283.313C128.723 283.438 128.898 283.511 129.081 283.518C132.98 283.44 136.768 283.396 140.446 283.385Z" fill="#231F20"/>
<path d="M170.07 242.819C180.039 244.166 190.689 247.11 196.77 255.127C204.313 265.106 202.253 279.059 199.844 291.317C195.135 291.76 190.492 292.737 186.004 294.227C188.721 287.133 189.4 279.419 187.964 271.958C187.538 268.449 185.898 265.201 183.329 262.777C180.726 261.013 177.694 259.99 174.556 259.817C154.618 257.106 136.541 260.133 116.969 262.627C113.812 251.152 118.115 244.782 129.014 243.218C142.616 241.19 156.432 241.056 170.07 242.819Z" fill="#231F20"/>
<path d="M186.004 294.877H186.236C190.67 293.399 195.258 292.434 199.91 292C200.066 291.985 200.214 291.921 200.33 291.816C200.447 291.711 200.527 291.571 200.558 291.418C203.017 278.927 205.011 264.807 197.352 254.645C190.606 245.731 178.61 243.186 170.17 242.039C156.464 240.277 142.582 240.417 128.915 242.454C123.282 243.253 119.345 245.332 117.185 248.625C115.025 251.918 114.643 256.791 116.304 262.778C116.356 262.945 116.464 263.088 116.609 263.185C116.754 263.282 116.928 263.326 117.102 263.31L123.299 262.495C140.529 260.233 156.795 258.088 174.489 260.5C177.493 260.652 180.398 261.618 182.897 263.294C185.04 264.957 186.469 267.884 187.283 272.059C188.671 279.381 188.004 286.946 185.356 293.912C185.304 294.041 185.291 294.181 185.317 294.317C185.344 294.453 185.409 294.578 185.505 294.677C185.641 294.803 185.818 294.875 186.004 294.877ZM199.295 290.569C195.217 290.987 191.188 291.8 187.266 292.998C189.583 286.159 190.098 278.838 188.762 271.743C187.881 267.219 186.269 264.075 183.86 262.129C181.149 260.286 177.993 259.206 174.722 259.003C156.844 256.575 140.479 258.72 123.216 261.015L117.65 261.73C116.304 256.508 116.603 252.35 118.547 249.406C120.491 246.463 124.063 244.616 129.247 243.868C142.782 241.845 156.531 241.71 170.103 243.469C178.278 244.567 189.891 247.028 196.321 255.493C203.366 264.973 201.588 278.512 199.229 290.569H199.295Z" fill="#231F20"/>
<path d="M135.777 279.409C135.886 279.434 136 279.434 136.109 279.409L161.331 268.582C161.525 268.491 161.676 268.327 161.753 268.127C161.83 267.926 161.826 267.703 161.742 267.505C161.658 267.307 161.501 267.149 161.303 267.065C161.106 266.98 160.883 266.976 160.683 267.052L135.461 277.896C135.36 277.936 135.267 277.996 135.189 278.072C135.112 278.149 135.05 278.24 135.008 278.341C134.966 278.442 134.945 278.55 134.946 278.659C134.947 278.769 134.969 278.877 135.013 278.977C135.087 279.113 135.198 279.226 135.333 279.302C135.468 279.379 135.622 279.416 135.777 279.409Z" fill="#231F20"/>
<path d="M321.847 313.82H218.453V226.621H321.847V313.82Z" fill="white"/>
<path d="M218.453 314.568H321.847C321.947 314.568 322.046 314.548 322.137 314.51C322.229 314.471 322.312 314.415 322.382 314.343C322.452 314.272 322.506 314.188 322.543 314.095C322.58 314.002 322.597 313.903 322.595 313.803V226.604C322.595 226.405 322.516 226.215 322.376 226.075C322.236 225.934 322.046 225.855 321.847 225.855H218.453C218.253 225.855 218.061 225.934 217.918 226.074C217.775 226.214 217.693 226.404 217.689 226.604V313.803C217.689 314.006 217.769 314.201 217.912 314.344C218.056 314.488 218.25 314.568 218.453 314.568ZM321.083 313.055H219.217V227.369H321.083V313.055Z" fill="#231F20"/>
<path d="M503.382 313.82H321.847V226.621L503.382 226.621V313.82Z" fill="white"/>
<path d="M321.847 314.568H503.431C503.532 314.571 503.633 314.553 503.726 314.515C503.82 314.477 503.905 314.421 503.977 314.349C504.048 314.278 504.104 314.193 504.142 314.099C504.18 314.005 504.198 313.905 504.196 313.803V226.604C504.196 226.504 504.176 226.406 504.137 226.314C504.099 226.222 504.042 226.139 503.971 226.069C503.9 225.999 503.815 225.944 503.723 225.908C503.63 225.871 503.531 225.853 503.431 225.856H321.847C321.647 225.856 321.455 225.934 321.312 226.074C321.17 226.214 321.087 226.404 321.083 226.604V313.803C321.083 314.006 321.163 314.201 321.307 314.344C321.45 314.488 321.644 314.568 321.847 314.568ZM502.617 313.055H322.595V227.369H502.617V313.055Z" fill="#231F20"/>
<path d="M228.936 302.011H309.751C309.972 302.011 310.183 301.924 310.339 301.768C310.495 301.612 310.582 301.4 310.582 301.18V239.277C310.582 239.056 310.495 238.845 310.339 238.689C310.183 238.533 309.972 238.445 309.751 238.445H228.936C228.717 238.45 228.509 238.539 228.354 238.694C228.199 238.849 228.11 239.058 228.106 239.277V301.18C228.106 301.4 228.193 301.612 228.349 301.768C228.505 301.924 228.716 302.011 228.936 302.011ZM308.921 300.348H229.767V240.108H308.921V300.348Z" fill="#D1D3D4"/>
<path d="M269.677 260.367C270.936 260.37 272.168 259.999 273.216 259.301C274.265 258.603 275.083 257.61 275.567 256.446C276.052 255.282 276.18 254.001 275.936 252.764C275.693 251.528 275.088 250.391 274.199 249.499C273.309 248.606 272.176 247.998 270.941 247.751C269.706 247.503 268.426 247.629 267.262 248.11C266.098 248.592 265.103 249.408 264.403 250.456C263.703 251.504 263.33 252.736 263.33 253.997C263.334 255.682 264.004 257.297 265.192 258.49C266.381 259.683 267.993 260.358 269.677 260.367ZM269.677 249.307C270.608 249.303 271.519 249.577 272.295 250.093C273.071 250.609 273.676 251.344 274.034 252.205C274.392 253.065 274.486 254.013 274.306 254.928C274.125 255.842 273.677 256.682 273.018 257.342C272.359 258.001 271.52 258.449 270.606 258.631C269.693 258.812 268.746 258.717 267.886 258.359C267.026 258 266.292 257.395 265.777 256.618C265.261 255.841 264.988 254.929 264.991 253.997C264.996 252.754 265.491 251.564 266.368 250.685C267.246 249.807 268.435 249.311 269.677 249.307Z" fill="#D1D3D4"/>
<path d="M279.429 173.299C278.499 176.309 277.452 179.27 276.239 182.164C279.862 179.116 283.668 176.295 287.637 173.715C288.342 173.133 289.233 172.826 290.146 172.85C290.662 173.002 291.137 173.272 291.531 173.639C291.926 174.005 292.231 174.458 292.422 174.962C295.845 181.615 294.2 190.064 290.063 196.351C283.417 206.329 272.036 215.011 259.724 214.329C258.924 214.344 258.136 214.137 257.448 213.731C256.946 213.303 256.539 212.777 256.251 212.184C254.169 208.458 252.258 204.65 250.519 200.758C250.141 200.148 250.01 199.416 250.154 198.712C250.448 198.107 250.941 197.62 251.549 197.332C260.355 191.777 265.24 183.644 271.005 175.411C272.168 173.748 274.827 167.728 277.336 167.827C280.144 167.977 280.077 171.187 279.429 173.299Z" fill="white"/>
<path d="M261.07 215.129C273.913 215.129 284.962 205.366 290.661 196.834C295.347 189.716 296.294 181.017 293.054 174.681C292.828 174.066 292.455 173.517 291.969 173.079C291.482 172.641 290.897 172.329 290.262 172.169C289.163 172.11 288.08 172.46 287.222 173.151C284.065 175.196 280.991 177.425 278.034 179.803C278.815 177.757 279.513 175.679 280.144 173.616C280.456 172.775 280.59 171.878 280.539 170.982C280.487 170.086 280.251 169.211 279.845 168.411C279.556 168.016 279.178 167.696 278.742 167.477C278.306 167.257 277.824 167.144 277.336 167.147C274.993 167.147 272.85 170.739 271.322 173.433C271.023 174.004 270.696 174.559 270.341 175.096L268.248 178.14C263.263 185.275 258.694 192.011 251.118 196.801C250.706 196.96 250.335 197.211 250.035 197.536C249.734 197.86 249.511 198.248 249.383 198.671C249.255 199.095 249.225 199.542 249.295 199.978C249.365 200.415 249.534 200.83 249.789 201.191C251.45 205.083 253.477 208.942 255.554 212.667C255.892 213.364 256.38 213.977 256.983 214.463C257.785 214.961 258.714 215.215 259.658 215.195C260.123 215.112 260.605 215.129 261.07 215.129ZM289.847 173.55H290.03C290.628 173.633 291.176 174.198 291.691 175.213C294.682 181.067 293.768 189.167 289.365 195.819C283.7 204.418 272.518 214.114 259.724 213.465C259.067 213.488 258.417 213.327 257.847 213C257.43 212.643 257.096 212.201 256.867 211.703C254.806 208.027 252.896 204.202 251.151 200.36C250.883 199.909 250.766 199.385 250.819 198.863C250.952 198.464 251.467 198.148 251.915 197.865C259.758 192.876 264.476 186.057 269.477 178.789L271.571 175.745C271.853 175.363 272.202 174.731 272.617 174.082C273.731 172.136 275.708 168.51 277.253 168.56C277.508 168.556 277.761 168.611 277.991 168.721C278.222 168.83 278.424 168.992 278.582 169.192C278.856 169.799 279.006 170.454 279.023 171.12C279.041 171.785 278.924 172.447 278.682 173.067C277.785 176.028 276.721 178.988 275.525 181.865C275.464 182.024 275.457 182.197 275.505 182.36C275.553 182.523 275.653 182.665 275.791 182.764C275.922 182.872 276.086 182.931 276.256 182.931C276.426 182.931 276.59 182.872 276.721 182.764C280.311 179.752 284.091 176.975 288.036 174.448C288.55 174.004 289.177 173.71 289.847 173.6V173.55Z" fill="#231F20"/>
<path d="M117.966 126.781C117.966 126.781 127.934 228.816 162.128 228.234C196.321 227.652 268.463 216.941 268.463 215.444C268.463 213.947 259.574 187.171 259.574 187.171C259.574 187.171 182.897 195.17 175.403 183.162C167.91 171.154 156.296 133.367 156.296 133.367" fill="#004680"/>
<path d="M159.503 227.852C188.097 227.852 239.504 221.199 242.345 220.833C242.563 220.804 242.761 220.69 242.895 220.516C243.028 220.341 243.088 220.12 243.059 219.902C243.03 219.683 242.917 219.483 242.743 219.347C242.569 219.21 242.349 219.147 242.129 219.17C210.876 223.262 149.817 229.548 142.539 224.16C133.401 217.424 119.013 157.75 118.88 157.134C118.821 156.922 118.683 156.74 118.495 156.625C118.307 156.511 118.082 156.473 117.866 156.519C117.654 156.578 117.472 156.716 117.358 156.904C117.243 157.093 117.205 157.318 117.251 157.534C117.85 160.012 131.922 218.405 141.542 225.507C143.835 227.137 150.548 227.852 159.503 227.852Z" fill="#231F20"/>
<path d="M109.525 285.147H109.658C109.764 285.126 109.866 285.083 109.955 285.021C110.045 284.96 110.122 284.881 110.18 284.79C110.239 284.698 110.279 284.596 110.298 284.489C110.317 284.382 110.314 284.272 110.289 284.166C98.2602 229.548 75.83 124.503 76.9432 117.85C78.7709 106.907 89.2881 108.47 89.7367 108.537C89.9571 108.572 90.1824 108.518 90.3631 108.387C90.5438 108.256 90.6651 108.059 90.7004 107.838C90.7356 107.617 90.6819 107.392 90.5511 107.211C90.4202 107.03 90.2229 106.909 90.0026 106.873C89.8697 106.873 77.4251 104.961 75.315 117.551C73.8528 126.183 107.249 278.062 108.661 284.515C108.711 284.704 108.823 284.87 108.981 284.985C109.138 285.1 109.33 285.157 109.525 285.147Z" fill="white"/>
</svg>
