<svg width="362" height="267" viewBox="0 0 362 267" fill="none" xmlns="http://www.w3.org/2000/svg">
<path d="M231.461 133.134V52.7628C231.462 51.0371 231.116 49.3288 230.443 47.7397C229.77 46.1505 228.785 44.7128 227.546 43.5121C226.306 42.3115 224.838 41.3724 223.228 40.7508C221.618 40.1291 219.9 39.8376 218.175 39.8935L147.732 42.0121C145.984 42.0642 144.264 42.4718 142.679 43.21C141.094 43.9483 139.675 45.0016 138.51 46.3059C137.345 47.6102 136.457 49.1381 135.902 50.7965C135.347 52.4549 135.135 54.209 135.279 55.9519L142.255 139.478L231.461 133.134Z" fill="#231F20"/>
<path d="M142.289 140.029C142.148 140.033 142.011 139.982 141.907 139.888C141.802 139.793 141.737 139.663 141.726 139.522L134.784 55.9958C134.633 54.1798 134.853 52.3521 135.431 50.6238C136.008 48.8955 136.931 47.3026 138.143 45.942C139.355 44.5813 140.831 43.4812 142.481 42.7086C144.132 41.9359 145.922 41.5069 147.743 41.4474L218.175 39.3401C219.972 39.2858 221.761 39.5928 223.438 40.2428C225.114 40.8928 226.642 41.8726 227.933 43.1242C229.223 44.3758 230.249 45.8737 230.95 47.5291C231.651 49.1846 232.013 50.9639 232.013 52.7616V133.133C232.014 133.275 231.961 133.411 231.865 133.516C231.769 133.62 231.637 133.685 231.495 133.696L142.312 140.029H142.289ZM218.603 40.4558H218.175L147.732 42.5743C146.067 42.6341 144.432 43.0312 142.925 43.7417C141.418 44.4522 140.071 45.4613 138.966 46.7078C137.86 47.9543 137.02 49.4123 136.495 50.9933C135.969 52.5744 135.771 54.2456 135.911 55.9057L142.83 138.88L230.943 132.614V52.7616C230.943 49.4979 229.646 46.3678 227.339 44.06C225.031 41.7523 221.901 40.4558 218.637 40.4558H218.603Z" fill="#231F20"/>
<path d="M300.608 81.4552C300.608 81.4552 290.353 85.3092 290.995 98.8997C291.638 112.49 288.155 127.185 299.898 126.069L300.608 134.07L325.4 136.707C325.4 136.707 327.992 95.1471 323.338 88.2504C318.683 81.3537 300.608 81.4552 300.608 81.4552Z" fill="white"/>
<path d="M325.423 137.256H325.367L300.575 134.619C300.444 134.607 300.322 134.549 300.23 134.457C300.137 134.364 300.08 134.242 300.067 134.112L299.414 126.675C298.374 126.802 297.319 126.711 296.316 126.409C295.313 126.106 294.384 125.598 293.588 124.917C290.207 121.806 290.354 115.236 290.489 107.63C290.489 104.779 290.59 101.826 290.489 98.9301C290.151 91.7066 292.867 87.2103 295.21 84.6973C296.679 83.0865 298.467 81.8006 300.462 80.9221C300.529 80.9114 300.598 80.9114 300.665 80.9221C301.42 80.9221 319.112 81.001 323.879 88.0104C328.646 95.0197 326.133 135.059 326.043 136.772C326.037 136.848 326.017 136.922 325.982 136.99C325.947 137.057 325.899 137.117 325.84 137.166C325.717 137.247 325.568 137.28 325.423 137.256ZM301.127 133.526L324.905 136.05C325.186 130.979 327.091 94.7606 322.887 88.5738C318.684 82.3871 302.197 81.9927 300.71 81.9814C299.65 82.4096 290.973 86.3764 291.548 98.885C291.695 101.826 291.638 104.79 291.548 107.664C291.424 114.696 291.311 121.344 294.298 124.105C295.571 125.288 297.374 125.751 299.808 125.525C299.958 125.513 300.107 125.557 300.225 125.649C300.339 125.746 300.412 125.883 300.428 126.032L301.127 133.526Z" fill="#231F20"/>
<path d="M317.658 125.234C330.896 125.234 341.628 113.443 341.628 98.8983C341.628 84.3535 330.896 72.5625 317.658 72.5625C304.42 72.5625 293.689 84.3535 293.689 98.8983C293.689 113.443 304.42 125.234 317.658 125.234Z" fill="white"/>
<path d="M317.658 125.797C304.135 125.797 293.125 113.728 293.125 98.8978C293.125 84.0677 304.135 72.0098 317.658 72.0098C331.181 72.0098 342.135 84.0677 342.135 98.8978C342.135 113.728 331.181 125.797 317.658 125.797ZM317.658 73.1254C304.755 73.1254 294.252 84.6875 294.252 98.8978C294.252 113.108 304.755 124.681 317.658 124.681C330.561 124.681 341.064 113.119 341.064 98.8978C341.064 84.6762 330.561 73.1254 317.658 73.1254Z" fill="#231F20"/>
<path d="M204.584 10.9307C194.037 -3.86557 171.555 -0.552459 161.029 12.7563C155.485 19.7657 153.073 29.1303 146.38 35.0691C142.83 38.2357 138.356 40.1515 134.164 42.4165C129.972 44.6816 125.825 47.5552 123.717 51.8262C121.61 56.0972 122.275 62.0585 126.298 64.6166C129.837 66.8704 134.705 65.9351 138.288 68.1326C133.781 68.7298 130.772 74.4207 132.845 78.4889C134.603 81.9485 138.728 83.3684 142.492 84.3037C155.767 87.6844 169.932 88.879 183.06 84.9573C192.865 82.0386 202.871 75.5364 208.371 66.7014C213.588 58.3172 211.695 42.5067 210.963 32.8942C210.433 25.8961 209.317 18.7515 205.756 12.7112C205.396 12.114 205.001 11.5055 204.584 10.9307Z" fill="white"/>
<path d="M165.492 87.9332C157.69 87.853 149.928 86.816 142.379 84.8455C138.469 83.8763 134.22 82.3776 132.372 78.7489C131.854 77.6467 131.607 76.4369 131.65 75.2199C131.693 74.0029 132.026 72.8137 132.62 71.7508C133.488 70.0365 134.944 68.6923 136.722 67.9644C135.282 67.4736 133.793 67.1411 132.282 66.9727C130.084 66.7927 127.949 66.1515 126.016 65.0908C121.576 62.2622 121.114 55.8727 123.233 51.5679C125.554 46.8912 130.163 43.95 133.927 41.9216C134.874 41.4032 135.832 40.9073 136.801 40.4115C140.113 38.8864 143.222 36.9518 146.053 34.653C149.85 31.2723 152.307 26.6181 154.685 22.1218C156.369 18.7146 158.353 15.4638 160.612 12.4078C163.631 8.66404 167.466 5.65979 171.823 3.62466C176.18 1.58952 180.945 0.57734 185.754 0.665453C189.527 0.674162 193.244 1.57997 196.599 3.30814C199.953 5.0363 202.849 7.5373 205.046 10.6048C205.463 11.1908 205.869 11.8218 206.252 12.4642C210.027 18.865 211.041 26.3815 211.537 32.8838C211.605 33.7627 211.684 34.6981 211.763 35.6785C212.54 45.6291 213.667 59.2309 208.855 67.0403C203.671 75.3907 194.093 82.2987 183.229 85.5442C177.464 87.1954 171.489 88.0002 165.492 87.9332ZM185.021 1.78109C180.506 1.79939 176.051 2.81974 171.978 4.76851C167.905 6.71728 164.316 9.54587 161.469 13.0502C159.246 16.0498 157.3 19.2445 155.654 22.5951C153.231 27.1816 150.718 31.9146 146.774 35.4306C143.883 37.8003 140.702 39.7922 137.308 41.3581C136.35 41.8539 135.392 42.3498 134.457 42.8569C130.839 44.8177 126.411 47.6237 124.247 52.0187C122.331 55.8839 122.703 61.5974 126.614 64.0991C128.413 65.1015 130.4 65.7193 132.451 65.9134C134.6 66.099 136.691 66.708 138.604 67.7052C138.702 67.766 138.779 67.8555 138.825 67.9616C138.871 68.0677 138.883 68.1853 138.859 68.2985C138.836 68.4117 138.778 68.5149 138.694 68.5942C138.61 68.6736 138.504 68.7251 138.39 68.742C137.378 68.9469 136.424 69.3745 135.598 69.9939C134.772 70.6133 134.095 71.4089 133.614 72.3228C133.134 73.2368 132.864 74.2463 132.822 75.2779C132.781 76.3095 132.97 77.3374 133.375 78.2869C135.02 81.5324 139.009 82.9072 142.649 83.82C157.987 87.6515 171.532 87.8769 182.914 84.4849C193.518 81.3183 202.86 74.5794 207.909 66.4544C212.54 58.9942 211.447 45.5953 210.647 35.8137C210.568 34.8333 210.489 33.898 210.422 33.019C209.937 26.6407 208.945 19.282 205.283 13.0727C204.922 12.4642 204.528 11.8669 204.156 11.3035C202.057 8.379 199.292 5.99552 196.091 4.34966C192.889 2.70379 189.342 1.84271 185.742 1.83744L185.021 1.78109Z" fill="#231F20"/>
<path d="M218.4 54.1389C218.13 52.4373 175.285 45.1236 153.761 55.2658C146.053 84.7795 150.312 142.545 150.312 142.545L226.852 141.959C226.852 141.959 227.562 110.135 218.4 54.1389Z" fill="#004680"/>
<path d="M171.127 56.0195C171.127 56.0195 169.786 141.157 169.774 141.755C169.763 142.352 192.82 141.755 193.439 140.752C194.059 139.749 193.439 66.5899 193.439 66.5899L174.406 62.5331" fill="#231F20"/>
<path d="M174.136 142.544C172.664 142.596 171.191 142.531 169.729 142.353C169.583 142.328 169.45 142.252 169.355 142.139C169.26 142.025 169.209 141.881 169.211 141.733C169.211 141.147 170.552 56.8541 170.563 55.9976C170.563 55.9241 170.578 55.8514 170.606 55.7837C170.635 55.7159 170.676 55.6546 170.729 55.6031C170.781 55.5517 170.844 55.5113 170.912 55.4842C170.98 55.4571 171.053 55.4439 171.127 55.4454C171.201 55.4469 171.274 55.4629 171.342 55.4926C171.409 55.5223 171.471 55.565 171.522 55.6184C171.573 55.6718 171.613 55.7347 171.64 55.8037C171.667 55.8726 171.68 55.9462 171.679 56.0202C171.679 56.8315 170.439 134.802 170.338 141.327C173.178 141.654 190.893 141.147 192.876 140.38C193.248 137.473 192.944 87.0439 192.786 67.0413L174.226 63.007C174.152 62.9914 174.082 62.9615 174.019 62.9188C173.957 62.8761 173.903 62.8216 173.862 62.7583C173.821 62.695 173.792 62.6241 173.778 62.5498C173.764 62.4755 173.765 62.3992 173.781 62.3252C173.796 62.2512 173.826 62.181 173.869 62.1186C173.911 62.0562 173.966 62.0028 174.029 61.9614C174.093 61.9201 174.163 61.8916 174.238 61.8777C174.312 61.8637 174.388 61.8645 174.462 61.8801L193.462 66.0046C193.586 66.0305 193.698 66.0984 193.778 66.1969C193.858 66.2954 193.902 66.4185 193.902 66.5455C194.082 88.5878 194.42 139.964 193.834 140.989C193.642 141.316 193.282 141.936 182.046 142.353C179.41 142.544 176.48 142.544 174.136 142.544Z" fill="#231F20"/>
<path d="M192.763 54.7131L193.326 68.7093C193.326 68.7093 191.76 75.1777 182.305 73.3747C172.85 71.5716 171.16 65.1933 171.16 65.1933L171.059 39.0491C171.059 39.0491 185.337 30.5522 182.564 15.6094C182.564 15.6094 188.807 27.1715 202.612 24.7261C202.612 24.7261 203.457 38.1475 202.68 45.4386C201.902 52.7297 192.763 54.7131 192.763 54.7131Z" fill="white"/>
<path d="M185.416 74.2512C184.337 74.243 183.262 74.1336 182.204 73.9244C172.501 72.0763 170.687 65.6078 170.608 65.3374C170.602 65.2887 170.602 65.2395 170.608 65.1909L170.507 39.0466C170.507 38.9496 170.532 38.8543 170.58 38.7695C170.627 38.6848 170.695 38.6134 170.777 38.5621C170.913 38.4832 184.683 30.0877 182.046 15.7084C182.023 15.5769 182.046 15.4412 182.114 15.3256C182.181 15.21 182.287 15.122 182.412 15.0774C182.538 15.0327 182.676 15.0342 182.801 15.0817C182.926 15.1291 183.03 15.2194 183.094 15.3365C185.014 18.6468 187.914 21.2792 191.394 22.8699C194.875 24.4607 198.763 24.9312 202.522 24.2165C202.599 24.2008 202.679 24.2027 202.755 24.2222C202.831 24.2417 202.902 24.2783 202.962 24.3292C203.025 24.377 203.077 24.4381 203.114 24.5082C203.151 24.5783 203.172 24.6557 203.176 24.7349C203.176 24.8701 204.01 38.2578 203.244 45.5489C202.522 52.3103 195.288 54.6656 193.349 55.184L193.89 68.7068C193.896 68.7555 193.896 68.8047 193.89 68.8533C193.856 68.8984 192.47 74.2512 185.416 74.2512ZM171.724 65.112C171.927 65.7994 173.842 71.1748 182.407 72.8088C190.735 74.409 192.549 69.2816 192.752 68.6392L192.256 54.7332C192.251 54.5995 192.293 54.4682 192.376 54.3629C192.458 54.2576 192.576 54.1851 192.707 54.1585C192.786 54.1585 201.452 52.1751 202.173 45.3798C202.838 39.103 202.297 28.1043 202.173 25.3772C198.669 25.934 195.08 25.5265 191.791 24.1983C188.501 22.8702 185.635 20.6715 183.5 17.8382C184.447 30.437 173.583 38.1226 171.701 39.3622L171.724 65.112Z" fill="#231F20"/>
<path d="M175.443 38.0905C175.056 36.8178 174.265 35.7059 173.189 34.9239C172.155 34.2384 171.012 33.7352 169.808 33.4364C169.175 33.2003 168.497 33.1116 167.825 33.1772C167.358 33.2757 166.914 33.4632 166.518 33.7294C165.533 34.271 164.774 35.1461 164.377 36.1973C164.157 37.0779 164.157 37.9988 164.377 38.8794C164.536 39.8486 164.824 40.7922 165.233 41.6854C165.661 42.569 166.261 43.3586 166.998 44.0081C167.734 44.6576 168.593 45.1542 169.523 45.4688C170.453 45.7834 171.437 45.9098 172.416 45.8407C173.396 45.7716 174.352 45.5083 175.229 45.0661" fill="white"/>
<path d="M171.972 46.4194C170.472 46.427 169.002 46.007 167.732 45.2086C166.463 44.4103 165.447 43.2667 164.805 41.9118C164.372 40.9728 164.069 39.9796 163.903 38.9593C163.666 37.9932 163.666 36.9842 163.903 36.0181C164.333 34.8364 165.173 33.8485 166.27 33.2346C166.728 32.9321 167.241 32.7216 167.78 32.6148C168.542 32.5294 169.313 32.622 170.034 32.8852C171.294 33.2055 172.491 33.7391 173.572 34.4629C174.738 35.321 175.592 36.5354 176.006 37.9225C176.048 38.072 176.029 38.2319 175.953 38.3672C175.877 38.5024 175.75 38.6019 175.601 38.6437C175.451 38.6856 175.291 38.6664 175.156 38.5903C175.021 38.5142 174.921 38.3875 174.879 38.2381C174.532 37.0858 173.82 36.0773 172.851 35.3644C171.889 34.7351 170.831 34.267 169.718 33.9783C169.165 33.7688 168.572 33.6841 167.983 33.7304C167.58 33.813 167.197 33.9738 166.856 34.2037C165.995 34.686 165.326 35.45 164.963 36.3674C164.771 37.1599 164.771 37.9865 164.963 38.779C165.11 39.6984 165.383 40.5932 165.774 41.4385C166.171 42.2528 166.726 42.9805 167.406 43.5794C168.086 44.1782 168.878 44.6365 169.736 44.9278C170.594 45.2191 171.501 45.3375 172.405 45.2763C173.309 45.2151 174.192 44.9755 175.003 44.5713C175.135 44.5166 175.282 44.5136 175.415 44.5629C175.549 44.6123 175.659 44.7102 175.723 44.8372C175.787 44.9642 175.801 45.1107 175.761 45.2474C175.722 45.3841 175.632 45.5009 175.51 45.5742C174.412 46.1247 173.201 46.4139 171.972 46.4194Z" fill="#231F20"/>
<path d="M193.27 32.7695C193.27 32.7695 198.769 39.6549 197.71 41.0185C196.651 42.3821 193.338 41.8186 193.338 41.8186" fill="white"/>
<path d="M194.859 42.508C194.32 42.5066 193.781 42.4651 193.248 42.3841C193.101 42.3566 192.97 42.2729 192.884 42.1509C192.798 42.0289 192.763 41.8781 192.786 41.7305C192.797 41.6575 192.822 41.5875 192.86 41.5245C192.899 41.4616 192.949 41.407 193.009 41.3639C193.069 41.3208 193.137 41.2902 193.209 41.2738C193.281 41.2574 193.355 41.2556 193.428 41.2684C194.206 41.4037 196.583 41.5727 197.271 40.6824C197.62 40.0626 195.547 36.5241 192.831 33.1322C192.783 33.074 192.748 33.007 192.727 32.9351C192.706 32.8631 192.699 32.7877 192.708 32.7132C192.716 32.6386 192.739 32.5665 192.776 32.5011C192.812 32.4357 192.862 32.3782 192.921 32.332C193.038 32.2399 193.186 32.1977 193.334 32.2146C193.482 32.2315 193.617 32.3061 193.71 32.4222C195.445 34.5971 199.344 39.8147 198.217 41.3699C197.775 41.7941 197.245 42.1159 196.665 42.3126C196.085 42.5093 195.468 42.576 194.859 42.508Z" fill="#231F20"/>
<path d="M189.146 30.0827C189.185 29.1437 188.677 28.3603 188.011 28.3329C187.346 28.3054 186.775 29.0444 186.737 29.9834C186.698 30.9224 187.206 31.7058 187.871 31.7332C188.537 31.7607 189.107 31.0217 189.146 30.0827Z" fill="#231F20"/>
<path d="M197.972 29.964C198.114 29.035 197.696 28.2003 197.037 28.0995C196.379 27.9988 195.73 28.6702 195.588 29.5992C195.446 30.5282 195.864 31.3629 196.522 31.4636C197.181 31.5644 197.83 30.893 197.972 29.964Z" fill="#231F20"/>
<path d="M197.688 44.8516C197.688 44.8516 185.765 52.0751 183.646 40.9863Z" fill="white"/>
<path d="M190.182 47.7262C189.149 47.7403 188.125 47.5407 187.173 47.1402C185.055 46.1936 183.68 44.1651 183.094 41.0887C183.079 41.0161 183.079 40.9412 183.094 40.8687C183.109 40.7961 183.139 40.7273 183.181 40.6663C183.223 40.6053 183.277 40.5534 183.339 40.5137C183.402 40.474 183.472 40.4472 183.545 40.4351C183.689 40.4085 183.839 40.4395 183.961 40.5217C184.083 40.6038 184.168 40.7305 184.198 40.8746C184.717 43.5679 185.866 45.3822 187.635 46.1034C191.568 47.8614 197.338 44.4131 197.394 44.368C197.523 44.2903 197.677 44.2668 197.823 44.3027C197.969 44.3387 198.094 44.4311 198.172 44.5596C198.25 44.6881 198.273 44.8422 198.237 44.988C198.201 45.1338 198.109 45.2594 197.98 45.3371C195.607 46.7401 192.934 47.5589 190.182 47.7262Z" fill="#231F20"/>
<path d="M192.763 54.7132C192.763 54.7132 185.494 54.8372 182.068 52.9102C182.068 52.9102 185.021 61.1704 192.966 63.1312L192.763 54.7132Z" fill="#231F20"/>
<path d="M192.966 63.6606H192.83C184.694 61.6435 181.674 53.4283 181.561 53.079C181.518 52.9714 181.51 52.853 181.538 52.7406C181.567 52.6282 181.629 52.5275 181.718 52.4527C181.806 52.3779 181.916 52.3329 182.032 52.3239C182.147 52.315 182.262 52.3426 182.361 52.4028C185.607 54.2284 192.695 54.127 192.763 54.127C192.912 54.1201 193.059 54.1695 193.174 54.2655C193.288 54.3615 193.363 54.497 193.383 54.6454L193.585 63.0747C193.587 63.1496 193.573 63.2241 193.546 63.2937C193.518 63.3634 193.477 63.4269 193.424 63.4804C193.372 63.5339 193.309 63.5764 193.24 63.6054C193.171 63.6344 193.097 63.6494 193.022 63.6494L192.966 63.6606ZM183.24 54.0256C184.367 56.2794 187.23 60.787 192.447 62.3872L192.256 55.2652C189.206 55.2985 186.168 54.8808 183.24 54.0256Z" fill="#231F20"/>
<path d="M288.122 61.1799C286.015 59.298 272.345 67.9413 272.345 67.9413C272.931 62.5435 273.641 58.4415 272.345 58.3175C271.049 58.1936 265.775 72.7194 265.775 72.7194C265.775 72.7194 248.286 98.2552 246.877 98.9651C245.469 99.6751 218.4 54.1367 218.4 54.1367C203.007 70.9276 214.535 94.5138 214.535 94.5138C214.535 94.5138 243.057 130.428 249.041 130.079C253.875 129.797 269.99 100.96 275.985 89.9273C275.985 89.9273 280.144 83.1659 281.834 80.6641C283.524 78.1624 289.057 72.9223 291.525 69.981C293.993 67.0398 290.297 63.0618 288.122 61.1799Z" fill="white"/>
<path d="M248.962 130.598C242.708 130.598 217.048 98.515 214.129 94.8413C213.949 94.5032 202.567 70.6353 218.028 53.788C218.082 53.7301 218.149 53.6856 218.224 53.6582C218.298 53.6308 218.378 53.6212 218.457 53.6302C218.536 53.6359 218.613 53.6616 218.68 53.705C218.747 53.7483 218.802 53.8079 218.84 53.8782C228.926 70.7818 244.409 96.1597 246.866 98.4023C248.624 96.6556 258.721 82.2086 265.358 72.4834C270.756 57.6646 272.007 57.766 272.447 57.8336C272.589 57.8452 272.728 57.8862 272.854 57.9541C272.98 58.022 273.091 58.1153 273.179 58.228C273.9 59.1183 273.686 61.2819 273.179 65.7107C273.179 66.1164 273.089 66.5333 273.033 66.9616C277.056 64.4485 286.42 58.9492 288.483 60.7748C292.709 64.5387 293.926 67.9194 291.931 70.2972C290.894 71.5368 289.35 73.1483 287.716 74.8048C285.781 76.7213 283.963 78.7535 282.273 80.8901C280.606 83.313 276.481 90.0632 276.436 90.1308C268.311 105.074 253.898 130.237 249.075 130.53L248.962 130.598ZM218.321 55.0051C204.043 71.3001 214.941 94.0637 214.997 94.2891C226.266 108.466 244.601 129.573 248.928 129.573H249.007C252.106 129.381 262.271 114.1 275.534 89.68C275.591 89.5899 279.727 82.8284 281.417 80.3718C283.12 78.1907 284.957 76.117 286.916 74.1625C288.539 72.4721 290.072 70.8719 291.086 69.6549C293.227 67.108 289.903 63.4907 287.705 61.5637C286.578 60.5607 278.983 64.3471 272.593 68.4265C272.51 68.4761 272.414 68.5023 272.317 68.5023C272.22 68.5023 272.125 68.4761 272.041 68.4265C271.958 68.3754 271.892 68.3014 271.85 68.2134C271.808 68.1255 271.792 68.0273 271.804 67.9307C271.895 67.1306 271.985 66.353 272.064 65.6205C272.368 62.9948 272.785 59.4225 272.334 58.9267C271.376 59.8057 268.525 66.6235 266.226 72.9342C266.228 72.9755 266.228 73.0168 266.226 73.0581C263.285 77.3404 248.59 98.7404 247.136 99.4616C246.505 99.7884 245.84 100.126 231.675 77.1037C225.725 67.3898 219.809 57.5068 218.321 55.0051Z" fill="#231F20"/>
<path d="M275.794 76.6079C275.731 76.6224 275.665 76.6224 275.602 76.6079C275.478 76.5555 275.379 76.4567 275.327 76.3326C275.274 76.2085 275.272 76.0687 275.32 75.943C277.011 71.7059 272.312 68.5956 272.12 68.4716C272.054 68.4402 271.994 68.3951 271.947 68.3391C271.899 68.2831 271.864 68.2176 271.843 68.1469C271.823 68.0762 271.818 68.002 271.828 67.9291C271.838 67.8563 271.864 67.7865 271.904 67.7245C271.943 67.6624 271.996 67.6094 272.057 67.5691C272.119 67.5288 272.188 67.502 272.261 67.4906C272.333 67.4792 272.408 67.4834 272.479 67.503C272.55 67.5225 272.616 67.5569 272.672 67.6039C272.729 67.6039 278.307 71.3002 276.278 76.3262C276.233 76.4146 276.163 76.4882 276.077 76.5382C275.992 76.5881 275.893 76.6123 275.794 76.6079Z" fill="#231F20"/>
<path d="M272.853 121.785H89.1104V265.838H272.853V121.785Z" fill="white"/>
<path d="M272.852 266.358H89.1663C89.0288 266.358 88.897 266.303 88.7998 266.206C88.7026 266.109 88.6479 265.977 88.6479 265.839V121.787C88.6479 121.719 88.6614 121.652 88.6876 121.59C88.7138 121.528 88.7522 121.471 88.8004 121.424C88.8487 121.377 88.906 121.34 88.9688 121.315C89.0316 121.29 89.0988 121.278 89.1663 121.279H272.852C272.988 121.279 273.118 121.332 273.215 121.427C273.312 121.522 273.368 121.651 273.371 121.787V265.839C273.368 265.976 273.312 266.106 273.216 266.203C273.119 266.299 272.989 266.355 272.852 266.358ZM89.6171 265.377H272.334V122.26H89.6171V265.377Z" fill="#231F20"/>
<path d="M174.62 227.648L115.818 225.304C115.744 225.301 115.672 225.284 115.604 225.253C115.537 225.222 115.477 225.178 115.426 225.123C115.376 225.069 115.337 225.005 115.311 224.936C115.286 224.866 115.274 224.792 115.277 224.718L116.878 184.566C116.887 184.417 116.951 184.277 117.058 184.172C117.17 184.074 117.315 184.022 117.464 184.026L176.266 186.358C176.414 186.367 176.553 186.433 176.654 186.542C176.755 186.651 176.81 186.796 176.806 186.944L175.184 227.062C175.176 227.208 175.111 227.346 175.003 227.445C174.957 227.504 174.899 227.552 174.833 227.587C174.767 227.622 174.695 227.643 174.62 227.648ZM116.404 224.2L174.079 226.454L175.635 187.418L117.959 185.164L116.404 224.2Z" fill="#D1D3D4"/>
<path d="M183.331 175.563L143.292 174.605C143.144 174.602 143.002 174.541 142.898 174.436C142.797 174.325 142.741 174.181 142.74 174.031L143.675 135.355C143.677 135.281 143.693 135.208 143.722 135.14C143.752 135.072 143.795 135.011 143.848 134.96C143.901 134.909 143.964 134.868 144.033 134.841C144.102 134.814 144.176 134.801 144.25 134.803L184.289 135.761C184.363 135.764 184.436 135.781 184.503 135.812C184.57 135.843 184.631 135.887 184.681 135.942C184.731 135.996 184.77 136.06 184.796 136.129C184.821 136.199 184.833 136.273 184.83 136.347L183.906 175.022C183.9 175.17 183.84 175.311 183.737 175.417C183.623 175.512 183.479 175.563 183.331 175.563ZM143.889 173.49L182.79 174.425L183.692 136.876L144.791 135.952L143.889 173.49Z" fill="#D1D3D4"/>
<path d="M223.065 176.521L183.026 175.563C182.952 175.56 182.88 175.542 182.812 175.511C182.745 175.48 182.685 175.436 182.634 175.382C182.584 175.327 182.545 175.264 182.519 175.194C182.494 175.125 182.482 175.051 182.485 174.977L183.409 136.312C183.41 136.239 183.425 136.166 183.454 136.098C183.483 136.03 183.525 135.969 183.578 135.918C183.631 135.865 183.695 135.824 183.765 135.797C183.835 135.769 183.909 135.757 183.984 135.76L224.023 136.718C224.098 136.721 224.171 136.738 224.238 136.769C224.306 136.8 224.367 136.844 224.418 136.898C224.469 136.95 224.508 137.012 224.534 137.08C224.559 137.148 224.569 137.22 224.564 137.293L223.64 175.968C223.634 176.117 223.571 176.257 223.464 176.36C223.357 176.463 223.214 176.521 223.065 176.521ZM183.624 174.447L222.524 175.382L223.426 137.834L184.514 136.91L183.624 174.447Z" fill="#D1D3D4"/>
<path d="M176.806 168.765L153.141 168.201C152.992 168.201 152.848 168.142 152.743 168.036C152.637 167.93 152.578 167.787 152.578 167.638C152.578 167.488 152.637 167.345 152.743 167.239C152.848 167.134 152.992 167.074 153.141 167.074L176.806 167.638C176.955 167.644 177.095 167.707 177.198 167.814C177.301 167.921 177.358 168.064 177.358 168.212C177.355 168.358 177.296 168.497 177.193 168.6C177.09 168.703 176.952 168.762 176.806 168.765Z" fill="#D1D3D4"/>
<path d="M176.964 162.231L153.299 161.656C153.225 161.656 153.151 161.641 153.083 161.612C153.014 161.583 152.952 161.54 152.901 161.487C152.849 161.433 152.809 161.369 152.782 161.3C152.756 161.23 152.744 161.156 152.747 161.082C152.749 161.008 152.765 160.935 152.794 160.867C152.824 160.799 152.867 160.738 152.92 160.686C152.973 160.635 153.036 160.595 153.105 160.568C153.174 160.541 153.248 160.528 153.322 160.529L176.987 161.104C177.136 161.104 177.28 161.163 177.385 161.269C177.491 161.375 177.55 161.518 177.55 161.668C177.55 161.817 177.491 161.96 177.385 162.066C177.28 162.172 177.136 162.231 176.987 162.231H176.964Z" fill="#D1D3D4"/>
<path d="M177.122 155.683L153.457 155.119C153.383 155.118 153.31 155.102 153.242 155.072C153.174 155.042 153.113 154.999 153.061 154.946C153.01 154.893 152.97 154.83 152.943 154.761C152.916 154.692 152.903 154.618 152.904 154.544C152.915 154.398 152.98 154.26 153.086 154.158C153.192 154.057 153.332 153.997 153.479 153.992L177.144 154.556C177.294 154.564 177.434 154.63 177.537 154.739C177.64 154.848 177.697 154.992 177.696 155.142C177.691 155.289 177.627 155.428 177.52 155.53C177.412 155.631 177.269 155.686 177.122 155.683Z" fill="#D1D3D4"/>
<path d="M177.268 149.145L153.603 148.57C153.529 148.57 153.455 148.555 153.387 148.526C153.318 148.497 153.256 148.454 153.205 148.401C153.153 148.347 153.113 148.283 153.087 148.214C153.06 148.144 153.048 148.07 153.051 147.996C153.065 147.85 153.13 147.714 153.236 147.612C153.341 147.511 153.48 147.451 153.626 147.443L177.291 148.018C177.365 148.02 177.437 148.036 177.504 148.065C177.571 148.095 177.632 148.138 177.682 148.192C177.733 148.245 177.772 148.308 177.798 148.377C177.823 148.446 177.835 148.519 177.832 148.593C177.829 148.74 177.768 148.881 177.663 148.984C177.558 149.087 177.416 149.145 177.268 149.145Z" fill="#D1D3D4"/>
<path d="M177.426 142.601L153.761 142.037C153.613 142.031 153.474 141.968 153.373 141.86C153.272 141.753 153.217 141.61 153.22 141.462C153.231 141.316 153.296 141.178 153.402 141.076C153.508 140.974 153.648 140.915 153.795 140.91L177.46 141.474C177.534 141.477 177.606 141.494 177.674 141.525C177.741 141.556 177.801 141.6 177.852 141.654C177.902 141.709 177.941 141.773 177.966 141.842C177.992 141.912 178.004 141.986 178.001 142.06C177.999 142.133 177.983 142.206 177.953 142.273C177.923 142.34 177.88 142.401 177.827 142.451C177.773 142.501 177.71 142.54 177.641 142.566C177.573 142.592 177.499 142.604 177.426 142.601Z" fill="#D1D3D4"/>
<path d="M215.054 150.049L191.389 149.485C191.315 149.484 191.242 149.468 191.174 149.438C191.106 149.409 191.045 149.366 190.994 149.312C190.942 149.259 190.902 149.196 190.875 149.127C190.848 149.058 190.835 148.985 190.837 148.911C190.835 148.836 190.849 148.761 190.877 148.692C190.906 148.623 190.949 148.56 191.003 148.508C191.057 148.456 191.121 148.416 191.191 148.39C191.262 148.365 191.336 148.354 191.411 148.358L215.076 148.922C215.224 148.928 215.363 148.991 215.464 149.099C215.565 149.206 215.62 149.349 215.617 149.497C215.617 149.57 215.603 149.643 215.574 149.711C215.546 149.778 215.504 149.84 215.452 149.891C215.399 149.943 215.337 149.983 215.269 150.01C215.2 150.037 215.127 150.05 215.054 150.049Z" fill="#D1D3D4"/>
<path d="M215.211 143.512L191.546 142.938C191.472 142.936 191.4 142.92 191.333 142.89C191.265 142.86 191.205 142.817 191.154 142.764C191.104 142.71 191.065 142.647 191.039 142.578C191.014 142.51 191.002 142.436 191.005 142.363C191.006 142.289 191.022 142.216 191.052 142.148C191.082 142.08 191.124 142.019 191.178 141.968C191.231 141.916 191.294 141.876 191.363 141.849C191.432 141.822 191.506 141.809 191.58 141.811L215.245 142.385C215.394 142.385 215.537 142.445 215.643 142.55C215.749 142.656 215.808 142.799 215.808 142.949C215.808 143.098 215.749 143.242 215.643 143.347C215.537 143.453 215.394 143.512 215.245 143.512H215.211Z" fill="#D1D3D4"/>
<path d="M214.546 171.257L190.216 170.716C190.066 170.71 189.924 170.646 189.821 170.536C189.717 170.426 189.661 170.281 189.664 170.13L190.036 154.804C190.039 154.656 190.1 154.514 190.205 154.41C190.316 154.309 190.461 154.253 190.611 154.252L214.929 154.838C215.003 154.839 215.076 154.855 215.144 154.885C215.212 154.915 215.273 154.958 215.325 155.011C215.376 155.064 215.416 155.127 215.443 155.196C215.47 155.265 215.483 155.339 215.482 155.413L215.11 170.716C215.104 170.864 215.044 171.005 214.941 171.111C214.83 171.203 214.691 171.255 214.546 171.257ZM190.802 169.589L213.994 170.141L214.343 155.942L191.152 155.379L190.802 169.589Z" fill="#ED2D24"/>
<path d="M154.55 55.7715C154.55 55.7715 123.052 93.5454 119.007 106.246C114.961 118.946 144.813 158.771 144.813 158.771C144.813 158.771 154.55 171.437 159.204 168.744C163.858 166.051 159.204 152.077 159.204 152.077C159.204 152.077 167.396 156.731 165.627 152.922C163.858 149.113 153.062 145.992 153.062 145.992L139.731 106.133L150.56 92.7115" fill="white"/>
<path d="M157.761 169.591C152.713 169.591 145.365 160.226 144.441 159.032C143.213 157.398 114.499 118.835 118.522 106.067C122.545 93.2992 152.848 57.0015 154.133 55.4576C154.174 55.3979 154.227 55.3474 154.288 55.3095C154.35 55.2715 154.419 55.2468 154.491 55.2371C154.562 55.2274 154.635 55.2328 154.705 55.253C154.774 55.2732 154.839 55.3078 154.894 55.3544C154.95 55.4011 154.995 55.4588 155.026 55.5239C155.058 55.589 155.076 55.6601 155.078 55.7324C155.081 55.8048 155.068 55.8769 155.041 55.9441C155.014 56.0112 154.973 56.072 154.921 56.1225C154.606 56.4944 123.447 93.9303 119.503 106.371C115.559 118.812 144.948 158.04 145.241 158.434C147.867 161.815 155.462 170.312 158.956 168.272C162.449 166.233 159.981 155.989 158.719 152.225C158.688 152.125 158.688 152.018 158.718 151.918C158.748 151.818 158.807 151.728 158.888 151.662C158.968 151.596 159.065 151.556 159.167 151.546C159.269 151.536 159.372 151.557 159.463 151.605C162.122 153.115 164.94 154.186 165.368 153.859C165.368 153.859 165.424 153.679 165.165 153.138C163.802 150.185 155.868 147.334 152.927 146.478C152.848 146.456 152.776 146.414 152.717 146.357C152.658 146.3 152.614 146.229 152.589 146.151L139.291 106.304C139.264 106.222 139.258 106.135 139.273 106.05C139.289 105.965 139.326 105.886 139.381 105.819L150.132 92.3977C150.174 92.3445 150.226 92.3001 150.285 92.2673C150.344 92.2344 150.409 92.2137 150.476 92.2064C150.543 92.199 150.611 92.2052 150.676 92.2245C150.741 92.2438 150.801 92.2758 150.853 92.3188C150.958 92.4048 151.025 92.5285 151.04 92.6633C151.055 92.7981 151.016 92.9334 150.932 93.04L140.362 106.236L153.513 145.576C155.226 146.095 164.421 149.036 166.134 152.71C166.54 153.589 166.529 154.231 166.134 154.626C165.165 155.516 162.156 154.186 160.15 153.138C161.187 156.688 163.7 166.774 159.542 169.185C158.997 169.481 158.381 169.622 157.761 169.591Z" fill="#231F20"/>
<path d="M96.6718 88.2938C96.6718 88.2938 95.3308 79.0193 87.8481 76.6979C80.3654 74.3765 58.819 74.8047 56.5313 91.3477C54.2437 107.891 62.3575 119.701 69.1302 123.183L85.6619 121.481L96.6718 88.2938Z" fill="white"/>
<path d="M69.1301 123.78C69.0446 123.797 68.9565 123.797 68.871 123.78C62.6054 120.557 53.5563 108.905 55.9791 91.3592C56.263 88.8683 57.1147 86.4758 58.4686 84.3658C59.8225 82.2558 61.6426 80.4846 63.7886 79.1886C71.4178 74.3429 82.7883 74.5119 88.0622 76.1572C95.7928 78.5688 97.2127 87.8207 97.269 88.2151C97.291 88.3001 97.291 88.3893 97.269 88.4743L86.2592 121.696C86.2253 121.798 86.1626 121.889 86.0787 121.957C85.9948 122.025 85.8932 122.067 85.7858 122.079L69.2541 123.78H69.1301ZM79.802 76.2248C74.7647 76.2248 68.871 77.2616 64.3521 80.1352C62.3683 81.3417 60.6844 82.9829 59.4272 84.935C58.1701 86.8871 57.3725 89.0991 57.0948 91.4043C54.7733 108.229 63.259 119.397 69.2428 122.586L85.1999 120.997L96.052 88.249C95.8604 87.122 94.2264 79.2337 87.6565 77.2391C85.1002 76.5277 82.4551 76.1862 79.802 76.2248Z" fill="#231F20"/>
<path d="M85.7748 91.9218L87.2285 100.588C87.2285 100.588 83.9718 93.9953 80.7601 99.6524C77.5484 105.309 86.7778 112.724 86.7778 112.724L84.8508 120.748L67.8119 122.45L65.5581 139.353C65.5581 139.353 90.8459 143.038 90.429 142.396C90.2825 142.182 92.1419 125.706 92.1419 125.706C92.1419 125.706 96.7622 127.566 99.3315 120.218C101.901 112.871 96.7058 88.248 96.7058 88.248L85.7748 91.9218Z" fill="white"/>
<path d="M89.8426 143.027C87.9719 143.027 82.4613 142.429 65.445 139.95C65.2992 139.928 65.168 139.849 65.0795 139.731C64.991 139.613 64.9523 139.465 64.9717 139.319L67.2255 122.415C67.2404 122.29 67.2977 122.174 67.3879 122.086C67.4781 121.997 67.5958 121.943 67.7213 121.931L84.3658 120.274L86.1238 112.983C84.5348 111.642 77.1085 104.915 80.23 99.4603C81.2217 97.7136 82.405 96.8571 83.6107 96.891C84.1172 96.9428 84.6083 97.0951 85.0553 97.3389C85.5022 97.5827 85.8961 97.9131 86.2139 98.3109L85.1772 92.1129C85.1538 91.9806 85.1784 91.8444 85.2466 91.7287C85.3147 91.613 85.422 91.5254 85.549 91.4818L96.4462 87.8532C96.518 87.8174 96.5971 87.7988 96.6772 87.7988C96.7574 87.7988 96.8365 87.8174 96.9083 87.8532C96.9765 87.8932 97.0358 87.9469 97.0823 88.0109C97.1288 88.0749 97.1617 88.1478 97.1787 88.225C97.3928 89.228 102.374 113.017 99.7819 120.488C98.7789 123.373 97.3252 125.266 95.4884 126.123C94.5692 126.545 93.5449 126.682 92.5471 126.517C91.8484 132.727 90.8906 141.607 90.9018 142.418C90.9275 142.562 90.8994 142.71 90.823 142.835C90.8342 142.891 90.7103 143.027 89.8426 143.027ZM66.1775 138.925C74.5729 140.142 87.3972 141.888 89.8426 141.956C89.8426 140.615 90.2595 136.851 91.5216 125.683C91.5334 125.598 91.5637 125.517 91.6105 125.445C91.6572 125.373 91.7192 125.312 91.7921 125.266C91.869 125.228 91.9539 125.208 92.04 125.208C92.1261 125.208 92.211 125.228 92.2879 125.266C93.2038 125.557 94.1964 125.485 95.0601 125.064C96.604 124.354 97.8436 122.686 98.7451 120.117C100.999 113.637 96.9984 92.9242 96.2208 89.0702L86.3829 92.3495L87.769 100.542C87.7884 100.674 87.7603 100.809 87.6895 100.922C87.6188 101.036 87.5101 101.12 87.3829 101.161C87.2556 101.201 87.1181 101.195 86.9948 101.144C86.8715 101.093 86.7705 100.999 86.7097 100.88C86.3153 100.08 84.9856 98.0066 83.5995 97.9728C82.7881 97.9728 81.988 98.6151 81.2217 99.9787C78.2805 105.151 87.0253 112.262 87.1154 112.375C87.1999 112.441 87.263 112.531 87.2971 112.633C87.3311 112.736 87.3346 112.845 87.307 112.949L85.38 120.973C85.3508 121.086 85.2877 121.188 85.1991 121.265C85.1105 121.341 85.0006 121.389 84.8842 121.401L68.2961 122.968L66.1775 138.925Z" fill="#231F20"/>
<path d="M97.4492 101.176C97.4492 101.176 103.918 109.594 102.949 110.867C101.979 112.141 98.6437 112.186 98.6437 112.186" fill="white"/>
<path d="M98.6438 112.746C98.4963 112.746 98.3546 112.689 98.2493 112.585C98.1439 112.482 98.0833 112.342 98.0803 112.194C98.0829 112.046 98.1412 111.905 98.2436 111.799C98.346 111.692 98.4849 111.628 98.6325 111.619C99.7594 111.619 101.912 111.281 102.498 110.493C102.712 109.704 99.8383 105.185 96.9985 101.477C96.9117 101.357 96.8749 101.207 96.8959 101.06C96.9169 100.913 96.9941 100.78 97.1112 100.688C97.2313 100.603 97.3792 100.566 97.5254 100.585C97.6716 100.604 97.8054 100.677 97.9 100.79C100.965 104.79 104.414 109.805 103.388 111.169C102.363 112.532 99.0269 112.713 98.655 112.713L98.6438 112.746Z" fill="#231F20"/>
<path d="M93.8135 100.423C94.2665 100.31 94.3708 99.1614 94.0465 97.8568C93.7222 96.5522 93.0921 95.5858 92.6391 95.6984C92.1861 95.8111 92.0818 96.96 92.4061 98.2646C92.7304 99.5692 93.3605 100.536 93.8135 100.423Z" fill="#231F20"/>
<path d="M97.7423 120.592C97.5678 120.595 97.3936 120.576 97.2239 120.536C95.4997 120.119 95.4659 116.502 95.4997 115.408C95.5014 115.324 95.5227 115.242 95.5618 115.168C95.601 115.093 95.6568 115.029 95.7251 114.98C95.7898 114.926 95.8667 114.889 95.9492 114.871C96.0317 114.853 96.1172 114.856 96.1984 114.879L100.052 115.803C100.198 115.84 100.323 115.933 100.401 116.062C100.479 116.19 100.504 116.344 100.469 116.49C100.452 116.563 100.421 116.632 100.377 116.692C100.333 116.753 100.277 116.804 100.213 116.843C100.149 116.882 100.078 116.907 100.004 116.918C99.93 116.93 99.8545 116.926 99.782 116.907L96.6266 116.141C96.6266 117.73 97.0098 119.319 97.4943 119.443C97.6133 119.475 97.7377 119.483 97.8598 119.466C97.982 119.448 98.0992 119.406 98.2043 119.341C98.6717 118.936 98.9958 118.391 99.1284 117.786C99.1443 117.714 99.1745 117.645 99.2173 117.584C99.26 117.523 99.3143 117.471 99.3772 117.431C99.44 117.391 99.5102 117.364 99.5835 117.352C99.6569 117.339 99.732 117.341 99.8045 117.358C99.9477 117.395 100.071 117.487 100.149 117.612C100.226 117.738 100.252 117.889 100.221 118.034C100.03 118.93 99.5269 119.729 98.8015 120.288C98.4851 120.489 98.1173 120.595 97.7423 120.592Z" fill="#231F20"/>
<path d="M127.222 202.337C127.222 202.337 133.51 207.723 138.3 205.177C143.089 202.63 144.43 199.937 144.43 199.937C144.43 199.937 146.075 206.98 147.878 205.03C148.121 204.778 148.309 204.479 148.433 204.152C148.557 203.824 148.613 203.475 148.598 203.126C148.584 202.776 148.498 202.433 148.347 202.118C148.197 201.802 147.983 201.52 147.721 201.289C147.721 201.289 151.011 206.529 151.315 203.678C151.62 200.827 149.366 197.841 149.366 197.841C149.366 197.841 159.102 205.03 158.652 200.692C158.201 196.353 149.636 190.809 143.235 190.809C136.835 190.809 124.822 194.257 124.822 194.257" fill="white"/>
<path d="M135.426 206.429C131.189 206.429 127.064 202.947 126.85 202.766C126.738 202.666 126.67 202.527 126.659 202.378C126.649 202.228 126.697 202.08 126.794 201.966C126.845 201.914 126.907 201.872 126.974 201.843C127.042 201.815 127.115 201.8 127.188 201.8C127.262 201.8 127.335 201.815 127.402 201.843C127.47 201.872 127.531 201.914 127.583 201.966C127.65 201.966 133.634 207.071 138.029 204.738C142.424 202.406 143.912 199.769 143.923 199.746C143.977 199.643 144.061 199.559 144.163 199.505C144.266 199.451 144.382 199.429 144.498 199.442C144.613 199.453 144.722 199.501 144.809 199.578C144.896 199.654 144.957 199.757 144.982 199.87C145.512 202.124 146.526 204.682 147.236 204.862C147.236 204.862 147.383 204.862 147.495 204.704C147.764 204.457 147.954 204.136 148.042 203.781C148.13 203.427 148.112 203.054 147.991 202.71C147.732 202.338 147.484 201.966 147.281 201.583C147.213 201.468 147.189 201.332 147.212 201.2C147.235 201.068 147.304 200.949 147.407 200.863C147.51 200.778 147.64 200.732 147.774 200.734C147.908 200.736 148.037 200.785 148.138 200.873C148.502 201.215 148.789 201.63 148.983 202.09C149.446 202.809 150.038 203.435 150.729 203.938C150.744 203.834 150.744 203.727 150.729 203.623C151 201.042 148.915 198.213 148.893 198.18C148.811 198.072 148.771 197.938 148.781 197.803C148.792 197.668 148.851 197.541 148.949 197.447C149.045 197.354 149.171 197.297 149.305 197.287C149.439 197.276 149.572 197.313 149.681 197.391C152.893 199.769 156.95 202 157.908 201.448C158.088 201.346 158.099 201.008 158.066 200.749C157.637 196.636 149.31 191.373 143.213 191.373C136.925 191.373 125.081 194.754 124.957 194.754C124.812 194.792 124.658 194.772 124.528 194.699C124.397 194.625 124.3 194.503 124.258 194.359C124.22 194.218 124.238 194.066 124.31 193.938C124.382 193.809 124.501 193.714 124.642 193.672C125.137 193.526 136.767 190.201 143.213 190.201C149.896 190.201 158.708 195.926 159.181 200.591C159.263 200.927 159.238 201.279 159.111 201.6C158.984 201.921 158.761 202.195 158.471 202.383C156.984 203.228 153.49 201.256 151.068 199.69C151.669 200.938 151.94 202.319 151.856 203.702C151.777 204.457 151.473 204.907 150.977 205.02C150.482 205.133 149.726 204.682 149.073 204.006C148.91 204.516 148.632 204.983 148.262 205.369C148.103 205.573 147.889 205.727 147.645 205.811C147.4 205.895 147.137 205.906 146.887 205.843C145.613 205.505 144.633 202.947 144.171 201.234C142.606 203.062 140.69 204.556 138.536 205.629C137.582 206.149 136.513 206.424 135.426 206.429Z" fill="#231F20"/>
<path d="M89.1097 246.218C89.1097 246.218 89.1097 224.649 90.4282 200.849C91.7467 177.049 100.728 167.515 93.099 144.166C85.4698 120.816 63.3937 123.746 52.4402 132.829C30.1612 151.299 9.61765 207.701 21.2586 247.672C21.2586 247.616 46.7155 258.389 89.1097 246.218Z" fill="#6F93B3"/>
<path d="M66.0422 150.251C66.0422 151.446 53.7702 209.516 61.8501 214.902C69.93 220.289 129.194 208.028 129.194 208.028L128.597 191.857L93.5726 187.969C93.5726 187.969 103.456 144.02 86.1012 132.311C68.7468 120.602 66.0422 150.251 66.0422 150.251Z" fill="#6F93B3"/>
<path d="M71.305 218.259C64.8479 218.259 58.4808 216.839 55.9227 211.87C50.2093 200.736 65.693 141.832 66.3579 139.331C66.3764 139.257 66.4093 139.187 66.4547 139.126C66.5001 139.064 66.5572 139.013 66.6226 138.973C66.688 138.934 66.7604 138.908 66.8359 138.897C66.9113 138.886 66.9882 138.889 67.0622 138.908C67.1362 138.926 67.2059 138.959 67.2671 139.005C67.3284 139.05 67.3802 139.107 67.4194 139.173C67.4586 139.238 67.4846 139.31 67.4958 139.386C67.5071 139.461 67.5033 139.538 67.4848 139.612C67.3158 140.221 51.4377 200.601 56.9595 211.351C62.3687 221.899 88.0734 214.732 88.3326 214.664C88.4821 214.623 88.642 214.642 88.7773 214.718C88.9125 214.794 89.012 214.921 89.0538 215.07C89.0957 215.219 89.0765 215.379 89.0004 215.515C88.9243 215.65 88.7976 215.749 88.6482 215.791C82.9899 217.32 77.1653 218.149 71.305 218.259Z" fill="#231F20"/>
<path d="M93.5387 188.533C92.0625 188.477 84.6925 188.082 84.0276 185.412C83.4191 182.977 91.4089 159.493 93.0429 154.861C93.0907 154.719 93.193 154.602 93.3272 154.535C93.4614 154.469 93.6165 154.458 93.7585 154.506C93.9004 154.554 94.0176 154.656 94.0842 154.79C94.1507 154.925 94.1613 155.08 94.1135 155.222C90.4285 165.927 84.7376 183.507 85.0982 185.141C85.4363 186.505 90.2482 187.282 93.55 187.395C93.6994 187.395 93.8427 187.454 93.9484 187.56C94.0541 187.666 94.1135 187.809 94.1135 187.958C94.1135 188.108 94.0541 188.251 93.9484 188.357C93.8427 188.462 93.6994 188.522 93.55 188.522L93.5387 188.533Z" fill="#231F20"/>
<path d="M14.0467 154.309C22.4309 154.658 32.697 155.143 40.3262 155.515C43.3602 155.661 46.24 156.895 48.4379 158.992C50.6359 161.088 52.0048 163.907 52.294 166.93L58.5934 231.784H89.11V257.376L11.4773 255.055L0.974562 168.463C0.756117 166.644 0.935208 164.799 1.49946 163.056C2.06371 161.313 2.99967 159.714 4.24266 158.368C5.48565 157.022 7.00603 155.962 8.69874 155.261C10.3915 154.56 12.2161 154.236 14.0467 154.309Z" fill="#231F20"/>
<path d="M89.1101 257.939L11.4774 255.606C11.3439 255.604 11.2155 255.554 11.1161 255.465C11.0166 255.376 10.9528 255.254 10.9365 255.121L0.43369 168.552C0.212729 166.657 0.404553 164.737 0.995983 162.923C1.58741 161.11 2.56444 159.445 3.85994 158.045C5.15545 156.645 6.73873 155.541 8.50104 154.811C10.2633 154.08 12.1629 153.739 14.0693 153.812C22.5887 154.162 33.0689 154.658 40.3488 155.007C43.513 155.176 46.5125 156.471 48.8062 158.657C51.1 160.843 52.5368 163.777 52.8575 166.93L59.1005 231.276H89.1101C89.1835 231.276 89.2563 231.291 89.324 231.319C89.3918 231.348 89.4531 231.389 89.5046 231.442C89.556 231.494 89.5964 231.556 89.6235 231.625C89.6506 231.693 89.6638 231.766 89.6623 231.84V257.375C89.664 257.451 89.6499 257.526 89.6208 257.596C89.5917 257.666 89.5482 257.729 89.4932 257.781C89.3908 257.881 89.2534 257.938 89.1101 257.939ZM11.9732 254.558L88.5466 256.812V232.358H58.5934C58.4552 232.356 58.3226 232.303 58.2207 232.21C58.1189 232.116 58.055 231.988 58.0412 231.851L51.7418 166.997C51.4552 164.109 50.1443 161.419 48.0462 159.414C45.9482 157.409 43.2016 156.222 40.3037 156.066C33.0126 155.706 22.5436 155.21 14.0242 154.86C12.2746 154.789 10.5305 155.099 8.91228 155.768C7.29411 156.437 5.84055 157.449 4.65211 158.735C3.46366 160.021 2.5687 161.55 2.02909 163.216C1.48947 164.882 1.31809 166.645 1.52679 168.383L11.9732 254.558Z" fill="#231F20"/>
<path d="M282.183 137.021C270.283 141.247 231.472 202.798 238.234 213.775C244.995 224.751 273.393 218.429 273.393 218.429L272.864 238.228L346.113 237.023C346.113 237.023 362.599 164.585 351.747 146.216C340.85 128.062 294.072 132.784 282.183 137.021Z" fill="#6F93B3"/>
<path d="M348.277 154.297C339.723 154.646 329.119 155.142 321.31 155.525C318.357 155.669 315.554 156.871 313.414 158.911C311.275 160.951 309.941 163.694 309.657 166.637L303.336 231.783H272.819V257.375L350.452 255.054L360.999 168.09C361.215 166.319 361.043 164.521 360.495 162.823C359.947 161.124 359.036 159.565 357.826 158.253C356.616 156.941 355.135 155.908 353.486 155.225C351.838 154.542 350.06 154.225 348.277 154.297Z" fill="#231F20"/>
<path d="M272.818 257.939C272.675 257.938 272.538 257.882 272.435 257.781C272.38 257.729 272.337 257.666 272.308 257.596C272.279 257.526 272.264 257.451 272.266 257.375V231.783C272.265 231.71 272.278 231.637 272.305 231.569C272.332 231.5 272.373 231.438 272.424 231.386C272.475 231.333 272.537 231.292 272.604 231.263C272.672 231.235 272.745 231.22 272.818 231.22H302.828L309.094 166.592C309.403 163.515 310.802 160.65 313.038 158.513C315.274 156.377 318.199 155.109 321.287 154.94C328.837 154.579 339.644 154.061 348.254 153.711C350.118 153.637 351.977 153.969 353.701 154.684C355.425 155.399 356.973 156.479 358.238 157.851C359.504 159.222 360.456 160.852 361.03 162.628C361.604 164.404 361.786 166.283 361.562 168.136L351.015 255.099C350.998 255.232 350.934 255.354 350.835 255.443C350.736 255.532 350.607 255.582 350.474 255.584L272.841 257.916L272.818 257.939ZM273.382 232.347V256.801L349.955 254.547L360.447 168.068C360.654 166.376 360.491 164.66 359.969 163.038C359.446 161.415 358.577 159.926 357.421 158.674C356.265 157.421 354.85 156.436 353.275 155.785C351.7 155.134 350.002 154.834 348.299 154.906C339.7 155.255 328.893 155.762 321.343 156.134C318.528 156.286 315.86 157.437 313.819 159.381C311.778 161.325 310.498 163.934 310.209 166.738L303.887 231.885C303.873 232.022 303.81 232.15 303.708 232.244C303.606 232.337 303.473 232.39 303.335 232.392L273.382 232.347Z" fill="#231F20"/>
<path d="M273.393 218.992C273.319 218.983 273.247 218.96 273.182 218.924C273.117 218.888 273.06 218.839 273.013 218.78C272.967 218.721 272.933 218.654 272.913 218.582C272.894 218.51 272.888 218.435 272.898 218.361C273.36 214.281 278.239 169.137 278.284 168.687C278.301 168.537 278.376 168.4 278.493 168.306C278.61 168.212 278.76 168.169 278.91 168.185C279.059 168.201 279.196 168.277 279.29 168.394C279.384 168.511 279.428 168.661 279.411 168.81C279.355 169.261 274.487 214.405 274.013 218.496C273.993 218.642 273.918 218.776 273.803 218.868C273.687 218.96 273.541 219.005 273.393 218.992Z" fill="#231F20"/>
<path d="M293.858 108.171C293.631 107.141 293.671 106.069 293.972 105.058C294.274 104.047 294.828 103.129 295.582 102.39C295.981 101.957 296.519 101.677 297.103 101.602C297.449 101.601 297.789 101.688 298.092 101.853C298.395 102.019 298.652 102.258 298.839 102.548C299.204 103.133 299.449 103.784 299.56 104.464C300.007 106.31 300.069 108.228 299.74 110.098C299.405 111.994 298.416 113.713 296.946 114.955" fill="white"/>
<path d="M296.945 115.566C296.86 115.568 296.776 115.55 296.7 115.513C296.623 115.475 296.557 115.42 296.506 115.352C296.413 115.236 296.368 115.089 296.383 114.941C296.398 114.793 296.47 114.657 296.585 114.563C297.958 113.415 298.88 111.818 299.188 110.055C299.51 108.245 299.452 106.388 299.019 104.601C298.916 103.998 298.698 103.42 298.377 102.899C298.245 102.688 298.062 102.512 297.846 102.389C297.63 102.265 297.386 102.196 297.137 102.189C296.698 102.259 296.299 102.483 296.01 102.821C295.322 103.489 294.816 104.322 294.539 105.241C294.263 106.16 294.227 107.135 294.432 108.072C294.451 108.143 294.454 108.217 294.443 108.29C294.432 108.362 294.406 108.432 294.367 108.494C294.328 108.556 294.277 108.61 294.216 108.652C294.156 108.693 294.087 108.722 294.016 108.737C293.871 108.771 293.718 108.746 293.591 108.668C293.465 108.59 293.374 108.465 293.339 108.32C293.091 107.194 293.134 106.023 293.465 104.918C293.797 103.814 294.405 102.812 295.233 102.009C295.724 101.482 296.387 101.147 297.103 101.063C297.543 101.045 297.981 101.14 298.375 101.337C298.769 101.534 299.107 101.827 299.357 102.189C299.772 102.832 300.052 103.553 300.18 104.308C300.65 106.246 300.712 108.261 300.36 110.224C299.998 112.25 298.938 114.084 297.362 115.408C297.308 115.462 297.242 115.504 297.171 115.531C297.099 115.558 297.022 115.57 296.945 115.566Z" fill="#231F20"/>
<path d="M313.782 83.6173C314.846 86.8267 316.8 89.6678 319.416 91.8099C322.326 94.4053 326.066 95.8795 329.964 95.9682C333.007 95.9682 336.444 94.2665 336.94 91.2577C337.278 89.2518 336.207 87.2797 335.001 85.6232C331.365 80.511 326.113 76.7717 320.092 75.0077C318.267 74.5344 315.709 74.0498 314.21 75.5373C312.362 77.4418 313.083 81.386 313.782 83.6173Z" fill="#231F20"/>
<path d="M329.829 96.5308C325.86 96.3995 322.064 94.8801 319.101 92.2373C316.381 90.0372 314.347 87.1044 313.241 83.7854C312.79 82.3543 311.505 77.4973 313.86 75.1533C315.517 73.508 318.154 73.925 320.284 74.4772C326.424 76.2836 331.783 80.0917 335.508 85.2955C336.568 86.7605 337.943 88.9692 337.537 91.3583C336.985 94.739 333.333 96.4857 330.009 96.5308H329.829ZM317.106 75.1195C316.661 75.0914 316.215 75.1517 315.793 75.2967C315.372 75.4418 314.983 75.6688 314.649 75.9647C313.139 77.4748 313.522 80.8217 314.311 83.4586C315.366 86.5558 317.277 89.2908 319.822 91.347C322.621 93.8439 326.214 95.2692 329.964 95.3701C332.747 95.3701 335.948 93.8375 336.399 91.1329C336.647 89.6454 336.072 87.9888 334.562 85.9266C330.99 80.932 325.855 77.2716 319.968 75.5252C319.035 75.2707 318.073 75.1307 317.106 75.1083V75.1195Z" fill="#231F20"/>
<path d="M345.909 86.8658C350.129 79.557 346.886 69.7851 338.667 65.0395C330.447 60.2939 320.363 62.3717 316.143 69.6804C311.924 76.9891 315.166 86.7611 323.386 91.5067C331.605 96.2523 341.69 94.1745 345.909 86.8658Z" fill="white"/>
<path d="M332.68 94.6265C329.312 94.6043 326.009 93.6989 323.101 92.0008C319.094 89.7381 316.056 86.0859 314.559 81.7346C313.858 79.718 313.596 77.5748 313.79 75.4487C313.985 73.3225 314.631 71.2624 315.686 69.4063C320.058 61.8447 330.505 59.6698 338.979 64.5606C347.454 69.4513 350.789 79.5822 346.428 87.0987C345.343 88.9388 343.876 90.5253 342.127 91.7518C340.377 92.9782 338.386 93.8162 336.286 94.2095C335.101 94.4694 333.893 94.6091 332.68 94.6265ZM329.355 63.073C326.812 62.9979 324.294 63.5975 322.057 64.8108C319.821 66.0242 317.945 67.808 316.621 69.981C315.649 71.7021 315.057 73.6118 314.886 75.5811C314.715 77.5505 314.969 79.5336 315.63 81.3966C317.075 85.4637 319.921 88.883 323.659 91.0411C327.397 93.1992 331.782 93.955 336.027 93.1727C337.97 92.8108 339.812 92.0372 341.432 90.9041C343.051 89.7709 344.409 88.3043 345.414 86.6029C349.482 79.571 346.327 70.1162 338.382 65.541C335.644 63.9343 332.53 63.0791 329.355 63.0618V63.073Z" fill="#231F20"/>
<path d="M246.911 249.767H197.473C197.324 249.767 197.18 249.708 197.075 249.602C196.969 249.497 196.91 249.353 196.91 249.204V220.569C196.91 220.42 196.969 220.277 197.075 220.171C197.18 220.065 197.324 220.006 197.473 220.006H246.911C247.06 220.006 247.203 220.065 247.309 220.171C247.415 220.277 247.474 220.42 247.474 220.569V249.204C247.474 249.353 247.415 249.497 247.309 249.602C247.203 249.708 247.06 249.767 246.911 249.767ZM198.037 248.641H246.347V221.133H198.037V248.641Z" fill="#D1D3D4"/>
<path d="M246.911 254.839H197.473C197.324 254.839 197.18 254.779 197.075 254.674C196.969 254.568 196.91 254.425 196.91 254.275V249.204C196.91 249.055 196.969 248.911 197.075 248.806C197.18 248.7 197.324 248.641 197.473 248.641H246.911C247.06 248.641 247.203 248.7 247.309 248.806C247.415 248.911 247.474 249.055 247.474 249.204V254.275C247.474 254.425 247.415 254.568 247.309 254.674C247.203 254.779 247.06 254.839 246.911 254.839ZM198.037 253.712H246.347V249.768H198.037V253.712Z" fill="#D1D3D4"/>
<path d="M211.796 243.965H203.525C203.375 243.965 203.232 243.905 203.126 243.8C203.021 243.694 202.961 243.551 202.961 243.401V225.438C202.961 225.289 203.021 225.146 203.126 225.04C203.232 224.934 203.375 224.875 203.525 224.875H211.808C211.957 224.875 212.1 224.934 212.206 225.04C212.312 225.146 212.371 225.289 212.371 225.438V243.413C212.37 243.487 212.354 243.56 212.324 243.627C212.294 243.695 212.252 243.757 212.198 243.808C212.145 243.859 212.082 243.899 212.013 243.926C211.944 243.953 211.87 243.966 211.796 243.965ZM204.077 242.838H211.233V226.002H204.077V242.838Z" fill="#D1D3D4"/>
<path d="M218.355 206.428H200.144C199.995 206.425 199.854 206.365 199.749 206.26C199.644 206.155 199.583 206.013 199.581 205.865V193.593C199.581 193.443 199.64 193.3 199.746 193.194C199.851 193.089 199.995 193.029 200.144 193.029H218.344C218.493 193.029 218.636 193.089 218.742 193.194C218.848 193.3 218.907 193.443 218.907 193.593V205.865C218.904 206.011 218.846 206.151 218.743 206.256C218.64 206.361 218.501 206.423 218.355 206.428ZM200.719 205.301H217.791V194.156H200.719V205.301Z" fill="#ED2D24"/>
<path d="M170.8 234.326H164.204C164.15 234.323 164.099 234.265 164.061 234.163C164.023 234.061 164.001 233.924 164 233.779V221.873C164 221.728 164.022 221.589 164.06 221.486C164.098 221.384 164.15 221.326 164.204 221.326H170.796C170.85 221.326 170.902 221.384 170.94 221.486C170.979 221.589 171 221.728 171 221.873V233.779C170.999 233.922 170.978 234.058 170.941 234.159C170.903 234.261 170.853 234.321 170.8 234.326Z" fill="#ED2D24"/>
</svg>
