<svg width="400" height="449" viewBox="0 0 400 449" fill="none" xmlns="http://www.w3.org/2000/svg">
<g opacity="0.5">
<circle cx="200" cy="200" r="199.5" stroke="#1B73B0" stroke-dasharray="3 3"/>
<circle cx="200" cy="200" r="149.5" stroke="#2784C2" stroke-dasharray="3 3"/>
<circle cx="200" cy="200" r="99.5" stroke="#4DA0D4" stroke-dasharray="3 3"/>
<g clip-path="url(#clip0_478_16325)">
<path d="M133 252.5H113C111.625 252.5 110.5 253.625 110.5 255V275C110.5 276.375 111.625 277.5 113 277.5H133C134.375 277.5 135.5 276.375 135.5 275V255C135.5 253.625 134.375 252.5 133 252.5ZM131.75 275H114.25C113.562 275 113 274.438 113 273.75V256.25C113 255.562 113.562 255 114.25 255H131.75C132.438 255 133 255.562 133 256.25V273.75C133 274.438 132.438 275 131.75 275ZM128 257.5H124.25C122.875 257.5 121.75 258.625 121.75 260V262.85C121 263.287 120.5 264.075 120.5 265C120.5 266.375 121.625 267.5 123 267.5C124.375 267.5 125.5 266.375 125.5 265C125.5 264.075 125 263.275 124.25 262.85V260H128V268.75C128 269.438 127.438 270 126.75 270H119.25C118.562 270 118 269.438 118 268.75V260H119.25C119.938 260 120.5 259.438 120.5 258.75C120.5 258.062 119.938 257.5 119.25 257.5H118C116.625 257.5 115.5 258.625 115.5 260V270C115.5 271.375 116.625 272.5 118 272.5H128C129.375 272.5 130.5 271.375 130.5 270V260C130.5 258.625 129.375 257.5 128 257.5Z" fill="#4DA0D4"/>
</g>
<path d="M259.75 116.75C259.75 116.062 260.312 115.5 261 115.5H281C281.688 115.5 282.25 114.938 282.25 114.25C282.25 113.562 281.688 113 281 113H259.75C258.375 113 257.25 114.125 257.25 115.5V130.5C257.25 131.875 258.375 133 259.75 133H263.5C264.188 133 264.75 132.438 264.75 131.75C264.75 131.062 264.188 130.5 263.5 130.5H261C260.312 130.5 259.75 129.938 259.75 129.25V116.75ZM271 123H268.5C267.812 123 267.25 123.562 267.25 124.25V125.225C266.488 125.912 266 126.887 266 128C266 129.112 266.488 130.087 267.25 130.775V131.75C267.25 132.438 267.812 133 268.5 133H271C271.688 133 272.25 132.438 272.25 131.75V130.775C273.012 130.087 273.5 129.1 273.5 128C273.5 126.9 273.012 125.912 272.25 125.225V124.25C272.25 123.562 271.688 123 271 123ZM269.75 129.875C268.712 129.875 267.875 129.038 267.875 128C267.875 126.962 268.712 126.125 269.75 126.125C270.788 126.125 271.625 126.962 271.625 128C271.625 129.038 270.788 129.875 269.75 129.875ZM283.5 118H276C275.375 118 274.75 118.625 274.75 119.25V131.75C274.75 132.375 275.375 133 276 133H283.5C284.125 133 284.75 132.375 284.75 131.75V119.25C284.75 118.625 284.125 118 283.5 118ZM282.25 130.5H277.25V120.5H282.25V130.5Z" fill="#4DA0D4"/>
<g clip-path="url(#clip1_478_16325)">
<path d="M95.5012 203.75V197.5H100.501V203.75C100.501 204.437 101.064 205 101.751 205H105.501C106.189 205 106.751 204.437 106.751 203.75V195H108.876C109.451 195 109.726 194.287 109.289 193.912L98.8387 184.5C98.3637 184.075 97.6387 184.075 97.1637 184.5L86.7137 193.912C86.2887 194.287 86.5512 195 87.1262 195H89.2512V203.75C89.2512 204.437 89.8137 205 90.5012 205H94.2512C94.9387 205 95.5012 204.437 95.5012 203.75Z" fill="#4DA0D4"/>
</g>
<path d="M309 197C309 193.825 307.512 190.988 305.2 189.162L304.35 184.087C304.15 182.887 303.1 182 301.888 182H296.125C294.9 182 293.85 182.887 293.65 184.087L292.813 189.162C290.488 190.988 289 193.812 289 197C289 200.188 290.488 203.013 292.813 204.838L293.65 209.913C293.85 211.112 294.9 212 296.125 212H301.888C303.113 212 304.15 211.112 304.35 209.913L305.2 204.838C307.512 203.013 309 200.175 309 197ZM291.5 197C291.5 192.863 294.863 189.5 299 189.5C303.137 189.5 306.5 192.863 306.5 197C306.5 201.138 303.137 204.5 299 204.5C294.863 204.5 291.5 201.138 291.5 197Z" fill="#4DA0D4"/>
<path d="M201 97.9999C201 94.2499 204.125 91.1249 207.875 91.1249C211.087 91.1249 213.837 93.4124 214.562 96.4249C214.75 97.2249 214.162 97.9999 213.35 97.9999H201ZM201 97.9999C201 101.75 197.875 104.875 194.125 104.875C190.912 104.875 188.162 102.587 187.437 99.5749C187.25 98.7749 187.837 97.9999 188.65 97.9999H201ZM201 97.9999C197.25 97.9999 194.125 94.8749 194.125 91.1249C194.125 87.9124 196.412 85.1624 199.425 84.4374C200.225 84.2499 201 84.8374 201 85.6499V97.9999ZM201 97.9999C204.75 97.9999 207.875 101.125 207.875 104.875C207.875 108.087 205.587 110.837 202.575 111.562C201.775 111.75 201 111.162 201 110.35V97.9999Z" fill="#4DA0D4"/>
<path d="M126.312 112.938C126.55 113.175 126.938 113.2 127.212 112.988C128.625 111.863 130.312 111.25 132 111.25C133.688 111.25 135.375 111.863 136.8 112.988C137.062 113.2 137.45 113.175 137.7 112.938L137.75 112.875C138.025 112.6 138.012 112.137 137.712 111.875C136.05 110.462 134.025 109.75 132 109.75C129.975 109.75 127.95 110.462 126.288 111.875C125.988 112.137 125.962 112.588 126.25 112.875L126.312 112.938ZM128.438 113.887C128.125 114.137 128.112 114.613 128.387 114.888L128.438 114.938C128.688 115.188 129.062 115.188 129.337 114.988C130.125 114.388 131.062 114.125 132 114.125C132.938 114.125 133.875 114.387 134.662 114.975C134.937 115.188 135.325 115.175 135.562 114.925L135.612 114.875C135.9 114.588 135.875 114.125 135.562 113.875C134.525 113.075 133.263 112.625 132 112.625C130.738 112.625 129.475 113.075 128.438 113.887ZM135.75 122.25H133.25V118.5C133.25 117.812 132.688 117.25 132 117.25C131.312 117.25 130.75 117.812 130.75 118.5V122.25H118.25C116.875 122.25 115.75 123.375 115.75 124.75V129.75C115.75 131.125 116.875 132.25 118.25 132.25H135.75C137.125 132.25 138.25 131.125 138.25 129.75V124.75C138.25 123.375 137.125 122.25 135.75 122.25ZM122 128.5H119.5V126H122V128.5ZM126.375 128.5H123.875V126H126.375V128.5ZM130.75 128.5H128.25V126H130.75V128.5Z" fill="#4DA0D4"/>
<path d="M276.5 264.25H271.5C270.812 264.25 270.25 264.812 270.25 265.5V270.5C270.25 271.188 270.812 271.75 271.5 271.75H276.5C277.188 271.75 277.75 271.188 277.75 270.5V265.5C277.75 264.812 277.188 264.25 276.5 264.25ZM275.25 269.25H272.75V266.75H275.25V269.25ZM285.25 265.5C285.25 264.812 284.688 264.25 284 264.25H282.75V261.75C282.75 260.375 281.625 259.25 280.25 259.25H277.75V258C277.75 257.312 277.188 256.75 276.5 256.75C275.812 256.75 275.25 257.312 275.25 258V259.25H272.75V258C272.75 257.312 272.188 256.75 271.5 256.75C270.812 256.75 270.25 257.312 270.25 258V259.25H267.75C266.375 259.25 265.25 260.375 265.25 261.75V264.25H264C263.312 264.25 262.75 264.812 262.75 265.5C262.75 266.188 263.312 266.75 264 266.75H265.25V269.25H264C263.312 269.25 262.75 269.812 262.75 270.5C262.75 271.188 263.312 271.75 264 271.75H265.25V274.25C265.25 275.625 266.375 276.75 267.75 276.75H270.25V278C270.25 278.688 270.812 279.25 271.5 279.25C272.188 279.25 272.75 278.688 272.75 278V276.75H275.25V278C275.25 278.688 275.812 279.25 276.5 279.25C277.188 279.25 277.75 278.688 277.75 278V276.75H280.25C281.625 276.75 282.75 275.625 282.75 274.25V271.75H284C284.688 271.75 285.25 271.188 285.25 270.5C285.25 269.812 284.688 269.25 284 269.25H282.75V266.75H284C284.688 266.75 285.25 266.188 285.25 265.5ZM279 274.25H269C268.312 274.25 267.75 273.688 267.75 273V263C267.75 262.312 268.312 261.75 269 261.75H279C279.688 261.75 280.25 262.312 280.25 263V273C280.25 273.688 279.688 274.25 279 274.25Z" fill="#4DA0D4"/>
<g clip-path="url(#clip2_478_16325)">
<path d="M213.85 299.125L203.875 293.25V286.375C203.875 285.338 203.038 284.5 202 284.5C200.962 284.5 200.125 285.338 200.125 286.375V293.25L190.15 299.125C189.75 299.35 189.5 299.788 189.5 300.25C189.5 301.125 190.337 301.75 191.175 301.512L200.125 298.888V305.75L197.3 307.438C197.112 307.55 197 307.763 197 307.975V308.6V308.7C197 309.113 197.387 309.413 197.775 309.312L201.425 308.4L202 308.25L202.475 308.362L203 308.5L205.375 309.1L206.212 309.312C206.612 309.413 206.987 309.113 206.987 308.7V308.237V307.975C206.987 307.75 206.875 307.55 206.688 307.438L203.875 305.75V298.875L212.825 301.5C213.663 301.75 214.5 301.125 214.5 300.25C214.5 299.788 214.25 299.35 213.85 299.125Z" fill="#4DA0D4"/>
</g>
</g>
<g clip-path="url(#clip3_478_16325)">
<path d="M207.85 192.711H192.71C191.322 192.711 190.186 193.846 190.186 195.234V225.516C190.186 226.904 191.322 228.039 192.71 228.039H207.85C209.238 228.039 210.374 226.904 210.374 225.516V195.234C210.374 193.846 209.238 192.711 207.85 192.711ZM200.28 207.852C197.504 207.852 195.233 205.58 195.233 202.805C195.233 200.029 197.504 197.758 200.28 197.758C203.056 197.758 205.327 200.029 205.327 202.805C205.327 205.58 203.056 207.852 200.28 207.852ZM189.732 187.21C190.615 188.093 192.003 188.169 193.013 187.462C195.057 185.999 197.58 185.141 200.28 185.141C202.98 185.141 205.504 185.999 207.548 187.437C208.557 188.144 209.945 188.093 210.828 187.21C211.913 186.125 211.812 184.333 210.601 183.425C207.699 181.33 204.141 180.094 200.28 180.094C196.419 180.094 192.861 181.33 189.959 183.425C188.723 184.308 188.647 186.125 189.732 187.21ZM200.28 170C193.618 170 187.512 172.347 182.742 176.233C181.581 177.192 181.481 178.933 182.54 179.993C183.449 180.901 184.887 180.977 185.871 180.169C189.783 176.99 194.804 175.047 200.28 175.047C205.756 175.047 210.778 176.99 214.664 180.195C215.648 181.002 217.086 180.926 217.995 180.018C219.054 178.958 218.954 177.217 217.793 176.258C213.049 172.347 206.942 170 200.28 170Z" fill="white"/>
</g>
<g clip-path="url(#clip4_478_16325)">
<path d="M95.3047 410.982V431.03L104.881 433.768L104.66 429.667L108.994 434.001C108.994 434.001 134.725 438.621 134.596 435.195C134.466 431.77 131.858 429.888 128.601 428.175C125.123 426.346 115.949 421.168 115.949 421.168L114.574 406.454" fill="white"/>
<path d="M129.885 437.141C123.072 437.141 111.783 435.195 108.942 434.676C108.804 434.656 108.677 434.592 108.578 434.494L105.49 431.406L105.62 433.755C105.628 433.861 105.609 433.967 105.566 434.064C105.523 434.162 105.457 434.247 105.373 434.312C105.289 434.381 105.19 434.428 105.084 434.45C104.978 434.473 104.868 434.47 104.763 434.442L95.1871 431.704C95.0489 431.661 94.9281 431.574 94.8419 431.458C94.7557 431.341 94.7085 431.2 94.707 431.056V410.982C94.7473 410.841 94.8324 410.717 94.9495 410.629C95.0665 410.54 95.2092 410.492 95.3558 410.492C95.5025 410.492 95.6451 410.54 95.7622 410.629C95.8792 410.717 95.9643 410.841 96.0046 410.982V430.549L104.192 432.885L103.933 429.732C103.929 429.598 103.965 429.466 104.037 429.353C104.108 429.239 104.211 429.15 104.334 429.096C104.456 429.041 104.592 429.025 104.724 429.048C104.856 429.071 104.978 429.133 105.075 429.226L109.266 433.417C120.542 435.428 133.064 436.635 133.92 435.234C133.79 432.301 131.571 430.549 128.276 428.811C124.98 427.072 115.702 421.843 115.611 421.791C115.518 421.737 115.438 421.663 115.379 421.572C115.321 421.482 115.284 421.379 115.274 421.272L113.898 406.557C113.922 406.41 113.994 406.275 114.102 406.174C114.21 406.072 114.349 406.008 114.497 405.994C114.645 405.979 114.794 406.013 114.92 406.092C115.047 406.17 115.144 406.288 115.196 406.427L116.493 420.792C118.115 421.713 125.745 425.982 128.821 427.63C131.896 429.278 135.023 431.393 135.166 435.208C135.176 435.412 135.139 435.617 135.055 435.804C134.972 435.991 134.845 436.156 134.686 436.285C134.05 436.895 132.207 437.141 129.885 437.141Z" fill="#231F20"/>
<path d="M67.0293 421.947L66.8477 438.815L77.7993 441.722L77.968 436.934L81.731 442.916C81.731 442.916 108.76 448.897 110.135 445.251C111.511 441.605 109.11 436.246 102.427 432.989C98.0829 430.929 93.63 429.105 89.0883 427.526L87.5571 420.169" fill="white"/>
<path d="M105.231 447.068C98.094 447.068 86.1562 444.589 81.5887 443.577C81.4197 443.529 81.2728 443.424 81.1735 443.279L78.5783 439.127L78.4875 441.722C78.4796 441.82 78.4513 441.916 78.4044 442.003C78.3575 442.09 78.293 442.167 78.215 442.228C78.1355 442.29 78.0425 442.334 77.9433 442.354C77.8442 442.374 77.7417 442.371 77.644 442.345L66.6924 439.438C66.5486 439.398 66.4221 439.311 66.3329 439.191C66.2437 439.071 66.1967 438.926 66.1993 438.776L66.368 421.908C66.368 421.82 66.3855 421.732 66.4196 421.651C66.4537 421.57 66.5036 421.497 66.5664 421.435C66.6292 421.373 66.7037 421.325 66.7855 421.292C66.8673 421.26 66.9548 421.244 67.0428 421.246C67.1308 421.246 67.2179 421.263 67.299 421.297C67.3802 421.331 67.4537 421.381 67.5153 421.444C67.577 421.507 67.6254 421.582 67.6579 421.663C67.6904 421.745 67.7063 421.833 67.7045 421.921L67.5358 438.218L77.1769 440.813L77.3196 436.921C77.2965 436.757 77.3344 436.59 77.4263 436.452C77.5182 436.314 77.6576 436.215 77.818 436.173C77.9783 436.132 78.1483 436.15 78.2957 436.226C78.4431 436.302 78.5576 436.429 78.6172 436.583L82.2375 442.332C98.4313 445.9 109.033 446.523 109.578 445.031C110.875 441.735 108.682 436.752 102.22 433.612C97.8975 431.566 93.4711 429.747 88.959 428.162C88.8458 428.131 88.7439 428.068 88.6657 427.98C88.5874 427.893 88.5361 427.785 88.5178 427.669L86.9737 420.312C86.9706 420.154 87.0224 420.001 87.1203 419.878C87.2181 419.755 87.3558 419.67 87.5096 419.638C87.6634 419.606 87.8236 419.628 87.9627 419.701C88.1017 419.775 88.2109 419.894 88.2712 420.039L89.6597 427.007C94.0983 428.583 98.455 430.38 102.713 432.392C109.902 435.896 112.199 441.631 110.745 445.485C110.33 446.601 108.189 447.068 105.231 447.068Z" fill="#231F20"/>
<path d="M60.543 288.049L64.7472 424.321L95.0847 424.438L94.7343 417.431L117.831 418.288L120.997 279.68L60.543 288.049Z" fill="#231F20"/>
<path d="M95.0838 425.087L64.7592 424.97C64.5904 424.967 64.4291 424.899 64.3085 424.781C64.1879 424.663 64.117 424.503 64.1104 424.334L59.9062 288.088C59.9069 287.93 59.9631 287.777 60.0651 287.656C60.1671 287.535 60.3084 287.454 60.4642 287.426L120.919 279.057C121.012 279.048 121.106 279.058 121.196 279.087C121.285 279.116 121.367 279.163 121.438 279.225C121.508 279.286 121.565 279.362 121.603 279.447C121.641 279.533 121.66 279.625 121.658 279.718L118.492 418.327C118.484 418.499 118.409 418.661 118.285 418.781C118.224 418.842 118.151 418.889 118.07 418.918C117.989 418.948 117.903 418.958 117.817 418.949L95.4212 418.054L95.7196 424.36C95.7253 424.448 95.7133 424.535 95.6843 424.618C95.6553 424.7 95.6099 424.776 95.5509 424.84C95.4941 424.911 95.4234 424.97 95.343 425.012C95.2626 425.055 95.1744 425.08 95.0838 425.087ZM65.3691 423.673L94.3961 423.789L94.0976 417.457C94.0912 417.369 94.1041 417.28 94.1355 417.197C94.1668 417.114 94.2159 417.039 94.2793 416.977C94.3395 416.911 94.414 416.859 94.4971 416.825C94.5802 416.791 94.6699 416.777 94.7594 416.782L117.195 417.613L120.335 280.419L61.2038 288.607L65.3691 423.673Z" fill="#231F20"/>
<path d="M83.0668 203.823C83.0668 203.823 58.75 209.26 54.8832 219.251C51.0164 229.243 61.5658 283.637 61.5658 283.637L120.23 277.733C120.23 277.733 121.839 220.821 117.92 209.493C110.251 201.838 98.7416 201.111 83.0668 203.823Z" fill="#4DA0D4"/>
<path d="M103.117 157.019C106.105 158.235 108.7 160.251 110.617 162.845C112.513 165.493 113.521 168.672 113.498 171.928C113.433 176.067 111.902 177.858 109.099 180.531C106.75 182.776 102.961 183.36 99.9121 183.957C97.2132 184.476 94.3585 185.41 91.6595 185.696C88.9605 185.981 85.7166 186.448 83.2122 185.566C80.0721 184.463 77.5807 180.479 75.7771 177.78C73.5193 174.445 74.1032 169.839 75.6084 166.245C76.0119 165.113 76.7217 164.116 77.6586 163.364C78.1353 162.994 78.7129 162.778 79.3152 162.743C79.9175 162.709 80.5162 162.857 81.0323 163.169C83.7961 157.785 90.2711 155.073 96.3178 155.384C98.6622 155.529 100.963 156.082 103.117 157.019Z" fill="white"/>
<path d="M86.817 186.811C85.4977 186.854 84.181 186.669 82.9242 186.266C79.81 185.176 77.3705 181.556 75.5928 178.909L75.1646 178.26C73.0885 175.224 73.0107 170.669 74.9311 166.102C75.3768 164.848 76.1686 163.745 77.2148 162.923C77.7071 162.557 78.2808 162.317 78.8865 162.222C79.4922 162.127 80.1119 162.18 80.6923 162.378C83.5341 157.499 89.6846 154.488 96.2634 154.8C98.6819 154.924 101.061 155.464 103.296 156.396C106.401 157.659 109.095 159.756 111.082 162.456C113.075 165.233 114.125 168.575 114.079 171.993C114.079 176.431 112.302 178.39 109.486 181.076C107.176 183.282 103.712 183.944 100.662 184.528L99.9615 184.657C98.9494 184.865 97.9243 185.111 96.8862 185.371C95.1787 185.825 93.4455 186.176 91.6959 186.422H91.086C89.6709 186.628 88.2459 186.758 86.817 186.811ZM79.5894 163.455C79.0351 163.462 78.4962 163.638 78.0453 163.961C77.2076 164.638 76.5779 165.537 76.2287 166.556C74.4769 170.721 74.5159 174.796 76.3325 177.456L76.7607 178.105C78.4475 180.596 80.7443 184.009 83.4303 184.956C85.5972 185.708 88.6206 185.384 90.9562 185.111L91.5791 185.047C93.2851 184.813 94.9751 184.475 96.6397 184.034C97.7037 183.775 98.7547 183.515 99.7798 183.308L100.481 183.178C103.361 182.62 106.605 181.997 108.642 180.064C111.51 177.326 112.769 175.73 112.821 171.928C112.865 168.793 111.9 165.727 110.07 163.182C108.226 160.686 105.73 158.746 102.855 157.577C100.764 156.705 98.5387 156.201 96.2764 156.084C91.086 155.825 84.4424 158.031 81.6136 163.52C81.5725 163.606 81.5128 163.682 81.4388 163.743C81.3647 163.803 81.2782 163.847 81.1854 163.87C80.9972 163.909 80.8012 163.872 80.6405 163.766C80.3253 163.573 79.9581 163.483 79.5894 163.507V163.455Z" fill="#231F20"/>
<path d="M104.076 197.776L105.179 209.753C105.179 209.753 100.041 215.786 92.255 214.086C84.4695 212.387 83.1719 207.067 83.1719 207.067L82.8086 185.254C82.8086 185.254 88.479 182.075 86.5456 169.683C86.5456 169.683 98.5613 173.109 110.019 171.422C110.019 171.422 110.473 185.501 109.669 191.508C108.864 197.516 104.076 197.776 104.076 197.776Z" fill="white"/>
<path d="M95.0961 215.06C94.1055 215.056 93.1182 214.947 92.1506 214.735C84.0536 212.958 82.6782 207.456 82.6133 207.222C82.6069 207.175 82.6069 207.127 82.6133 207.08L82.25 185.254C82.2504 185.133 82.2831 185.013 82.3446 184.909C82.4062 184.804 82.4944 184.717 82.6003 184.657C82.6003 184.657 87.7907 181.491 86 169.761C85.9798 169.65 85.9883 169.536 86.0246 169.429C86.0609 169.323 86.1239 169.227 86.2076 169.151C86.2947 169.079 86.3977 169.028 86.5083 169.003C86.6189 168.978 86.7338 168.98 86.8435 169.009C86.9602 169.009 98.8591 172.382 110.044 170.734C110.233 170.71 110.425 170.762 110.576 170.877C110.648 170.938 110.706 171.013 110.746 171.098C110.787 171.184 110.808 171.276 110.81 171.37C110.81 171.954 111.251 185.644 110.447 191.574C109.759 196.647 106.307 197.984 104.815 198.334L105.866 209.688C105.875 209.776 105.865 209.866 105.838 209.95C105.812 210.035 105.768 210.113 105.71 210.181C104.363 211.67 102.728 212.87 100.903 213.708C99.0789 214.547 97.1033 215.007 95.0961 215.06ZM83.9369 206.976C84.1055 207.573 85.5588 211.92 92.436 213.464C98.924 214.904 103.53 210.557 104.491 209.571L103.414 197.893C103.403 197.802 103.412 197.711 103.439 197.624C103.465 197.536 103.51 197.456 103.569 197.387C103.627 197.319 103.699 197.265 103.779 197.227C103.86 197.189 103.947 197.168 104.036 197.166C104.205 197.166 108.383 196.803 109.11 191.444C109.798 186.344 109.551 175.185 109.486 172.214C102.095 172.942 94.6343 172.398 87.4274 170.605C88.7249 180.985 84.8322 184.735 83.5346 185.657L83.9369 206.976Z" fill="#231F20"/>
<path d="M87.4396 184.774C87.142 183.74 86.5185 182.83 85.6619 182.179C84.8331 181.588 83.9061 181.149 82.924 180.881C82.4055 180.673 81.8466 180.584 81.2891 180.622C80.9021 180.688 80.5319 180.829 80.1991 181.037C79.3745 181.465 78.7301 182.174 78.3825 183.035C78.2006 183.759 78.2006 184.517 78.3825 185.241C78.4923 186.05 78.7105 186.84 79.0313 187.59C79.3654 188.328 79.843 188.993 80.4362 189.546C81.0294 190.099 81.7264 190.528 82.4869 190.81C83.2473 191.091 84.0561 191.218 84.8662 191.185C85.6763 191.151 86.4716 190.957 87.206 190.613" fill="white"/>
<path d="M84.5461 191.781C83.7409 191.779 82.9421 191.639 82.1845 191.366C80.485 190.726 79.1086 189.438 78.3567 187.785C78.0153 186.979 77.7798 186.133 77.656 185.267C77.4791 184.434 77.5103 183.569 77.7468 182.75C78.1401 181.731 78.8924 180.891 79.8618 180.388C80.2594 180.141 80.6994 179.969 81.1594 179.882C81.8172 179.83 82.4783 179.928 83.0928 180.168C84.1501 180.463 85.1472 180.941 86.0384 181.582C87.0178 182.346 87.7235 183.407 88.0496 184.606C88.0932 184.778 88.0672 184.96 87.9773 185.113C87.8875 185.266 87.7409 185.377 87.5695 185.423C87.4843 185.446 87.3953 185.452 87.3077 185.441C87.2201 185.429 87.1357 185.4 87.0595 185.355C86.9833 185.311 86.9168 185.251 86.864 185.18C86.8112 185.109 86.7731 185.029 86.752 184.943C86.5004 184.03 85.964 183.221 85.2209 182.633C84.4301 182.09 83.5524 181.687 82.6257 181.44C82.2144 181.271 81.7723 181.192 81.3281 181.206C81.0299 181.27 80.7446 181.384 80.4847 181.543C79.817 181.906 79.2946 182.488 79.0054 183.191C78.8557 183.809 78.8557 184.455 79.0054 185.073C79.1088 185.822 79.3095 186.555 79.6023 187.253C79.8987 187.911 80.3234 188.505 80.8515 188.997C81.3797 189.49 82.0008 189.873 82.6785 190.123C83.3563 190.373 84.077 190.486 84.7987 190.454C85.5204 190.422 86.2285 190.247 86.8818 189.939C87.044 189.867 87.2278 189.86 87.3947 189.921C87.5615 189.981 87.6986 190.104 87.7771 190.263C87.8525 190.425 87.8606 190.61 87.7998 190.778C87.739 190.946 87.6142 191.082 87.4527 191.158C86.5422 191.58 85.5492 191.792 84.5461 191.781Z" fill="#231F20"/>
<path d="M104.35 203.732C102.929 203.93 101.483 203.82 100.108 203.41C98.7337 203 97.4631 202.3 96.3825 201.357C92.905 198.139 93.1645 196.167 93.1645 196.167C93.1645 196.167 98.7182 199.061 103.766 197.945L104.35 203.732Z" fill="#231F20"/>
<path d="M103.049 204.471C100.424 204.507 97.8837 203.548 95.9383 201.785C92.318 198.451 92.4867 196.336 92.5126 196.102C92.5275 196 92.5672 195.902 92.6283 195.819C92.6893 195.735 92.7699 195.667 92.863 195.622C92.9542 195.571 93.0569 195.544 93.1614 195.544C93.266 195.544 93.3687 195.571 93.4599 195.622C93.4599 195.622 98.8838 198.399 103.62 197.335C103.71 197.315 103.803 197.315 103.893 197.335C103.982 197.355 104.066 197.395 104.139 197.452C104.214 197.504 104.277 197.571 104.324 197.65C104.371 197.728 104.401 197.815 104.411 197.906L104.995 203.667C105.011 203.829 104.965 203.991 104.866 204.121C104.768 204.251 104.624 204.339 104.463 204.368C103.996 204.442 103.523 204.477 103.049 204.471ZM94.0697 197.309C94.7262 198.667 95.6639 199.87 96.8206 200.838C98.6977 202.487 101.153 203.322 103.646 203.161L103.192 198.762C100.076 199.081 96.9319 198.58 94.0697 197.309Z" fill="#231F20"/>
<path d="M94.4749 179.926C95.0216 179.851 95.379 179.163 95.2731 178.389C95.1672 177.615 94.6382 177.049 94.0915 177.123C93.5448 177.198 93.1874 177.886 93.2933 178.66C93.3991 179.434 93.9282 180.001 94.4749 179.926Z" fill="#231F20"/>
<path d="M107.42 180.207C107.967 180.132 108.324 179.444 108.218 178.67C108.113 177.896 107.583 177.329 107.037 177.404C106.49 177.479 106.133 178.167 106.239 178.941C106.344 179.715 106.873 180.282 107.42 180.207Z" fill="#231F20"/>
<path d="M100.168 190.976C97.464 190.871 94.8677 189.887 92.7722 188.174C92.6933 188.128 92.625 188.066 92.5717 187.992C92.5184 187.918 92.4813 187.834 92.4628 187.744C92.4442 187.655 92.4447 187.563 92.4642 187.474C92.4837 187.385 92.5218 187.301 92.5759 187.228C92.63 187.154 92.6989 187.093 92.7783 187.048C92.8576 187.003 92.9455 186.975 93.0363 186.967C93.127 186.958 93.2186 186.969 93.305 186.998C93.3914 187.027 93.4707 187.074 93.5378 187.136C101.168 192.741 105.527 187.473 105.709 187.252C105.816 187.119 105.972 187.033 106.142 187.013C106.312 186.994 106.483 187.043 106.617 187.149C106.751 187.256 106.837 187.411 106.856 187.581C106.876 187.752 106.827 187.922 106.721 188.057C105.891 188.971 104.879 189.702 103.751 190.205C102.623 190.708 101.403 190.97 100.168 190.976Z" fill="#231F20"/>
<path d="M101.154 178.286C101.154 178.286 105.54 184.099 104.645 185.202C103.75 186.305 101.012 185.76 101.012 185.76" fill="white"/>
<path d="M102.442 186.552C101.919 186.555 101.397 186.503 100.885 186.396C100.801 186.382 100.721 186.351 100.649 186.305C100.578 186.259 100.517 186.199 100.469 186.129C100.422 186.058 100.389 185.979 100.374 185.895C100.358 185.812 100.36 185.726 100.379 185.643C100.41 185.475 100.507 185.326 100.648 185.229C100.789 185.131 100.963 185.094 101.131 185.124C101.897 185.28 103.649 185.397 104.142 184.8C104.285 184.242 102.663 181.348 100.638 178.675C100.535 178.538 100.491 178.365 100.515 178.194C100.539 178.024 100.63 177.87 100.768 177.767C100.906 177.664 101.079 177.619 101.249 177.644C101.419 177.668 101.573 177.759 101.676 177.897C103.817 180.738 106.153 184.385 105.141 185.617C104.783 185.956 104.358 186.214 103.892 186.376C103.427 186.537 102.932 186.597 102.442 186.552Z" fill="#231F20"/>
<path d="M95.4218 417.224C95.2508 417.22 95.0877 417.151 94.9667 417.03C94.8458 416.909 94.7763 416.746 94.773 416.575L94.6562 311.795C94.6562 311.623 94.7246 311.458 94.8463 311.336C94.9679 311.214 95.133 311.146 95.305 311.146C95.4771 311.146 95.6421 311.214 95.7638 311.336C95.8855 311.458 95.9538 311.623 95.9538 311.795L96.0706 416.575C96.0673 416.746 95.9979 416.909 95.8769 417.03C95.756 417.151 95.5929 417.22 95.4218 417.224Z" fill="white"/>
<path d="M122.051 276.255L58.3438 278.224L58.6467 288.029L122.354 286.06L122.051 276.255Z" fill="white"/>
<path d="M58.6339 288.698C58.4611 288.697 58.2947 288.632 58.1667 288.516C58.0389 288.394 57.9644 288.226 57.9591 288.049L57.6607 278.252C57.6572 278.164 57.6713 278.077 57.7022 277.994C57.7331 277.912 57.7801 277.836 57.8406 277.772C57.901 277.708 57.9736 277.657 58.0541 277.621C58.1346 277.585 58.2214 277.566 58.3095 277.565L122.021 275.592C122.197 275.597 122.366 275.661 122.501 275.774C122.629 275.896 122.703 276.064 122.709 276.241L123.007 286.051C123.011 286.139 122.996 286.227 122.966 286.309C122.935 286.391 122.888 286.467 122.827 286.531C122.767 286.595 122.694 286.646 122.614 286.682C122.533 286.718 122.446 286.737 122.358 286.739L58.6468 288.698H58.6339ZM59.0231 278.875L59.2827 287.348L121.658 285.415L121.398 276.955L59.0231 278.875Z" fill="#231F20"/>
<path d="M102.722 276.9L87.8711 277.349L88.1672 287.154L103.018 286.705L102.722 276.9Z" fill="white"/>
<path d="M88.1795 287.802C88.0102 287.803 87.8472 287.738 87.7253 287.621C87.5939 287.5 87.5148 287.332 87.5047 287.154L87.2193 277.357C87.2158 277.269 87.2299 277.181 87.2608 277.099C87.2917 277.016 87.3387 276.941 87.3992 276.877C87.4596 276.813 87.5322 276.761 87.6127 276.726C87.6932 276.69 87.78 276.671 87.8681 276.669L102.712 276.215C102.889 276.211 103.06 276.277 103.189 276.399C103.318 276.52 103.393 276.687 103.4 276.864L103.699 286.674C103.697 286.85 103.633 287.02 103.517 287.154C103.388 287.272 103.224 287.345 103.05 287.361L88.2054 287.802H88.1795ZM88.5688 277.98L88.8283 286.453L102.336 286.038L102.077 277.577L88.5688 277.98Z" fill="#231F20"/>
<path d="M97.0805 273.866C96.905 273.866 96.7367 273.797 96.6126 273.673C96.4885 273.548 96.4187 273.38 96.4187 273.205C96.4187 234.199 94.7708 220.432 94.7578 220.289C94.7612 220.131 94.8213 219.979 94.927 219.861C95.0327 219.744 95.1772 219.668 95.3341 219.647C95.4911 219.627 95.6501 219.663 95.7825 219.75C95.9148 219.837 96.0116 219.968 96.0554 220.12C96.0554 220.263 97.7293 234.095 97.7293 273.205C97.7293 273.378 97.6614 273.544 97.5401 273.668C97.4188 273.792 97.2538 273.863 97.0805 273.866Z" fill="#231F20"/>
<path d="M60.5015 296.885C60.203 299.48 59.2817 301.479 62.0716 302.595C65.6918 304.035 69.5197 305.086 73.2048 306.332C73.5971 306.428 73.9614 306.615 74.2689 306.877C74.4208 307.009 74.523 307.189 74.5584 307.387C74.5938 307.586 74.5603 307.79 74.4635 307.967C74.204 308.356 73.646 308.356 73.1659 308.317C70.315 308.029 67.4989 307.464 64.7576 306.63C66.9018 307.095 68.9686 307.864 70.8951 308.914C71.6348 309.303 72.4522 310.121 72.0111 310.834C71.7126 311.327 71.0119 311.34 70.441 311.288C68.0972 311.083 65.7723 310.701 63.4859 310.147C66.0043 310.458 68.3422 311.616 70.1166 313.429C70.27 313.549 70.3758 313.719 70.415 313.91C70.415 314.416 69.7922 314.636 69.2732 314.636C67.2365 314.617 65.226 314.175 63.3691 313.339L68.0275 315.687C68.8709 316.115 69.87 316.855 69.6365 317.776C69.545 318.032 69.3832 318.256 69.1697 318.424C68.9562 318.592 68.6997 318.695 68.4297 318.724C66.3925 319.035 63.2394 317.88 61.1892 317.426C59.123 316.833 57.1833 315.865 55.4669 314.571C51.1329 311.652 42.2574 302.569 39.5195 298.04L44.7099 287.309C49.6263 291.042 54.9188 294.251 60.5015 296.885Z" fill="white"/>
<path d="M67.692 319.502C65.9799 319.389 64.2886 319.062 62.6574 318.529C62.0865 318.361 61.5415 318.218 61.0614 318.101C58.9129 317.495 56.897 316.491 55.1184 315.142C50.7975 312.158 41.8441 303.166 38.9505 298.391C38.8934 298.294 38.8633 298.185 38.8633 298.073C38.8633 297.961 38.8934 297.851 38.9505 297.755L44.1409 287.011C44.1868 286.922 44.251 286.843 44.3293 286.781C44.4075 286.718 44.498 286.673 44.595 286.648C44.694 286.628 44.7958 286.63 44.8941 286.652C44.9924 286.675 45.085 286.717 45.166 286.777C50.0518 290.489 55.3143 293.677 60.8667 296.289C60.9922 296.347 61.096 296.444 61.1636 296.565C61.2311 296.686 61.2589 296.826 61.243 296.963C61.243 297.43 61.1262 297.872 61.0484 298.261C60.724 300.35 60.6591 301.232 62.346 301.933C64.7335 302.88 67.2768 303.685 69.7292 304.45C71.0268 304.853 72.2206 305.242 73.4533 305.657C73.9353 305.784 74.3801 306.025 74.7509 306.358C75.011 306.603 75.1798 306.929 75.2293 307.283C75.2789 307.637 75.2062 307.997 75.0234 308.304C74.7946 308.572 74.4976 308.772 74.164 308.884C73.8304 308.996 73.4727 309.015 73.1289 308.94L72.013 308.81C72.3681 309.119 72.6327 309.518 72.7786 309.965C72.8356 310.163 72.85 310.37 72.8209 310.574C72.7919 310.777 72.7199 310.972 72.6099 311.146C72.3513 311.465 72.0098 311.706 71.6229 311.844C71.236 311.981 70.8187 312.009 70.417 311.924L69.3919 311.821C69.8494 312.158 70.2829 312.526 70.6894 312.924C70.9449 313.149 71.1145 313.457 71.1696 313.793C71.1902 313.955 71.1766 314.12 71.1297 314.276C71.0827 314.433 71.0035 314.577 70.8971 314.701C70.4855 315.083 69.9402 315.288 69.3789 315.272H68.6912C70.4948 316.284 70.5337 317.4 70.378 317.984C70.2572 318.368 70.0272 318.709 69.7162 318.965C69.4052 319.22 69.0265 319.38 68.6263 319.425C68.3172 319.473 68.0049 319.499 67.692 319.502ZM40.2741 298.001C43.2326 302.608 51.7966 311.224 55.8451 314.04C57.4931 315.316 59.3691 316.267 61.3728 316.842C61.8659 316.959 62.4238 317.115 63.0077 317.283C64.7222 317.897 66.5332 318.196 68.3538 318.166C68.4938 318.153 68.6283 318.105 68.7443 318.026C68.8602 317.946 68.9536 317.838 69.0156 317.712C69.1323 317.271 68.4316 316.739 67.718 316.414L63.0726 314.065C62.9143 313.99 62.7926 313.854 62.7342 313.689C62.6758 313.523 62.6855 313.341 62.7612 313.183C62.8396 313.027 62.9744 312.907 63.1383 312.847C63.3022 312.786 63.4828 312.791 63.6436 312.859C65.4222 313.629 67.337 314.034 69.2751 314.053C69.4032 314.082 69.5363 314.082 69.6644 314.053C68.4812 312.856 67.025 311.966 65.4213 311.457C64.7335 311.328 64.0458 311.172 63.3581 311.003C63.1911 310.966 63.0452 310.865 62.9508 310.722C62.8564 310.58 62.821 310.406 62.852 310.238C62.8837 310.07 62.9776 309.921 63.1148 309.82C63.252 309.719 63.4223 309.673 63.5917 309.693C64.3267 309.782 65.052 309.938 65.7586 310.16C67.3373 310.469 68.9312 310.694 70.5337 310.834C71.2604 310.834 71.442 310.757 71.481 310.692C71.4144 310.475 71.3024 310.275 71.1525 310.105C71.0026 309.935 70.8182 309.799 70.6116 309.706C69.4597 309.086 68.2573 308.565 67.0173 308.149C66.1998 307.941 65.3953 307.72 64.5908 307.474C64.4251 307.425 64.2849 307.314 64.2001 307.164C64.1153 307.014 64.0925 306.836 64.1366 306.669C64.1825 306.503 64.2894 306.359 64.4361 306.268C64.5827 306.177 64.7584 306.144 64.9282 306.176C65.7586 306.358 66.5761 306.591 67.3936 306.851C69.3229 307.32 71.2827 307.654 73.2587 307.85C73.8166 307.915 73.9075 307.85 73.9075 307.85C73.9089 307.802 73.9004 307.754 73.8825 307.709C73.8647 307.665 73.8378 307.624 73.8036 307.591C73.5653 307.409 73.2911 307.281 72.9992 307.214C71.7794 306.799 70.5337 306.41 69.301 306.02C66.8226 305.242 64.2664 304.437 61.8269 303.425C59.0242 302.296 59.3356 300.259 59.66 298.3L59.7768 297.495C54.5417 294.91 49.5665 291.83 44.9194 288.295L40.2741 298.001Z" fill="#231F20"/>
<path d="M58.4006 214.333C58.4006 214.333 12.6478 255.077 8.53444 262.707C4.4211 270.337 43.4135 307.331 43.4135 307.331L54.0278 291.111L37.7561 264.472L75.2563 238.987L58.4006 214.333Z" fill="#4DA0D4"/>
<path d="M169.863 234.25L177.651 226.602C177.651 226.602 175.721 220.764 177.996 218.788C180.271 216.813 183.287 213.096 185.249 213.612C186.427 213.913 187.588 214.275 188.728 214.696C188.728 214.696 198.333 203.23 199.308 203.189C199.681 203.206 200.041 203.327 200.348 203.538C200.655 203.749 200.897 204.042 201.046 204.383C201.195 204.725 201.245 205.101 201.19 205.47C201.135 205.838 200.978 206.184 200.737 206.468C199.359 208.282 193.677 216.682 193.677 216.682C193.677 216.682 198.796 221.594 196.427 225.501C194.059 229.409 188.984 232.162 186.154 234.698C183.325 237.233 174.623 247.139 174.623 247.139L169.863 234.25Z" fill="white"/>
<path d="M174.393 247.815C174.295 247.782 174.206 247.727 174.132 247.655C174.058 247.584 174.001 247.496 173.964 247.4L169.124 234.482C169.074 234.352 169.063 234.211 169.093 234.075C169.124 233.94 169.193 233.817 169.294 233.721L176.774 226.372C176.335 224.856 175.203 220.177 177.455 218.223C177.989 217.763 178.605 217.118 179.171 216.609C181.295 214.547 183.479 212.402 185.36 212.889C186.756 213.245 187.829 213.605 188.435 213.826C197.946 202.493 198.858 202.459 199.178 202.5C199.674 202.526 200.155 202.68 200.574 202.947C200.992 203.214 201.334 203.586 201.566 204.025C201.806 204.491 201.9 205.019 201.836 205.539C201.772 206.059 201.552 206.548 201.205 206.941C200.048 208.486 195.736 214.84 194.484 216.685C195.744 218.042 199.182 222.251 196.927 225.971C194.961 228.726 192.484 231.078 189.631 232.899C188.479 233.76 187.378 234.563 186.518 235.331C183.754 237.814 175.218 247.643 175.125 247.731C175.044 247.827 174.94 247.899 174.823 247.942C174.706 247.985 174.579 247.996 174.456 247.975L174.393 247.815ZM170.63 234.406L174.879 245.767C177.092 243.251 183.252 236.26 185.608 234.147C186.641 233.24 187.721 232.387 188.842 231.591C191.344 229.744 194.188 227.671 195.787 225.083C197.856 221.662 193.206 217.179 193.162 217.133C193.035 217.018 192.954 216.861 192.935 216.691C192.915 216.522 192.958 216.35 193.056 216.21C193.288 215.868 198.762 207.789 200.139 205.974C200.326 205.791 200.45 205.554 200.494 205.297C200.539 205.04 200.501 204.775 200.387 204.54C200.284 204.358 200.146 204.198 199.981 204.07C199.815 203.942 199.626 203.848 199.424 203.793C195.808 207.336 192.405 211.088 189.231 215.03C189.137 215.147 189.007 215.23 188.862 215.268C188.716 215.305 188.563 215.295 188.423 215.239C187.311 214.826 186.179 214.469 185.031 214.171C183.928 213.891 181.762 216.028 180.193 217.529C179.574 218.142 178.977 218.732 178.42 219.215C176.86 220.567 177.793 224.747 178.282 226.251C178.329 226.376 178.337 226.512 178.306 226.642C178.275 226.772 178.206 226.89 178.108 226.98L170.63 234.406Z" fill="#231F20"/>
<path d="M183.549 228.671C183.377 228.613 183.236 228.49 183.154 228.329C183.114 228.244 183.091 228.151 183.087 228.057C183.083 227.962 183.097 227.868 183.129 227.779C183.162 227.69 183.211 227.609 183.275 227.539C183.339 227.47 183.417 227.414 183.502 227.374C187.518 225.393 184.842 219.511 184.771 219.287C184.701 219.131 184.688 218.956 184.734 218.792C184.78 218.628 184.882 218.485 185.022 218.388C185.163 218.293 185.333 218.252 185.502 218.272C185.671 218.292 185.828 218.371 185.944 218.495C185.944 218.495 189.519 222.327 192.838 223.094L192.919 223.123C192.817 222.065 190.728 218.546 188.121 215.112C188.058 215.038 188.011 214.952 187.982 214.859C187.954 214.766 187.945 214.668 187.955 214.572C187.966 214.475 187.996 214.382 188.044 214.297C188.092 214.212 188.156 214.138 188.234 214.079C188.311 214.021 188.4 213.978 188.494 213.955C188.588 213.931 188.687 213.927 188.783 213.943C188.879 213.959 188.97 213.994 189.052 214.046C189.134 214.098 189.205 214.167 189.26 214.247C192.02 217.889 195.122 222.478 194.132 224.022C193.957 224.294 193.51 224.725 192.51 224.498C190.448 223.874 188.546 222.807 186.939 221.372C187.506 224.001 187.161 227.167 184.134 228.655C184.043 228.7 183.944 228.724 183.843 228.727C183.742 228.73 183.641 228.711 183.549 228.671Z" fill="#231F20"/>
<path d="M117.922 209.493C117.922 209.493 137.243 242.374 139.981 242.867C142.719 243.36 174.004 228.01 174.004 228.01L180.011 243.269C180.011 243.269 149.22 275.865 138.268 270.739C127.316 265.614 114.172 243.594 114.172 243.594L117.922 209.493Z" fill="#4DA0D4"/>
<path d="M66.0034 298.676C65.8313 298.702 65.656 298.659 65.5161 298.555C65.3762 298.452 65.2831 298.297 65.2573 298.125C65.2315 297.953 65.2751 297.778 65.3785 297.638C65.4819 297.498 65.6367 297.405 65.8087 297.379C67.1812 296.907 68.3748 296.023 69.227 294.848C70.0791 293.673 70.5484 292.264 70.5709 290.813C70.5709 290.641 70.6392 290.476 70.7609 290.354C70.8826 290.233 71.0476 290.164 71.2197 290.164C71.3042 290.162 71.3883 290.178 71.467 290.209C71.5456 290.24 71.6172 290.287 71.6777 290.346C71.7381 290.405 71.7861 290.476 71.8188 290.554C71.8516 290.632 71.8685 290.715 71.8685 290.8C71.8516 292.527 71.2961 294.205 70.2796 295.601C69.2631 296.996 67.8361 298.04 66.198 298.586C66.1402 298.629 66.0739 298.66 66.0034 298.676Z" fill="white"/>
<path d="M120.01 299.974H119.932C119.074 299.801 118.285 299.382 117.661 298.767C116.341 297.748 115.159 296.561 114.145 295.238C113.039 293.817 112.54 292.016 112.756 290.229C112.77 290.144 112.8 290.062 112.845 289.989C112.891 289.915 112.95 289.851 113.02 289.801C113.09 289.75 113.169 289.714 113.253 289.694C113.337 289.674 113.424 289.67 113.509 289.684C113.594 289.698 113.676 289.728 113.749 289.773C113.823 289.818 113.887 289.878 113.937 289.947C113.988 290.017 114.024 290.097 114.044 290.18C114.064 290.264 114.068 290.351 114.054 290.437C113.909 291.89 114.327 293.343 115.222 294.498C116.174 295.727 117.282 296.826 118.518 297.768C118.951 298.223 119.504 298.547 120.114 298.702C120.197 298.712 120.278 298.738 120.352 298.779C120.425 298.82 120.49 298.876 120.542 298.942C120.594 299.009 120.632 299.085 120.654 299.166C120.677 299.247 120.682 299.332 120.672 299.416C120.649 299.574 120.569 299.718 120.447 299.821C120.325 299.924 120.169 299.979 120.01 299.974Z" fill="white"/>
<path d="M95.6149 308.499C95.5205 308.517 95.4237 308.517 95.3294 308.499C95.1767 308.421 95.0603 308.287 95.0046 308.125C94.9489 307.962 94.9584 307.785 95.031 307.63C97.6365 302.333 98.7192 296.417 98.1581 290.54C98.1435 290.369 98.1963 290.198 98.3053 290.065C98.4143 289.932 98.571 289.846 98.742 289.827C98.8266 289.818 98.9121 289.826 98.9935 289.851C99.0749 289.875 99.1505 289.916 99.2158 289.971C99.2811 290.025 99.3349 290.092 99.3739 290.168C99.4129 290.243 99.4363 290.326 99.4427 290.411C100.025 296.526 98.9018 302.684 96.1988 308.201C96.1377 308.299 96.0511 308.378 95.9483 308.431C95.8454 308.483 95.7301 308.507 95.6149 308.499Z" fill="white"/>
<path d="M120.802 273.866C120.628 273.866 120.46 273.799 120.334 273.678C120.208 273.557 120.134 273.392 120.128 273.217L119.336 228.905C119.334 228.816 119.35 228.728 119.382 228.646C119.415 228.563 119.463 228.488 119.524 228.424C119.586 228.36 119.659 228.309 119.741 228.273C119.822 228.238 119.909 228.219 119.998 228.217C120.087 228.212 120.176 228.225 120.259 228.256C120.343 228.287 120.419 228.335 120.483 228.398C120.546 228.46 120.596 228.535 120.629 228.618C120.661 228.701 120.676 228.79 120.673 228.879L121.464 273.191C121.466 273.278 121.45 273.365 121.419 273.446C121.387 273.527 121.34 273.6 121.279 273.663C121.219 273.726 121.147 273.776 121.068 273.811C120.988 273.846 120.902 273.864 120.815 273.866H120.802Z" fill="#231F20"/>
<path d="M44.6458 260.475C44.5053 260.471 44.3697 260.423 44.2578 260.338C44.146 260.252 44.0636 260.134 44.0222 260C43.9807 259.865 43.9823 259.722 44.0266 259.588C44.071 259.455 44.1559 259.338 44.2695 259.256L62.0075 247.188C62.0799 247.139 62.1611 247.105 62.2467 247.088C62.3322 247.071 62.4204 247.07 62.506 247.087C62.5916 247.104 62.6731 247.138 62.7456 247.186C62.8182 247.235 62.8805 247.297 62.9288 247.37C63.0294 247.516 63.0682 247.697 63.0366 247.872C63.005 248.047 62.9056 248.202 62.7601 248.304L45.0221 260.359C44.9111 260.434 44.7801 260.475 44.6458 260.475Z" fill="#231F20"/>
<path d="M97.6185 227.109L100.614 263.23L97.0802 283.335L92.3995 263.033L94.1314 227.678L90.457 221.771L94.7398 215.58L100.684 221.312L97.6185 227.109Z" fill="#ED2D24"/>
<path d="M90.457 221.359L94.6409 215.58L100.684 220.877L97.4302 226.656L100.219 263.257L96.9653 285.892L92.3165 264.22L93.7112 227.138L90.457 221.359Z" stroke="black"/>
</g>
<defs>
<clipPath id="clip0_478_16325">
<rect width="30" height="30" fill="white" transform="translate(108 250)"/>
</clipPath>
<clipPath id="clip1_478_16325">
<rect width="30" height="30" fill="white" transform="translate(83 180)"/>
</clipPath>
<clipPath id="clip2_478_16325">
<rect width="30" height="30" fill="white" transform="translate(187 282)"/>
</clipPath>
<clipPath id="clip3_478_16325">
<rect width="60.5625" height="60.5625" fill="white" transform="translate(170 170)"/>
</clipPath>
<clipPath id="clip4_478_16325">
<rect width="196.876" height="294.034" fill="white" transform="translate(8 154.216)"/>
</clipPath>
</defs>
</svg>
