<svg width="278" height="178" viewBox="0 0 278 178" fill="none" xmlns="http://www.w3.org/2000/svg">
<path d="M276.797 145.578H1.20284C1.08468 145.578 0.971361 145.53 0.887812 145.447C0.804262 145.363 0.757324 145.249 0.757324 145.131C0.759605 145.013 0.807276 144.9 0.890337 144.817C0.973398 144.734 1.08539 144.686 1.20284 144.684H276.797C276.914 144.686 277.027 144.734 277.11 144.817C277.193 144.9 277.24 145.013 277.243 145.131C277.243 145.249 277.196 145.363 277.112 145.447C277.029 145.53 276.915 145.578 276.797 145.578Z" fill="#D1D3D4"/>
<path d="M23.1043 49.2903C9.80126 59.0074 8.01921 79.2641 7.68062 94.4789C7.34203 108.782 10.523 122.441 13.499 136.396C16.4038 150.046 27.4436 157.493 40.6218 160.532C60.2244 165.082 81.609 165.61 101.506 163.411C121.402 161.212 121.919 141.545 119.923 125.445C119.371 120.975 116.243 118.213 112.866 115.799C108.688 113 105.043 109.473 102.103 105.385C92.6667 91.6809 92.1231 75.3933 85.8325 60.4824C80.8606 48.6735 69.794 40.4492 56.9543 40.8605C44.1147 41.2717 31.9522 42.8361 23.1043 49.2903Z" fill="#FBFBFB"/>
<path d="M78.9092 165.145C65.9993 165.217 53.1225 163.826 40.5239 160.997C21.1797 156.528 14.9158 145.184 13.0624 136.486L12.4387 133.554C9.59635 120.323 6.91437 107.835 7.23513 94.4705C7.97469 63.6564 15.9672 53.9482 22.8459 48.9243C32.2106 42.0946 45.3354 40.7895 56.9455 40.414C69.4733 40.0296 81.0031 47.8158 86.2424 60.3042C88.545 66.1203 90.427 72.0954 91.8737 78.1829C94.2794 87.3458 96.7743 96.8126 102.477 105.144C104.998 108.827 108.179 111.911 113.169 115.451C116.591 117.892 119.834 120.815 120.404 125.401C122.24 140.142 120.734 150.351 115.798 156.617C112.554 160.738 107.778 163.179 101.595 163.867C94.0618 164.707 86.4886 165.134 78.9092 165.145ZM23.3716 49.6663C10.5943 58.9901 8.5093 78.5316 8.12616 94.5063C7.8143 107.763 10.4785 120.207 13.303 133.384L13.9356 136.316C15.7177 144.764 21.839 155.741 40.7288 160.139C59.0126 164.394 80.0141 165.387 101.452 163.009C107.386 162.356 111.966 160.023 115.058 156.099C119.834 150.029 121.295 140.008 119.513 125.544C118.979 121.28 115.896 118.535 112.643 116.211C107.609 112.635 104.357 109.462 101.773 105.689C95.9813 97.2328 93.4775 87.6766 91.0806 78.4422C89.6383 72.3926 87.7683 66.4537 85.485 60.6707C80.3705 48.522 69.1971 40.9057 57.0346 41.3258C45.5671 41.7013 32.6026 42.9796 23.434 49.6663H23.3716Z" fill="black" fill-opacity="0.5"/>
<path d="M58.0327 124.828C55.651 124.827 53.2713 124.692 50.9045 124.426C46.3635 123.909 41.8859 122.936 37.5391 121.521C31.6227 119.599 27.6487 117.4 24.6638 114.414C20.1284 109.864 18.4266 103.687 17.7405 99.3689C16.2257 89.321 17.7405 78.2183 18.8364 72.4971C19.5519 68.5747 21.1143 64.8569 23.4139 61.6046C25.7136 58.3523 28.6948 55.6444 32.1484 53.6707C36.9421 50.8727 42.6625 49.0669 49.6214 48.1551C56.9278 47.1986 62.1848 47.9853 66.1677 50.6224C72.6722 54.9312 74.5255 63.218 75.8621 71.335L78.1342 85.1106C78.6866 88.5344 79.4529 93.2186 82.1349 95.4266C83.0809 96.1451 84.0993 96.7623 85.1733 97.2682C87.0534 98.2157 88.9869 99.208 90.0829 101.362C91.4283 104.044 91.9986 108.514 90.6175 111.455C89.0849 114.691 85.9574 116.819 83.7477 118.133C75.9319 122.643 67.0484 124.956 58.0327 124.828ZM55.2438 48.6557C53.4317 48.6694 51.6223 48.7978 49.8263 49.0401C42.9832 49.9341 37.352 51.7219 32.6919 54.4038C29.3474 56.3109 26.4604 58.9306 24.2343 62.0783C22.0082 65.226 20.4972 68.8252 19.8077 72.6222C18.7117 78.3256 17.197 89.3121 18.7117 99.2348C19.3443 103.454 21.0195 109.399 25.3855 113.779C28.2635 116.667 32.1216 118.794 37.8598 120.671C42.1326 122.07 46.5362 123.028 51.0025 123.532C63.0759 124.9 74.2582 122.763 83.3378 117.364C85.4495 116.103 88.4255 114.083 89.8512 111.106C91.1164 108.425 90.5818 104.277 89.3344 101.8C88.3721 99.9053 86.6613 99.0292 84.8169 98.0995C83.6853 97.5681 82.613 96.9179 81.6181 96.1597C78.6688 93.7371 77.8758 88.8473 77.2966 85.2894L75.0245 71.5138C73.7236 63.5935 71.9238 55.5122 65.7222 51.4091C63.0046 49.5497 59.583 48.6557 55.2438 48.6557Z" fill="black" fill-opacity="0.5"/>
<path d="M25.2249 110.855C25.1357 110.856 25.0484 110.829 24.9739 110.78C24.8995 110.731 24.8411 110.661 24.8061 110.578C24.7844 110.524 24.7737 110.465 24.7745 110.407C24.7753 110.348 24.7876 110.29 24.8108 110.236C24.8339 110.182 24.8675 110.133 24.9095 110.092C24.9515 110.051 25.0012 110.019 25.0556 109.997C30.776 107.619 34.5896 108.209 34.75 108.209C34.8085 108.218 34.8647 108.239 34.9154 108.269C34.9661 108.3 35.0103 108.34 35.0454 108.388C35.0806 108.435 35.106 108.49 35.1203 108.547C35.1346 108.605 35.1374 108.665 35.1287 108.723C35.1199 108.782 35.0997 108.839 35.0692 108.889C35.0387 108.94 34.9985 108.985 34.9509 109.02C34.9033 109.055 34.8493 109.081 34.7919 109.095C34.7345 109.109 34.6748 109.112 34.6163 109.103C34.6163 109.103 30.8651 108.567 25.3942 110.838C25.3398 110.856 25.282 110.862 25.2249 110.855Z" fill="black" fill-opacity="0.5"/>
<path d="M254.896 49.2903C268.216 59.0074 269.954 79.2641 270.319 94.4789C270.658 108.782 267.477 122.441 264.501 136.396C261.596 150.046 250.556 157.493 237.378 160.532C217.775 165.082 196.391 165.61 176.494 163.411C156.598 161.212 156.081 141.545 158.077 125.445C158.629 120.975 161.757 118.213 165.134 115.799C169.312 113 172.957 109.473 175.897 105.385C185.333 91.6809 185.877 75.3933 192.167 60.4824C197.139 48.6735 208.206 40.4492 221.045 40.8605C233.885 41.2717 246.048 42.8361 254.896 49.2903Z" fill="#FBFBFB"/>
<path d="M199.091 165.145C191.517 165.139 183.95 164.718 176.423 163.884C170.239 163.196 165.463 160.755 162.22 156.634C157.284 150.377 155.778 140.159 157.613 125.418C158.184 120.805 161.427 117.909 164.848 115.468C169.794 111.893 172.975 108.844 175.541 105.161C181.243 96.8297 183.738 87.3628 186.144 78.2C187.591 72.1124 189.473 66.1373 191.775 60.3212C197.041 47.806 208.571 40.0556 221.072 40.431C232.655 40.8065 245.807 42.1116 255.172 48.9413C268.27 58.4975 270.39 78.2983 270.782 94.5322C271.103 107.897 268.421 120.385 265.579 133.615L264.955 136.547C263.102 145.245 256.838 156.554 237.494 161.059C224.887 163.868 212.004 165.238 199.091 165.145ZM220.083 41.2892C208.277 41.2892 197.531 48.8072 192.541 60.6519C190.258 66.435 188.388 72.3739 186.946 78.4234C184.522 87.6578 182.018 97.1962 176.254 105.671C173.67 109.443 170.417 112.59 165.383 116.192C162.131 118.517 159.048 121.261 158.513 125.525C156.731 140.016 158.157 150.01 162.968 156.08C166.06 160.004 170.64 162.338 176.574 162.99C198.012 165.368 219.014 164.376 237.298 160.121C256.187 155.722 262.246 144.745 264.091 136.297L264.723 133.365C267.548 120.188 270.212 107.745 269.9 94.4875C269.17 64.0936 261.373 54.5463 254.655 49.6475C245.486 42.9609 232.522 41.6825 221.054 41.3071L220.083 41.2892Z" fill="black" fill-opacity="0.5"/>
<path d="M219.968 124.828C210.928 124.969 202.018 122.656 194.181 118.133C191.972 116.819 188.835 114.691 187.312 111.455C185.931 108.523 186.501 104.026 187.846 101.362C188.942 99.208 190.876 98.2157 192.756 97.2682C193.83 96.7623 194.848 96.1451 195.794 95.4266C198.467 93.2186 199.242 88.5344 199.795 85.1106L202.067 71.335C203.404 63.218 205.257 54.9312 211.761 50.6224C215.744 47.9853 221.001 47.1986 228.308 48.1551C235.267 49.0491 240.987 50.8369 245.781 53.6707C249.234 55.6444 252.215 58.3523 254.515 61.6046C256.815 64.8569 258.377 68.5747 259.093 72.4971C260.153 78.2183 261.703 89.321 260.189 99.3689C259.538 103.722 257.801 109.864 253.265 114.414C250.28 117.4 246.306 119.599 240.39 121.521C236.043 122.936 231.566 123.909 227.025 124.426C224.681 124.69 222.326 124.824 219.968 124.828ZM222.757 48.6557C218.399 48.6557 214.978 49.5497 212.234 51.3376C205.996 55.4407 204.214 63.5219 202.931 71.4422L200.659 85.2179C200.08 88.7936 199.287 93.6656 196.338 96.0881C195.343 96.8464 194.27 97.4966 193.139 98.028C191.357 98.9219 189.575 99.8159 188.621 101.729C187.374 104.205 186.839 108.353 188.105 111.035C189.53 114.047 192.506 116.068 194.618 117.292C203.698 122.656 214.871 124.828 226.953 123.461C231.42 122.957 235.823 121.998 240.096 120.6C245.879 118.723 249.737 116.595 252.57 113.708C256.936 109.327 258.611 103.383 259.244 99.1633C260.741 89.2406 259.244 78.2541 258.148 72.5954C257.459 68.7984 255.948 65.1992 253.721 62.0515C251.495 58.9038 248.608 56.2841 245.264 54.3769C240.577 51.6415 234.973 49.9072 228.129 49.0133C226.348 48.7815 224.553 48.6621 222.757 48.6557Z" fill="black" fill-opacity="0.5"/>
<path d="M252.775 110.855C252.719 110.868 252.661 110.868 252.606 110.855C247.135 108.585 243.428 109.121 243.384 109.121C243.325 109.13 243.265 109.127 243.208 109.113C243.151 109.098 243.097 109.073 243.049 109.037C243.001 109.002 242.961 108.958 242.931 108.907C242.9 108.856 242.88 108.8 242.871 108.741C242.862 108.682 242.865 108.622 242.88 108.565C242.894 108.507 242.919 108.453 242.954 108.405C242.99 108.358 243.034 108.317 243.084 108.287C243.135 108.256 243.191 108.236 243.25 108.227C243.41 108.227 247.224 107.646 252.944 110.015C252.999 110.037 253.048 110.069 253.09 110.11C253.132 110.151 253.166 110.2 253.189 110.254C253.212 110.307 253.225 110.366 253.225 110.424C253.226 110.483 253.215 110.541 253.194 110.596C253.156 110.675 253.097 110.741 253.022 110.787C252.948 110.833 252.862 110.857 252.775 110.855Z" fill="black" fill-opacity="0.5"/>
<path d="M187.819 58.7124L160.198 43.5154C160.198 43.5154 158.603 38.9384 156.892 37.5349C155.181 36.1315 156.241 41.1107 156.241 41.1107C156.241 41.1107 146.797 35.0587 145.825 36.6946C144.854 38.3305 143.241 44.9993 146.467 47.5828C149.309 49.8445 154.602 50.4166 154.602 50.4166C169.357 62.3507 190.181 75.5363 190.181 75.5363" fill="white"/>
<path d="M190.18 75.9663C190.098 75.9644 190.018 75.9397 189.949 75.8948C189.735 75.7607 169.019 62.6198 154.415 50.8645C153.524 50.7572 148.881 50.0957 146.191 47.9503C142.814 45.2684 144.31 38.3672 145.442 36.481C145.513 36.3637 145.607 36.2626 145.719 36.1841C145.831 36.1056 145.958 36.0514 146.092 36.0251C147.875 35.596 153.39 38.841 155.618 40.2087C155.413 38.9125 155.324 37.3928 155.974 36.9906C156.215 36.8475 156.607 36.7671 157.168 37.223C158.799 38.5371 160.224 42.3542 160.536 43.2034L188.033 58.4004C188.137 58.4573 188.214 58.5533 188.248 58.6673C188.281 58.7813 188.268 58.904 188.211 59.0083C188.155 59.1126 188.059 59.19 187.945 59.2236C187.832 59.2571 187.709 59.244 187.605 59.1871L159.984 43.9901C159.935 43.9663 159.891 43.9326 159.856 43.8911C159.821 43.8495 159.794 43.801 159.779 43.7487C159.779 43.7487 158.237 39.279 156.633 38.0096L156.455 37.8845C156.334 38.9693 156.419 40.0673 156.705 41.1206C156.725 41.207 156.72 41.2978 156.688 41.3809C156.656 41.4639 156.6 41.5352 156.526 41.5854C156.452 41.6332 156.365 41.6585 156.277 41.6585C156.189 41.6585 156.102 41.6332 156.027 41.5854C152.989 39.6366 147.652 36.6598 146.324 36.9816C146.271 36.9816 146.235 36.9816 146.235 36.9816C145.237 38.6443 143.847 44.9556 146.77 47.2887C149.443 49.4521 154.62 50.0331 154.673 50.0331C154.758 50.0447 154.838 50.0787 154.905 50.1315C169.473 61.9136 190.243 75.0903 190.448 75.2154C190.547 75.2797 190.617 75.3799 190.643 75.4949C190.67 75.61 190.651 75.7309 190.59 75.8322C190.538 75.8862 190.473 75.9266 190.402 75.95C190.33 75.9734 190.254 75.979 190.18 75.9663Z" fill="#231F20"/>
<path d="M180.976 144.789C180.976 144.789 182.981 167.745 182.161 169.229C181.342 170.713 161.712 173.699 161.356 171.598C161 169.498 170.961 165.341 170.961 165.341L168.769 146.568" fill="white"/>
<path d="M164.314 172.753C163.67 172.767 163.026 172.725 162.389 172.628C161.81 172.529 161.026 172.324 160.91 171.68C160.545 169.49 167.771 166.236 170.48 165.101L168.324 146.668C168.317 146.609 168.321 146.55 168.337 146.493C168.353 146.436 168.38 146.383 168.416 146.336C168.453 146.29 168.498 146.251 168.549 146.222C168.601 146.193 168.657 146.174 168.716 146.167C168.774 146.16 168.834 146.165 168.89 146.181C168.947 146.197 169 146.224 169.046 146.26C169.093 146.297 169.131 146.342 169.16 146.394C169.189 146.445 169.208 146.502 169.215 146.561L171.407 165.333C171.418 165.43 171.396 165.528 171.347 165.612C171.297 165.696 171.221 165.762 171.13 165.798C166.497 167.711 161.605 170.447 161.792 171.528C161.792 171.528 162.051 171.814 163.958 171.868C169.678 172.056 181.039 169.883 181.778 168.998C182.313 167.872 181.297 153.578 180.531 144.862C180.525 144.803 180.532 144.744 180.549 144.688C180.567 144.632 180.595 144.579 180.633 144.534C180.67 144.489 180.717 144.452 180.769 144.424C180.821 144.397 180.878 144.38 180.936 144.375C180.995 144.37 181.054 144.376 181.11 144.393C181.166 144.411 181.218 144.44 181.263 144.477C181.308 144.515 181.345 144.561 181.372 144.614C181.4 144.666 181.416 144.723 181.422 144.782C181.76 148.634 183.4 167.953 182.553 169.472C181.707 170.992 169.812 172.753 164.314 172.753Z" fill="#231F20"/>
<path d="M210.006 150.815C210.006 150.815 212.759 171.098 211.333 171.679C209.908 172.26 190.528 173.181 190.84 171.474C191.152 169.766 200.712 166.512 200.712 166.512L197.255 146.738" fill="white"/>
<path d="M198.502 172.923C194.733 172.923 191.437 172.7 190.67 172.083C190.567 172.006 190.486 171.902 190.437 171.782C190.389 171.662 190.374 171.531 190.394 171.403C190.697 169.615 197.522 167.13 200.195 166.219L196.792 146.811C196.774 146.695 196.802 146.577 196.87 146.481C196.939 146.386 197.042 146.321 197.157 146.302C197.214 146.29 197.274 146.29 197.331 146.302C197.388 146.314 197.443 146.337 197.491 146.37C197.539 146.404 197.58 146.447 197.612 146.496C197.643 146.546 197.664 146.601 197.674 146.659L201.14 166.433C201.158 166.54 201.138 166.651 201.082 166.744C201.027 166.838 200.94 166.908 200.837 166.943C196.533 168.4 191.811 170.518 191.303 171.412C191.838 171.716 194.386 172.101 201.104 171.949C204.442 171.935 207.776 171.706 211.084 171.26C211.699 170.134 210.79 160.068 209.533 150.852C209.518 150.733 209.55 150.614 209.621 150.518C209.693 150.423 209.799 150.36 209.917 150.342C209.975 150.333 210.034 150.336 210.091 150.351C210.148 150.366 210.201 150.392 210.247 150.428C210.294 150.464 210.333 150.509 210.362 150.56C210.391 150.611 210.409 150.668 210.415 150.727C211.699 160.14 212.919 171.475 211.476 172.065C210.638 172.449 204.045 172.923 198.502 172.923Z" fill="#231F20"/>
<path d="M188.657 110.15C188.185 111.777 184.05 154.4 184.05 154.4H167.379C167.379 154.4 159.707 111.598 162.229 101.032C163.958 93.755 171.834 90.1971 179.853 92.5571C191.784 92.0833 204.045 90.5547 204.045 90.5547L188.657 110.15Z" fill="#231F20"/>
<path d="M184.05 154.846H167.379C167.275 154.847 167.173 154.811 167.093 154.744C167.013 154.677 166.96 154.583 166.943 154.479C166.631 152.692 159.28 111.463 161.792 100.924C162.172 99.3296 162.872 97.8306 163.852 96.519C164.831 95.2075 166.068 94.1113 167.486 93.2982C169.372 92.2761 171.442 91.6435 173.576 91.4377C175.709 91.232 177.862 91.4573 179.907 92.1004C191.66 91.6355 203.867 90.1248 203.965 90.1158C204.053 90.1031 204.143 90.1176 204.222 90.1576C204.302 90.1975 204.367 90.2609 204.41 90.3393C204.453 90.4163 204.471 90.5043 204.464 90.592C204.456 90.6797 204.421 90.763 204.366 90.831L189.04 110.346C188.594 112.482 185.601 142.778 184.469 154.444C184.459 154.55 184.411 154.649 184.334 154.723C184.257 154.796 184.156 154.84 184.05 154.846ZM167.753 153.952H183.649C184.095 149.339 187.775 111.606 188.229 110.024C188.247 109.969 188.274 109.918 188.309 109.872L203.029 91.0992C199.777 91.4746 189.664 92.592 179.862 92.9764H179.72C177.781 92.3536 175.738 92.1292 173.711 92.3166C171.684 92.504 169.715 93.0993 167.923 94.067C166.605 94.8109 165.455 95.8223 164.549 97.0367C163.642 98.2512 162.998 99.6419 162.657 101.12C160.313 110.971 167.014 149.786 167.753 153.952Z" fill="#231F20"/>
<path d="M240.122 96.5091C240.122 96.5091 245.371 105.252 237.262 115.094C229.154 124.936 206.076 114.585 206.076 114.585L211.841 153.095L194.912 152.926C194.912 152.926 177.27 100.496 179.301 95.0699C181.333 89.6437 195.785 87.1406 195.785 87.1406L240.122 96.5091Z" fill="#231F20"/>
<path d="M211.815 153.542L194.885 153.372C194.793 153.371 194.703 153.342 194.628 153.287C194.552 153.233 194.496 153.156 194.467 153.068C193.745 150.923 176.789 100.424 178.856 94.9084C180.923 89.3928 195.081 86.8094 195.687 86.7021C195.743 86.6931 195.8 86.6931 195.857 86.7021L240.212 96.0706C240.273 96.0841 240.331 96.1101 240.381 96.1471C240.432 96.184 240.474 96.231 240.506 96.2851C240.559 96.3745 245.852 105.403 237.601 115.38C234.18 119.536 227.577 120.743 218.524 118.955C214.447 118.104 210.457 116.88 206.602 115.299L212.251 153.023C212.262 153.087 212.259 153.151 212.242 153.213C212.225 153.275 212.195 153.332 212.153 153.381C212.111 153.43 212.059 153.47 212.001 153.497C211.943 153.525 211.879 153.54 211.815 153.542ZM195.206 152.469L211.298 152.639L205.604 114.638C205.592 114.558 205.602 114.477 205.632 114.403C205.663 114.328 205.712 114.263 205.776 114.215C205.84 114.167 205.915 114.136 205.995 114.127C206.075 114.118 206.155 114.131 206.228 114.164C206.46 114.271 229.119 124.265 236.915 114.799C240.996 109.846 241.548 105.207 241.29 102.185C241.147 100.346 240.651 98.552 239.829 96.9019L195.759 87.596C194.582 87.8106 181.502 90.2778 179.72 95.2213C178.081 99.5212 190.243 137.71 195.206 152.469Z" fill="#231F20"/>
<path d="M185.173 123.487C185.085 123.487 184.998 123.461 184.925 123.412C184.852 123.362 184.796 123.292 184.763 123.21C184.38 122.235 175.416 99.243 178.232 93.4771C178.368 93.1563 178.573 92.8694 178.832 92.6362C179.09 92.4031 179.396 92.2294 179.729 92.1273C179.785 92.1108 179.844 92.1056 179.902 92.112C179.96 92.1184 180.017 92.1362 180.068 92.1644C180.119 92.1927 180.164 92.2307 180.201 92.2765C180.238 92.3223 180.265 92.3748 180.281 92.4312C180.312 92.5449 180.298 92.6662 180.241 92.7695C180.185 92.8729 180.09 92.9503 179.978 92.9854C179.765 93.0555 179.57 93.1719 179.406 93.3264C179.243 93.481 179.116 93.6698 179.034 93.8794C176.361 99.2967 185.494 122.655 185.592 122.888C185.613 122.943 185.624 123.002 185.622 123.061C185.621 123.12 185.608 123.178 185.584 123.232C185.56 123.286 185.525 123.335 185.482 123.376C185.439 123.416 185.389 123.448 185.333 123.469L185.173 123.487Z" fill="white"/>
<path d="M206.05 115.031C205.968 115.033 205.888 115.011 205.818 114.968C205.595 114.834 200.338 111.616 198.85 109.337C198.817 109.288 198.794 109.234 198.782 109.176C198.771 109.119 198.771 109.059 198.782 109.002C198.794 108.944 198.817 108.89 198.85 108.841C198.883 108.793 198.925 108.751 198.975 108.72C199.073 108.655 199.193 108.632 199.308 108.655C199.423 108.679 199.524 108.747 199.59 108.845C200.971 110.964 206.228 114.209 206.281 114.209C206.381 114.271 206.453 114.371 206.482 114.486C206.51 114.601 206.492 114.723 206.433 114.825C206.39 114.888 206.333 114.94 206.267 114.976C206.2 115.012 206.125 115.031 206.05 115.031Z" fill="white"/>
<path d="M240.122 96.508C240.122 96.508 258.736 50.497 244.987 39.9396C231.239 29.3821 211.645 34.0843 208.972 43.9533C206.299 53.8224 195.758 87.1395 195.758 87.1395C195.758 87.1395 229.528 97.2411 240.122 96.508Z" fill="#6F93B3"/>
<path d="M220.662 44.9556L217.446 77.4324L235.186 42.6582L220.662 44.9556Z" fill="#231F20"/>
<path d="M217.41 77.8791C217.366 77.8878 217.321 77.8878 217.276 77.8791C217.176 77.8518 217.089 77.7886 217.031 77.7014C216.974 77.6142 216.95 77.5089 216.965 77.4054L220.19 44.9285C220.199 44.8292 220.24 44.7357 220.308 44.6628C220.376 44.5899 220.466 44.5418 220.564 44.5263L235.079 42.2378C235.161 42.2225 235.246 42.2313 235.324 42.2629C235.401 42.2946 235.468 42.348 235.516 42.4166C235.557 42.4869 235.579 42.5672 235.579 42.649C235.579 42.7308 235.557 42.8111 235.516 42.8814L217.767 77.6557C217.73 77.7195 217.678 77.7732 217.616 77.8122C217.554 77.8512 217.483 77.8742 217.41 77.8791ZM221.037 45.3398L218.078 75.1258L234.357 43.239L221.037 45.3398Z" fill="#231F20"/>
<path d="M210.193 39.9941L186.955 56.4873L189.076 77.4323L213.98 66.8749C213.98 66.8749 218.105 43.704 210.193 39.9941Z" fill="#6F93B3"/>
<path d="M219.192 40.4676C220.862 39.9043 222.635 39.7121 224.387 39.9044C227.122 40.3872 229.626 41.6923 232.406 42.1035C235.471 42.3806 238.554 42.3806 241.619 42.1035C242.51 42.0588 241.619 43.2656 242.368 42.7472C244.88 40.9056 244.756 37.2584 244.747 34.5229C244.823 28.1874 244.035 21.8711 242.403 15.7502C241.512 12.5678 237.993 0.919735 232.851 5.91686C234.01 4.78155 228.396 2.13549 227.594 1.91201C220.306 -0.117234 213.694 6.31019 212.064 12.9969C210.879 17.8509 210.79 22.6693 208.5 27.2284C207.484 29.2397 206.165 31.2243 206.076 33.4859C206.099 34.8491 206.498 36.1793 207.23 37.3283C207.961 38.4773 208.996 39.4 210.219 39.9938C212.702 41.1385 215.501 41.3941 218.15 40.7179L219.192 40.4676Z" fill="white"/>
<path d="M242.109 43.3189C242.025 43.3173 241.943 43.2959 241.869 43.2563C241.768 43.188 241.69 43.0913 241.644 42.9783C241.598 42.8653 241.586 42.7412 241.61 42.6216V42.5591L240.211 42.6216C237.592 42.8393 234.959 42.8154 232.344 42.5501C230.862 42.2971 229.406 41.9081 227.995 41.388C226.791 40.9475 225.555 40.6009 224.298 40.351C222.696 40.1664 221.073 40.331 219.54 40.8337L219.281 40.8963L218.221 41.1556C215.472 41.8437 212.572 41.5726 209.997 40.3868C208.696 39.7594 207.596 38.7802 206.819 37.5593C206.043 36.3385 205.622 34.9245 205.604 33.4766C205.814 31.5654 206.464 29.7293 207.502 28.113C207.698 27.7465 207.894 27.38 208.081 27.0134C209.614 23.9919 210.148 20.89 210.754 17.6092C211.013 16.0627 211.289 14.4715 211.645 12.8803C212.701 8.65693 215.357 5.01353 219.05 2.72511C220.334 1.9334 221.767 1.41394 223.26 1.1987C224.752 0.983468 226.273 1.07702 227.728 1.47359C228.236 1.61662 232.388 3.44026 233.288 4.9689C233.686 4.64379 234.154 4.41568 234.655 4.30246C235.156 4.18923 235.676 4.19398 236.175 4.31632C239.294 5.15662 241.521 10.9047 242.849 15.58C244.501 21.7459 245.296 28.1114 245.21 34.4957V34.8354C245.21 37.5172 245.21 41.1913 242.644 43.0865C242.494 43.218 242.307 43.2993 242.109 43.3189ZM241.655 41.6204C241.769 41.6144 241.883 41.6318 241.991 41.6718C242.098 41.7118 242.196 41.7734 242.279 41.8528C242.343 41.9201 242.395 41.9989 242.43 42.0853C244.337 40.3868 244.319 37.3116 244.31 34.8175V34.4868C244.394 28.1814 243.612 21.8945 241.985 15.8034C240.203 9.54587 238.055 5.72875 235.943 5.16556C235.43 5.06866 234.901 5.11495 234.412 5.29938C233.923 5.48382 233.495 5.79931 233.172 6.21147C233.087 6.29445 232.973 6.34013 232.854 6.33845C232.736 6.33678 232.622 6.28789 232.54 6.20253C232.457 6.11718 232.411 6.00236 232.413 5.88333C232.415 5.76431 232.464 5.65082 232.549 5.56783C232.709 4.89738 228.726 2.66253 227.479 2.3139C226.134 1.94466 224.728 1.85729 223.348 2.05723C221.969 2.25718 220.645 2.74014 219.459 3.47602C215.972 5.63958 213.465 9.08493 212.474 13.0769C212.091 14.6324 211.823 16.2147 211.583 17.7433C211.039 20.9525 210.469 24.2601 208.91 27.4068C208.723 27.7733 208.518 28.1398 208.322 28.5153C207.365 30.0109 206.755 31.7036 206.54 33.4677C206.559 34.7466 206.935 35.9945 207.625 37.0703C208.315 38.1461 209.291 39.0069 210.442 39.5554C212.836 40.6478 215.529 40.8906 218.078 40.2437L219.112 39.9934L219.37 39.9309C221.022 39.3959 222.77 39.2251 224.494 39.4303C225.795 39.6928 227.076 40.0514 228.325 40.503C229.684 41.0056 231.086 41.3826 232.513 41.6294C235.072 41.8873 237.649 41.9083 240.211 41.6919L241.637 41.6204H241.655Z" fill="#231F20"/>
<path d="M214.835 15.5971C214.835 15.5971 212.403 23.0972 213.855 28.7022C214.219 30.2681 215.03 31.6937 216.188 32.8049C217.346 33.9162 218.802 34.665 220.377 34.9598L220.662 44.9451C220.662 44.9451 220.769 50.0584 226.98 49.084C228.781 48.8021 230.481 48.0628 231.917 46.9362C233.353 45.8097 234.479 44.3334 235.186 42.6477L235.364 24.2594C235.364 24.2594 228.174 20.3796 228.593 13.7734C228.593 13.7824 220.306 18.109 214.835 15.5971Z" fill="white"/>
<path d="M225.492 49.665C224.204 49.7243 222.938 49.3148 221.928 48.5119C221.423 48.0581 221.012 47.5085 220.72 46.8948C220.428 46.2811 220.26 45.6153 220.226 44.9361L219.941 35.362C218.36 34.9863 216.913 34.1784 215.762 33.0281C214.611 31.8778 213.799 30.4299 213.418 28.8452C211.957 23.1776 214.309 15.7937 214.416 15.4361C214.436 15.3771 214.467 15.3228 214.508 15.2766C214.55 15.2304 214.6 15.1934 214.657 15.1679C214.715 15.1436 214.777 15.131 214.84 15.131C214.902 15.131 214.964 15.1436 215.022 15.1679C220.235 17.5637 228.307 13.38 228.388 13.38C228.457 13.3409 228.535 13.3203 228.615 13.3203C228.694 13.3203 228.773 13.3409 228.842 13.38C228.907 13.4239 228.96 13.4841 228.994 13.5548C229.028 13.6254 229.044 13.7039 229.038 13.7823C228.637 20.0399 235.507 23.8123 235.569 23.8481C235.641 23.8855 235.702 23.9419 235.744 24.0112C235.787 24.0805 235.809 24.1601 235.81 24.2414L235.632 42.6387C235.64 42.686 235.64 42.7344 235.632 42.7817C234.905 44.5476 233.736 46.0948 232.237 47.2729C230.738 48.4509 228.961 49.2196 227.078 49.5041C226.554 49.6013 226.024 49.6551 225.492 49.665ZM215.12 16.2049C214.63 17.9123 213.089 23.9643 214.283 28.5859C214.615 30.0708 215.375 31.4249 216.468 32.4801C217.561 33.5353 218.939 34.2453 220.431 34.5217C220.536 34.5345 220.634 34.5847 220.706 34.6634C220.778 34.7422 220.819 34.8441 220.823 34.9508L221.108 44.9361C221.178 46.0463 221.677 47.0853 222.498 47.8325C223.505 48.7264 224.993 48.9499 226.953 48.6549C228.662 48.3803 230.274 47.6788 231.641 46.6149C233.008 45.551 234.086 44.159 234.776 42.5672L234.946 24.5275C233.716 23.8034 228.263 20.2634 228.165 14.4975C226.089 15.454 219.834 18.0106 215.12 16.2049Z" fill="#231F20"/>
<path d="M231.872 23.0809C231.872 23.0809 234.75 16.0545 238.34 20.3276C241.931 24.6006 237.022 29.5352 233.939 29.2133" fill="white"/>
<path d="M234.233 29.677H233.894C233.835 29.6715 233.778 29.6543 233.726 29.6265C233.675 29.5987 233.629 29.5608 233.591 29.5151C233.554 29.4694 233.526 29.4167 233.509 29.3601C233.492 29.3035 233.487 29.2441 233.493 29.1854C233.499 29.1266 233.516 29.0695 233.543 29.0173C233.571 28.9652 233.609 28.9191 233.654 28.8817C233.7 28.8443 233.753 28.8163 233.809 28.7994C233.865 28.7825 233.925 28.7769 233.983 28.7831C235.533 28.944 237.618 27.5763 238.59 25.7258C239.043 24.9238 239.231 23.9978 239.125 23.0817C239.019 22.1657 238.626 21.3072 238.002 20.6304C237.758 20.2474 237.418 19.9352 237.016 19.7251C236.614 19.5149 236.164 19.414 235.712 19.4325C234.09 19.6828 232.691 22.2842 232.29 23.2675C232.245 23.3778 232.159 23.4656 232.049 23.5117C231.94 23.5578 231.816 23.5584 231.707 23.5133C231.597 23.4683 231.509 23.3813 231.463 23.2715C231.417 23.1617 231.417 23.0381 231.461 22.9278C231.533 22.758 233.128 18.9319 235.578 18.5475C236.656 18.3777 237.699 18.8872 238.688 20.0583C239.422 20.8733 239.884 21.8986 240.009 22.9903C240.133 24.0819 239.914 25.1854 239.383 26.146C238.296 28.211 236.122 29.677 234.233 29.677Z" fill="#231F20"/>
<path d="M218.871 28.9172C218.388 28.9313 217.908 28.8398 217.464 28.649C217.355 28.597 217.261 28.5208 217.187 28.4262C217.112 28.3317 217.061 28.2213 217.036 28.1037C216.706 26.8254 219.103 23.3032 219.851 22.2484C219.884 22.2004 219.927 22.1594 219.976 22.1279C220.024 22.0964 220.079 22.0751 220.136 22.0651C220.194 22.0551 220.252 22.0567 220.309 22.0697C220.366 22.0828 220.419 22.1071 220.466 22.1411C220.514 22.175 220.555 22.2181 220.587 22.268C220.618 22.3178 220.64 22.3735 220.65 22.4317C220.66 22.4898 220.658 22.5494 220.645 22.6069C220.632 22.6645 220.607 22.7188 220.573 22.7669C218.969 25.0375 217.713 27.4332 217.9 27.8892C218.832 28.0892 219.8 28.0398 220.707 27.7461C220.765 27.7291 220.827 27.7238 220.887 27.7305C220.948 27.7373 221.006 27.7559 221.06 27.7854C221.113 27.8149 221.16 27.8546 221.198 27.9023C221.236 27.95 221.265 28.0048 221.282 28.0635C221.299 28.1222 221.304 28.1836 221.297 28.2444C221.29 28.3051 221.272 28.364 221.242 28.4175C221.213 28.471 221.173 28.5182 221.126 28.5564C221.078 28.5946 221.024 28.623 220.965 28.6401C220.283 28.829 219.579 28.9222 218.871 28.9172Z" fill="#231F20"/>
<path d="M220.377 34.9689C220.377 34.9689 225.724 35.4874 228.744 34.6113C228.744 34.6113 225.635 42.5763 220.582 42.6568L220.377 34.9689Z" fill="#231F20"/>
<path d="M220.582 43.1303C220.466 43.1303 220.354 43.0844 220.27 43.0025C220.187 42.9206 220.139 42.8092 220.137 42.6923L219.932 34.9776C219.93 34.9142 219.942 34.8511 219.967 34.7927C219.991 34.7343 220.028 34.6817 220.074 34.6386C220.121 34.5955 220.176 34.5628 220.236 34.5426C220.295 34.5224 220.359 34.5153 220.422 34.5216C220.475 34.5216 225.706 35.0223 228.619 34.1819C228.699 34.157 228.784 34.1556 228.865 34.1777C228.945 34.1999 229.018 34.2448 229.074 34.3071C229.13 34.3684 229.169 34.4445 229.185 34.5267C229.2 34.6089 229.193 34.6939 229.163 34.7719C229.029 35.1116 225.884 43.0141 220.591 43.1303H220.582ZM220.832 35.4513L221.01 42.2006C224.574 41.7715 227.087 37.1498 227.978 35.2547C225.611 35.5934 223.213 35.6594 220.832 35.4513Z" fill="#231F20"/>
<path d="M224.451 21.3748C224.471 20.6147 224.135 19.9896 223.702 19.9786C223.27 19.9675 222.903 20.5746 222.884 21.3347C222.864 22.0948 223.2 22.7199 223.632 22.731C224.065 22.7421 224.432 22.1349 224.451 21.3748Z" fill="#231F20"/>
<path d="M217.237 21.1971C217.257 20.437 216.921 19.8119 216.489 19.8008C216.056 19.7897 215.689 20.3969 215.67 21.157C215.65 21.917 215.986 22.5422 216.419 22.5532C216.852 22.5643 217.218 21.9571 217.237 21.1971Z" fill="#231F20"/>
<path d="M244.649 30.8926C245.032 36.7658 245.54 47.5645 236.238 44.9006C234.31 44.3215 232.675 43.0267 231.667 41.2802C229.885 38.0799 234.678 33.4492 236.95 31.3664" fill="white"/>
<path d="M238.884 45.7683C237.945 45.7546 237.012 45.6102 236.113 45.3392C234.052 44.7422 232.304 43.3635 231.239 41.4952C229.394 38.2413 233.422 33.9683 236.585 31.0361C236.67 30.9537 236.783 30.9076 236.901 30.9076C237.019 30.9076 237.133 30.9537 237.218 31.0361C237.259 31.0777 237.293 31.1271 237.315 31.1816C237.338 31.2361 237.349 31.2945 237.349 31.3535C237.349 31.4125 237.338 31.4709 237.315 31.5254C237.293 31.5799 237.259 31.6293 237.218 31.6708C235.507 33.2442 230.312 38.0178 232.023 41.0304C232.975 42.6938 234.534 43.9213 236.371 44.4542C238.706 45.1246 240.541 44.9369 241.824 43.8999C244.898 41.4058 244.435 34.3169 244.212 30.911C244.208 30.8523 244.216 30.7934 244.234 30.7376C244.253 30.6818 244.282 30.6302 244.321 30.5858C244.359 30.5414 244.406 30.505 244.458 30.4787C244.511 30.4525 244.568 30.4368 244.627 30.4327C244.685 30.4286 244.744 30.4361 244.799 30.4548C244.855 30.4735 244.906 30.5029 244.951 30.5415C244.995 30.5801 245.031 30.6271 245.057 30.6797C245.084 30.7324 245.099 30.7897 245.103 30.8484C245.353 34.6834 245.825 41.8081 242.377 44.5972C241.387 45.3903 240.15 45.8052 238.884 45.7683Z" fill="#231F20"/>
<path d="M224.378 30.9564C224.378 31.4302 223.585 31.8504 222.596 31.8504C221.607 31.8504 222.008 31.457 222.008 30.9564C222.008 30.4558 221.616 30.0625 222.596 30.0625C223.576 30.0625 224.378 30.4827 224.378 30.9564Z" fill="#231F20"/>
<path d="M246.609 42.3535C246.609 42.3535 238.385 49.2458 238.349 55.0743C238.314 60.9028 244.586 88.15 244.586 88.15L261.721 78.567C261.721 78.567 255.038 44.7135 246.609 42.3535Z" fill="#6F93B3"/>
<path d="M196.694 84.6182H196.569C196.513 84.6009 196.46 84.5726 196.415 84.5348C196.37 84.497 196.332 84.4506 196.305 84.3982C196.277 84.3459 196.261 84.2885 196.256 84.2296C196.25 84.1707 196.257 84.1114 196.275 84.055L208.553 43.8278C208.565 43.7657 208.589 43.7068 208.624 43.6548C208.66 43.6028 208.706 43.559 208.76 43.5262C208.814 43.4934 208.874 43.4723 208.936 43.4644C208.998 43.4566 209.062 43.462 209.122 43.4804C209.182 43.4988 209.237 43.5298 209.285 43.5713C209.332 43.6128 209.37 43.6638 209.396 43.7211C209.423 43.7784 209.437 43.8406 209.437 43.9037C209.438 43.9668 209.425 44.0292 209.4 44.087L197.121 84.3143C197.091 84.4038 197.034 84.4814 196.957 84.536C196.88 84.5906 196.788 84.6194 196.694 84.6182Z" fill="#231F20"/>
<path d="M244.756 86.7371C244.654 86.7392 244.554 86.7055 244.475 86.6419C244.395 86.5782 244.34 86.4885 244.319 86.3884C237.378 55.3241 237.806 54.9575 238.082 54.7341C238.167 54.6516 238.28 54.6055 238.398 54.6055C238.516 54.6055 238.63 54.6516 238.715 54.7341C238.766 54.7932 238.8 54.865 238.814 54.9421C238.828 55.0191 238.822 55.0985 238.795 55.1721C238.795 56.6292 242.599 74.4365 245.219 86.1471C245.232 86.2046 245.234 86.2642 245.224 86.3224C245.214 86.3806 245.193 86.4362 245.161 86.4861C245.13 86.5359 245.089 86.579 245.041 86.6129C244.992 86.6468 244.938 86.6708 244.88 86.6834L244.756 86.7371Z" fill="#231F20"/>
<path d="M220.841 86.2906L188.898 98.3678L174.712 88.15L202.637 79.6934L220.841 86.2906Z" fill="white"/>
<path d="M188.897 98.8331C188.802 98.8339 188.709 98.8059 188.63 98.7527L174.454 88.526C174.385 88.4781 174.33 88.4116 174.297 88.3341C174.264 88.2566 174.254 88.1712 174.267 88.088C174.282 88.007 174.32 87.9318 174.375 87.8704C174.43 87.809 174.5 87.7637 174.579 87.7393L202.503 79.2916C202.596 79.2648 202.695 79.2648 202.788 79.2916L220.974 85.871C221.058 85.9053 221.131 85.9631 221.183 86.0377C221.235 86.1122 221.265 86.2002 221.268 86.2911C221.268 86.383 221.24 86.4726 221.187 86.5478C221.135 86.623 221.06 86.6801 220.974 86.7113L189.049 98.8331C188.999 98.8424 188.947 98.8424 188.897 98.8331ZM175.701 88.3293L188.96 97.8855L219.549 86.318L202.619 80.1855L175.701 88.3293Z" fill="#231F20"/>
<path d="M259.725 79.7031C259.725 79.7031 263.289 97.7875 253.586 99.5128C243.883 101.238 211.708 94.918 211.708 94.918C211.708 94.918 200.534 96.8936 201.247 94.024C201.96 91.1545 208.937 89.8851 208.937 89.8851C208.937 89.8851 203.181 87.0871 206.014 87.096C209.029 87.2757 212.033 87.6129 215.013 88.1061L244.774 84.1281" fill="white"/>
<path d="M249.184 100.263C236.995 100.263 213.641 95.7935 211.761 95.3734C210.077 95.6684 202.708 96.8394 201.158 95.1588C201.01 95.0017 200.906 94.8084 200.856 94.5981C200.806 94.3879 200.812 94.1682 200.873 93.961C201.47 91.6278 205.551 90.3047 207.68 89.7684C204.651 88.1593 204.793 87.5246 204.856 87.2743C204.99 86.6932 205.747 86.6932 206.068 86.6932C209.086 86.8683 212.093 87.2025 215.076 87.6944L244.774 83.7254C244.892 83.7099 245.011 83.7423 245.106 83.8152C245.2 83.8881 245.262 83.9957 245.277 84.1142C245.293 84.2328 245.26 84.3526 245.188 84.4473C245.115 84.542 245.008 84.6039 244.89 84.6193L215.129 88.5884C215.085 88.5973 215.04 88.5973 214.996 88.5884C212.045 88.102 209.071 87.7679 206.085 87.5872H205.952C206.968 88.3461 208.061 88.9963 209.213 89.527C209.296 89.5699 209.363 89.6372 209.406 89.7199C209.45 89.8025 209.467 89.8965 209.455 89.9891C209.443 90.0817 209.404 90.1685 209.341 90.2377C209.279 90.307 209.197 90.3553 209.106 90.3763C207.244 90.7249 202.29 92.1016 201.764 94.1844C201.738 94.2456 201.73 94.3134 201.743 94.3788C201.756 94.4442 201.788 94.5042 201.835 94.551C202.798 95.5969 208.402 95.0605 211.708 94.4794H211.877C212.198 94.542 244.07 100.737 253.55 99.0743C254.402 98.9289 255.215 98.6105 255.94 98.1385C256.665 97.6666 257.286 97.0512 257.765 96.3299C261.4 91.0288 259.422 80.239 259.333 79.792C259.322 79.726 259.324 79.6583 259.341 79.5935C259.358 79.5287 259.389 79.4684 259.431 79.4166C259.484 79.3496 259.555 79.2995 259.636 79.2725C259.717 79.2455 259.803 79.2427 259.886 79.2646C259.967 79.2846 260.041 79.3284 260.098 79.3904C260.155 79.4524 260.193 79.5299 260.206 79.6132L259.77 79.7026L260.215 79.6222C260.438 80.8022 262.282 91.3328 258.496 96.8394C257.951 97.6596 257.245 98.3589 256.421 98.894C255.596 99.4291 254.671 99.7887 253.702 99.9504C252.208 100.184 250.696 100.289 249.184 100.263Z" fill="#231F20"/>
<path d="M135.792 156.795C136.717 157.687 137.899 158.263 139.169 158.44C140.657 158.44 156.794 155.454 157.462 157.671C158.13 159.888 156.812 160.996 152.954 162.82C147.786 165.261 130.437 170.991 130.437 170.991L126.642 162.051L135.792 156.795Z" fill="white"/>
<path d="M130.437 171.403C130.357 171.405 130.277 171.382 130.211 171.337C130.144 171.292 130.092 171.228 130.063 171.153L126.267 162.213C126.228 162.122 126.223 162.02 126.254 161.926C126.286 161.832 126.35 161.753 126.436 161.704L135.587 156.447C135.668 156.4 135.763 156.383 135.855 156.398C135.948 156.412 136.032 156.458 136.095 156.528C136.942 157.339 138.019 157.867 139.178 158.038C140.266 157.964 141.348 157.83 142.421 157.636C152.035 156.286 157.337 155.848 157.854 157.556C158.62 160.103 157.016 161.355 153.123 163.196C147.999 165.628 130.74 171.331 130.562 171.394L130.437 171.403ZM127.158 162.222L130.669 170.491C133.164 169.66 148.097 164.663 152.775 162.446C156.74 160.568 157.622 159.612 157.07 157.779C156.669 156.447 146.03 157.94 142.537 158.432C140.577 158.709 139.534 158.825 139.16 158.843C137.886 158.685 136.69 158.142 135.73 157.288L127.158 162.222Z" fill="#231F20"/>
<path d="M85.6364 166.387C85.6364 166.387 102.931 172.35 103.671 173.485C104.41 174.62 103.1 175.952 98.4939 176.364C93.8873 176.775 74.1778 175.702 74.1778 175.702C74.1778 175.702 73.9283 170.339 75.1668 167.657C76.4054 164.975 85.6364 166.387 85.6364 166.387Z" fill="white"/>
<path d="M95.2059 176.864C88.149 176.864 74.8281 176.149 74.1598 176.113C74.0579 176.107 73.9618 176.064 73.8896 175.991C73.8174 175.919 73.7741 175.822 73.7678 175.72C73.7678 175.497 73.5361 170.231 74.7925 167.46C76.1201 164.537 84.7185 165.833 85.6986 165.985H85.761C89.8508 167.397 103.252 172.082 104.009 173.253C104.154 173.455 104.242 173.693 104.264 173.942C104.286 174.19 104.241 174.44 104.134 174.665C103.608 175.747 101.666 176.453 98.5294 176.748C97.772 176.837 96.6137 176.864 95.2059 176.864ZM74.5697 175.318C77.3141 175.461 94.2881 176.328 98.4581 175.952C102.486 175.595 103.261 174.62 103.394 174.325C103.444 174.228 103.465 174.117 103.454 174.008C103.443 173.898 103.4 173.795 103.332 173.709C102.646 172.904 92.0695 169.042 85.5115 166.79C82.0543 166.235 76.3072 166.03 75.5053 167.8C74.543 169.99 74.543 174.075 74.5697 175.318Z" fill="#231F20"/>
<path d="M40.7824 109.864C40.7824 109.864 26.6686 74.4725 28.1477 57.0138C29.6268 39.5552 40.9874 38.4914 44.9703 38.2411C48.9531 37.9908 69.8655 35.1928 77.5016 44.5881C85.1377 53.9834 83.1774 99.2346 83.1774 99.2346L40.7824 109.864Z" fill="#6F93B3"/>
<path d="M65.6954 46.3056L65.437 81.7682L50.4321 43.9277L65.6954 46.3056Z" fill="#231F20"/>
<path d="M65.4369 82.2136C65.3477 82.2138 65.2604 82.1876 65.186 82.1383C65.1115 82.089 65.0531 82.0188 65.0181 81.9365L50.0133 44.0871C49.987 44.0126 49.9798 43.9326 49.9923 43.8545C50.0047 43.7765 50.0364 43.7028 50.0845 43.6401C50.1333 43.5778 50.198 43.53 50.2718 43.5016C50.3455 43.4733 50.4255 43.4656 50.5033 43.4792L65.7666 45.8661C65.8721 45.881 65.9688 45.9334 66.0391 46.0138C66.1094 46.0942 66.1487 46.1972 66.1497 46.3041L65.8824 81.7756C65.88 81.8784 65.8423 81.9771 65.7758 82.0553C65.7093 82.1335 65.6179 82.1862 65.5171 82.2047L65.4369 82.2136ZM51.1805 44.4804L65.0449 79.4782L65.2854 46.6885L51.1805 44.4804Z" fill="#231F20"/>
<path d="M84.0415 90.2691C84.0415 90.2691 101.292 94.8997 116.715 105.412C123.79 110.231 137.004 157.502 137.004 157.502C137.004 157.502 135.525 165.691 126.098 164.412L84.8968 110.857C84.8968 110.857 76.0579 90.0635 84.0415 90.2691Z" fill="#231F20"/>
<path d="M128.022 164.985C127.357 164.983 126.694 164.936 126.035 164.842C125.92 164.824 125.815 164.763 125.741 164.672L84.5491 111.116C84.5233 111.087 84.5022 111.054 84.4868 111.018C84.2284 110.401 78.0446 95.7404 81.1187 91.1992C81.4407 90.7279 81.882 90.3512 82.3972 90.1077C82.9124 89.8642 83.4829 89.7627 84.0502 89.8136H84.1571C84.3264 89.8583 101.657 94.5872 116.965 105.011C124.093 109.874 136.888 155.42 137.458 157.36C137.471 157.425 137.471 157.491 137.458 157.556C137 159.707 135.805 161.628 134.081 162.985C132.357 164.343 130.213 165.05 128.022 164.985ZM126.338 163.984C134.616 165.012 136.344 158.441 136.54 157.512C135.845 155.035 123.175 110.338 116.466 105.77C101.692 95.7046 85.0303 90.9936 83.9789 90.7075H83.9254C83.5246 90.678 83.123 90.754 82.7604 90.9281C82.3978 91.1021 82.0868 91.3681 81.8582 91.6998C79.1406 95.7225 84.8788 109.65 85.2887 110.616L126.338 163.984Z" fill="#231F20"/>
<path d="M40.7823 109.864C40.7823 109.864 73.4651 96.5266 81.8408 95.293C81.8408 95.293 93.8251 99.7627 99.9821 111.151C106.139 122.54 85.6365 166.388 85.6365 166.388C82.263 168.39 78.2801 169.095 74.4274 168.373L74.1601 122.478C74.1601 122.478 34.6788 126.402 40.7823 109.864Z" fill="#231F20"/>
<path d="M77.4124 169.105C76.3808 169.103 75.3515 169.005 74.3384 168.81C74.2377 168.789 74.1473 168.734 74.0823 168.654C74.0174 168.575 73.9819 168.475 73.982 168.372L73.7147 122.968C69.9545 123.299 47.0284 124.962 41.1031 117.256C39.5171 115.209 39.3211 112.67 40.3636 109.711C40.3849 109.653 40.4181 109.6 40.4611 109.555C40.5041 109.511 40.5558 109.476 40.613 109.452C41.9496 108.907 73.4384 96.043 81.7784 94.8451C81.8517 94.8277 81.928 94.8277 82.0012 94.8451C82.117 94.8898 94.2082 99.5204 100.374 110.936C106.54 122.352 86.8751 164.778 86.0375 166.575C86.0045 166.652 85.9485 166.718 85.8772 166.763C83.321 168.303 80.394 169.112 77.4124 169.105ZM74.8463 167.996C78.4341 168.569 82.1093 167.894 85.2623 166.083C86.4296 163.544 105.4 122.119 99.5633 111.365C93.8607 100.835 82.9546 96.2218 81.7428 95.748C73.6612 97.0174 43.7316 109.157 41.0942 110.203C40.2032 112.778 40.417 114.959 41.7625 116.711C47.7858 124.542 73.8394 122.075 74.0711 122.075C74.1318 122.069 74.1931 122.075 74.2512 122.094C74.3094 122.112 74.3633 122.142 74.4097 122.182C74.4566 122.223 74.4944 122.274 74.5205 122.331C74.5466 122.388 74.5604 122.45 74.5611 122.513L74.8463 167.996Z" fill="#231F20"/>
<path d="M99.2421 130.039H99.1619C99.0458 130.017 98.9427 129.951 98.8745 129.854C98.8063 129.758 98.7784 129.638 98.7966 129.521C99.9461 122.959 101.131 112.607 99.6877 110.98C94.9385 105.724 83.1413 96.9635 83.0255 96.8741C82.9321 96.8045 82.8696 96.701 82.8513 96.5857C82.8329 96.4705 82.8603 96.3526 82.9275 96.2573C82.9985 96.163 83.1032 96.1 83.2195 96.0817C83.3359 96.0634 83.4548 96.091 83.5512 96.1589C83.667 96.2483 95.5355 105.098 100.347 110.382C102.583 112.849 100.008 127.965 99.7055 129.682C99.686 129.788 99.6278 129.884 99.5423 129.95C99.4567 130.016 99.3498 130.048 99.2421 130.039Z" fill="white"/>
<path d="M77.5193 44.5879C77.5193 44.5879 83.1774 55.494 86.5098 61.099C89.8422 66.704 97.0774 74.7405 97.0774 74.7405C97.0774 74.7405 122.703 83.8855 122.873 84.3771C123.042 84.8688 120.44 93.5132 120.44 93.5132C120.44 93.5132 93.5578 91.5734 89.1027 89.4637C84.6475 87.354 75.6304 76.9485 75.6304 76.9485L77.5193 44.5879Z" fill="#6F93B3"/>
<path d="M59.8856 50.2207L57.9966 53.2065L60.0638 54.4401L60.2687 68.7431L65.4367 81.7678L65.6951 69.7175L61.3914 54.0289L62.6745 52.5181L59.8856 50.2207Z" fill="#ED2D24"/>
<path d="M65.4367 82.2133C65.3475 82.2135 65.2602 82.1873 65.1857 82.138C65.1112 82.0887 65.0529 82.0185 65.0179 81.9362L59.8588 68.9115C59.8547 68.8579 59.8547 68.8041 59.8588 68.7506L59.6628 54.6889L57.8006 53.5894C57.6988 53.5233 57.6256 53.4212 57.5956 53.3033C57.5814 53.2455 57.5797 53.1853 57.5904 53.1267C57.6012 53.0682 57.6242 53.0126 57.658 52.9636L59.547 49.9779C59.5805 49.9244 59.6248 49.8785 59.6769 49.8431C59.7291 49.8077 59.788 49.7836 59.8499 49.7723C59.9129 49.7632 59.977 49.7673 60.0383 49.7842C60.0997 49.8011 60.1568 49.8305 60.2063 49.8706L62.9953 52.168C63.0407 52.2059 63.0782 52.2525 63.1055 52.305C63.1328 52.3576 63.1495 52.4151 63.1544 52.4741C63.1594 52.5332 63.1526 52.5927 63.1345 52.6491C63.1163 52.7055 63.0872 52.7577 63.0487 52.8027L61.8904 54.1347L66.1317 69.5998C66.136 69.6444 66.136 69.6893 66.1317 69.7339L65.8644 81.7753C65.8619 81.878 65.8243 81.9768 65.7577 82.055C65.6912 82.1331 65.5998 82.1859 65.499 82.2044L65.4367 82.2133ZM60.7142 68.6612L65.0446 79.5583L65.2585 69.7786L60.9637 54.1347C60.9467 54.0638 60.9458 53.99 60.9613 53.9188C60.9767 53.8476 61.008 53.7808 61.0528 53.7235L62.0419 52.5613L59.9925 50.8718L58.6203 53.0441L60.2954 54.0453C60.3604 54.084 60.4143 54.1389 60.4518 54.2047C60.4893 54.2705 60.5091 54.3449 60.5093 54.4207L60.7142 68.6612Z" fill="#231F20"/>
<path d="M49.4965 9.68013C50.0105 9.48343 50.5458 9.3484 51.0914 9.27786C53.2655 9.02756 53.3012 9.50135 54.9763 8.08892C57.5318 6.07184 60.6408 4.88657 63.8866 4.69195C70.1237 4.28074 74.6591 7.41847 73.2334 14.2839C72.5479 17.0032 71.3036 19.5487 69.5802 21.7573C66.0161 26.656 61.0887 31.09 55.0832 31.5906C53.3012 31.7247 49.9598 31.5906 48.6678 30.1335C46.8323 28.0453 45.5633 25.5184 44.9828 22.7958C44.4023 20.0733 44.5299 17.2467 45.3532 14.5879C45.6819 13.4493 46.2298 12.3863 46.966 11.4591C47.6497 10.6651 48.5192 10.0538 49.4965 9.68013Z" fill="white"/>
<path d="M53.9872 32.0279C52.4012 32.0279 49.5945 31.8134 48.3114 30.3831C46.4294 28.2422 45.1291 25.6507 44.536 22.8589C43.9429 20.067 44.0771 17.1689 44.9255 14.4441C45.2714 13.2513 45.8498 12.1392 46.6273 11.1723C47.7637 9.85583 49.3562 9.02181 51.0825 8.83913C51.532 8.78323 51.984 8.7504 52.4368 8.7408C53.3279 8.7408 53.6041 8.74079 54.7268 7.74852C57.3389 5.6603 60.5338 4.4388 63.8687 4.25322C67.5486 4.01186 70.5336 4.97731 72.2711 6.93504C73.8214 8.72292 74.3115 11.2796 73.6789 14.3279C72.9969 17.1137 71.7268 19.7201 69.9544 21.9711C66.8804 26.2441 61.8193 31.4469 55.1277 31.9475C54.9584 32.0011 54.5486 32.0279 53.9872 32.0279ZM64.929 5.10246C64.5904 5.10246 64.2429 5.10246 63.8865 5.10246C60.7342 5.30465 57.7187 6.46802 55.2436 8.43686C54.8859 8.82807 54.4486 9.13753 53.9612 9.34421C53.4739 9.5509 52.9479 9.64998 52.419 9.63473C52.0893 9.63473 51.6795 9.63473 51.127 9.72413C50.6174 9.78672 50.1175 9.91285 49.639 10.0996C48.7336 10.4437 47.9282 11.0091 47.2956 11.7444C46.5939 12.6268 46.0703 13.6379 45.7541 14.7213C44.9595 17.3021 44.8413 20.0449 45.411 22.6849C45.9806 25.3249 47.2189 27.773 49.0064 29.7931C50.0221 30.9284 52.8556 31.277 55.0564 31.0982C61.4005 30.6244 66.2655 25.6094 69.2238 21.4973C70.9172 19.3456 72.1324 16.8554 72.7879 14.1938C73.3581 11.4226 72.9393 9.13413 71.5761 7.5608C70.2128 5.98746 67.8427 5.10246 64.929 5.10246Z" fill="#231F20"/>
<path d="M65.7043 36.8652V46.3052C65.7043 46.3052 63.4946 51.499 57.3376 49.9346C51.1806 48.3702 50.4321 43.9184 50.4321 43.9184L50.7084 26.424C50.7084 26.424 55.3149 24.0283 54.0853 14.043C59.1168 16.2837 64.657 17.1236 70.1238 16.4745C70.1238 16.4745 72.0128 27.3895 71.3534 32.1989C70.6851 36.8831 65.7845 36.8027 65.7043 36.8652Z" fill="white"/>
<path d="M59.5563 50.676C58.7712 50.6689 57.99 50.5638 57.2307 50.3631C50.8688 48.7361 50.0223 44.186 49.9956 43.9983L50.2629 26.4413C50.2654 26.3604 50.2889 26.2816 50.3311 26.2126C50.3733 26.1436 50.4327 26.0868 50.5035 26.048C50.5035 26.048 54.8161 23.6254 53.6488 14.1228C53.6359 14.0421 53.6467 13.9594 53.6799 13.8848C53.7132 13.8101 53.7674 13.7468 53.8359 13.7027C53.9044 13.6608 53.983 13.6387 54.0631 13.6387C54.1433 13.6387 54.2219 13.6608 54.2903 13.7027C59.2399 15.8886 64.6805 16.7124 70.0526 16.0895C70.1651 16.0785 70.2776 16.11 70.3682 16.1777C70.4588 16.2455 70.521 16.3447 70.5427 16.456C70.6139 16.903 72.4316 27.4961 71.7634 32.3234C71.3802 35.1751 69.3843 36.9361 66.1499 37.3027V46.3404C66.1592 46.3966 66.1592 46.454 66.1499 46.5102C65.5487 47.7534 64.6123 48.8027 63.4468 49.539C62.2814 50.2753 60.9336 50.6692 59.5563 50.676ZM51.1539 26.7005L50.8777 43.9268C50.8777 44.0161 51.6707 48.021 57.4535 49.496C62.7996 50.8727 64.9559 46.8142 65.2589 46.2063V36.8646C65.2581 36.7982 65.2721 36.7325 65.2998 36.6722C65.3276 36.6118 65.3684 36.5585 65.4193 36.516C65.5399 36.434 65.6836 36.3933 65.8291 36.3998C68.7962 36.1316 70.5427 34.6655 70.8812 32.1625C71.4515 28.0057 70.0615 19.0216 69.7318 16.9655C64.5806 17.5051 59.3764 16.7557 54.5844 14.7843C55.4309 23.1784 52.0984 26.0569 51.1539 26.7005Z" fill="#231F20"/>
<path d="M54.3525 26.1911C54.1527 25.3364 53.6803 24.5706 53.0071 24.0099C52.36 23.5174 51.6337 23.1395 50.8597 22.8924C50.4499 22.7135 50.0056 22.628 49.5588 22.6421C49.2443 22.6871 48.9416 22.7934 48.6678 22.955C47.9972 23.2727 47.4628 23.8215 47.162 24.5015C46.9806 25.0797 46.9439 25.6937 47.055 26.2894C47.125 26.9351 47.2778 27.5691 47.5095 28.1756C47.7516 28.7803 48.1115 29.3304 48.5682 29.7938C49.0248 30.2572 49.5691 30.6245 50.169 30.8742C50.7689 31.124 51.4125 31.2511 52.062 31.2483C52.7115 31.2454 53.3539 31.1125 53.9516 30.8574" fill="white"/>
<path d="M52.0182 31.6358C50.9632 31.6337 49.9324 31.3186 49.0556 30.73C48.1788 30.1415 47.4952 29.3058 47.0908 28.3282C46.838 27.6865 46.6761 27.0125 46.6096 26.3258C46.488 25.6641 46.5309 24.9824 46.7344 24.3413C47.0739 23.5597 47.6807 22.9257 48.4451 22.5534C48.7645 22.362 49.1191 22.2374 49.4876 22.1869C50.004 22.1643 50.5187 22.259 50.9935 22.464C51.8151 22.7286 52.5863 23.1306 53.2745 23.6529C54.0178 24.2784 54.5398 25.1282 54.7625 26.0755C54.777 26.1325 54.78 26.1918 54.7711 26.2499C54.7623 26.3081 54.7419 26.3638 54.7111 26.4139C54.6804 26.4639 54.6399 26.5073 54.5921 26.5413C54.5442 26.5753 54.4901 26.5993 54.4328 26.6119C54.3182 26.6387 54.1977 26.6191 54.0975 26.5571C53.9974 26.4951 53.9257 26.3959 53.8982 26.2811C53.7177 25.5229 53.2991 24.8428 52.7042 24.3413C52.0928 23.8843 51.409 23.5337 50.6816 23.3043C50.3379 23.1465 49.9636 23.0671 49.5857 23.0719C49.333 23.1141 49.0909 23.2052 48.8728 23.3401C48.3014 23.6093 47.8392 24.0667 47.563 24.6363C47.4227 25.1427 47.3983 25.6745 47.4917 26.1917C47.5489 26.805 47.6929 27.4071 47.9194 27.9796C48.1444 28.5237 48.4743 29.0178 48.8902 29.4336C49.3061 29.8493 49.7999 30.1785 50.343 30.4022C51.4431 30.849 52.6734 30.849 53.7735 30.4022C53.8264 30.3774 53.8839 30.3637 53.9424 30.3621C54.0008 30.3604 54.0589 30.3708 54.1132 30.3926C54.1675 30.4144 54.2167 30.4471 54.2579 30.4887C54.2991 30.5303 54.3313 30.58 54.3526 30.6346C54.3762 30.6886 54.389 30.7467 54.3901 30.8056C54.3912 30.8645 54.3807 30.9231 54.3592 30.9779C54.3376 31.0328 54.3055 31.0828 54.2646 31.1251C54.2237 31.1675 54.1749 31.2013 54.121 31.2246C53.4549 31.5026 52.7396 31.6425 52.0182 31.6358Z" fill="#231F20"/>
<path d="M65.3387 22.7754C65.3387 22.7754 68.689 27.549 67.9405 28.4072C67.192 29.2654 65.0269 28.7558 65.0269 28.7558" fill="white"/>
<path d="M66.3457 29.3558C65.8691 29.3519 65.3943 29.298 64.929 29.1949C64.8704 29.182 64.8151 29.1576 64.7659 29.1233C64.7168 29.0889 64.6749 29.0451 64.6426 28.9945C64.6104 28.9438 64.5884 28.8873 64.5779 28.8281C64.5674 28.769 64.5686 28.7083 64.5815 28.6496C64.5943 28.5909 64.6186 28.5353 64.6529 28.486C64.6872 28.4368 64.7308 28.3947 64.7812 28.3623C64.8317 28.33 64.888 28.3079 64.947 28.2974C65.006 28.2868 65.0665 28.2881 65.125 28.301C65.8645 28.4708 67.1922 28.5602 67.602 28.0864C67.7891 27.6484 66.5595 25.2705 64.929 23.0088C64.8688 22.9115 64.8481 22.7948 64.8712 22.6826C64.8943 22.5705 64.9595 22.4715 65.0532 22.4061C65.1469 22.3408 65.2621 22.314 65.3749 22.3313C65.4878 22.3487 65.5897 22.4088 65.6596 22.4993C66.9872 24.3855 69.0811 27.6931 68.2347 28.6764C67.9817 28.9116 67.684 29.093 67.3594 29.2098C67.0347 29.3265 66.6899 29.3762 66.3457 29.3558Z" fill="#231F20"/>
<path d="M63.4824 21.7874C63.5206 21.1665 63.1932 20.6409 62.7512 20.6136C62.3091 20.5862 61.9198 21.0674 61.8816 21.6883C61.8434 22.3092 62.1709 22.8347 62.6129 22.862C63.055 22.8894 63.4443 22.4082 63.4824 21.7874Z" fill="#231F20"/>
<path d="M69.6341 22.8802C70.0759 22.8491 70.3988 22.3208 70.3554 21.7002C70.3119 21.0797 69.9185 20.6019 69.4767 20.6331C69.0349 20.6642 68.712 21.1925 68.7555 21.813C68.7989 22.4336 69.1923 22.9114 69.6341 22.8802Z" fill="#231F20"/>
<path d="M65.4994 32.2168C63.646 32.2168 61.2135 31.9308 59.6097 30.6346C59.5173 30.5592 59.4581 30.4505 59.4448 30.3318C59.4314 30.2131 59.4651 30.0939 59.5384 29.9999C59.5747 29.9539 59.6199 29.9157 59.6712 29.8876C59.7225 29.8595 59.7789 29.842 59.8371 29.8362C59.8952 29.8303 59.954 29.8363 60.0098 29.8536C60.0657 29.871 60.1175 29.8995 60.1621 29.9373C62.7015 31.9844 67.923 31.153 67.9764 31.1441C68.0946 31.1251 68.2154 31.154 68.3123 31.2244C68.4092 31.2949 68.4743 31.401 68.4932 31.5196C68.5121 31.6381 68.4833 31.7593 68.4131 31.8566C68.343 31.9538 68.2371 32.0191 68.119 32.038C67.2515 32.1636 66.3758 32.2234 65.4994 32.2168Z" fill="#231F20"/>
<path d="M71.5317 27.7458C70.6551 27.7485 69.7887 27.5584 68.9933 27.1888C68.1979 26.8193 67.4929 26.2792 66.928 25.6068C66.3631 24.9344 65.952 24.1459 65.7237 23.2968C65.4953 22.4478 65.4553 21.5588 65.6064 20.6926C65.8846 19.1234 66.7712 17.7287 68.0721 16.8139C69.3731 15.8991 70.9823 15.5387 72.5474 15.8117C74.034 16.058 75.3734 16.8577 76.2983 18.051C77.2232 19.2443 77.6657 20.7436 77.5375 22.2498C77.4093 23.7559 76.7199 25.1582 75.6067 26.1769C74.4935 27.1957 73.0384 27.7558 71.5317 27.7458ZM66.4885 20.8535C66.3126 21.8511 66.4361 22.8786 66.8433 23.8057C67.2504 24.7328 67.9229 25.5176 68.7754 26.0606C69.6278 26.6037 70.6218 26.8804 71.6313 26.8558C72.6408 26.8311 73.6202 26.5061 74.4453 25.9221C74.9956 25.535 75.4643 25.0428 75.8248 24.4737C76.1853 23.9047 76.4305 23.2699 76.5464 22.6058C76.6622 21.9416 76.6465 21.261 76.5 20.603C76.3535 19.9449 76.0792 19.3223 75.6928 18.7706C75.1119 17.9426 74.2994 17.3058 73.3579 16.9408C72.4165 16.5758 71.3884 16.499 70.4034 16.7199C69.4184 16.9409 68.5209 17.4498 67.8241 18.1824C67.1272 18.9149 66.6625 19.8382 66.4885 20.8356V20.8535Z" fill="#231F20"/>
<path d="M59.8946 27.3166C59.5452 27.318 59.1963 27.288 58.8521 27.2272C58.0544 27.1161 57.2872 26.8449 56.5963 26.4299C55.9053 26.0148 55.3048 25.4644 54.8305 24.8114C54.3562 24.1584 54.0178 23.4162 53.8356 22.6292C53.6535 21.8422 53.6311 21.0264 53.77 20.2305C53.9089 19.4347 54.2062 18.675 54.6441 17.9969C55.082 17.3188 55.6515 16.7362 56.3188 16.2837C56.986 15.8313 57.7372 15.5183 58.5276 15.3635C59.318 15.2086 60.1315 15.2151 60.9193 15.3825C62.0861 15.5885 63.166 16.1365 64.0227 16.9576C64.8793 17.7787 65.4744 18.836 65.7327 19.996C65.991 21.156 65.9011 22.3668 65.4741 23.4756C65.0472 24.5844 64.3025 25.5414 63.334 26.226C62.326 26.9345 61.1254 27.3152 59.8946 27.3166ZM59.8946 16.1871C58.9641 16.1912 58.0523 16.4504 57.2579 16.9367C56.4635 17.4229 55.8167 18.1178 55.3874 18.9461C54.9581 19.7744 54.7626 20.7047 54.822 21.6364C54.8814 22.5682 55.1936 23.4659 55.7246 24.2325C56.1097 24.7857 56.6001 25.257 57.1675 25.6192C57.7349 25.9814 58.3682 26.2274 59.0309 26.3429C59.6935 26.4584 60.3723 26.4412 61.0283 26.2922C61.6843 26.1433 62.3044 25.8656 62.8528 25.4751C63.4031 25.0879 63.8718 24.5957 64.2323 24.0267C64.5928 23.4576 64.838 22.8229 64.9539 22.1587C65.0697 21.4945 65.054 20.814 64.9075 20.1559C64.761 19.4979 64.4867 18.8752 64.1003 18.3236C63.6314 17.6466 63.0048 17.0949 62.2749 16.7163C61.5451 16.3377 60.7341 16.1437 59.9125 16.1513L59.8946 16.1871Z" fill="#231F20"/>
<path d="M65.7042 36.8637C65.7042 36.8637 59.8501 38.2225 56.4019 36.2559C56.4019 36.2559 60.2154 44.1672 65.7042 43.3448V36.8637Z" fill="#231F20"/>
<path d="M64.8847 43.8454C59.6276 43.8454 56.1526 36.7564 55.9744 36.4436C55.9292 36.3589 55.9143 36.2613 55.9321 36.167C55.95 36.0726 55.9995 35.9872 56.0724 35.9251C56.1397 35.859 56.2268 35.8171 56.3202 35.8058C56.4137 35.7945 56.5082 35.8144 56.5892 35.8625C59.8504 37.7308 65.4995 36.4436 65.5707 36.4346C65.636 36.4184 65.704 36.4173 65.7698 36.4312C65.8355 36.4451 65.8973 36.4738 65.9504 36.5151C66.0036 36.5564 66.0467 36.6092 66.0766 36.6695C66.1065 36.7299 66.1225 36.7963 66.1232 36.8637V43.3358C66.1221 43.4427 66.0828 43.5457 66.0125 43.6261C65.9422 43.7065 65.8456 43.7589 65.74 43.7739C65.457 43.8182 65.1711 43.8421 64.8847 43.8454ZM57.4446 37.2034C58.6742 39.2237 61.5879 43.2017 65.2589 42.9336V37.418C63.8956 37.6683 60.3048 38.1778 57.4446 37.2034Z" fill="#231F20"/>
<path d="M33.8588 42.5135C29.074 43.4074 9.6942 88.3189 16.3323 93.468C26.6861 101.513 62.7102 93.3786 62.7102 93.3786L59.7788 79.4332C59.7788 79.4332 36.6121 80.0857 36.2824 75.3121C35.9527 70.5385 49.7547 48.4939 47.9459 45.1506C46.1371 41.8072 33.8588 42.5135 33.8588 42.5135Z" fill="#6F93B3"/>
<path d="M45.1483 97.9837C45.0898 97.989 45.0308 97.9826 44.9747 97.9651C44.9187 97.9475 44.8666 97.919 44.8215 97.8812C44.7764 97.8435 44.7392 97.7971 44.7119 97.7449C44.6847 97.6927 44.6679 97.6356 44.6627 97.5769C44.6574 97.5182 44.6637 97.4591 44.6812 97.4028C44.6988 97.3466 44.7272 97.2943 44.7648 97.2491C44.8025 97.2039 44.8486 97.1665 44.9007 97.1392C44.9527 97.1118 45.0096 97.095 45.0681 97.0897L55.9653 95.2125L56.3039 82.4738L35.8103 80.3552C35.7461 80.3508 35.6837 80.3315 35.6281 80.299C35.5724 80.2664 35.525 80.2214 35.4896 80.1675C35.4517 80.1136 35.4264 80.0519 35.4156 79.9869C35.4048 79.9219 35.4088 79.8553 35.4272 79.792L44.5513 48.4058C44.5844 48.292 44.6612 48.196 44.7648 48.139C44.8684 48.082 44.9903 48.0687 45.1037 48.1019C45.2158 48.1371 45.31 48.2144 45.3665 48.3178C45.423 48.4211 45.4374 48.5424 45.4067 48.6561L36.4964 79.5328L56.8207 81.6335C56.9325 81.6448 57.036 81.698 57.1104 81.7825C57.1847 81.8671 57.2245 81.9767 57.2217 82.0894L56.8653 95.6058C56.8625 95.7099 56.8235 95.8096 56.7552 95.888C56.6869 95.9663 56.5935 96.0183 56.491 96.0349L45.2374 97.9837H45.1483Z" fill="#231F20"/>
<path d="M57.2482 84.0921C61.1005 84.3254 64.9666 84.1365 68.7781 83.5289C71.5924 82.8433 74.4805 82.51 77.3765 82.5366C81.1981 82.7219 84.9568 83.5844 88.4787 85.0844C88.6242 85.1311 88.7538 85.2178 88.8529 85.3347C89.1915 85.8084 88.3806 86.2286 87.8015 86.2912C86.2692 86.3268 84.7403 86.1309 83.2662 85.7101C86.9099 87.0665 90.3562 88.9065 93.5129 91.181C93.8783 91.4403 94.2703 91.8425 94.0921 92.2537C93.9139 92.665 93.2011 92.5845 92.711 92.37L84.4245 88.5707C86.5717 89.4268 88.5621 90.6353 90.3142 92.1465C90.5637 92.37 90.831 92.656 90.7597 92.9868C90.6439 93.541 89.8152 93.4337 89.2984 93.1834C86.7797 91.9245 84.3739 90.45 82.1078 88.7763L87.2223 92.7007C87.2847 93.1209 86.8481 93.4784 86.4204 93.4963C85.9975 93.4664 85.5908 93.3212 85.2442 93.0762L79.5417 89.7686L83.1058 92.2716C83.6671 92.665 84.2998 93.2997 83.9968 93.9254C83.6939 94.5512 82.5801 94.435 81.8405 94.1042C78.9041 92.825 75.8349 91.8776 72.6897 91.2794C71.5892 90.9159 70.4496 90.6848 69.2949 90.591C67.5327 90.8113 65.794 91.1913 64.1002 91.7263C61.5251 92.3074 58.9501 92.9063 56.375 93.5142" fill="white"/>
<path d="M83.1238 94.837C82.6309 94.8123 82.1472 94.694 81.6982 94.4884C78.7914 93.2166 75.7519 92.2751 72.6365 91.6814C72.2444 91.6099 71.8613 91.4937 71.4781 91.3864C70.7902 91.1464 70.068 91.0196 69.3397 91.011C68.1502 91.1119 66.9757 91.3458 65.838 91.7082C65.2855 91.8602 64.742 92.0122 64.2163 92.1284C61.6412 92.7184 59.0662 93.3084 56.4911 93.9163C56.3862 93.9382 56.2769 93.9188 56.1857 93.8623C56.0945 93.8057 56.0284 93.7163 56.001 93.6123C55.9878 93.5601 55.9853 93.5057 55.9934 93.4524C56.0016 93.3991 56.0204 93.348 56.0487 93.3021C56.0769 93.2562 56.1141 93.2165 56.158 93.1854C56.2018 93.1542 56.2515 93.1322 56.304 93.1207C58.879 92.5128 61.463 91.9228 64.0381 91.3328C64.546 91.2166 65.0806 91.0735 65.6241 90.9216C66.8221 90.5378 68.0596 90.2918 69.313 90.1886C70.1246 90.2089 70.929 90.3474 71.7009 90.5998C72.0662 90.707 72.4226 90.8143 72.7969 90.8858C75.9735 91.4865 79.0729 92.443 82.0368 93.7375C82.4627 93.9737 82.9566 94.0558 83.4357 93.9699C83.4836 93.9551 83.5277 93.9297 83.5647 93.8957C83.6017 93.8617 83.6307 93.8199 83.6496 93.7732C83.8367 93.3442 83.0971 92.781 82.8655 92.6111L79.3013 90.117C79.2143 90.0555 79.1539 89.9631 79.1324 89.8584C79.1108 89.7538 79.1298 89.6449 79.1855 89.5538C79.2438 89.4657 79.3338 89.4035 79.4367 89.3801C79.5396 89.3568 79.6475 89.3742 79.738 89.4287L85.4405 92.7363C85.7206 92.9453 86.0546 93.0694 86.4028 93.0939C86.4712 93.0897 86.538 93.0717 86.5992 93.041C86.6605 93.0103 86.7149 92.9674 86.7592 92.9151L81.8319 89.1337C81.7821 89.1043 81.739 89.0647 81.7055 89.0175C81.6721 88.9703 81.6489 88.9165 81.6376 88.8596C81.6263 88.8028 81.6271 88.7442 81.64 88.6877C81.6528 88.6312 81.6775 88.578 81.7122 88.5318C81.747 88.4855 81.7911 88.4471 81.8417 88.4191C81.8923 88.3911 81.9482 88.3742 82.0058 88.3694C82.0633 88.3646 82.1213 88.3721 82.1758 88.3914C82.2302 88.4106 82.2801 88.4412 82.3219 88.4811C84.5674 90.1425 86.9524 91.6051 89.4501 92.8525C89.7041 92.9971 90.0027 93.0417 90.2877 92.9776C90.3412 92.8882 90.2877 92.7631 90.0115 92.4949C88.813 91.4511 87.4973 90.5511 86.091 89.8131L84.2198 88.9192C84.1326 88.869 84.0667 88.7885 84.0348 88.6928C84.0029 88.5972 84.0072 88.4931 84.0468 88.4003C84.0864 88.3076 84.1586 88.2328 84.2496 88.19C84.3407 88.1472 84.4442 88.1394 84.5406 88.1683C85.191 88.4275 85.8237 88.7225 86.4474 89.0622L92.8449 92.0032C93.0849 92.132 93.3601 92.179 93.629 92.1373C93.736 91.9764 93.5488 91.7261 93.2459 91.5116C90.1166 89.2585 86.7002 87.4365 83.0882 86.0943C82.9895 86.058 82.909 85.9842 82.8641 85.8889C82.8191 85.7936 82.8132 85.6844 82.8476 85.5848C82.8805 85.4843 82.9506 85.4003 83.0436 85.3504C83.1365 85.3004 83.245 85.2883 83.3466 85.3166C84.7762 85.7304 86.2609 85.9203 87.7483 85.8798C87.8877 85.8795 88.0256 85.85 88.153 85.793C88.2804 85.736 88.3944 85.6529 88.4878 85.549L88.2829 85.4596C84.8075 83.9741 81.0965 83.1206 77.3233 82.9387C74.8142 82.8963 72.3095 83.1636 69.8654 83.7343L68.814 83.931C64.9846 84.5385 61.101 84.7304 57.2306 84.5031C57.1768 84.5008 57.1239 84.4879 57.0751 84.4651C57.0262 84.4422 56.9823 84.41 56.9459 84.3701C56.9095 84.3303 56.8813 84.2836 56.8629 84.2328C56.8445 84.182 56.8362 84.128 56.8386 84.074C56.8385 84.02 56.8494 83.9666 56.8708 83.917C56.8921 83.8675 56.9234 83.8228 56.9627 83.7859C57.002 83.7491 57.0484 83.7207 57.0991 83.7026C57.1498 83.6844 57.2037 83.677 57.2574 83.6807C61.0768 83.9079 64.9095 83.7221 68.6892 83.1264L69.7406 82.9298C72.2458 82.3445 74.8139 82.0742 77.3856 82.1252C81.2565 82.314 85.0634 83.1887 88.6304 84.7087C88.8446 84.7817 89.0334 84.9152 89.1739 85.0931C89.2606 85.2101 89.3131 85.3489 89.3257 85.4942C89.3383 85.6394 89.3104 85.7853 89.2452 85.9155C89.0842 86.1515 88.869 86.3454 88.6178 86.4807C88.3667 86.616 88.0868 86.6889 87.8017 86.6932C87.4097 86.6932 87.0176 86.6932 86.6345 86.6932C89.1354 87.8547 91.522 89.2494 93.7627 90.859C94.4399 91.3417 94.6983 91.9139 94.4755 92.4234C94.4277 92.5366 94.3571 92.6387 94.2682 92.7233C94.1793 92.8079 94.0739 92.8732 93.9587 92.9151C93.4856 93.0351 92.985 92.9779 92.5509 92.7542L90.5639 91.8602C90.7582 91.9963 90.9138 92.1808 91.0154 92.3955C91.1169 92.6103 91.1609 92.8479 91.1431 93.0849C91.1148 93.2176 91.0568 93.3421 90.9734 93.449C90.8901 93.5559 90.7835 93.6423 90.6619 93.7017C90.4067 93.79 90.1358 93.8229 89.867 93.7982C89.5982 93.7735 89.3376 93.6919 89.1026 93.5587C88.6037 93.3173 88.1136 93.0581 87.6146 92.7899C87.6177 93.0325 87.5321 93.2678 87.374 93.4514C87.2555 93.5904 87.1096 93.7035 86.9456 93.7835C86.7816 93.8634 86.6029 93.9086 86.4206 93.9163C85.9196 93.8988 85.4341 93.7375 85.0217 93.4514L84.3356 93.0492C84.4146 93.2137 84.4556 93.394 84.4556 93.5766C84.4556 93.7592 84.4146 93.9395 84.3356 94.104C84.2748 94.2494 84.1849 94.3807 84.0715 94.4899C83.9581 94.5991 83.8236 94.6838 83.6763 94.7387C83.4988 94.8019 83.3121 94.8351 83.1238 94.837Z" fill="#231F20"/>
<path d="M72.6362 50.2285C72.6362 50.2285 76.8775 67.5799 80.6555 79.9252Z" fill="white"/>
<path d="M80.6914 80.3281C80.6054 80.3279 80.5217 80.3 80.4527 80.2485C80.3838 80.197 80.3331 80.1246 80.3083 80.042C76.5303 67.8397 72.289 50.542 72.2356 50.3274C72.2223 50.2746 72.2196 50.2196 72.2277 50.1658C72.2358 50.1119 72.2545 50.0601 72.2827 50.0136C72.3109 49.967 72.348 49.9265 72.3919 49.8944C72.4358 49.8624 72.4857 49.8394 72.5385 49.8268C72.6436 49.8026 72.754 49.8209 72.8458 49.8778C72.9375 49.9347 73.0032 50.0256 73.0286 50.1308C73.0731 50.3006 77.3144 67.6162 81.0478 79.8006C81.0786 79.9038 81.0679 80.0149 81.0179 80.1102C80.9679 80.2054 80.8827 80.2773 80.7805 80.3102C80.7519 80.3206 80.7218 80.3266 80.6914 80.3281Z" fill="#231F20"/>
<path d="M123.505 100.861L123.282 103.293L68.7783 111.285L69.3218 108.737L123.505 100.861Z" fill="white"/>
<path d="M68.7783 111.732C68.7166 111.731 68.6557 111.718 68.5991 111.694C68.5425 111.669 68.4913 111.634 68.4486 111.589C68.3997 111.537 68.3643 111.475 68.3456 111.406C68.327 111.337 68.3256 111.265 68.3417 111.196L68.8852 108.639C68.9077 108.551 68.955 108.471 69.0213 108.41C69.0877 108.348 69.1703 108.306 69.2595 108.29L123.443 100.424C123.508 100.415 123.575 100.421 123.638 100.441C123.701 100.461 123.759 100.495 123.808 100.54C123.857 100.587 123.894 100.644 123.919 100.708C123.944 100.771 123.954 100.839 123.951 100.906L123.728 103.329C123.719 103.428 123.678 103.522 123.61 103.595C123.542 103.668 123.452 103.716 123.354 103.731L68.8407 111.777L68.7783 111.732ZM69.6693 109.131L69.3218 110.749L122.846 102.9L122.979 101.389L69.6693 109.131Z" fill="#231F20"/>
<path d="M123.505 100.861C123.505 100.861 111.093 90.1875 110.683 90.2858C110.273 90.3842 54.5483 97.0887 54.5483 97.0887L69.3483 108.71L123.505 100.861Z" fill="white"/>
<path d="M69.3219 109.184C69.224 109.185 69.1292 109.15 69.0546 109.086L54.2458 97.4649C54.1764 97.4103 54.1247 97.3362 54.0972 97.2521C54.0698 97.168 54.0679 97.0776 54.0918 96.9923C54.1157 96.9071 54.1642 96.8309 54.2313 96.7734C54.2983 96.7159 54.3809 96.6797 54.4685 96.6693C55.021 96.6068 109.712 90.0274 110.603 89.8754C110.853 89.8217 111.218 89.7234 123.799 100.549C123.864 100.605 123.912 100.679 123.937 100.761C123.963 100.843 123.964 100.931 123.942 101.014C123.917 101.096 123.869 101.17 123.805 101.227C123.74 101.284 123.661 101.321 123.576 101.336L69.4021 109.202L69.3219 109.184ZM55.6447 97.4024L69.4467 108.264L122.472 100.567C118.016 96.7677 111.583 91.3146 110.621 90.7336C107.716 91.1448 66.6221 96.0793 55.6447 97.4024Z" fill="#231F20"/>
<path d="M68.778 111.286L54.2988 99.5124L54.5216 97.0898L69.3215 108.738L68.778 111.286Z" fill="white"/>
<path d="M68.7784 111.732C68.675 111.732 68.5747 111.698 68.4932 111.634L54.023 99.8609C53.9666 99.8147 53.922 99.7558 53.8926 99.689C53.8631 99.6222 53.8498 99.5494 53.8537 99.4765L54.0764 97.045C54.0858 96.9657 54.1157 96.8902 54.1633 96.8261C54.2109 96.7621 54.2744 96.7117 54.3475 96.68C54.4206 96.6483 54.5007 96.6364 54.5798 96.6456C54.6589 96.6547 54.7342 96.6846 54.7982 96.7321L69.5981 108.353C69.6632 108.406 69.7126 108.475 69.7409 108.554C69.7692 108.633 69.7753 108.718 69.7585 108.8L69.215 111.357C69.1975 111.431 69.1612 111.5 69.1098 111.556C69.0583 111.613 68.9933 111.655 68.9209 111.679C68.8772 111.706 68.8289 111.724 68.7784 111.732ZM54.7625 99.3156L68.4932 110.454L68.8318 108.89L54.8873 97.9389L54.7625 99.3156Z" fill="#231F20"/>
<path d="M123.505 100.863L133.975 65.6504L76.5213 75.4748L69.3218 108.738L123.505 100.863Z" fill="white"/>
<path d="M69.3219 109.185C69.2615 109.184 69.202 109.171 69.1468 109.147C69.0917 109.122 69.0421 109.086 69.0011 109.042C68.9524 108.988 68.9166 108.924 68.8965 108.854C68.8764 108.785 68.8726 108.711 68.8853 108.64L76.0848 75.3853C76.1017 75.2977 76.1449 75.2173 76.2086 75.155C76.2723 75.0927 76.3534 75.0514 76.4412 75.0366L133.903 65.2033C133.978 65.1888 134.055 65.1941 134.126 65.2184C134.198 65.2428 134.262 65.2855 134.313 65.3423C134.363 65.3992 134.398 65.4681 134.414 65.5425C134.429 65.6169 134.425 65.6941 134.402 65.7665L123.933 100.988C123.905 101.068 123.857 101.139 123.793 101.194C123.729 101.249 123.651 101.286 123.567 101.301L69.3931 109.167L69.3219 109.185ZM76.8956 75.868L69.901 108.202L123.158 100.46L133.342 66.2135L76.8956 75.868Z" fill="#231F20"/>
<path d="M154.308 48.0028C154.2 48.0033 154.095 47.9634 154.014 47.8907C153.933 47.8179 153.882 47.7177 153.871 47.6094C153.568 44.6505 155.769 41.0122 155.867 40.8602C155.897 40.8095 155.937 40.7653 155.985 40.7302C156.032 40.6951 156.086 40.6697 156.143 40.6556C156.2 40.6414 156.26 40.6388 156.318 40.6478C156.376 40.6569 156.432 40.6774 156.482 40.7082C156.581 40.7725 156.651 40.8727 156.678 40.9878C156.704 41.1028 156.685 41.2237 156.625 41.325C156.625 41.325 154.486 44.9008 154.753 47.5111C154.76 47.5699 154.754 47.6292 154.737 47.6858C154.72 47.7424 154.693 47.7951 154.655 47.8408C154.618 47.8866 154.572 47.9244 154.52 47.9522C154.468 47.98 154.411 47.9972 154.353 48.0028H154.308Z" fill="#231F20"/>
<path d="M190.742 95.0153C190.657 95.0137 190.573 94.989 190.501 94.9438L180.548 88.5254C180.448 88.4613 180.377 88.3599 180.351 88.2434C180.325 88.1269 180.346 88.0048 180.41 87.9041C180.474 87.8033 180.575 87.7321 180.691 87.7061C180.807 87.6801 180.929 87.7015 181.03 87.7655L190.982 94.184C191.082 94.2498 191.152 94.3523 191.177 94.4694C191.202 94.5865 191.18 94.7087 191.116 94.8097C191.074 94.8711 191.018 94.9216 190.953 94.9574C190.888 94.9931 190.816 95.0129 190.742 95.0153Z" fill="#D1D3D4"/>
<path d="M194.341 93.4059C194.257 93.4084 194.174 93.3867 194.101 93.3434L184.647 87.2109C184.548 87.1458 184.478 87.0437 184.454 86.9271C184.43 86.8106 184.453 86.6892 184.518 86.5897C184.583 86.4901 184.685 86.4205 184.801 86.3962C184.917 86.3719 185.038 86.3948 185.137 86.46L194.582 92.5478C194.682 92.6136 194.752 92.7161 194.777 92.8332C194.802 92.9503 194.78 93.0725 194.716 93.1735C194.677 93.2404 194.623 93.2966 194.558 93.3372C194.493 93.3777 194.418 93.4014 194.341 93.4059Z" fill="#D1D3D4"/>
<path d="M197.808 92.2179C197.723 92.215 197.64 92.1904 197.567 92.1464L188.006 85.9961C187.907 85.9309 187.838 85.8288 187.814 85.7123C187.789 85.5958 187.812 85.4744 187.877 85.3748C187.942 85.2752 188.044 85.2056 188.16 85.1813C188.276 85.157 188.397 85.18 188.497 85.2452L198.022 91.3955C198.121 91.4596 198.19 91.5606 198.216 91.6762C198.241 91.7918 198.219 91.9127 198.155 92.0123C198.119 92.0726 198.068 92.1229 198.007 92.1588C197.947 92.1947 197.878 92.215 197.808 92.2179Z" fill="#D1D3D4"/>
<path d="M202.165 91.0383C202.086 91.0399 202.009 91.0181 201.942 90.9757L191.686 84.9148C191.63 84.8891 191.579 84.8516 191.537 84.805C191.496 84.7583 191.465 84.7034 191.446 84.6438C191.427 84.5842 191.42 84.5213 191.427 84.4592C191.434 84.397 191.453 84.3369 191.485 84.2829C191.516 84.2288 191.558 84.1819 191.609 84.1453C191.659 84.1086 191.717 84.0831 191.778 84.0702C191.839 84.0573 191.902 84.0573 191.963 84.0704C192.024 84.0835 192.081 84.1093 192.132 84.146L202.388 90.2069C202.471 90.2567 202.536 90.3326 202.573 90.4229C202.61 90.5133 202.616 90.6132 202.591 90.7074C202.565 90.8016 202.51 90.8849 202.433 90.9447C202.356 91.0044 202.262 91.0373 202.165 91.0383Z" fill="#D1D3D4"/>
<path d="M205.274 89.9726C205.193 89.9744 205.112 89.9527 205.043 89.9101L194.787 83.8492C194.687 83.7863 194.615 83.6868 194.586 83.5716C194.558 83.4564 194.576 83.3347 194.635 83.2323C194.664 83.181 194.703 83.1361 194.749 83.1003C194.795 83.0646 194.849 83.0388 194.906 83.0245C194.962 83.0103 195.021 83.0079 195.079 83.0175C195.137 83.0271 195.192 83.0485 195.241 83.0804L205.497 89.1413C205.581 89.1911 205.646 89.2669 205.682 89.3573C205.719 89.4476 205.725 89.5475 205.7 89.6417C205.675 89.7359 205.619 89.8193 205.543 89.879C205.466 89.9388 205.371 89.9717 205.274 89.9726Z" fill="#D1D3D4"/>
</svg>
