<svg width="314" height="177" viewBox="0 0 314 177" fill="none" xmlns="http://www.w3.org/2000/svg">
<g clip-path="url(#clip0_836_94481)">
<path d="M141.251 148.981C122.873 153.282 104.178 156.102 85.3458 157.411C80.5675 157.703 75.7113 157.878 70.8745 157.878C66.0377 157.878 61.1814 157.703 56.4129 157.411C37.5779 156.101 18.8791 153.282 0.497532 148.981C0.497532 148.981 -0.214332 125.459 14.7933 109.405C29.8009 93.3514 55.506 91.9512 70.8745 91.9512C86.2429 91.9512 111.958 93.3806 126.965 109.405C141.973 125.43 141.251 148.981 141.251 148.981Z" fill="#6F93B3"/>
<path d="M142.931 147.918C142.827 147.918 142.726 147.88 142.65 147.811C142.573 147.742 142.528 147.647 142.522 147.547C142.522 147.251 140.945 117.929 124.511 106.184C109.473 95.4238 86.0397 92.9594 85.8033 92.9367C85.7413 92.9455 85.678 92.9405 85.6183 92.9221C85.5586 92.9037 85.5041 92.8724 85.459 92.8306C85.4138 92.7887 85.3793 92.7375 85.358 92.6808C85.3366 92.6241 85.3291 92.5635 85.336 92.5035C85.3428 92.4436 85.3639 92.386 85.3975 92.3351C85.4311 92.2842 85.4764 92.2414 85.5299 92.21C85.5834 92.1786 85.6437 92.1594 85.7061 92.154C85.7686 92.1485 85.8315 92.1569 85.89 92.1784C86.1264 92.1784 109.78 94.6883 125 105.577C141.726 117.542 143.318 147.236 143.333 147.532C143.336 147.634 143.297 147.734 143.225 147.81C143.153 147.887 143.054 147.933 142.947 147.941L142.931 147.918Z" fill="#231F20"/>
<path d="M85.3455 99.7988V157.412C80.5672 157.704 75.7109 157.879 70.8742 157.879C66.0374 157.879 61.1811 157.704 56.4126 157.412V99.7988H85.3455Z" fill="#231F20" fill-opacity="0.87"/>
<path d="M71.2447 79.5144C85.7806 79.5144 97.5642 66.0491 97.5642 49.4389C97.5642 32.8286 85.7806 19.3633 71.2447 19.3633C56.7089 19.3633 44.9253 32.8286 44.9253 49.4389C44.9253 66.0491 56.7089 79.5144 71.2447 79.5144Z" fill="white"/>
<path d="M71.245 80.0218C56.4616 80.0218 44.4282 66.3016 44.4282 49.4406C44.4282 31.5294 46.3785 18.8594 71.245 18.8594C96.1115 18.8594 98.0715 31.5003 98.0715 49.4406C98.0715 66.3016 86.0381 80.0218 71.245 80.0218ZM71.245 19.8609C47.2269 19.8609 45.4326 31.5294 45.4326 49.4406C45.4326 65.7473 57.0175 79.0203 71.245 79.0203C85.4725 79.0203 97.0671 65.7473 97.0671 49.4406C97.0671 31.6169 95.2631 19.8609 71.245 19.8609Z" fill="#231F20"/>
<path d="M87.8613 59.8143C89.1485 51.8019 102.489 49.828 101.826 59.2697C101.726 62.552 100.465 65.6932 98.2662 68.1378C95.9844 70.4521 92.2983 71.5508 89.3241 70.2187" fill="white"/>
<path d="M92.113 71.2606C91.0822 71.2664 90.0618 71.0543 89.1192 70.6383C89.0591 70.6115 89.0048 70.5731 88.9594 70.5254C88.9141 70.4776 88.8787 70.4214 88.8551 70.36C88.8316 70.2986 88.8204 70.2332 88.8222 70.1675C88.824 70.1018 88.8388 70.0371 88.8657 69.9771C88.8926 69.9171 88.9311 69.8629 88.979 69.8177C89.0268 69.7725 89.0832 69.7372 89.1448 69.7137C89.2063 69.6903 89.2719 69.6791 89.3378 69.6809C89.4037 69.6827 89.4686 69.6975 89.5288 69.7243C90.962 70.2695 92.5258 70.3757 94.0199 70.0292C95.514 69.6827 96.8703 68.8994 97.9152 67.7795C100.019 65.4165 101.224 62.3912 101.318 59.2323C101.65 54.5455 98.4515 53.6703 97.0668 53.505C93.5074 53.1064 89.051 55.6248 88.3586 59.8935C88.3627 59.9693 88.3497 60.045 88.3205 60.1151C88.2913 60.1852 88.2466 60.2478 88.1898 60.2983C88.133 60.3488 88.0655 60.3859 87.9924 60.4069C87.9193 60.4278 87.8423 60.4321 87.7673 60.4194C87.6923 60.4067 87.6211 60.3773 87.559 60.3334C87.4969 60.2895 87.4455 60.2323 87.4087 60.1659C87.3718 60.0995 87.3504 60.0257 87.346 59.9499C87.3417 59.8742 87.3545 59.7984 87.3835 59.7282C88.1636 54.8664 93.1759 52.0562 97.1935 52.5132C99.8947 52.8147 102.664 54.7691 102.342 59.3198C102.157 61.9842 101.367 65.7375 98.6465 68.4991C97.7929 69.3649 96.7765 70.0545 95.6554 70.5284C94.5344 71.0022 93.3306 71.2511 92.113 71.2606Z" fill="#231F20"/>
<path d="M54.6087 59.8143C53.3215 51.8019 39.9814 49.828 40.6445 59.2697C40.7459 62.5498 42.0026 65.6895 44.1941 68.1378C46.4857 70.4521 50.162 71.5508 53.146 70.2187" fill="white"/>
<path d="M50.3863 71.2599C47.9304 71.22 45.5908 70.2092 43.8821 68.4497C41.6048 65.9184 40.2931 62.669 40.1765 59.2705C39.8644 54.7295 42.6339 52.775 45.3253 52.4638C49.3527 52.0068 54.365 54.8559 55.1451 59.6789C55.165 59.8114 55.1323 59.9464 55.0541 60.0553C54.9758 60.1643 54.858 60.2385 54.7258 60.2623C54.594 60.2819 54.4598 60.2491 54.3522 60.1708C54.2445 60.0926 54.172 59.9753 54.1504 59.8442C53.4581 55.5754 49.0114 53.0375 45.4423 53.4557C44.0576 53.621 40.8591 54.4961 41.1809 59.183C41.3564 61.682 42.0878 65.1922 44.5939 67.7301C46.905 70.0736 50.3473 70.8904 52.9705 69.6749C53.0313 69.6473 53.097 69.6319 53.1638 69.6296C53.2306 69.6274 53.2971 69.6383 53.3597 69.6618C53.4222 69.6853 53.4794 69.7209 53.5281 69.7665C53.5768 69.8122 53.616 69.8669 53.6434 69.9277C53.6963 70.0491 53.6994 70.1863 53.652 70.3099C53.6046 70.4336 53.5105 70.5337 53.3898 70.5889C52.4479 71.0231 51.424 71.2518 50.3863 71.2599Z" fill="#231F20"/>
<path d="M56.4126 99.7991C56.4126 99.7991 60.0207 107.636 70.5426 107.636C73.4788 107.717 76.3858 107.037 78.9801 105.664C81.5745 104.29 83.7675 102.27 85.3455 99.7991L83.9315 69.0234H57.8168L56.4126 99.7991Z" fill="white"/>
<path d="M70.5429 108.142C59.8162 108.142 55.9936 100.091 55.9155 100.013C55.8973 99.9361 55.8973 99.8562 55.9155 99.7795L57.3198 68.994C57.3272 68.8651 57.384 68.7438 57.4783 68.6552C57.5725 68.5666 57.6973 68.5174 57.8269 68.5176H83.9415C84.0711 68.5174 84.1958 68.5666 84.2901 68.6552C84.3844 68.7438 84.4411 68.8651 84.4486 68.994L85.8138 99.7795C85.8189 99.8707 85.7987 99.9615 85.7553 100.042C84.1248 102.576 81.8704 104.65 79.2074 106.068C76.5443 107.486 73.5613 108.2 70.5429 108.142ZM56.8907 99.6919C57.3685 100.664 60.9961 107.14 70.5429 107.14C73.3639 107.205 76.1553 106.555 78.6556 105.25C81.1558 103.946 83.2833 102.03 84.8387 99.6822L83.4637 69.5386H58.2949L56.8907 99.6919Z" fill="#231F20"/>
<path d="M57.8168 82.1795C59.8326 85.0966 62.5434 87.4689 65.7058 89.0833C70.8839 91.9324 78.6168 95.1412 84.8968 94.1883L83.8632 81.2071C79.2672 81.7805 74.6196 81.8132 70.016 81.3043C65.9593 80.9446 61.7759 80.5556 58.0606 78.9901C57.4267 78.6789 57.0172 80.9348 57.8168 82.1795Z" fill="#231F20"/>
<path d="M82.5081 94.8196C76.1793 94.8196 69.2849 91.5816 65.4721 89.4716C62.2276 87.8377 59.4526 85.4085 57.4076 82.4121C57.0743 81.8552 56.8935 81.2208 56.8833 80.5724C56.873 79.924 57.0336 79.2842 57.349 78.7171C57.4551 78.5834 57.6022 78.4882 57.7678 78.4461C57.9335 78.4039 58.1084 78.4171 58.2657 78.4837C61.9713 80.0395 66.2717 80.4285 70.0553 80.7494C74.6226 81.2639 79.235 81.2345 83.7953 80.6619C83.8611 80.6542 83.9277 80.6597 83.9914 80.678C84.055 80.6964 84.1143 80.7273 84.1658 80.7688C84.2193 80.809 84.2636 80.8602 84.2955 80.9189C84.3275 80.9776 84.3464 81.0425 84.3511 81.1091L85.3848 94.1195C85.3933 94.2424 85.3548 94.364 85.277 94.4596C85.1992 94.5553 85.0878 94.6179 84.9654 94.6349C84.1524 94.7603 83.3308 94.8221 82.5081 94.8196ZM58.0219 79.4756C57.8871 79.8781 57.8357 80.3037 57.8709 80.7266C57.9061 81.1495 58.0271 81.5608 58.2267 81.9357C60.1931 84.7902 62.8493 87.1044 65.9499 88.6645C70.0553 90.9301 77.8371 94.5571 84.3803 93.7792L83.4052 81.7315C78.9335 82.2317 74.4197 82.2317 69.9481 81.7315C66.1644 81.4203 61.8543 81.0411 58.0219 79.4756Z" fill="#231F20"/>
<path d="M70.2111 84.2509H72.3564C77.2257 84.2303 81.8886 82.287 85.3245 78.8464C88.7604 75.4057 90.6894 70.7479 90.6893 65.8924V36.8184C90.6893 36.8184 84.2923 38.6561 71.1862 38.6561C58.0801 38.6561 51.6831 36.8184 51.6831 36.8184V65.8924C51.6843 68.3127 52.1653 70.709 53.0983 72.9434C54.0313 75.1778 55.398 77.2063 57.1197 78.9123C58.8415 80.6183 60.8844 81.9682 63.1311 82.8844C65.3777 83.8006 67.7838 84.265 70.2111 84.2509Z" fill="white"/>
<path d="M90.6896 36.819V65.893C90.6896 70.762 88.7499 75.4315 85.2972 78.8744C81.8444 82.3173 77.1615 84.2515 72.2787 84.2515H70.2113C65.3292 84.2489 60.6479 82.3139 57.1957 78.8715C53.7435 75.4292 51.803 70.7612 51.8004 65.893V36.819C51.8004 36.819 58.2072 38.6568 71.3035 38.6568C84.3998 38.6568 90.8066 36.819 90.8066 36.819M90.8066 35.8466C90.7161 35.8324 90.624 35.8324 90.5336 35.8466C90.4751 35.8466 84.078 37.6455 71.323 37.6455C58.568 37.6455 52.1807 35.866 52.1222 35.8466C52.0284 35.8329 51.9332 35.8329 51.8394 35.8466C51.5808 35.8466 51.3328 35.949 51.1499 36.1314C50.967 36.3137 50.8643 36.5611 50.8643 36.819V65.893C50.8694 71.0143 52.9072 75.9253 56.5324 79.5529C60.1576 83.1806 65.0755 85.2299 70.2113 85.253H72.3567C77.5053 85.2479 82.4416 83.2068 86.0831 79.5775C89.7247 75.9482 91.774 71.0269 91.7818 65.893V36.819C91.7818 36.5611 91.679 36.3137 91.4961 36.1314C91.3133 35.949 91.0652 35.8466 90.8066 35.8466Z" fill="#231F20"/>
<path d="M30.8443 153.095C30.7189 153.095 30.598 153.048 30.5057 152.964C30.4135 152.879 30.3568 152.763 30.347 152.638L26.3391 113.743C26.3254 113.61 26.3649 113.477 26.4489 113.374C26.5329 113.27 26.6547 113.203 26.7877 113.189C26.9197 113.18 27.0502 113.221 27.1532 113.304C27.2563 113.387 27.3242 113.505 27.3435 113.636L31.3416 152.531C31.3484 152.596 31.3421 152.662 31.3231 152.725C31.3042 152.787 31.2729 152.846 31.2312 152.897C31.1895 152.947 31.1381 152.989 31.0801 153.02C31.0221 153.05 30.9585 153.069 30.8931 153.076L30.8443 153.095Z" fill="#231F20"/>
<path d="M110.914 153.094H110.855C110.79 153.088 110.726 153.069 110.668 153.039C110.61 153.008 110.559 152.966 110.517 152.915C110.476 152.865 110.444 152.806 110.425 152.744C110.406 152.681 110.4 152.615 110.407 152.55L114.415 113.655C114.455 113.55 114.529 113.462 114.624 113.404C114.72 113.346 114.832 113.321 114.944 113.333C115.055 113.345 115.159 113.394 115.24 113.472C115.321 113.549 115.374 113.651 115.39 113.762L111.382 152.657C111.367 152.772 111.312 152.879 111.226 152.959C111.141 153.039 111.031 153.086 110.914 153.094Z" fill="#231F20"/>
<path d="M270.03 49.4874C270.03 66.1247 311.367 131.293 243.701 131.293C176.035 131.293 217.372 66.1442 217.372 49.4874C217.372 32.8306 218.484 19.3438 243.701 19.3438C268.919 19.3438 270.03 32.8403 270.03 49.4874Z" fill="white"/>
<path d="M243.672 131.772C226.724 131.772 215.119 127.61 209.19 119.393C199.195 105.537 206.782 82.9389 212.321 66.4376C214.729 59.281 216.806 53.0966 216.806 49.4697C216.806 31.5293 218.757 18.8398 243.672 18.8398C268.587 18.8398 270.537 31.5293 270.537 49.4697C270.537 53.0966 272.605 59.281 275.013 66.4376C280.552 82.968 288.149 105.537 278.144 119.393C272.215 127.629 260.61 131.772 243.672 131.772ZM243.672 19.8414C219.605 19.8414 217.811 31.5682 217.811 49.4697C217.811 53.2619 215.714 59.5143 213.276 66.7585C207.806 83.0458 200.307 105.362 210.01 118.8C215.743 126.744 227.065 130.77 243.672 130.77C260.279 130.77 271.6 126.744 277.324 118.8C287.027 105.362 279.528 83.0458 274.058 66.7585C271.63 59.5143 269.523 53.2619 269.523 49.4697C269.523 31.6169 267.729 19.8608 243.672 19.8608V19.8414Z" fill="#231F20"/>
<path d="M313.502 148.981C295.124 153.282 276.429 156.102 257.597 157.412C252.819 157.703 247.962 157.878 243.125 157.878C238.289 157.878 233.432 157.703 228.664 157.412C209.829 156.101 191.13 153.282 172.749 148.981C172.749 148.981 172.037 125.459 187.044 109.435C202.052 93.4099 227.757 91.9805 243.125 91.9805C258.494 91.9805 284.219 93.4099 299.216 109.435C314.214 125.459 313.502 148.981 313.502 148.981Z" fill="#6F93B3"/>
<path d="M157.812 163.661C157.746 163.658 157.681 163.643 157.621 163.615C157.561 163.587 157.507 163.547 157.463 163.499C157.418 163.45 157.384 163.392 157.362 163.33C157.34 163.268 157.33 163.202 157.334 163.136C157.334 162.757 159.285 124.678 180.016 109.334C198.847 95.3709 228.111 92.1815 228.404 92.1523C228.514 92.1702 228.615 92.2238 228.692 92.305C228.769 92.3862 228.816 92.4903 228.827 92.6012C228.838 92.7121 228.812 92.8235 228.753 92.9182C228.694 93.0129 228.606 93.0855 228.501 93.1247C228.218 93.1247 199.247 96.3141 180.611 110.112C160.309 125.174 158.349 162.776 158.339 163.155C158.339 163.223 158.325 163.291 158.298 163.353C158.272 163.416 158.233 163.473 158.183 163.52C158.134 163.567 158.076 163.604 158.012 163.628C157.948 163.652 157.88 163.663 157.812 163.661Z" fill="#231F20"/>
<path d="M257.597 99.7988V157.412C252.819 157.704 247.962 157.879 243.126 157.879C238.289 157.879 233.433 157.704 228.664 157.412V99.7988H257.597Z" fill="#231F20"/>
<path d="M203.096 153.095C202.97 153.095 202.849 153.048 202.757 152.964C202.665 152.879 202.608 152.763 202.598 152.638L198.591 113.743C198.577 113.61 198.616 113.477 198.7 113.374C198.784 113.27 198.906 113.203 199.039 113.189C199.171 113.18 199.302 113.221 199.405 113.304C199.508 113.387 199.576 113.505 199.595 113.636L203.593 152.531C203.601 152.596 203.596 152.663 203.577 152.726C203.559 152.789 203.528 152.848 203.486 152.899C203.444 152.95 203.392 152.992 203.333 153.022C203.275 153.053 203.21 153.071 203.145 153.076L203.096 153.095Z" fill="#231F20"/>
<path d="M283.165 153.096H283.107C283.042 153.09 282.978 153.071 282.92 153.04C282.862 153.009 282.811 152.967 282.769 152.917C282.727 152.866 282.696 152.808 282.677 152.745C282.658 152.682 282.652 152.616 282.658 152.551L286.666 113.656C286.683 113.525 286.751 113.405 286.854 113.321C286.958 113.238 287.09 113.198 287.222 113.209C287.355 113.224 287.477 113.29 287.561 113.394C287.645 113.498 287.684 113.63 287.671 113.763L283.663 152.658C283.646 152.778 283.587 152.889 283.496 152.969C283.405 153.05 283.287 153.094 283.165 153.096Z" fill="#231F20"/>
<path d="M260.308 59.8142C261.595 51.7921 274.935 49.8182 274.292 59.2794C274.193 62.5648 272.933 65.7095 270.733 68.1572C268.451 70.4811 264.755 71.5799 261.771 70.2478" fill="white"/>
<path d="M264.56 71.3383C263.53 71.3466 262.509 71.1379 261.566 70.7257C261.498 70.7035 261.436 70.6672 261.383 70.6193C261.33 70.5714 261.289 70.513 261.26 70.4478C261.231 70.3827 261.217 70.3122 261.218 70.2411C261.218 70.17 261.234 70.0999 261.264 70.0352C261.293 69.9706 261.336 69.9129 261.39 69.8659C261.443 69.819 261.506 69.7838 261.574 69.7627C261.642 69.7416 261.714 69.7351 261.785 69.7435C261.856 69.752 261.924 69.7752 261.985 69.8117C264.608 70.9883 268.06 70.1715 270.372 67.867C272.878 65.3193 273.619 61.7993 273.794 59.3003C274.116 54.6038 270.918 53.7189 269.523 53.5633C265.935 53.1646 261.498 55.6831 260.805 59.9615C260.761 60.0676 260.683 60.1556 260.582 60.2112C260.481 60.2668 260.365 60.2866 260.251 60.2673C260.138 60.2481 260.035 60.191 259.958 60.1054C259.881 60.0198 259.836 59.9108 259.83 59.7962C260.61 54.9344 265.632 52.1047 269.66 52.5618C272.361 52.8729 275.13 54.8274 274.818 59.3684C274.633 62.0424 273.843 65.8055 271.113 68.5671C269.382 70.3196 267.026 71.3163 264.56 71.3383Z" fill="#231F20"/>
<path d="M227.026 59.8142C225.739 51.7921 212.398 49.8182 213.042 59.2794C213.145 62.5639 214.405 65.7073 216.601 68.1572C218.893 70.4811 222.579 71.5799 225.563 70.2478" fill="white"/>
<path d="M222.774 71.3378C220.309 71.2982 217.961 70.288 216.24 68.5276C213.52 65.7661 212.73 62.003 212.545 59.3289C212.223 54.7879 214.992 52.8335 217.693 52.5223C221.721 52.0653 226.753 54.9241 227.523 59.7568C227.536 59.8221 227.534 59.8894 227.52 59.9543C227.505 60.0193 227.477 60.0805 227.438 60.1343C227.399 60.1881 227.349 60.2332 227.291 60.267C227.234 60.3007 227.17 60.3223 227.104 60.3305C226.973 60.3503 226.84 60.3188 226.733 60.2426C226.626 60.1663 226.552 60.0514 226.528 59.9221C225.846 55.6436 221.37 53.1154 217.81 53.5238C216.416 53.6794 213.217 54.5643 213.549 59.2609C213.644 62.4272 214.852 65.4594 216.962 67.8275C218.009 68.9471 219.367 69.7301 220.863 70.0765C222.358 70.4229 223.923 70.317 225.358 69.7723C225.48 69.7181 225.618 69.7143 225.742 69.7617C225.867 69.8091 225.967 69.9039 226.021 70.0251C226.076 70.1463 226.079 70.284 226.032 70.408C225.984 70.532 225.889 70.6321 225.768 70.6863C224.827 71.1126 223.807 71.3347 222.774 71.3378Z" fill="#231F20"/>
<path d="M228.811 99.9356C228.811 99.9356 232.419 107.783 242.97 107.783C251.376 107.783 257.782 99.9356 257.782 99.9356L256.378 69.1016H230.215L228.811 99.9356Z" fill="white"/>
<path d="M242.97 108.278C232.243 108.278 228.342 100.217 228.342 100.14C228.306 100.067 228.29 99.9868 228.294 99.9062L229.707 69.0722C229.715 68.9449 229.77 68.825 229.862 68.7366C229.955 68.6483 230.077 68.5979 230.205 68.5957H256.368C256.496 68.5979 256.618 68.6483 256.711 68.7366C256.803 68.825 256.858 68.9449 256.866 69.0722L258.28 99.9062C258.281 100.03 258.24 100.15 258.163 100.247C257.909 100.577 251.522 108.278 242.97 108.278ZM229.317 99.8284C229.795 100.801 233.423 107.277 242.97 107.277C250.42 107.277 256.358 100.811 257.275 99.7603L255.89 69.6167H230.692L229.317 99.8284Z" fill="#231F20"/>
<path d="M230.215 82.2954C232.236 85.215 234.954 87.5875 238.123 89.1992C243.301 92.058 251.054 95.2766 257.344 94.3139L256.31 81.2841C251.704 81.8541 247.046 81.8834 242.433 81.3716C238.367 81.0118 234.184 80.6229 230.459 79.0573C229.825 78.7754 229.415 81.0313 230.215 82.2954Z" fill="#231F20"/>
<path d="M254.945 94.9758C248.616 94.9758 241.702 91.7378 237.889 89.6277C234.637 87.9886 231.855 85.5529 229.805 82.5489C229.472 81.9919 229.291 81.3576 229.281 80.7091C229.27 80.0607 229.431 79.4209 229.747 78.8538C229.853 78.7202 230 78.6249 230.165 78.5828C230.331 78.5406 230.506 78.5538 230.663 78.6204C234.378 80.186 238.679 80.5652 242.472 80.8861C247.049 81.4054 251.672 81.3761 256.241 80.7986C256.374 80.7852 256.507 80.8235 256.612 80.9055C256.663 80.9475 256.705 80.9993 256.735 81.0578C256.765 81.1162 256.783 81.1802 256.788 81.2459L257.821 94.2757C257.833 94.3987 257.797 94.5215 257.721 94.619C257.645 94.7166 257.534 94.7815 257.412 94.8008C256.595 94.9181 255.77 94.9766 254.945 94.9758ZM230.419 79.5734C230.285 79.9759 230.233 80.4015 230.268 80.8244C230.304 81.2473 230.425 81.6587 230.624 82.0335C232.597 84.8886 235.255 87.2053 238.357 88.772C242.472 91.0377 250.273 94.6744 256.817 93.8867L255.842 81.8196C251.363 82.3204 246.843 82.3204 242.365 81.8196C238.572 81.5181 234.252 81.1389 230.419 79.5734Z" fill="#231F20"/>
<path d="M263.185 44.8109V65.9698C263.185 70.8422 261.244 75.5152 257.79 78.9615C254.336 82.4077 249.651 84.3451 244.764 84.3477H242.619C240.197 84.3489 237.799 83.8746 235.561 82.9517C233.324 82.0288 231.29 80.6755 229.577 78.9689C227.864 77.2624 226.504 75.2361 225.576 73.0057C224.648 70.7753 224.17 68.3845 224.169 65.9698V45.8999L235.773 44.9276L237.109 35.7483L240.035 46.1333L248.265 45.0442C249.113 41.3784 248.265 33.4535 248.148 33.0938L254.048 44.2566L263.185 44.8109Z" fill="white"/>
<path d="M244.764 84.8542H242.619C237.595 84.8516 232.778 82.8619 229.224 79.3217C225.67 75.7814 223.669 70.9799 223.662 65.9707V45.9008C223.661 45.7742 223.71 45.6523 223.797 45.5601C223.884 45.4679 224.003 45.4124 224.13 45.4049L235.334 44.4325L236.612 35.6812C236.627 35.5682 236.681 35.4639 236.765 35.386C236.848 35.3081 236.956 35.2612 237.07 35.2533C237.187 35.2387 237.305 35.2686 237.401 35.3371C237.497 35.4056 237.563 35.5077 237.587 35.6228L240.386 45.5897L247.826 44.6173C248.518 40.932 247.719 33.6003 247.641 33.2211C247.618 33.1572 247.607 33.0895 247.611 33.0217C247.614 32.9539 247.63 32.8874 247.659 32.826C247.688 32.7646 247.729 32.7095 247.78 32.6638C247.83 32.6182 247.889 32.5828 247.953 32.5598C248.017 32.5369 248.085 32.5267 248.153 32.5299C248.221 32.5331 248.287 32.5496 248.349 32.5785C248.411 32.6074 248.466 32.6481 248.512 32.6983C248.557 32.7485 248.593 32.8072 248.616 32.871L254.418 43.7422L263.272 44.3256C263.399 44.333 263.518 44.3886 263.605 44.4808C263.692 44.573 263.741 44.6949 263.741 44.8215V65.9804C263.733 70.9921 261.729 75.7956 258.171 79.3348C254.612 82.8741 249.79 84.8594 244.764 84.8542ZM224.676 46.3676V65.9707C224.681 70.7134 226.573 75.2602 229.937 78.6129C233.302 81.9656 237.862 83.8501 242.619 83.8527H244.764C249.519 83.8475 254.077 81.9619 257.439 78.6095C260.801 75.2571 262.692 70.7117 262.697 65.9707V45.2882L254.028 44.7145C253.943 44.7077 253.862 44.6802 253.79 44.6344C253.719 44.5886 253.66 44.5259 253.618 44.452L248.889 35.5839C249.113 38.3649 249.308 42.692 248.743 45.1716C248.72 45.2719 248.667 45.3626 248.59 45.4307C248.513 45.4988 248.416 45.5409 248.314 45.5508L240.083 46.6398C239.963 46.6563 239.84 46.6291 239.738 46.563C239.636 46.497 239.561 46.3965 239.527 46.2801L237.265 38.1802L236.29 44.9868C236.274 45.0998 236.22 45.204 236.137 45.282C236.054 45.3599 235.946 45.4067 235.832 45.4147L224.676 46.3676Z" fill="#231F20"/>
<path d="M227.894 115.3C208.927 95.0352 176.435 93.2363 157 93.2363C137.565 93.2363 105.073 95.0352 86.1063 115.3C67.1396 135.564 68.0465 165.28 68.0465 165.28C68.0465 165.28 113.206 176.501 157 176.501C200.794 176.501 245.954 165.25 245.954 165.25C245.954 165.25 246.851 135.564 227.894 115.3Z" fill="#004680"/>
<path d="M175.284 103.115L162.334 147.737L157 166.125L151.656 147.708L138.716 103.115C147.482 100.519 166.517 100.519 175.284 103.115Z" fill="#231F20"/>
<path d="M157.468 77.4831C175.839 77.4831 190.731 60.461 190.731 39.4632C190.731 18.4654 175.839 1.44336 157.468 1.44336C139.098 1.44336 124.206 18.4654 124.206 39.4632C124.206 60.461 139.098 77.4831 157.468 77.4831Z" fill="white"/>
<path d="M157.468 77.9788C138.852 77.9788 123.698 60.6997 123.698 39.463C123.698 16.9039 126.126 0.9375 157.468 0.9375C188.809 0.9375 191.237 16.9039 191.237 39.463C191.237 60.6997 176.093 77.9788 157.468 77.9788ZM157.468 1.93905C126.985 1.93905 124.703 16.7969 124.703 39.463C124.703 60.1455 139.408 76.9773 157.468 76.9773C175.528 76.9773 190.233 60.1455 190.233 39.463C190.233 16.7969 187.951 1.93905 157.468 1.93905Z" fill="#231F20"/>
<path d="M178.454 52.5219C180.072 42.3994 196.933 39.881 196.094 51.8412C195.811 55.9349 194.495 60.1161 191.608 63.043C188.722 65.9698 184.061 67.3603 180.297 65.6878" fill="white"/>
<path d="M183.836 66.9125C182.554 66.9199 181.285 66.6581 180.111 66.1443C179.99 66.0872 179.896 65.9852 179.848 65.86C179.801 65.7348 179.804 65.5962 179.858 65.4734C179.913 65.3531 180.014 65.2592 180.137 65.212C180.261 65.1647 180.399 65.1678 180.521 65.2206C183.895 66.7375 188.322 65.6873 191.248 62.6924C194.436 59.4544 195.372 54.9815 195.597 51.8018C195.889 47.6108 193.832 44.8493 190.097 44.4214C185.523 43.8964 179.828 47.1344 178.951 52.5991C178.927 52.731 178.852 52.8484 178.743 52.9265C178.634 53.0045 178.499 53.0371 178.366 53.0173C178.3 53.0079 178.238 52.9854 178.181 52.9512C178.125 52.9169 178.076 52.8716 178.038 52.8179C177.999 52.7643 177.972 52.7034 177.958 52.6391C177.944 52.5747 177.944 52.5082 177.956 52.4435C178.931 46.4148 185.211 42.8657 190.204 43.4296C193.559 43.8089 197.03 46.2301 196.601 51.8699C196.367 55.2245 195.372 59.9406 191.969 63.3925C189.83 65.5903 186.907 66.8556 183.836 66.9125Z" fill="#231F20"/>
<path d="M136.522 52.5219C134.893 42.3994 118.042 39.881 118.871 51.8412C119.164 55.9349 120.48 60.1161 123.367 63.043C126.253 65.9698 130.915 67.3603 134.669 65.6878" fill="white"/>
<path d="M131.1 66.9125C128.025 66.8613 125.096 65.5953 122.957 63.3925C119.554 59.9406 118.559 55.2245 118.325 51.8698C117.925 46.2301 121.368 43.8089 124.713 43.4296C129.725 42.8657 135.995 46.4148 136.97 52.4435C136.999 52.5141 137.012 52.5902 137.007 52.6662C137.002 52.7423 136.98 52.8162 136.943 52.8827C136.906 52.9491 136.854 53.0062 136.791 53.0498C136.728 53.0933 136.656 53.1222 136.581 53.1342C136.506 53.1463 136.428 53.1411 136.355 53.1193C136.282 53.0974 136.215 53.0593 136.158 53.0078C136.102 52.9564 136.058 52.8929 136.03 52.8221C136.002 52.7513 135.99 52.6751 135.995 52.5991C135.117 47.1344 129.423 43.8477 124.849 44.4214C121.104 44.8493 119.057 47.6108 119.349 51.8018C119.564 54.9815 120.5 59.4544 123.698 62.6924C126.624 65.6873 131.071 66.7277 134.425 65.2206C134.485 65.1931 134.55 65.1779 134.616 65.1758C134.682 65.1736 134.748 65.1847 134.81 65.2082C134.872 65.2317 134.928 65.2673 134.976 65.3128C135.024 65.3584 135.062 65.413 135.088 65.4734C135.116 65.534 135.131 65.5995 135.134 65.6661C135.136 65.7327 135.125 65.7991 135.101 65.8614C135.078 65.9238 135.042 65.9808 134.996 66.0294C134.951 66.078 134.896 66.117 134.835 66.1443C133.658 66.6595 132.385 66.9212 131.1 66.9125Z" fill="#231F20"/>
<path d="M138.716 103.116C138.716 103.116 143.28 113.024 156.581 113.024C169.882 113.024 175.284 103.116 175.284 103.116L173.509 64.2207H140.491L138.716 103.116Z" fill="white"/>
<path d="M156.581 113.53C143.114 113.53 138.306 103.427 138.258 103.329C138.239 103.253 138.239 103.173 138.258 103.096L140.032 64.2011C140.037 64.073 140.092 63.9518 140.185 63.8629C140.278 63.7741 140.401 63.7245 140.53 63.7246H173.548C173.677 63.7245 173.801 63.7741 173.893 63.8629C173.986 63.9518 174.041 64.073 174.046 64.2011L175.821 103.096C175.831 103.188 175.81 103.28 175.762 103.359C173.709 106.553 170.866 109.167 167.507 110.948C164.147 112.73 160.385 113.619 156.581 113.53ZM139.223 103.009C139.759 104.049 144.499 112.518 156.581 112.518C160.175 112.598 163.731 111.765 166.914 110.098C170.097 108.432 172.803 105.985 174.777 102.989L173.022 64.6775H140.978L139.223 103.009Z" fill="#231F20"/>
<path d="M140.491 80.8662C142.782 84.5418 146.585 87.4297 150.466 89.6176C157.01 93.2251 166.791 97.2799 174.719 96.0742L173.422 79.6216C167.595 80.3458 161.704 80.385 155.869 79.7383C150.749 79.291 145.464 78.7659 140.764 76.8211C139.993 76.4225 139.447 79.2618 140.491 80.8662Z" fill="#231F20"/>
<path d="M171.695 96.7662C163.738 96.7662 155.04 92.6822 150.242 90.0373C145.444 87.3925 142.158 84.4559 140.091 81.1498C139.223 79.7788 139.311 77.445 140.013 76.6283C140.125 76.4851 140.281 76.3828 140.457 76.3371C140.634 76.2914 140.82 76.3049 140.988 76.3754C145.698 78.3202 151.129 78.8258 155.937 79.2439C161.72 79.895 167.559 79.8591 173.334 79.137C173.465 79.1198 173.598 79.1547 173.704 79.2342C173.804 79.3216 173.866 79.4431 173.88 79.5746L175.186 96.0272C175.198 96.1491 175.161 96.2706 175.085 96.3666C175.009 96.4625 174.899 96.5255 174.777 96.5425C173.757 96.6947 172.727 96.7695 171.695 96.7662ZM140.705 77.3186C140.487 77.8541 140.391 78.4313 140.425 79.0082C140.459 79.5851 140.621 80.1473 140.9 80.6539C142.85 83.8238 146.176 86.7021 150.71 89.2108C155.947 92.1279 165.874 96.7175 174.202 95.6674L172.973 80.1872C167.29 80.8305 161.552 80.8305 155.869 80.1872C151.022 79.7593 145.542 79.2634 140.705 77.3186Z" fill="#231F20"/>
<path d="M156.112 83.4626H158.823C164.997 83.4626 170.917 81.0172 175.283 76.6644C179.648 72.3115 182.1 66.4078 182.1 60.252V23.5156C182.1 23.5156 174.007 25.8396 157.468 25.8396C140.929 25.8396 132.845 23.5156 132.845 23.5156V60.252C132.845 66.4061 135.296 72.3084 139.659 76.6609C144.023 81.0135 149.941 83.46 156.112 83.4626Z" fill="white"/>
<path d="M182.101 23.5161V60.2525C182.101 66.4083 179.648 72.312 175.283 76.6648C170.918 81.0177 164.997 83.4631 158.824 83.4631H156.113C149.941 83.4605 144.023 81.014 139.66 76.6614C135.297 72.3088 132.845 66.4066 132.845 60.2525V23.5161C132.845 23.5161 140.939 25.8401 157.468 25.8401C173.997 25.8401 182.101 23.5161 182.101 23.5161ZM132.845 22.5437C132.629 22.5443 132.417 22.6123 132.241 22.7382C132.114 22.8306 132.011 22.9523 131.942 23.0928C131.872 23.2334 131.838 23.3886 131.841 23.5453V60.2816C131.846 66.6998 134.405 72.8538 138.955 77.3931C143.506 81.9324 149.676 84.4861 156.113 84.4938H158.824C165.261 84.4861 171.433 81.9327 175.985 77.3937C180.537 72.8547 183.097 66.7007 183.105 60.2816V23.5161C183.109 23.3594 183.074 23.2042 183.004 23.0637C182.935 22.9231 182.832 22.8015 182.705 22.709C182.529 22.5831 182.317 22.5151 182.101 22.5146C182.007 22.5009 181.912 22.5009 181.818 22.5146C181.74 22.5146 173.636 24.7899 157.439 24.7899C141.242 24.7899 133.167 22.534 133.06 22.5146C132.97 22.5004 132.877 22.5004 132.787 22.5146L132.845 22.5437Z" fill="#231F20"/>
<path d="M157 123.292L150.73 118.469L157 113.646L163.27 118.469L157 123.292Z" fill="#ED2D24"/>
<path d="M162.334 147.737L157 166.124L151.666 147.707L154.884 120.675L154.952 120.111H159.048L159.106 120.695L162.334 147.737Z" fill="#ED2D24"/>
<path d="M106.399 170.346C106.275 170.346 106.155 170.301 106.064 170.218C105.972 170.135 105.914 170.021 105.902 169.898L100.841 120.725C100.833 120.659 100.838 120.592 100.856 120.529C100.874 120.465 100.905 120.405 100.947 120.353C100.989 120.302 101.041 120.259 101.1 120.228C101.158 120.196 101.223 120.177 101.289 120.171C101.42 120.162 101.549 120.204 101.651 120.287C101.752 120.37 101.818 120.489 101.835 120.618L106.896 169.791C106.91 169.924 106.871 170.057 106.787 170.161C106.702 170.264 106.581 170.331 106.448 170.346H106.399Z" fill="#231F20"/>
<path d="M207.601 170.346C207.468 170.331 207.346 170.264 207.262 170.161C207.178 170.057 207.138 169.924 207.152 169.791L212.213 120.618C212.23 120.489 212.296 120.37 212.398 120.287C212.499 120.204 212.628 120.162 212.759 120.171C212.826 120.177 212.89 120.196 212.949 120.228C213.008 120.259 213.059 120.302 213.101 120.353C213.143 120.405 213.174 120.465 213.192 120.529C213.211 120.592 213.216 120.659 213.208 120.725L208.147 169.898C208.141 169.964 208.122 170.027 208.091 170.085C208.06 170.143 208.018 170.194 207.967 170.235C207.916 170.277 207.858 170.308 207.795 170.327C207.732 170.346 207.666 170.352 207.601 170.346Z" fill="#231F20"/>
<path d="M68.0949 164.987C68.0287 164.985 67.9637 164.969 67.9037 164.941C67.8436 164.913 67.7898 164.874 67.7452 164.825C67.7007 164.776 67.6665 164.719 67.6445 164.656C67.6225 164.594 67.6131 164.528 67.6171 164.462C67.6171 164.083 69.5674 126.004 90.2992 110.66C109.129 96.6971 138.394 93.5077 138.686 93.4785C138.797 93.4963 138.898 93.55 138.975 93.6312C139.051 93.7123 139.099 93.8165 139.11 93.9273C139.121 94.0382 139.095 94.1497 139.036 94.2444C138.977 94.339 138.889 94.4116 138.784 94.4509C138.501 94.4509 109.529 97.6403 90.8941 111.438C70.5913 126.5 68.6313 164.102 68.6215 164.481C68.6216 164.549 68.6078 164.617 68.5811 164.679C68.5544 164.742 68.5153 164.799 68.4662 164.846C68.417 164.893 68.3588 164.93 68.295 164.954C68.2312 164.978 68.1631 164.99 68.0949 164.987Z" fill="#231F20"/>
<path d="M245.964 164.987C245.834 164.988 245.709 164.938 245.615 164.85C245.521 164.761 245.464 164.64 245.457 164.511C245.457 164.132 243.506 126.53 223.174 111.468C204.568 97.6698 175.577 94.5096 175.284 94.4804C175.208 94.4917 175.129 94.4854 175.055 94.4618C174.982 94.4382 174.914 94.398 174.858 94.3444C174.803 94.2907 174.76 94.225 174.733 94.1523C174.707 94.0796 174.698 94.0018 174.706 93.925C174.715 93.8481 174.741 93.7742 174.782 93.7089C174.824 93.6437 174.88 93.5888 174.946 93.5486C175.012 93.5083 175.087 93.4837 175.164 93.4767C175.241 93.4697 175.319 93.4804 175.392 93.5081C175.684 93.5081 204.949 96.7266 223.779 110.69C244.472 126.034 246.441 164.112 246.461 164.491C246.464 164.623 246.416 164.751 246.327 164.849C246.238 164.947 246.115 165.007 245.983 165.017L245.964 164.987Z" fill="#231F20"/>
<path d="M312.94 148.582C312.838 148.582 312.74 148.543 312.665 148.474C312.591 148.404 312.546 148.308 312.54 148.206C312.54 147.907 311 118.236 294.944 106.351C280.251 95.4627 257.357 92.9691 257.125 92.946C257.065 92.955 257.003 92.9499 256.945 92.9313C256.886 92.9127 256.833 92.881 256.789 92.8387C256.745 92.7963 256.711 92.7445 256.69 92.6871C256.67 92.6297 256.662 92.5684 256.669 92.5077C256.676 92.4471 256.696 92.3887 256.729 92.3373C256.762 92.2858 256.806 92.2425 256.858 92.2107C256.911 92.1789 256.97 92.1595 257.031 92.154C257.092 92.1485 257.153 92.1569 257.21 92.1787C257.441 92.1787 280.551 94.7185 295.421 105.737C311.762 117.845 313.318 147.892 313.333 148.191C313.335 148.295 313.297 148.396 313.227 148.473C313.157 148.55 313.06 148.597 312.956 148.605L312.94 148.582Z" fill="#231F20"/>
<path d="M1.037 149.269C0.98577 149.267 0.935444 149.255 0.888971 149.232C0.842498 149.21 0.800814 149.178 0.766367 149.139C0.731919 149.1 0.7054 149.055 0.68837 149.005C0.671339 148.955 0.664135 148.902 0.667186 148.85C0.667186 148.547 2.1766 118.132 18.2216 105.876C32.795 94.7231 55.4437 92.1756 55.6701 92.1523C55.7555 92.1666 55.8339 92.2094 55.8932 92.2743C55.9525 92.3391 55.9893 92.4223 55.9979 92.5108C56.0065 92.5994 55.9864 92.6884 55.9408 92.7641C55.8952 92.8397 55.8266 92.8977 55.7456 92.929C55.5267 92.929 33.1044 95.4765 18.682 106.498C2.96905 118.528 1.45208 148.562 1.44454 148.865C1.44458 148.92 1.43395 148.973 1.41329 149.023C1.39263 149.073 1.36236 149.119 1.32431 149.156C1.28625 149.194 1.24119 149.223 1.19182 149.243C1.14245 149.262 1.08979 149.271 1.037 149.269Z" fill="#231F20"/>
<path d="M79.0747 54.8929C79.0747 54.1034 78.6207 53.4635 78.0605 53.4635C77.5004 53.4635 77.0464 54.1034 77.0464 54.8929C77.0464 55.6823 77.5004 56.3223 78.0605 56.3223C78.6207 56.3223 79.0747 55.6823 79.0747 54.8929Z" fill="#231F20"/>
<path d="M64.5376 54.8929C64.5376 54.1034 64.0835 53.4635 63.5234 53.4635C62.9633 53.4635 62.5093 54.1034 62.5093 54.8929C62.5093 55.6823 62.9633 56.3223 63.5234 56.3223C64.0835 56.3223 64.5376 55.6823 64.5376 54.8929Z" fill="#231F20"/>
<path d="M77.0987 73.3429C76.9819 73.3846 77.0511 73.7257 76.9381 73.6746C70.1071 78.2886 64.2044 72.7155 64.0761 72.7622C64.0123 72.7707 63.9474 72.7666 63.8852 72.75C63.823 72.7334 63.7647 72.7047 63.7137 72.6655C63.6627 72.6263 63.6199 72.5775 63.588 72.5217C63.556 72.466 63.5354 72.4045 63.5274 72.3408C63.5109 72.2142 63.545 72.0862 63.6224 71.9844C63.6997 71.8827 63.8141 71.8153 63.9408 71.797C64.3065 71.7467 70.5038 77.276 77.0759 72.4299C77.1344 72.4568 77.187 72.4949 77.2306 72.5421C77.2742 72.5893 77.308 72.6446 77.3301 72.7049C77.3522 72.7652 77.362 72.8292 77.3592 72.8934C77.3563 72.9575 77.3407 73.0204 77.3133 73.0785C77.2745 73.1887 77.1987 73.2821 77.0987 73.3429Z" fill="#231F20"/>
<path d="M71.8916 66.5634C72.5845 66.6044 74.2108 66.5381 74.8495 65.1575C75.6 63.586 73.2328 59.1091 71.7544 56.5684C71.7225 56.5123 71.6831 56.467 71.6386 56.435C71.5941 56.403 71.5453 56.385 71.4951 56.382C71.4449 56.379 71.3943 56.3912 71.3463 56.4177C71.2983 56.4442 71.2538 56.4846 71.2155 56.5364C71.1755 56.5862 71.1424 56.6473 71.1182 56.7159C71.094 56.7844 71.0791 56.859 71.0746 56.935C71.0701 57.011 71.0759 57.0868 71.0918 57.1577C71.1077 57.2286 71.1333 57.2932 71.167 57.3474C73.0106 60.5027 74.4406 63.8544 74.2318 64.5047C73.7902 65.4319 72.2225 65.4204 71.7088 65.355C71.6585 65.3475 71.6072 65.3549 71.5579 65.377C71.5085 65.399 71.4621 65.4353 71.4212 65.4836C71.3803 65.5319 71.3457 65.5914 71.3195 65.6586C71.2932 65.7258 71.2758 65.7995 71.2683 65.8753C71.2607 65.9512 71.2631 66.0279 71.2753 66.1009C71.2876 66.1739 71.3094 66.2418 71.3396 66.3008C71.3698 66.3598 71.4078 66.4088 71.4513 66.4448C71.4949 66.4808 71.5432 66.5032 71.5934 66.5108L71.8916 66.5634Z" fill="#231F20"/>
<path d="M160.563 63.7037C157.78 63.4688 155.072 62.6931 152.596 61.4217C152.493 61.3683 152.402 61.2956 152.328 61.2077C152.254 61.1197 152.198 61.0182 152.163 60.9091C152.129 60.7999 152.117 60.6852 152.128 60.5715C152.139 60.4577 152.172 60.3471 152.226 60.2461C152.281 60.1451 152.355 60.0556 152.444 59.9826C152.534 59.9097 152.637 59.8548 152.748 59.8211C152.859 59.7874 152.976 59.7756 153.091 59.7862C153.207 59.7968 153.32 59.8297 153.422 59.8831C153.422 59.8831 157.978 62.2342 161.056 61.9576C161.794 61.0068 159.543 53.867 156.096 46.3987C156.017 46.1929 156.02 45.9652 156.106 45.7619C156.192 45.5587 156.353 45.3952 156.557 45.3048C156.761 45.2144 156.993 45.2039 157.204 45.2755C157.416 45.3471 157.592 45.4953 157.696 45.6899C159.244 49.0264 164.134 60.1251 162.533 62.8566C162.391 63.0824 162.199 63.2732 161.97 63.4141C161.741 63.555 161.483 63.6422 161.214 63.6691L160.563 63.7037Z" fill="#231F20"/>
<path d="M161.14 73.42C156.863 73.3046 152.652 72.2603 148.764 70.3505C148.657 70.3037 148.56 70.2347 148.478 70.1473C148.397 70.06 148.332 69.9562 148.288 69.8419C148.245 69.7276 148.223 69.6051 148.224 69.4817C148.225 69.3582 148.249 69.2362 148.294 69.1227C148.389 68.8985 148.562 68.7227 148.776 68.6324C148.99 68.5422 149.229 68.5445 149.441 68.639C160.48 73.6991 166.408 70.4993 166.46 70.4993C166.665 70.389 166.903 70.3701 167.121 70.4468C167.339 70.5235 167.52 70.6895 167.624 70.9086C167.679 71.0157 167.712 71.1334 167.723 71.2546C167.734 71.3758 167.722 71.4981 167.688 71.6142C167.654 71.7304 167.598 71.8381 167.525 71.931C167.451 72.0239 167.361 72.1001 167.259 72.155C165.334 73.0623 163.243 73.4947 161.14 73.42Z" fill="#231F20"/>
<path d="M146.761 47.1738C147.569 47.1738 148.224 45.6501 148.224 43.7705C148.224 41.8909 147.569 40.3672 146.761 40.3672C145.953 40.3672 145.298 41.8909 145.298 43.7705C145.298 45.6501 145.953 47.1738 146.761 47.1738Z" fill="#231F20"/>
<path d="M168.214 47.1738C169.022 47.1738 169.677 45.6501 169.677 43.7705C169.677 41.8909 169.022 40.3672 168.214 40.3672C167.406 40.3672 166.751 41.8909 166.751 43.7705C166.751 45.6501 167.406 47.1738 168.214 47.1738Z" fill="#231F20"/>
<path d="M246.038 67.9653C244.844 68.4432 242.918 68.9834 241.694 68.1631C239.969 67.0093 242.229 60.2483 243.275 57.3888C243.294 57.3254 243.326 57.2666 243.369 57.2161C243.412 57.1655 243.465 57.1242 243.524 57.0947C243.584 57.0653 243.649 57.0483 243.715 57.0447C243.782 57.0412 243.848 57.0512 243.91 57.0742C243.973 57.0972 244.03 57.1327 244.078 57.1784C244.126 57.2241 244.164 57.2792 244.19 57.3402C244.216 57.4012 244.229 57.4668 244.229 57.5331C244.228 57.5994 244.214 57.6649 244.188 57.7255C242.467 62.4058 241.572 66.892 242.23 67.3518C243.333 68.0837 245.766 67.079 246.611 66.6466C246.667 66.614 246.728 66.5933 246.792 66.5857C246.856 66.5781 246.921 66.5837 246.983 66.6023C247.045 66.6209 247.102 66.652 247.151 66.6937C247.2 66.7354 247.24 66.7867 247.269 66.8445C247.329 66.9578 247.342 67.0903 247.305 67.2131C247.268 67.3359 247.183 67.4391 247.07 67.5002C246.925 67.5581 246.572 67.7517 246.038 67.9653Z" fill="#231F20"/>
<path d="M243.964 75.7317C238.961 75.7317 234.388 71.9881 234.212 71.8422C234.163 71.8019 234.122 71.752 234.092 71.6957C234.062 71.6394 234.044 71.5776 234.039 71.5142C234.033 71.4507 234.041 71.3868 234.06 71.3263C234.08 71.2657 234.112 71.2097 234.154 71.1615C234.236 71.0628 234.353 71.0003 234.481 70.9875C234.609 70.9748 234.737 71.0129 234.836 71.0935C234.895 71.0935 240.531 75.7609 245.778 74.6037C248.401 74.03 250.507 72.0853 252.058 68.8278C252.119 68.721 252.218 68.6411 252.336 68.6043C252.453 68.5675 252.58 68.5765 252.692 68.6295C252.803 68.6825 252.89 68.7756 252.935 68.89C252.98 69.0043 252.98 69.1315 252.935 69.246C251.258 72.7854 248.918 74.9149 245.982 75.5567C245.318 75.6891 244.641 75.7478 243.964 75.7317Z" fill="#231F20"/>
<path d="M239.605 56.4582H239.527C239.401 56.4389 239.288 56.3711 239.211 56.2693C239.134 56.1675 239.101 56.0398 239.118 55.9136C239.289 55.0328 239.122 54.1201 238.65 53.3563C238.503 53.2264 238.328 53.1331 238.138 53.0841C237.948 53.0351 237.749 53.0317 237.558 53.0743C235.315 53.366 235.071 55.9136 235.061 55.9914C235.056 56.0554 235.039 56.1177 235.009 56.1748C234.98 56.2319 234.94 56.2828 234.891 56.3243C234.842 56.3659 234.786 56.3974 234.724 56.417C234.663 56.4367 234.599 56.4441 234.535 56.4387C234.406 56.4264 234.287 56.3647 234.204 56.2667C234.12 56.1687 234.078 56.0421 234.086 55.9136C234.183 54.7273 235.061 52.4034 237.431 52.0825C237.777 52.0086 238.137 52.0214 238.477 52.1198C238.817 52.2182 239.128 52.3992 239.381 52.6465C240.434 53.7161 240.161 55.7872 240.122 56.0206C240.11 56.1462 240.049 56.262 239.953 56.3436C239.856 56.4253 239.732 56.4663 239.605 56.4582Z" fill="#231F20"/>
<path d="M252.409 57.2265H252.341C252.277 57.2182 252.215 57.1972 252.16 57.1645C252.104 57.1319 252.056 57.0884 252.017 57.0366C251.979 56.9848 251.952 56.9258 251.937 56.8632C251.922 56.8006 251.92 56.7356 251.931 56.6722C252.094 55.7933 251.924 54.8855 251.453 54.1246C251.308 53.9926 251.133 53.8979 250.942 53.8488C250.752 53.7997 250.553 53.7976 250.361 53.8426C248.128 54.1343 247.875 56.6722 247.865 56.7598C247.853 56.8887 247.791 57.0077 247.691 57.0907C247.591 57.1737 247.463 57.2138 247.333 57.2022C247.204 57.1906 247.085 57.1282 247.001 57.0288C246.918 56.9295 246.878 56.8012 246.89 56.6722C246.987 55.4859 247.816 53.162 250.234 52.8411C250.582 52.7718 250.941 52.7879 251.281 52.8878C251.62 52.9878 251.931 53.1686 252.185 53.4148C253.228 54.4844 252.955 56.5556 252.916 56.7889C252.906 56.9136 252.847 57.0294 252.752 57.1113C252.658 57.1932 252.534 57.2345 252.409 57.2265Z" fill="#231F20"/>
</g>
<defs>
<clipPath id="clip0_836_94481">
<rect width="314" height="176" fill="white" transform="translate(0 0.5)"/>
</clipPath>
</defs>
</svg>
