<svg width="474" height="514" viewBox="0 0 474 514" fill="none" xmlns="http://www.w3.org/2000/svg">
<path d="M62 86H81V111H62V86Z" fill="#FBFBFB"/>
<path d="M105 80C105 97.1208 95.1503 111 83 111C70.8497 111 61 97.1208 61 80C61 62.8792 70.8497 49 83 49C95.1503 49 105 62.8792 105 80Z" fill="#FBFBFB"/>
<path d="M131 75.5C131 94.0015 117.569 109 101 109C84.4315 109 71 94.0015 71 75.5C71 56.9985 84.4315 42 101 42C117.569 42 131 56.9985 131 75.5Z" fill="#FBFBFB"/>
<path d="M218.667 473.172C319.458 473.172 401.165 462.443 401.165 449.209C401.165 435.975 319.458 425.246 218.667 425.246C117.876 425.246 36.1689 435.975 36.1689 449.209C36.1689 462.443 117.876 473.172 218.667 473.172Z" fill="black" fill-opacity="0.2"/>
<path d="M205.671 198.74C205.671 198.74 188.253 200.834 181.857 201.256C175.46 201.679 168.861 206.323 167.781 207.234C166.701 208.146 161.603 215.34 163.308 220.879C165.013 226.418 172.051 231.755 175.038 232.177C178.025 232.599 201.924 220.542 207.258 216.269L205.671 198.74Z" fill="white"/>
<path d="M175.139 233.02H174.92C171.46 232.531 164.22 226.755 162.481 221.199C160.591 215.053 166.194 207.47 167.241 206.609C167.241 206.609 174.515 200.935 181.806 200.462C188.101 200.04 205.435 197.963 205.57 197.946C205.684 197.932 205.8 197.941 205.911 197.973C206.022 198.004 206.125 198.058 206.215 198.13C206.305 198.203 206.379 198.293 206.434 198.394C206.488 198.496 206.521 198.608 206.532 198.723L208.118 216.268C208.134 216.412 208.113 216.557 208.057 216.69C208.001 216.823 207.912 216.94 207.798 217.028C202.852 220.896 179.46 233.02 175.139 233.02ZM204.878 199.668C201.232 200.107 187.426 201.729 181.907 202.1C176.388 202.472 170.093 206.491 168.405 207.876C167.612 208.5 162.616 215.39 164.22 220.592C165.823 225.793 172.49 230.893 175.224 231.281C177.958 231.67 200.388 220.389 206.414 215.846L204.878 199.668Z" fill="#231F20"/>
<path d="M165.823 222.078C165.823 222.078 177.485 232.21 181.316 232.311C185.148 232.413 183.004 228.461 183.004 228.461C183.004 228.461 186.683 231.349 187.325 228.951C187.966 226.553 187.156 225.573 187.156 225.573C187.156 225.573 190.194 229.728 191.004 226.688C191.814 223.648 191.325 222.686 191.325 222.686C191.325 222.686 193.721 227.499 194.835 224.138C195.949 220.777 189.401 208.94 182.852 203.333C182.852 203.333 190.515 204.144 191.156 201.425C191.797 198.706 184.928 197.575 182.042 197.423C179.156 197.271 173.603 200.935 168.624 201.425C164.349 201.604 160.067 201.389 155.831 200.783L156.472 219.359L165.823 222.078Z" fill="white"/>
<path d="M181.536 233.189H181.283C177.384 233.037 167.139 224.374 165.401 222.871L156.152 220.203C155.972 220.156 155.812 220.051 155.696 219.905C155.58 219.759 155.515 219.579 155.511 219.393L154.869 200.817C154.868 200.688 154.893 200.56 154.943 200.442C154.992 200.323 155.064 200.215 155.156 200.124C155.254 200.044 155.368 199.985 155.49 199.95C155.611 199.915 155.739 199.905 155.865 199.922C160.034 200.512 164.249 200.721 168.456 200.547C171.046 200.133 173.567 199.366 175.949 198.267C177.843 197.324 179.9 196.751 182.008 196.578C182.093 196.578 189.519 197.034 191.477 199.652C191.698 199.931 191.852 200.258 191.928 200.606C192.004 200.954 192 201.315 191.916 201.661C191.376 203.975 187.679 204.363 185.165 204.363C191.207 210.493 196.81 220.929 195.646 224.442C195.274 225.573 194.667 226.131 193.873 226.232C193.554 226.225 193.239 226.153 192.949 226.019C192.658 225.886 192.399 225.694 192.186 225.455C192.186 225.894 192 226.384 191.865 226.941C191.527 228.208 190.835 228.63 190.312 228.63C189.971 228.666 189.626 228.632 189.298 228.53C188.97 228.429 188.666 228.262 188.405 228.039C188.351 228.408 188.278 228.775 188.186 229.137C188.117 229.478 187.959 229.796 187.728 230.057C187.496 230.318 187.2 230.513 186.869 230.623C186.08 230.818 185.247 230.722 184.523 230.352C184.608 230.937 184.489 231.534 184.186 232.041C183.895 232.461 183.493 232.791 183.025 232.994C182.556 233.197 182.041 233.265 181.536 233.189ZM157.232 218.683L166.059 221.233C166.18 221.268 166.29 221.332 166.38 221.419C170.987 225.388 178.768 231.332 181.35 231.433C182.008 231.433 182.464 231.349 182.599 231.112C182.734 230.876 182.464 229.424 182.16 228.9C182.068 228.724 182.037 228.522 182.075 228.326C182.112 228.131 182.214 227.953 182.365 227.824C182.517 227.694 182.707 227.62 182.906 227.613C183.105 227.606 183.3 227.667 183.46 227.786C184.226 228.473 185.188 228.904 186.211 229.018C186.211 229.018 186.329 229.018 186.397 228.731C186.727 227.896 186.727 226.966 186.397 226.131C186.261 225.949 186.203 225.721 186.235 225.496C186.266 225.272 186.385 225.069 186.565 224.932C186.745 224.797 186.969 224.736 187.191 224.761C187.414 224.786 187.619 224.895 187.764 225.067C188.283 225.862 189.006 226.503 189.857 226.924C189.932 226.773 189.995 226.614 190.042 226.452C190.436 225.372 190.558 224.212 190.397 223.074C190.346 222.972 190.315 222.862 190.308 222.748C190.301 222.635 190.317 222.521 190.355 222.414C190.393 222.306 190.452 222.208 190.528 222.124C190.605 222.04 190.698 221.973 190.802 221.926C191.013 221.826 191.254 221.812 191.475 221.888C191.695 221.964 191.878 222.123 191.983 222.331C192.353 223.179 192.934 223.917 193.671 224.476C193.768 224.284 193.853 224.087 193.924 223.885C194.819 221.233 188.861 209.767 182.194 204.042C182.052 203.921 181.952 203.757 181.91 203.574C181.867 203.392 181.884 203.201 181.958 203.029C182.032 202.858 182.159 202.715 182.32 202.621C182.48 202.527 182.667 202.486 182.852 202.506C185.755 202.809 189.924 202.506 190.228 201.256C190.25 201.159 190.249 201.058 190.226 200.961C190.203 200.865 190.157 200.775 190.093 200.699C189.063 199.331 184.608 198.469 181.907 198.334C180.06 198.543 178.265 199.081 176.608 199.922C174.07 201.086 171.383 201.893 168.624 202.32C164.629 202.528 160.622 202.358 156.658 201.813L157.232 218.683Z" fill="#231F20"/>
<path d="M193.806 200.428C191.357 200.327 188.904 200.395 186.464 200.631C182.042 201.053 177.283 202.32 174.565 205.798C174.388 205.978 174.259 206.198 174.188 206.44C174.117 206.681 174.108 206.937 174.16 207.183C174.363 207.673 174.97 207.825 175.477 207.909C179.137 208.478 182.859 208.523 186.532 208.044C187.03 207.917 187.552 207.917 188.051 208.044C188.433 208.217 188.782 208.458 189.08 208.754C190.536 209.962 192.34 210.672 194.228 210.78" fill="white"/>
<path d="M194.228 211.608C192.146 211.502 190.155 210.719 188.557 209.379L188.405 209.261C188.221 209.083 188.01 208.935 187.781 208.822C187.426 208.738 187.056 208.738 186.701 208.822C182.939 209.317 179.125 209.272 175.376 208.687C174.967 208.664 174.572 208.538 174.226 208.319C173.88 208.1 173.596 207.796 173.401 207.437C173.27 207.05 173.248 206.634 173.337 206.234C173.426 205.835 173.624 205.468 173.907 205.174C176.304 202.05 180.405 200.26 186.414 199.686C188.893 199.449 191.385 199.382 193.874 199.483C193.987 199.487 194.098 199.514 194.201 199.561C194.303 199.609 194.396 199.676 194.473 199.759C194.549 199.842 194.609 199.94 194.648 200.046C194.687 200.152 194.705 200.265 194.701 200.378C194.68 200.607 194.575 200.819 194.407 200.975C194.239 201.131 194.019 201.219 193.789 201.222C191.386 201.124 188.978 201.186 186.583 201.408C181.08 201.949 177.384 203.519 175.291 206.238C175.004 206.626 175.004 206.778 175.004 206.778C175.004 206.778 175.106 206.88 175.646 206.964C179.222 207.524 182.859 207.569 186.448 207.099C187.084 206.932 187.752 206.932 188.388 207.099C188.815 207.278 189.205 207.536 189.536 207.859C190.875 209.007 192.553 209.683 194.312 209.784C194.544 209.802 194.759 209.908 194.914 210.081C195.068 210.255 195.149 210.481 195.139 210.713C195.142 210.833 195.12 210.951 195.075 211.062C195.029 211.173 194.962 211.273 194.877 211.357C194.791 211.441 194.69 211.507 194.578 211.55C194.467 211.593 194.348 211.613 194.228 211.608Z" fill="#231F20"/>
<path d="M352.945 428.962C352.945 428.962 354.312 437.845 352.27 441.256C350.228 444.667 348.388 449.008 347.494 456.978C349.128 458.807 351.124 460.277 353.355 461.294C355.586 462.311 358.004 462.854 360.456 462.889C368.658 462.889 376.844 456.742 377.755 453.787C378.667 450.831 371.156 419.404 371.156 419.404L352.945 428.962Z" fill="white"/>
<path d="M360.456 463.767C357.87 463.734 355.32 463.161 352.969 462.085C350.618 461.009 348.517 459.454 346.802 457.519C346.666 457.333 346.601 457.106 346.616 456.877C347.595 448.281 349.654 443.924 351.51 440.817C353.063 438.233 352.456 431.479 352.084 429.097C352.058 428.917 352.088 428.733 352.17 428.57C352.251 428.407 352.38 428.273 352.54 428.186L370.751 418.627C370.869 418.569 370.999 418.539 371.131 418.539C371.262 418.539 371.392 418.569 371.51 418.627C371.634 418.679 371.743 418.76 371.828 418.863C371.913 418.966 371.972 419.088 372 419.218C373.266 424.504 379.527 451.017 378.582 454.057C377.637 457.096 369.046 463.767 360.456 463.767ZM348.388 456.691C349.945 458.337 351.814 459.656 353.886 460.572C355.958 461.488 358.191 461.983 360.456 462.027C368.321 462.027 376.169 455.982 376.928 453.584C377.451 451.895 374.093 435.582 370.565 420.738L353.89 429.503C354.177 431.631 354.886 438.622 353.013 441.763C351.139 444.904 349.35 448.67 348.388 456.691Z" fill="#231F20"/>
<path d="M296.321 235.52L335.781 246.446L344.962 126.547C344.962 126.547 308.928 132.474 301.08 136.105C293.232 139.736 296.321 235.52 296.321 235.52Z" fill="white"/>
<path d="M335.781 247.324H335.544L296.101 236.398C295.922 236.348 295.764 236.243 295.649 236.097C295.534 235.952 295.467 235.773 295.46 235.588C295.46 235.351 294.667 211.338 294.852 187.189C295.241 137.828 299.173 136.004 300.658 135.329C308.574 131.664 343.342 125.939 344.81 125.686C344.941 125.662 345.076 125.669 345.204 125.705C345.332 125.742 345.449 125.808 345.548 125.898C345.646 125.988 345.722 126.1 345.769 126.224C345.817 126.349 345.836 126.482 345.823 126.615L336.641 246.514C336.634 246.645 336.596 246.772 336.532 246.886C336.468 247 336.378 247.098 336.27 247.172C336.127 247.273 335.956 247.326 335.781 247.324ZM297.181 234.845L334.987 245.332L344 127.561C337.924 128.591 308.321 133.674 301.401 136.865C296.641 139.078 295.663 188.861 297.181 234.845Z" fill="#231F20"/>
<path d="M309.418 416.364V443.079L296.675 446.727L296.979 441.256L291.274 446.98C291.274 446.98 257.03 453.127 257.198 448.568C257.367 444.008 260.844 441.509 265.165 439.229C269.806 436.797 282.042 429.891 282.042 429.891L283.865 410.318" fill="white"/>
<path d="M263.561 451.152C260.371 451.152 257.924 450.831 256.979 450.004C256.766 449.836 256.597 449.62 256.485 449.373C256.373 449.126 256.323 448.856 256.337 448.585C256.54 443.519 260.506 440.75 264.776 438.453C269.046 436.156 279.072 430.55 281.198 429.351L282.987 410.218C282.976 410.092 282.993 409.966 283.036 409.847C283.079 409.729 283.148 409.622 283.237 409.533C283.326 409.444 283.433 409.376 283.552 409.333C283.67 409.29 283.796 409.273 283.922 409.285C284.047 409.296 284.169 409.335 284.277 409.398C284.386 409.461 284.48 409.548 284.552 409.651C284.623 409.755 284.672 409.873 284.693 409.997C284.714 410.121 284.708 410.248 284.675 410.37L282.886 430.094C282.871 430.233 282.823 430.366 282.747 430.484C282.671 430.601 282.568 430.699 282.447 430.769C282.312 430.769 270.177 437.71 265.57 440.125C260.962 442.54 258.228 444.786 258.076 448.72C259.004 450.409 273.975 449.295 290.852 446.289L296.422 440.716C296.541 440.586 296.699 440.499 296.872 440.465C297.045 440.432 297.225 440.454 297.384 440.53C297.546 440.602 297.683 440.72 297.776 440.871C297.87 441.022 297.915 441.197 297.907 441.374L297.671 445.613L308.607 442.489V416.365C308.57 416.234 308.564 416.096 308.589 415.963C308.613 415.829 308.669 415.703 308.751 415.595C308.833 415.486 308.938 415.398 309.06 415.337C309.182 415.277 309.316 415.245 309.451 415.245C309.587 415.245 309.721 415.277 309.843 415.337C309.964 415.398 310.07 415.486 310.152 415.595C310.234 415.703 310.289 415.829 310.314 415.963C310.339 416.096 310.333 416.234 310.295 416.365V443.08C310.293 443.269 310.232 443.452 310.12 443.604C310.008 443.755 309.851 443.867 309.671 443.924L296.911 447.555C296.779 447.594 296.64 447.6 296.505 447.574C296.37 447.547 296.243 447.489 296.135 447.403C296.026 447.318 295.94 447.207 295.884 447.08C295.828 446.954 295.804 446.815 295.814 446.677L295.983 443.485L291.831 447.64C291.71 447.771 291.551 447.86 291.375 447.893C287.645 448.568 272.607 451.152 263.561 451.152Z" fill="#231F20"/>
<path d="M370.683 246.293L381.401 427.137C381.401 427.137 380.388 434.551 364.304 435.463C348.219 436.375 349.839 432.609 349.839 432.609L324.523 305.82L314.194 423.929L279.477 426.073L286.38 231.871L370.683 246.293Z" fill="#231F20"/>
<path d="M359.73 436.443C353.941 436.443 350.447 435.65 349.333 434.045C349.032 433.619 348.905 433.093 348.979 432.576L324.878 311.748L315.072 423.997C315.056 424.201 314.966 424.392 314.821 424.535C314.675 424.678 314.482 424.763 314.278 424.774L279.561 426.919C279.324 426.928 279.094 426.843 278.92 426.682C278.755 426.51 278.664 426.28 278.667 426.041L285.57 231.838C285.575 231.72 285.607 231.604 285.662 231.499C285.718 231.394 285.795 231.302 285.89 231.231C285.979 231.152 286.084 231.095 286.198 231.063C286.312 231.031 286.432 231.025 286.548 231.045L370.818 245.517C371.005 245.548 371.176 245.642 371.302 245.783C371.428 245.924 371.501 246.105 371.51 246.294L382.245 427.138C382.245 427.628 380.928 435.413 364.354 436.359C362.667 436.393 361.131 436.443 359.73 436.443ZM350.616 432.914C350.664 433.003 350.721 433.088 350.785 433.167C351.359 433.809 353.806 435.21 364.287 434.619C378.548 433.826 380.422 427.78 380.591 427.088L369.907 247.02L287.207 232.818L280.456 425.18L313.519 423.136L323.78 305.737C323.797 305.535 323.887 305.346 324.033 305.206C324.179 305.066 324.371 304.984 324.574 304.977C324.775 304.965 324.973 305.027 325.132 305.152C325.29 305.276 325.398 305.454 325.435 305.652L350.751 432.441C350.801 432.6 350.801 432.771 350.751 432.931L350.616 432.914Z" fill="#231F20"/>
<path d="M338.819 122.865C338.819 122.865 325.148 249.333 331.224 257.236C337.3 265.14 364.456 275.593 376.591 265.883C388.726 256.172 373.857 141.846 368.489 133.352C359.096 128.582 349.122 125.057 338.819 122.865Z" fill="#004680"/>
<path d="M389.536 287.346C389.536 287.346 387.848 276.555 388.81 275.525C389.772 274.495 413.907 273.836 415.814 274.056C417.721 274.275 418.042 285.505 418.042 285.505L414.447 285.86C414.447 285.86 414.835 278.548 413.502 278.227C412.169 277.906 392.574 278.497 392.574 278.497L393.62 287.312L389.536 287.346Z" fill="#231F20"/>
<path d="M389.536 288.241C389.337 288.239 389.144 288.167 388.993 288.037C388.842 287.908 388.741 287.728 388.709 287.531C387.528 280.084 387.359 275.879 388.22 275.001C389.722 273.481 415.713 273.312 415.967 273.312C417.789 273.448 418.802 277.585 418.971 285.589C418.969 285.8 418.891 286.003 418.751 286.162C418.612 286.32 418.42 286.422 418.211 286.451L414.616 286.805C414.496 286.815 414.375 286.799 414.262 286.759C414.148 286.718 414.045 286.653 413.958 286.569C413.867 286.49 413.796 286.39 413.749 286.279C413.702 286.168 413.681 286.048 413.688 285.927C413.917 283.668 413.775 281.386 413.266 279.172C411.696 279.003 400.861 279.172 393.587 279.459L394.532 287.363C394.545 287.48 394.534 287.6 394.499 287.713C394.465 287.826 394.407 287.931 394.329 288.021C394.253 288.112 394.157 288.185 394.049 288.234C393.941 288.284 393.824 288.309 393.705 288.308H389.536V288.241ZM389.435 276.234C389.339 279.693 389.617 283.152 390.262 286.552H392.76L391.815 278.683C391.804 278.568 391.816 278.451 391.851 278.341C391.885 278.231 391.942 278.129 392.017 278.041C392.09 277.951 392.183 277.878 392.288 277.828C392.393 277.778 392.508 277.753 392.625 277.754C395.916 277.652 412.422 277.146 413.789 277.484C414.262 277.602 415.68 277.94 415.477 285.015L417.334 284.83C417.165 279.898 416.49 275.457 415.781 274.934C413.671 274.731 392.118 275.373 389.435 276.183V276.234Z" fill="#231F20"/>
<path d="M394.667 259.431C392.701 262.666 391.089 266.103 389.857 269.682C389.308 271.565 389.361 273.572 390.008 275.423L395.629 274.512C395.629 274.512 394.802 285.488 396.557 285.488C398.312 285.488 401.046 286.822 400.878 278.345C400.878 278.345 401.637 281.587 404.506 280.321C406.097 279.704 407.386 278.493 408.101 276.943C408.101 276.943 410.616 281.03 413.165 276.538C415.713 272.046 411.561 259.33 411.561 259.33L411.156 253.217L393.958 253.69L394.667 259.431Z" fill="white"/>
<path d="M397.941 286.434C397.654 286.434 397.384 286.434 397.131 286.434H396.557C396.186 286.42 395.835 286.263 395.578 285.995C394.329 284.661 394.481 278.953 394.683 275.627L390.16 276.353C389.975 276.383 389.785 276.354 389.618 276.269C389.451 276.184 389.316 276.048 389.232 275.88C388.488 273.852 388.411 271.639 389.012 269.564C390.208 265.979 391.805 262.54 393.772 259.314L393.147 253.876C393.133 253.755 393.143 253.633 393.178 253.517C393.213 253.401 393.271 253.293 393.35 253.2C393.515 253.018 393.746 252.909 393.991 252.896L411.19 252.44C411.612 252.339 412.05 252.778 412.084 253.251L412.472 259.246C412.911 260.58 416.624 272.435 413.958 277.045C412.996 278.734 411.882 279.578 410.582 279.595C410.132 279.595 409.687 279.501 409.275 279.321C408.862 279.141 408.492 278.878 408.185 278.548C407.317 279.718 406.152 280.633 404.81 281.199C404.362 281.424 403.868 281.541 403.367 281.541C402.866 281.541 402.372 281.424 401.924 281.199L401.637 281.047C401.705 282.718 401.152 284.355 400.084 285.641C399.5 286.174 398.731 286.459 397.941 286.434ZM396.776 284.611H397.282C398.059 284.611 398.565 284.61 398.97 284.323C399.375 284.036 400.101 282.381 400.017 278.328C400.015 278.112 400.094 277.903 400.237 277.741C400.38 277.579 400.578 277.475 400.793 277.45C401.004 277.424 401.217 277.477 401.392 277.598C401.566 277.72 401.69 277.902 401.738 278.109C401.887 278.714 402.253 279.243 402.768 279.595C402.995 279.68 403.237 279.715 403.479 279.697C403.721 279.68 403.956 279.61 404.169 279.494C405.55 278.982 406.673 277.944 407.291 276.606C407.351 276.455 407.452 276.324 407.581 276.226C407.71 276.129 407.864 276.068 408.025 276.05C408.186 276.033 408.349 276.06 408.496 276.128C408.644 276.196 408.769 276.303 408.861 276.437C409.063 276.792 409.839 277.737 410.548 277.737C411.257 277.737 411.949 276.826 412.388 276.049C414.363 272.671 411.848 262.978 410.7 259.55C410.691 259.477 410.691 259.403 410.7 259.33L410.346 254.062L394.937 254.484L395.477 259.28C395.496 259.468 395.455 259.657 395.358 259.82C393.446 262.986 391.868 266.342 390.65 269.834C390.262 271.326 390.233 272.889 390.565 274.394L395.426 273.6C395.556 273.575 395.69 273.581 395.816 273.62C395.943 273.658 396.058 273.727 396.152 273.82C396.25 273.909 396.327 274.019 396.376 274.141C396.426 274.264 396.447 274.397 396.439 274.529C396.185 278.717 396.236 283.597 396.776 284.611Z" fill="#231F20"/>
<path d="M377.333 288.342L366.616 289.642L371.325 343.934L382.802 344.88L377.333 288.342Z" fill="#6F93B3"/>
<path d="M382.802 345.743L371.325 344.814C371.12 344.798 370.927 344.71 370.781 344.564C370.636 344.418 370.547 344.225 370.532 344.02L365.823 289.711C365.811 289.6 365.822 289.488 365.854 289.381C365.886 289.274 365.938 289.175 366.009 289.088C366.08 289.002 366.167 288.93 366.265 288.878C366.364 288.825 366.471 288.793 366.582 288.782L377.3 287.465C377.529 287.45 377.756 287.516 377.941 287.651C378.033 287.725 378.108 287.818 378.163 287.922C378.218 288.027 378.252 288.141 378.262 288.259L383.679 344.797C383.694 344.917 383.683 345.04 383.646 345.155C383.609 345.271 383.547 345.377 383.466 345.467C383.384 345.557 383.284 345.628 383.172 345.675C383.061 345.723 382.94 345.746 382.819 345.743H382.802ZM372.135 343.125L381.84 343.919L376.557 289.306L367.561 290.403L372.135 343.125Z" fill="#231F20"/>
<path d="M357 80.9991C357 91.4925 351.851 99.9991 345.5 99.9991C339.149 99.9991 334 91.4925 334 80.9991C334 70.5057 339.149 61.9991 345.5 61.9991C351.851 61.9991 357 70.5057 357 80.9991Z" fill="#004680"/>
<path d="M325.108 51.0156C341.488 56.7261 351.599 70.4373 347.694 81.6403C343.788 92.8433 327.343 97.2958 310.964 91.5853C294.585 85.8748 283.594 67.7014 287.5 56.4984C303.5 78.9991 308 52 325.108 51.0156Z" fill="#004680"/>
<path d="M357 80.9991C357 91.4925 351.851 99.9991 345.5 99.9991C339.149 99.9991 334 91.4925 334 80.9991C334 70.5057 339.149 61.9991 345.5 61.9991C351.851 61.9991 357 70.5057 357 80.9991Z" fill="#FBFBFB"/>
<path d="M325.108 51.0156C341.488 56.7261 351.599 70.4373 347.694 81.6403C343.788 92.8433 327.343 97.2958 310.964 91.5853C294.585 85.8748 283.594 67.7014 287.5 56.4984C303.5 78.9991 308 52 325.108 51.0156Z" fill="#FBFBFB"/>
<path d="M377.333 288.342C377.08 289.085 382.802 344.88 382.802 344.88L434.127 339.594L430.667 285.049L377.333 288.342Z" fill="#6F93B3"/>
<path d="M382.802 345.742C382.601 345.74 382.406 345.675 382.245 345.556C382.073 345.405 381.964 345.194 381.941 344.965C376.202 288.984 376.422 288.292 376.506 288.072C376.556 287.902 376.657 287.752 376.796 287.643C376.936 287.534 377.106 287.472 377.283 287.465L430.616 284.172C430.846 284.158 431.072 284.235 431.246 284.386C431.42 284.538 431.527 284.752 431.544 284.982L435.004 339.545C435.018 339.768 434.945 339.987 434.8 340.158C434.655 340.328 434.45 340.435 434.228 340.456L382.886 345.742H382.802ZM378.228 289.153C378.565 294.219 381.502 323.586 383.578 343.918L433.215 338.852L429.84 285.995L378.228 289.153Z" fill="#231F20"/>
<path d="M296 53L315 56L313 65L299 69L296 53Z" fill="#FBFBFB"/>
<path d="M310 50L329 53L327 62L313 66L310 50Z" fill="#FBFBFB"/>
<path d="M389.823 308.016C389.679 308.016 389.538 307.98 389.412 307.913C389.285 307.845 389.177 307.747 389.097 307.628L376.608 288.816C376.513 288.624 376.491 288.404 376.547 288.198C376.602 287.992 376.731 287.813 376.909 287.694C377.087 287.576 377.303 287.527 377.514 287.557C377.726 287.586 377.92 287.691 378.059 287.853L390.262 306.226L422.852 303.676L429.856 284.746C429.894 284.638 429.953 284.538 430.03 284.453C430.107 284.367 430.2 284.298 430.303 284.25C430.407 284.201 430.52 284.173 430.634 284.169C430.749 284.164 430.863 284.182 430.97 284.222C431.079 284.262 431.179 284.323 431.265 284.401C431.35 284.479 431.419 284.574 431.467 284.679C431.516 284.784 431.544 284.898 431.548 285.014C431.552 285.13 431.534 285.245 431.494 285.354L424.287 304.791C424.23 304.947 424.13 305.084 423.999 305.186C423.867 305.287 423.71 305.35 423.544 305.365L389.89 308.016H389.823Z" fill="#231F20"/>
<path d="M410.407 301.294L405.458 301.836L406.544 311.757L411.493 311.215L410.407 301.294Z" fill="#D1D3D4"/>
<path d="M284.186 133.808C284.186 133.808 269.62 262.691 273.266 266.338C276.911 269.986 292.996 265.426 298.447 261.779C303.899 258.131 311.848 124.436 311.848 124.436C311.848 124.436 292.084 127.121 284.186 133.808Z" fill="#004680"/>
<path d="M284.186 133.809C284.186 133.809 258.363 187.848 246.177 191.647C227.966 197.338 202.295 196.882 202.295 196.882L204.354 224.206C204.354 224.206 237.435 228.833 256.236 223.986C275.038 219.139 295.156 191.799 295.156 191.799L284.186 133.809Z" fill="#004680"/>
<path d="M316.135 142.978L319.696 148.145L306.869 225.202L315.072 235.672L325.536 226.569L323.257 148.99L327.274 143.366L322.194 139.719L316.135 142.978Z" fill="#DB211F"/>
<path d="M274.177 231.685H274.093C273.865 231.66 273.655 231.547 273.507 231.371C273.36 231.195 273.285 230.969 273.3 230.74C274.498 216.335 279.933 157.838 280.051 157.247C280.119 157.065 280.245 156.912 280.409 156.81C280.573 156.708 280.767 156.663 280.959 156.682C281.152 156.701 281.333 156.784 281.473 156.916C281.614 157.049 281.708 157.224 281.738 157.415C281.738 158.007 276.253 216.521 274.987 230.892C274.971 231.1 274.88 231.295 274.731 231.441C274.582 231.587 274.385 231.674 274.177 231.685Z" fill="#231F20"/>
<path d="M312.793 114.438L310.818 131.072C310.818 131.072 312.084 138.924 323.51 137.658C334.937 136.391 337.553 128.961 337.553 128.961L340.118 97.8208C340.118 97.8208 333.738 92.1974 338.43 74.6517C338.43 74.6517 320.641 77.742 304.422 73.5371C304.422 73.5371 301.62 93.8017 301.856 102.482C302.093 111.162 312.793 114.438 312.793 114.438Z" fill="white"/>
<path d="M321.232 138.672C311.375 138.672 310.076 131.292 310.059 131.208V130.971L311.949 115.047C309.468 114.135 301.316 110.538 301.097 102.5C300.844 93.7689 303.544 74.2474 303.662 73.4199C303.679 73.2988 303.723 73.183 303.79 73.0808C303.857 72.9786 303.946 72.8926 304.05 72.8289C304.149 72.7578 304.262 72.7089 304.382 72.6856C304.501 72.6622 304.624 72.665 304.742 72.6938C320.557 76.8142 338.109 73.7745 338.363 73.7745C338.504 73.748 338.651 73.7589 338.787 73.8063C338.923 73.8537 339.044 73.9359 339.139 74.0447C339.24 74.1507 339.312 74.2811 339.347 74.4232C339.383 74.5653 339.381 74.7142 339.342 74.8553C334.835 91.7425 340.692 97.0957 340.759 97.1464C340.858 97.2386 340.935 97.3516 340.984 97.4772C341.034 97.6028 341.055 97.7378 341.046 97.8725L338.481 129.012C338.498 129.085 338.498 129.16 338.481 129.232C338.38 129.553 335.561 137.186 323.73 138.503C322.901 138.607 322.067 138.664 321.232 138.672ZM311.814 131.039C312 131.934 313.688 137.794 323.51 136.797C333.637 135.666 336.439 129.637 336.793 128.759L339.308 98.1427C338.042 96.7073 333.721 90.5435 337.367 75.7166C333.029 76.3076 318.666 77.8612 305.299 74.6189C304.742 78.7394 302.65 94.8835 302.869 102.449C303.088 110.47 312.996 113.578 313.181 113.611C313.375 113.672 313.543 113.797 313.656 113.966C313.77 114.135 313.823 114.337 313.806 114.54L311.814 131.039Z" fill="#231F20"/>
<path d="M335.038 96.2671C335.614 94.7925 336.649 93.543 337.991 92.7039C339.275 91.9839 340.674 91.4925 342.126 91.2516C342.906 91.0306 343.724 90.9845 344.523 91.1165C345.068 91.279 345.577 91.5425 346.025 91.8933C347.15 92.6338 347.971 93.7548 348.337 95.0512C348.507 96.1145 348.42 97.2031 348.084 98.226C347.803 99.3698 347.371 100.471 346.801 101.502C346.208 102.515 345.42 103.399 344.482 104.104C343.544 104.809 342.476 105.32 341.338 105.607C340.201 105.895 339.018 105.953 337.858 105.779C336.698 105.605 335.585 105.201 334.582 104.592" fill="white"/>
<path d="M339.173 106.738C337.389 106.742 335.638 106.257 334.11 105.337C333.915 105.218 333.776 105.026 333.722 104.805C333.668 104.583 333.705 104.349 333.823 104.154C333.88 104.054 333.957 103.967 334.049 103.897C334.141 103.828 334.246 103.777 334.358 103.749C334.469 103.72 334.586 103.715 334.7 103.732C334.814 103.75 334.923 103.79 335.021 103.85C335.924 104.399 336.928 104.761 337.972 104.918C339.017 105.074 340.082 105.021 341.106 104.762C342.13 104.503 343.093 104.042 343.937 103.407C344.782 102.773 345.491 101.976 346.025 101.064C346.563 100.105 346.966 99.0765 347.224 98.0075C347.532 97.1186 347.619 96.1681 347.477 95.238C347.135 94.1569 346.432 93.2266 345.485 92.6036C345.13 92.3165 344.723 92.0988 344.287 91.9619C343.621 91.8676 342.943 91.9136 342.295 92.097C340.939 92.3228 339.632 92.7798 338.43 93.448C337.255 94.1828 336.349 95.2789 335.848 96.5721C335.765 96.7891 335.599 96.9642 335.387 97.0592C335.175 97.1541 334.935 97.1612 334.717 97.0787C334.501 96.9955 334.325 96.8297 334.231 96.6177C334.136 96.4056 334.129 96.1645 334.211 95.9473C334.873 94.2871 336.058 92.888 337.587 91.9619C338.955 91.1925 340.445 90.6614 341.992 90.3914C342.899 90.1408 343.851 90.1004 344.776 90.2732C345.441 90.4555 346.061 90.7715 346.599 91.202C347.889 92.0626 348.829 93.3564 349.249 94.8496C349.444 96.0587 349.351 97.2968 348.979 98.4635C348.678 99.6806 348.212 100.851 347.595 101.942C346.928 103.063 346.044 104.039 344.995 104.813C343.946 105.588 342.752 106.144 341.485 106.451C340.73 106.643 339.953 106.739 339.173 106.738Z" fill="#231F20"/>
<path d="M311.207 87.7734C311.207 87.7734 304.017 95.474 305.148 97.1965C306.278 98.919 310.211 98.5474 310.211 98.5474" fill="white"/>
<path d="M309.418 99.4423C308 99.4423 305.502 99.2059 304.489 97.6522C303.139 95.7271 307.73 90.2557 310.599 87.2835C310.676 87.2049 310.768 87.1424 310.869 87.0998C310.971 87.0571 311.08 87.0352 311.19 87.0352C311.3 87.0352 311.409 87.0571 311.51 87.0998C311.612 87.1424 311.704 87.2049 311.781 87.2835C311.936 87.4442 312.023 87.6592 312.023 87.883C312.023 88.1068 311.936 88.3218 311.781 88.4825C308.405 92.0795 305.62 96.0142 305.823 96.9261C306.447 97.8549 309.013 97.9731 310.16 97.8718C310.381 97.8573 310.598 97.9281 310.768 98.0695C310.937 98.211 311.046 98.4122 311.072 98.6317C311.091 98.8531 311.021 99.073 310.879 99.2437C310.737 99.4144 310.533 99.5222 310.312 99.5436C310.012 99.5255 309.714 99.4917 309.418 99.4423Z" fill="#231F20"/>
<path d="M319.506 85.7838C319.923 84.7342 319.657 83.6429 318.912 83.3461C318.166 83.0493 317.224 83.6595 316.806 84.7091C316.389 85.7586 316.655 86.85 317.401 87.1467C318.146 87.4435 319.089 86.8333 319.506 85.7838Z" fill="#231F20"/>
<path d="M308.863 84.016C309.277 82.9664 309.008 81.8767 308.263 81.582C307.517 81.2874 306.577 81.8995 306.163 82.9491C305.748 83.9987 306.017 85.0884 306.763 85.3831C307.508 85.6777 308.448 85.0656 308.863 84.016Z" fill="#231F20"/>
<path d="M307.73 102.482L315.274 102.972C315.274 102.972 315.764 108.427 311.679 109.406C307.595 110.386 307.73 102.482 307.73 102.482Z" fill="white"/>
<path d="M310.988 110.285C310.295 110.295 309.62 110.062 309.08 109.626C306.836 107.836 306.853 102.973 306.853 102.416C306.859 102.185 306.956 101.967 307.123 101.808C307.297 101.662 307.519 101.584 307.747 101.588L315.291 102.095C315.494 102.102 315.686 102.184 315.832 102.324C315.978 102.464 316.068 102.653 316.085 102.855C316.27 104.982 315.629 109.255 311.848 110.184C311.566 110.249 311.277 110.283 310.988 110.285ZM308.574 103.344C308.658 104.898 309.03 107.431 310.127 108.309C310.315 108.45 310.534 108.545 310.765 108.586C310.997 108.627 311.235 108.613 311.46 108.546C314.009 107.921 314.38 105.084 314.414 103.716L308.574 103.344Z" fill="#231F20"/>
<path d="M351.612 92.7898C351.495 92.813 351.374 92.813 351.257 92.7898C351.152 92.7441 351.058 92.678 350.979 92.5952C350.9 92.5124 350.838 92.4147 350.797 92.3078C350.756 92.2009 350.737 92.0869 350.741 91.9725C350.744 91.8581 350.771 91.7456 350.818 91.6415C353.082 87.1085 354.397 82.1609 354.683 77.1017C354.801 74.6454 354.358 72.1947 353.387 69.9356C352.416 67.6766 350.943 65.6688 349.08 64.0648C346.937 62.3761 343.51 61.3459 341.029 62.9333C340.894 63.023 340.737 63.0727 340.575 63.0767C340.413 63.0807 340.253 63.0388 340.113 62.9559C339.974 62.8729 339.861 62.7523 339.787 62.6079C339.713 62.4635 339.682 62.3012 339.696 62.1396C339.653 61.5693 339.493 61.0139 339.226 60.5083C338.959 60.0027 338.59 59.5577 338.143 59.2013C330.886 51.754 319.359 51.0617 309.536 51.5852C310.517 52.4543 311.4 53.4283 312.169 54.4897C312.247 54.6258 312.289 54.7801 312.289 54.9373C312.289 55.0944 312.247 55.2487 312.169 55.3848C312.103 55.5239 312 55.6427 311.873 55.7288C311.745 55.815 311.597 55.8653 311.443 55.8745C306.079 56.1906 300.714 55.2901 295.747 53.2401C296.323 57.3914 297.518 61.433 299.291 65.23C299.364 65.3811 299.392 65.5504 299.371 65.717C299.349 65.8836 299.279 66.0403 299.17 66.1678C299.06 66.2952 298.916 66.3878 298.755 66.4342C298.593 66.4807 298.422 66.4788 298.262 66.429C294.021 65.1756 290.361 62.4593 287.932 58.7622C287.441 62.5825 287.882 66.4652 289.22 70.0771C290.557 73.689 292.751 76.9223 295.612 79.4996C295.693 79.5784 295.758 79.6728 295.803 79.7773C295.847 79.8817 295.87 79.9941 295.87 80.1076C295.87 80.2211 295.847 80.3334 295.803 80.4379C295.758 80.5423 295.693 80.6367 295.612 80.7155C295.532 80.7977 295.436 80.863 295.33 80.9077C295.224 80.9523 295.111 80.9752 294.996 80.9752C294.881 80.9752 294.767 80.9523 294.661 80.9077C294.556 80.863 294.46 80.7977 294.38 80.7155C290.981 77.668 288.465 73.761 287.096 69.4049C285.727 65.0488 285.555 60.4043 286.599 55.9589C286.641 55.7834 286.737 55.6254 286.873 55.5072C287.009 55.389 287.179 55.3167 287.359 55.3003C287.539 55.2884 287.718 55.3302 287.874 55.4204C288.03 55.5106 288.156 55.6451 288.236 55.8069C290.007 59.4908 293.054 62.4069 296.81 64.0141C295.25 60.1134 294.266 56.0061 293.89 51.8216C293.877 51.6693 293.904 51.5161 293.968 51.3773C294.032 51.2385 294.131 51.1188 294.255 51.0301C294.38 50.9414 294.525 50.8867 294.677 50.8715C294.829 50.8563 294.983 50.8811 295.122 50.9434C299.676 53.0663 304.647 54.1451 309.671 54.1013C308.779 53.1158 307.77 52.2425 306.667 51.5007C306.515 51.399 306.399 51.2526 306.335 51.082C306.271 50.9113 306.261 50.7249 306.307 50.5485C306.354 50.3721 306.454 50.2145 306.594 50.0977C306.734 49.9809 306.907 49.9105 307.089 49.8964C317.738 49.1365 331.021 49.3392 339.359 57.901C340.211 58.695 340.854 59.6868 341.232 60.7887C342.746 60.3273 344.352 60.2525 345.903 60.5711C347.453 60.8896 348.899 61.5914 350.11 62.6125C352.184 64.3801 353.827 66.5979 354.915 69.097C356.003 71.5962 356.507 74.3108 356.388 77.0341C356.104 82.3222 354.737 87.4954 352.371 92.2326C352.311 92.3881 352.207 92.5231 352.073 92.6218C351.938 92.7205 351.778 92.7788 351.612 92.7898Z" fill="#231F20"/>
<path d="M312.793 114.438C312.793 114.438 321.452 115.282 325.688 113.307C325.688 113.307 321.401 122.865 311.781 124.469L312.793 114.438Z" fill="#231F20"/>
<path d="M311.848 125.296C311.743 125.3 311.638 125.282 311.539 125.244C311.441 125.206 311.351 125.15 311.274 125.077C311.176 124.992 311.1 124.885 311.053 124.764C311.006 124.643 310.989 124.513 311.004 124.384L312.034 114.353C312.044 114.244 312.076 114.139 312.128 114.042C312.18 113.946 312.25 113.861 312.335 113.791C312.419 113.722 312.517 113.671 312.622 113.64C312.727 113.609 312.836 113.599 312.945 113.61C312.945 113.61 321.384 114.404 325.418 112.546C325.57 112.471 325.743 112.447 325.91 112.478C326.077 112.508 326.23 112.591 326.346 112.715C326.468 112.832 326.552 112.984 326.585 113.15C326.618 113.316 326.599 113.489 326.532 113.644C326.346 114.049 321.941 123.641 311.983 125.296H311.848ZM313.62 115.35L312.793 123.422C317.476 122.067 321.47 118.982 323.966 114.792C320.558 115.443 317.078 115.631 313.62 115.35Z" fill="#231F20"/>
<path d="M367.764 132.879C367.764 132.879 387.055 142.099 397.08 167.954C407.106 193.808 416.017 253.909 416.017 253.909L385.874 256.527C385.874 256.527 381.941 193.808 360.557 163.918L367.764 132.879Z" fill="#004680"/>
<path d="M281.452 248.692C281.325 248.69 281.2 248.66 281.087 248.605C280.973 248.549 280.873 248.47 280.793 248.371C280.718 248.286 280.66 248.186 280.625 248.078C280.589 247.969 280.575 247.855 280.584 247.741C280.594 247.628 280.626 247.517 280.68 247.416C280.733 247.316 280.806 247.227 280.895 247.155L295.781 234.844C295.868 234.772 295.969 234.718 296.077 234.684C296.186 234.651 296.3 234.64 296.413 234.651C296.526 234.662 296.635 234.695 296.736 234.748C296.836 234.802 296.924 234.875 296.996 234.962C297.143 235.142 297.213 235.372 297.191 235.603C297.169 235.834 297.056 236.047 296.878 236.195L282.009 248.489C281.853 248.622 281.656 248.694 281.452 248.692Z" fill="#231F20"/>
<path d="M365.215 248.692C365.046 248.693 364.88 248.64 364.743 248.54C358.819 244.656 344.996 235.419 344.355 233.528C344.285 233.306 344.303 233.065 344.407 232.857C344.511 232.649 344.692 232.49 344.912 232.413C345.124 232.342 345.356 232.358 345.558 232.455C345.76 232.553 345.915 232.726 345.992 232.936C346.734 234.186 356.574 241.11 365.688 247.088C365.784 247.151 365.867 247.233 365.932 247.328C365.997 247.423 366.043 247.53 366.066 247.643C366.09 247.756 366.091 247.873 366.069 247.986C366.048 248.099 366.004 248.207 365.941 248.304C365.862 248.424 365.754 248.523 365.628 248.59C365.501 248.658 365.359 248.693 365.215 248.692Z" fill="#231F20"/>
<path d="M336.692 188.878C336.551 188.878 336.411 188.843 336.287 188.776C336.081 188.668 335.927 188.483 335.857 188.262C335.788 188.04 335.809 187.8 335.916 187.594L349.232 162.432L339.19 154.681C339.089 154.602 339.007 154.503 338.948 154.389C338.89 154.275 338.857 154.15 338.852 154.022C338.847 153.896 338.871 153.769 338.92 153.653C338.97 153.536 339.045 153.431 339.139 153.347C339.477 153.043 346.903 146.389 348.878 144.751C348.186 143.248 343.595 138.149 339.409 133.96C339.277 133.792 339.211 133.58 339.224 133.366C339.237 133.152 339.328 132.95 339.48 132.798C339.631 132.647 339.833 132.556 340.047 132.543C340.261 132.53 340.472 132.595 340.641 132.728C344.456 136.544 350.768 143.215 350.768 145.055C350.757 145.216 350.712 145.373 350.637 145.516C350.561 145.658 350.456 145.783 350.329 145.883C349.468 146.525 344.337 151.101 341.148 153.938L350.937 161.503C351.101 161.628 351.215 161.807 351.258 162.008C351.302 162.21 351.271 162.42 351.173 162.601L337.519 188.405C337.445 188.558 337.326 188.685 337.178 188.769C337.031 188.853 336.861 188.891 336.692 188.878Z" fill="#231F20"/>
<path d="M304.219 178.846C304.061 178.847 303.905 178.806 303.768 178.725C303.632 178.645 303.519 178.529 303.443 178.39L291.916 156.217C291.81 156.026 291.783 155.801 291.839 155.59C291.896 155.379 292.032 155.199 292.219 155.086L302.025 148.821L294.025 143.484C293.918 143.414 293.827 143.321 293.76 143.211C293.693 143.101 293.652 142.978 293.639 142.85C293.626 142.722 293.642 142.593 293.685 142.472C293.729 142.351 293.799 142.241 293.89 142.15L304.81 131.191C304.979 131.058 305.19 130.993 305.404 131.006C305.618 131.019 305.82 131.109 305.972 131.261C306.123 131.413 306.214 131.615 306.227 131.829C306.24 132.043 306.174 132.254 306.042 132.423L295.916 142.556L304.101 148.078C304.22 148.158 304.318 148.266 304.386 148.392C304.453 148.519 304.489 148.66 304.489 148.804C304.484 148.948 304.445 149.09 304.374 149.216C304.304 149.342 304.205 149.45 304.084 149.53L293.823 156.082L304.996 177.546C305.098 177.753 305.117 177.991 305.048 178.212C304.978 178.432 304.827 178.617 304.624 178.728C304.498 178.792 304.36 178.832 304.219 178.846Z" fill="#231F20"/>
<path d="M324.253 311.882C324.051 311.885 323.854 311.815 323.7 311.685C323.545 311.554 323.442 311.373 323.409 311.173C323.139 309.484 316.658 268.634 317.03 260.883C317.043 260.659 317.145 260.45 317.312 260.301C317.48 260.152 317.7 260.076 317.924 260.089C318.148 260.103 318.357 260.205 318.506 260.373C318.655 260.54 318.731 260.76 318.717 260.984C318.262 268.55 325.013 310.481 325.08 310.903C325.097 311.013 325.092 311.125 325.065 311.233C325.039 311.34 324.991 311.442 324.925 311.531C324.859 311.621 324.777 311.696 324.682 311.754C324.587 311.811 324.481 311.849 324.371 311.865L324.253 311.882Z" fill="white"/>
<path d="M386.144 254.011C385.942 254.01 385.748 253.939 385.593 253.809C385.439 253.68 385.335 253.5 385.3 253.302L365.722 156.285C365.7 156.173 365.7 156.058 365.723 155.946C365.746 155.834 365.791 155.728 365.856 155.634C365.92 155.539 366.003 155.459 366.098 155.397C366.194 155.334 366.301 155.292 366.414 155.272C366.525 155.247 366.639 155.245 366.751 155.266C366.863 155.287 366.969 155.331 367.064 155.394C367.158 155.457 367.239 155.538 367.301 155.634C367.364 155.729 367.406 155.835 367.426 155.947L387.055 252.964C387.08 253.075 387.081 253.19 387.06 253.302C387.039 253.414 386.996 253.52 386.933 253.615C386.87 253.709 386.789 253.79 386.694 253.852C386.598 253.915 386.492 253.957 386.38 253.977L386.144 254.011Z" fill="#231F20"/>
<path d="M118.414 345.252L115.224 420.535C115.224 420.535 145.874 438.773 144.49 440.681C143.106 442.59 89.4517 433.133 89.4517 433.133L93.0635 346.164" fill="white"/>
<path d="M142.498 441.645C136.034 441.645 118.211 439.095 89.2996 433.995C89.0895 433.962 88.8991 433.852 88.7651 433.687C88.6311 433.522 88.563 433.313 88.5739 433.1L92.1857 346.131C92.1988 345.901 92.3017 345.686 92.4722 345.531C92.6426 345.376 92.8671 345.294 93.0971 345.304C93.2117 345.308 93.3242 345.335 93.4281 345.383C93.5321 345.432 93.6253 345.501 93.7023 345.586C93.7793 345.67 93.8387 345.77 93.8767 345.878C93.9148 345.986 93.9309 346.101 93.9241 346.216L90.346 432.34C108.911 435.599 137.789 440.21 143.241 440.024C140.608 437.288 127.308 428.676 114.785 421.228C114.651 421.145 114.541 421.028 114.467 420.888C114.393 420.749 114.357 420.592 114.363 420.435L117.553 345.152C117.555 345.037 117.58 344.924 117.626 344.819C117.673 344.715 117.739 344.62 117.823 344.541C117.906 344.463 118.004 344.402 118.111 344.361C118.219 344.321 118.333 344.303 118.447 344.307C118.563 344.312 118.676 344.339 118.781 344.387C118.886 344.435 118.98 344.504 119.058 344.588C119.137 344.673 119.197 344.772 119.237 344.881C119.277 344.989 119.296 345.104 119.291 345.219L116.118 419.996C125.08 425.332 144.81 437.372 145.367 440.26C145.41 440.416 145.415 440.58 145.383 440.738C145.351 440.897 145.282 441.045 145.181 441.172C144.968 441.487 144.073 441.645 142.498 441.645Z" fill="#231F20"/>
<path d="M125.772 423.051L115.848 432.018L87.3589 428.049V439.364C87.3589 439.364 150.262 447.672 153.182 442.454C156.101 437.236 125.772 423.051 125.772 423.051Z" fill="#231F20"/>
<path d="M97.8902 361.211L94.7172 436.511C94.7172 436.511 125.35 454.749 123.966 456.64C122.582 458.532 68.9282 449.109 68.9282 449.109L72.54 362.14" fill="white"/>
<path d="M121.975 457.619C115.511 457.619 97.6879 455.052 68.7765 449.969C68.568 449.933 68.3798 449.822 68.2464 449.657C68.113 449.493 68.0436 449.286 68.0508 449.074L71.6626 362.105C71.6797 361.875 71.7832 361.66 71.9523 361.504C72.1214 361.347 72.3436 361.26 72.574 361.261C72.6893 361.265 72.8026 361.292 72.9074 361.34C73.0122 361.389 73.1065 361.457 73.1849 361.542C73.2633 361.626 73.3242 361.726 73.3642 361.834C73.4042 361.942 73.4224 362.057 73.4179 362.173L69.823 448.297C88.3884 451.557 117.249 456.167 122.717 455.964C120.085 453.228 106.802 444.633 94.2618 437.169C94.1277 437.085 94.0181 436.968 93.944 436.829C93.8699 436.689 93.8339 436.533 93.8398 436.375L97.0297 361.092C97.0821 360.909 97.1928 360.747 97.3451 360.632C97.4973 360.517 97.6829 360.455 97.8736 360.455C98.0643 360.455 98.2499 360.517 98.4021 360.632C98.5544 360.747 98.6651 360.909 98.7175 361.092L95.5445 435.868C104.507 441.205 124.236 453.245 124.81 456.133C124.845 456.292 124.846 456.457 124.815 456.617C124.783 456.777 124.718 456.928 124.625 457.062C124.439 457.467 123.544 457.619 121.975 457.619Z" fill="#231F20"/>
<path d="M104.996 438.891L95.274 448.077L66.7002 444.7L66.9027 455.997C66.9027 455.997 129.974 462.887 132.725 457.602C135.477 452.316 104.996 438.891 104.996 438.891Z" fill="#231F20"/>
<path d="M133.215 223.783C135.679 240.569 123.089 406.62 123.089 406.62C104.905 408.462 86.5679 408.156 68.4558 405.708C54.0085 375.7 38.7174 281.824 42.9705 259.955C47.2237 238.086 57.5359 215.322 57.5359 215.322C57.5359 215.322 133.3 224.391 133.215 223.783Z" fill="#231F20"/>
<path d="M133.367 232.329C133.367 232.329 141.704 143.215 137.62 136.528C123.899 114.119 52.6412 114.828 46.5821 136.072C41.8058 152.79 50.2108 221.707 50.2108 221.707L133.367 232.329Z" fill="#004680"/>
<path d="M89.0631 215.323C89.0631 215.323 139.696 226.265 158.261 222.922L162.818 199.28C162.818 199.28 103.949 191.089 99.3922 188.05C94.8352 185.01 94.5314 154.039 94.5314 154.039C94.5314 154.039 80.2698 157.079 76.6411 164.678C73.0124 172.277 69.6369 207.183 89.0631 215.323Z" fill="#004680"/>
<path d="M82.3797 127.813C81.1308 128.539 111.966 180.163 111.966 180.163L101.992 126.749C101.992 126.749 94.2109 121.058 82.3797 127.813Z" fill="#6F93B3"/>
<path d="M144.439 225.76C143.612 225.76 61.7382 219.663 60.3205 168.9C60.316 168.786 60.3343 168.672 60.3745 168.564C60.4147 168.457 60.4759 168.359 60.5545 168.276C60.6331 168.192 60.7275 168.125 60.8322 168.079C60.9369 168.033 61.0499 168.008 61.1644 168.005C61.2794 167.999 61.3946 168.015 61.5029 168.055C61.6112 168.094 61.7103 168.155 61.7941 168.234C61.8779 168.313 61.9446 168.409 61.9902 168.515C62.0357 168.62 62.0591 168.735 62.0589 168.85C63.3922 218.042 143.747 223.969 144.557 224.02C144.74 224.073 144.901 224.183 145.016 224.336C145.131 224.488 145.193 224.674 145.193 224.864C145.193 225.055 145.131 225.241 145.016 225.393C144.901 225.546 144.74 225.656 144.557 225.709L144.439 225.76Z" fill="#231F20"/>
<path d="M82.3795 127.813C81.4344 116.431 80.6918 106.417 79.8141 95.0349C79.5272 90.83 79.0715 86.5913 78.9534 82.3864C78.7846 76.2901 81.4344 77.7087 87.3922 77.658C87.8198 73.7402 88.4161 69.8561 89.1812 66.0059L92.101 75.6484C101.198 73.0816 120.101 75.6484 120.101 75.6484C120.101 75.6484 122.008 93.9879 119.595 102.668C116.118 115.198 99.8479 112.446 99.8479 112.446L101.958 126.749C101.958 126.749 102.565 131.444 96.8943 133.048C88.7255 135.361 82.3795 127.813 82.3795 127.813Z" fill="white"/>
<path d="M93.7217 134.365C90.3391 134.271 87.0771 133.087 84.4222 130.987C84.4222 130.987 81.6711 128.893 81.5192 128.015C80.6078 117.106 79.8314 106.805 78.9538 95.2202C78.8525 93.8861 78.7513 92.5351 78.6331 91.1841C78.3969 88.3471 78.1606 85.4256 78.0762 82.5379C78.0762 80.123 78.3631 78.7214 79.2576 77.8433C80.4222 76.6949 82.1606 76.7625 84.5741 76.8638C85.2154 76.8638 85.8905 76.8638 86.65 76.8638C87.072 73.1993 87.6458 69.5179 88.3378 65.9209C88.3661 65.7231 88.4623 65.5412 88.6099 65.4065C88.7575 65.2718 88.9474 65.1927 89.1469 65.1827C89.3464 65.1727 89.5432 65.2325 89.7035 65.3518C89.8638 65.4711 89.9777 65.6424 90.0255 65.8365L92.6922 74.6685C102.093 72.4394 119.46 74.6685 120.203 74.7698C120.398 74.7952 120.579 74.8856 120.717 75.0265C120.855 75.1674 120.941 75.3506 120.962 75.5466C120.962 76.3065 122.869 94.1225 120.422 102.921C117.35 114.016 104.793 113.813 100.878 113.458L102.819 126.63C102.819 126.63 103.46 132.119 97.1479 133.892C96.0328 134.205 94.88 134.364 93.7217 134.365ZM83.2576 127.508C84.304 128.64 89.8905 134.145 96.7597 132.203C101.587 130.835 101.199 127.002 101.182 126.85L99.0213 112.614C99.0016 112.479 99.0144 112.341 99.0584 112.212C99.1024 112.083 99.1765 111.966 99.2745 111.871C99.3719 111.772 99.4922 111.699 99.6246 111.658C99.7571 111.616 99.8977 111.608 100.034 111.634C100.658 111.736 115.561 114.1 118.785 102.482C120.861 94.9837 119.646 79.8528 119.325 76.4585C115.865 76.0532 100.22 74.3814 92.3209 76.5936C92.2134 76.6272 92.1003 76.639 91.9882 76.6282C91.8762 76.6174 91.7674 76.5843 91.6683 76.5308C91.5692 76.4773 91.4818 76.4045 91.4113 76.3167C91.3408 76.2288 91.2885 76.1278 91.2576 76.0195L89.3673 69.7881C88.9116 72.4731 88.5234 75.1751 88.2365 77.8602C88.2119 78.0722 88.111 78.268 87.9525 78.411C87.7941 78.5539 87.5891 78.6343 87.3758 78.637C86.3125 78.637 85.3336 78.637 84.4559 78.637C82.4812 78.637 81.0804 78.5019 80.4222 79.1098C79.8156 80.1243 79.5828 81.3191 79.7639 82.4872C79.8483 85.3243 80.0846 88.2289 80.3209 91.0321C80.4222 92.4 80.5403 93.751 80.6416 95.1019C81.5698 106.501 82.3293 116.718 83.2576 127.508Z" fill="#231F20"/>
<path d="M99.882 112.447C99.882 112.447 93.131 111.602 89.8398 108.275C89.8398 108.275 94.2787 119.37 101.114 121.042L99.882 112.447Z" fill="#231F20"/>
<path d="M101.114 122.19C101.025 122.206 100.933 122.206 100.844 122.19C93.5021 120.416 89.0296 109.22 88.7595 108.68C88.6697 108.434 88.6655 108.164 88.7475 107.916C88.8296 107.667 88.993 107.453 89.2115 107.308C89.4301 107.164 89.6909 107.097 89.9518 107.119C90.2128 107.142 90.4587 107.251 90.6498 107.43C93.6709 110.453 99.9663 111.264 100.034 111.28C100.284 111.311 100.518 111.424 100.698 111.601C100.878 111.778 100.994 112.01 101.03 112.26L102.262 120.855C102.286 121.02 102.275 121.187 102.228 121.347C102.181 121.506 102.101 121.654 101.992 121.779C101.882 121.904 101.747 122.004 101.596 122.072C101.444 122.14 101.28 122.174 101.114 122.173V122.19ZM92.7764 111.601C94.366 114.723 96.7535 117.369 99.6962 119.268L98.8523 113.459C96.7607 113.082 94.7211 112.459 92.7764 111.601Z" fill="#231F20"/>
<path d="M82.4136 90.4923C82.1238 89.0511 81.4404 87.7184 80.4393 86.6422C79.4382 85.5661 78.1587 84.7886 76.7427 84.3961C76.111 84.1888 75.4422 84.1193 74.7814 84.1921C74.1206 84.2649 73.483 84.4784 72.9115 84.8182C72.2438 85.3917 71.7369 86.1294 71.441 86.9585C71.145 87.7877 71.0701 88.6797 71.2237 89.5466C71.4176 92.3252 72.668 94.9239 74.7179 96.8085C76.7678 98.693 79.4613 99.7203 82.2448 99.6789" fill="white"/>
<path d="M82.0422 100.558C79.0551 100.566 76.1758 99.4423 73.9838 97.4119C71.7917 95.3816 70.4497 92.5958 70.2278 89.6153C70.0694 88.5892 70.1824 87.5395 70.5555 86.5706C70.9286 85.6018 71.5488 84.7476 72.3544 84.0932C73.0362 83.687 73.7958 83.429 74.5838 83.3359C75.3719 83.2428 76.1707 83.3167 76.9283 83.5528C78.4975 83.9895 79.9158 84.8513 81.0266 86.0432C82.1374 87.2352 82.8977 88.7109 83.2236 90.3077C83.2505 90.5248 83.1938 90.7441 83.065 90.921C82.9362 91.0978 82.7449 91.219 82.5301 91.2598C82.3152 91.3007 82.0929 91.2581 81.9082 91.1409C81.7235 91.0236 81.5904 90.8404 81.5359 90.6285C81.2593 89.3538 80.6423 88.178 79.7507 87.2263C78.859 86.2747 77.7261 85.5829 76.4726 85.2246C75.9607 85.0487 75.417 84.9848 74.8784 85.0373C74.3397 85.0897 73.8186 85.2573 73.3502 85.5286C72.8208 86.0287 72.4188 86.6485 72.178 87.336C71.9373 88.0236 71.8646 88.7588 71.9662 89.4802C72.151 92.0304 73.3021 94.4137 75.1843 96.1431C77.0664 97.8725 79.5376 98.8175 82.0928 98.785C82.2234 98.7477 82.3609 98.7412 82.4945 98.7661C82.628 98.7909 82.754 98.8465 82.8624 98.9283C82.9708 99.0102 83.0588 99.1161 83.1194 99.2378C83.18 99.3594 83.2115 99.4935 83.2115 99.6294C83.2115 99.7653 83.18 99.8994 83.1194 100.021C83.0588 100.143 82.9708 100.249 82.8624 100.33C82.754 100.412 82.628 100.468 82.4945 100.493C82.3609 100.518 82.2234 100.511 82.0928 100.474L82.0422 100.558Z" fill="#231F20"/>
<path d="M117.643 79.8156C117.7 78.6698 117.248 77.7162 116.633 77.6856C116.019 77.655 115.475 78.559 115.418 79.7047C115.361 80.8505 115.813 81.8041 116.427 81.8347C117.041 81.8653 117.586 80.9613 117.643 79.8156Z" fill="#231F20"/>
<path d="M107.376 81.2414C107.433 80.0956 106.981 79.142 106.366 79.1114C105.752 79.0808 105.208 79.9848 105.151 81.1305C105.094 82.2763 105.545 83.2299 106.16 83.2605C106.774 83.2911 107.319 82.3871 107.376 81.2414Z" fill="#231F20"/>
<path d="M116.709 101.756C115.242 102.696 113.636 103.398 111.95 103.834C109.705 104.425 106.987 104.408 105.435 102.685C104.801 101.909 104.33 101.013 104.051 100.051" fill="white"/>
<path d="M109.401 105.05C108.559 105.095 107.717 104.96 106.932 104.655C106.146 104.349 105.434 103.879 104.844 103.277C104.143 102.413 103.615 101.421 103.291 100.356C103.211 100.132 103.222 99.8849 103.324 99.6696C103.425 99.4542 103.608 99.288 103.831 99.2073C104.055 99.1267 104.302 99.1384 104.517 99.2397C104.732 99.3411 104.898 99.5238 104.979 99.7477C105.239 100.602 105.651 101.403 106.194 102.112C107.882 103.801 110.92 103.226 111.831 102.99C113.409 102.573 114.913 101.912 116.287 101.031C116.48 100.906 116.714 100.862 116.939 100.909C117.163 100.957 117.36 101.092 117.485 101.284C117.611 101.477 117.654 101.712 117.607 101.936C117.56 102.161 117.425 102.358 117.232 102.483C115.711 103.473 114.041 104.214 112.287 104.679C111.345 104.925 110.375 105.05 109.401 105.05Z" fill="#231F20"/>
<path d="M114.414 83.6367C114.414 83.6367 123.798 94.3263 121.485 96.6229C119.173 98.9196 113.755 97.7713 113.755 97.7713" fill="white"/>
<path d="M116.726 98.9368C115.672 98.9327 114.621 98.831 113.586 98.6329C113.398 98.5543 113.242 98.4123 113.147 98.2313C113.052 98.0504 113.023 97.8418 113.065 97.6417C113.107 97.4415 113.217 97.2623 113.377 97.1349C113.537 97.0076 113.736 96.9401 113.941 96.9442C115.325 97.2312 119.257 97.6365 120.878 96.0323C121.772 95.1203 118.38 89.4969 113.755 84.2112C113.608 84.0343 113.535 83.8075 113.551 83.578C113.566 83.3484 113.67 83.1337 113.84 82.9785C113.92 82.8963 114.016 82.8309 114.121 82.7863C114.227 82.7417 114.341 82.7187 114.456 82.7188C114.57 82.7187 114.684 82.7417 114.79 82.7863C114.896 82.8309 114.991 82.8963 115.072 82.9785C118.059 86.3559 124.709 94.5631 122.11 97.1637C120.605 98.417 118.68 99.0509 116.726 98.9368Z" fill="#231F20"/>
<path d="M133.063 196.156H132.844C104.591 188.793 89.8395 174.034 82.4302 162.939C77.6948 156.161 74.4873 148.434 73.0293 140.294C73.0006 140.067 73.0627 139.839 73.2018 139.659C73.341 139.478 73.546 139.36 73.7719 139.331C74.0024 139.302 74.2348 139.366 74.4183 139.509C74.6018 139.651 74.7214 139.86 74.7508 140.091C74.7508 140.496 80.3542 180.62 133.282 194.468C133.48 194.524 133.651 194.65 133.764 194.823C133.877 194.995 133.925 195.202 133.898 195.406C133.872 195.61 133.773 195.798 133.62 195.936C133.466 196.074 133.269 196.152 133.063 196.156Z" fill="#231F20"/>
<path d="M61.6707 111.872C61.4875 111.876 61.3086 111.816 61.1644 111.703C61.053 111.624 60.9615 111.521 60.897 111.4C60.8326 111.28 60.797 111.147 60.7931 111.01L60.6074 85.1055C60.6074 77.3206 60.4893 68.4886 63.9829 60.7543C66.1264 55.9076 70.3964 50.0816 75.9323 48.2578C77.3524 47.7782 78.8563 47.5981 80.3494 47.7289C81.8424 47.8597 83.2922 48.2985 84.6074 49.0177C86.5762 47.4673 88.6269 46.0242 90.7509 44.6946C93.4087 43.3628 96.2546 42.4459 99.1897 41.9757C104.607 41.0638 109.316 42.0939 115.207 45.3532C118.699 47.4747 121.737 50.2663 124.147 53.5673C126.557 56.8683 128.291 60.6136 129.249 64.5876C131.118 72.46 131.118 80.6612 129.249 88.5336C129.246 88.6628 129.215 88.7898 129.158 88.9056C129.101 89.0214 129.019 89.1231 128.918 89.2035C128.817 89.2839 128.699 89.3411 128.574 89.3708C128.448 89.4006 128.317 89.4023 128.191 89.3757C128.065 89.3492 127.946 89.2951 127.843 89.2172C127.74 89.1394 127.655 89.0398 127.595 88.9255C127.535 88.8112 127.5 88.6851 127.495 88.556C127.489 88.427 127.511 88.2983 127.561 88.179C129.362 80.5668 129.362 72.6389 127.561 65.0267C126.663 61.2785 125.033 57.7449 122.765 54.6293C120.497 51.5138 117.636 48.8778 114.346 46.873C108.844 43.7489 104.523 42.837 99.4766 43.6644C96.734 44.1224 94.0765 44.9936 91.5947 46.2482C91.0715 46.5184 85.8563 50.2167 85.2994 50.6557L85.1812 50.7571C85.0453 50.8356 84.891 50.877 84.734 50.877C84.577 50.877 84.4227 50.8356 84.2867 50.7571C83.1393 50.0577 81.8535 49.6169 80.5185 49.4652C79.1836 49.3136 77.8316 49.4548 76.5568 49.8789C71.4935 51.5676 67.6285 56.9209 65.6369 61.4297C62.3627 68.8263 62.4133 77.4556 62.4808 85.0718L62.6496 109.795C64.4043 109.322 66.2169 109.101 68.0336 109.136C67.9754 107.378 68.4585 105.645 69.4175 104.171C69.5159 104.04 69.6478 103.938 69.7993 103.876C69.9507 103.813 70.1162 103.793 70.2783 103.817C70.4386 103.844 70.5882 103.915 70.7104 104.022C70.8326 104.13 70.9225 104.269 70.9703 104.424C71.4055 105.877 71.6328 107.383 71.6454 108.9L75.6454 108.646C75.7607 108.639 75.8762 108.655 75.9853 108.693C76.0944 108.731 76.195 108.79 76.2812 108.867C76.3674 108.944 76.4377 109.037 76.4878 109.141C76.538 109.245 76.5672 109.358 76.5737 109.474C76.5805 109.587 76.565 109.7 76.5279 109.807C76.4909 109.914 76.4331 110.013 76.3578 110.098C76.2825 110.183 76.1913 110.252 76.0893 110.301C75.9873 110.35 75.8766 110.379 75.7635 110.386L70.8015 110.69C70.6798 110.7 70.5574 110.682 70.4434 110.638C70.3294 110.594 70.2268 110.525 70.1433 110.436C70.0539 110.352 69.9836 110.25 69.9371 110.136C69.8905 110.023 69.8687 109.9 69.8732 109.778C69.8997 109.033 69.8601 108.287 69.7551 107.549C69.5697 108.334 69.5353 109.148 69.6538 109.947C69.6702 110.075 69.6575 110.205 69.6166 110.328C69.5757 110.451 69.5077 110.563 69.4175 110.656C69.3304 110.755 69.2202 110.832 69.0967 110.879C68.9731 110.926 68.8399 110.942 68.7087 110.926C66.4235 110.762 64.1286 111.055 61.9576 111.787C61.8676 111.832 61.7705 111.861 61.6707 111.872Z" fill="#231F20"/>
<path d="M133.975 187.51C133.743 187.502 133.524 187.403 133.364 187.237C133.203 187.07 133.114 186.847 133.114 186.615C133.114 186.328 133.536 156.539 129.958 143.604C129.909 143.384 129.946 143.155 130.062 142.962C130.177 142.769 130.362 142.628 130.578 142.568C130.794 142.507 131.025 142.532 131.224 142.637C131.423 142.741 131.573 142.918 131.646 143.131C135.274 156.32 134.886 185.349 134.852 186.649C134.852 186.764 134.83 186.877 134.785 186.983C134.741 187.088 134.676 187.184 134.594 187.264C134.513 187.344 134.416 187.407 134.309 187.45C134.203 187.492 134.089 187.513 133.975 187.51Z" fill="#231F20"/>
<path d="M122.447 449.363C122.222 449.361 122.006 449.277 121.84 449.126C119.932 447.201 108.776 441.628 104.624 439.652C104.426 439.551 104.274 439.376 104.202 439.165C104.129 438.954 104.142 438.723 104.236 438.521C104.334 438.324 104.506 438.172 104.714 438.1C104.922 438.027 105.151 438.039 105.35 438.133C105.975 438.437 120.54 445.428 123.038 447.927C123.194 448.088 123.281 448.303 123.281 448.527C123.281 448.75 123.194 448.965 123.038 449.126C122.876 449.273 122.666 449.357 122.447 449.363Z" fill="white"/>
<path d="M53.8567 256.258C53.7459 256.279 53.632 256.278 53.5216 256.255C53.4111 256.232 53.3063 256.187 53.213 256.124C53.1198 256.06 53.04 255.979 52.9781 255.885C52.9162 255.79 52.8736 255.684 52.8525 255.574C52.8314 255.463 52.8324 255.349 52.8554 255.238C52.8783 255.128 52.9228 255.023 52.9863 254.93C53.0498 254.836 53.131 254.756 53.2253 254.694C53.3196 254.633 53.4252 254.59 53.536 254.569C63.9495 250.212 67.5782 237.04 67.612 236.905C67.6408 236.794 67.6912 236.69 67.7602 236.598C67.8292 236.507 67.9156 236.43 68.0143 236.372C68.113 236.314 68.2222 236.276 68.3356 236.26C68.4491 236.244 68.5645 236.251 68.6753 236.28C68.7861 236.309 68.8902 236.359 68.9815 236.428C69.0729 236.497 69.1497 236.584 69.2077 236.683C69.2657 236.781 69.3037 236.891 69.3195 237.004C69.3353 237.118 69.3286 237.233 69.2998 237.344C69.1479 237.918 65.4348 251.462 54.2449 256.122C54.1252 256.192 53.9935 256.237 53.8567 256.258Z" fill="white"/>
</svg>
