<svg fill="none" height="140" viewBox="0 0 136 140" width="136" xmlns="http://www.w3.org/2000/svg"><path d="m49.4544 63.438c-4.0611.4892-7.9095 2.0862-11.1237 4.6163-5.3871 4.2271-6.9205 19.2282-6.9205 19.2282l10.1861 4.0363-5.1884 35.1832h54.8241l2.8842-36.7246 12.4988-12.7128s.961-12.3076-15.7723-12.8877c-19.4666-.6436-41.3883-.7389-41.3883-.7389z" fill="#004680"/><path d="m92.9733 53.3869c1.6924-1.0488 3.0908-2.3837 3.3451-3.4404.1656-1.1737.0344-2.3702-.3814-3.4802-3.2418-12.0374-1.6844-25.4733-7.7151-36.3825-.7315-1.49678-1.8237-2.78825-3.1782-3.75823-.6815-.47321-1.4822-.74568-2.3109-.78641-.8288-.04074-1.6523.15189-2.3769.55599-5.3235-10.32918-20.2293-4.05222-24.8139 3.77412-4.8468 8.28723-7.9455 17.94103-11.7276 26.76053-1.168 2.7253-2.3837 5.5619-2.193 8.5414.1907 2.9796 2.0897 6.0625 5.0216 6.5154l1.7162-2.638c-.7945.7072-.6356 2.0977.0795 2.9002.7919.7425 1.7689 1.2584 2.8286 1.4937 10.2577 3.2338 21.3178 5.9751 31.647 2.9875 1.5891-.4687 3.504-1.7241 2.9716-3.2974.7628 2.8128 4.3621 1.9546 7.0874.2543z" fill="#fff"/><path d="m73.4267 58.051c-7.3973 0-14.9773-1.9785-22.2475-4.2747-1.1195-.248-2.1499-.7975-2.9796-1.5891-.3139-.3565-.535-.785-.6435-1.2475l-.6039.9376c-.0378.0563-.0905.101-.1522.1291-.0618.028-.1301.0384-.1974.0298-3.2418-.5005-5.1566-3.8933-5.3156-6.8331-.1589-3.1067 1.1045-6.0783 2.2248-8.7004 1.1203-2.622 2.1929-5.3711 3.2418-8.025 2.4948-6.3564 5.0851-12.9273 8.5017-18.77522 3.1226-5.3235 10.5119-9.534628 16.5028-9.359826 1.801-.008959 3.5697.478733 5.1116 1.409486 1.5419.93075 2.7974 2.26853 3.6285 3.86634.7652-.3393 1.6042-.47866 2.438-.405.8339.07365 1.6354.35791 2.3293.82611 1.394 1.00844 2.5205 2.34224 3.2815 3.88536 3.7344 6.75365 4.6005 14.58795 5.4347 22.16005.4067 4.8191 1.1796 9.6002 2.3122 14.302l.0477.1589c.4027 1.1161.5175 2.3158.3337 3.4881-.2622 1.0726-1.6368 2.5028-3.4961 3.6549-2.3439 1.4381-4.6004 1.9625-6.0306 1.3984-.3617-.1404-.6855-.3636-.9455-.6515-.0268.0685-.0587.1348-.0954.1986-.7167 1.0732-1.812 1.8365-3.0669 2.1374-3.1281.8792-6.365 1.3099-9.6141 1.2792zm-25.1953-8.168c-.0294.1064-.048.2156-.0556.3258-.0261.5509.1651 1.0901.5324 1.5017.7493.6941 1.6713 1.1743 2.6697 1.3904 10.3768 3.2736 21.3655 5.9035 31.4483 2.9875 1.0686-.2576 2.0082-.8924 2.6459-1.7877.1578-.2828.2032-.6148.1271-.9296l-.0477-.1589c-.0233-.0873-.0119-.1802.0318-.2593s.1164-.1381.2027-.1649c.0863-.0267.1795-.0189.2603.0216.0807.0406.1426.1108.1727.196 0 .0635 0 .1192.0476.1748.0788.2798.2208.5378.4151.754.1942.2163.4355.3851.7053.4934 1.2077.4768 3.2815 0 5.4029-1.3507 1.6845-1.0409 2.9716-2.336 3.1782-3.2259.1513-1.0576.0366-2.1363-.3337-3.1385v-.1589c-1.1418-4.7357-1.9227-9.5513-2.336-14.4052-.7945-7.5085-1.6765-15.2713-5.3473-21.9058-.7062-1.44078-1.7536-2.68726-3.0511-3.63113-.6253-.43834-1.3607-.69297-2.1232-.7351-.7624-.04212-1.5215.12994-2.1912.49673-.0406.02673-.0863.0447-.1342.05277-.048.00807-.097.00606-.1441-.0059s-.0912-.03362-.1295-.06357c-.0383-.02996-.0699-.06757-.0928-.11042-.7485-1.57031-1.928-2.89553-3.4008-3.82118-1.4729-.92565-3.1786-1.4136-4.9181-1.40698-5.7764-.143018-12.8797 3.89331-15.8911 9.02608-3.4007 5.7923-5.975 12.3394-8.462 18.672-1.0488 2.6618-2.1294 5.4109-3.2497 8.0409s-2.3201 5.4506-2.1691 8.3905c.143 2.5981 1.7639 5.5618 4.513 6.1498l1.1124-1.7162c.1077-.3075.294-.5814.5403-.7946.0633-.0518.1427-.0797.2245-.079s.1607.0301.2231.083.1042.126.1182.2066c.0141.0805-.0006.1635-.0414.2344z" fill="#231f20"/><path d="m90.7896 64.185s-6.9126 8.2713-21.3416 8.0806c-14.4291-.1907-19.991-8.8433-19.991-8.8433 3.0857-1.2476 5.9653-2.9539 8.5415-5.0613.2561-.2065.4857-.4441.6833-.7072 2.3042-3.2656 1.5414-12.1169 1.5414-12.1169l16.344-.1907s-.2464 4.0125-.2543 7.7469c0 2.622.1112 5.101.5085 5.975.9614 2.1215 13.9682 5.1169 13.9682 5.1169z" fill="#fff"/><path d="m69.9309 72.6309h-.4847c-14.4449-.1986-20.2293-8.9149-20.2849-9.0102-.0213-.0461-.0324-.0963-.0324-.147 0-.0508.0111-.101.0324-.147.0174-.0483.0449-.0923.0805-.1293.0355-.0369.0785-.066.1261-.0853 3.0474-1.2382 5.8939-2.9225 8.4461-4.9977.2332-.1872.4415-.4035.6197-.6436 2.2089-3.1305 1.4938-11.7991 1.4858-11.9183-.004-.0473.0017-.095.0167-.1401.0151-.045.0391-.0866.0707-.1221.0666-.0706.1575-.1132.2543-.1191l16.336-.1907c.0953 0 .1907 0 .2622.1112.032.0352.0563.0767.0714.1219.015.0451.0205.0929.016.1403 0 0-.2384 4.0443-.2463 7.731 0 3.9728.2542 5.3394.4767 5.8241.6436 1.4222 8.7401 3.7741 13.7299 4.9262.058.0119.112.0386.1565.0776.0446.039.0783.0889.0977.1449.0159.0567.0185.1164.0075.1743-.0111.0579-.0354.1124-.071.1594-.1113.1192-7.0715 8.2395-21.1669 8.2395zm-19.9353-9.042c1.2236 1.5891 7.0397 8.1839 19.4586 8.3428 12.1725.1827 19.0216-5.8638 20.6583-7.5324-2.765-.6594-12.7128-3.1782-13.6265-5.1725-.3576-.7946-.5403-2.7968-.5403-6.1181 0-3.0431.1748-6.3087.2383-7.3972l-15.605.1827c.1192 1.748.4768 8.9943-1.6288 11.9739-.2154.2945-.4662.5614-.7469.7946-2.4883 2.0232-5.2519 3.6819-8.2077 4.9262z" fill="#231f20"/><path d="m76.5648 45.3618s-.2463 4.0125-.2543 7.7469c-5.4109 4.3065-12.832 5.2599-18.3144 5.2679.2562-.2065.4857-.4441.6833-.7072 2.3042-3.2656 1.5414-12.1169 1.5414-12.1169z" fill="#231f20"/><path d="m57.9948 58.7979c-.0865-.0009-.1708-.0279-.2417-.0775-.0709-.0497-.1251-.1196-.1555-.2006-.0281-.0806-.0309-.1679-.0082-.2502s.0699-.1557.1353-.2106c.2264-.186.4316-.3966.6118-.6277 2.1929-3.1067 1.4779-11.7514 1.4699-11.8468-.0074-.0561-.0019-.1131.016-.1668s.0477-.1026.0873-.1431c.0388-.0441.0864-.0796.1398-.1043.0534-.0246.1113-.0378.1701-.0387l16.336-.1907c.059-.008.1192.0004.1738.0242s.1017.0622.136.1109c.0783.084.121.1951.1192.3099 0 0-.2463 4.0443-.2542 7.731.0006.0629-.0134.1251-.041.1816-.0276.0566-.068.1059-.1179.1441-5.5619 4.4098-13.1658 5.3474-18.5767 5.3553zm2.6777-12.832c.1271 1.8831.437 8.9864-1.6527 11.9183v.0397c5.1249-.1192 11.9183-1.1441 16.8922-5.0374 0-2.924.1668-5.991.2304-7.151z" fill="#231f20"/><path d="m55.8665 33.1495c.0338-.9539-.1341-1.9042-.4926-2.7889-.5721-1.5414-1.6845-3.0669-3.075-2.9716-1.1044.0715-2.0181 1.1918-2.3836 2.4711-.2711 1.3154-.2303 2.676.1192 3.9727.5562 2.487 1.8354 5.0295 3.9012 5.6652" fill="#fff"/><path d="m53.9746 39.8161h-.1033c-2.7253-.8422-3.7979-4.4256-4.1396-5.9273-.366-1.3378-.4042-2.7442-.1112-4.0999.3972-1.5335 1.4858-2.6538 2.6538-2.7333 1.5891-.0953 2.8206 1.5891 3.4245 3.1782.377.9327.553 1.9345.5165 2.9399-.0101.0906-.0543.1739-.1237.233s-.1588.0894-.2498.0848c-.0453-.0019-.0897-.0131-.1305-.0328-.0408-.0196-.0772-.0474-.107-.0816-.0297-.0342-.0522-.0741-.066-.1173s-.0187-.0887-.0143-.1338c.0286-.9056-.1338-1.8072-.4767-2.6459-.4927-1.3189-1.5017-2.8444-2.7253-2.7491-.8661.0636-1.7163.9932-2.0341 2.2089-.2578 1.2525-.2169 2.5482.1192 3.782.6515 2.8842 2.0181 4.9024 3.6629 5.4109.0884.0275.1624.0889.2056.1708.0432.082.0521.1777.0248.2662-.0217.07-.0647.1315-.1232.1757s-.1293.0689-.2026.0706z" fill="#231f20"/><path d="m68.9208 51.8295-1.6606-.0795c-1.8789-.0856-3.7223-.5409-5.4249-1.34-1.7027-.799-3.231-1.926-4.4974-3.3165-1.2665-1.3904-2.2463-3.0171-2.8833-4.7867s-.9187-3.6475-.8289-5.5261c.2145-4.5131 2.0022-13.0386 2.0022-13.0386s6.7378-1.9864 12.0216-3.647c8.8831-2.7889 11.4733-7.3417 11.4733-7.3417.0898 3.1389.5975 6.2518 1.5097 9.2566.9987 2.1583 2.1816 4.2265 3.5357 6.1816 0 0-.1589 7.0635-.2939 10.0113-.0867 1.8768-.5423 3.718-1.3408 5.4187-.7985 1.7006-1.9242 3.2272-3.3128 4.4926-1.3887 1.2655-3.0131 2.2449-4.7804 2.8824-1.7672.6375-3.6428.9205-5.5195.8329z" fill="#fff"/><path d="m69.5892 52.195h-.6992l-1.6606-.0715c-3.8829-.1874-7.5331-1.9069-10.1501-4.7816s-3.9872-6.6698-3.8101-10.5532c.2065-4.4972 1.9863-13.0069 2.0022-13.0943.0128-.0609.0416-.1174.0835-.1635s.0954-.0802.1549-.0987c.0715 0 6.8014-2.0022 12.0216-3.639 8.6288-2.7015 11.2747-7.151 11.2985-7.151.0377-.0666.0962-.1189.1665-.1491.0703-.0301.1486-.0364.2228-.0177.0735.0194.1384.0628.1844.1232s.0706.1345.0699.2105c.0962 3.098.5985 6.1699 1.4937 9.1373.9894 2.1325 2.159 4.1766 3.4961 6.1101.0385.0589.0579.1283.0556.1987 0 .0715-.151 7.1033-.294 10.0193-.1933 3.753-1.8189 7.2888-4.5419 9.8788-2.723 2.5899-6.3358 4.0365-10.0938 4.0417zm-13.6662-28.1827c-.2702 1.3189-1.756 8.74-1.9467 12.7843-.1705 3.7006 1.1343 7.3176 3.628 10.0571s5.9725 4.3776 9.6728 4.5547l1.6606.0715c3.6987.1685 7.3135-1.136 10.0523-3.6276 2.7388-2.4915 4.3783-5.9671 4.5595-9.6652.1272-2.7095.2702-8.9785.294-9.8922-1.3534-1.9456-2.5288-4.0092-3.5119-6.1657-.8351-2.7127-1.3367-5.5169-1.4938-8.3508-1.2077 1.4779-4.3859 4.5528-11.084 6.6504-4.7196 1.4779-10.6708 3.2339-11.8308 3.5835z" fill="#231f20"/><path d="m69.2165 37.3449c-1.0166.0042-2.0318-.0756-3.0352-.2384-.1487-.0257-.2894-.0857-.4108-.1754s-.2201-.2064-.2884-.341c-.9853-1.8354 2.1691-9.2168 2.8047-10.6788.0181-.059.0485-.1134.0892-.1598.0406-.0464.0906-.0836.1467-.1093s.117-.0392.1787-.0396c.0617-.0005.1227.0121.1792.0369.0565.0249.107.0614.1484.1072.0413.0458.0725.0998.0914.1585.019.0587.0253.1207.0186.182s-.0264.1205-.0576.1737c-1.4143 3.2338-3.4404 8.7878-2.8366 9.916.0398.0636.0636.0715.0874.0715 1.3349.2068 2.688.2708 4.0364.1907.057-.0054.1145.0006.1691.0177.0547.0172.1053.0451.149.0821s.0796.0824.1054.1335c.0259.0511.0413.1069.0453.164.0088.1147-.028.2283-.1024.316-.0744.0878-.1803.1427-.2949.1528 0 0-.5165.0397-1.2236.0397z" fill="#231f20"/><path d="m18.0707 115.735h100.4393l16.122 18.005h-132.68278z" fill="#fff"/><path d="m134.631 134.106h-132.69002c-.06724-.001-.13297-.02-.18934-.057s-.10098-.089-.12849-.15c-.02649-.061-.03533-.129-.0255-.195s.03793-.128.08112-.178l16.12143-18.005c.0331-.037.0735-.067.1186-.087.0451-.021.0941-.032.1436-.032h100.4476c.049.001.098.012.143.033.045.02.086.049.119.086l16.121 18.005c.044.05.072.112.082.178.009.066.001.134-.026.195s-.072.113-.128.15c-.057.037-.123.056-.19.057zm-131.89547-.692h131.10147l-15.494-17.313h-100.1137z" fill="#231f20"/><path d="m134.633 133.74h-132.53144v5.594h132.53144z" fill="#fff"/><g fill="#231f20"><path d="m134.631 139.667h-132.5314c-.09272 0-.18164-.037-.24721-.102-.06556-.066-.10239-.155-.10239-.247v-5.562c.00208-.092.03982-.179.10516-.242.06534-.064.15308-.1.24444-.1h132.5314c.091 0 .179.036.244.1.066.063.103.15.106.242v5.562c0 .092-.037.181-.103.247-.065.065-.154.102-.247.102zm-132.1818-.699h131.8318v-4.863h-131.8318z"/><path d="m61.8596 28.9149c-.4816-.0099-.9562-.1178-1.3948-.3173-.4385-.1994-.8318-.4862-1.1557-.8428-.036-.0438-.063-.0943-.0795-.1486-.0165-.0542-.0221-.1112-.0166-.1676.0055-.0565.0221-.1113.0488-.1613.0268-.05.0631-.0943.1069-.1303s.0943-.063.1486-.0795c.0542-.0165.1112-.0221.1676-.0166.0565.0055.1113.0221.1613.0488s.0943.063.1303.1069c.0715.0794 1.5335 1.7639 3.8377.1112.094-.0564.2058-.0754.3132-.0533.1073.0222.2025.0839.2665.1729s.0922.1988.079.3076c-.0132.1089-.0668.2088-.1502.28-.7064.5494-1.5687.8609-2.4631.8899z"/><path d="m76.0182 28.5254c-1.0182.0355-2.0166-.2879-2.8206-.9137-.0514-.0352-.0946-.081-.1268-.1343-.0322-.0532-.0526-.1128-.06-.1746-.0073-.0618-.0013-.1245.0176-.1838.0188-.0593.0501-.114.0918-.1602s.0927-.083.1498-.1079c.057-.0249.1188-.0374.181-.0365.0623.0009.1236.0151.1799.0416s.1064.0647.1467.1121c.0874.0715 1.9705 1.6686 5.4586-.2542.1025-.0543.2221-.0665.3335-.0338.1113.0327.2054.1075.2624.2086.0539.1013.0658.2197.0331.3298-.0327.11-.1074.2027-.2079.2581-1.1036.6545-2.3564 1.0156-3.6391 1.0488z"/><path d="m70.4645 42.0249c-3.3829-.0413-6.7249-.7458-9.8365-2.0738-.0522-.0235-.0992-.057-.1385-.0987-.0392-.0416-.0698-.0906-.0901-.1441s-.0298-.1104-.0281-.1676.0147-.1135.0382-.1657c.0234-.0521.057-.0992.0986-.1384.0417-.0392.0906-.0698.1441-.0901s.1105-.0299.1677-.0281c.0572.0017.1134.0147.1656.0381.0874 0 8.6209 3.8695 15.8911.7946.0521-.0222.1081-.0338.1648-.0342.0566-.0004.1128.0104.1652.0319.0525.0214.1002.053.1403.0929.0402.04.0721.0875.0938.1398.0451.1065.0461.2264.0029.3336-.0432.1073-.1271.193-.2333.2385-2.1406.872-4.4347 1.3044-6.7458 1.2713z"/></g><path d="m82.5703 33.682c.2444-.8454.8027-1.5653 1.5606-2.0123.7579-.4471 1.6581-.5875 2.5161-.3926.8581.195 1.6092.7106 2.0995 1.4413.4902.7307.6826 1.6212.5378 2.4891-.1649.7451-.4813 1.4483-.9296 2.0658-1.3553 1.9814-3.2772 3.5073-5.5142 4.378" fill="#fff"/><path d="m82.8432 42.0012c-.0816.0001-.1606-.0284-.2233-.0804-.0628-.052-.1054-.1244-.1205-.2045-.0151-.0802-.0017-.163.0379-.2343.0395-.0713.1028-.1266.1788-.1562 2.1703-.8412 4.0347-2.3205 5.3473-4.2429.4307-.5709.7292-1.2304.874-1.9307.1267-.778-.0479-1.575-.4882-2.2288s-1.1131-1.1153-1.8816-1.2904c-.7685-.1752-1.5749-.0509-2.255.3475s-1.1829 1.0411-1.4059 1.7971c-.0119.0444-.0325.0859-.0606.1223-.028.0364-.063.0669-.1028.0898-.0399.0229-.0838.0377-.1294.0435-.0456.0059-.0919.0027-.1362-.0093-.0881-.0259-.1625-.0854-.2071-.1657-.0446-.0802-.0559-.1749-.0313-.2634.2498-.9499.8586-1.7657 1.6981-2.2756.8394-.5098 1.8441-.6739 2.8022-.4576.958.2164 1.7947.7962 2.3336 1.6173.539.8212.7381 1.8194.5555 2.7845-.1718.7966-.5073 1.5488-.9853 2.2089-1.3959 2.0371-3.3727 3.6069-5.6731 4.5051-.0406.0156-.0836.0237-.1271.0238z" fill="#231f20"/><path d="m32.5331 82.4595s-8.5255 39.2505.58 41.9125c12.6096 3.687 47.8718-1.732 47.8718-1.732s-.3178 3.178 5.5619 2.694c5.8797-.485 5.8956-3.179 9.2327-1.153 3.3371 2.027 8.1365 1.47 7.1505-1.35-.985-2.821-7.0472-10.639-16.5342-10.377s-38.0749-2.694-38.0749-2.694l3.2735-23.4549" fill="#fff"/><path d="m46.2275 126.033c-5.2282 0-9.9478-.358-13.2214-1.311-9.3042-2.726-1.168-40.7052-.7945-42.326.0226-.0881.0779-.1642.1547-.2129.0767-.0487.1691-.0664.2584-.0493.0906.019.1698.0733.2205.1507.0506.0775.0685.1718.0497.2624-1.3751 6.5858-2.4173 13.2367-3.1226 19.9271-1.2793 13.087-.0874 20.547 3.4563 21.58 12.387 3.623 47.3712-1.684 47.7287-1.74.0519-.009.1052-.005.1551.012.0499.016.0949.045.131.084.0395.035.0702.08.0895.129.0193.05.0268.104.0217.157-.0052.254.0438.507.1438.741.1.235.2487.445.4362.617.7946.795 2.3837 1.144 4.6164.954 1.7317-.13 3.4252-.574 4.9977-1.311 1.4461-.636 2.3837-1.049 4.4495.206 2.2804 1.399 5.1968 1.462 6.2768.58.219-.178.371-.425.43-.701s.023-.564-.104-.816c-.977-2.686-6.8809-10.433-16.201-10.155-9.3201.279-37.8286-2.661-38.1385-2.693-.0463-.004-.0913-.017-.1323-.039s-.0771-.052-.1061-.088c-.0545-.076-.0799-.169-.0715-.262l3.2736-23.4636c.0068-.0448.0223-.0879.0457-.1268.0235-.0389.0543-.0727.0909-.0996.0365-.027.078-.0464.122-.0573.0441-.0109.0898-.0131.1347-.0063.0448.0068.0879.0223.1268.0458.0389.0234.0727.0543.0996.0908.027.0365.0464.078.0574.122.0109.0441.013.0899.0062.1347l-3.2179 23.1053c3.3291.342 28.8899 2.9 37.6697 2.654 9.7174-.27 15.8517 7.803 16.8687 10.615.177.388.22.823.122 1.237-.098.415-.331.785-.663 1.052-1.446 1.184-4.6955.937-7.0791-.533-1.7322-1.064-2.4314-.794-3.8059-.159-1.6414.765-3.407 1.228-5.2123 1.367-2.4711.207-4.2191-.183-5.1884-1.168-.4006-.397-.6625-.912-.7469-1.47-2.9319.429-20.4677 2.964-34.4279 2.964z" fill="#231f20"/><path d="m106.56 77.0886s-.19 37.4944-20.5706 39.6084c-17.6788 1.835-18.076-15.955-18.2747-31.3372-.2383-18.6402 3.2656-30.9875 4.0364-32.8865.7707-1.899 7.5005-5.3155 9.034-7.4926s1.9228-7.6277 2.1135-8.3349c.1907-.7071 2.4393-1.5414 2.05 1.025 0 0 .135-1.5891.9614-.9614.2324.2021.3906.476.4496.7783.0591.3023.0154.6156-.1239.8903 0 0 .7072-1.9229 1.3428-1.2157.6357.7071.3258 2.5585.3258 2.5585s.8899-2.3042 1.3428-1.025-.1271 8.8434-2.3042 11.6005c-2.1771 2.757-7.8899 6.3166-7.8899 6.3166l7.3099 36.2396 2.6935-14.0318" fill="#fff"/><path d="m83.588 117.173c-3.8933 0-7.0795-1.08-9.5346-3.225-6.4359-5.737-6.5948-18.4103-6.7219-28.6044-.2305-18.4018 3.1782-30.7173 4.0601-33.0136.445-1.1124 2.5029-2.5267 4.6799-4.0284 1.8196-1.2633 3.7106-2.5584 4.4018-3.5357 1.1521-1.6368 1.6448-5.3394 1.8831-7.151.0795-.5562.1272-.9217.1748-1.0965.153-.3355.4133-.6105.7399-.7817s.7008-.2288 1.0638-.1638c.1795.0427.3458.1287.4843.2506s.2451.276.3102.4486h.0795c.1426-.0575.2989-.0723.4498-.0427.1509.0297.29.1024.4003.2095.2065.1489.3708.3487.4768.5801.1403-.1725.3326-.2952.5482-.3496.1262-.022.256-.01.3761.0347.12.0446.2261.1204.3072.2195.3.3904.4671.8665.4768 1.3587.0707-.0945.1616-.1721.266-.227.1045-.055.2199-.086.3378-.0908.2066 0 .4847.1112.6595.6197.4688 1.3428-.0794 9.042-2.3836 11.9183-1.9864 2.5108-6.714 5.5619-7.7708 6.269l6.9126 34.277 2.3837-12.2996c.0174-.0904.0696-.1703.1455-.2223.0759-.0521.1692-.0721.2597-.0558.0904.0173.1702.0696.2223.1455.052.0758.0721.1691.0558.2597l-2.6935 14.0397c-.0164.0785-.0593.149-.1215.1997-.0622.0506-.14.0783-.2202.0784-.0802-.0001-.1579-.0278-.2201-.0784-.0622-.0507-.1051-.1212-.1215-.1997l-7.302-36.2475c-.0152-.0679-.0089-.1388.0182-.2029s.0735-.1182.1328-.1546c.0556 0 5.681-3.5596 7.7945-6.2372 2.1136-2.6777 2.6777-10.067 2.2566-11.2668-.0187-.0385-.0346-.0784-.0477-.1192-.2829.343-.5035.7329-.6515 1.1521-.0305.0799-.0899.1455-.1664.1837-.0765.0383-.1646.0464-.2468.0229-.0827-.0224-.1544-.0745-.2012-.1463-.0469-.0717-.0658-.1582-.0531-.243.1192-.6595.151-1.8513-.2304-2.2724-.1827 0-.4767.4211-.6833.9058-.0275.0785-.0593.1554-.0953.2304-.0395.0787-.1073.1397-.1898.1706-.0825.031-.1736.0296-.2552-.0038-.0825-.0336-.1485-.0981-.1842-.1797-.0356-.0816-.0379-.1739-.0065-.2573 0-.0556.0477-.1271.0795-.2066.0709-.1849.0814-.3875.03-.5788s-.162-.3613-.3161-.4859c-.1033-.0794-.1509-.0794-.1509-.0794-.1323.1725-.2122.3793-.2304.5959v.2225c-.0157.0886-.0648.1678-.1374.2211-.0725.0532-.1627.0765-.252.0649-.0439-.004-.0865-.0166-.1255-.0372-.039-.0205-.0735-.0486-.1016-.0826s-.0492-.0732-.062-.1154c-.0128-.0421-.0172-.0864-.0128-.1303 0-.0556 0-.143 0-.2463.0397-.4449 0-1.025-.4132-1.1124-.1911-.0229-.3849.0072-.5601.0871s-.325.2064-.4331.3658c0 .1272-.0874.5324-.1509 1.0091-.2622 1.9784-.7946 5.6572-2.0102 7.4291-.7946 1.0806-2.6141 2.3836-4.5687 3.7026-1.9546 1.3189-4.0681 2.8048-4.4336 3.7264-.9058 2.2645-4.2429 14.4609-3.9728 32.7435.1271 10.0432.2861 22.5494 6.4915 28.0714 2.7809 2.479 6.5074 3.433 11.3939 2.932 19.8639-2.058 20.2609-38.8933 20.2609-39.2667 0-.0927.037-.1817.103-.2472.065-.0656.154-.1024.247-.1024.092.002.18.0395.245.1046.065.0652.102.1529.104.245 0 .3814-.437 37.8287-20.8884 39.9497-.7942.089-1.5925.137-2.3916.143z" fill="#231f20"/><path d="m88.6589 106.082c-.0802 0-.1579-.028-.2202-.079-.0622-.05-.1051-.121-.1215-.199-.5085-2.702-3.0828-16.2171-3.0828-16.7972 0-.0927.0368-.1816.1024-.2472.0655-.0655.1545-.1024.2472-.1024s.1816.0369.2472.1024c.0655.0656.1024.1545.1024.2472 0 .5324 1.8513 10.2577 3.0669 16.6852.0093.046.0094.093.0003.138-.009.046-.027.089-.0528.127-.0259.039-.0592.072-.0979.097-.0387.026-.0821.043-.1276.052z" fill="#231f20"/></svg>