<svg width="160" height="140" viewBox="0 0 160 140" fill="none" xmlns="http://www.w3.org/2000/svg">
<g clip-path="url(#clip0_238_6690)">
<path d="M159.255 75.3981V79.706L139.007 104.548L132.542 96.5053L10.7685 139.382L9.88672 133.002L94.0402 98.4935C94.0402 98.4935 124.207 85.7045 123.196 85.7045C122.185 85.7045 112.805 77.8076 112.805 77.8076L113.732 73.876L146.117 78.813L159.255 75.3981Z" fill="#D1D3D4"/>
<path d="M10.7701 139.663C10.7186 139.664 10.668 139.65 10.624 139.624C10.5886 139.602 10.5586 139.572 10.5362 139.537C10.5139 139.502 10.4997 139.463 10.4948 139.421L9.60742 133.035C9.60017 132.974 9.61325 132.911 9.64466 132.857C9.67607 132.804 9.72412 132.762 9.78154 132.738L93.9519 98.2349C104.432 93.7921 119.873 87.1589 122.63 85.7604C120.569 84.6371 114.604 79.672 112.644 78.0207C112.603 77.9875 112.573 77.9436 112.556 77.8939C112.539 77.8443 112.537 77.7909 112.548 77.7399L113.475 73.8083C113.491 73.7397 113.533 73.6798 113.591 73.6403C113.649 73.6007 113.72 73.5845 113.79 73.5948L146.125 78.5262L159.183 75.1563C159.225 75.1461 159.269 75.1455 159.311 75.1546C159.353 75.1637 159.392 75.1821 159.426 75.2085C159.46 75.235 159.488 75.2688 159.507 75.3074C159.526 75.346 159.536 75.3884 159.537 75.4315V79.7394C159.536 79.8037 159.512 79.8656 159.47 79.9135L139.222 104.756C139.197 104.789 139.165 104.816 139.128 104.835C139.091 104.853 139.05 104.863 139.008 104.862C138.965 104.868 138.922 104.861 138.883 104.842C138.844 104.823 138.811 104.793 138.789 104.756L132.448 96.8925L10.8655 139.652C10.8346 139.661 10.8023 139.665 10.7701 139.663ZM10.2084 133.176L11.0116 139.006L132.459 96.2578C132.515 96.2381 132.575 96.2361 132.631 96.2522C132.687 96.2683 132.737 96.3017 132.774 96.3477L139.02 104.115L158.987 79.6215V75.7741L146.22 79.0823C146.183 79.0907 146.145 79.0907 146.108 79.0823L113.975 74.1846L113.138 77.7006C117.553 81.4131 122.552 85.356 123.22 85.4234C123.288 85.4246 123.353 85.4476 123.407 85.4891C123.461 85.5306 123.5 85.5883 123.518 85.6537C123.579 85.9794 123.608 86.1142 108.791 92.5059C101.568 95.6175 94.244 98.7235 94.1878 98.7516L10.2084 133.176Z" fill="#231F20"/>
<path d="M27.9572 72.9885L21.4981 71.0283L19.1055 75.4598L25.1321 77.6334L27.9572 72.9885Z" fill="white"/>
<path d="M25.1302 77.9142H25.0347L19.0081 75.7405C18.9695 75.7278 18.9344 75.7066 18.9052 75.6784C18.876 75.6502 18.8536 75.6157 18.8396 75.5777C18.8243 75.5412 18.8164 75.5021 18.8164 75.4625C18.8164 75.423 18.8243 75.3838 18.8396 75.3474L21.2491 70.9046C21.279 70.8476 21.328 70.8029 21.3876 70.7782C21.4471 70.7536 21.5134 70.7506 21.5749 70.7698L28.0396 72.73C28.0793 72.7446 28.1157 72.767 28.1466 72.796C28.1775 72.8249 28.2022 72.8598 28.2193 72.8985C28.2374 72.9372 28.2467 72.9794 28.2467 73.0221C28.2467 73.0648 28.2374 73.107 28.2193 73.1457L25.411 77.7906C25.3807 77.8357 25.3382 77.8713 25.2885 77.8931C25.2388 77.915 25.1839 77.9223 25.1302 77.9142ZM19.5136 75.3081L25.0235 77.2907L27.5397 73.1513L21.6423 71.3652L19.5136 75.3081Z" fill="#231F20"/>
<path d="M6.16797 101.908L121.426 80.2901L113.748 73.876L159.254 75.4149L138.664 98.2801L132.485 91.6638L9.88616 133.002L6.16797 101.908Z" fill="white"/>
<path d="M9.88836 133.283C9.83468 133.281 9.78229 133.266 9.73671 133.238C9.70209 133.215 9.67267 133.185 9.6504 133.15C9.62813 133.116 9.61352 133.076 9.60753 133.035L5.88934 101.942C5.87953 101.871 5.89746 101.8 5.93936 101.742C5.98126 101.685 6.04386 101.645 6.114 101.633L120.788 80.1214L113.571 74.0892C113.526 74.052 113.494 74.0017 113.478 73.9454C113.463 73.889 113.466 73.8293 113.487 73.7746C113.505 73.718 113.543 73.6694 113.593 73.6367C113.643 73.6041 113.702 73.5893 113.762 73.5949L159.256 75.1339C159.31 75.134 159.363 75.1501 159.408 75.1801C159.453 75.21 159.488 75.2526 159.509 75.3024C159.529 75.3518 159.535 75.4058 159.526 75.4584C159.517 75.511 159.494 75.56 159.458 75.6L138.868 98.4652C138.842 98.4954 138.811 98.5196 138.775 98.5361C138.739 98.5526 138.7 98.561 138.66 98.5607C138.621 98.5613 138.582 98.5536 138.547 98.5381C138.511 98.5226 138.479 98.4997 138.452 98.4708L132.403 91.9893L9.97823 133.249C9.9507 133.266 9.92019 133.277 9.88836 133.283ZM6.47908 102.133L10.1243 132.625L132.398 91.3995C132.449 91.3829 132.504 91.381 132.557 91.3939C132.609 91.4067 132.657 91.434 132.695 91.4725L138.66 97.8642L158.633 75.6731L114.548 74.1846L121.597 80.0709C121.637 80.1052 121.667 80.1503 121.683 80.2011C121.699 80.2518 121.7 80.3059 121.687 80.3573C121.673 80.4089 121.646 80.4557 121.607 80.4924C121.568 80.5291 121.52 80.5543 121.468 80.5651L6.47908 102.133Z" fill="#231F20"/>
<path d="M50.5111 113.331C62.9323 111.197 72.6491 107.414 72.2141 104.883C71.7792 102.352 61.3572 102.03 48.9359 104.164C36.5147 106.299 26.7979 110.081 27.2329 112.612C27.6678 115.144 38.0898 115.465 50.5111 113.331Z" fill="#E6E7E8"/>
<path d="M64.8406 92.2812L61.6055 97.3081L67.8567 99.0998L72.2321 93.8595L64.8406 92.2812Z" fill="white"/>
<path d="M67.8559 99.3808C67.8301 99.3866 67.8032 99.3866 67.7773 99.3808L61.5316 97.5891C61.49 97.5765 61.4517 97.5545 61.4198 97.5249C61.3879 97.4953 61.3631 97.4588 61.3474 97.4182C61.3317 97.3776 61.3255 97.3339 61.3292 97.2905C61.3329 97.2472 61.3464 97.2052 61.3688 97.1678L64.5983 92.1129C64.6286 92.0636 64.6737 92.0251 64.7272 92.003C64.7806 91.9808 64.8397 91.976 64.896 91.9893L72.2931 93.5676C72.3406 93.5783 72.3846 93.6009 72.421 93.6333C72.4574 93.6657 72.4848 93.7069 72.5009 93.7529C72.5152 93.7986 72.518 93.847 72.5092 93.894C72.5004 93.941 72.4802 93.9852 72.4503 94.0225L68.0694 99.2628C68.0452 99.2976 68.0134 99.3263 67.9764 99.3467C67.9394 99.3672 67.8982 99.3788 67.8559 99.3808ZM62.0484 97.1341L67.7548 98.7742L71.7202 94.0338L64.9802 92.5903L62.0484 97.1341Z" fill="#231F20"/>
<path d="M61.6057 97.3027C61.6057 97.3027 58.5896 100.819 58.7356 101.234C58.8816 101.65 71.6538 106.475 72.2154 105.542C72.7771 104.61 67.8401 99.0776 67.8401 99.0776L61.6057 97.3027Z" fill="#231F20"/>
<path d="M71.8084 105.963C71.6793 105.971 71.5499 105.971 71.4208 105.963C68.9776 105.683 58.688 102.032 58.4689 101.375C58.4128 101.212 58.2724 100.813 61.3952 97.1509C61.4289 97.1096 61.4742 97.0795 61.5254 97.0644C61.5765 97.0494 61.631 97.0502 61.6816 97.0667L67.9273 98.8584C67.9782 98.8755 68.0244 98.9044 68.0621 98.9426C69.5898 100.628 73.089 104.733 72.4711 105.739C72.3644 105.879 72.1341 105.963 71.8084 105.963ZM59.0306 101.144C60.3786 102.032 71.1737 105.812 72.0274 105.379C72.2015 104.964 70.2357 102.189 67.697 99.347L61.6985 97.6227C60.7153 98.7224 59.823 99.9001 59.0306 101.144Z" fill="#231F20"/>
<path d="M67.5112 60.5926C67.5112 60.5926 81.6089 74.0724 82.002 77.2626C82.3952 80.4529 71.162 96.5894 71.162 96.5894L62.7371 92.9891C62.7371 92.9891 72.1954 81.0089 70.2465 77.4424C68.2975 73.8758 57.7832 67.4673 57.7832 67.4673C57.7832 67.4673 51.0152 82.4299 46.55 84.7496C42.0848 87.0692 23.4883 78.5713 23.4883 78.5713L27.3076 70.8709C27.3076 70.8709 39.6248 75.4035 41.9388 73.4433C44.2529 71.4832 47.971 53.437 47.971 53.437L67.5112 60.5926Z" fill="#231F20"/>
<path d="M71.1639 96.8699C71.1285 96.8751 71.0925 96.8751 71.0572 96.8699L62.6323 93.2697C62.5934 93.2516 62.5592 93.2251 62.5319 93.192C62.5047 93.159 62.4853 93.1203 62.475 93.0787C62.4636 93.0373 62.4622 92.9938 62.471 92.9518C62.4798 92.9098 62.4985 92.8705 62.5255 92.8372C65.126 89.5459 71.5121 80.3908 70.0069 77.5994C68.2882 74.4541 59.5656 68.9217 57.9143 67.8939C56.9202 70.0506 50.8936 82.834 46.6811 85.0189C42.1597 87.3722 24.1361 79.172 23.3722 78.8406C23.3382 78.8246 23.3078 78.802 23.2827 78.774C23.2576 78.746 23.2384 78.7133 23.2262 78.6777C23.211 78.6442 23.2031 78.6078 23.2031 78.571C23.2031 78.5342 23.211 78.4978 23.2262 78.4643L27.0455 70.764C27.0778 70.7036 27.1307 70.6567 27.1946 70.632C27.2585 70.6073 27.3291 70.6063 27.3937 70.6292C30.7637 71.8704 39.9524 74.7686 41.7497 73.2465C43.5471 71.7244 46.6587 58.3906 47.6865 53.3974C47.6946 53.3579 47.7111 53.3206 47.7348 53.2881C47.7586 53.2555 47.7891 53.2284 47.8243 53.2087C47.8595 53.189 47.8985 53.1771 47.9387 53.1738C47.9788 53.1705 48.0193 53.1759 48.0572 53.1896L67.558 60.3676C67.593 60.3829 67.6253 60.4037 67.6535 60.4294C68.2152 60.9911 81.8298 73.9991 82.2567 77.2792C82.6835 80.5593 71.8547 96.0836 71.3942 96.7407C71.3693 96.7795 71.3353 96.8115 71.2952 96.8341C71.255 96.8566 71.2099 96.8689 71.1639 96.8699ZM63.2108 92.8765L71.074 96.2465C74.2699 91.6465 82.0489 79.8123 81.7456 77.3073C81.4423 74.8023 72.2366 65.5124 67.3783 60.8394L48.2369 53.7906C47.709 56.3012 44.3952 71.7637 42.1766 73.6396C39.958 75.5156 29.5561 71.9547 27.506 71.202L23.9227 78.4194C26.1974 79.436 42.4574 86.5859 46.4789 84.5078C50.7981 82.2611 57.5099 67.5063 57.5773 67.3547C57.5936 67.3183 57.6176 67.2859 57.6477 67.2597C57.6778 67.2335 57.7132 67.2142 57.7514 67.203C57.7869 67.1879 57.8252 67.1801 57.8638 67.1801C57.9024 67.1801 57.9406 67.1879 57.9761 67.203C58.4086 67.467 68.5746 73.7014 70.5404 77.3129C72.3883 80.7166 64.6767 90.9781 63.2108 92.8765Z" fill="#231F20"/>
<path d="M98.641 26.3931C99.6381 25.6923 100.71 25.1046 101.837 24.6407C103.134 24.2194 104.774 23.9274 104.404 23.377C104.033 22.8265 100.961 23.6241 100.961 23.6241C100.961 23.6241 102.752 20.8719 103.769 20.3271C104.786 19.7823 106.218 19.8273 105.51 19.3049C104.802 18.7826 102.646 18.6983 101.893 19.0859C101.14 19.4734 96.8381 24.197 96.6134 24.4497C96.3887 24.7025 98.641 26.3931 98.641 26.3931Z" fill="white"/>
<path d="M98.6412 26.6738C98.5807 26.6724 98.522 26.6528 98.4727 26.6177C97.0742 25.5674 96.3441 24.8485 96.2879 24.5339C96.2819 24.486 96.2858 24.4374 96.2993 24.391C96.3128 24.3446 96.3357 24.3015 96.3665 24.2643C96.4058 24.2194 100.86 19.2768 101.736 18.8387C102.612 18.4006 104.825 18.4792 105.64 19.0802C105.729 19.142 105.988 19.3386 105.937 19.6419C105.887 19.9452 105.533 20.0519 105.005 20.2035C104.617 20.2972 104.24 20.4328 103.882 20.6079C103.264 20.9449 102.23 22.2929 101.59 23.214C102.786 22.9444 104.28 22.7366 104.623 23.2533C104.675 23.3188 104.71 23.396 104.726 23.4782C104.742 23.5603 104.737 23.6451 104.713 23.7251C104.561 24.1408 103.915 24.3486 102.786 24.6743C102.5 24.753 102.225 24.8428 101.927 24.9327C100.827 25.377 99.7794 25.9421 98.8041 26.6177C98.7576 26.6541 98.7003 26.6739 98.6412 26.6738ZM96.9057 24.5283C97.4404 25.084 98.0231 25.5914 98.6469 26.0448C99.6131 25.3674 100.653 24.8021 101.747 24.3598C102.034 24.2643 102.309 24.1801 102.629 24.0958C103.191 23.9273 104.084 23.6746 104.179 23.4892C103.966 23.332 102.494 23.4892 101.034 23.8768C100.979 23.8923 100.92 23.8904 100.866 23.8715C100.812 23.8526 100.764 23.8175 100.731 23.771C100.697 23.7245 100.678 23.6688 100.677 23.6113C100.676 23.5539 100.693 23.4976 100.725 23.4499C100.798 23.3376 102.567 20.6416 103.623 20.08C104.023 19.8795 104.446 19.7268 104.881 19.625L105.291 19.5071C104.252 19.0642 103.09 19.0045 102.011 19.3386C101.382 19.6587 97.6246 23.7251 96.9057 24.5283Z" fill="#231F20"/>
<path d="M70.2773 28.2183C70.2773 28.2183 87.8629 31.9196 89.5479 31.4872L96.1755 24.0396L100.073 26.5783C100.073 26.5783 98.0458 32.7116 95.2431 36.25C92.4404 39.7885 74.0517 40.5748 74.0517 40.5748L70.2773 28.2183Z" fill="#004680"/>
<path d="M70.5292 24.2192C69.4631 24.1276 68.4308 23.7995 67.5075 23.2588C66.7147 22.7648 66.0349 22.1094 65.5123 21.3352C64.9898 20.561 64.6361 19.6855 64.4745 18.7655C63.9222 18.6959 63.3893 18.5169 62.9069 18.239C62.4245 17.9611 62.0024 17.5898 61.6651 17.1469C61.3278 16.704 61.0822 16.1983 60.9426 15.6594C60.8029 15.1205 60.7721 14.5592 60.8518 14.0082C61.5189 14.1825 62.2182 14.1928 62.8901 14.0383C63.562 13.8837 64.1865 13.569 64.7104 13.1208C64.056 13.1699 63.4081 12.9632 62.9032 12.5441C62.3982 12.1251 62.0756 11.5264 62.0032 10.8742C61.9837 10.7271 62.0051 10.5775 62.065 10.4417C62.2728 10.0542 62.8401 10.1272 63.2669 10.2227C65.3844 10.6888 67.5861 10.2844 69.7092 9.84073C71.8322 9.39702 74.0003 8.90276 76.1458 9.20044C79.2237 9.63291 81.6388 11.8402 81.1446 15.0866C81.0142 16.2024 80.7425 17.2971 80.3358 18.3443C80.1274 18.6941 79.8481 18.9964 79.5158 19.2317C77.7971 20.6639 76.5895 22.7701 74.4608 23.725C73.2124 24.2164 71.8605 24.3864 70.5292 24.2192Z" fill="white"/>
<path d="M71.4497 24.5451C71.1352 24.5451 70.8206 24.5451 70.5005 24.5002C69.3931 24.402 68.321 24.0606 67.3608 23.5004C66.562 23.0026 65.8727 22.3476 65.3349 21.5752C64.7971 20.8028 64.422 19.929 64.2323 19.0071C63.087 18.802 62.0658 18.1605 61.3839 17.2177C60.7019 16.2748 60.4123 15.1042 60.5759 13.9522C60.5831 13.9139 60.5984 13.8776 60.6206 13.8456C60.6429 13.8137 60.6717 13.7868 60.7051 13.7668C60.7377 13.7448 60.7748 13.7304 60.8136 13.7246C60.8525 13.7187 60.8922 13.7217 60.9298 13.7331C61.9332 13.9897 62.9969 13.851 63.901 13.3456C63.4641 13.2446 63.0577 13.0404 62.7159 12.7502C62.4325 12.5204 62.1985 12.2359 62.0277 11.9135C61.8568 11.5912 61.7528 11.2377 61.7217 10.8743C61.7015 10.6818 61.7345 10.4876 61.8172 10.3126C62.1486 9.68918 63.0023 9.87453 63.3281 9.94754C65.3501 10.3969 67.4731 10.0206 69.6524 9.56561L69.9164 9.50945C71.9608 9.07697 74.0726 8.62764 76.1845 8.94779C77.8875 9.13391 79.447 9.98842 80.5205 11.3236C80.9228 11.8675 81.21 12.4877 81.3645 13.1463C81.519 13.8049 81.5376 14.4881 81.4191 15.1541C81.2873 16.2975 81.0079 17.4189 80.5879 18.4904C80.3779 18.8552 80.0926 19.1711 79.751 19.4171L79.6949 19.4621C79.0983 19.9877 78.5355 20.5505 78.0099 21.147C77.027 22.2198 76.0104 23.3319 74.6399 23.9553C73.6291 24.3716 72.5425 24.5724 71.4497 24.5451ZM70.5566 23.9385C71.8479 24.0879 73.1559 23.9082 74.3591 23.4161C75.6509 22.8545 76.6057 21.8267 77.5718 20.7539C78.1211 20.1269 78.7102 19.5359 79.3354 18.9847L79.3916 18.9397C79.6697 18.742 79.9048 18.4898 80.0824 18.1983C80.471 17.1763 80.7332 16.1106 80.8631 15.0249C80.9692 14.4327 80.9536 13.825 80.8175 13.2389C80.6814 12.6528 80.4274 12.1006 80.0712 11.6157C79.5846 11.0129 78.9839 10.5122 78.3035 10.1421C77.623 9.77197 76.8762 9.53981 76.1058 9.4589C74.0951 9.17807 72.0338 9.61054 70.0343 10.0206L69.7647 10.0767C67.5181 10.5485 65.3388 10.9361 63.2045 10.4643C62.6934 10.3519 62.4013 10.3744 62.3115 10.5429C62.2886 10.6332 62.2886 10.7278 62.3115 10.8181C62.374 11.3963 62.6582 11.9276 63.1044 12.3005C63.5507 12.6734 64.1241 12.8588 64.7041 12.8176C64.7643 12.8121 64.8246 12.8253 64.8769 12.8555C64.9293 12.8856 64.9709 12.9313 64.9962 12.9861C65.0196 13.0412 65.0252 13.1023 65.0121 13.1607C64.999 13.2192 64.9679 13.272 64.9232 13.3119C64.4059 13.7571 63.7948 14.0797 63.1354 14.2558C62.4761 14.4318 61.7855 14.4567 61.1151 14.3285C61.0267 15.2803 61.3038 16.2302 61.8902 16.9851C62.1942 17.4059 62.5833 17.7578 63.0324 18.0182C63.4814 18.2785 63.9802 18.4413 64.4963 18.496C64.5579 18.5012 64.6161 18.5266 64.6618 18.5682C64.7075 18.6099 64.7382 18.6654 64.7491 18.7263C64.904 19.6049 65.2415 20.4413 65.7397 21.1814C66.238 21.9215 66.8859 22.5488 67.6416 23.023C68.5302 23.5386 69.5218 23.8512 70.5454 23.9385H70.5566Z" fill="#231F20"/>
<path d="M80.7181 19.4902C80.7181 19.4902 82.375 22.54 81.9313 23.1073C81.4876 23.6746 80.207 23.1579 80.207 23.1579" fill="white"/>
<path d="M81.2224 23.6522C80.8378 23.6386 80.4581 23.5608 80.0991 23.4219C80.0648 23.4083 80.0335 23.388 80.007 23.3623C79.9805 23.3365 79.9594 23.3059 79.9448 23.2719C79.9302 23.238 79.9224 23.2016 79.9219 23.1647C79.9214 23.1277 79.9282 23.0911 79.9419 23.0568C79.9548 23.022 79.9747 22.9902 80.0003 22.9633C80.0259 22.9364 80.0567 22.9149 80.0908 22.9002C80.1249 22.8855 80.1617 22.8779 80.1988 22.8778C80.236 22.8777 80.2727 22.8851 80.3069 22.8995C80.6608 23.0399 81.4696 23.2309 81.7055 22.9332C81.9414 22.6355 81.2842 21.1247 80.4698 19.625C80.4493 19.5935 80.4354 19.5582 80.4288 19.5211C80.4222 19.4841 80.4231 19.4461 80.4315 19.4094C80.4399 19.3728 80.4556 19.3382 80.4776 19.3077C80.4996 19.2772 80.5275 19.2514 80.5597 19.2319C80.6255 19.1974 80.7021 19.1899 80.7734 19.2109C80.8446 19.2318 80.9049 19.2796 80.9416 19.3442C81.464 20.3103 82.6266 22.6299 82.1267 23.2758C82.0142 23.4028 81.8744 23.5026 81.7178 23.5677C81.5612 23.6329 81.3918 23.6618 81.2224 23.6522Z" fill="#231F20"/>
<path d="M80.64 15.637C81.7633 16.7604 81.2353 18.7992 81.1061 20.164C80.9264 22.0774 80.7018 23.9889 80.4322 25.8986C80.2637 27.1061 77.1127 26.859 76.5904 26.4602L76.5342 30.5042C76.5342 30.5042 75.6075 32.661 73.1643 31.268C70.7211 29.8751 70.2773 28.2182 70.2773 28.2182L70.9626 22.6915C70.9626 22.6915 73.0407 22.8825 74.4842 20.5122C75.9276 18.142 76.2029 14.334 76.2029 14.334C76.2029 14.334 79.5335 14.5699 80.64 15.637Z" fill="white"/>
<path d="M74.6913 32.0098C74.094 31.9934 73.5121 31.8169 73.0064 31.4987C70.4957 30.0665 70.0015 28.3366 69.9846 28.2636C69.9791 28.2263 69.9791 28.1885 69.9846 28.1512L70.6755 22.6301C70.679 22.5939 70.6896 22.5587 70.7068 22.5267C70.724 22.4946 70.7473 22.4663 70.7756 22.4433C70.8038 22.4203 70.8362 22.4031 70.8711 22.3928C70.906 22.3824 70.9426 22.3791 70.9788 22.383C71.0574 22.383 72.9053 22.5234 74.2308 20.3385C75.6237 18.0582 75.9158 14.3232 75.9158 14.2838C75.9229 14.2098 75.9585 14.1415 76.0151 14.0933C76.0717 14.0451 76.1449 14.0208 76.2191 14.0255C76.3595 14.0255 79.6676 14.3119 80.8247 15.4352C81.8637 16.4462 81.6447 18.1144 81.465 19.4567C81.4313 19.7151 81.4032 19.9622 81.3807 20.1925C81.201 22.0909 80.9763 24.023 80.7067 25.9383C80.6675 26.1473 80.5712 26.3414 80.4285 26.499C80.2857 26.6567 80.1021 26.7717 79.8979 26.8313C78.9095 27.1321 77.8562 27.1476 76.8593 26.8763L76.8088 30.499C76.8168 30.5341 76.8168 30.5706 76.8088 30.6057C76.53 31.205 76.0251 31.6695 75.4046 31.8975C75.1747 31.9739 74.9337 32.0118 74.6913 32.0098ZM70.5631 28.1625C70.6586 28.4321 71.2371 29.8474 73.3096 31.0157C73.5833 31.205 73.8941 31.3339 74.2214 31.3939C74.5487 31.454 74.885 31.4437 75.2081 31.3639C75.6619 31.1938 76.0349 30.8589 76.2527 30.426L76.3089 26.4494C76.3088 26.3968 76.3235 26.3452 76.3513 26.3005C76.3791 26.2558 76.4189 26.2198 76.4662 26.1967C76.5141 26.1742 76.5672 26.1655 76.6198 26.1715C76.6723 26.1774 76.7222 26.1978 76.7639 26.2304C77.7055 26.5705 78.7316 26.598 79.6901 26.309C79.9766 26.1967 80.1282 26.045 80.1563 25.8597C80.4203 23.9556 80.6505 22.0291 80.8247 20.1363C80.8247 19.9061 80.8808 19.6477 80.9145 19.3837C81.0774 18.1649 81.2796 16.654 80.4427 15.8396C79.6002 15.0252 77.2637 14.7163 76.4549 14.6152C76.3595 15.5588 75.9719 18.5862 74.725 20.6306C74.3816 21.2815 73.8792 21.8349 73.2645 22.2395C72.6497 22.6441 71.9427 22.8867 71.209 22.9446L70.5631 28.1625Z" fill="#231F20"/>
<path d="M80.5084 24.4665C80.5084 24.4665 78.9469 25.2528 78.2617 23.6465L80.5084 24.4665Z" fill="white"/>
<path d="M79.6609 24.9384C79.452 24.9404 79.2446 24.9042 79.0487 24.8317C78.8114 24.7349 78.5976 24.5887 78.4213 24.4027C78.245 24.2168 78.1104 23.9954 78.0265 23.7533C78.0118 23.7195 78.0042 23.683 78.0039 23.6462C78.0037 23.6093 78.0108 23.5727 78.025 23.5387C78.0391 23.5046 78.06 23.4738 78.0863 23.4479C78.1126 23.4221 78.1438 23.4018 78.1781 23.3883C78.2119 23.3736 78.2484 23.366 78.2853 23.3657C78.3221 23.3655 78.3587 23.3726 78.3928 23.3868C78.4268 23.4009 78.4577 23.4218 78.4835 23.4481C78.5094 23.4744 78.5296 23.5056 78.5432 23.5399C78.6018 23.7064 78.6946 23.8588 78.8154 23.9874C78.9363 24.1161 79.0827 24.2181 79.2453 24.2869C79.6186 24.3896 80.0163 24.3578 80.3686 24.1971C80.4349 24.1637 80.5117 24.158 80.5822 24.1812C80.6527 24.2044 80.7112 24.2545 80.7449 24.3206C80.7782 24.3869 80.7839 24.4638 80.7607 24.5343C80.7376 24.6048 80.6875 24.6633 80.6213 24.6969C80.3211 24.8425 79.9942 24.9247 79.6609 24.9384Z" fill="#231F20"/>
<path d="M76.9313 20.4001C76.9185 19.9169 76.7728 19.4466 76.5101 19.0409C76.3501 18.7007 76.1399 18.3864 75.8866 18.1085C75.7598 17.9705 75.6037 17.8625 75.4297 17.7925C75.2558 17.7226 75.0684 17.6924 74.8813 17.7041C74.7149 17.7347 74.5572 17.8007 74.4186 17.8976C74.28 17.9945 74.1639 18.1201 74.0781 18.2658C73.9022 18.5463 73.7927 18.8633 73.7579 19.1925C73.6633 19.9114 73.7599 20.6424 74.038 21.312C74.316 21.9816 74.7658 22.5659 75.3418 23.0062L75.2463 22.8826" fill="white"/>
<path d="M75.3425 23.2588C75.2815 23.2601 75.2219 23.2403 75.174 23.2027C74.5627 22.7282 74.0858 22.1026 73.7903 21.3875C73.4948 20.6724 73.3909 19.8925 73.489 19.125C73.5318 18.7532 73.6586 18.396 73.8597 18.0803C73.9691 17.9057 74.1152 17.757 74.2878 17.6445C74.4605 17.532 74.6555 17.4584 74.8594 17.4288C75.0893 17.4112 75.3202 17.4455 75.535 17.5291C75.7499 17.6127 75.9432 17.7435 76.1007 17.9118C76.3713 18.2084 76.5966 18.5434 76.7691 18.906C77.0583 19.3596 77.2158 19.8846 77.224 20.4225C77.2169 20.4954 77.1821 20.5629 77.1267 20.611C77.0713 20.659 76.9996 20.684 76.9263 20.6808C76.8894 20.6787 76.8533 20.6693 76.8201 20.6531C76.7868 20.637 76.7571 20.6144 76.7325 20.5868C76.708 20.5591 76.6892 20.5269 76.6771 20.492C76.6651 20.457 76.6601 20.42 76.6624 20.3831C76.6475 19.9499 76.5113 19.5295 76.2692 19.17C76.1251 18.8575 75.9359 18.568 75.7075 18.3106C75.6105 18.2024 75.4906 18.117 75.3566 18.0607C75.2225 18.0043 75.0777 17.9784 74.9324 17.9849C74.8089 18.0065 74.6913 18.0543 74.5877 18.125C74.4841 18.1957 74.3967 18.2877 74.3315 18.3949C74.1768 18.6392 74.0807 18.916 74.0506 19.2037C73.9728 19.8252 74.0466 20.4564 74.2657 21.0432C74.4848 21.63 74.8427 22.1551 75.3087 22.5736C75.3773 22.5846 75.4393 22.6207 75.4829 22.6747L75.5784 22.8039C75.623 22.8542 75.6476 22.9192 75.6476 22.9864C75.6476 23.0537 75.623 23.1186 75.5784 23.169C75.5485 23.201 75.5117 23.2257 75.4708 23.2413C75.4299 23.2569 75.386 23.2629 75.3425 23.2588Z" fill="#231F20"/>
<path d="M76.588 26.4492C75.6785 26.0678 74.8984 25.4321 74.3414 24.6182C74.3414 24.6182 74.2009 27.55 76.6273 28.606L76.588 26.4492Z" fill="#231F20"/>
<path d="M76.6275 28.8867C76.5905 28.8945 76.5522 28.8945 76.5152 28.8867C73.9427 27.7633 74.0551 24.7528 74.0607 24.6293C74.0638 24.5675 74.0869 24.5085 74.1263 24.4609C74.1658 24.4133 74.2196 24.3798 74.2797 24.3653C74.3395 24.3518 74.402 24.3582 74.4578 24.3836C74.5136 24.4089 74.5595 24.4518 74.5887 24.5057C75.1205 25.2545 75.8523 25.8384 76.7005 26.1907C76.7509 26.2114 76.7942 26.2463 76.8251 26.2912C76.8561 26.3361 76.8732 26.389 76.8746 26.4434L76.9083 28.6058C76.9105 28.6526 76.9002 28.699 76.8785 28.7405C76.8567 28.7819 76.8244 28.8169 76.7847 28.8417C76.7386 28.8733 76.6834 28.8891 76.6275 28.8867ZM74.6898 25.5167C74.7608 26.0467 74.9451 26.5553 75.23 27.0078C75.5149 27.4604 75.8938 27.8464 76.341 28.1397V26.6288C75.7316 26.3537 75.1717 25.9799 74.6841 25.5223L74.6898 25.5167Z" fill="#231F20"/>
<path d="M80.0103 18.138C80.1052 17.7717 80.0653 17.4444 79.9212 17.407C79.7771 17.3697 79.5833 17.6364 79.4883 18.0027C79.3934 18.369 79.4333 18.6963 79.5774 18.7337C79.7215 18.771 79.9153 18.5043 80.0103 18.138Z" fill="#231F20"/>
<path d="M71.6183 28.6509C71.6183 28.6509 76.9934 33.1779 76.9372 37.8846C76.881 42.5913 68.355 60.1937 68.1585 60.3847C67.9619 60.5756 48.0117 53.4145 48.0117 53.4145C48.0117 53.4145 51.0166 45.8601 54.7123 40.94C58.5541 35.8345 66.7262 25.4101 71.6183 28.6509Z" fill="#004680"/>
<path d="M101.262 47.8259C98.7905 47.4776 97.2347 46.1409 97.0549 43.6583C96.7292 39.2381 94.915 35.4356 93.0054 31.5209C85.9453 17.0244 94.2972 -0.561162 112.456 0.876688C124.767 1.85398 132.956 10.6664 131.957 22.6354C131.483 28.4233 128.744 33.7903 124.335 37.5699C121.313 40.2491 118.656 43.0742 117.005 46.8205C115.938 49.23 113.995 50.2241 111.31 49.6288C109.692 49.2525 108.047 49.0334 106.412 48.747C104.71 48.4381 102.986 48.0674 101.262 47.8259Z" fill="white"/>
<path d="M112.801 50.067C112.279 50.0636 111.759 49.9995 111.251 49.876C110.128 49.6233 109.004 49.4323 107.881 49.2526C107.376 49.1683 106.876 49.0897 106.376 48.9998L104.758 48.7022C103.601 48.4887 102.411 48.2641 101.237 48.1012C98.5519 47.7249 96.968 46.1578 96.7883 43.6753C96.4625 39.2157 94.5866 35.3683 92.7724 31.6445C89.043 24.0003 89.4474 15.2609 93.8284 8.83552C97.8779 2.88754 104.5 -0.0387078 112.492 0.595968C118.805 1.09585 124.248 3.69072 127.814 7.89755C131.184 11.8685 132.723 16.974 132.252 22.658C131.75 28.5109 128.975 33.9345 124.523 37.7666C121.911 40.0807 119.008 42.9845 117.266 46.9217C116.351 48.9998 114.823 50.067 112.801 50.067ZM101.304 47.5451C102.489 47.7136 103.691 47.9327 104.848 48.1517L106.46 48.4438C106.96 48.5337 107.46 48.6123 107.96 48.6965C109.083 48.8819 110.246 49.0672 111.375 49.3312C113.913 49.8929 115.722 49.0335 116.75 46.7083C118.536 42.6699 121.496 39.7156 124.152 37.3566C126.316 35.5138 128.094 33.2617 129.385 30.7296C130.676 28.1975 131.453 25.4353 131.673 22.6018C132.134 17.0695 130.651 12.1044 127.371 8.24578C123.9 4.15689 118.592 1.63504 112.431 1.14639C104.657 0.534185 98.2093 3.39303 94.2721 9.13882C90.0091 15.3957 89.6215 23.9217 93.2555 31.3862C95.0977 35.1549 96.9961 39.0584 97.3331 43.6247C97.496 45.8714 98.8665 47.1969 101.298 47.5564L101.304 47.5451Z" fill="#231F20"/>
<path d="M98.9672 52.5384L112.168 54.878C113.35 55.0875 114.478 54.2991 114.688 53.1171L114.809 52.4313C115.019 51.2492 114.231 50.1212 113.048 49.9117L99.8474 47.5721C98.6653 47.3626 97.5373 48.151 97.3278 49.3331L97.2063 50.0188C96.9968 51.2009 97.7852 52.3289 98.9672 52.5384Z" fill="white"/>
<path d="M112.577 55.178C112.432 55.1779 112.287 55.1666 112.144 55.1443L98.9397 52.8022C98.6217 52.7474 98.3178 52.6298 98.0459 52.4562C97.7739 52.2826 97.5393 52.0565 97.3558 51.7912C96.984 51.2584 96.8385 50.6 96.9514 49.9602L97.0749 49.2749C97.1886 48.6346 97.5518 48.0656 98.0846 47.6928C98.6175 47.3201 99.2765 47.174 99.917 47.2867L113.122 49.6232C113.762 49.7368 114.331 50.1 114.704 50.6328C115.076 51.1657 115.223 51.8247 115.11 52.4652L114.992 53.156C114.888 53.7218 114.59 54.2337 114.149 54.6029C113.708 54.9721 113.152 55.1756 112.577 55.178ZM99.4845 47.809C99.041 47.8111 98.6123 47.9685 98.2727 48.2537C97.9331 48.5389 97.7041 48.934 97.6254 49.3704L97.5074 50.0556C97.463 50.3006 97.4675 50.5519 97.5206 50.7952C97.5737 51.0384 97.6744 51.2687 97.817 51.4729C97.9595 51.677 98.141 51.8509 98.351 51.9846C98.5611 52.1183 98.7955 52.2091 99.0408 52.2517L112.217 54.6163C112.462 54.6599 112.713 54.6549 112.955 54.6013C113.198 54.5478 113.427 54.447 113.631 54.3045C113.834 54.1621 114.008 53.9808 114.141 53.7712C114.274 53.5616 114.365 53.3277 114.408 53.083L114.531 52.3978C114.618 51.9034 114.505 51.3948 114.218 50.9832C113.931 50.5717 113.492 50.2907 112.998 50.2017L99.7934 47.8764C99.6829 47.8501 99.5699 47.835 99.4564 47.8315L99.4845 47.809Z" fill="#231F20"/>
<path d="M98.0922 57.5091L111.293 59.8487C112.475 60.0582 113.603 59.2698 113.813 58.0878L113.934 57.402C114.144 56.2199 113.356 55.0919 112.173 54.8824L98.9724 52.5428C97.7903 52.3333 96.6623 53.1217 96.4528 54.3038L96.3313 54.9895C96.1218 56.1716 96.9102 57.2996 98.0922 57.5091Z" fill="white"/>
<path d="M111.663 60.1714C111.52 60.1722 111.377 60.159 111.237 60.1321L98.0319 57.7955C97.3914 57.6802 96.8223 57.317 96.448 56.7846C96.2618 56.5207 96.1301 56.2224 96.0607 55.907C95.9912 55.5916 95.9854 55.2656 96.0436 54.9479L96.1616 54.2627C96.2178 53.9451 96.3362 53.6417 96.5097 53.3698C96.6833 53.098 96.9088 52.863 97.1733 52.6783C97.4378 52.4937 97.736 52.363 98.051 52.2937C98.3661 52.2243 98.6917 52.2178 99.0092 52.2744L112.214 54.6165C112.855 54.7315 113.424 55.0958 113.796 55.6296C114.169 56.1633 114.315 56.823 114.202 57.4642L114.079 58.1494C113.976 58.7157 113.678 59.2281 113.237 59.5976C112.796 59.967 112.239 60.1701 111.663 60.1714ZM98.5767 52.7968C98.1333 52.7989 97.7045 52.9562 97.365 53.2415C97.0254 53.5267 96.7964 53.9218 96.7176 54.3582L96.5941 55.049C96.509 55.5426 96.6225 56.0497 96.9097 56.46C97.1969 56.8703 97.6346 57.1505 98.1274 57.2395L111.332 59.5816C111.826 59.6668 112.334 59.5535 112.745 59.2664C113.156 58.9793 113.438 58.5416 113.528 58.0483L113.646 57.3575C113.69 57.1129 113.685 56.8621 113.631 56.6195C113.578 56.377 113.477 56.1473 113.334 55.9438C113.192 55.7403 113.011 55.5669 112.801 55.4336C112.591 55.3003 112.357 55.2097 112.113 55.167L98.9081 52.8249C98.7985 52.8071 98.6877 52.7978 98.5767 52.7968Z" fill="#231F20"/>
<path d="M97.9059 57.4863C97.5745 59.3567 100.338 61.4179 104.084 62.0751C107.83 62.7322 111.133 61.7606 111.464 59.8846L97.9059 57.4863Z" fill="white"/>
<path d="M106.398 62.5697C105.601 62.566 104.806 62.4927 104.022 62.3507C102.321 62.0858 100.702 61.4387 99.2872 60.4579C98.0291 59.5255 97.4337 58.4527 97.6022 57.4361C97.6159 57.3633 97.6578 57.2988 97.7188 57.2567C97.7798 57.2146 97.855 57.1983 97.928 57.2115L111.492 59.6098C111.564 59.6258 111.628 59.6678 111.672 59.7277C111.693 59.7576 111.707 59.7914 111.715 59.8271C111.723 59.8628 111.723 59.8996 111.717 59.9355C111.453 61.5643 109.268 62.5697 106.398 62.5697ZM98.147 57.8181C98.147 58.5314 98.6694 59.3009 99.6186 60.0085C100.963 60.9347 102.499 61.547 104.112 61.8002C107.443 62.39 110.509 61.6205 111.088 60.1153L98.147 57.8181Z" fill="#231F20"/>
<path d="M109.913 46.7533C110.407 41.4063 110.851 35.8851 113.103 30.9369C114.08 28.7914 115.586 25.9943 117.462 24.5003C119.102 23.1972 122.084 23.86 123.016 25.7584C123.294 26.4111 123.403 27.1235 123.333 27.8295C123.262 28.5355 123.014 29.2121 122.612 29.7967C121.787 30.9587 120.669 31.8812 119.371 32.4702C116.663 33.7801 113.634 34.2771 110.65 33.9014C107.665 33.5256 104.854 32.293 102.555 30.3528C101.04 29.107 99.9149 27.4517 99.3143 25.5843C99.0259 24.6506 98.963 23.6618 99.131 22.6991C99.2989 21.7364 99.6928 20.8272 100.28 20.0463C101.651 18.3613 103.369 19.9059 104.212 21.2651C106.06 24.1858 105.723 28.3814 105.526 31.6727C105.2 36.3376 104.256 40.9385 102.718 45.3547" fill="white"/>
<path d="M109.912 47.0455C109.838 47.0383 109.77 47.0027 109.722 46.9461C109.673 46.8895 109.649 46.8164 109.654 46.7422L109.704 46.2367C110.069 42.2545 110.44 38.16 111.592 34.2902C109.572 34.157 107.596 33.6444 105.767 32.7793C105.371 37.1004 104.451 41.3572 103.026 45.456C103.002 45.5257 102.951 45.583 102.885 45.6156C102.819 45.6482 102.742 45.6534 102.672 45.6301C102.603 45.6057 102.545 45.5553 102.511 45.4893C102.478 45.4234 102.471 45.347 102.493 45.2762C103.93 41.1506 104.849 36.8622 105.228 32.5097C104.221 31.9734 103.279 31.3233 102.42 30.572C100.863 29.2937 99.7082 27.593 99.0946 25.6743C98.7938 24.6975 98.7292 23.6633 98.9059 22.6566C99.0826 21.6499 99.4957 20.6995 100.111 19.8836C100.3 19.6147 100.553 19.3973 100.847 19.2512C101.142 19.105 101.468 19.0347 101.796 19.0467C103.161 19.131 104.228 20.6587 104.526 21.1249C106.34 24.0062 106.099 28.0445 105.902 31.2853V31.7009C105.902 31.8582 105.902 32.0211 105.902 32.1783C107.757 33.0934 109.779 33.6244 111.844 33.7397C112.159 32.7479 112.534 31.7762 112.968 30.8303C114.389 27.7019 115.883 25.5002 117.405 24.2926C117.871 23.9542 118.406 23.7225 118.972 23.6138C119.538 23.5051 120.121 23.5221 120.679 23.6636C121.222 23.7935 121.732 24.0368 122.174 24.3775C122.616 24.7183 122.982 25.1487 123.246 25.6406C123.551 26.3365 123.672 27.0989 123.599 27.8551C123.525 28.6113 123.258 29.3359 122.825 29.9598C121.971 31.1693 120.807 32.126 119.455 32.7288C117.175 33.8644 114.648 34.4109 112.103 34.3183C110.934 38.1769 110.558 42.2882 110.193 46.2872L110.148 46.7927C110.144 46.8555 110.118 46.9148 110.075 46.9608C110.032 47.0068 109.974 47.0366 109.912 47.0455ZM112.316 33.7622C114.717 33.825 117.097 33.2986 119.247 32.2289C120.501 31.6657 121.581 30.7776 122.375 29.6565C122.751 29.1124 122.984 28.4824 123.052 27.8246C123.119 27.1668 123.02 26.5026 122.763 25.8934C122.51 25.4713 122.174 25.1049 121.776 24.8163C121.377 24.5277 120.925 24.3229 120.445 24.2143C119.965 24.1056 119.468 24.0953 118.984 24.1841C118.5 24.2729 118.039 24.4588 117.629 24.7307C116.18 25.854 114.742 28.0164 113.355 31.0662C112.957 31.9441 112.61 32.8443 112.316 33.7622ZM101.645 19.6028C101.421 19.615 101.204 19.6787 101.009 19.7888C100.814 19.8988 100.647 20.0524 100.521 20.2374C99.9639 20.9844 99.5909 21.8525 99.4328 22.771C99.2747 23.6895 99.3359 24.6323 99.6114 25.5227C100.2 27.3353 101.295 28.9415 102.768 30.1507C103.537 30.8223 104.377 31.4081 105.273 31.8975C105.273 31.8189 105.273 31.7459 105.273 31.6672L105.301 31.2516C105.492 28.0894 105.728 24.1522 104.004 21.4282C103.47 20.5801 102.588 19.6589 101.718 19.6084L101.645 19.6028Z" fill="#D1D3D4"/>
<path d="M97.332 40.0131L100.314 37.5193C101.258 36.7442 102.174 34.6099 103.027 34.6211C103.881 34.6324 102.353 37.1598 102.353 37.1598C102.353 37.1598 105.527 34.7279 106.521 34.6548C107.515 34.5818 108.054 36.25 107.807 36.7667C107.56 37.2834 104.875 38.5471 103.875 39.5413C102.518 40.6966 101.096 41.7748 99.618 42.7708" fill="white"/>
<path d="M99.6237 43.0517C99.5781 43.0513 99.5334 43.0399 99.4933 43.0183C99.4531 42.9968 99.4189 42.9659 99.3934 42.9281C99.3522 42.8669 99.3367 42.7919 99.3504 42.7194C99.3641 42.6469 99.4057 42.5826 99.4664 42.5406C100.928 41.5538 102.335 40.4869 103.679 39.3447C104.402 38.7246 105.185 38.1772 106.015 37.7103C106.568 37.4161 107.085 37.0579 107.554 36.6432C107.589 36.42 107.579 36.1922 107.524 35.9732C107.469 35.7541 107.37 35.5484 107.234 35.3682C107.167 35.2403 107.067 35.1324 106.945 35.0555C106.823 34.9785 106.682 34.9353 106.538 34.9301C105.875 34.975 103.729 36.4578 102.527 37.3789C102.477 37.42 102.413 37.4423 102.348 37.4423C102.282 37.4423 102.219 37.42 102.168 37.3789C102.119 37.3356 102.087 37.2762 102.077 37.2113C102.068 37.1465 102.082 37.0804 102.117 37.0251C102.679 36.0927 103.089 35.093 102.999 34.8795C102.662 34.8795 102.112 35.694 101.668 36.323C101.337 36.8449 100.942 37.324 100.494 37.7496L97.5174 40.2378L97.1523 39.8109L100.135 37.3172C100.544 36.9214 100.904 36.4783 101.208 35.9973C101.803 35.1491 102.365 34.3516 103.022 34.3516C103.115 34.3474 103.207 34.3693 103.289 34.415C103.37 34.4607 103.437 34.5282 103.482 34.6099C103.673 34.9469 103.482 35.5985 103.185 36.2107C104.229 35.4637 105.791 34.4358 106.493 34.3853C106.736 34.3797 106.976 34.4399 107.187 34.5595C107.399 34.6791 107.574 34.8538 107.695 35.0649C107.889 35.3244 108.022 35.6242 108.084 35.9422C108.146 36.2602 108.136 36.588 108.054 36.9015C107.908 37.2161 107.324 37.5811 106.302 38.2046C105.503 38.6453 104.751 39.1646 104.055 39.7548C102.688 40.9216 101.255 42.0093 99.7641 43.0124C99.7213 43.0372 99.673 43.0507 99.6237 43.0517Z" fill="#231F20"/>
<path d="M73.9263 32.616C74.0891 32.8182 82.0198 45.4724 82.0198 45.4724L97.8024 37.89L101.655 42.3384C101.655 42.3384 88.3553 52.3696 83.188 54.0546C78.0208 55.7396 66.063 37.2329 66.2203 35.194C66.3776 33.1552 71.6459 29.7965 73.9263 32.616Z" fill="#004680"/>
<path d="M82.0211 45.7536C81.9739 45.7546 81.9273 45.7432 81.8859 45.7205C81.8445 45.6979 81.8098 45.6647 81.7852 45.6244L74.6072 34.2003C74.5716 34.1378 74.5613 34.064 74.5784 33.9942C74.5955 33.9244 74.6388 33.8638 74.6993 33.8249C74.7598 33.786 74.8329 33.7718 74.9035 33.7852C74.9742 33.7986 75.037 33.8386 75.079 33.897C75.1689 34.0318 81.1337 43.5294 82.1222 45.1302L90.446 40.7773C90.5123 40.743 90.5895 40.7365 90.6606 40.7592C90.7317 40.7818 90.7909 40.8318 90.8251 40.898C90.8594 40.9643 90.8659 41.0415 90.8433 41.1126C90.8206 41.1837 90.7707 41.2429 90.7044 41.2772L82.1503 45.7705C82.1065 45.776 82.062 45.7702 82.0211 45.7536Z" fill="#231F20"/>
<path d="M82.8053 54.1334C79.4803 54.1334 75.8913 51.3251 72.1338 45.7478C72.0926 45.6866 72.0771 45.6116 72.0908 45.5391C72.1045 45.4666 72.1461 45.4023 72.2068 45.3603C72.2689 45.3188 72.3448 45.3032 72.4182 45.3168C72.4916 45.3305 72.5569 45.3723 72.5999 45.4333C76.7001 51.4824 80.5193 54.184 83.9286 53.4538C87.3379 52.7236 94.2575 47.3092 94.3249 47.2755C94.3541 47.2527 94.3874 47.2358 94.4231 47.2258C94.4588 47.2158 94.4961 47.213 94.5328 47.2174C94.5696 47.2218 94.6051 47.2335 94.6374 47.2516C94.6697 47.2698 94.698 47.2941 94.7209 47.3233C94.7438 47.3524 94.7607 47.3858 94.7707 47.4214C94.7806 47.4571 94.7835 47.4944 94.7791 47.5312C94.7746 47.5679 94.763 47.6035 94.7448 47.6357C94.7267 47.668 94.7023 47.6964 94.6732 47.7193C94.3867 47.9439 87.6412 53.2628 84.0466 54.0267C83.6377 54.1056 83.2216 54.1414 82.8053 54.1334Z" fill="#231F20"/>
<path d="M76.7712 29.9033L76.3949 31.0266L77.3216 32.2342C77.3216 32.2342 75.5074 41.6139 61.4659 34.1326L56.9727 35.7502L59.6462 39.3898C59.6462 39.3898 76.496 45.8713 77.7934 32.3409L78.0293 30.8301L76.7712 29.9033Z" fill="#231F20"/>
<path d="M67.9348 41.2321C65.0739 41.1681 62.243 40.6349 59.5548 39.6539C59.5057 39.6339 59.463 39.6008 59.4312 39.5584L56.7577 35.9188C56.7327 35.8834 56.7157 35.8429 56.7079 35.8002C56.7002 35.7576 56.7018 35.7137 56.7128 35.6717C56.7273 35.6304 56.7503 35.5926 56.7803 35.5607C56.8103 35.5287 56.8466 35.5034 56.8869 35.4864L61.3802 33.8688C61.4157 33.8536 61.4539 33.8458 61.4925 33.8458C61.5311 33.8458 61.5694 33.8536 61.6049 33.8688C66.8789 36.6771 70.9958 37.4353 73.8434 36.1154C74.6092 35.7366 75.2865 35.2007 75.8313 34.5426C76.3762 33.8846 76.7763 33.1191 77.0056 32.2961L76.1631 31.1728C76.1351 31.1367 76.1165 31.0942 76.1086 31.0492C76.1008 31.0042 76.1041 30.9579 76.1182 30.9144L76.4945 29.7911C76.5086 29.7494 76.5321 29.7114 76.5633 29.6802C76.5945 29.6491 76.6324 29.6255 76.6742 29.6114C76.717 29.5991 76.762 29.5968 76.8058 29.6046C76.8496 29.6124 76.891 29.6301 76.927 29.6563L78.1963 30.5999C78.2369 30.6309 78.2683 30.6724 78.2871 30.7199C78.3059 30.7674 78.3114 30.8191 78.303 30.8695L78.0671 32.3804C77.7357 35.8009 76.3821 38.2778 74.04 39.7269C72.1827 40.7821 70.0697 41.303 67.9348 41.2321ZM59.83 39.1596C60.7006 39.4741 68.8166 42.3049 73.7592 39.2551C75.8598 37.9577 77.1292 35.7447 77.483 32.6781C77.2204 33.5292 76.7858 34.3174 76.2062 34.9937C75.6265 35.67 74.914 36.22 74.113 36.6097C71.1138 38.0307 66.862 37.3061 61.4757 34.4417L57.443 35.8908L59.83 39.1596ZM76.6798 30.9594L77.5111 32.049V32.0827L77.6852 30.9594L76.8652 30.3472L76.6798 30.9594Z" fill="#231F20"/>
<path d="M21.4959 71.0284C21.4959 71.0284 16.323 69.0176 16.0366 69.2086C15.7501 69.3996 9.7909 78.3974 10.9142 78.5434C12.0375 78.6894 19.0976 75.4599 19.0976 75.4599L21.4959 71.0284Z" fill="#231F20"/>
<path d="M10.9746 78.8238H10.8791C10.7879 78.8147 10.7021 78.7764 10.6343 78.7147C10.5665 78.653 10.5204 78.5712 10.5028 78.4812C10.1658 77.0602 15.8161 69.0229 15.8779 68.9836C15.9396 68.9442 16.2935 68.7083 21.5956 70.7696C21.6318 70.7856 21.6645 70.8087 21.6915 70.8377C21.7186 70.8667 21.7394 70.9008 21.7528 70.9381C21.7695 70.9742 21.7781 71.0135 21.7781 71.0533C21.7781 71.093 21.7695 71.1323 21.7528 71.1684L19.3377 75.5943C19.308 75.6475 19.263 75.6906 19.2085 75.7179C18.5064 76.038 12.3843 78.8238 10.9746 78.8238ZM16.1587 69.4778C15.9003 69.798 14.6141 71.6851 13.3504 73.7127C11.3116 77.0434 11.0476 78.0151 11.0251 78.2678C12.0193 78.2229 16.271 76.4368 18.8884 75.2461L21.0845 71.174C19.4772 70.5126 17.8324 69.9462 16.1587 69.4778Z" fill="#231F20"/>
<path d="M54.1616 14.6206C54.1616 14.6206 44.3326 13.267 41.6928 7.50439L34.9922 16.2607C34.9922 16.2607 39.873 25.3034 48.472 24.1239L54.1616 14.6206Z" fill="white"/>
<path d="M46.9637 24.5113C39.2296 24.5113 34.7925 16.4795 34.7476 16.3897C34.7186 16.3444 34.7031 16.2918 34.7031 16.238C34.7031 16.1842 34.7186 16.1316 34.7476 16.0864L41.4707 7.33008C41.5014 7.29211 41.5411 7.26244 41.5862 7.2438C41.6314 7.22516 41.6805 7.21813 41.729 7.22336C41.777 7.22975 41.8227 7.24798 41.8619 7.27641C41.9012 7.30485 41.9327 7.34259 41.9537 7.38624C44.4924 12.9411 54.1024 14.3284 54.1979 14.3452C54.2436 14.3497 54.2873 14.3661 54.3247 14.3927C54.3621 14.4193 54.392 14.4552 54.4113 14.4969C54.4334 14.5383 54.445 14.5846 54.445 14.6317C54.445 14.6787 54.4334 14.725 54.4113 14.7665L48.7161 24.2866C48.6946 24.3228 48.6653 24.3537 48.6303 24.377C48.5953 24.4003 48.5555 24.4155 48.5139 24.4214C47.9995 24.4838 47.4818 24.5138 46.9637 24.5113ZM35.3317 16.2773C36.0226 17.4568 40.6956 24.8089 48.3061 23.871L53.7036 14.8339C51.8221 14.5081 44.2509 12.9298 41.6448 8.03215L35.3317 16.2773Z" fill="#D1D3D4"/>
<path d="M19.0298 48.3429C19.0298 48.3429 9.70067 43.2149 0.742188 49.1685L4.37613 61.4127C4.37613 61.4127 12.6269 55.2344 19.0298 56.8689V48.3429Z" fill="white"/>
<path d="M4.37688 61.6935C4.34716 61.6989 4.31672 61.6989 4.28701 61.6935C4.24441 61.6793 4.20586 61.655 4.17458 61.6227C4.14331 61.5905 4.12023 61.5512 4.10728 61.5082L0.478954 49.264C0.459607 49.2066 0.46017 49.1443 0.480551 49.0872C0.500931 49.0302 0.53994 48.9816 0.591287 48.9495C9.57785 42.9734 19.0699 48.062 19.1654 48.1182C19.2097 48.141 19.2467 48.1757 19.2725 48.2183C19.2983 48.261 19.3118 48.3099 19.3114 48.3597V56.8632C19.3106 56.9059 19.3 56.9478 19.2805 56.9857C19.2611 57.0237 19.2332 57.0567 19.1991 57.0823C19.1658 57.1093 19.1265 57.128 19.0844 57.1368C19.0424 57.1456 18.9989 57.1442 18.9576 57.1328C12.7793 55.549 4.62401 61.57 4.54538 61.6261C4.49689 61.6644 4.43837 61.6878 4.37688 61.6935ZM1.07431 49.2865L4.53414 60.9521C6.11802 59.8288 13.004 55.2906 18.7498 56.515V48.517C17.5422 47.916 9.12852 44.0686 1.07431 49.2865Z" fill="#D1D3D4"/>
<path d="M17.4686 21.3549C17.4686 21.3549 17.4124 20.3495 20.2769 20.1417C21.9872 20.0222 23.6802 20.5472 25.0229 21.6132L17.4686 31.3693C17.4686 31.3693 15.8342 23.5116 17.4686 21.3549Z" fill="#ED2D24"/>
<path d="M17.4678 31.65H17.406C17.3535 31.6391 17.3053 31.6131 17.2674 31.5752C17.2295 31.5373 17.2035 31.4891 17.1926 31.4366C17.1252 31.1108 15.5806 23.5734 17.1926 21.2593C17.2487 20.9279 17.6475 20.063 20.2368 19.872C22.0224 19.7408 23.7911 20.2929 25.185 21.4166C25.2388 21.4634 25.2728 21.5289 25.2801 21.5998C25.2874 21.6707 25.2675 21.7418 25.2243 21.7985L17.6868 31.5377C17.6622 31.5728 17.6294 31.6014 17.5912 31.621C17.553 31.6405 17.5107 31.6505 17.4678 31.65ZM20.7479 20.4168C20.5926 20.4086 20.437 20.4086 20.2817 20.4168C18.2485 20.5629 17.7655 21.1414 17.7486 21.3492C17.7499 21.4102 17.7301 21.4697 17.6925 21.5177C16.4063 23.2027 17.2881 28.8193 17.6251 30.6952L24.6121 21.6581C23.4842 20.8511 22.1347 20.4118 20.7479 20.4V20.4168Z" fill="#DB211F"/>
<path d="M17.4677 21.355L12.8789 30.7347C14.2157 32.9523 16.135 34.7609 18.4281 35.9638L22.9214 27.5389C22.9214 27.5389 18.0967 25.4495 17.4677 21.355Z" fill="#ED2D24"/>
<path d="M18.4313 36.2444C18.3843 36.244 18.3381 36.2324 18.2965 36.2107C15.9526 34.9868 13.9931 33.1381 12.635 30.8693C12.6155 30.829 12.6055 30.7849 12.6055 30.7401C12.6055 30.6954 12.6155 30.6512 12.635 30.6109L17.2237 21.2312C17.2494 21.1774 17.2915 21.1331 17.3441 21.1049C17.3966 21.0766 17.4567 21.0658 17.5158 21.074C17.5755 21.082 17.6309 21.1095 17.6736 21.1521C17.7162 21.1947 17.7436 21.2501 17.7517 21.3098C18.3527 25.2022 22.992 27.2691 23.0425 27.2915C23.0774 27.3072 23.1088 27.3297 23.1348 27.3576C23.1609 27.3856 23.181 27.4185 23.1942 27.4544C23.2224 27.5266 23.2224 27.6068 23.1942 27.6791L18.7009 36.104C18.6742 36.1508 18.6345 36.1889 18.5867 36.2138C18.5389 36.2387 18.485 36.2493 18.4313 36.2444ZM13.2022 30.7233C14.469 32.7478 16.2272 34.4191 18.3133 35.5816L22.537 27.6566C21.5541 27.1736 18.3021 25.3538 17.3698 22.1804L13.2022 30.7233Z" fill="#DB211F"/>
<path d="M98.5772 65.6812C98.5772 65.6812 97.8976 67.3661 95.4319 68.7703C92.9662 70.1744 89.293 68.7703 89.293 68.7703L90.2085 76.7852C90.2085 76.7852 93.4212 78.2567 97.9201 76.2235C102.419 74.1903 102.599 72.0953 102.599 72.0953L98.5772 65.6812Z" fill="white"/>
<path d="M93.186 77.5882C92.1293 77.6069 91.0794 77.416 90.0969 77.0265C90.0529 77.006 90.0149 76.9746 89.9864 76.9353C89.9579 76.896 89.9399 76.8501 89.934 76.8019L89.0129 68.7814C89.0086 68.7337 89.0161 68.6858 89.0347 68.6417C89.0533 68.5976 89.0825 68.5588 89.1196 68.5286C89.1584 68.4993 89.204 68.4802 89.2521 68.4733C89.3003 68.4665 89.3494 68.472 89.3948 68.4893C89.4285 68.4893 92.9726 69.8373 95.2922 68.4893C97.6119 67.1413 98.3084 65.5574 98.314 65.5406C98.3348 65.4941 98.3676 65.4539 98.409 65.4243C98.4505 65.3947 98.4991 65.3767 98.5499 65.3721C98.6017 65.3658 98.6542 65.3746 98.701 65.3976C98.7479 65.4205 98.7871 65.4565 98.8139 65.5013L102.841 71.9267C102.87 71.9777 102.884 72.0364 102.88 72.0952C102.88 72.1907 102.628 74.398 98.0331 76.4593C96.5161 77.1761 94.8636 77.5609 93.186 77.5882ZM90.4732 76.5885C91.1303 76.83 94.0117 77.6837 97.7748 75.9819C101.538 74.28 102.178 72.5557 102.268 72.1626L98.5611 66.2427C97.8011 67.4037 96.7622 68.3557 95.5394 69.0117C93.4612 70.1968 90.6529 69.5115 89.5914 69.1745L90.4732 76.5885Z" fill="#D1D3D4"/>
<path d="M130.303 43.1475C128.263 44.6731 126.811 46.855 126.191 49.3257L138.099 49.4437C138.099 49.4437 132.01 43.1755 130.303 43.1475Z" fill="#6F93B3"/>
<path d="M138.097 49.7133L126.189 49.5954C126.147 49.596 126.105 49.5867 126.067 49.5682C126.029 49.5496 125.996 49.5224 125.97 49.4887C125.943 49.4564 125.925 49.4181 125.916 49.377C125.907 49.3359 125.908 49.2932 125.92 49.2528C126.543 46.7119 128.038 44.47 130.144 42.9172C130.191 42.8872 130.245 42.8698 130.301 42.8667C132.076 42.9004 137.67 48.59 138.299 49.2359C138.338 49.2755 138.364 49.3257 138.374 49.3802C138.385 49.4347 138.378 49.491 138.357 49.542C138.335 49.5931 138.299 49.6366 138.253 49.6671C138.206 49.6976 138.152 49.7137 138.097 49.7133ZM126.555 49.0393L137.423 49.1461C135.041 46.7534 131.565 43.6081 130.379 43.434C128.542 44.8493 127.202 46.8124 126.555 49.0393Z" fill="#5780A2"/>
<path d="M144.842 50.9598C144.842 50.9598 147.622 45.6915 140.248 41.4116L130.301 43.1472C130.301 43.1472 139.624 45.8712 134.013 54.7398L144.842 50.9598Z" fill="#6F93B3"/>
<path d="M134.014 55.021C133.972 55.0204 133.931 55.0105 133.893 54.9921C133.855 54.9736 133.822 54.947 133.795 54.9142C133.762 54.8664 133.744 54.8096 133.744 54.7514C133.744 54.6932 133.762 54.6364 133.795 54.5885C135.48 51.9374 135.952 49.5953 135.21 47.6351C134.053 44.5685 130.273 43.4283 130.24 43.4171C130.203 43.4152 130.167 43.4061 130.133 43.3903C130.1 43.3745 130.07 43.3523 130.045 43.3249C129.995 43.2696 129.969 43.1967 129.973 43.1222C129.975 43.0853 129.984 43.0492 130 43.0158C130.016 42.9824 130.038 42.9525 130.065 42.9277C130.093 42.903 130.125 42.8838 130.159 42.8714C130.194 42.859 130.231 42.8536 130.268 42.8554L140.22 41.1143C140.286 41.1034 140.353 41.1153 140.411 41.148C144.343 43.3946 145.393 45.9839 145.607 47.7418C145.762 48.877 145.589 50.0329 145.107 51.0725C145.092 51.104 145.071 51.1322 145.045 51.1554C145.019 51.1786 144.988 51.1962 144.955 51.2073L134.126 54.9873C134.092 55.0061 134.054 55.0176 134.014 55.021ZM131.352 43.2261C132.638 43.7878 134.834 45.074 135.716 47.4105C136.457 49.3763 136.104 51.6566 134.66 54.1953L144.641 50.713C144.978 49.9773 146.68 45.4952 140.198 41.6815L131.352 43.2261Z" fill="#5780A2"/>
<path d="M43.815 43.1304C42.1941 42.0156 40.2458 41.4776 38.2826 41.6026C35.1205 41.8666 34.1151 40.1816 34.1151 40.1816L32.6211 46.1128C32.6211 46.1128 34.3061 48.1965 35.8057 48.2471C37.3053 48.2976 38.4904 47.3484 40.9168 48.2471L43.815 43.1304Z" fill="#6F93B3"/>
<path d="M35.927 48.5278H35.7978C34.2139 48.4717 32.484 46.3823 32.4278 46.2812C32.3997 46.2473 32.38 46.2072 32.3703 46.1643C32.3605 46.1214 32.361 46.0768 32.3716 46.0341L33.8657 40.1029C33.878 40.0488 33.9067 39.9998 33.9479 39.9626C33.9891 39.9254 34.0408 39.9018 34.0959 39.8951C34.1504 39.8844 34.2068 39.8911 34.2572 39.9143C34.3077 39.9375 34.3495 39.976 34.3768 40.0243C34.4161 40.0861 35.3541 41.5576 38.2747 41.3161C40.3081 41.1773 42.3282 41.7339 44.0036 42.8944C44.0582 42.9358 44.0962 42.9954 44.1106 43.0623C44.125 43.1293 44.115 43.1993 44.0823 43.2594L41.1785 48.3762C41.1456 48.4329 41.0938 48.4763 41.0323 48.4988C40.9707 48.5214 40.9032 48.5217 40.8415 48.4997C39.7191 48.0715 38.4893 48.0124 37.3311 48.3312C36.8712 48.4454 36.4006 48.5113 35.927 48.5278ZM32.9333 46.0397C33.2928 46.4497 34.6632 47.9268 35.8146 47.9662C36.2823 47.9626 36.7479 47.9042 37.2019 47.792C38.3833 47.476 39.6316 47.5151 40.7909 47.9044L43.4476 43.2201C41.9186 42.2432 40.1196 41.7752 38.3084 41.8834C36.0618 42.0743 34.8149 41.3217 34.2588 40.7601L32.9333 46.0397Z" fill="#497291"/>
</g>
<defs>
<clipPath id="clip0_238_6690">
<rect width="159.368" height="140" fill="white" transform="translate(0.316406)"/>
</clipPath>
</defs>
</svg>
