<svg width="140" height="140" viewBox="0 0 140 140" fill="none" xmlns="http://www.w3.org/2000/svg">
<path d="M17.4915 132.933C20.4946 135.447 24.2571 136.868 28.008 138.013C29.5786 138.497 31.1665 138.934 32.76 139.331H102.147C103.327 139.331 106.175 135.442 106.75 134.349C108.121 131.401 108.662 128.135 108.315 124.902C107.814 120.973 105.404 117.423 105.179 113.477C105.035 110.945 105.801 108.431 105.755 105.894C105.622 100.4 101.192 95.9011 96.5037 93.5596C93.6789 92.1444 91.1534 87.3981 90.44 84.4813C89.5425 80.8109 88.2193 78.8491 85.8376 75.7482C85.3019 75.0913 84.8191 74.393 84.3935 73.6599C83.2775 71.6175 83.0991 69.2128 82.449 66.9806C82.2214 66.0253 81.7698 65.138 81.1316 64.3917C80.1683 63.4761 78.8879 62.9689 77.5589 62.9765C75.3153 62.9074 74.5501 63.6898 72.7321 62.4012C71.3859 61.4519 70.8567 59.9274 69.0675 59.5246C67.1908 59.0973 65.2439 59.0814 63.3605 59.4781C61.4771 59.8747 59.702 60.6745 58.1571 61.8225C56.6123 62.9705 55.3343 64.4394 54.4112 66.1283C53.4881 67.8171 52.9416 69.6859 52.8094 71.606C52.7288 72.7566 52.8094 73.9533 52.3146 75.0003C51.8198 76.0474 50.9569 76.7262 50.3586 77.6812C48.5061 80.5577 49.8523 84.4641 48.788 87.7203C47.7985 90.7636 44.8932 92.7369 42.0109 94.1234C39.1287 95.5099 36.0048 96.5972 33.7093 98.8294C30.1539 102.281 29.0551 108.08 24.7403 110.525C19.3325 113.592 13.3838 115.237 12.7165 122.676C12.331 126.599 14.4884 130.414 17.4915 132.933Z" fill="white"/>
<path d="M102.147 139.619H32.6909C31.0282 139.199 29.4231 138.756 27.9216 138.296C24.4295 137.225 20.4426 135.781 17.3072 133.158C13.9014 130.282 12.0605 126.381 12.3941 122.676C12.9695 116.319 17.2842 114.098 21.8521 111.745C22.7439 111.291 23.6643 110.813 24.5618 110.307C26.9781 108.938 28.3416 106.516 29.7856 103.979C30.8441 102.109 31.9315 100.176 33.479 98.6744C35.32 96.8794 37.7018 95.7979 40.003 94.7681C40.6243 94.4919 41.2399 94.1928 41.8497 93.9166C45.5201 92.1505 47.689 90.1139 48.4829 87.6861C48.8562 86.2739 49.0133 84.8133 48.9489 83.3541C48.9489 81.3578 48.9777 79.2924 50.0995 77.601C50.3594 77.2135 50.6458 76.8444 50.9567 76.4964C51.3851 76.0336 51.7489 75.5149 52.0383 74.9546C52.3435 74.1344 52.4899 73.2637 52.4698 72.3888C52.4698 72.1471 52.4698 71.8998 52.5043 71.6581C52.6891 69.4053 53.418 67.2309 54.6285 65.3219C55.8391 63.4129 57.495 61.8264 59.454 60.6986C62.394 59.0654 65.8318 58.5699 69.1133 59.3064C70.1343 59.5916 71.0298 60.2116 71.6562 61.0668C72.0196 61.4956 72.4307 61.8817 72.8816 62.2174C73.284 62.5293 73.7518 62.7462 74.25 62.8518C74.7481 62.9574 75.2637 62.949 75.7581 62.8272C76.3626 62.748 76.9723 62.7153 77.5818 62.7294C78.9865 62.7147 80.3404 63.2542 81.35 64.231C82.0215 65.0086 82.497 65.9358 82.7365 66.9349C82.9551 67.6885 83.122 68.4652 83.2831 69.2361C83.5338 70.7398 83.9968 72.2003 84.658 73.5739C85.0765 74.2919 85.5497 74.9766 86.0733 75.622C88.3745 78.579 89.8012 80.6444 90.7332 84.4644C91.4121 87.2259 93.9089 91.9836 96.6531 93.3528C101.106 95.5793 105.916 100.055 106.059 105.94C106.06 107.166 105.963 108.389 105.772 109.599C105.558 110.892 105.468 112.202 105.501 113.511C105.616 115.571 106.364 117.573 107.083 119.512C107.805 121.249 108.324 123.064 108.631 124.92C108.986 128.208 108.435 131.53 107.037 134.527C106.479 135.505 103.534 139.619 102.147 139.619ZM32.7944 139.043H102.147C103.085 139.043 105.858 135.459 106.479 134.217C107.827 131.321 108.358 128.112 108.015 124.937C107.71 123.127 107.2 121.357 106.497 119.661C105.76 117.682 105.001 115.634 104.88 113.494C104.847 112.146 104.939 110.798 105.156 109.467C105.345 108.286 105.439 107.091 105.438 105.894C105.3 100.268 100.651 95.9647 96.3482 93.8131C93.4142 92.3403 90.8483 87.4847 90.1292 84.5449C89.2547 80.9608 88.0063 79.0796 85.5728 75.9154C85.0298 75.2446 84.5394 74.5329 84.1057 73.7868C83.4141 72.3664 82.9334 70.8528 82.679 69.2936C82.5179 68.5515 82.3511 67.7806 82.1382 67.05C81.9195 66.1414 81.4921 65.2964 80.8898 64.5819C79.9837 63.7147 78.7725 63.2393 77.5185 63.2587C76.9415 63.2459 76.3644 63.2786 75.7926 63.3565C75.2335 63.4825 74.6534 63.4839 74.0937 63.3606C73.5339 63.2373 73.0081 62.9924 72.5536 62.6431C72.0644 62.2791 71.6202 61.8581 71.2304 61.389C70.679 60.6259 69.8898 60.0674 68.9868 59.8011C65.8436 59.101 62.5529 59.5758 59.7359 61.1358C57.86 62.2172 56.2745 63.7374 55.1152 65.566C53.9558 67.3947 53.2574 69.4772 53.0796 71.6351C53.0796 71.871 53.0508 72.1126 53.0451 72.3542C53.0596 73.3026 52.8957 74.2452 52.5618 75.133C52.2578 75.7399 51.8705 76.3015 51.4112 76.8014C51.1211 77.1346 50.8503 77.4842 50.6001 77.8484C49.5875 79.4247 49.576 81.3002 49.5588 83.3195C49.623 84.8375 49.4562 86.3564 49.064 87.8242C48.2183 90.4073 45.9516 92.5589 42.1604 94.3941C41.5448 94.6875 40.9235 94.9694 40.2964 95.2513C38.0354 96.2696 35.6939 97.3224 33.9335 99.0426C32.4492 100.487 31.3792 102.385 30.3436 104.22C28.9226 106.74 27.4671 109.341 24.9012 110.79C23.998 111.302 23.0718 111.78 22.1743 112.24C17.7502 114.541 13.5448 116.67 13.027 122.711C12.7163 126.162 14.517 130.005 17.733 132.698C20.7821 135.258 24.7114 136.679 28.1517 137.732C29.5727 138.204 31.1548 138.635 32.7944 139.043Z" fill="#231F20"/>
<path d="M69.7655 51.2463C68.1201 51.0622 66.4748 50.809 64.8236 50.7055C62.0679 50.5444 60.4916 49.0429 60.1464 46.431C59.6171 42.4038 57.8452 38.9118 55.7338 35.5002C52.5749 30.6332 51.4665 24.7153 52.6502 19.035C55.0435 7.2643 65.3989 1.13156 77.4803 3.6744C95.3147 7.42538 98.3351 26.6405 87.4676 38.5436C84.5335 41.7595 81.7145 44.8719 80.1612 49.0313C79.2925 51.3326 77.417 52.207 74.949 51.8388C73.2346 51.5857 71.4972 51.4419 69.7655 51.2463Z" fill="white"/>
<path d="M75.9824 52.2069C75.6243 52.205 75.2667 52.178 74.9123 52.1263C73.7617 51.948 72.5306 51.8272 71.3685 51.7064L69.7346 51.5338L68.2158 51.3324C67.0997 51.1886 65.9146 51.0448 64.8043 50.9757C61.9277 50.8031 60.2018 49.2498 59.8624 46.4481C59.2871 42.1793 57.3368 38.5837 55.4901 35.6266C52.3042 30.689 51.1826 24.6986 52.3662 18.9428C53.5168 13.3566 56.4278 8.89802 60.7886 6.03876C65.3911 3.01267 71.3512 2.06917 77.5415 3.36935C85.3771 5.02048 90.9058 9.69769 93.115 16.5438C95.4967 23.9422 93.4141 32.4337 87.6841 38.7103C84.8939 41.7709 82.0058 44.9293 80.4353 49.1117C80.1357 50.0449 79.5374 50.8535 78.7326 51.4129C77.9279 51.9722 76.9615 52.2513 75.9824 52.2069ZM69.7979 50.9585C70.3387 51.0218 70.8852 51.0793 71.426 51.1311C72.5766 51.2519 73.8078 51.3784 74.9986 51.5568C77.4207 51.9135 79.1121 50.9815 79.8945 48.9334C81.5053 44.6474 84.4279 41.4545 87.2584 38.3478C92.8503 32.2208 94.8869 23.9652 92.5684 16.7452C90.4283 10.1004 85.0492 5.56126 77.4264 3.95616C71.38 2.68474 65.5867 3.60523 61.1051 6.53928C56.8708 9.31224 54.0461 13.65 52.9242 19.0809C52.3386 21.8582 52.3064 24.7238 52.8296 27.5136C53.3528 30.3034 54.4211 32.9626 55.9734 35.339C57.8603 38.3478 59.8624 42.0125 60.432 46.3906C60.7599 48.9104 62.2442 50.2681 64.8388 50.4177C65.9894 50.4867 67.14 50.6305 68.2906 50.7744L69.7979 50.9527V50.9585Z" fill="#231F20"/>
<path d="M76.3857 52.0046L63.0753 50.5186C61.8817 50.3854 60.806 51.245 60.6728 52.4386L60.5962 53.1247C60.4629 54.3183 61.3225 55.3939 62.5161 55.5272L75.8265 57.0131C77.0201 57.1464 78.0958 56.2868 78.229 55.0932L78.3056 54.4071C78.4389 53.2134 77.5793 52.1378 76.3857 52.0046Z" fill="white"/>
<path d="M76.0752 57.3213C75.9813 57.3271 75.8872 57.3271 75.7933 57.3213L62.475 55.837C62.1544 55.8012 61.8441 55.7025 61.5617 55.5465C61.2794 55.3906 61.0306 55.1804 60.8296 54.928C60.6256 54.6763 60.4741 54.3863 60.3842 54.075C60.2943 53.7637 60.2677 53.4376 60.3061 53.1158L60.3809 52.4255C60.4548 51.7769 60.7814 51.1836 61.2899 50.7743C61.5427 50.5724 61.833 50.4227 62.1441 50.3338C62.4552 50.2449 62.7808 50.2187 63.1021 50.2566L76.4204 51.7408C77.0675 51.8146 77.6591 52.1417 78.0656 52.6506C78.4721 53.1596 78.6604 53.8088 78.5893 54.4563L78.5145 55.1524C78.4787 55.473 78.38 55.7834 78.224 56.0657C78.068 56.3481 77.8578 56.5968 77.6055 56.7978C77.1702 57.1421 76.6301 57.3268 76.0752 57.3213ZM75.8566 56.746C76.3531 56.801 76.8511 56.6568 77.2415 56.3451C77.6319 56.0335 77.8828 55.5797 77.9392 55.0834L78.0197 54.3872C78.0471 54.1419 78.0256 53.8936 77.9564 53.6566C77.8873 53.4196 77.772 53.1987 77.617 53.0065C77.4639 52.8112 77.2728 52.6488 77.0553 52.5291C76.8378 52.4095 76.5983 52.3351 76.3513 52.3104L63.0388 50.8204C62.7925 50.7916 62.543 50.8124 62.3049 50.8816C62.0667 50.9507 61.8449 51.0668 61.6523 51.2231C61.4571 51.3751 61.2948 51.5651 61.1752 51.7817C61.0555 51.9983 60.981 52.2368 60.9562 52.483L60.8757 53.1791C60.8253 53.6702 60.9693 54.1614 61.2769 54.5475C61.5845 54.9336 62.0311 55.1838 62.521 55.2445L75.8566 56.746Z" fill="#231F20"/>
<path d="M75.8271 57.0148L62.5167 55.5289C61.3231 55.3956 60.2474 56.2552 60.1142 57.4488L60.0376 58.1349C59.9043 59.3285 60.7639 60.4042 61.9575 60.5374L75.2679 62.0234C76.4615 62.1566 77.5372 61.297 77.6704 60.1034L77.747 59.4173C77.8803 58.2237 77.0207 57.1481 75.8271 57.0148Z" fill="white"/>
<path d="M75.5129 62.3322C75.4209 62.3379 75.3287 62.3379 75.2367 62.3322L61.9472 60.8307C61.2986 60.7568 60.7053 60.4302 60.2961 59.9217C60.0944 59.6687 59.9449 59.3784 59.856 59.0674C59.7672 58.7563 59.7407 58.4308 59.7783 58.1095L59.8531 57.4191C59.9256 56.7797 60.2456 56.1941 60.7445 55.7877C61.2434 55.3812 61.8816 55.1863 62.5225 55.2445L75.8408 56.7345C76.489 56.8068 77.082 57.1334 77.4897 57.6425C77.8974 58.1516 78.0865 58.8016 78.0154 59.45L77.9349 60.1461C77.8659 60.7457 77.5797 61.2993 77.1302 61.7021C76.6807 62.105 76.0992 62.3291 75.4956 62.3322H75.5129ZM62.2809 55.8083C61.8174 55.807 61.37 55.9774 61.0247 56.2865C60.6795 56.5957 60.4609 57.0217 60.4111 57.4824L60.3363 58.1728C60.2814 58.6693 60.4255 59.1673 60.7372 59.5577C61.0489 59.9481 61.5026 60.199 61.999 60.2554L75.3173 61.7454C75.8138 61.8004 76.3118 61.6562 76.7022 61.3446C77.0926 61.0329 77.3435 60.5791 77.3998 60.0828L77.4804 59.3867C77.5092 59.1406 77.4889 58.8912 77.4207 58.653C77.3526 58.4147 77.2379 58.1924 77.0833 57.9987C76.9287 57.8051 76.7373 57.644 76.52 57.5248C76.3028 57.4055 76.0641 57.3305 75.8178 57.3041L62.4995 55.8198C62.4214 55.8087 62.3424 55.8049 62.2636 55.8083H62.2809Z" fill="#231F20"/>
<path d="M75.449 62.0503C75.2361 63.9373 71.9971 65.1282 68.2289 64.7082C64.4607 64.2883 61.5611 62.407 61.7683 60.52L75.449 62.0503Z" fill="#231F20"/>
<path d="M69.7584 65.082C69.2354 65.0821 68.7129 65.0513 68.1935 64.99C66.4787 64.8333 64.8211 64.2926 63.3437 63.4079C62.032 62.5507 61.3704 61.5151 61.4855 60.4911C61.4942 60.4157 61.5323 60.3468 61.5916 60.2994C61.6508 60.2519 61.7264 60.2299 61.8019 60.238L75.4769 61.7625C75.5152 61.7664 75.5524 61.7781 75.586 61.7969C75.6196 61.8157 75.6491 61.8412 75.6725 61.8718C75.6962 61.9015 75.7135 61.9356 75.7234 61.9723C75.7333 62.0089 75.7356 62.0472 75.73 62.0847C75.5344 63.8796 73.0203 65.082 69.7584 65.082ZM62.0493 60.842C62.1126 61.5554 62.6706 62.2803 63.6601 62.9246C65.0624 63.7628 66.6355 64.2741 68.2626 64.4204C71.6108 64.7944 74.6197 63.8451 75.1087 62.3033L62.0493 60.842Z" fill="#231F20"/>
<path d="M74.2351 49.3533C74.1608 49.3534 74.0893 49.3246 74.0357 49.2732C73.9821 49.2217 73.9505 49.1514 73.9475 49.0772C73.7398 44.7494 74.0585 40.4125 74.8967 36.1616C72.9054 36.4696 70.874 36.4013 68.9078 35.9602C68.9078 39.9874 68.1139 44.0145 67.3372 47.9496L67.2452 48.4386C67.2286 48.5126 67.184 48.5773 67.1207 48.6191C67.0574 48.661 66.9804 48.6767 66.9058 48.6629C66.8684 48.6561 66.8328 48.6418 66.801 48.6209C66.7693 48.5999 66.7422 48.5728 66.7212 48.5411C66.7002 48.5094 66.6859 48.4737 66.6791 48.4364C66.6722 48.399 66.673 48.3606 66.6814 48.3235L66.7734 47.8345C67.5559 43.8994 68.3555 39.855 68.3325 35.8222C65.8679 35.1916 63.5998 33.9557 61.7338 32.2265C60.6138 31.2653 59.7748 30.0189 59.306 28.6194C59.0655 27.8983 59.0143 27.1276 59.1574 26.3811C59.3004 25.6346 59.6329 24.9374 60.1229 24.3564C60.5414 23.9615 61.0366 23.6571 61.5778 23.4618C62.1189 23.2666 62.6945 23.1847 63.2686 23.2214C63.8427 23.2581 64.4032 23.4125 64.9151 23.6751C65.427 23.9376 65.8794 24.3027 66.2442 24.7476C67.366 26.3412 68.1772 28.8725 68.6547 32.2783C68.8 33.304 68.8826 34.3376 68.9021 35.3734C70.9097 35.8427 72.9911 35.9053 75.0233 35.5575C75.0578 35.4022 75.0923 35.2469 75.1326 35.0915L75.2247 34.6831C75.9553 31.5189 76.8643 27.5838 79.4186 25.3344C79.8328 24.9719 81.2941 23.8041 82.6288 24.109C82.9468 24.1926 83.2392 24.3534 83.4801 24.5772C83.721 24.801 83.9029 25.0809 84.0096 25.3919C84.3684 26.3495 84.4951 27.3787 84.3791 28.3947C84.2631 29.4108 83.9077 30.3849 83.3422 31.237C82.2103 32.9041 80.6226 34.2102 78.7685 34.9995C77.7257 35.4756 76.631 35.8289 75.5066 36.0523C74.644 40.3291 74.3136 44.6962 74.5228 49.0541C74.5244 49.13 74.4965 49.2036 74.445 49.2594C74.3936 49.3152 74.3224 49.3489 74.2466 49.3533H74.2351ZM82.1801 24.6152C81.2826 24.731 80.4469 25.1348 79.7983 25.7659C77.382 27.8887 76.4961 31.7318 75.7712 34.8154L75.6791 35.2238C75.6791 35.2929 75.6446 35.3677 75.6331 35.4367C76.6241 35.2223 77.5887 34.9001 78.5096 34.4759C80.2657 33.7352 81.7701 32.5025 82.8417 30.9263C83.3579 30.1523 83.683 29.2668 83.79 28.3426C83.897 27.4184 83.783 26.482 83.4573 25.6105C83.3857 25.3849 83.2586 25.1808 83.0878 25.017C82.9169 24.8532 82.7077 24.7348 82.4792 24.6728C82.381 24.6509 82.2807 24.6393 82.1801 24.6383V24.6152ZM62.9707 23.7638C62.5219 23.7502 62.0751 23.8284 61.6576 23.9936C61.2402 24.1588 60.8608 24.4075 60.5429 24.7246C60.1261 25.2357 59.8449 25.8436 59.7252 26.4922C59.6056 27.1408 59.6513 27.8091 59.8583 28.4353C60.3015 29.7336 61.0841 30.8897 62.125 31.7835C63.88 33.4194 66.0064 34.6041 68.321 35.2353C68.3001 34.2726 68.2213 33.3121 68.0851 32.3588C67.6191 29.0451 66.8425 26.6058 65.7839 25.0812C65.4813 24.6941 65.0971 24.3783 64.6586 24.1566C64.2201 23.9348 63.738 23.8125 63.2468 23.7983L62.9707 23.7638Z" fill="#D1D3D4"/>
<path d="M39.0251 139.929H95.1115C95.8594 131.156 97.0042 120.432 98.6323 113.931L122.392 91.2526L106.198 75.823C106.198 75.823 70.3332 98.628 67.7961 98.4727C64.5629 98.2713 25.6148 68.3843 25.6148 68.3843L18.4062 90.2458L39.215 118.303C39.215 125.759 39.1344 133.647 39.0251 139.929Z" fill="#004680"/>
<path d="M68.7297 136.707C68.6513 136.705 68.5769 136.672 68.5226 136.615C68.4956 136.589 68.4742 136.557 68.4596 136.522C68.445 136.487 68.4375 136.449 68.4375 136.411C68.4375 136.373 68.445 136.336 68.4596 136.301C68.4742 136.266 68.4956 136.234 68.5226 136.207C76.1741 128.883 77.5261 125.058 77.3075 123.136C77.272 122.737 77.1399 122.352 76.9223 122.015C76.7048 121.678 76.4085 121.4 76.0591 121.203C76.0191 121.179 75.9856 121.145 75.9615 121.105C75.9375 121.065 75.9236 121.02 75.921 120.973C75.9183 120.927 75.9262 120.882 75.9442 120.84C75.9622 120.798 75.9897 120.761 76.0245 120.731C76.4388 120.392 76.899 120.064 77.3823 119.719C78.8608 118.666 80.3911 117.573 80.8743 115.985C81.5187 113.879 80.5004 110.951 79.6777 108.592C79.4591 107.954 79.2462 107.35 79.1024 106.797C79.0855 106.76 79.0767 106.719 79.0768 106.678C79.0769 106.637 79.0858 106.596 79.1029 106.559C79.12 106.522 79.145 106.488 79.1761 106.461C79.2072 106.434 79.2437 106.414 79.2831 106.403C79.3226 106.391 79.3641 106.388 79.4048 106.394C79.4455 106.4 79.4845 106.414 79.5192 106.436C79.5539 106.458 79.5834 106.488 79.6058 106.522C79.6282 106.557 79.6429 106.596 79.649 106.636C79.8158 107.171 80.0229 107.787 80.2243 108.403C81.07 110.842 82.1228 113.868 81.4266 116.152C80.8859 117.93 79.2002 119.132 77.7159 120.179C77.3593 120.432 77.0141 120.68 76.6919 120.927C77.0271 121.181 77.3056 121.501 77.5097 121.869C77.7138 122.237 77.8389 122.643 77.877 123.061C78.2165 126.041 75.2019 130.598 68.9195 136.615C68.8695 136.668 68.8021 136.701 68.7297 136.707Z" fill="#231F20"/>
<path d="M56.3703 135.902C56.3142 135.902 56.2592 135.886 56.2122 135.856C56.1652 135.825 56.1282 135.781 56.1057 135.73C55.9101 135.269 55.657 134.729 55.3751 134.119C53.7009 130.512 50.8935 124.471 52.5733 120.847C53.1148 119.705 54.0874 118.826 55.2773 118.402C53.9483 117.786 51.2501 116.273 51.4918 114.317C51.8312 111.624 54.6099 109.185 56.4509 107.563L56.5544 107.471C56.6128 107.421 56.6882 107.397 56.7645 107.402C56.8408 107.407 56.912 107.442 56.9629 107.5C56.9879 107.528 57.007 107.56 57.0191 107.596C57.0313 107.632 57.0361 107.669 57.0334 107.707C57.0308 107.744 57.0206 107.781 57.0035 107.815C56.9865 107.848 56.9629 107.878 56.9341 107.902L56.8306 108C55.0529 109.559 52.372 111.912 52.0613 114.386C51.8427 116.112 54.9666 117.705 56.1863 118.171C56.2432 118.192 56.2918 118.231 56.325 118.282C56.3582 118.333 56.3741 118.393 56.3703 118.453C56.3667 118.514 56.3442 118.572 56.3061 118.62C56.268 118.667 56.216 118.701 56.1575 118.718C55.4992 118.852 54.8805 119.136 54.3489 119.547C53.8174 119.958 53.3871 120.485 53.0911 121.088C51.5263 124.471 54.2417 130.362 55.8986 133.877C56.1805 134.487 56.4336 135.028 56.635 135.5C56.6642 135.57 56.6649 135.649 56.637 135.72C56.6091 135.791 56.5547 135.848 56.4854 135.879C56.4484 135.892 56.4096 135.9 56.3703 135.902Z" fill="#231F20"/>
<path d="M75.5395 101.977L60.2422 102.517L60.5874 137.824L75.5395 101.977Z" fill="#231F20"/>
<path d="M60.5899 138.111H60.5324C60.4674 138.098 60.409 138.063 60.3671 138.012C60.3252 137.96 60.3023 137.896 60.3023 137.83L59.9571 102.523C59.9563 102.486 59.9629 102.449 59.9763 102.415C59.9898 102.38 60.0099 102.349 60.0356 102.322C60.0612 102.295 60.0919 102.274 60.1258 102.259C60.1597 102.244 60.1962 102.236 60.2332 102.236L75.5306 101.695C75.5787 101.692 75.6267 101.702 75.67 101.723C75.7133 101.744 75.7505 101.776 75.7779 101.816C75.8062 101.855 75.8236 101.901 75.8287 101.95C75.8337 101.998 75.8261 102.047 75.8067 102.092L60.8488 137.939C60.8268 137.989 60.7906 138.033 60.7447 138.063C60.6988 138.094 60.6451 138.111 60.5899 138.111ZM60.5324 102.794L60.8661 136.42L75.1048 102.282L60.5324 102.794Z" fill="#231F20"/>
<path d="M61.3701 93.2664L60.2195 102.535C60.2195 102.535 61.7786 107.891 68.0149 107.074C74.2512 106.257 75.4938 101.994 75.4938 101.994L77.5649 82.3989C77.5649 82.3989 75.5629 81.7891 73.5033 71.1978C73.5033 71.1978 68.6592 74.2469 59.742 72.124C59.742 72.124 57.7054 81.9042 57.7917 86.7022C57.7851 88.0095 58.1098 89.2973 58.7355 90.4451C59.3613 91.593 60.2677 92.5636 61.3701 93.2664Z" fill="white"/>
<path d="M66.7902 107.425C65.2881 107.444 63.8186 106.987 62.592 106.12C61.3653 105.253 60.4445 104.02 59.9613 102.598C59.9555 102.56 59.9555 102.521 59.9613 102.483L61.0429 93.4046C59.9487 92.6623 59.0541 91.6621 58.4381 90.4922C57.822 89.3223 57.5035 88.0187 57.5105 86.6965C57.4242 81.9215 59.4435 72.1529 59.4665 72.0551C59.4726 72.0169 59.487 71.9805 59.5089 71.9487C59.5308 71.9168 59.5596 71.8903 59.5931 71.871C59.6255 71.8511 59.6614 71.8378 59.699 71.8318C59.7365 71.8259 59.7748 71.8275 59.8117 71.8364C68.493 73.896 73.3141 70.9735 73.3601 70.939C73.4001 70.9151 73.4452 70.9011 73.4917 70.8981C73.5382 70.8951 73.5847 70.9032 73.6274 70.9217C73.6702 70.9403 73.7079 70.9688 73.7374 71.0048C73.767 71.0408 73.7875 71.0833 73.7974 71.1288C75.7476 81.1794 77.6519 82.1056 77.6691 82.1171C77.7311 82.1358 77.7841 82.1766 77.818 82.2318C77.8519 82.2869 77.8644 82.3525 77.8532 82.4163L75.8339 102.005C75.7649 102.235 74.4302 106.51 68.0788 107.338C67.6518 107.397 67.2212 107.426 66.7902 107.425ZM60.5308 102.489C60.7207 103.064 62.3488 107.505 68.0098 106.769C73.9699 105.986 75.2184 102.057 75.2701 101.89L77.2664 82.5371C76.6566 82.0999 74.9997 80.1553 73.3083 71.6063C72.0369 72.2564 67.469 74.1492 59.9671 72.4405C59.6334 74.0916 58.011 82.4163 58.0858 86.662C58.0773 87.9079 58.3801 89.1362 58.9668 90.2354C59.5536 91.3345 60.4056 92.2697 61.4456 92.9559C61.4847 92.981 61.5213 93.0099 61.5549 93.0421C61.5859 93.0724 61.6093 93.1095 61.6233 93.1505C61.6373 93.1915 61.6414 93.2351 61.6354 93.278L60.5308 102.489Z" fill="#231F20"/>
<path d="M75.1767 82.7153C75.6945 81.3058 76.9832 80.4544 78.3754 79.9999C78.8289 79.8274 79.3146 79.756 79.7985 79.7908C80.2825 79.8256 80.753 79.9657 81.1771 80.2012C81.698 80.5858 82.0927 81.1166 82.311 81.7262C82.5292 82.3358 82.5611 82.9965 82.4025 83.6243C82.2141 84.5782 81.7739 85.4643 81.1274 86.1907C80.481 86.917 79.6519 87.4572 78.7263 87.755C77.4748 88.0908 76.1413 87.9192 75.0156 87.2775" fill="white"/>
<path d="M77.481 88.215C76.5763 88.214 75.6877 87.976 74.9036 87.5247C74.846 87.4828 74.806 87.421 74.7913 87.3514C74.7767 87.2817 74.7883 87.209 74.8241 87.1475C74.8599 87.0859 74.9173 87.0398 74.9851 87.0181C75.0529 86.9964 75.1264 87.0006 75.1913 87.0299C76.2482 87.6349 77.5019 87.7962 78.6776 87.4786C79.5485 87.19 80.327 86.6751 80.9336 85.9867C81.5401 85.2983 81.9528 84.4611 82.1294 83.5608C82.3481 82.531 82.0949 81.11 81.0364 80.4427C80.6464 80.2306 80.2152 80.1054 79.7723 80.0756C79.3294 80.0458 78.8853 80.1121 78.4705 80.2701C77.3889 80.6268 75.9852 81.3632 75.4559 82.8187C75.4431 82.8541 75.4234 82.8867 75.3978 82.9144C75.3722 82.942 75.3414 82.9643 75.3071 82.9799C75.2727 82.9954 75.2356 83.004 75.198 83.0049C75.1603 83.0059 75.1228 82.9993 75.0877 82.9855C75.016 82.9596 74.9576 82.9062 74.9252 82.8372C74.8928 82.7681 74.8892 82.689 74.9151 82.6173C75.5249 80.949 77.0898 80.1205 78.2922 79.7408C78.7866 79.554 79.316 79.4783 79.843 79.519C80.37 79.5598 80.8815 79.716 81.3413 79.9767C81.9115 80.3921 82.3448 80.9682 82.5857 81.6313C82.8265 82.2945 82.864 83.0144 82.6932 83.6989C82.4921 84.7041 82.0261 85.6373 81.3434 86.4019C80.6607 87.1666 79.786 87.735 78.8099 88.0482C78.3761 88.1616 77.9293 88.2177 77.481 88.215Z" fill="#231F20"/>
<path d="M66.428 77.5776C66.428 77.5776 62.5734 81.8579 63.212 82.7554C63.8506 83.6528 66.0368 83.4457 66.0368 83.4457" fill="white"/>
<path d="M65.3996 83.7966C64.6402 83.7966 63.4665 83.67 62.9775 82.9509C62.2872 81.9384 65.0141 78.7224 66.2165 77.382C66.2411 77.3514 66.2716 77.3262 66.3063 77.3078C66.3409 77.2895 66.3789 77.2784 66.418 77.2753C66.4571 77.2722 66.4964 77.2771 66.5335 77.2898C66.5706 77.3024 66.6048 77.3225 66.6339 77.3488C66.6629 77.3752 66.6863 77.4071 66.7026 77.4428C66.7188 77.4785 66.7276 77.5171 66.7284 77.5563C66.7292 77.5955 66.7219 77.6345 66.7071 77.6708C66.6923 77.7071 66.6702 77.74 66.6422 77.7674C64.6689 79.9593 63.1904 82.226 63.4493 82.623C63.8923 83.2673 65.4456 83.2501 66.0036 83.1983C66.0413 83.1926 66.0797 83.1948 66.1164 83.2047C66.1531 83.2146 66.1874 83.232 66.2171 83.2557C66.2469 83.2795 66.2713 83.3091 66.289 83.3428C66.3067 83.3765 66.3173 83.4135 66.3201 83.4514C66.3281 83.5269 66.3061 83.6025 66.2587 83.6618C66.2112 83.721 66.1423 83.7592 66.0669 83.7678C65.9749 83.7678 65.739 83.7966 65.3996 83.7966Z" fill="#231F20"/>
<path d="M66.1298 88.2149C63.1785 88.2149 60.4803 86 60.3768 85.9137C60.3476 85.8899 60.3235 85.8604 60.306 85.8271C60.2884 85.7937 60.2777 85.7572 60.2745 85.7197C60.2712 85.6821 60.2756 85.6443 60.2872 85.6085C60.2989 85.5726 60.3176 85.5395 60.3423 85.511C60.3906 85.4526 60.4599 85.4156 60.5353 85.4081C60.6107 85.4005 60.6861 85.4231 60.745 85.4707C60.7795 85.4707 64.1047 88.2322 67.1999 87.5476C68.7474 87.2082 69.9901 86.0576 70.9048 84.1303C70.9408 84.0671 70.9994 84.0198 71.0688 83.998C71.1382 83.9763 71.2132 83.9816 71.2789 84.013C71.3445 84.0443 71.3958 84.0994 71.4225 84.167C71.4492 84.2347 71.4492 84.31 71.4226 84.3777C70.4331 86.4718 69.0524 87.7317 67.3207 88.1114C66.9288 88.1898 66.5294 88.2245 66.1298 88.2149Z" fill="#231F20"/>
<path d="M60.5898 76.525C60.5898 76.525 60.7394 74.7301 62.3158 74.523C63.8921 74.3159 63.5642 76.525 63.5642 76.525" fill="white"/>
<path d="M63.5576 76.8127H63.5116C63.4371 76.8013 63.3701 76.7612 63.325 76.7009C63.2798 76.6407 63.26 76.5651 63.2699 76.4905C63.3708 75.9694 63.2723 75.4294 62.9938 74.9775C62.9073 74.9006 62.8037 74.8454 62.6917 74.8164C62.5797 74.7874 62.4624 74.7854 62.3495 74.8106C61.0263 74.9832 60.8824 76.4905 60.8767 76.5365C60.8738 76.5743 60.8634 76.6112 60.8462 76.645C60.829 76.6788 60.8053 76.7089 60.7764 76.7335C60.7475 76.7581 60.7141 76.7767 60.678 76.7883C60.6419 76.8 60.6038 76.8043 60.566 76.8012C60.4902 76.7939 60.4202 76.7574 60.3708 76.6994C60.3215 76.6414 60.2965 76.5665 60.3014 76.4905C60.3589 75.7886 60.8767 74.4137 62.2747 74.2238C62.4791 74.1801 62.6912 74.1877 62.892 74.2459C63.0927 74.3041 63.276 74.4112 63.4253 74.5575C64.0466 75.1903 63.8855 76.4157 63.8625 76.5538C63.8552 76.6281 63.8193 76.6966 63.7624 76.7449C63.7055 76.7932 63.6321 76.8175 63.5576 76.8127Z" fill="#231F20"/>
<path d="M68.1445 76.9796C68.1445 76.9796 68.2941 75.1847 69.8704 74.9776C71.4468 74.7705 71.1131 76.9796 71.1131 76.9796" fill="white"/>
<path d="M71.1128 77.2671H71.0726C71.0348 77.2622 70.9985 77.2497 70.9657 77.2304C70.9329 77.2111 70.9043 77.1854 70.8817 77.1547C70.8591 77.1241 70.843 77.0892 70.8343 77.0521C70.8256 77.0151 70.8244 76.9766 70.831 76.9391C70.9269 76.4191 70.8265 75.882 70.549 75.4319C70.4633 75.3538 70.3598 75.2978 70.2475 75.2687C70.1353 75.2396 70.0176 75.2384 69.9047 75.265C68.5873 75.4376 68.4377 76.9392 68.4319 76.9909C68.4251 77.0672 68.3882 77.1377 68.3294 77.1867C68.2706 77.2358 68.1947 77.2596 68.1184 77.2527C68.0421 77.2458 67.9717 77.2089 67.9226 77.1501C67.8735 77.0913 67.8498 77.0154 67.8566 76.9391C67.9142 76.2373 68.4032 74.8623 69.8299 74.6725C70.0349 74.6315 70.2467 74.641 70.4471 74.7001C70.6476 74.7593 70.8306 74.8662 70.9805 75.0119C71.5961 75.6447 71.435 76.8701 71.412 77.0082C71.4061 77.082 71.3714 77.1505 71.3155 77.1989C71.2595 77.2474 71.1867 77.2718 71.1128 77.2671Z" fill="#231F20"/>
<path d="M61.3704 93.2661C61.3704 93.2661 66.9624 95.2854 70.5753 93.7494C70.5753 93.7494 65.8923 101.061 60.5938 99.606L61.3704 93.2661Z" fill="#231F20"/>
<path d="M62.0286 100.09C61.5176 100.09 61.0088 100.022 60.5156 99.8882C60.4482 99.8694 60.3898 99.8273 60.3507 99.7692C60.3117 99.7112 60.2947 99.6412 60.3027 99.5717L61.0621 93.2434C61.0671 93.2004 61.0815 93.1589 61.1044 93.1221C61.1273 93.0853 61.158 93.054 61.1944 93.0305C61.2341 93.012 61.2773 93.0024 61.321 93.0024C61.3648 93.0024 61.408 93.012 61.4476 93.0305C61.4994 93.0305 66.982 94.9923 70.4568 93.5195C70.5139 93.4962 70.5768 93.4915 70.6367 93.5059C70.6966 93.5204 70.7504 93.5533 70.7905 93.6001C70.8265 93.6494 70.8459 93.7088 70.8459 93.7698C70.8459 93.8308 70.8265 93.8902 70.7905 93.9395C70.6352 94.1811 66.7922 100.09 62.0286 100.09ZM60.9068 99.3876C64.8764 100.274 68.5181 96.0451 69.8182 94.3135C66.7059 95.1534 62.7708 94.0316 61.5914 93.6519L60.9068 99.3876Z" fill="#231F20"/>
<path d="M39.0556 137.461C39.0178 137.46 38.9807 137.451 38.9464 137.435C38.912 137.419 38.8812 137.397 38.8555 137.369C38.8299 137.341 38.81 137.309 38.7969 137.273C38.7839 137.238 38.7779 137.2 38.7795 137.162C38.9981 131.254 38.9175 126.605 38.8428 122.106C38.791 118.891 38.7392 115.853 38.791 112.401C38.791 112.364 38.7985 112.326 38.813 112.292C38.8275 112.257 38.8488 112.226 38.8756 112.2C38.9024 112.173 38.9341 112.153 38.969 112.139C39.0039 112.125 39.0411 112.118 39.0786 112.119C39.1549 112.119 39.2281 112.15 39.282 112.203C39.336 112.257 39.3663 112.331 39.3663 112.407C39.3145 115.859 39.3663 118.885 39.4181 122.095C39.4928 126.6 39.5734 131.26 39.3548 137.185C39.3533 137.223 39.3444 137.26 39.3285 137.294C39.3127 137.329 39.2902 137.36 39.2625 137.385C39.2347 137.411 39.2021 137.431 39.1666 137.444C39.1311 137.457 39.0934 137.463 39.0556 137.461Z" fill="#231F20"/>
<path d="M106.199 75.8003C102.079 70.6762 97.966 65.5484 93.8583 60.4166C91.8141 57.87 89.7718 55.3175 87.7314 52.7594C86.9443 51.6428 86.0607 50.5974 85.0907 49.6355C84.199 48.8982 83.5588 47.9018 83.2588 46.7844C82.9588 45.6669 83.014 44.4839 83.4166 43.3992C83.8596 42.4811 84.1455 41.4951 84.2623 40.4824C84.3025 38.5609 82.801 36.8062 83.0369 34.9019C83.0458 34.7604 83.0914 34.6236 83.1692 34.505C83.4453 34.1368 84.0379 34.3554 84.3946 34.6488C85.0294 35.1715 85.5386 35.8301 85.8846 36.5761C87.9119 34.6263 89.6393 32.3871 91.0106 29.9313C91.281 29.4423 91.6837 28.867 92.236 28.9475C92.7883 29.0281 93.0299 29.7932 92.9666 30.3858C92.8113 31.7953 91.9426 33.0034 91.1717 34.1886C90.5503 35.1436 90.4123 41.9782 90.9646 42.5707C92.4949 44.2334 116.278 63.972 122.393 71.6178C130.407 81.6626 126.737 90.1426 122.393 91.2299C118.05 92.3172 106.199 75.8003 106.199 75.8003Z" fill="white"/>
<path d="M121.984 91.5636C117.227 91.5636 106.503 76.7151 105.968 75.9729C101.856 70.8527 97.745 65.7287 93.6335 60.6008C91.5892 58.0464 89.5469 55.4921 87.5065 52.9378C87.2936 52.6731 87.0865 52.4027 86.8794 52.1266C86.2958 51.3061 85.6329 50.5449 84.9003 49.8541C83.9663 49.076 83.2962 48.0278 82.982 46.8534C82.6678 45.6791 82.725 44.4362 83.1457 43.2957L83.3355 42.8239C83.6824 42.0843 83.8984 41.2901 83.9741 40.4767C83.9319 39.6002 83.725 38.7395 83.3643 37.9396C82.9126 36.9808 82.7013 35.9263 82.7487 34.8675C82.764 34.6756 82.8295 34.4911 82.9386 34.3324C83.0009 34.2477 83.0801 34.1769 83.1712 34.1244C83.2623 34.0719 83.3633 34.0389 83.4678 34.0275C83.8751 34.013 84.2724 34.1551 84.5782 34.4245C85.1425 34.8894 85.6131 35.4575 85.9647 36.0986C87.8518 34.2251 89.4651 32.0946 90.7569 29.7703C90.9468 29.4251 91.4588 28.5219 92.2815 28.6197C93.1042 28.7175 93.3343 29.6034 93.2538 30.3456C93.1042 31.6975 92.3505 32.8424 91.6199 33.9527L91.407 34.2807C90.8317 35.1954 90.7857 41.7596 91.1769 42.3349C91.5681 42.9102 93.6737 44.5843 96.5675 47.0927C104.622 54.0941 118.164 65.813 122.617 71.3935C128.6 78.8724 127.571 84.6715 126.846 86.8059C126.023 89.2394 124.383 90.9826 122.462 91.4601C122.308 91.5157 122.147 91.5505 121.984 91.5636ZM83.5829 34.6086H83.5369C83.5097 34.6097 83.4831 34.617 83.4592 34.63C83.4352 34.6429 83.4146 34.6612 83.3988 34.6834C83.3537 34.7625 83.3281 34.8513 83.324 34.9423C83.286 35.909 83.4834 36.8705 83.8993 37.744C84.2866 38.6118 84.5071 39.5446 84.5494 40.4939C84.4768 41.3778 84.2449 42.2412 83.8648 43.0425L83.6865 43.5085C83.3071 44.538 83.2567 45.6598 83.5421 46.7192C83.8276 47.7785 84.4348 48.7232 85.2801 49.4226C86.0413 50.1387 86.7293 50.9289 87.3339 51.7814L87.9552 52.5868C89.9918 55.1412 92.0341 57.6936 94.0822 60.2441C98.1899 65.3758 102.303 70.5018 106.422 75.622C109.569 80.0115 118.262 90.9826 121.956 90.9826C122.084 90.985 122.212 90.9695 122.335 90.9366C124.061 90.5108 125.563 88.8712 126.311 86.6563C127.007 84.6082 127.985 79.068 122.18 71.7905C117.762 66.2503 103.736 54.0941 96.1993 47.5644C93.1847 44.9468 91.1942 43.2209 90.7627 42.7549C90.1299 42.0703 90.2679 35.0516 90.941 34.0218L91.1539 33.6996C91.8443 32.641 92.5576 31.5537 92.69 30.3398C92.736 29.9256 92.6152 29.2813 92.2067 29.2237C91.9133 29.1835 91.6314 29.4423 91.2747 30.0637C89.8894 32.543 88.1446 34.8036 86.097 36.7717C86.0633 36.8027 86.023 36.8256 85.9791 36.8385C85.9352 36.8515 85.8889 36.8542 85.8438 36.8465C85.7985 36.8394 85.7557 36.821 85.7194 36.7928C85.6832 36.7646 85.6547 36.7276 85.6367 36.6854C85.3082 35.9788 84.8245 35.3554 84.2215 34.8617C84.0422 34.7078 83.8185 34.6151 83.5829 34.5971V34.6086Z" fill="#231F20"/>
<path d="M36.2347 75.7999C40.3539 70.6759 44.4673 65.548 48.5749 60.4163C50.623 57.8696 52.6654 55.3172 54.7019 52.759C55.489 51.6424 56.3726 50.5971 57.3426 49.6351C59.1433 48.0588 59.5978 46.005 59.1203 43.6002C58.7866 41.9203 57.9697 40.1484 58.5852 38.5778C58.8844 37.8414 59.4654 37.2488 59.7358 36.5067C60.0062 35.7646 59.7358 34.7117 58.9822 34.5622C58.7145 34.5467 58.4477 34.6038 58.2097 34.7273C57.9718 34.8508 57.7716 35.0362 57.6302 35.264C57.2908 35.7185 57.0549 36.4146 56.5256 36.616C54.8688 33.7395 53.8102 30.7191 52.4122 27.7218C52.262 27.3436 52.0347 27.0007 51.7449 26.715C51.5974 26.5671 51.4103 26.465 51.2062 26.4211C51.002 26.3772 50.7895 26.3934 50.5943 26.4676C50.4158 26.5642 50.2676 26.7084 50.1661 26.8841C50.0645 27.0597 50.0136 27.2601 50.019 27.4629C50.0289 27.8686 50.1087 28.2695 50.2548 28.648C50.8965 30.9048 51.4188 33.1939 51.8196 35.5057C52.1303 36.9554 53.0623 38.8597 51.8196 40.1886C50.2836 41.8513 25.5455 63.5632 20.0054 71.6175C13.1017 81.6623 15.6618 90.1423 20.0054 91.2296C24.3489 92.3169 36.2347 75.7999 36.2347 75.7999Z" fill="white"/>
<path d="M20.4505 91.5633C20.2895 91.565 20.1289 91.5457 19.973 91.5057C18.3218 91.0973 16.9354 89.6878 16.1645 87.6454C14.5018 83.2386 15.8595 77.1864 19.8061 71.4564C24.1036 65.2086 39.9072 50.7742 47.5012 43.8418C49.7047 41.8283 51.304 40.39 51.6434 39.9988C52.5179 39.0495 52.1554 37.7551 51.7988 36.501C51.7125 36.1788 51.6204 35.8624 51.5571 35.569C51.4306 34.9534 51.3097 34.3436 51.1889 33.728C50.8932 32.0452 50.4974 30.3816 50.0038 28.7459C49.8425 28.3349 49.7548 27.8986 49.7449 27.4572C49.7452 27.1988 49.8168 26.9456 49.9518 26.7253C50.0868 26.505 50.28 26.3263 50.5101 26.2088C50.7512 26.1171 51.0135 26.096 51.2661 26.1479C51.5188 26.1999 51.7515 26.3228 51.9368 26.5022C52.2554 26.816 52.5061 27.192 52.6732 27.6068C53.1565 28.6423 53.6052 29.7009 54.0424 30.7249C54.8032 32.5999 55.6655 34.4321 56.6256 36.2133C56.8134 36.0205 56.9723 35.8016 57.0973 35.5632C57.1951 35.4021 57.2987 35.2353 57.4022 35.0972C57.5735 34.8161 57.8215 34.5899 58.1171 34.4451C58.4127 34.3004 58.7436 34.2432 59.0706 34.2803C59.2501 34.3171 59.4194 34.3929 59.5665 34.5022C59.7136 34.6116 59.835 34.7518 59.922 34.9131C60.0577 35.1716 60.138 35.4555 60.1578 35.7467C60.1777 36.0379 60.1365 36.3301 60.0371 36.6045C59.8758 37.0111 59.6673 37.3973 59.4158 37.7551C59.2089 38.0515 59.0316 38.3675 58.8865 38.6986C58.4435 39.7917 58.7657 40.9998 59.1109 42.2482C59.2259 42.674 59.3467 43.1169 59.433 43.5542C59.9623 46.2293 59.3525 48.2947 57.5633 49.8825C56.8323 50.5748 56.1696 51.3358 55.5843 52.155C55.3771 52.4311 55.17 52.7303 54.9572 52.9661C52.9206 55.5205 50.8783 58.0748 48.8302 60.6292C44.7225 65.7571 40.611 70.8811 36.4957 76.0013C35.9319 76.7147 25.2082 91.5633 20.4505 91.5633ZM50.9416 26.6863C50.8648 26.6846 50.7885 26.6983 50.7172 26.7265C50.5884 26.8042 50.4821 26.914 50.4085 27.045C50.3348 27.1761 50.2965 27.3241 50.2972 27.4744C50.3089 27.8353 50.3829 28.1915 50.5158 28.5272C51.0211 30.1969 51.4264 31.8951 51.7297 33.6129C51.8505 34.2227 51.9714 34.8326 52.0979 35.4424C52.1612 35.73 52.2417 36.0177 52.3338 36.3399C52.6905 37.6113 53.1335 39.2164 52.0404 40.367C51.6837 40.7582 50.1649 42.1447 47.8637 44.2445C40.2869 51.1482 24.5179 65.571 20.2491 71.7671C16.4118 77.3418 15.0714 83.1983 16.6765 87.4268C17.3783 89.2851 18.621 90.568 20.0823 90.9304C23.4938 91.7876 32.7102 80.1665 35.9722 75.6158C40.0913 70.4956 44.2048 65.3697 48.3124 60.238C50.3528 57.6913 52.3952 55.1389 54.4394 52.5807L55.0607 51.7753C55.667 50.9241 56.3549 50.1341 57.1146 49.4165C58.7369 48.0013 59.2892 46.1143 58.8002 43.6635C58.7197 43.2493 58.5988 42.8178 58.4838 42.3978C58.1328 41.0976 57.7704 39.7572 58.2824 38.48C58.4421 38.1161 58.6347 37.7676 58.8577 37.4387C59.0901 37.1239 59.2833 36.7819 59.433 36.4204C59.5044 36.2247 59.5346 36.0164 59.5217 35.8085C59.5089 35.6006 59.4532 35.3977 59.3582 35.2123C59.3131 35.1227 59.2483 35.0446 59.1685 34.9838C59.0888 34.923 58.9963 34.8811 58.898 34.8613C58.6851 34.8565 58.4746 34.907 58.2871 35.0078C58.0995 35.1086 57.9413 35.2564 57.8279 35.4366C57.7299 35.5714 57.6396 35.7116 57.5575 35.8566C57.3514 36.2857 57.0206 36.6426 56.6083 36.8807C56.5436 36.9084 56.4709 36.9114 56.4041 36.8891C56.3373 36.8668 56.281 36.8208 56.2459 36.7598C55.2073 34.8785 54.2833 32.9362 53.4786 30.9435C53.0472 29.9252 52.5984 28.8724 52.1152 27.8426C51.989 27.5011 51.793 27.1896 51.5399 26.9279C51.3818 26.7832 51.1785 26.6979 50.9646 26.6863H50.9416Z" fill="#231F20"/>
<path d="M9.39273 54.5943C9.33805 54.5946 9.28446 54.579 9.23849 54.5494C9.19252 54.5198 9.15616 54.4774 9.13384 54.4275C9.11735 54.3932 9.10784 54.3559 9.10586 54.3179C9.10388 54.2798 9.10947 54.2418 9.12232 54.2059C9.13516 54.17 9.155 54.1371 9.18068 54.109C9.20636 54.0808 9.23738 54.0581 9.27192 54.042L38.9346 40.2923C39.0033 40.2608 39.0817 40.2576 39.1527 40.2834C39.2238 40.3093 39.2818 40.3621 39.3143 40.4304C39.3307 40.4643 39.3401 40.5011 39.342 40.5387C39.3439 40.5763 39.3383 40.614 39.3254 40.6493C39.3125 40.6847 39.2927 40.7172 39.2671 40.7448C39.2414 40.7724 39.2105 40.7946 39.1762 40.8101L9.51355 54.5656C9.47562 54.5832 9.43453 54.593 9.39273 54.5943Z" fill="#D1D3D4"/>
<path d="M39.0668 26.2494H39.0323L1.63758 22.0785C1.56218 22.0698 1.49326 22.0317 1.44584 21.9724C1.39843 21.9131 1.37636 21.8375 1.38445 21.762C1.3872 21.7241 1.39776 21.6871 1.41547 21.6535C1.43318 21.6198 1.45766 21.5901 1.48737 21.5664C1.51707 21.5426 1.55138 21.5252 1.58812 21.5153C1.62485 21.5055 1.66324 21.5033 1.70087 21.5089L39.0956 25.6741C39.1335 25.6784 39.1701 25.6901 39.2034 25.7087C39.2367 25.7273 39.266 25.7523 39.2896 25.7822C39.3131 25.8122 39.3305 25.8466 39.3406 25.8833C39.3508 25.9201 39.3535 25.9585 39.3487 25.9963C39.3416 26.066 39.3088 26.1305 39.2566 26.1773C39.2045 26.2241 39.1369 26.2498 39.0668 26.2494Z" fill="#D1D3D4"/>
<path d="M47.1104 9.93925C47.0684 9.93938 47.027 9.92952 46.9895 9.91048L28.3727 0.671106C28.3387 0.654538 28.3082 0.631414 28.2831 0.603056C28.2581 0.574698 28.2388 0.541665 28.2265 0.505855C28.2142 0.470044 28.2091 0.432158 28.2115 0.394371C28.2139 0.356583 28.2237 0.319639 28.2404 0.285654C28.276 0.218973 28.3359 0.168593 28.4077 0.145015C28.4795 0.121436 28.5577 0.126477 28.6258 0.159087L47.2427 9.39271C47.3104 9.42719 47.3618 9.4871 47.3855 9.55932C47.4092 9.63155 47.4034 9.71023 47.3692 9.77816C47.345 9.82616 47.308 9.86657 47.2624 9.89498C47.2167 9.92338 47.1641 9.9387 47.1104 9.93925Z" fill="#D1D3D4"/>
<path d="M130.61 54.5944C130.57 54.6023 130.529 54.6023 130.489 54.5944L100.815 40.8389C100.78 40.8234 100.749 40.8012 100.724 40.7736C100.698 40.746 100.678 40.7136 100.665 40.6782C100.653 40.6428 100.647 40.6051 100.649 40.5675C100.651 40.5299 100.66 40.4931 100.677 40.4592C100.709 40.3909 100.767 40.3381 100.838 40.3122C100.909 40.2864 100.987 40.2896 101.056 40.3211L130.73 54.0708C130.765 54.0869 130.796 54.1096 130.822 54.1378C130.847 54.1659 130.867 54.1989 130.88 54.2347C130.893 54.2706 130.898 54.3086 130.896 54.3467C130.894 54.3847 130.885 54.422 130.868 54.4563C130.842 54.5009 130.804 54.5373 130.758 54.5617C130.713 54.586 130.661 54.5973 130.61 54.5944Z" fill="#D1D3D4"/>
<path d="M100.936 24.1668C100.865 24.167 100.797 24.1405 100.744 24.0925C100.692 24.0445 100.66 23.9786 100.654 23.9079C100.646 23.8324 100.668 23.7568 100.715 23.6975C100.763 23.6383 100.832 23.6001 100.907 23.5915L138.302 19.4205C138.34 19.4165 138.378 19.4201 138.414 19.431C138.451 19.4419 138.485 19.4599 138.514 19.484C138.543 19.508 138.568 19.5377 138.586 19.5713C138.604 19.6048 138.615 19.6416 138.618 19.6794C138.626 19.7549 138.604 19.8305 138.557 19.8898C138.509 19.949 138.441 19.9871 138.365 19.9958L100.97 24.161L100.936 24.1668Z" fill="#D1D3D4"/>
<path d="M97.3743 11.7919C97.3207 11.7907 97.2683 11.7752 97.2228 11.7468C97.1772 11.7185 97.1401 11.6784 97.1154 11.6308C97.0987 11.5968 97.0889 11.5599 97.0865 11.5221C97.0841 11.4843 97.0892 11.4464 97.1015 11.4106C97.1138 11.3748 97.1331 11.3418 97.1581 11.3134C97.1832 11.2851 97.2137 11.2619 97.2477 11.2454L115.859 2.04051C115.893 2.02389 115.93 2.01413 115.967 2.01178C116.005 2.00944 116.043 2.01455 116.079 2.02684C116.115 2.03913 116.148 2.05835 116.176 2.08339C116.204 2.10844 116.228 2.13883 116.244 2.17283C116.261 2.20683 116.271 2.24377 116.273 2.28154C116.275 2.31931 116.27 2.35717 116.258 2.39296C116.246 2.42876 116.226 2.46178 116.201 2.49014C116.176 2.51851 116.146 2.54167 116.112 2.55829L97.5008 11.7631C97.4617 11.7831 97.4182 11.793 97.3743 11.7919Z" fill="#D1D3D4"/>
<path d="M20.3597 33.9121L21.332 35.8854L23.5066 36.2018L21.9303 37.7379L22.3042 39.901L20.3597 38.8827L18.4094 39.901L18.7834 37.7379L17.207 36.2018L19.3874 35.8854L20.3597 33.9121Z" fill="#ED2D24"/>
<path d="M122.59 59.8525L122.936 61.1642L124.218 61.6245L123.074 62.3609L123.039 63.7186L121.981 62.8614L120.68 63.2468L121.169 61.9754L120.398 60.8536L121.756 60.9284L122.59 59.8525Z" fill="#D1D3D4"/>
<path d="M18.4058 8.0293L19.9821 11.2222L23.503 11.7343L20.9544 14.2196L21.5584 17.7232L18.4058 16.0663L15.2531 17.7232L15.8572 14.2196L13.3086 11.7343L16.8295 11.2222L18.4058 8.0293Z" fill="#D1D3D4"/>
<path d="M115.772 9.88184L116.744 11.8551L118.925 12.1715L117.348 13.7076L117.716 15.8707L115.772 14.8525L113.827 15.8707L114.196 13.7076L112.625 12.1715L114.8 11.8551L115.772 9.88184Z" fill="#D1D3D4"/>
<path d="M6.70718 61.855L9.48015 64.8753L13.5303 64.3L11.5225 67.8669L13.3174 71.5489L9.30755 70.7377L6.362 73.5854L5.89025 69.5123L2.27734 67.5965L5.99956 65.8936L6.70718 61.855Z" fill="#D1D3D4"/>
<path d="M120.525 99.313L121.077 101.781L123.425 102.73L121.25 104.019L121.077 106.545L119.179 104.87L116.722 105.486L117.723 103.162L116.383 101.022L118.903 101.258L120.525 99.313Z" fill="#ED2D24"/>
<path d="M51.762 0.107422L52.7343 2.08071L54.9089 2.39713L53.3384 3.93319L53.7066 6.10209L51.762 5.07804L49.8118 6.10209L50.1857 3.93319L48.6094 2.39713L50.7898 2.08071L51.762 0.107422Z" fill="#6F93B3"/>
<path d="M124.609 28.418L125.086 33.8949L129.867 36.6103L124.804 38.7562L123.705 44.1468L120.098 39.9931L114.633 40.6087L117.469 35.8969L115.191 30.8918L120.553 32.1287L124.609 28.418Z" fill="#6F93B3"/>
<path d="M95.3155 137.461H95.281C95.2056 137.451 95.1371 137.412 95.0908 137.351C95.0444 137.291 95.0238 137.215 95.0336 137.139L99.1701 105.653C99.1743 105.615 99.1861 105.579 99.2047 105.546C99.2234 105.513 99.2485 105.484 99.2785 105.461C99.3086 105.438 99.3431 105.421 99.3798 105.411C99.4165 105.402 99.4547 105.4 99.4922 105.405C99.5677 105.416 99.6361 105.455 99.6825 105.515C99.7289 105.576 99.7494 105.652 99.7396 105.728L95.6032 137.208C95.5947 137.278 95.5607 137.343 95.5077 137.39C95.4546 137.436 95.3862 137.462 95.3155 137.461Z" fill="#231F20"/>
</svg>
