<svg width="31" height="35" viewBox="0 0 31 35" fill="none" xmlns="http://www.w3.org/2000/svg">
<g id="alt_route">
<path id="alt_route_2" d="M13.7494 32.6967V25.6967C13.7494 24.0633 13.5015 22.8529 13.0057 22.0654C12.5098 21.2779 11.8536 20.505 11.0369 19.7467L13.5307 17.2529C13.8807 17.5738 14.2161 17.9165 14.5369 18.2811C14.8577 18.6456 15.1786 19.0321 15.4994 19.4404C15.9077 18.8863 16.3234 18.3977 16.7463 17.9748C17.1692 17.5519 17.5994 17.1363 18.0369 16.7279C19.1452 15.7071 20.1515 14.5258 21.0557 13.1842C21.9598 11.8425 22.4411 9.4946 22.4994 6.14043L20.9682 7.67168C20.6473 7.99251 20.2463 8.15293 19.765 8.15293C19.2838 8.15293 18.8682 7.99251 18.5182 7.67168C18.1682 7.32168 17.9932 6.90605 17.9932 6.4248C17.9932 5.94355 18.1682 5.52793 18.5182 5.17793L23.0244 0.67168C23.1994 0.49668 23.389 0.372721 23.5932 0.299805C23.7973 0.226888 24.0161 0.19043 24.2494 0.19043C24.4827 0.19043 24.7015 0.226888 24.9057 0.299805C25.1098 0.372721 25.2994 0.49668 25.4744 0.67168L30.0244 5.22168C30.3452 5.54251 30.513 5.94355 30.5275 6.4248C30.5421 6.90605 30.3744 7.32168 30.0244 7.67168C29.7036 7.99251 29.2952 8.15293 28.7994 8.15293C28.3036 8.15293 27.8952 7.99251 27.5744 7.67168L25.9994 6.14043C25.9411 10.3113 25.2994 13.279 24.0744 15.0436C22.8494 16.8081 21.6244 18.2446 20.3994 19.3529C19.4661 20.1988 18.7077 21.0227 18.1244 21.8248C17.5411 22.6269 17.2494 23.9175 17.2494 25.6967V32.6967C17.2494 33.1925 17.0817 33.6081 16.7463 33.9436C16.4109 34.279 15.9952 34.4467 15.4994 34.4467C15.0036 34.4467 14.588 34.279 14.2525 33.9436C13.9171 33.6081 13.7494 33.1925 13.7494 32.6967ZM5.34941 10.2529C5.23275 9.6696 5.15254 9.02793 5.10879 8.32793C5.06504 7.62793 5.02858 6.89876 4.99941 6.14043L3.42441 7.71543C3.10358 8.03626 2.70254 8.19668 2.22129 8.19668C1.74004 8.19668 1.32441 8.02168 0.974414 7.67168C0.653581 7.35085 0.493164 6.94251 0.493164 6.44668C0.493164 5.95085 0.653581 5.54251 0.974414 5.22168L5.52441 0.67168C5.69941 0.49668 5.889 0.372721 6.09316 0.299805C6.29733 0.226888 6.51608 0.19043 6.74941 0.19043C6.98275 0.19043 7.2015 0.226888 7.40566 0.299805C7.60983 0.372721 7.79941 0.49668 7.97441 0.67168L12.5244 5.22168C12.8744 5.57168 13.0421 5.98001 13.0275 6.44668C13.013 6.91335 12.8307 7.32168 12.4807 7.67168C12.1307 7.99251 11.7223 8.15293 11.2557 8.15293C10.789 8.15293 10.3807 7.99251 10.0307 7.67168L8.49941 6.18418C8.49941 6.79668 8.52858 7.37272 8.58691 7.9123C8.64525 8.45189 8.70358 8.95501 8.76191 9.42168L5.34941 10.2529ZM9.11191 17.9529C8.52858 17.3404 7.96712 16.6258 7.42754 15.8092C6.88796 14.9925 6.414 13.9863 6.00566 12.7904L9.37441 11.9592C9.66608 12.7467 10.0015 13.4175 10.3807 13.9717C10.7598 14.5258 11.1682 15.0217 11.6057 15.4592L9.11191 17.9529Z" fill="#004680"/>
</g>
</svg>
