<svg width="49" height="49" viewBox="0 0 49 49" fill="none" xmlns="http://www.w3.org/2000/svg">
<g id="atom-variant">
<path id="Vector" d="M37.554 5.72727C40.834 5.72727 43.554 8.44727 43.554 11.7273C43.554 15.0273 40.834 17.7273 37.554 17.7273C34.254 17.7273 31.554 15.0273 31.554 11.7273C31.554 11.1273 31.654 10.5673 31.834 10.0473C29.694 9.02727 27.334 8.44727 24.834 8.44727C20.5905 8.44727 16.5209 10.133 13.5203 13.1336C10.5197 16.1341 8.83398 20.2038 8.83398 24.4473L8.91398 26.1273L4.93398 26.5473L4.83398 24.4473C4.83398 19.1429 6.94112 14.0559 10.6918 10.3051C14.4426 6.5544 19.5297 4.44727 24.834 4.44727C28.214 4.44727 31.394 5.28727 34.174 6.76727C35.154 6.10727 36.314 5.72727 37.554 5.72727ZM37.554 9.72727C37.0236 9.72727 36.5148 9.93798 36.1398 10.3131C35.7647 10.6881 35.554 11.1968 35.554 11.7273C35.554 12.2577 35.7647 12.7664 36.1398 13.1415C36.5148 13.5166 37.0236 13.7273 37.554 13.7273C38.674 13.7273 39.554 12.8273 39.554 11.7273C39.554 10.6073 38.674 9.72727 37.554 9.72727ZM12.114 31.1673C15.414 31.1673 18.114 33.8673 18.114 37.1673C18.114 37.7673 18.014 38.3273 17.834 38.8473C19.974 39.8673 22.334 40.4473 24.834 40.4473C29.0774 40.4473 33.1471 38.7616 36.1477 35.761C39.1483 32.7604 40.834 28.6907 40.834 24.4473L40.754 22.7673L44.734 22.3473L44.834 24.4473C44.834 29.7516 42.7268 34.8387 38.9761 38.5894C35.2254 42.3401 30.1383 44.4473 24.834 44.4473C21.454 44.4473 18.274 43.6073 15.494 42.1273C14.514 42.7873 13.354 43.1673 12.114 43.1673C8.83398 43.1673 6.11398 40.4473 6.11398 37.1673C6.11398 33.8673 8.83398 31.1673 12.114 31.1673ZM12.114 35.1673C10.994 35.1673 10.114 36.0673 10.114 37.1673C10.114 38.2873 10.994 39.1673 12.114 39.1673C12.6444 39.1673 13.1531 38.9566 13.5282 38.5815C13.9033 38.2064 14.114 37.6977 14.114 37.1673C14.114 36.6368 13.9033 36.1281 13.5282 35.7531C13.1531 35.378 12.6444 35.1673 12.114 35.1673ZM24.834 16.4473C26.9557 16.4473 28.9905 17.2901 30.4908 18.7904C31.9911 20.2907 32.834 22.3255 32.834 24.4473C32.834 26.569 31.9911 28.6038 30.4908 30.1041C28.9905 31.6044 26.9557 32.4473 24.834 32.4473C22.7123 32.4473 20.6774 31.6044 19.1771 30.1041C17.6768 28.6038 16.834 26.569 16.834 24.4473C16.834 22.3255 17.6768 20.2907 19.1771 18.7904C20.6774 17.2901 22.7123 16.4473 24.834 16.4473Z" fill="#004680"/>
</g>
</svg>
