<?xml version="1.0" encoding="UTF-8" standalone="no"?>
<svg
   height="24"
   viewBox="0 -960 960 960"
   width="24"
   version="1.1"
   id="svg4"
   sodipodi:docname="cloud_sync-icon.svg"
   inkscape:version="1.2.2 (b0a84865, 2022-12-01)"
   xmlns:inkscape="http://www.inkscape.org/namespaces/inkscape"
   xmlns:sodipodi="http://sodipodi.sourceforge.net/DTD/sodipodi-0.dtd"
   xmlns="http://www.w3.org/2000/svg"
   xmlns:svg="http://www.w3.org/2000/svg">
  <defs
     id="defs8" />
  <sodipodi:namedview
     id="namedview6"
     pagecolor="#ffffff"
     bordercolor="#000000"
     borderopacity="0.25"
     inkscape:showpageshadow="2"
     inkscape:pageopacity="0.0"
     inkscape:pagecheckerboard="0"
     inkscape:deskcolor="#d1d1d1"
     showgrid="false"
     inkscape:zoom="9.8333333"
     inkscape:cx="-5.0847458"
     inkscape:cy="5.9491525"
     inkscape:window-width="2560"
     inkscape:window-height="1387"
     inkscape:window-x="0"
     inkscape:window-y="25"
     inkscape:window-maximized="1"
     inkscape:current-layer="svg4" />
  <path
     fill="#004680"
     d="m 160,-480 q 0,54 21.5,99.5 21.5,45.5 58.5,78.5 v -58 q 0,-17 11.5,-28.5 11.5,-11.5 28.5,-11.5 17,0 28.5,11.5 11.5,11.5 11.5,28.5 v 160 q 0,17 -11.5,28.5 Q 297,-160 280,-160 H 120 q -17,0 -28.500002,-11.5 -11.499996,-11.5 -11.499996,-28.5 0,-17 11.499996,-28.5 Q 103,-240 120,-240 h 69 q -51,-44 -80,-106 -28.999998,-62 -28.999998,-134 0,-95 49.499998,-171 49.5,-76 128.5,-116 14,-8 29,-0.5 15,7.5 20,23.5 5,16 -1.5,31 -6.5,15 -20.5,23 -56,31 -90.5,86.5 Q 160,-548 160,-480 Z m 360,320 q -50,0 -85,-35 -35,-35 -35,-85 0,-48 33,-82.5 33,-34.5 81,-36.5 17,-36 50.5,-58.5 33.5,-22.5 75.5,-22.5 53,0 91.5,34.5 38.5,34.5 46.5,85.5 42,0 72,29 30,29 30,70 0,42 -29,71.5 -29,29.5 -71,29.5 z m 116,-360 q -7,-41 -27,-76 -20,-35 -49,-62 v 58 q 0,17 -11.5,28.5 Q 537,-560 520,-560 503,-560 491.5,-571.5 480,-583 480,-600 v -160 q 0,-17 11.5,-28.5 Q 503,-800 520,-800 h 160 q 17,0 28.5,11.5 11.5,11.5 11.5,28.5 0,17 -11.5,28.5 Q 697,-720 680,-720 h -69 q 43,38 70.5,89 27.5,51 35.5,111 z"
     id="path2" />
</svg>
