<svg xmlns="http://www.w3.org/2000/svg" width="48" height="48" viewBox="0 0 48 48" fill="none">
  <mask id="mask0_1090_30844" style="mask-type:alpha" maskUnits="userSpaceOnUse" x="0" y="0" width="48" height="48">
    <rect width="48" height="48" fill="#D9D9D9"/>
  </mask>
  <g mask="url(#mask0_1090_30844)">
    <path d="M12 44C10.3333 44 8.91667 43.4167 7.75 42.25C6.58333 41.0833 6 39.6667 6 38V36C6 34.9 6.39167 33.9583 7.175 33.175C7.95833 32.3917 8.9 32 10 32H12V8C12 6.9 12.3917 5.95833 13.175 5.175C13.9583 4.39167 14.9 4 16 4H38C39.1 4 40.0417 4.39167 40.825 5.175C41.6083 5.95833 42 6.9 42 8V22.2C41.3333 22.0333 40.6583 21.9833 39.975 22.05C39.2917 22.1167 38.6333 22.2833 38 22.55V8H16V32H28L24 36H10V38C10 38.5667 10.1917 39.0417 10.575 39.425C10.9583 39.8083 11.4333 40 12 40H24V44H12ZM31 41H33.1L40.85 33.3L42.95 35.4L34.95 43.4C34.75 43.6 34.525 43.75 34.275 43.85C34.025 43.95 33.7667 44 33.5 44H30C29.4333 44 28.9583 43.8083 28.575 43.425C28.1917 43.0417 28 42.5667 28 42V38.5C28 38.2333 28.05 37.975 28.15 37.725C28.25 37.475 28.4 37.25 28.6 37.05L36.6 29.05L38.75 31.2L31 38.9V41ZM42.95 35.4L36.6 29.05L39.1 26.55C39.4667 26.1833 39.9333 26 40.5 26C41.0667 26 41.5333 26.1833 41.9 26.55L45.45 30.1C45.8167 30.4667 46 30.9333 46 31.5C46 32.0667 45.8167 32.5333 45.45 32.9L42.95 35.4ZM20 18C19.4333 18 18.9583 17.8083 18.575 17.425C18.1917 17.0417 18 16.5667 18 16C18 15.4333 18.1917 14.9583 18.575 14.575C18.9583 14.1917 19.4333 14 20 14H34C34.5667 14 35.0417 14.1917 35.425 14.575C35.8083 14.9583 36 15.4333 36 16C36 16.5667 35.8083 17.0417 35.425 17.425C35.0417 17.8083 34.5667 18 34 18H20ZM20 24C19.4333 24 18.9583 23.8083 18.575 23.425C18.1917 23.0417 18 22.5667 18 22C18 21.4333 18.1917 20.9583 18.575 20.575C18.9583 20.1917 19.4333 20 20 20H34C34.5667 20 35.0417 20.1917 35.425 20.575C35.8083 20.9583 36 21.4333 36 22C36 22.5667 35.8083 23.0417 35.425 23.425C35.0417 23.8083 34.5667 24 34 24H20Z" fill="white" fill-opacity="0.87"/>
  </g>
</svg>
