<svg xmlns="http://www.w3.org/2000/svg" width="49" height="48" viewBox="0 0 49 48" fill="none">
  <mask id="mask0_1090_30837" style="mask-type:alpha" maskUnits="userSpaceOnUse" x="0" y="0" width="49" height="48">
    <rect x="0.75" width="48" height="48" fill="#D9D9D9"/>
  </mask>
  <g mask="url(#mask0_1090_30837)">
    <path d="M4.75 40C4.18333 40 3.70833 39.8083 3.325 39.425C2.94167 39.0417 2.75 38.5667 2.75 38V32C2.75 30.9 3.14167 29.9583 3.925 29.175C4.70833 28.3917 5.65 28 6.75 28H13.3C13.9667 28 14.6 28.1667 15.2 28.5C15.8 28.8333 16.2833 29.2833 16.65 29.85C17.6167 31.15 18.8083 32.1667 20.225 32.9C21.6417 33.6333 23.15 34 24.75 34C26.3833 34 27.9083 33.6333 29.325 32.9C30.7417 32.1667 31.9167 31.15 32.85 29.85C33.2833 29.2833 33.7917 28.8333 34.375 28.5C34.9583 28.1667 35.5667 28 36.2 28H42.75C43.85 28 44.7917 28.3917 45.575 29.175C46.3583 29.9583 46.75 30.9 46.75 32V38C46.75 38.5667 46.5583 39.0417 46.175 39.425C45.7917 39.8083 45.3167 40 44.75 40H34.75C34.1833 40 33.7083 39.8083 33.325 39.425C32.9417 39.0417 32.75 38.5667 32.75 38V35.45C31.5833 36.2833 30.325 36.9167 28.975 37.35C27.625 37.7833 26.2167 38 24.75 38C23.3167 38 21.9167 37.775 20.55 37.325C19.1833 36.875 17.9167 36.2333 16.75 35.4V38C16.75 38.5667 16.5583 39.0417 16.175 39.425C15.7917 39.8083 15.3167 40 14.75 40H4.75ZM24.75 32C23.4833 32 22.2833 31.7083 21.15 31.125C20.0167 30.5417 19.0667 29.7333 18.3 28.7C17.7333 27.8667 17.025 27.2083 16.175 26.725C15.325 26.2417 14.4 26 13.4 26C14.1333 24.7667 15.6833 23.7917 18.05 23.075C20.4167 22.3583 22.65 22 24.75 22C26.85 22 29.0833 22.3583 31.45 23.075C33.8167 23.7917 35.3667 24.7667 36.1 26C35.1333 26 34.2167 26.2417 33.35 26.725C32.4833 27.2083 31.7667 27.8667 31.2 28.7C30.4667 29.7667 29.5333 30.5833 28.4 31.15C27.2667 31.7167 26.05 32 24.75 32ZM8.75 26C7.08333 26 5.66667 25.4167 4.5 24.25C3.33333 23.0833 2.75 21.6667 2.75 20C2.75 18.3333 3.33333 16.9167 4.5 15.75C5.66667 14.5833 7.08333 14 8.75 14C10.4167 14 11.8333 14.5833 13 15.75C14.1667 16.9167 14.75 18.3333 14.75 20C14.75 21.6667 14.1667 23.0833 13 24.25C11.8333 25.4167 10.4167 26 8.75 26ZM40.75 26C39.0833 26 37.6667 25.4167 36.5 24.25C35.3333 23.0833 34.75 21.6667 34.75 20C34.75 18.3333 35.3333 16.9167 36.5 15.75C37.6667 14.5833 39.0833 14 40.75 14C42.4167 14 43.8333 14.5833 45 15.75C46.1667 16.9167 46.75 18.3333 46.75 20C46.75 21.6667 46.1667 23.0833 45 24.25C43.8333 25.4167 42.4167 26 40.75 26ZM24.75 20C23.0833 20 21.6667 19.4167 20.5 18.25C19.3333 17.0833 18.75 15.6667 18.75 14C18.75 12.3333 19.3333 10.9167 20.5 9.75C21.6667 8.58333 23.0833 8 24.75 8C26.4167 8 27.8333 8.58333 29 9.75C30.1667 10.9167 30.75 12.3333 30.75 14C30.75 15.6667 30.1667 17.0833 29 18.25C27.8333 19.4167 26.4167 20 24.75 20Z" fill="white" fill-opacity="0.87"/>
  </g>
</svg>
