<svg xmlns="http://www.w3.org/2000/svg" width="49" height="48" viewBox="0 0 49 48" fill="none">
  <mask id="mask0_1090_30823" style="mask-type:alpha" maskUnits="userSpaceOnUse" x="0" y="0" width="49" height="48">
    <rect x="0.25" width="48" height="48" fill="#D9D9D9"/>
  </mask>
  <g mask="url(#mask0_1090_30823)">
    <path d="M13.75 37C13.1833 37 12.7083 36.8083 12.325 36.425C11.9417 36.0417 11.75 35.5667 11.75 35V31H37.75V13H41.75C42.3167 13 42.7917 13.1917 43.175 13.575C43.5583 13.9583 43.75 14.4333 43.75 15V40.15C43.75 41.05 43.3417 41.675 42.525 42.025C41.7083 42.375 40.9833 42.2333 40.35 41.6L35.75 37H13.75ZM11.75 27L7.15 31.6C6.51667 32.2333 5.79167 32.375 4.975 32.025C4.15833 31.675 3.75 31.05 3.75 30.15V7C3.75 6.43333 3.94167 5.95833 4.325 5.575C4.70833 5.19167 5.18333 5 5.75 5H31.75C32.3167 5 32.7917 5.19167 33.175 5.575C33.5583 5.95833 33.75 6.43333 33.75 7V25C33.75 25.5667 33.5583 26.0417 33.175 26.425C32.7917 26.8083 32.3167 27 31.75 27H11.75Z" fill="white" fill-opacity="0.87"/>
  </g>
</svg>
