<svg width="49" height="49" viewBox="0 0 49 49" fill="none" xmlns="http://www.w3.org/2000/svg">
<mask id="mask0_1154_32303" style="mask-type:alpha" maskUnits="userSpaceOnUse" x="0" y="0" width="49" height="49">
<rect x="0.5" y="0.447266" width="48" height="48" fill="#004680"/>
</mask>
<g mask="url(#mask0_1154_32303)">
<path d="M14.5 30.4473C16.1667 30.4473 17.5833 29.8639 18.75 28.6973C19.9167 27.5306 20.5 26.1139 20.5 24.4473C20.5 22.7806 19.9167 21.3639 18.75 20.1973C17.5833 19.0306 16.1667 18.4473 14.5 18.4473C12.8333 18.4473 11.4167 19.0306 10.25 20.1973C9.08333 21.3639 8.5 22.7806 8.5 24.4473C8.5 26.1139 9.08333 27.5306 10.25 28.6973C11.4167 29.8639 12.8333 30.4473 14.5 30.4473ZM14.5 36.4473C11.1667 36.4473 8.33333 35.2806 6 32.9473C3.66667 30.6139 2.5 27.7806 2.5 24.4473C2.5 21.1139 3.66667 18.2806 6 15.9473C8.33333 13.6139 11.1667 12.4473 14.5 12.4473C17.2 12.4473 19.5583 13.2139 21.575 14.7473C23.5917 16.2806 25 18.1806 25.8 20.4473H41.7C41.9667 20.4473 42.225 20.4973 42.475 20.5973C42.725 20.6973 42.9333 20.8306 43.1 20.9973L45.05 22.9473C45.25 23.1473 45.4 23.3723 45.5 23.6223C45.6 23.8723 45.65 24.1306 45.65 24.3973C45.65 24.6639 45.6083 24.9139 45.525 25.1473C45.4417 25.3806 45.3 25.5973 45.1 25.7973L39.9 30.9973C39.7 31.1973 39.4833 31.3473 39.25 31.4473C39.0167 31.5473 38.7667 31.5973 38.5 31.5973C38.2333 31.5973 37.9833 31.5556 37.75 31.4723C37.5167 31.3889 37.3 31.2473 37.1 31.0473L34.5 28.4473L31.9 31.0473C31.7 31.2473 31.4833 31.3889 31.25 31.4723C31.0167 31.5556 30.7667 31.5973 30.5 31.5973C30.2333 31.5973 29.9833 31.5556 29.75 31.4723C29.5167 31.3889 29.3 31.2473 29.1 31.0473L26.5 28.4473H25.8C24.9667 30.8473 23.5167 32.7806 21.45 34.2473C19.3833 35.7139 17.0667 36.4473 14.5 36.4473Z" fill="#004680"/>
</g>
</svg>
