<svg width="43" height="43" viewBox="0 0 43 43" fill="none" xmlns="http://www.w3.org/2000/svg">
<g id="Work">
<mask id="mask0_1634_3049" style="mask-type:alpha" maskUnits="userSpaceOnUse" x="0" y="0" width="43" height="43">
<rect id="Bounding box" x="0.5" y="0.447266" width="42" height="42" fill="#D9D9D9"/>
</mask>
<g mask="url(#mask0_1634_3049)">
<path id="visibility" d="M21.4994 28.4473C23.6869 28.4473 25.5463 27.6816 27.0775 26.1504C28.6088 24.6191 29.3744 22.7598 29.3744 20.5723C29.3744 18.3848 28.6088 16.5254 27.0775 14.9941C25.5463 13.4629 23.6869 12.6973 21.4994 12.6973C19.3119 12.6973 17.4525 13.4629 15.9213 14.9941C14.39 16.5254 13.6244 18.3848 13.6244 20.5723C13.6244 22.7598 14.39 24.6191 15.9213 26.1504C17.4525 27.6816 19.3119 28.4473 21.4994 28.4473ZM21.4994 25.2973C20.1869 25.2973 19.0713 24.8379 18.1525 23.9191C17.2338 23.0004 16.7744 21.8848 16.7744 20.5723C16.7744 19.2598 17.2338 18.1441 18.1525 17.2254C19.0713 16.3066 20.1869 15.8473 21.4994 15.8473C22.8119 15.8473 23.9275 16.3066 24.8463 17.2254C25.765 18.1441 26.2244 19.2598 26.2244 20.5723C26.2244 21.8848 25.765 23.0004 24.8463 23.9191C23.9275 24.8379 22.8119 25.2973 21.4994 25.2973ZM21.4994 33.6973C17.4452 33.6973 13.7411 32.6254 10.3869 30.4816C7.03275 28.3379 4.49525 25.4431 2.77441 21.7973C2.68691 21.6514 2.62858 21.4691 2.59941 21.2504C2.57025 21.0316 2.55566 20.8056 2.55566 20.5723C2.55566 20.3389 2.57025 20.1129 2.59941 19.8941C2.62858 19.6754 2.68691 19.4931 2.77441 19.3473C4.49525 15.7014 7.03275 12.8066 10.3869 10.6629C13.7411 8.51914 17.4452 7.44727 21.4994 7.44727C25.5536 7.44727 29.2578 8.51914 32.6119 10.6629C35.9661 12.8066 38.5036 15.7014 40.2244 19.3473C40.3119 19.4931 40.3703 19.6754 40.3994 19.8941C40.4286 20.1129 40.4432 20.3389 40.4432 20.5723C40.4432 20.8056 40.4286 21.0316 40.3994 21.2504C40.3703 21.4691 40.3119 21.6514 40.2244 21.7973C38.5036 25.4431 35.9661 28.3379 32.6119 30.4816C29.2578 32.6254 25.5536 33.6973 21.4994 33.6973Z" fill="#004680"/>
</g>
</g>
</svg>
