<svg width="43" height="43" viewBox="0 0 43 43" fill="none" xmlns="http://www.w3.org/2000/svg">
<g id="Work">
<mask id="mask0_1634_3065" style="mask-type:alpha" maskUnits="userSpaceOnUse" x="0" y="0" width="43" height="43">
<rect id="Bounding box" x="0.5" y="0.947266" width="42" height="42" fill="#D9D9D9"/>
</mask>
<g mask="url(#mask0_1634_3065)">
<path id="volunteer_activism" d="M2.25 35.9473V23.6973C2.25 22.7348 2.59271 21.9108 3.27813 21.2254C3.96354 20.54 4.7875 20.1973 5.75 20.1973C6.7125 20.1973 7.53646 20.54 8.22188 21.2254C8.90729 21.9108 9.25 22.7348 9.25 23.6973V35.9473C9.25 36.9098 8.90729 37.7337 8.22188 38.4191C7.53646 39.1046 6.7125 39.4473 5.75 39.4473C4.7875 39.4473 3.96354 39.1046 3.27813 38.4191C2.59271 37.7337 2.25 36.9098 2.25 35.9473ZM23.9062 39.141L12.75 35.991V20.1973H15.55C15.7542 20.1973 15.9583 20.2191 16.1625 20.2629C16.3667 20.3066 16.5708 20.3577 16.775 20.416L28.8938 24.9223C29.3021 25.0681 29.6302 25.3306 29.8781 25.7098C30.126 26.0889 30.25 26.4827 30.25 26.891C30.25 27.5035 30.0385 27.9993 29.6156 28.3785C29.1927 28.7577 28.7042 28.9473 28.15 28.9473H23.5562C23.4104 28.9473 23.301 28.94 23.2281 28.9254C23.1552 28.9108 23.0604 28.8743 22.9438 28.816L20.975 28.0723C20.7417 27.9848 20.5083 27.9993 20.275 28.116C20.0417 28.2327 19.8958 28.3931 19.8375 28.5973C19.7792 28.8306 19.7937 29.0493 19.8813 29.2535C19.9688 29.4577 20.1292 29.6035 20.3625 29.691L22.9438 30.6098C23.0021 30.6389 23.0896 30.6608 23.2063 30.6754C23.3229 30.69 23.425 30.6973 23.5125 30.6973H35.5C36.4333 30.6973 37.25 31.0327 37.95 31.7035C38.65 32.3743 39 33.2056 39 34.1973L26.0938 39.0535C25.8021 39.1702 25.4448 39.2358 25.0219 39.2504C24.599 39.265 24.2271 39.2285 23.9062 39.141ZM28.5 23.1285C28.2958 23.1285 28.099 23.0993 27.9094 23.041C27.7198 22.9827 27.5521 22.8806 27.4062 22.7348C24.8979 20.4598 22.7031 18.265 20.8219 16.1504C18.9406 14.0358 18 12.0598 18 10.2223C18 8.58893 18.5542 7.2181 19.6625 6.10977C20.7708 5.00143 22.1417 4.44727 23.775 4.44727C24.7083 4.44727 25.5833 4.64414 26.4 5.03789C27.2167 5.43164 27.9167 5.96393 28.5 6.63477C29.0833 5.96393 29.7833 5.43164 30.6 5.03789C31.4167 4.64414 32.2917 4.44727 33.225 4.44727C34.8583 4.44727 36.2292 5.00143 37.3375 6.10977C38.4458 7.2181 39 8.58893 39 10.2223C39 12.0598 38.0594 14.0358 36.1781 16.1504C34.2969 18.265 32.1021 20.4598 29.5938 22.7348C29.4479 22.8806 29.2802 22.9827 29.0906 23.041C28.901 23.0993 28.7042 23.1285 28.5 23.1285Z" fill="#004680"/>
</g>
</g>
</svg>
