<svg xmlns="http://www.w3.org/2000/svg" width="48" height="49" viewBox="0 0 48 49" fill="none">
  <mask id="mask0_836_104302" style="mask-type:alpha" maskUnits="userSpaceOnUse" x="0" y="0" width="48" height="49">
    <rect y="0.240234" width="48" height="48" fill="#D9D9D9"/>
  </mask>
  <g mask="url(#mask0_836_104302)">
    <path d="M24 44.2402C21.2333 44.2402 18.6333 43.7152 16.2 42.6652C13.7667 41.6152 11.65 40.1902 9.85 38.3902C8.05 36.5902 6.625 34.4736 5.575 32.0402C4.525 29.6069 4 27.0069 4 24.2402C4 21.4736 4.525 18.8736 5.575 16.4402C6.625 14.0069 8.05 11.8902 9.85 10.0902C11.65 8.29023 13.7667 6.86523 16.2 5.81523C18.6333 4.76523 21.2333 4.24023 24 4.24023C26.7667 4.24023 29.3667 4.76523 31.8 5.81523C34.2333 6.86523 36.35 8.29023 38.15 10.0902C39.95 11.8902 41.375 14.0069 42.425 16.4402C43.475 18.8736 44 21.4736 44 24.2402C44 27.0069 43.475 29.6069 42.425 32.0402C41.375 34.4736 39.95 36.5902 38.15 38.3902C36.35 40.1902 34.2333 41.6152 31.8 42.6652C29.3667 43.7152 26.7667 44.2402 24 44.2402ZM24 40.2402C28.4667 40.2402 32.25 38.6902 35.35 35.5902C38.45 32.4902 40 28.7069 40 24.2402C40 19.7736 38.45 15.9902 35.35 12.8902C32.25 9.79023 28.4667 8.24023 24 8.24023C19.5333 8.24023 15.75 9.79023 12.65 12.8902C9.55 15.9902 8 19.7736 8 24.2402C8 28.7069 9.55 32.4902 12.65 35.5902C15.75 38.6902 19.5333 40.2402 24 40.2402ZM24 40.2402C19.5333 40.2402 15.75 38.6902 12.65 35.5902C9.55 32.4902 8 28.7069 8 24.2402C8 19.7736 9.55 15.9902 12.65 12.8902C15.75 9.79023 19.5333 8.24023 24 8.24023C28.4667 8.24023 32.25 9.79023 35.35 12.8902C38.45 15.9902 40 19.7736 40 24.2402C40 28.7069 38.45 32.4902 35.35 35.5902C32.25 38.6902 28.4667 40.2402 24 40.2402Z" fill="#004680"/>
    <mask id="mask1_836_104302" style="mask-type:alpha" maskUnits="userSpaceOnUse" x="3" y="3" width="42" height="43">
      <rect x="3" y="3.24023" width="42" height="42" fill="#D9D9D9"/>
    </mask>
    <g mask="url(#mask1_836_104302)">
      <path d="M20.2562 27.0465L30.5813 16.7215C30.9021 16.4007 31.3104 16.2402 31.8062 16.2402C32.3021 16.2402 32.7104 16.4007 33.0312 16.7215C33.3521 17.0423 33.5125 17.4507 33.5125 17.9465C33.5125 18.4423 33.3521 18.8507 33.0312 19.1715L21.4813 30.7215C21.1313 31.0715 20.7229 31.2465 20.2562 31.2465C19.7896 31.2465 19.3812 31.0715 19.0312 30.7215L14.4813 26.1715C14.1604 25.8507 14 25.4423 14 24.9465C14 24.4507 14.1604 24.0423 14.4813 23.7215C14.8021 23.4007 15.2104 23.2402 15.7063 23.2402C16.2021 23.2402 16.6104 23.4007 16.9313 23.7215L20.2562 27.0465Z" fill="#E1F1FF"/>
    </g>
  </g>
</svg>
