<svg width="390" height="371" viewBox="0 0 390 371" fill="none" xmlns="http://www.w3.org/2000/svg">
<path d="M89.1277 323.795C89.1277 323.795 95.1128 274.971 98.5531 264.305C101.993 253.638 101.019 151.45 101.129 150.413C101.239 149.376 45.8647 176.977 41.0262 185.193C36.1878 193.409 48.7866 246.993 45.252 254.738C41.7174 262.482 30.2026 296.414 30.2026 296.414L89.1277 323.795Z" fill="white"/>
<path d="M89.1274 324.582C89.0133 324.578 88.9011 324.552 88.7975 324.504L29.8568 297.123C29.6782 297.046 29.5352 296.904 29.4565 296.727C29.3778 296.549 29.3693 296.348 29.4327 296.164C29.9039 294.766 41.026 262.091 44.5292 254.409C46.1001 251 44.1521 236.894 42.267 223.258C39.9892 206.622 37.5543 189.421 40.3348 184.802C43.1153 180.184 59.0444 170.962 72.0516 163.909C76.3245 161.6 99.8411 149.189 101.349 149.645C101.523 149.704 101.671 149.82 101.771 149.974C101.871 150.128 101.916 150.311 101.899 150.493C101.899 150.729 101.899 153.494 101.899 157.295C101.978 181.566 102.213 255.399 99.2598 264.557C95.8981 275.02 89.96 323.404 89.8343 323.891C89.8022 324.079 89.7067 324.25 89.5637 324.375C89.4208 324.501 89.2391 324.574 89.0489 324.582H89.1274ZM31.1607 295.991L88.4833 322.697C89.3945 315.314 94.6099 273.999 97.7832 264.149C99.684 258.242 100.548 222.316 100.344 157.327C100.344 154.185 100.344 152.426 100.344 151.467C93.0547 154.358 46.0058 178.283 41.7015 185.619C39.2666 189.766 41.7015 207.455 43.8537 223.054C45.9273 238.182 47.7181 251.33 45.9744 255.085C42.754 262.075 32.8415 291.2 31.1607 295.991Z" fill="#231F20"/>
<path d="M88.248 366.667L97.7206 303.517L33.2974 271.627L0.748047 363.478L88.248 366.667Z" fill="#231F20"/>
<path d="M88.2481 367.451L0.763882 364.309C0.640359 364.309 0.518777 364.278 0.409409 364.221C0.300042 364.163 0.206097 364.081 0.135513 363.979C0.0673755 363.876 0.0234904 363.759 0.00716453 363.637C-0.00916135 363.514 0.00250104 363.39 0.0412622 363.272L32.5592 271.374C32.6002 271.271 32.6617 271.177 32.74 271.099C32.8183 271.021 32.9117 270.959 33.0146 270.918C33.1175 270.877 33.2276 270.857 33.3384 270.86C33.4491 270.862 33.5581 270.888 33.6588 270.934L98.0663 302.823C98.2185 302.893 98.3438 303.011 98.4232 303.158C98.5025 303.306 98.5317 303.475 98.5062 303.64L89.0807 366.791C89.0465 366.984 88.9429 367.157 88.7895 367.279C88.6361 367.4 88.4435 367.462 88.2481 367.451ZM1.8478 362.738L87.5726 365.88L96.8567 303.986L33.7531 272.725L1.8478 362.738Z" fill="#231F20"/>
<path d="M295.923 28.3691H98.9933C93.4407 28.3691 88.9395 32.8704 88.9395 38.423V299.148C88.9395 304.7 93.4407 309.202 98.9933 309.202H295.923C301.476 309.202 305.977 304.7 305.977 299.148V38.423C305.977 32.8704 301.476 28.3691 295.923 28.3691Z" fill="white"/>
<path d="M295.923 310.003H98.9774C96.1066 309.995 93.3561 308.85 91.3276 306.818C89.2991 304.787 88.158 302.035 88.1538 299.164V38.392C88.158 35.5213 89.2991 32.769 91.3276 30.7376C93.3561 28.7062 96.1066 27.561 98.9774 27.5527H295.923C298.796 27.5569 301.551 28.7002 303.583 30.7321C305.615 32.7639 306.758 35.5186 306.762 38.392V299.164C306.758 302.037 305.615 304.792 303.583 306.824C301.551 308.856 298.796 309.999 295.923 310.003ZM98.9774 29.1551C96.522 29.1592 94.1686 30.1376 92.4338 31.8753C90.6991 33.613 89.7247 35.968 89.7247 38.4235V299.195C89.7247 301.651 90.6991 304.006 92.4338 305.744C94.1686 307.481 96.522 308.46 98.9774 308.464H295.923C298.38 308.46 300.735 307.482 302.472 305.745C304.209 304.007 305.187 301.652 305.191 299.195V38.4235C305.187 35.9666 304.209 33.6116 302.472 31.8743C300.735 30.137 298.38 29.1592 295.923 29.1551H98.9774Z" fill="#231F20"/>
<path d="M292.671 45.5879H102.229V292.017H292.671V45.5879Z" fill="white"/>
<path d="M292.671 292.803H102.229C102.021 292.803 101.821 292.72 101.674 292.573C101.527 292.426 101.444 292.226 101.444 292.018V45.5882C101.444 45.3799 101.527 45.1801 101.674 45.0328C101.821 44.8855 102.021 44.8027 102.229 44.8027H292.671C292.88 44.8027 293.079 44.8855 293.227 45.0328C293.374 45.1801 293.457 45.3799 293.457 45.5882V292.018C293.457 292.226 293.374 292.426 293.227 292.573C293.079 292.72 292.88 292.803 292.671 292.803ZM103.015 291.232H291.886V46.3736H103.015V291.232Z" fill="#231F20"/>
<path d="M247.225 18.4575H219.781C218.774 13.2614 215.991 8.57758 211.907 5.20975C207.824 1.84192 202.696 0 197.404 0C192.111 0 186.983 1.84192 182.9 5.20975C178.817 8.57758 176.033 13.2614 175.026 18.4575H147.692C145.949 18.4575 144.277 19.1489 143.043 20.3798C141.809 21.6108 141.114 23.281 141.11 25.024V47.9122C141.114 49.6552 141.809 51.3253 143.043 52.5563C144.277 53.7873 145.949 54.4786 147.692 54.4786H247.225C248.967 54.4786 250.637 53.7868 251.868 52.5554C253.1 51.3239 253.792 49.6537 253.792 47.9122V25.0083C253.787 23.2695 253.094 21.6033 251.863 20.3752C250.632 19.1472 248.964 18.4575 247.225 18.4575ZM197.459 21.4423C196.302 21.4454 195.171 21.1053 194.208 20.4651C193.245 19.8248 192.493 18.9132 192.048 17.8457C191.604 16.7782 191.486 15.6027 191.709 14.4681C191.933 13.3334 192.488 12.2907 193.305 11.4719C194.122 10.653 195.163 10.0949 196.297 9.86814C197.431 9.64137 198.607 9.75618 199.676 10.198C200.744 10.6399 201.658 11.3889 202.301 12.3502C202.944 13.3116 203.287 14.442 203.287 15.5985C203.283 17.1444 202.668 18.626 201.576 19.7206C200.484 20.8152 199.004 21.434 197.459 21.4423Z" fill="#6F93B3"/>
<path d="M175.607 124.429H129.611C129.419 124.429 129.235 124.353 129.1 124.218C128.964 124.082 128.888 123.898 128.888 123.707V74.5527C128.888 74.361 128.964 74.1772 129.1 74.0417C129.235 73.9062 129.419 73.8301 129.611 73.8301H175.607C175.798 73.8341 175.979 73.9115 176.114 74.0462C176.248 74.1808 176.326 74.3623 176.33 74.5527V123.707C176.326 123.897 176.248 124.078 176.114 124.213C175.979 124.348 175.798 124.425 175.607 124.429ZM130.333 122.968H174.885V75.2753H130.333V122.968Z" fill="#D1D3D4"/>
<path d="M186.384 86.5742C186.142 86.9814 185.863 87.3653 185.551 87.721L155.829 117.427C155.679 117.664 155.471 117.859 155.225 117.994C154.98 118.129 154.704 118.2 154.423 118.2C154.143 118.2 153.867 118.129 153.621 117.994C153.375 117.859 153.168 117.664 153.017 117.427L136.303 100.147C136.077 99.999 135.892 99.7952 135.768 99.5552C135.644 99.3153 135.583 99.0473 135.593 98.7772C135.602 98.5071 135.681 98.2441 135.822 98.0134C135.963 97.7828 136.161 97.5924 136.397 97.4607L140.591 93.6905C140.737 93.4924 140.928 93.3313 141.148 93.2203C141.367 93.1094 141.61 93.0515 141.856 93.0515C142.102 93.0515 142.345 93.1094 142.564 93.2203C142.784 93.3313 142.974 93.4924 143.121 93.6905C146.398 97.0522 149.692 100.409 153.002 103.76C153.154 103.997 153.363 104.191 153.61 104.326C153.857 104.461 154.134 104.532 154.415 104.532C154.697 104.532 154.974 104.461 155.221 104.326C155.468 104.191 155.677 103.997 155.829 103.76L178.937 80.8404C179.09 80.6136 179.295 80.4277 179.536 80.2992C179.778 80.1707 180.047 80.1035 180.32 80.1035C180.593 80.1035 180.862 80.1707 181.103 80.2992C181.344 80.4277 181.55 80.6136 181.702 80.8404C183.006 82.16 184.31 83.4638 185.598 84.7834C185.888 85.133 186.155 85.5003 186.399 85.883L186.384 86.5742Z" fill="#004680"/>
<path d="M268.762 92.1328H202.705C202.53 92.107 202.37 92.0191 202.254 91.885C202.138 91.7509 202.074 91.5796 202.074 91.4023C202.074 91.2251 202.138 91.0538 202.254 90.9197C202.37 90.7856 202.53 90.6977 202.705 90.6719H268.762C268.937 90.6977 269.098 90.7856 269.213 90.9197C269.329 91.0538 269.393 91.2251 269.393 91.4023C269.393 91.5796 269.329 91.7509 269.213 91.885C269.098 92.0191 268.937 92.107 268.762 92.1328Z" fill="#D1D3D4"/>
<path d="M251.2 107.574H202.706C202.514 107.574 202.33 107.498 202.195 107.362C202.059 107.227 201.983 107.043 201.983 106.852C201.983 106.66 202.059 106.476 202.195 106.341C202.33 106.205 202.514 106.129 202.706 106.129H251.2C251.391 106.129 251.575 106.205 251.711 106.341C251.846 106.476 251.922 106.66 251.922 106.852C251.922 107.043 251.846 107.227 251.711 107.362C251.575 107.498 251.391 107.574 251.2 107.574Z" fill="#D1D3D4"/>
<path d="M175.607 191.542H129.611C129.515 191.545 129.42 191.527 129.331 191.492C129.243 191.456 129.162 191.403 129.095 191.336C129.027 191.268 128.974 191.188 128.938 191.099C128.903 191.01 128.886 190.915 128.888 190.82V141.682C128.888 141.49 128.964 141.306 129.1 141.171C129.235 141.035 129.419 140.959 129.611 140.959H175.607C175.797 140.963 175.979 141.04 176.113 141.175C176.248 141.31 176.325 141.491 176.33 141.682V190.82C176.33 191.011 176.253 191.195 176.118 191.331C175.982 191.466 175.799 191.542 175.607 191.542ZM130.333 190.097H174.884V142.404H130.333V190.097Z" fill="#D1D3D4"/>
<path d="M186.384 153.697C186.142 154.104 185.863 154.488 185.551 154.844L155.829 184.519C155.679 184.755 155.471 184.95 155.225 185.086C154.98 185.221 154.704 185.292 154.423 185.292C154.143 185.292 153.867 185.221 153.621 185.086C153.375 184.95 153.168 184.755 153.017 184.519L136.303 167.239C136.077 167.091 135.892 166.887 135.768 166.647C135.644 166.407 135.583 166.139 135.593 165.869C135.602 165.599 135.681 165.336 135.822 165.105C135.963 164.874 136.161 164.684 136.397 164.552L140.591 160.782C140.737 160.584 140.928 160.423 141.148 160.312C141.367 160.201 141.61 160.143 141.856 160.143C142.102 160.143 142.345 160.201 142.564 160.312C142.784 160.423 142.974 160.584 143.121 160.782C146.398 164.144 149.692 167.5 153.002 170.852C153.154 171.088 153.363 171.283 153.61 171.418C153.857 171.553 154.134 171.623 154.415 171.623C154.697 171.623 154.974 171.553 155.221 171.418C155.468 171.283 155.677 171.088 155.829 170.852L178.937 147.963C179.09 147.737 179.295 147.551 179.536 147.422C179.778 147.294 180.047 147.227 180.32 147.227C180.593 147.227 180.862 147.294 181.103 147.422C181.344 147.551 181.55 147.737 181.702 147.963C183.006 149.267 184.31 150.571 185.598 151.906C185.888 152.256 186.155 152.623 186.399 153.006L186.384 153.697Z" fill="#004680"/>
<path d="M268.762 159.258H202.705C202.53 159.232 202.37 159.144 202.254 159.01C202.138 158.876 202.074 158.705 202.074 158.527C202.074 158.35 202.138 158.179 202.254 158.045C202.37 157.911 202.53 157.823 202.705 157.797H268.762C268.937 157.823 269.098 157.911 269.213 158.045C269.329 158.179 269.393 158.35 269.393 158.527C269.393 158.705 269.329 158.876 269.213 159.01C269.098 159.144 268.937 159.232 268.762 159.258Z" fill="#D1D3D4"/>
<path d="M251.2 174.699H202.706C202.514 174.699 202.33 174.623 202.195 174.488C202.059 174.352 201.983 174.168 201.983 173.977C201.983 173.785 202.059 173.601 202.195 173.466C202.33 173.33 202.514 173.254 202.706 173.254H251.2C251.391 173.254 251.575 173.33 251.711 173.466C251.846 173.601 251.922 173.785 251.922 173.977C251.922 174.168 251.846 174.352 251.711 174.488C251.575 174.623 251.391 174.699 251.2 174.699Z" fill="#D1D3D4"/>
<path d="M175.607 258.384H129.611C129.419 258.384 129.235 258.308 129.1 258.173C128.964 258.037 128.888 257.853 128.888 257.662V208.539C128.888 208.347 128.964 208.164 129.1 208.028C129.235 207.893 129.419 207.816 129.611 207.816H175.607C175.798 207.82 175.979 207.898 176.114 208.032C176.248 208.167 176.326 208.349 176.33 208.539V257.693C176.318 257.878 176.237 258.051 176.103 258.18C175.969 258.308 175.792 258.381 175.607 258.384ZM130.333 256.939H174.885V209.23H130.333V256.939Z" fill="#D1D3D4"/>
<path d="M186.384 220.525C186.142 220.932 185.863 221.316 185.551 221.672L155.829 251.347C154.808 252.368 154.023 252.383 153.017 251.347C147.435 245.597 141.864 239.837 136.303 234.067C136.077 233.919 135.892 233.715 135.768 233.475C135.644 233.235 135.583 232.967 135.593 232.697C135.602 232.427 135.681 232.164 135.822 231.933C135.963 231.702 136.161 231.512 136.397 231.38L140.591 227.61C140.737 227.412 140.928 227.251 141.148 227.14C141.367 227.029 141.61 226.971 141.856 226.971C142.102 226.971 142.345 227.029 142.564 227.14C142.784 227.251 142.974 227.412 143.121 227.61L153.002 237.695C153.154 237.932 153.363 238.127 153.61 238.262C153.857 238.396 154.134 238.467 154.415 238.467C154.697 238.467 154.974 238.396 155.221 238.262C155.468 238.127 155.677 237.932 155.829 237.695L178.937 214.823C179.09 214.596 179.295 214.41 179.536 214.282C179.778 214.153 180.047 214.086 180.32 214.086C180.593 214.086 180.862 214.153 181.103 214.282C181.344 214.41 181.55 214.596 181.702 214.823C183.006 216.142 184.31 217.446 185.598 218.766C185.888 219.115 186.155 219.483 186.399 219.865L186.384 220.525Z" fill="#004680"/>
<path d="M268.762 226.086H202.706C202.515 226.082 202.334 226.004 202.199 225.87C202.064 225.735 201.987 225.554 201.983 225.363C201.983 225.172 202.059 224.988 202.195 224.852C202.33 224.717 202.514 224.641 202.706 224.641H268.762C268.954 224.641 269.138 224.717 269.273 224.852C269.409 224.988 269.485 225.172 269.485 225.363C269.481 225.554 269.404 225.735 269.269 225.87C269.134 226.004 268.953 226.082 268.762 226.086Z" fill="#D1D3D4"/>
<path d="M251.2 241.527H202.706C202.514 241.527 202.33 241.451 202.195 241.316C202.059 241.18 201.983 240.996 201.983 240.805C201.987 240.614 202.064 240.433 202.199 240.298C202.334 240.163 202.515 240.086 202.706 240.082H251.2C251.39 240.086 251.572 240.163 251.706 240.298C251.841 240.433 251.918 240.614 251.922 240.805C251.922 240.996 251.846 241.18 251.711 241.316C251.575 241.451 251.391 241.527 251.2 241.527Z" fill="#D1D3D4"/>
<path d="M58.8247 198.938C70.4023 186.371 84.195 175.893 98.616 166.672C102.182 164.378 106.031 162.085 110.272 161.959C114.514 161.833 119.132 164.849 119.258 169.091C119.352 172.421 116.839 175.186 114.545 177.542L83.708 208.536C87.4405 215.609 89.0148 223.621 88.2357 231.58C87.4566 239.539 84.3583 247.093 79.3251 253.308" fill="white"/>
<path d="M79.3254 254.096C79.1425 254.101 78.9638 254.04 78.8228 253.923C78.6646 253.786 78.5662 253.593 78.5485 253.385C78.5309 253.176 78.5955 252.969 78.7285 252.808C83.6391 246.704 86.6607 239.299 87.4226 231.502C88.1844 223.705 86.6533 215.855 83.0171 208.916C82.9379 208.767 82.9089 208.597 82.9343 208.43C82.9598 208.263 83.0384 208.108 83.1585 207.99L113.933 177.074C116.273 174.718 118.567 172.173 118.473 169.219C118.363 165.371 114.043 162.763 110.288 162.936C106.534 163.109 102.701 165.135 99.0404 167.491C82.2788 178.205 69.68 188.416 59.4063 199.632C59.2646 199.786 59.0675 199.878 58.8583 199.887C58.6492 199.896 58.4451 199.821 58.2909 199.679C58.1367 199.538 58.0452 199.341 58.0363 199.132C58.0275 198.922 58.1021 198.718 58.2438 198.564C68.6118 187.253 81.3048 176.964 98.1922 166.156C102.057 163.69 105.89 161.443 110.257 161.443C114.624 161.443 119.902 164.585 120.044 169.298C120.154 172.88 117.64 175.723 115.048 178.315L84.6823 208.634C88.3899 215.798 89.9194 223.89 89.0819 231.913C88.2444 239.936 85.0767 247.538 79.9695 253.782C79.8931 253.88 79.7954 253.959 79.6838 254.013C79.5722 254.068 79.4496 254.096 79.3254 254.096Z" fill="#231F20"/>
<path d="M328.378 291.907L290.346 319.146L219.247 231.254C219.357 226.541 216.105 205.852 223.127 209.261C230.149 212.67 256.336 242.517 260.656 243.491C264.976 244.465 274.983 239.564 273.475 229.903C271.967 220.242 270.144 203.983 260.688 203.307C246.345 202.286 233.008 211.806 227.337 209.591C221.666 207.376 216.985 199.851 226.237 194.29C236.825 188.006 259.619 183.922 277.889 185.901C296.159 187.881 310.014 224.64 311.302 251.566C316.109 268.688 325.394 284.288 328.378 291.907Z" fill="white"/>
<path d="M290.346 319.931C290.228 319.932 290.111 319.905 290.005 319.853C289.899 319.802 289.806 319.726 289.733 319.633L218.649 231.756C218.526 231.611 218.459 231.427 218.461 231.237C218.461 230.295 218.367 228.645 218.225 226.744C217.613 218.261 217.298 210.501 220.189 208.522C220.681 208.222 221.246 208.064 221.823 208.064C222.399 208.064 222.964 208.222 223.456 208.522C227.195 210.297 235.772 218.937 244.082 227.294C251.057 234.316 258.959 242.265 260.828 242.705C262.698 243.145 266.625 242.076 269.421 239.469C270.721 238.304 271.704 236.828 272.278 235.179C272.852 233.531 272.999 231.764 272.705 230.043L272.406 228.127C270.992 218.811 268.856 204.72 260.64 204.123C252.958 203.573 245.449 206.15 239.433 208.223C234.107 210.046 229.913 211.491 227.054 210.407C225.298 209.796 223.738 208.724 222.539 207.303C221.339 205.883 220.544 204.166 220.236 202.332C220.032 200.055 220.833 196.693 225.828 193.692C236.825 187.079 260.231 183.277 277.967 185.194C297.211 187.299 310.784 225.205 312.087 251.518C315.371 263.174 320.775 274.233 324.733 282.308C326.571 286.046 328.158 289.282 329.1 291.733C329.161 291.893 329.168 292.069 329.12 292.234C329.072 292.398 328.971 292.542 328.833 292.644L290.801 319.9C290.656 319.955 290.498 319.966 290.346 319.931ZM220.047 230.986L290.472 318.077L327.404 291.623C326.461 289.33 324.985 286.329 323.304 282.905C319.314 274.752 313.878 263.582 310.532 251.769C310.525 251.712 310.525 251.654 310.532 251.596C309.323 226.462 295.986 188.65 277.826 186.67C260.357 184.77 237.406 188.477 226.661 194.933C223.252 196.991 221.587 199.458 221.823 202.097C222.098 203.64 222.782 205.081 223.804 206.27C224.827 207.458 226.15 208.35 227.635 208.852C229.944 209.716 234.107 208.302 238.93 206.637C245.104 204.532 252.754 201.924 260.766 202.458C270.191 203.149 272.485 217.979 273.977 227.797L274.275 229.713C274.612 231.696 274.443 233.732 273.784 235.632C273.125 237.532 271.997 239.236 270.505 240.584C267.615 243.286 263.31 244.841 260.499 244.197C258.284 243.695 252.393 237.914 242.983 228.378C235.128 220.524 226.284 211.569 222.812 209.904C221.713 209.386 221.241 209.716 221.084 209.826C218.697 211.397 219.419 221.325 219.812 226.619C219.922 228.472 220.032 229.965 220.047 230.986Z" fill="#231F20"/>
<path d="M195.542 214.852L197.16 227.686L183.603 225.157L176.376 223.806L183.037 220.695L195.542 214.852Z" fill="white"/>
<path d="M197.16 228.473H197.018L176.235 224.593C176.071 224.564 175.922 224.482 175.808 224.36C175.695 224.238 175.624 224.083 175.607 223.918C175.584 223.752 175.614 223.584 175.693 223.437C175.772 223.29 175.896 223.173 176.046 223.101L195.196 214.162C195.308 214.104 195.431 214.074 195.557 214.074C195.683 214.074 195.807 214.104 195.918 214.162C196.026 214.225 196.117 214.311 196.185 214.415C196.253 214.518 196.296 214.636 196.311 214.759L197.882 227.594C197.891 227.703 197.877 227.814 197.842 227.918C197.806 228.023 197.75 228.119 197.677 228.201C197.604 228.283 197.514 228.35 197.415 228.396C197.315 228.443 197.207 228.469 197.097 228.473H197.16ZM178.937 223.478L196.217 226.714L194.866 216.016L178.937 223.478Z" fill="#231F20"/>
<path d="M296.756 215.057L197.144 227.624C196.101 225.663 195.4 223.538 195.071 221.341C194.844 219.137 194.998 216.91 195.526 214.759L295.122 202.191L296.756 215.057Z" fill="#ED2D24"/>
<path d="M197.16 228.474C197.023 228.473 196.888 228.437 196.77 228.368C196.651 228.299 196.553 228.2 196.484 228.081C195.384 226.042 194.65 223.824 194.316 221.531C194.074 219.233 194.228 216.911 194.772 214.666C194.809 214.513 194.893 214.376 195.011 214.272C195.128 214.168 195.275 214.103 195.432 214.085L295.043 201.439C295.25 201.42 295.457 201.482 295.62 201.61C295.784 201.739 295.892 201.924 295.923 202.13L297.494 214.964C297.511 215.067 297.506 215.172 297.479 215.272C297.452 215.372 297.403 215.466 297.337 215.546C297.274 215.625 297.196 215.691 297.106 215.74C297.017 215.788 296.919 215.818 296.818 215.828L197.222 228.474H197.16ZM196.186 215.577C195.777 217.47 195.671 219.416 195.871 221.342C196.153 223.257 196.742 225.113 197.615 226.84L295.892 214.367L294.462 203.104L196.186 215.577Z" fill="#231F20"/>
<path d="M312.707 213.048L296.779 215.069L295.152 202.243L311.079 200.223C312.022 200.103 312.973 200.363 313.724 200.945C314.475 201.526 314.964 202.383 315.083 203.325L315.809 209.044C315.929 209.987 315.669 210.938 315.087 211.689C314.505 212.44 313.649 212.929 312.707 213.048Z" fill="white"/>
<path d="M296.756 215.842C296.563 215.84 296.379 215.769 296.234 215.642C296.09 215.515 295.996 215.341 295.97 215.151L294.399 202.316C294.386 202.214 294.393 202.11 294.42 202.01C294.447 201.91 294.493 201.817 294.556 201.735C294.686 201.575 294.871 201.468 295.075 201.437L311.004 199.426C312.153 199.283 313.312 199.602 314.227 200.311C315.143 201.02 315.74 202.063 315.889 203.212L316.612 208.93C316.754 210.079 316.436 211.238 315.727 212.154C315.017 213.069 313.974 213.667 312.826 213.815L296.897 215.826L296.756 215.842ZM296.001 202.898L297.431 214.177L312.59 212.26C313.325 212.159 313.99 211.772 314.443 211.184C314.895 210.597 315.099 209.855 315.01 209.118L314.287 203.4C314.24 203.035 314.122 202.682 313.939 202.362C313.756 202.043 313.511 201.762 313.219 201.537C312.927 201.313 312.593 201.148 312.238 201.052C311.882 200.957 311.51 200.933 311.145 200.981L296.001 202.898Z" fill="#231F20"/>
<path d="M300.372 201.56L298.549 201.791L300.176 214.617L301.999 214.386L300.372 201.56Z" fill="#231F20"/>
<path d="M303.994 201.109L302.171 201.34L303.798 214.166L305.621 213.934L303.994 201.109Z" fill="#231F20"/>
<path d="M183.037 220.697L183.603 225.159L176.376 223.808L183.037 220.697Z" fill="#68E1FD"/>
<path d="M183.65 225.942H183.493L176.282 224.591C176.119 224.562 175.969 224.48 175.856 224.358C175.742 224.236 175.672 224.081 175.654 223.916C175.631 223.751 175.661 223.582 175.74 223.436C175.819 223.289 175.943 223.171 176.094 223.099L182.739 219.957C182.85 219.899 182.974 219.869 183.1 219.869C183.226 219.869 183.35 219.899 183.461 219.957C183.569 220.02 183.66 220.106 183.728 220.209C183.796 220.313 183.839 220.431 183.854 220.554L184.42 225C184.435 225.11 184.427 225.223 184.396 225.33C184.364 225.438 184.31 225.537 184.238 225.622C184.165 225.707 184.075 225.775 183.973 225.822C183.872 225.869 183.762 225.894 183.65 225.895V225.942ZM178.937 223.476L182.692 224.183L182.409 221.858L178.937 223.476Z" fill="#231F20"/>
<path d="M222.828 235.684C222.828 235.684 212.994 223.478 210.119 218.97C205.406 211.618 216.984 205.114 221.116 208.193C224.085 210.377 239.385 223.902 242.464 226.808" fill="white"/>
<path d="M222.829 236.469C222.71 236.469 222.594 236.443 222.488 236.391C222.381 236.339 222.288 236.264 222.216 236.17C221.823 235.683 212.335 223.886 209.46 219.377C208.473 217.871 208.087 216.049 208.378 214.272C208.669 212.495 209.616 210.892 211.031 209.779C213.937 207.061 218.886 205.522 221.713 207.564C224.541 209.606 240.014 223.273 243.125 226.242C243.2 226.313 243.261 226.399 243.303 226.493C243.345 226.588 243.369 226.69 243.372 226.793C243.375 226.897 243.357 227 243.32 227.097C243.283 227.194 243.227 227.282 243.156 227.357C243.085 227.433 243 227.493 242.905 227.536C242.811 227.578 242.709 227.601 242.605 227.604C242.502 227.607 242.398 227.59 242.302 227.553C242.205 227.516 242.116 227.46 242.041 227.389C238.899 224.436 223.693 210.973 220.771 208.836C218.886 207.454 214.754 208.444 212.099 210.926C210.985 211.815 210.239 213.087 210.007 214.494C209.775 215.901 210.073 217.344 210.843 218.545C213.67 222.975 223.41 235.071 223.504 235.196C223.571 235.275 223.621 235.366 223.651 235.465C223.682 235.563 223.692 235.667 223.682 235.769C223.672 235.872 223.641 235.971 223.591 236.062C223.542 236.152 223.475 236.232 223.394 236.296C223.316 236.361 223.226 236.41 223.129 236.44C223.032 236.47 222.93 236.48 222.829 236.469Z" fill="#231F20"/>
<path d="M321.45 262.312L267.646 303.141L292.671 369.967L388.544 365.27L321.45 262.312Z" fill="#231F20"/>
<path d="M292.671 370.751C292.511 370.752 292.355 370.705 292.223 370.615C292.092 370.525 291.99 370.397 291.933 370.248L266.908 303.421C266.846 303.265 266.838 303.093 266.883 302.932C266.929 302.77 267.026 302.627 267.159 302.526L320.963 261.682C321.049 261.616 321.148 261.569 321.254 261.545C321.36 261.52 321.47 261.519 321.576 261.541C321.682 261.559 321.782 261.599 321.872 261.659C321.961 261.718 322.037 261.796 322.094 261.887L389.172 364.844C389.252 364.958 389.299 365.092 389.309 365.231C389.318 365.369 389.29 365.508 389.227 365.632C389.165 365.756 389.069 365.861 388.952 365.935C388.834 366.009 388.699 366.05 388.56 366.054L292.734 370.767L292.671 370.751ZM268.589 303.421L293.205 369.164L387.13 364.562L321.246 263.52L268.589 303.421Z" fill="#231F20"/>
</svg>
