<svg width="1177" height="1091" viewBox="0 0 1177 1091" fill="none" xmlns="http://www.w3.org/2000/svg">
<path d="M210.05 847.963C75.8447 690.281 -18.5933 482.557 94.0051 302.437C212.992 148.331 430.926 -6.42669 659.925 1.5814C897.424 23.5898 946.419 180.245 946.415 302.467C946.405 562.68 1225.41 491.602 1167.4 764.099C1124.29 966.598 879.523 962.319 668.212 973.727C456.901 985.849 344.256 1005.65 210.05 847.963Z" fill="#E3F1F8"/>
<path d="M167.206 955.717C33.001 798.035 -61.4371 590.312 51.1613 410.191C170.148 256.085 388.082 101.327 617.081 109.336C854.581 131.344 903.575 287.999 903.571 410.222C903.562 670.434 1182.57 599.356 1124.55 871.853C1081.44 1074.35 836.68 1070.07 625.368 1081.48C414.057 1093.6 301.412 1113.4 167.206 955.717Z" fill="#BADCEF"/>
</svg>
