<svg width="792" height="670" viewBox="0 0 792 670" fill="none" xmlns="http://www.w3.org/2000/svg">
<g clip-path="url(#clip0_1027_4178)">
<path d="M-171.603 862.254C-305.614 714.525 -399.915 519.914 -287.479 351.163C-168.664 206.784 48.9543 61.7953 277.623 69.2973C514.778 89.9159 563.701 236.683 563.696 351.19C563.686 594.977 842.287 528.385 784.357 783.681C741.308 973.398 496.901 969.39 285.895 980.078C74.8896 991.435 -37.5923 1009.98 -171.603 862.254Z" fill="#E3F1F8"/>
</g>
<g clip-path="url(#clip1_1027_4178)">
<path d="M-205.04 963.158C-348.742 815.429 -449.863 620.817 -329.297 452.067C-201.892 307.689 31.4622 162.701 276.666 170.204C530.97 190.823 583.431 337.59 583.427 452.097C583.418 695.884 882.164 629.293 820.046 884.59C773.885 1074.31 511.804 1070.3 285.541 1080.98C59.2774 1092.34 -61.338 1110.89 -205.04 963.158Z" fill="#BADCEF"/>
</g>
<defs>
<clipPath id="clip0_1027_4178">
<rect width="791.553" height="669.949" fill="white" transform="translate(791.571 669.977) rotate(-179.998)"/>
</clipPath>
<clipPath id="clip1_1027_4178">
<rect width="748.575" height="561.679" fill="white" transform="translate(748.575 669.705) rotate(-179.998)"/>
</clipPath>
</defs>
</svg>
