<svg width="603" height="393" viewBox="0 0 603 393" fill="none" xmlns="http://www.w3.org/2000/svg">
<path d="M236.328 332.507C155.109 352.609 106.799 303.165 83.7793 269.607C60.7592 236.05 16.4417 17.7031 89.4995 11.9893C118.518 35.1715 151.819 91.9893 236.328 91.9893C339 91.9893 434 73.4892 491.5 97.4892C548.305 121.2 540.13 302.516 558.286 392.489C532.186 350.34 317.547 312.405 236.328 332.507Z" fill="#E3F1F8"/>
<path d="M421.399 311.989C197.094 281.533 222.971 356.486 116.575 330.482C10.1791 304.479 -10.846 109 4.99999 37.5C25.5 -55 87.5256 47.5468 172.225 92.4888C216.512 115.988 421.305 105.417 479.782 62.9893C520.442 33.4889 626.439 67.3034 597.679 290.944C593.177 325.947 548.685 327.584 421.399 311.989Z" fill="#BADCEF"/>
</svg>
