<svg width="1212" height="1039" viewBox="0 0 1212 1039" fill="none" xmlns="http://www.w3.org/2000/svg">
<path d="M378.307 643.081C269.765 523.428 193.386 365.804 284.451 229.126C380.684 112.188 556.942 -5.24395 742.151 0.833857C934.234 17.5354 973.859 136.409 973.856 229.153C973.85 426.607 1199.5 372.673 1152.58 579.449C1117.72 733.108 919.759 729.86 748.856 738.516C577.954 747.713 486.85 762.735 378.307 643.081Z" fill="#E3F1F8"/>
<path d="M178.008 913.273C34.3052 765.542 -66.8168 570.93 53.7473 402.181C181.152 257.803 414.505 112.817 659.708 120.322C914.013 140.944 966.475 287.711 966.471 402.218C966.464 646.005 1265.21 579.417 1203.09 834.713C1156.93 1024.43 894.853 1020.42 668.59 1031.1C442.326 1042.46 321.711 1061 178.008 913.273Z" fill="#BADCEF"/>
</svg>
