<svg width="2798" height="1186" viewBox="0 0 2798 1186" fill="none" xmlns="http://www.w3.org/2000/svg">
<path d="M1010.21 999.476C519.264 1064.53 223.195 873.427 92.7648 572.091C-37.6659 270.754 -21.5488 14.8051 295.872 19.4263C517.447 22.6522 770.475 212.564 1041.41 331.883C1395.19 487.683 1920.84 300.49 2132.52 335.11C2892.2 459.356 2855.16 1059.85 2331.27 1130.58C1875.06 1192.17 1501.16 934.421 1010.21 999.476Z" fill="#E3F1F8"/>
<path d="M1657.23 1010.52C985.847 925.025 979.533 1097.09 494.89 986C10.2466 874.907 -41.3983 267.836 307.035 204.5C488.676 171.482 659.048 306.271 924.712 410.271C1271.6 546.069 1550.5 499 1809.85 399.796C2184.34 256.554 3021.38 379.873 2685.23 936C2571.3 1124.5 2038.22 1054.3 1657.23 1010.52Z" fill="#BADCEF"/>
</svg>
