<svg width="793" height="671" viewBox="0 0 793 671" fill="none" xmlns="http://www.w3.org/2000/svg">
<g clip-path="url(#clip0_254_7530)">
<path d="M-173.508 847.936C-307.714 690.253 -402.152 482.53 -289.554 302.41C-170.567 148.303 47.3669 -6.45427 276.367 1.55381C513.866 23.5622 562.86 180.218 562.856 302.44C562.847 562.653 841.851 491.574 783.838 764.072C740.727 966.57 495.965 962.292 284.653 973.7C73.342 985.821 -39.303 1005.62 -173.508 847.936Z" fill="#E3F1F8"/>
</g>
<g clip-path="url(#clip1_254_7530)">
<path d="M-216.352 955.69C-350.558 798.007 -444.996 590.284 -332.397 410.164C-213.41 256.057 4.52319 101.3 233.523 109.308C471.022 131.316 520.017 287.972 520.012 410.194C520.003 670.406 799.007 599.328 740.994 871.826C697.883 1074.32 453.121 1070.05 241.81 1081.45C30.4983 1093.58 -82.1467 1113.37 -216.352 955.69Z" fill="#BADCEF"/>
</g>
<defs>
<clipPath id="clip0_254_7530">
<rect width="791.553" height="669.949" fill="white" transform="translate(792.012 670.949) rotate(-179.998)"/>
</clipPath>
<clipPath id="clip1_254_7530">
<rect width="748.575" height="561.679" fill="white" transform="translate(749.016 670.678) rotate(-179.998)"/>
</clipPath>
</defs>
</svg>
