<svg width="511" height="395" viewBox="0 0 511 395" fill="none" xmlns="http://www.w3.org/2000/svg">
<ellipse cx="88" cy="379.501" rx="88" ry="15.5" fill="#231F20"/>
<path d="M326.383 284.19H213.004V332.366H326.383V284.19Z" fill="white"/>
<path d="M326.384 333.243H213.005C212.778 333.238 212.562 333.144 212.402 332.981C212.242 332.818 212.149 332.598 212.145 332.367V284.191C212.149 283.96 212.242 283.74 212.402 283.576C212.562 283.413 212.778 283.319 213.005 283.314H326.384C326.611 283.319 326.827 283.413 326.987 283.576C327.147 283.74 327.24 283.96 327.244 284.191V332.367C327.24 332.598 327.147 332.818 326.987 332.981C326.827 333.144 326.611 333.238 326.384 333.243ZM213.94 331.49H325.598V285.067H213.94V331.49Z" fill="#231F20"/>
<path d="M358.074 331.566H181.337C177.039 331.566 173.555 335.114 173.555 339.491C173.555 343.868 177.039 347.416 181.337 347.416H358.074C362.371 347.416 365.856 343.868 365.856 339.491C365.856 335.114 362.371 331.566 358.074 331.566Z" fill="white"/>
<path d="M357.977 348.292H181.333C180.166 348.348 178.999 348.161 177.905 347.745C176.81 347.328 175.81 346.689 174.964 345.867C174.119 345.045 173.446 344.058 172.986 342.963C172.526 341.869 172.289 340.691 172.289 339.501C172.289 338.311 172.526 337.133 172.986 336.039C173.446 334.945 174.119 333.957 174.964 333.135C175.81 332.313 176.81 331.674 177.905 331.258C178.999 330.841 180.166 330.654 181.333 330.71H357.977C359.144 330.654 360.311 330.841 361.406 331.258C362.5 331.674 363.501 332.313 364.346 333.135C365.192 333.957 365.865 334.945 366.324 336.039C366.784 337.133 367.021 338.311 367.021 339.501C367.021 340.691 366.784 341.869 366.324 342.963C365.865 344.058 365.192 345.045 364.346 345.867C363.501 346.689 362.5 347.328 361.406 347.745C360.311 348.161 359.144 348.348 357.977 348.292ZM181.259 332.443C179.423 332.443 177.662 333.186 176.364 334.508C175.066 335.829 174.337 337.622 174.337 339.492C174.337 341.361 175.066 343.154 176.364 344.475C177.662 345.797 179.423 346.54 181.259 346.54H357.977C359.813 346.54 361.573 345.797 362.871 344.475C364.169 343.154 364.898 341.361 364.898 339.492C364.898 337.622 364.169 335.829 362.871 334.508C361.573 333.186 359.813 332.443 357.977 332.443H181.259Z" fill="#231F20"/>
<path d="M326.383 284.19V289.429C291.757 293.01 236.593 307.221 213.004 313.584V284.19H326.383Z" fill="#231F20"/>
<path d="M213.007 314.422C212.824 314.424 212.647 314.363 212.502 314.251C212.404 314.17 212.325 314.068 212.27 313.953C212.215 313.838 212.186 313.712 212.184 313.584V284.191C212.184 283.968 212.27 283.755 212.425 283.598C212.579 283.441 212.788 283.353 213.007 283.353H326.386C326.604 283.353 326.813 283.441 326.968 283.598C327.122 283.755 327.209 283.968 327.209 284.191V289.429C327.21 289.636 327.136 289.836 327.002 289.991C326.867 290.145 326.681 290.244 326.479 290.267C291.667 293.868 235.679 308.326 213.212 314.384L213.007 314.422ZM213.83 285.029V312.479C236.801 306.307 291.124 292.363 325.563 288.686V285.029H213.83Z" fill="#231F20"/>
<path d="M491.318 1.34473H48.0721C37.7719 1.34473 29.4219 9.84787 29.4219 20.337V265.294C29.4219 275.783 37.7719 284.286 48.0721 284.286H491.318C501.618 284.286 509.968 275.783 509.968 265.294V20.337C509.968 9.84787 501.618 1.34473 491.318 1.34473Z" fill="white"/>
<path d="M491.319 285.162H48.0732C42.9001 285.157 37.9404 283.062 34.2825 279.337C30.6246 275.612 28.5675 270.561 28.5625 265.294V20.3559C28.5675 15.0879 30.6246 10.0372 34.2825 6.31224C37.9404 2.58726 42.9001 0.492348 48.0732 0.487305H491.413C496.569 0.517483 501.505 2.62348 505.143 6.34575C508.781 10.068 510.825 15.1044 510.83 20.3559V265.294C510.825 270.561 508.768 275.612 505.11 279.337C501.452 283.062 496.492 285.157 491.319 285.162ZM48.0732 2.2589C43.3533 2.26395 38.8285 4.17684 35.4928 7.57727C32.1571 10.9777 30.2835 15.5875 30.2835 20.394V265.294C30.2835 270.1 32.1571 274.71 35.4928 278.11C38.8285 281.511 43.3533 283.424 48.0732 283.429H491.413C496.132 283.424 500.657 281.511 503.993 278.11C507.329 274.71 509.202 270.1 509.202 265.294V20.3559C509.197 17.9711 508.731 15.6108 507.829 13.4099C506.927 11.2091 505.608 9.21103 503.947 7.53008C502.286 5.84912 500.315 4.5183 498.148 3.61379C495.982 2.70929 493.661 2.24888 491.319 2.2589H48.0732Z" fill="#231F20"/>
<path d="M504.093 38.9477H30.6183C30.3916 38.9428 30.1755 38.849 30.0151 38.6857C29.8548 38.5225 29.7626 38.3025 29.7578 38.0717C29.7627 37.8427 29.8555 37.6248 30.0164 37.4646C30.1772 37.3045 30.3933 37.2148 30.6183 37.2148H504.093C504.317 37.2148 504.531 37.3051 504.689 37.4658C504.847 37.6265 504.935 37.8445 504.935 38.0717C504.935 38.3008 504.847 38.5207 504.69 38.6845C504.533 38.8482 504.318 38.9427 504.093 38.9477Z" fill="#231F20"/>
<path d="M270.714 254.683H268.638C267.927 254.302 267.235 253.883 266.505 253.559C234.405 238.701 209.769 217.061 193.551 187.953C185.659 173.793 180.182 158.373 177.351 142.349C175.73 133.374 175.065 124.247 175.368 115.127C175.368 113.698 175.948 113.032 177.538 112.765C179.783 112.384 182.009 111.832 184.198 111.241C195.122 108.193 203.895 102.593 209.676 93.5061C213.989 86.7975 216.032 78.8372 215.493 70.8372C215.4 69.4657 215.811 68.9323 217.364 68.6084C227.54 66.9321 237.66 65.0081 247.855 63.4079C259.594 61.3371 271.566 61.0098 283.397 62.4364C296.361 64.2271 309.23 66.6273 322.138 68.6846C323.522 68.9132 323.728 69.4847 323.765 70.5896C323.702 73.538 323.864 76.4869 324.252 79.4095C325.087 84.3694 326.88 89.1115 329.526 93.362C332.171 97.6125 335.618 101.287 339.666 104.174C346.05 108.615 353.331 111.544 360.972 112.746C363.423 113.203 363.946 114.213 364.003 116.251C364.378 130.551 362.425 144.815 358.222 158.465C346.999 195.649 323.728 224.966 287.681 245.844C282.2 249.026 276.382 251.807 270.714 254.683Z" fill="#004680"/>
<path d="M308.742 133.662H230.643C222.75 133.662 216.352 140.178 216.352 148.216V188.391C216.352 196.429 222.75 202.945 230.643 202.945H308.742C316.635 202.945 323.034 196.429 323.034 188.391V148.216C323.034 140.178 316.635 133.662 308.742 133.662Z" fill="white"/>
<path d="M296.362 146.044H243.03C242.038 146.044 241.086 145.642 240.385 144.928C239.683 144.213 239.289 143.244 239.289 142.234V120.689C239.486 112.609 242.776 104.928 248.457 99.2847C254.138 93.6412 261.76 90.4824 269.696 90.4824C277.632 90.4824 285.255 93.6412 290.935 99.2847C296.616 104.928 299.906 112.609 300.103 120.689V142.234C300.103 143.244 299.709 144.213 299.007 144.928C298.306 145.642 297.354 146.044 296.362 146.044ZM246.772 138.424H292.621V120.689C292.45 114.613 289.96 108.844 285.68 104.607C281.399 100.371 275.665 98.001 269.696 98.001C263.727 98.001 257.993 100.371 253.713 104.607C249.432 108.844 246.942 114.613 246.772 120.689V138.424Z" fill="white"/>
<path d="M269.702 167.932C275.343 167.932 279.916 163.275 279.916 157.531C279.916 151.787 275.343 147.13 269.702 147.13C264.061 147.13 259.488 151.787 259.488 157.531C259.488 163.275 264.061 167.932 269.702 167.932Z" fill="#6F93B3"/>
<path d="M272.545 159.531H266.84V183.762H272.545V159.531Z" fill="#6F93B3"/>
<path d="M54.3018 27.8608C57.7627 27.8608 60.5684 25.0037 60.5684 21.4792C60.5684 17.9548 57.7627 15.0977 54.3018 15.0977C50.8408 15.0977 48.0352 17.9548 48.0352 21.4792C48.0352 25.0037 50.8408 27.8608 54.3018 27.8608Z" fill="#ED2D24"/>
<path d="M76.2041 27.8608C79.6651 27.8608 82.4707 25.0037 82.4707 21.4792C82.4707 17.9548 79.6651 15.0977 76.2041 15.0977C72.7432 15.0977 69.9375 17.9548 69.9375 21.4792C69.9375 25.0037 72.7432 27.8608 76.2041 27.8608Z" fill="#D1D3D4"/>
<path d="M98.1104 27.8608C101.571 27.8608 104.377 25.0037 104.377 21.4792C104.377 17.9548 101.571 15.0977 98.1104 15.0977C94.6494 15.0977 91.8438 17.9548 91.8438 21.4792C91.8438 25.0037 94.6494 27.8608 98.1104 27.8608Z" fill="#D1D3D4"/>
<path d="M350.704 249.483C350.533 249.492 350.364 249.448 350.218 249.357C350.072 249.266 349.957 249.132 349.888 248.973C349.819 248.814 349.799 248.637 349.831 248.466C349.863 248.295 349.946 248.138 350.068 248.016L470.218 118.975C470.38 118.811 470.598 118.719 470.826 118.719C471.054 118.719 471.273 118.811 471.434 118.975C471.591 119.142 471.678 119.363 471.678 119.594C471.678 119.825 471.591 120.046 471.434 120.213L351.377 249.254C351.287 249.338 351.18 249.401 351.064 249.441C350.948 249.48 350.825 249.494 350.704 249.483Z" fill="#D1D3D4"/>
<path d="M137.242 104.745C137.071 104.745 136.904 104.693 136.762 104.595C136.62 104.498 136.51 104.359 136.446 104.198C136.381 104.036 136.366 103.859 136.401 103.688C136.437 103.518 136.521 103.362 136.644 103.24L187.749 52.1686C187.828 52.085 187.922 52.0186 188.027 51.9731C188.131 51.9277 188.244 51.9043 188.357 51.9043C188.471 51.9043 188.583 51.9277 188.688 51.9731C188.792 52.0186 188.887 52.085 188.965 52.1686C189.126 52.3329 189.217 52.5556 189.217 52.7877C189.217 53.0199 189.126 53.2425 188.965 53.4068L137.822 104.478C137.749 104.562 137.66 104.628 137.56 104.674C137.46 104.72 137.352 104.744 137.242 104.745Z" fill="#D1D3D4"/>
<path d="M392.94 136.443C392.829 136.445 392.719 136.424 392.616 136.382C392.513 136.339 392.42 136.276 392.341 136.195C392.18 136.031 392.09 135.808 392.09 135.576C392.09 135.344 392.18 135.121 392.341 134.957L452.351 71.1987C452.509 71.0365 452.723 70.9436 452.947 70.9396C453.171 70.9356 453.388 71.0209 453.552 71.1773C453.715 71.3338 453.812 71.549 453.822 71.7771C453.832 72.0053 453.754 72.2283 453.604 72.3988L393.52 136.176C393.366 136.336 393.159 136.431 392.94 136.443Z" fill="#D1D3D4"/>
<path d="M35.0513 247.616L36.4543 257.141C36.4543 257.141 42.0662 259.693 42.3655 261.293C42.6648 262.894 44.2361 267.313 43.862 268.57C43.0576 270.685 40.3639 269.923 40.3639 269.923C40.6734 271.167 40.7559 272.458 40.6071 273.733C40.2143 274.59 27.5127 275.638 25.642 272.971C23.7714 270.304 19.5625 242.701 19.5625 242.701" fill="white"/>
<path d="M33.1418 275.542C29.9805 275.542 26.0708 275.18 24.8736 273.504C22.9095 270.779 19.0747 245.691 18.6444 242.853C18.6258 242.74 18.6296 242.625 18.6554 242.514C18.6813 242.402 18.7287 242.298 18.795 242.205C18.8612 242.113 18.9449 242.035 19.0411 241.976C19.1373 241.917 19.2442 241.879 19.3553 241.862C19.466 241.843 19.5793 241.847 19.6886 241.874C19.7978 241.9 19.9008 241.948 19.9914 242.016C20.082 242.083 20.1585 242.168 20.2163 242.266C20.2741 242.364 20.3121 242.473 20.328 242.586C21.9368 253.197 24.9672 270.684 26.2579 272.475C27.5486 274.266 37.9681 273.846 39.8574 273.199C39.8706 272.192 39.7638 271.188 39.5394 270.208C39.5078 270.062 39.5135 269.91 39.5561 269.766C39.5987 269.623 39.6767 269.493 39.7826 269.389C39.8913 269.286 40.0237 269.213 40.1676 269.176C40.3116 269.14 40.4622 269.141 40.6056 269.179C40.6056 269.179 42.4763 269.694 43.0562 268.341C42.9505 266.609 42.5976 264.902 42.0086 263.274C41.8028 262.607 41.6345 262.017 41.541 261.598C40.0083 260.014 38.1489 258.797 36.0974 258.035C35.966 257.975 35.8512 257.883 35.7631 257.766C35.675 257.65 35.6164 257.513 35.5924 257.369L34.2081 247.844C34.1758 247.617 34.2336 247.386 34.3687 247.202C34.5037 247.018 34.705 246.896 34.9283 246.863C35.1515 246.83 35.3785 246.889 35.5591 247.026C35.7398 247.164 35.8594 247.369 35.8917 247.596L37.2198 256.74C39.0904 257.673 42.8317 259.597 43.2058 261.293C43.2058 261.674 43.4677 262.226 43.6361 262.874C44.4966 265.789 45.0765 267.941 44.6462 269.065C44.3938 269.711 43.9459 270.259 43.3675 270.629C42.789 270.999 42.11 271.172 41.4287 271.122C41.6671 272.137 41.6671 273.194 41.4287 274.208C41.2791 274.57 41.0359 275.066 37.5752 275.428C37.3321 275.351 35.4427 275.542 33.1418 275.542Z" fill="#231F20"/>
<path d="M40.3663 270.018C39.4401 268.353 38.7475 266.564 38.3086 264.703L40.3663 270.018Z" fill="white"/>
<path d="M40.3642 270.856C40.2222 270.856 40.0826 270.819 39.9583 270.749C39.834 270.679 39.7291 270.579 39.6534 270.456C38.6723 268.709 37.9356 266.83 37.4648 264.875C37.4129 264.65 37.4481 264.414 37.5631 264.215C37.6781 264.016 37.864 263.871 38.0821 263.808C38.3028 263.75 38.5371 263.784 38.7335 263.902C38.93 264.019 39.0724 264.212 39.1296 264.437C39.5308 266.208 40.1597 267.919 41.0003 269.523C41.0865 269.654 41.1355 269.807 41.1418 269.965C41.1481 270.122 41.1115 270.279 41.036 270.417C40.9606 270.555 40.8492 270.669 40.7141 270.746C40.5791 270.824 40.4257 270.862 40.2707 270.856H40.3642Z" fill="#231F20"/>
<path d="M140.575 247.616L139.191 257.141C139.191 257.141 133.579 259.693 133.261 261.293C132.943 262.894 131.391 267.313 131.765 268.57C132.569 270.685 135.263 269.923 135.263 269.923C134.953 271.167 134.871 272.458 135.02 273.733C135.413 274.59 148.114 275.638 149.985 272.971C151.855 270.304 156.064 242.701 156.064 242.701" fill="white"/>
<path d="M142.48 275.542C140.18 275.542 138.29 275.352 138.103 275.333C134.643 274.971 134.362 274.476 134.25 274.114C134.011 273.099 134.011 272.042 134.25 271.028C133.568 271.077 132.889 270.904 132.311 270.534C131.732 270.164 131.285 269.617 131.032 268.97C130.602 267.846 131.182 265.694 132.042 262.779C132.229 262.132 132.379 261.579 132.473 261.198C132.865 259.503 136.513 257.579 138.459 256.645L139.787 247.502C139.819 247.274 139.939 247.069 140.119 246.932C140.3 246.794 140.527 246.735 140.75 246.768C140.973 246.801 141.175 246.923 141.31 247.107C141.445 247.291 141.503 247.522 141.47 247.749L140.086 257.274C140.065 257.42 140.008 257.558 139.919 257.675C139.831 257.792 139.714 257.883 139.581 257.941C137.529 258.702 135.67 259.919 134.137 261.503C134.044 261.922 133.876 262.513 133.67 263.179C133.081 264.808 132.728 266.515 132.622 268.246C133.127 269.599 134.998 269.104 135.091 269.085C135.233 269.044 135.383 269.041 135.526 269.078C135.669 269.114 135.8 269.188 135.906 269.292C136.012 269.396 136.089 269.527 136.13 269.671C136.171 269.815 136.174 269.968 136.139 270.113C135.915 271.093 135.808 272.098 135.821 273.104C137.692 273.752 148.055 274.304 149.42 272.38C150.786 270.456 153.742 253.102 155.35 242.492C155.366 242.378 155.404 242.27 155.462 242.172C155.52 242.074 155.596 241.988 155.687 241.921C155.778 241.854 155.881 241.805 155.99 241.779C156.099 241.753 156.212 241.749 156.323 241.768C156.434 241.784 156.541 241.823 156.637 241.881C156.734 241.94 156.817 242.018 156.883 242.11C156.95 242.203 156.997 242.308 157.023 242.419C157.049 242.53 157.053 242.646 157.034 242.758C156.604 245.597 152.769 270.685 150.805 273.409C149.551 275.18 145.642 275.542 142.48 275.542Z" fill="#231F20"/>
<path d="M137.246 270.018C138.174 268.351 138.872 266.563 139.322 264.703L137.246 270.018Z" fill="white"/>
<path d="M137.246 270.856C137.087 270.856 136.931 270.81 136.797 270.722C136.604 270.6 136.467 270.406 136.414 270.181C136.361 269.956 136.398 269.72 136.516 269.522C137.41 267.931 138.078 266.218 138.499 264.436C138.557 264.216 138.696 264.026 138.888 263.909C139.08 263.792 139.31 263.755 139.528 263.807C139.639 263.834 139.743 263.883 139.834 263.952C139.926 264.02 140.003 264.107 140.06 264.207C140.118 264.306 140.155 264.417 140.17 264.532C140.184 264.646 140.176 264.763 140.145 264.874C139.683 266.823 138.952 268.696 137.975 270.437C137.898 270.563 137.79 270.667 137.663 270.74C137.535 270.814 137.392 270.853 137.246 270.856Z" fill="#231F20"/>
<path d="M152.209 163.494C152.209 163.494 145.288 138.101 137.151 128.938C129.014 119.775 106.79 110.06 69.9577 114.918C69.9577 114.918 50.8399 120.08 39.3168 131.243C27.7937 142.406 23.6596 162.274 23.6596 162.274C23.6596 162.274 9.76086 213.708 17.5427 251.14L40.327 252.55C40.327 252.55 36.8476 208.603 48.539 173.704C50.6715 217.518 54.0013 287.62 56.3208 356.217L83.2392 355.645L90.9088 267.542L93.7334 354.674H121.288C121.288 354.674 129.014 244.987 125.254 168.827C139.152 204.278 135.299 252.645 135.299 252.645L158.083 251.235C165.192 217.08 154.211 171.152 152.209 163.494Z" fill="#231F20"/>
<path d="M76.0561 84.6283C74.9712 77.7515 63.7287 76.0561 64.2898 84.1712C64.3708 86.9917 65.4313 89.6916 67.2829 91.7909C68.2195 92.8048 69.4286 93.5153 70.7593 93.8338C72.09 94.1522 73.4833 94.0645 74.7654 93.5816" fill="white"/>
<path d="M72.4816 95.0683C71.3804 95.0519 70.2932 94.8147 69.2822 94.3702C68.2711 93.9256 67.356 93.2825 66.5891 92.4776C64.572 90.1877 63.4127 87.2466 63.3155 84.172C63.1797 83.4217 63.1996 82.6508 63.3739 81.9088C63.5483 81.1668 63.8731 80.4702 64.3277 79.8637C64.7823 79.2573 65.3565 78.7544 66.0133 78.3875C66.6702 78.0206 67.3952 77.7978 68.1417 77.7333C70.167 77.5232 72.1964 78.0901 73.8328 79.3232C75.4693 80.5564 76.595 82.3669 76.9898 84.4006C77.026 84.5318 77.0346 84.6692 77.0153 84.8039C76.9959 84.9387 76.9489 85.0678 76.8774 85.1829C76.8059 85.298 76.7114 85.3964 76.6 85.4719C76.4887 85.5474 76.3631 85.5982 76.2312 85.621C76.0994 85.6439 75.9643 85.6382 75.8347 85.6044C75.7051 85.5706 75.584 85.5095 75.4791 85.4249C75.3743 85.3404 75.288 85.2344 75.226 85.1137C75.164 84.993 75.1276 84.8604 75.1192 84.7245C74.7926 83.1924 73.9284 81.8343 72.6885 80.9049C71.4487 79.9755 69.9185 79.5386 68.3849 79.6764C67.1129 79.8288 65.0365 80.5907 65.261 84.0196C65.3318 86.6408 66.3128 89.1516 68.0295 91.106C68.832 91.9886 69.873 92.6096 71.0214 92.891C72.1698 93.1723 73.3743 93.1014 74.4832 92.6871C74.7167 92.5837 74.9807 92.5777 75.2185 92.6703C75.4563 92.7629 75.649 92.9468 75.7552 93.1824C75.8576 93.4229 75.864 93.6946 75.7733 93.9399C75.6825 94.1852 75.5016 94.3849 75.2688 94.4968C74.3891 94.8833 73.4397 95.078 72.4816 95.0683Z" fill="#231F20"/>
<path d="M104.039 84.6283C105.105 77.7515 116.348 76.0561 115.787 84.1712C115.706 86.9917 114.645 89.6916 112.794 91.7909C111.857 92.8048 110.648 93.5153 109.317 93.8338C107.986 94.1522 106.593 94.0645 105.311 93.5816" fill="white"/>
<path d="M107.594 95.068C106.655 95.0697 105.725 94.8752 104.863 94.4965C104.615 94.3879 104.419 94.1834 104.319 93.9279C104.219 93.6725 104.223 93.3871 104.329 93.1345C104.436 92.8819 104.637 92.6828 104.888 92.5809C105.139 92.4791 105.419 92.4829 105.667 92.5916C106.773 93.0043 107.974 93.0743 109.119 92.793C110.265 92.5116 111.302 91.8914 112.102 91.0105C113.739 89.1103 114.69 86.6974 114.796 84.1717C115.02 80.7428 112.925 79.9808 111.672 79.8284C110.138 79.6907 108.608 80.1275 107.368 81.0569C106.128 81.9863 105.264 83.3445 104.937 84.8766C104.929 85.0125 104.893 85.1451 104.831 85.2657C104.769 85.3864 104.682 85.4925 104.577 85.577C104.473 85.6616 104.351 85.7227 104.222 85.7565C104.092 85.7903 103.957 85.7959 103.825 85.7731C103.694 85.7503 103.568 85.6995 103.457 85.624C103.345 85.5485 103.251 85.45 103.179 85.335C103.108 85.2199 103.061 85.0908 103.041 84.956C103.022 84.8212 103.031 84.6838 103.067 84.5527C103.458 82.5169 104.582 80.7038 106.22 79.4699C107.857 78.2361 109.889 77.6708 111.915 77.8854C112.648 77.9496 113.36 78.1667 114.008 78.523C114.655 78.8794 115.224 79.3675 115.678 79.957C116.132 80.5465 116.463 81.2249 116.649 81.9499C116.835 82.6749 116.873 83.4312 116.76 84.1717C116.653 87.2216 115.494 90.1355 113.486 92.4011C112.726 93.2198 111.813 93.877 110.802 94.3348C109.791 94.7925 108.7 95.0417 107.594 95.068Z" fill="#231F20"/>
<path d="M103.051 119.07L95.1756 167.075L92.2948 184.562L88.6284 166.884L78.6953 119.07H103.051Z" fill="#6F93B3"/>
<path d="M92.7788 135.604L95.1732 167.055L92.3486 184.562L88.6073 166.884L89.9916 136.1L87.0547 130.956L90.4779 125.565L95.2293 130.556L92.7788 135.604Z" fill="#ED2D24"/>
<path d="M103.051 119.071C101.885 121.215 100.153 122.984 98.0498 124.176C95.9467 125.368 93.5576 125.935 91.1537 125.814C88.6813 125.886 86.2331 125.302 84.0491 124.12C81.865 122.937 80.0202 121.197 78.6953 119.071L79.0694 114.251L79.9299 103.05L80.753 92.5918H100.993L101.667 101.145L101.872 103.926L103.051 119.071Z" fill="white"/>
<path d="M91.1513 126.785C88.5025 126.863 85.8795 126.235 83.5431 124.962C81.2066 123.688 79.2379 121.815 77.8324 119.527C77.739 119.366 77.6996 119.179 77.7202 118.994L79.7966 92.515C79.8109 92.2673 79.9177 92.0347 80.0951 91.8646C80.2725 91.6946 80.507 91.6002 80.7506 91.6006H100.991C101.233 91.6046 101.465 91.7006 101.642 91.8697C101.818 92.0388 101.926 92.2689 101.945 92.515L104.021 118.994C104.056 119.15 104.056 119.313 104.021 119.47C102.781 121.809 100.911 123.739 98.6318 125.035C96.3524 126.331 93.7575 126.938 91.1513 126.785ZM79.6656 118.822C80.9261 120.729 82.6407 122.28 84.6493 123.329C86.6579 124.379 88.8949 124.893 91.1513 124.823C93.3328 124.937 95.5035 124.441 97.4288 123.39C99.3541 122.34 100.961 120.773 102.076 118.86L100.093 93.5627H81.6485L79.6656 118.822Z" fill="#231F20"/>
<path d="M103.235 100.345C103.014 101.618 102.55 102.835 101.869 103.926C100.165 106.431 97.8769 108.467 95.2099 109.85C90.8514 112.308 84.3416 115.07 79.0664 114.251L79.9269 103.05C83.8042 103.518 87.7223 103.518 91.5996 103.05C95.0298 102.938 98.4233 102.296 101.664 101.145C102.187 100.897 102.73 100.65 103.235 100.345Z" fill="#231F20"/>
<path d="M81.1243 115.336C80.4044 115.343 79.6851 115.292 78.9731 115.184C78.7398 115.151 78.5281 115.027 78.3818 114.839C78.2355 114.651 78.1659 114.413 78.1874 114.174L79.0479 102.973C79.0822 102.714 79.2086 102.477 79.4033 102.307C79.6067 102.151 79.8619 102.082 80.1142 102.116C83.9172 102.571 87.7594 102.571 91.5624 102.116C94.8997 101.991 98.1987 101.349 101.346 100.211C101.851 99.9826 102.356 99.7349 102.824 99.4682C102.976 99.374 103.151 99.3242 103.329 99.3242C103.507 99.3242 103.682 99.374 103.834 99.4682C103.974 99.5741 104.083 99.7171 104.149 99.8816C104.215 100.046 104.235 100.226 104.208 100.402C103.953 101.757 103.445 103.051 102.711 104.212C100.941 106.866 98.5409 109.021 95.7339 110.479C92.3481 112.517 86.5117 115.336 81.1243 115.336ZM80.1142 113.431C85.5764 113.87 92.161 110.536 94.8173 109.05C97.3679 107.724 99.5441 105.757 101.14 103.335C101.388 102.926 101.607 102.5 101.795 102.059C98.549 103.189 95.1586 103.831 91.7308 103.964C88.1119 104.355 84.4626 104.355 80.8437 103.964L80.1142 113.431Z" fill="#231F20"/>
<path d="M91.4518 105.678H89.5811C85.4813 105.658 81.5561 103.986 78.664 101.026C75.772 98.0668 74.1484 94.0615 74.1484 89.8864V64.8936L91.9943 69.4083L106.959 64.8936V89.8864C106.959 91.9603 106.558 94.0138 105.779 95.9298C105 97.8457 103.857 99.5866 102.417 101.053C100.977 102.519 99.2677 103.683 97.3863 104.476C95.5048 105.27 93.4883 105.678 91.4518 105.678Z" fill="white"/>
<path d="M91.4518 106.669H89.5812C85.2249 106.644 81.0551 104.866 77.9817 101.721C74.9083 98.5774 73.1807 94.3231 73.1758 89.8868V64.8939C73.1784 64.7438 73.2132 64.5961 73.2779 64.4612C73.3425 64.3263 73.4354 64.2074 73.5499 64.1129C73.667 64.0259 73.8011 63.9655 73.9431 63.9359C74.0851 63.9063 74.2317 63.9082 74.373 63.9414L91.9756 68.38L106.697 63.9605C106.839 63.9143 106.99 63.9041 107.137 63.9306C107.284 63.9572 107.422 64.0197 107.539 64.1129C107.66 64.2026 107.759 64.32 107.827 64.4557C107.895 64.5914 107.931 64.7415 107.932 64.8939V89.8868C107.927 94.3363 106.189 98.602 103.1 101.748C100.01 104.895 95.8212 106.664 91.4518 106.669ZM75.1025 66.1512V89.8868C75.1124 93.8126 76.6495 97.5744 79.3772 100.349C82.1049 103.123 85.801 104.683 89.656 104.688H91.5267C95.3688 104.663 99.0456 103.094 101.757 100.322C104.469 97.5498 105.996 93.7994 106.005 89.8868V66.2083L92.3497 70.3421C92.1846 70.3892 92.0099 70.3892 91.8447 70.3421L75.1025 66.1512Z" fill="#231F20"/>
<path d="M74.1094 78.4573V77.0286H74.39L77.0276 76.4761C78.4419 76.1213 79.8921 75.9359 81.3487 75.9237C83.4491 75.9975 85.5365 76.2911 87.5779 76.8C89.7142 77.3416 91.9386 77.4195 94.1064 77.0286C95.7152 76.7238 97.3052 76.3999 98.9139 76.1332C100.106 75.9237 101.318 75.8662 102.524 75.9618C104.358 76.2254 106.175 76.5942 107.968 77.0667C108.094 77.0856 108.207 77.154 108.284 77.2573C108.361 77.3606 108.395 77.4905 108.379 77.6191V78.8573C108.384 78.9684 108.358 79.0787 108.305 79.176C108.253 79.2734 108.175 79.3542 108.08 79.4097C107.761 79.6214 107.513 79.9271 107.369 80.286C107.269 80.5331 107.187 80.7879 107.126 81.048C106.864 81.9814 106.64 82.9529 106.359 83.8864C106.123 84.7558 105.675 85.5505 105.057 86.1966C104.439 86.8426 103.671 87.3192 102.824 87.582C101.544 88.0375 100.169 88.1362 98.8391 87.8677C97.8425 87.7335 96.8923 87.357 96.0685 86.7702C95.2448 86.1833 94.5719 85.4033 94.1064 84.4959C93.654 83.606 93.2845 82.6749 93.0027 81.7147C92.8299 81.2425 92.6105 80.7894 92.348 80.3622C92.2981 80.2806 92.2326 80.2099 92.1556 80.1543C92.0785 80.0987 91.9913 80.0593 91.8991 80.0384C91.5692 80.0094 91.2375 80.0094 90.9076 80.0384C90.7551 80.0321 90.6045 80.0746 90.477 80.16C90.3495 80.2455 90.2515 80.3695 90.1968 80.5146C90.0113 80.9261 89.8611 81.3531 89.7478 81.7909C89.4543 82.9932 88.9333 84.1255 88.2139 85.1246C87.4712 86.3514 86.3135 87.2593 84.959 87.6772C84.4486 87.8046 83.9297 87.8938 83.4064 87.9439C81.9187 88.1083 80.4142 87.8922 79.0291 87.3153C78.1284 86.9731 77.3915 86.291 76.9714 85.4103C76.3465 84.0279 75.8577 82.5858 75.5123 81.1051C75.3954 80.578 75.1437 80.0917 74.7828 79.6955C74.4374 79.3641 74.202 78.9313 74.1094 78.4573Z" fill="black"/>
<path d="M110.103 78.4565H109.747C109.513 78.3551 109.327 78.1662 109.226 77.9287C109.125 77.6911 109.117 77.4232 109.205 77.1802C110.491 74.1088 111.154 70.8041 111.154 67.465C111.154 64.1259 110.491 60.8212 109.205 57.7498C107.881 54.7567 105.796 52.1787 103.165 50.2829C100.533 48.387 97.4517 47.2425 94.2397 46.9678C91.6454 46.9544 89.0625 47.32 86.5701 48.0536C83.6357 48.6372 80.8404 49.7952 78.3394 51.4635C75.0023 54.2057 72.7773 58.1064 72.0914 62.4169C71.4133 66.827 71.2626 71.3045 71.6425 75.7515C71.6527 76.0111 71.5624 76.2645 71.3909 76.4569C71.2195 76.6493 70.9806 76.7654 70.7259 76.7802C70.5991 76.7879 70.472 76.7697 70.3521 76.7267C70.2323 76.6837 70.1221 76.6168 70.028 76.5298C69.9339 76.4429 69.8578 76.3377 69.8042 76.2204C69.7506 76.1031 69.7205 75.976 69.7157 75.8468C69.3177 71.2213 69.481 66.5635 70.2021 61.9788C70.9686 57.2211 73.4251 52.9161 77.1047 49.8824C79.8002 48.0327 82.8251 46.7384 86.0089 46.0725C88.6785 45.2935 91.4441 44.9086 94.221 44.9295C97.7968 45.2108 101.233 46.4662 104.168 48.5642C107.104 50.6623 109.431 53.5257 110.907 56.8545C112.291 60.1676 113.004 63.7311 113.004 67.3317C113.004 70.9322 112.291 74.4957 110.907 77.8089C110.847 77.9836 110.74 78.1374 110.598 78.2521C110.455 78.3668 110.283 78.4378 110.103 78.4565Z" fill="#231F20"/>
<path d="M92.9123 94.5529C92.0997 94.5617 91.2874 94.5171 90.4804 94.4196C90.3538 94.408 90.2308 94.3702 90.119 94.3086C90.0072 94.2469 89.9089 94.1628 89.8301 94.0611C89.7513 93.9595 89.6937 93.8426 89.6608 93.7175C89.6279 93.5925 89.6203 93.4619 89.6387 93.3338C89.6526 93.2058 89.6913 93.082 89.7526 92.9694C89.8139 92.8568 89.8965 92.7578 89.9957 92.6781C90.0949 92.5983 90.2087 92.5394 90.3305 92.5048C90.4522 92.4702 90.5795 92.4606 90.7049 92.4765C92.0484 92.6145 93.402 92.6145 94.7455 92.4765C95.0261 91.3145 93.8663 86.6665 92.0892 81.9803C92.0437 81.8552 92.0229 81.7222 92.0279 81.589C92.033 81.4557 92.0637 81.3247 92.1184 81.2036C92.1731 81.0824 92.2508 80.9734 92.3468 80.8828C92.4429 80.7922 92.5556 80.7217 92.6784 80.6754C92.8013 80.6291 92.9318 80.6079 93.0627 80.6131C93.1936 80.6182 93.3222 80.6495 93.4412 80.7052C93.5602 80.7609 93.6672 80.84 93.7562 80.9378C93.8452 81.0357 93.9144 81.1504 93.9598 81.2755C95.1009 84.3043 97.7011 91.5812 96.4103 93.6386C96.2931 93.8486 96.1285 94.0272 95.93 94.1597C95.7316 94.2922 95.5051 94.3747 95.2693 94.4005C94.4881 94.5083 93.7005 94.5592 92.9123 94.5529Z" fill="#231F20"/>
<path d="M86.363 99.0099C86.14 98.99 85.9309 98.8909 85.7724 98.7299C85.6139 98.569 85.5161 98.3564 85.496 98.1295C85.476 97.9025 85.5349 97.6756 85.6627 97.4884C85.7904 97.3013 85.9787 97.1658 86.1946 97.1057C86.4939 97.1057 93.7707 95.6394 98.4098 96.82C98.5339 96.8512 98.6507 96.907 98.7536 96.9842C98.8565 97.0614 98.9435 97.1585 99.0095 97.2699C99.0755 97.3813 99.1193 97.5049 99.1384 97.6335C99.1574 97.7622 99.1514 97.8934 99.1207 98.0197C99.0545 98.2721 98.8946 98.4886 98.6748 98.6235C98.455 98.7585 98.1924 98.8014 97.9422 98.7433C93.6958 97.6579 86.7184 99.0099 86.55 99.0289L86.363 99.0099Z" fill="#231F20"/>
<path d="M94.4996 354.674L94.3125 372.79L106.771 375.057L107.332 371.247C109.237 373.678 111.604 375.693 114.291 377.171C118.2 379.076 141.06 387.153 139.114 379.343C137.169 371.533 127.685 368.275 123.494 363.703C122.282 362.465 121.352 360.969 120.774 359.323C120.195 357.676 119.98 355.919 120.146 354.179" fill="white"/>
<path d="M134.924 383.476C127.759 383.476 115.432 378.638 113.935 377.914C111.659 376.722 109.612 375.121 107.893 373.19L107.612 375.095C107.593 375.209 107.552 375.319 107.491 375.417C107.43 375.515 107.35 375.6 107.257 375.666C107.168 375.737 107.065 375.787 106.955 375.813C106.845 375.839 106.731 375.841 106.621 375.819L94.2186 373.552C94.0204 373.516 93.8407 373.411 93.7108 373.254C93.581 373.097 93.5091 372.899 93.5078 372.694L93.6949 354.578C93.6998 354.349 93.7926 354.131 93.9534 353.971C94.1143 353.811 94.3303 353.721 94.5554 353.721C94.6675 353.721 94.7785 353.744 94.8819 353.788C94.9852 353.832 95.0789 353.897 95.1573 353.979C95.2357 354.061 95.2973 354.157 95.3385 354.264C95.3797 354.37 95.3996 354.483 95.3971 354.597L95.2288 371.971L106.116 373.875L106.527 370.98C106.553 370.81 106.627 370.652 106.74 370.524C106.853 370.397 107.001 370.306 107.165 370.264C107.328 370.221 107.5 370.228 107.66 370.284C107.819 370.341 107.959 370.443 108.061 370.58C109.881 372.922 112.146 374.866 114.721 376.295C118.649 378.2 134.886 383.667 138.029 381.038C138.309 380.809 138.59 380.428 138.347 379.457C137.131 374.599 132.735 371.628 128.657 368.751C126.592 367.45 124.673 365.923 122.933 364.198C121.633 362.879 120.639 361.282 120.021 359.522C119.403 357.763 119.177 355.885 119.36 354.026C119.42 353.822 119.552 353.648 119.729 353.535C119.907 353.423 120.119 353.38 120.325 353.415C120.531 353.45 120.718 353.561 120.85 353.726C120.982 353.891 121.051 354.099 121.043 354.312C120.898 355.912 121.101 357.525 121.638 359.036C122.175 360.548 123.032 361.92 124.149 363.055C125.806 364.671 127.624 366.108 129.574 367.342C133.801 370.256 138.59 373.571 139.956 379.057C140.165 379.643 140.194 380.281 140.037 380.884C139.879 381.487 139.544 382.026 139.076 382.429C137.844 383.236 136.384 383.605 134.924 383.476Z" fill="#231F20"/>
<path d="M82.2291 354.674L82.4162 372.79L69.9017 374.961L69.3405 371.151C67.45 373.592 65.0961 375.62 62.4192 377.114C58.5095 379.019 35.6317 387.096 37.5959 379.285C39.5601 371.475 49.0254 368.218 53.2157 363.646C54.4285 362.408 55.3576 360.912 55.9364 359.265C56.5153 357.618 56.7296 355.862 56.5641 354.121" fill="white"/>
<path d="M41.8429 383.477C40.389 383.604 38.9348 383.235 37.7088 382.429C37.241 382.026 36.9059 381.487 36.7487 380.884C36.5915 380.281 36.6197 379.643 36.8296 379.057C38.1952 373.571 42.984 370.256 47.2116 367.342C49.1607 366.108 50.9788 364.672 52.6365 363.056C53.7547 361.928 54.6145 360.564 55.1546 359.059C55.6946 357.554 55.9015 355.946 55.7604 354.35C55.728 354.123 55.7843 353.892 55.9172 353.707C56.0501 353.522 56.249 353.397 56.4713 353.359C56.582 353.338 56.6959 353.339 56.8062 353.362C56.9165 353.386 57.0211 353.432 57.1135 353.498C57.206 353.564 57.2846 353.648 57.3445 353.745C57.4045 353.842 57.4447 353.951 57.4627 354.064C57.6247 355.92 57.3854 357.788 56.7617 359.539C56.1379 361.29 55.1448 362.881 53.8524 364.199C52.1123 365.923 50.1929 367.45 48.1282 368.751C43.9567 371.628 39.6543 374.6 38.4384 379.457C38.1952 380.429 38.4384 380.81 38.7564 381.038C41.899 383.667 58.1361 378.2 62.0644 376.295C64.6395 374.866 66.9046 372.922 68.7239 370.58C68.8279 370.446 68.9684 370.345 69.128 370.291C69.2876 370.237 69.4593 370.231 69.6218 370.275C69.7812 370.318 69.9246 370.408 70.0344 370.533C70.1441 370.659 70.2153 370.814 70.2391 370.98L70.6693 373.876L81.5564 371.971L81.3693 354.598C81.3693 354.365 81.46 354.142 81.6214 353.978C81.7828 353.814 82.0016 353.721 82.2298 353.721C82.4548 353.721 82.6709 353.811 82.8318 353.971C82.9926 354.132 83.0854 354.35 83.0903 354.579L83.2774 372.695C83.2761 372.9 83.2042 373.098 83.0744 373.254C82.9445 373.411 82.7648 373.516 82.5665 373.552L70.1082 375.819C69.9946 375.842 69.8776 375.84 69.7648 375.814C69.652 375.787 69.5459 375.737 69.4534 375.666C69.3627 375.599 69.2861 375.513 69.2283 375.415C69.1705 375.317 69.1325 375.208 69.1167 375.095L68.8361 373.19C67.1171 375.122 65.0704 376.722 62.794 377.914C61.2975 378.638 48.9513 383.477 41.8429 383.477Z" fill="#231F20"/>
<path d="M120.912 231.214H99.25C99.0468 231.217 98.8484 231.151 98.6859 231.027C98.5234 230.903 98.4059 230.727 98.3521 230.528L92.6092 209.25L87.5585 229.175C87.5051 229.382 87.3863 229.565 87.2207 229.695C87.055 229.826 86.8516 229.898 86.6419 229.899L56.9924 229.137C56.8704 229.135 56.7501 229.108 56.6386 229.057C56.527 229.007 56.4265 228.934 56.3429 228.844C56.2592 228.753 56.1942 228.647 56.1516 228.53C56.1089 228.414 56.0895 228.29 56.0945 228.166C56.0994 227.916 56.2001 227.679 56.375 227.505C56.5499 227.33 56.785 227.232 57.0298 227.232L85.9311 227.975L91.6739 205.306C91.7243 205.103 91.8402 204.924 92.003 204.796C92.1659 204.668 92.3662 204.6 92.5718 204.602C92.7774 204.6 92.9778 204.668 93.1406 204.796C93.3035 204.924 93.4194 205.103 93.4697 205.306L99.9608 229.309H120.912C121.16 229.309 121.398 229.409 121.573 229.588C121.749 229.766 121.847 230.009 121.847 230.261C121.847 230.386 121.823 230.51 121.776 230.626C121.729 230.741 121.66 230.846 121.573 230.935C121.486 231.023 121.383 231.093 121.27 231.141C121.156 231.189 121.035 231.214 120.912 231.214Z" fill="white"/>
<path d="M86.8086 131.018L90.4473 126.075L95.7031 130.606L92.873 135.549L95.2988 166.853L92.4687 186.213L88.4258 167.677L89.6387 135.961L86.8086 131.018Z" stroke="black"/>
</svg>
