<svg width="192" height="140" viewBox="0 0 192 140" fill="none" xmlns="http://www.w3.org/2000/svg">
<path d="M138.19 12.6685H53.707V119.722H138.19V12.6685Z" fill="white"/>
<path d="M138.183 120.014H53.7062C53.6287 120.014 53.5544 119.983 53.4996 119.928C53.4448 119.874 53.4141 119.799 53.4141 119.722V12.6686C53.4141 12.5911 53.4448 12.5168 53.4996 12.462C53.5544 12.4072 53.6287 12.3765 53.7062 12.3765H138.183C138.26 12.3765 138.334 12.4072 138.389 12.462C138.444 12.5168 138.475 12.5911 138.475 12.6686V119.722C138.475 119.799 138.444 119.874 138.389 119.928C138.334 119.983 138.26 120.014 138.183 120.014ZM53.9918 119.43H137.897V12.9542H53.9918V119.43Z" fill="#231F20"/>
<path d="M80.5017 76.0161C77.1078 76.4249 73.8916 77.7596 71.2055 79.8741C66.7034 83.4066 65.4219 95.9433 65.4219 95.9433L73.9346 99.3165L69.5986 128.719H115.416L117.826 98.0283L128.271 87.404C128.271 87.404 129.075 77.1184 115.09 76.6337C98.822 76.0958 80.5017 76.0161 80.5017 76.0161Z" fill="#004680"/>
<path d="M116.87 67.6162C118.284 66.7397 119.453 65.6241 119.665 64.741C119.804 63.7601 119.694 62.7602 119.346 61.8326C116.637 51.7727 117.939 40.5441 112.899 31.4272C112.287 30.1763 111.375 29.097 110.243 28.2864C109.673 27.8909 109.004 27.6632 108.311 27.6291C107.619 27.5951 106.931 27.7561 106.325 28.0938C101.876 19.4616 89.4191 24.7073 85.5877 31.2479C81.5372 38.1736 78.9475 46.2414 75.7868 53.612C74.8107 55.8896 73.7947 58.2602 73.9541 60.7502C74.1135 63.2403 75.7005 65.8167 78.1507 66.1952L79.585 63.9906C78.921 64.5816 79.0538 65.7437 79.6514 66.4143C80.3132 67.0348 81.1297 67.466 82.0153 67.6627C90.5878 70.3652 99.8309 72.6561 108.463 70.1594C109.791 69.7676 111.391 68.7185 110.947 67.4037C111.584 69.7543 114.592 69.0372 116.87 67.6162Z" fill="white"/>
<path d="M100.535 71.5138C94.353 71.5138 88.0182 69.8604 81.9425 67.9414C81.0068 67.7341 80.1457 67.2749 79.4524 66.6133C79.19 66.3154 79.0052 65.9573 78.9145 65.5708L78.4099 66.3544C78.3783 66.4014 78.3342 66.4388 78.2826 66.4622C78.231 66.4857 78.1739 66.4943 78.1177 66.4872C75.4085 66.0689 73.8082 63.2335 73.6754 60.7766C73.5426 58.1803 74.5984 55.6969 75.5347 53.5056C76.4709 51.3144 77.3674 49.0168 78.2439 46.799C80.3289 41.4869 82.4936 35.9954 85.3489 31.1083C87.9585 26.6593 94.1338 23.14 99.1405 23.2861C100.646 23.2786 102.124 23.6862 103.412 24.4641C104.701 25.2419 105.75 26.3599 106.445 27.6952C107.084 27.4117 107.785 27.2952 108.482 27.3567C109.179 27.4183 109.849 27.6559 110.429 28.0471C111.594 28.8899 112.535 30.0046 113.171 31.2942C116.292 36.9383 117.016 43.4856 117.713 49.8137C118.053 53.841 118.699 57.8367 119.645 61.766L119.685 61.8988C120.022 62.8316 120.118 63.8342 119.964 64.8139C119.745 65.7103 118.596 66.9055 117.042 67.8683C115.084 69.0702 113.198 69.5085 112.003 69.037C111.7 68.9196 111.43 68.7332 111.212 68.4925C111.19 68.5497 111.163 68.6052 111.133 68.6585C110.534 69.5554 109.618 70.1933 108.57 70.4447C105.955 71.1795 103.25 71.5394 100.535 71.5138ZM79.4789 64.6877C79.4544 64.7766 79.4388 64.8679 79.4325 64.9599C79.4107 65.4204 79.5704 65.871 79.8774 66.2149C80.5036 66.795 81.2741 67.1963 82.1085 67.377C90.7806 70.1127 99.9639 72.3106 108.39 69.8737C109.283 69.6584 110.069 69.1278 110.602 68.3796C110.733 68.1433 110.771 67.8658 110.708 67.6027L110.668 67.4699C110.648 67.397 110.658 67.3193 110.694 67.2533C110.731 67.1872 110.792 67.1378 110.864 67.1155C110.936 67.0932 111.014 67.0996 111.081 67.1335C111.149 67.1674 111.201 67.2261 111.226 67.2973C111.226 67.3504 111.226 67.3969 111.266 67.4434C111.331 67.6772 111.45 67.8928 111.612 68.0736C111.775 68.2543 111.976 68.3954 112.202 68.4859C113.211 68.8843 114.944 68.4859 116.717 67.357C118.125 66.4872 119.201 65.4048 119.373 64.6611C119.5 63.7773 119.404 62.8758 119.094 62.0383V61.9055C118.14 57.9477 117.487 53.9233 117.142 49.8668C116.478 43.5918 115.741 37.1044 112.673 31.5598C112.083 30.3557 111.208 29.314 110.123 28.5252C109.601 28.1589 108.986 27.9461 108.349 27.9109C107.712 27.8757 107.078 28.0195 106.518 28.326C106.484 28.3484 106.446 28.3634 106.406 28.3701C106.366 28.3769 106.325 28.3752 106.285 28.3652C106.246 28.3552 106.209 28.3371 106.177 28.3121C106.145 28.287 106.119 28.2556 106.099 28.2198C105.474 26.9075 104.488 25.8 103.257 25.0264C102.026 24.2528 100.601 23.845 99.1472 23.8505C94.3198 23.731 88.3834 27.1042 85.8668 31.3938C83.0248 36.2345 80.8734 41.706 78.795 46.9982C77.9185 49.2227 77.0154 51.5202 76.0792 53.7181C75.1429 55.916 74.1402 58.2733 74.2664 60.7301C74.3859 62.9015 75.7405 65.3783 78.038 65.8696L78.9677 64.4354C79.0577 64.1784 79.2133 63.9495 79.4192 63.7713C79.4721 63.7281 79.5385 63.7047 79.6068 63.7053C79.6752 63.7059 79.7411 63.7305 79.7932 63.7747C79.8454 63.8189 79.8803 63.88 79.8921 63.9473C79.9038 64.0146 79.8915 64.084 79.8574 64.1432L79.4789 64.6877Z" fill="#231F20"/>
<path d="M115.042 76.6399C115.042 76.6399 109.265 83.5523 97.2067 83.393C85.1481 83.2336 80.5 76.0024 80.5 76.0024C83.0787 74.9598 85.4853 73.5338 87.6382 71.7726C87.8523 71.6 88.0441 71.4015 88.2093 71.1816C90.1349 68.4525 89.4975 61.0554 89.4975 61.0554L103.156 60.896C103.156 60.896 102.95 64.2493 102.944 67.3702C102.944 69.5614 103.037 71.6332 103.369 72.3636C104.172 74.1365 115.042 76.6399 115.042 76.6399Z" fill="white"/>
<path d="M97.6111 83.6987H97.206C85.1342 83.5327 80.3001 76.2484 80.2536 76.1687C80.2358 76.1302 80.2266 76.0883 80.2266 76.0459C80.2266 76.0034 80.2358 75.9615 80.2536 75.923C80.2682 75.8827 80.2911 75.8459 80.3209 75.815C80.3506 75.7841 80.3865 75.7598 80.4263 75.7437C82.9731 74.7089 85.3519 73.3013 87.4848 71.567C87.6797 71.4106 87.8538 71.2298 88.0027 71.0292C89.8487 68.413 89.2511 61.1685 89.2445 61.0689C89.2411 61.0293 89.2458 60.9895 89.2584 60.9518C89.271 60.9142 89.2911 60.8794 89.3175 60.8498C89.3731 60.7908 89.4491 60.7552 89.53 60.7502L103.182 60.5908C103.262 60.5908 103.342 60.5908 103.401 60.6838C103.428 60.7132 103.448 60.7479 103.461 60.7856C103.474 60.8234 103.478 60.8633 103.474 60.9029C103.474 60.9029 103.275 64.2828 103.269 67.3638C103.269 70.6839 103.481 71.826 103.667 72.2311C104.205 73.4197 110.971 75.3852 115.141 76.348C115.19 76.3579 115.235 76.3803 115.272 76.4128C115.309 76.4454 115.337 76.4872 115.354 76.5339C115.367 76.5813 115.369 76.6312 115.36 76.6796C115.351 76.728 115.33 76.7736 115.301 76.8128C115.208 76.9124 109.391 83.6987 97.6111 83.6987ZM80.9509 76.1421C81.9734 77.4702 86.8341 82.9815 97.2127 83.1143C107.385 83.2671 113.109 78.2139 114.477 76.8194C112.166 76.2683 103.853 74.1634 103.089 72.4967C102.79 71.8327 102.638 70.1593 102.638 67.3837C102.638 64.8405 102.784 62.1114 102.837 61.2017L89.7956 61.3544C89.8952 62.8153 90.194 68.8711 88.4344 71.3612C88.2544 71.6073 88.0447 71.8304 87.8102 72.0252C85.7307 73.7161 83.4211 75.1023 80.9509 76.1421Z" fill="#231F20"/>
<path d="M103.159 60.9097C103.159 60.9097 102.953 64.263 102.946 67.3838C98.4243 70.9828 92.2224 71.7797 87.6406 71.7863C87.8547 71.6137 88.0465 71.4152 88.2117 71.1953C90.1373 68.4662 89.4999 61.069 89.4999 61.069L103.159 60.9097Z" fill="#231F20"/>
<path d="M87.6406 72.1381C87.5682 72.1374 87.4978 72.1148 87.4386 72.0733C87.3793 72.0318 87.334 71.9734 87.3086 71.9057C87.2851 71.8383 87.2828 71.7654 87.3017 71.6966C87.3207 71.6278 87.3601 71.5664 87.4148 71.5206C87.6041 71.3651 87.7755 71.1892 87.9261 70.996C89.7588 68.3997 89.1612 61.1752 89.1545 61.0955C89.1484 61.0486 89.1529 61.0009 89.1679 60.9561C89.1828 60.9112 89.2078 60.8703 89.2409 60.8365C89.2733 60.7996 89.3131 60.7699 89.3577 60.7494C89.4023 60.7288 89.4507 60.7177 89.4998 60.717L103.152 60.5576C103.201 60.551 103.252 60.558 103.297 60.5779C103.343 60.5978 103.382 60.6298 103.411 60.6705C103.476 60.7408 103.512 60.8335 103.511 60.9295C103.511 60.9295 103.305 64.3093 103.298 67.3904C103.299 67.443 103.287 67.4949 103.264 67.5422C103.241 67.5894 103.207 67.6307 103.165 67.6626C98.5172 71.3479 92.1625 72.1315 87.6406 72.1381ZM89.8783 61.4142C89.9846 62.9879 90.2435 68.9243 88.4972 71.3745V71.4077C92.7801 71.3081 98.4574 70.4515 102.614 67.1978C102.614 64.7542 102.754 62.1911 102.807 61.2217L89.8783 61.4142Z" fill="#231F20"/>
<path d="M85.8597 50.7034C85.8879 49.9062 85.7477 49.112 85.448 48.3727C84.9699 47.0845 84.0403 45.8096 82.8783 45.8893C81.9553 45.9491 81.1917 46.8853 80.8862 47.9544C80.6596 49.0537 80.6937 50.1908 80.9858 51.2745C81.4506 53.3529 82.5197 55.4777 84.2461 56.0089" fill="white"/>
<path d="M84.2781 56.2748H84.1918C81.9142 55.5709 81.0178 52.5762 80.7322 51.3212C80.4263 50.2032 80.3944 49.0279 80.6393 47.8949C80.9713 46.6133 81.881 45.6771 82.8571 45.6107C84.1851 45.531 85.2144 46.9387 85.719 48.2667C86.0341 49.0462 86.1812 49.8834 86.1506 50.7236C86.1423 50.7993 86.1053 50.869 86.0473 50.9183C85.9893 50.9677 85.9146 50.9931 85.8385 50.9892C85.8007 50.9876 85.7636 50.9783 85.7295 50.9618C85.6953 50.9454 85.6649 50.9222 85.6401 50.8936C85.6152 50.865 85.5964 50.8317 85.5849 50.7956C85.5734 50.7595 85.5693 50.7215 85.5729 50.6838C85.5969 49.9269 85.4611 49.1735 85.1745 48.4726C84.7628 47.3703 83.9195 46.0954 82.8969 46.1751C82.1732 46.2282 81.4627 47.0051 81.197 48.021C80.9816 49.0678 81.0158 50.1506 81.2966 51.1818C81.8411 53.5922 82.9833 55.2788 84.3578 55.7037C84.4317 55.7267 84.4935 55.778 84.5296 55.8465C84.5657 55.915 84.5732 55.995 84.5503 56.069C84.5323 56.1275 84.4962 56.1788 84.4474 56.2158C84.3985 56.2527 84.3393 56.2734 84.2781 56.2748Z" fill="#231F20"/>
<path d="M96.7686 66.3146L95.3808 66.2482C93.8107 66.1767 92.27 65.7961 90.8471 65.1284C89.4242 64.4606 88.147 63.5187 87.0886 62.3567C86.0302 61.1947 85.2114 59.8353 84.679 58.3564C84.1467 56.8775 83.9113 55.3081 83.9863 53.7381C84.1655 49.9665 85.6596 42.8416 85.6596 42.8416C85.6596 42.8416 91.2905 41.1815 95.7062 39.7937C103.13 37.463 105.295 33.6582 105.295 33.6582C105.37 36.2814 105.794 38.8829 106.556 41.394C107.391 43.1978 108.38 44.9262 109.511 46.5601C109.511 46.5601 109.378 52.4632 109.265 54.9267C109.193 56.4951 108.812 58.0339 108.145 59.4552C107.478 60.8764 106.537 62.1522 105.376 63.2098C104.216 64.2673 102.858 65.0858 101.381 65.6186C99.9044 66.1513 98.337 66.3878 96.7686 66.3146Z" fill="white"/>
<path d="M97.3275 66.6201H96.7431L95.3553 66.5603C92.1103 66.4037 89.0598 64.9666 86.8727 62.5642C84.6857 60.1618 83.5406 56.9902 83.6885 53.7448C83.8612 49.9864 85.3486 42.8748 85.3618 42.8017C85.3725 42.7508 85.3966 42.7036 85.4316 42.6651C85.4667 42.6265 85.5113 42.5981 85.561 42.5826C85.6208 42.5826 91.2451 40.9093 95.6077 39.5414C102.819 37.2837 105.03 33.5652 105.05 33.5652C105.082 33.5096 105.13 33.4658 105.189 33.4406C105.248 33.4154 105.313 33.4102 105.375 33.4258C105.437 33.442 105.491 33.4783 105.529 33.5288C105.568 33.5793 105.588 33.6412 105.588 33.7047C105.668 36.2937 106.088 38.861 106.836 41.3409C107.663 43.123 108.641 44.8313 109.758 46.4472C109.79 46.4964 109.806 46.5544 109.804 46.6132C109.804 46.673 109.678 52.5495 109.559 54.9865C109.397 58.1229 108.039 61.0779 105.763 63.2423C103.487 65.4067 100.468 66.6157 97.3275 66.6201ZM85.9063 43.0673C85.6806 44.1696 84.4389 50.3715 84.2795 53.7514C84.137 56.844 85.2274 59.8668 87.3115 62.1563C89.3955 64.4457 92.3028 65.8147 95.3952 65.9627L96.783 66.0225C99.874 66.1632 102.895 65.0731 105.184 62.9908C107.473 60.9086 108.843 58.004 108.994 54.9134C109.101 52.6491 109.22 47.41 109.24 46.6464C108.109 45.0204 107.127 43.2958 106.305 41.4936C105.607 39.2266 105.188 36.8831 105.057 34.5148C104.047 35.7498 101.391 38.3196 95.7936 40.0726C91.8493 41.3077 86.8758 42.7752 85.9063 43.0673Z" fill="#231F20"/>
<path d="M97.0133 54.2098C96.1637 54.2132 95.3153 54.1466 94.4767 54.0105C94.3525 53.9891 94.2349 53.9388 94.1335 53.8639C94.032 53.789 93.9495 53.6914 93.8924 53.5789C93.069 52.0451 95.7052 45.8763 96.2364 44.6545C96.2515 44.6052 96.2769 44.5597 96.3109 44.521C96.3449 44.4822 96.3867 44.4511 96.4335 44.4296C96.4804 44.4082 96.5313 44.3969 96.5828 44.3965C96.6344 44.3961 96.6854 44.4067 96.7326 44.4274C96.7798 44.4482 96.822 44.4787 96.8566 44.5169C96.8911 44.5552 96.9172 44.6003 96.933 44.6494C96.9489 44.6984 96.9542 44.7503 96.9486 44.8015C96.9429 44.8528 96.9265 44.9022 96.9004 44.9467C95.7185 47.6492 94.0252 52.2907 94.5299 53.2336C94.5631 53.2868 94.583 53.2934 94.6029 53.2934C95.7185 53.4662 96.8492 53.5197 97.9761 53.4528C98.0238 53.4482 98.0718 53.4533 98.1175 53.4676C98.1632 53.4819 98.2055 53.5052 98.242 53.5362C98.2785 53.5671 98.3085 53.6051 98.3301 53.6477C98.3517 53.6904 98.3646 53.737 98.3679 53.7848C98.3753 53.8806 98.3445 53.9755 98.2824 54.0489C98.2202 54.1222 98.1317 54.1681 98.0359 54.1766C98.0359 54.1766 97.6043 54.2098 97.0133 54.2098Z" fill="#231F20"/>
<path d="M54.2737 119.722H138.212L151.685 134.768H40.8008L54.2737 119.722Z" fill="white"/>
<path d="M151.685 135.074H40.7941C40.7379 135.074 40.683 135.057 40.6359 135.027C40.5887 134.996 40.5515 134.952 40.5285 134.901C40.5063 134.85 40.499 134.794 40.5072 134.739C40.5154 134.683 40.5389 134.632 40.575 134.589L54.0479 119.542C54.0755 119.512 54.1093 119.487 54.147 119.47C54.1847 119.452 54.2256 119.443 54.267 119.443H138.212C138.254 119.444 138.294 119.453 138.332 119.47C138.37 119.487 138.404 119.512 138.431 119.542L151.904 134.589C151.94 134.632 151.964 134.683 151.972 134.739C151.98 134.794 151.973 134.85 151.951 134.901C151.928 134.952 151.891 134.996 151.843 135.027C151.796 135.057 151.741 135.074 151.685 135.074ZM41.4581 134.496H151.021L138.073 120.027H54.4065L41.4581 134.496Z" fill="#231F20"/>
<path d="M151.684 134.769H40.9258V139.443H151.684V134.769Z" fill="white"/>
<path d="M151.683 139.722H40.925C40.8475 139.722 40.7732 139.691 40.7184 139.636C40.6636 139.582 40.6328 139.507 40.6328 139.43V134.782C40.6345 134.705 40.6661 134.633 40.7207 134.579C40.7753 134.526 40.8486 134.496 40.925 134.496H151.683C151.76 134.496 151.833 134.526 151.888 134.579C151.942 134.633 151.974 134.705 151.975 134.782V139.43C151.975 139.507 151.945 139.582 151.89 139.636C151.835 139.691 151.761 139.722 151.683 139.722ZM41.2171 139.138H151.391V135.074H41.2171V139.138Z" fill="#231F20"/>
<path d="M90.8659 47.1645C90.4633 47.1562 90.0667 47.066 89.7002 46.8993C89.3338 46.7326 89.0051 46.493 88.7344 46.195C88.7043 46.1584 88.6817 46.1162 88.6679 46.0708C88.6542 46.0255 88.6494 45.9779 88.6541 45.9307C88.6587 45.8835 88.6726 45.8377 88.6949 45.7959C88.7172 45.7541 88.7475 45.7171 88.7842 45.687C88.8208 45.6569 88.863 45.6343 88.9083 45.6206C88.9537 45.6068 89.0013 45.6021 89.0485 45.6067C89.0956 45.6113 89.1414 45.6252 89.1833 45.6475C89.2251 45.6698 89.2621 45.7002 89.2921 45.7368C89.3519 45.8032 90.5737 47.2109 92.4994 45.8298C92.5779 45.7826 92.6713 45.7667 92.7611 45.7852C92.8508 45.8038 92.9303 45.8553 92.9838 45.9297C93.0373 46.0041 93.0609 46.0959 93.0498 46.1868C93.0388 46.2778 92.994 46.3613 92.9243 46.4207C92.334 46.8799 91.6134 47.1403 90.8659 47.1645Z" fill="#231F20"/>
<path d="M102.699 46.8389C101.848 46.8686 101.014 46.5983 100.342 46.0753C100.299 46.0459 100.263 46.0076 100.236 45.9631C100.209 45.9186 100.192 45.8688 100.186 45.8172C100.18 45.7655 100.185 45.7131 100.201 45.6636C100.217 45.614 100.243 45.5683 100.278 45.5297C100.312 45.491 100.355 45.4603 100.403 45.4395C100.45 45.4187 100.502 45.4083 100.554 45.409C100.606 45.4097 100.657 45.4216 100.704 45.4437C100.751 45.4659 100.793 45.4979 100.827 45.5375C100.9 45.5972 102.474 46.9319 105.389 45.325C105.474 45.2796 105.574 45.2695 105.667 45.2968C105.76 45.3241 105.839 45.3866 105.887 45.4711C105.932 45.5557 105.942 45.6547 105.914 45.7467C105.887 45.8386 105.825 45.9161 105.741 45.9624C104.818 46.5094 103.771 46.8111 102.699 46.8389Z" fill="#231F20"/>
<path d="M98.0563 58.1206C95.2292 58.0861 92.4362 57.4973 89.8358 56.3875C89.7922 56.3679 89.7529 56.3399 89.7201 56.3051C89.6873 56.2702 89.6617 56.2293 89.6448 56.1846C89.6278 56.1399 89.6198 56.0923 89.6213 56.0445C89.6227 55.9967 89.6335 55.9497 89.6532 55.9061C89.6728 55.8625 89.7008 55.8232 89.7356 55.7904C89.7704 55.7576 89.8113 55.732 89.8561 55.7151C89.9008 55.6981 89.9484 55.6901 89.9961 55.6916C90.0439 55.693 90.091 55.7039 90.1346 55.7235C90.2076 55.7235 97.3392 58.9572 103.415 56.3875C103.459 56.369 103.505 56.3593 103.553 56.3589C103.6 56.3586 103.647 56.3676 103.691 56.3855C103.735 56.4034 103.774 56.4299 103.808 56.4632C103.842 56.4966 103.868 56.5363 103.886 56.5801C103.924 56.669 103.925 56.7693 103.889 56.8589C103.853 56.9485 103.783 57.0201 103.694 57.0582C101.905 57.7869 99.9877 58.1482 98.0563 58.1206Z" fill="#231F20"/>
<path d="M108.176 51.1483C108.38 50.4418 108.847 49.8402 109.48 49.4666C110.113 49.093 110.866 48.9756 111.583 49.1385C112.3 49.3015 112.928 49.7324 113.337 50.343C113.747 50.9537 113.908 51.6979 113.787 52.4232C113.649 53.0459 113.385 53.6336 113.01 54.1496C111.877 55.8055 110.271 57.0807 108.402 57.8084" fill="white"/>
<path d="M108.402 58.1007C108.334 58.1007 108.268 58.0769 108.215 58.0335C108.163 57.99 108.127 57.9295 108.115 57.8625C108.102 57.7956 108.113 57.7263 108.146 57.6667C108.179 57.6071 108.232 57.561 108.296 57.5362C110.11 56.8332 111.668 55.5969 112.765 53.9904C113.125 53.5132 113.374 52.9621 113.495 52.3768C113.601 51.7267 113.455 51.0606 113.087 50.5142C112.719 49.9678 112.157 49.5822 111.515 49.4358C110.872 49.2894 110.198 49.3933 109.63 49.7262C109.062 50.0592 108.642 50.5963 108.455 51.2281C108.445 51.2652 108.428 51.2999 108.404 51.3303C108.381 51.3607 108.352 51.3862 108.319 51.4053C108.285 51.4244 108.249 51.4368 108.21 51.4417C108.172 51.4466 108.134 51.444 108.097 51.4339C108.023 51.4123 107.961 51.3626 107.923 51.2955C107.886 51.2284 107.877 51.1493 107.897 51.0754C108.106 50.2815 108.615 49.5997 109.316 49.1736C110.018 48.7475 110.858 48.6104 111.658 48.7912C112.459 48.972 113.158 49.4565 113.609 50.1428C114.059 50.829 114.225 51.6633 114.073 52.4698C113.929 53.1355 113.649 53.7641 113.249 54.3158C112.083 56.0183 110.431 57.3302 108.508 58.0807C108.474 58.0938 108.438 58.1005 108.402 58.1007Z" fill="#231F20"/>
<path d="M66.3559 91.9126C66.3559 91.9126 59.231 124.715 66.8406 126.94C77.3786 130.021 106.848 125.492 106.848 125.492C106.848 125.492 106.582 128.148 111.496 127.743C116.41 127.338 116.423 125.087 119.212 126.78C122.001 128.473 126.011 128.009 125.188 125.651C124.365 123.294 119.298 116.76 111.37 116.979C103.441 117.198 79.5499 114.728 79.5499 114.728L82.2857 95.1264" fill="white"/>
<path d="M77.8058 128.328C73.4366 128.328 69.4923 128.029 66.7566 127.232C58.9809 124.954 65.7804 93.2143 66.0925 91.8597C66.1115 91.7861 66.1577 91.7225 66.2218 91.6818C66.286 91.6411 66.3632 91.6263 66.4378 91.6405C66.5135 91.6565 66.5797 91.7018 66.6221 91.7665C66.6644 91.8312 66.6793 91.9101 66.6636 91.9858C65.5144 97.4896 64.6434 103.048 64.054 108.639C62.9849 119.576 63.981 125.811 66.9425 126.674C77.2945 129.702 106.531 125.266 106.83 125.22C106.873 125.212 106.918 125.216 106.96 125.23C107.001 125.244 107.039 125.268 107.069 125.3C107.102 125.329 107.128 125.367 107.144 125.408C107.16 125.45 107.166 125.494 107.162 125.539C107.158 125.751 107.199 125.963 107.282 126.159C107.366 126.354 107.49 126.53 107.647 126.674C108.311 127.338 109.639 127.63 111.505 127.471C112.952 127.362 114.367 126.991 115.681 126.375C116.89 125.844 117.674 125.499 119.4 126.548C121.306 127.717 123.743 127.77 124.646 127.033C124.829 126.884 124.955 126.677 125.005 126.446C125.054 126.216 125.024 125.975 124.918 125.764C124.101 123.52 119.168 117.046 111.379 117.278C103.59 117.511 79.7647 115.054 79.5057 115.027C79.467 115.024 79.4294 115.013 79.3952 114.995C79.3609 114.976 79.3307 114.951 79.3065 114.921C79.2609 114.858 79.2397 114.78 79.2467 114.702L81.9825 95.0934C81.9882 95.0559 82.0012 95.0199 82.0207 94.9874C82.0403 94.955 82.0661 94.9267 82.0966 94.9042C82.1272 94.8817 82.1618 94.8654 82.1986 94.8563C82.2354 94.8472 82.2737 94.8454 82.3112 94.8511C82.3487 94.8567 82.3847 94.8697 82.4172 94.8893C82.4496 94.9089 82.4779 94.9347 82.5004 94.9652C82.5229 94.9957 82.5392 95.0304 82.5483 95.0672C82.5574 95.104 82.5592 95.1423 82.5536 95.1797L79.8643 114.489C82.6465 114.775 104.008 116.913 111.345 116.707C119.466 116.481 124.593 123.228 125.443 125.579C125.591 125.902 125.627 126.266 125.545 126.612C125.463 126.959 125.268 127.268 124.991 127.491C123.782 128.48 121.067 128.274 119.075 127.046C117.627 126.156 117.043 126.382 115.894 126.913C114.522 127.552 113.047 127.939 111.538 128.055C109.473 128.228 108.012 127.903 107.202 127.079C106.867 126.748 106.648 126.317 106.578 125.851C104.128 126.209 89.4726 128.328 77.8058 128.328Z" fill="#231F20"/>
<path d="M128.224 87.4239C128.224 87.4239 128.064 118.759 111.032 120.525C96.2577 122.059 95.9257 107.192 95.7597 94.3363C95.5605 78.7585 98.4888 68.4396 99.1329 66.8526C99.777 65.2656 105.401 62.4103 106.683 60.5909C107.964 58.7715 108.29 54.2163 108.449 53.6254C108.608 53.0344 110.488 52.3372 110.162 54.4819C110.162 54.4819 110.275 53.1539 110.966 53.6785C111.16 53.8474 111.292 54.0763 111.342 54.3289C111.391 54.5815 111.354 54.8434 111.238 55.0729C111.238 55.0729 111.829 53.466 112.36 54.057C112.891 54.6479 112.632 56.1951 112.632 56.1951C112.632 56.1951 113.376 54.2695 113.755 55.3385C114.133 56.4076 113.648 62.7291 111.829 65.0332C110.01 67.3373 105.235 70.3121 105.235 70.3121L111.344 100.598L113.595 88.8715" fill="white"/>
<path d="M109.029 120.923C105.775 120.923 103.112 120.02 101.061 118.228C95.6819 113.433 95.5492 102.842 95.4429 94.3229C95.2503 78.9442 98.099 68.6519 98.836 66.7329C99.2079 65.8033 100.928 64.6213 102.747 63.3663C104.268 62.3106 105.848 61.2282 106.426 60.4115C107.389 59.0436 107.8 55.9493 108 54.4353C108.066 53.9705 108.106 53.665 108.146 53.519C108.273 53.2386 108.491 53.0088 108.764 52.8657C109.037 52.7226 109.35 52.6744 109.653 52.7288C109.803 52.7644 109.942 52.8364 110.058 52.9382C110.173 53.0401 110.262 53.1688 110.317 53.3131H110.383C110.503 53.2651 110.633 53.2527 110.759 53.2775C110.885 53.3022 111.002 53.363 111.094 53.4526C111.266 53.5769 111.404 53.7439 111.492 53.9373C111.61 53.7931 111.77 53.6906 111.95 53.6451C112.056 53.6268 112.164 53.6368 112.265 53.6741C112.365 53.7114 112.454 53.7748 112.521 53.8576C112.772 54.1838 112.912 54.5817 112.92 54.9931C112.979 54.9141 113.055 54.8493 113.142 54.8033C113.23 54.7574 113.326 54.7315 113.425 54.7275C113.597 54.7275 113.83 54.8204 113.976 55.2454C114.367 56.3676 113.909 62.8019 111.984 65.2057C110.324 67.304 106.373 69.8538 105.49 70.4448L111.266 99.0906L113.259 88.8115C113.273 88.736 113.317 88.6693 113.38 88.6258C113.444 88.5823 113.522 88.5655 113.597 88.5791C113.673 88.5936 113.739 88.6373 113.783 88.7007C113.826 88.7641 113.843 88.8421 113.83 88.9178L111.579 100.651C111.565 100.717 111.529 100.776 111.477 100.818C111.425 100.86 111.36 100.883 111.293 100.883C111.226 100.883 111.161 100.86 111.109 100.818C111.057 100.776 111.021 100.717 111.008 100.651L104.905 70.3585C104.892 70.3017 104.898 70.2424 104.92 70.1888C104.943 70.1353 104.982 70.0901 105.031 70.0597C105.078 70.0597 109.779 67.0849 111.545 64.8471C113.312 62.6094 113.783 56.434 113.431 55.4313C113.416 55.3991 113.402 55.3658 113.391 55.3317C113.155 55.6183 112.971 55.9442 112.847 56.2945C112.821 56.3613 112.772 56.4161 112.708 56.4481C112.644 56.48 112.57 56.4869 112.502 56.4672C112.432 56.4484 112.373 56.4049 112.333 56.345C112.294 56.285 112.278 56.2127 112.289 56.1418C112.389 55.5907 112.415 54.5947 112.096 54.2427C111.944 54.2427 111.698 54.5947 111.525 54.9997C111.502 55.0653 111.476 55.1296 111.446 55.1923C111.413 55.2581 111.356 55.309 111.287 55.3349C111.218 55.3607 111.142 55.3596 111.074 55.3317C111.005 55.3036 110.95 55.2497 110.92 55.1815C110.89 55.1133 110.888 55.0361 110.915 54.9665C110.915 54.92 110.954 54.8603 110.981 54.7939C111.04 54.6393 111.049 54.47 111.006 54.3101C110.963 54.1503 110.871 54.0081 110.742 53.9041C110.656 53.8377 110.616 53.8377 110.616 53.8377C110.505 53.9819 110.438 54.1547 110.423 54.3357V54.5216C110.41 54.5957 110.369 54.6619 110.308 54.7064C110.248 54.7509 110.172 54.7704 110.098 54.7607C110.061 54.7573 110.025 54.7468 109.993 54.7296C109.96 54.7124 109.931 54.6889 109.908 54.6605C109.885 54.6321 109.867 54.5994 109.856 54.5641C109.845 54.5289 109.842 54.4919 109.845 54.4552C109.845 54.4087 109.845 54.3357 109.845 54.2494C109.879 53.8775 109.845 53.3928 109.5 53.3197C109.34 53.3006 109.178 53.3257 109.032 53.3925C108.886 53.4593 108.76 53.565 108.67 53.6982C108.67 53.8045 108.597 54.1431 108.544 54.5415C108.325 56.1949 107.88 59.2694 106.864 60.7501C106.2 61.6532 104.679 62.7422 103.046 63.8444C101.412 64.9467 99.6461 66.1884 99.3407 66.9587C98.5837 68.8511 95.7948 79.0438 96.0206 94.3229C96.1268 102.716 96.2596 113.168 101.446 117.783C103.77 119.854 106.884 120.651 110.968 120.233C127.568 118.513 127.9 87.7292 127.9 87.4171C127.9 87.3396 127.931 87.2653 127.986 87.2105C128.041 87.1557 128.115 87.1249 128.192 87.1249C128.269 87.1266 128.343 87.158 128.397 87.2124C128.451 87.2668 128.483 87.3401 128.484 87.4171C128.484 87.7358 128.119 119.031 111.027 120.804C110.364 120.878 109.697 120.918 109.029 120.923Z" fill="#231F20"/>
<path d="M113.264 111.654C113.197 111.654 113.132 111.63 113.08 111.588C113.028 111.546 112.992 111.487 112.979 111.421C112.554 109.164 110.402 97.8687 110.402 97.384C110.402 97.3065 110.433 97.2322 110.488 97.1774C110.543 97.1226 110.617 97.0918 110.695 97.0918C110.772 97.0918 110.846 97.1226 110.901 97.1774C110.956 97.2322 110.987 97.3065 110.987 97.384C110.987 97.8289 112.534 105.956 113.55 111.328C113.557 111.366 113.558 111.405 113.55 111.443C113.542 111.481 113.527 111.518 113.506 111.55C113.484 111.582 113.456 111.609 113.424 111.631C113.392 111.652 113.355 111.666 113.317 111.674L113.264 111.654Z" fill="#231F20"/>
<path d="M186.251 132.046L138.289 119.941V12.6683L186.251 0.556641V132.046Z" fill="white"/>
<path d="M186.252 132.338H186.179L138.223 120.226C138.16 120.211 138.105 120.176 138.065 120.125C138.025 120.075 138.004 120.012 138.004 119.948V12.6687C138.002 12.604 138.024 12.5408 138.063 12.49C138.103 12.4391 138.16 12.4037 138.223 12.3898L186.179 0.278137C186.222 0.265449 186.267 0.263659 186.311 0.272929C186.355 0.2822 186.396 0.302242 186.431 0.33126C186.465 0.358396 186.492 0.392815 186.51 0.431923C186.528 0.471031 186.538 0.513805 186.537 0.557024V132.033C186.537 132.076 186.528 132.118 186.509 132.158C186.491 132.197 186.464 132.231 186.431 132.258C186.381 132.304 186.318 132.332 186.252 132.338ZM138.582 119.722L185.959 131.674V0.942156L138.582 12.8945V119.722Z" fill="#231F20"/>
<path d="M178.624 122.73C178.591 122.736 178.558 122.736 178.525 122.73L143.557 114.98C143.46 114.96 143.373 114.907 143.311 114.829C143.25 114.752 143.217 114.655 143.219 114.556V86.9323C143.219 86.8721 143.231 86.8126 143.255 86.7574C143.279 86.7023 143.315 86.6528 143.359 86.6122C143.403 86.5715 143.456 86.5406 143.513 86.5214C143.57 86.5022 143.63 86.4952 143.69 86.5007L178.658 89.4755C178.766 89.4839 178.868 89.5331 178.941 89.6131C179.015 89.6932 179.056 89.7982 179.056 89.9071V122.305C179.056 122.37 179.041 122.435 179.014 122.495C178.986 122.554 178.946 122.607 178.897 122.65C178.817 122.705 178.721 122.733 178.624 122.73ZM144.095 114.19L178.193 121.747V90.2923L144.095 87.3972V114.19ZM178.624 85.4117H178.591L143.624 83.0677C143.514 83.0594 143.41 83.0095 143.335 82.9282C143.26 82.8469 143.219 82.7402 143.219 82.6295V49.9731C143.219 49.8624 143.26 49.7556 143.335 49.6743C143.41 49.593 143.514 49.5432 143.624 49.5348L178.591 47.1908C178.651 47.1862 178.711 47.1941 178.768 47.2142C178.825 47.2342 178.877 47.2659 178.92 47.3071C178.964 47.3484 178.999 47.3983 179.022 47.4538C179.046 47.5092 179.057 47.5689 179.056 47.6291V84.9735C179.057 85.0307 179.046 85.0876 179.025 85.1407C179.004 85.1938 178.972 85.2422 178.932 85.283C178.892 85.3238 178.844 85.3562 178.791 85.3783C178.738 85.4004 178.682 85.4118 178.624 85.4117ZM144.095 82.2245L178.193 84.5087V48.0872L144.095 50.3715V82.2245ZM143.657 46.0952C143.6 46.0961 143.543 46.0856 143.49 46.0643C143.437 46.043 143.388 46.0113 143.348 45.9712C143.307 45.931 143.274 45.8831 143.252 45.8303C143.23 45.7775 143.219 45.7208 143.219 45.6636V18.0603C143.217 17.9611 143.25 17.8643 143.311 17.7866C143.373 17.709 143.46 17.6555 143.557 17.6354L178.525 9.88626C178.589 9.8735 178.656 9.8746 178.72 9.88948C178.784 9.90436 178.844 9.93268 178.897 9.97258C178.946 10.0154 178.986 10.0683 179.014 10.1279C179.041 10.1875 179.056 10.2523 179.056 10.3179V42.7087C179.056 42.8176 179.015 42.9227 178.941 43.0027C178.868 43.0828 178.766 43.1319 178.658 43.1403L143.69 46.0952H143.657ZM144.089 18.3923V45.1855L178.186 42.2904V10.8557L144.089 18.3923Z" fill="#D1D3D4"/>
<path d="M186.254 0.556641L190.676 2.67486V129.914L186.254 132.032V0.556641Z" fill="white"/>
<path d="M186.253 132.325C186.197 132.322 186.143 132.306 186.094 132.278C186.053 132.251 186.02 132.215 185.997 132.172C185.974 132.129 185.961 132.081 185.961 132.033V0.556868C185.961 0.508196 185.974 0.460375 185.997 0.417556C186.02 0.374738 186.053 0.33822 186.094 0.311182C186.137 0.286754 186.186 0.273926 186.236 0.273926C186.286 0.273926 186.336 0.286754 186.379 0.311182L190.802 2.4294C190.851 2.45222 190.893 2.48873 190.922 2.53462C190.952 2.58051 190.968 2.63386 190.968 2.68837V129.914C190.968 129.969 190.952 130.022 190.922 130.068C190.893 130.114 190.851 130.15 190.802 130.173L186.379 132.292C186.34 132.312 186.297 132.323 186.253 132.325ZM186.539 1.01504V131.574L190.39 129.728V2.86101L186.539 1.01504Z" fill="#231F20"/>
<path d="M5.74609 132.046L53.7082 119.941V12.6683L5.74609 0.556641V132.046Z" fill="white"/>
<path d="M5.74649 132.338C5.68191 132.337 5.61914 132.316 5.5672 132.278C5.53392 132.251 5.50714 132.216 5.48877 132.177C5.4704 132.138 5.4609 132.095 5.46096 132.052V0.576556C5.46043 0.533337 5.46971 0.49056 5.48811 0.451452C5.50652 0.412344 5.53356 0.377926 5.5672 0.35079C5.60159 0.321772 5.64264 0.301732 5.68668 0.292462C5.73071 0.283191 5.77636 0.284979 5.81953 0.297667L53.775 12.4094C53.8382 12.4232 53.8946 12.4586 53.9346 12.5095C53.9745 12.5604 53.9956 12.6236 53.9941 12.6883V119.941C53.9944 120.005 53.9728 120.068 53.9331 120.118C53.8933 120.169 53.8376 120.204 53.775 120.219L5.81953 132.331L5.74649 132.338ZM6.03865 0.941766V131.687L53.4164 119.735V12.8941L6.03865 0.941766Z" fill="#231F20"/>
<path d="M13.377 122.73C13.2785 122.729 13.1829 122.696 13.1047 122.637C13.055 122.594 13.015 122.541 12.9875 122.481C12.96 122.422 12.9457 122.357 12.9454 122.291V89.9204C12.945 89.8115 12.9859 89.7064 13.0598 89.6264C13.1337 89.5463 13.2352 89.4972 13.3438 89.4888L48.311 86.514C48.3709 86.5084 48.4314 86.5155 48.4884 86.5347C48.5455 86.5539 48.5979 86.5848 48.6423 86.6254C48.6867 86.6661 48.7221 86.7156 48.7462 86.7707C48.7704 86.8258 48.7827 86.8854 48.7824 86.9456V114.569C48.7845 114.668 48.7518 114.765 48.6899 114.842C48.6281 114.92 48.541 114.974 48.4438 114.994L13.4766 122.716C13.4446 122.727 13.4107 122.732 13.377 122.73ZM13.8152 90.2923V121.747L47.9126 114.19V87.3971L13.8152 90.2923ZM13.377 85.4117C13.3197 85.4117 13.2631 85.4004 13.2103 85.3783C13.1575 85.3561 13.1096 85.3238 13.0694 85.283C13.0292 85.2422 12.9976 85.1938 12.9763 85.1407C12.955 85.0876 12.9445 85.0307 12.9454 84.9735V47.6291C12.9448 47.5697 12.9562 47.5109 12.9791 47.4561C13.0019 47.4013 13.0356 47.3517 13.0782 47.3103C13.1227 47.2692 13.175 47.2373 13.232 47.2168C13.2891 47.1963 13.3496 47.1874 13.4102 47.1908L48.3774 49.5348C48.4878 49.5432 48.5909 49.593 48.666 49.6743C48.7412 49.7556 48.7828 49.8624 48.7824 49.9731V82.6162C48.7828 82.7269 48.7412 82.8336 48.666 82.9149C48.5909 82.9962 48.4878 83.0461 48.3774 83.0545L13.4102 85.3985L13.377 85.4117ZM13.8152 48.0939V84.5087L47.9126 82.2244V50.3516L13.8152 48.0939ZM48.3442 46.1018L13.377 43.127C13.2684 43.1186 13.1669 43.0695 13.093 42.9894C13.0191 42.9094 12.9782 42.8044 12.9786 42.6954V10.3179C12.9789 10.2523 12.9932 10.1875 13.0207 10.1279C13.0482 10.0683 13.0882 10.0154 13.1379 9.97258C13.1903 9.93268 13.2505 9.90436 13.3146 9.88948C13.3787 9.8746 13.4452 9.8735 13.5098 9.88626L48.477 17.6354C48.5742 17.6555 48.6613 17.709 48.7231 17.7866C48.785 17.8643 48.8177 17.9611 48.8157 18.0603V45.6835C48.8157 45.7407 48.8043 45.7974 48.7822 45.8502C48.7601 45.903 48.7277 45.9509 48.6869 45.9911C48.6461 46.0312 48.5977 46.0629 48.5446 46.0842C48.4915 46.1055 48.4346 46.116 48.3774 46.1151L48.3442 46.1018ZM13.8152 42.297L47.9126 45.1921V18.4123L13.8152 10.8557V42.297Z" fill="#D1D3D4"/>
<path d="M5.74659 0.556641L1.32422 2.67486V129.914L5.74659 132.032V0.556641Z" fill="white"/>
<path d="M5.74578 132.325C5.7018 132.323 5.65871 132.312 5.61962 132.292L1.19725 130.173C1.14775 130.15 1.10582 130.114 1.0764 130.068C1.04698 130.022 1.03131 129.969 1.03125 129.914V2.67509C1.03131 2.62058 1.04698 2.56723 1.0764 2.52134C1.10582 2.47545 1.14775 2.43894 1.19725 2.41612L5.61962 0.277978C5.66324 0.253551 5.71239 0.240723 5.76239 0.240723C5.81238 0.240723 5.86153 0.253551 5.90515 0.277978C5.94562 0.305017 5.97888 0.341532 6.00202 0.384351C6.02517 0.427169 6.0375 0.474993 6.03795 0.523665V131.999C6.0375 132.048 6.02517 132.096 6.00202 132.139C5.97888 132.182 5.94562 132.218 5.90515 132.245C5.85942 132.284 5.80467 132.312 5.74578 132.325ZM1.60895 129.762L5.46026 131.608V1.01504L1.60895 2.86101V129.762Z" fill="#231F20"/>
</svg>
