<svg width="305" height="181" viewBox="0 0 305 181" fill="none" xmlns="http://www.w3.org/2000/svg">
<path d="M99.7251 84.5205C99.6691 84.5218 99.6134 84.5118 99.5614 84.4912C99.5093 84.4706 99.4618 84.4398 99.4218 84.4006C99.3818 84.3615 99.35 84.3147 99.3283 84.2631C99.3066 84.2114 99.2954 84.156 99.2954 84.1V34.6567C99.2954 30.2921 101.029 26.1062 104.115 23.02C107.202 19.9338 111.388 18.2 115.752 18.2H127.903C128.013 18.2023 128.119 18.2473 128.197 18.3257C128.276 18.4041 128.321 18.5097 128.323 18.6205C128.323 18.7321 128.279 18.839 128.2 18.9179C128.121 18.9968 128.014 19.0411 127.903 19.0411H115.716C111.597 19.0531 107.651 20.6945 104.739 23.6067C101.827 26.5188 100.185 30.4651 100.173 34.5835V84.0634C100.179 84.124 100.171 84.1851 100.15 84.2424C100.13 84.2997 100.097 84.3519 100.055 84.3954C100.012 84.4388 99.9605 84.4725 99.9036 84.4941C99.8467 84.5158 99.7858 84.5248 99.7251 84.5205Z" fill="#D1D3D4"/>
<path d="M99.7246 84.612C99.6686 84.6132 99.613 84.6032 99.5609 84.5826C99.5088 84.562 99.4614 84.5312 99.4213 84.4921C99.3813 84.4529 99.3495 84.4061 99.3278 84.3545C99.3061 84.3028 99.2949 84.2474 99.2949 84.1914V71.09C99.2804 64.5621 96.6808 58.3057 92.0649 53.6898C87.449 49.0739 81.1926 46.4743 74.6647 46.4598H58.6925C58.5817 46.4574 58.4761 46.4124 58.3977 46.334C58.3194 46.2556 58.2743 46.15 58.272 46.0392C58.272 45.9277 58.3163 45.8207 58.3951 45.7418C58.474 45.663 58.581 45.6187 58.6925 45.6187H74.6647C81.4187 45.6259 87.8942 48.3115 92.6709 53.0865C97.4476 57.8615 100.136 64.336 100.145 71.09V84.1914C100.145 84.3029 100.101 84.4099 100.022 84.4888C99.9432 84.5676 99.8362 84.612 99.7246 84.612Z" fill="#D1D3D4"/>
<path d="M255.78 121.091H209.546C209.491 121.091 209.436 121.08 209.385 121.059C209.334 121.038 209.288 121.007 209.249 120.968C209.21 120.929 209.179 120.882 209.158 120.831C209.136 120.78 209.126 120.726 209.126 120.67C209.124 120.615 209.134 120.56 209.155 120.508C209.176 120.456 209.207 120.41 209.246 120.37C209.285 120.331 209.332 120.3 209.384 120.279C209.435 120.259 209.491 120.249 209.546 120.25H255.771C255.883 120.25 255.99 120.294 256.069 120.373C256.147 120.452 256.192 120.559 256.192 120.67C256.19 120.78 256.146 120.884 256.069 120.962C255.993 121.04 255.89 121.086 255.78 121.091Z" fill="#D1D3D4"/>
<path d="M216.248 57.3851H135.491C135.435 57.3864 135.38 57.3763 135.329 57.3556C135.277 57.3349 135.23 57.304 135.191 57.2647C135.152 57.2254 135.121 57.1785 135.1 57.1269C135.079 57.0754 135.069 57.0201 135.07 56.9645V24.5539C135.08 24.4497 135.128 24.3529 135.206 24.2832C135.285 24.2136 135.386 24.1764 135.491 24.1791C135.603 24.1791 135.709 24.2234 135.788 24.3023C135.867 24.3811 135.912 24.4881 135.912 24.5997V56.5988H216.275C216.386 56.6012 216.492 56.6462 216.57 56.7246C216.648 56.803 216.693 56.9086 216.696 57.0194C216.682 57.1261 216.628 57.2234 216.545 57.2915C216.461 57.3595 216.355 57.393 216.248 57.3851Z" fill="#D1D3D4"/>
<path d="M296.63 175.947H1.77993C1.66913 175.944 1.56351 175.899 1.48514 175.821C1.40677 175.743 1.36171 175.637 1.35938 175.526C1.35937 175.415 1.40368 175.308 1.48255 175.229C1.56143 175.15 1.6684 175.106 1.77993 175.106H296.63C296.741 175.106 296.848 175.15 296.927 175.229C297.006 175.308 297.05 175.415 297.05 175.526C297.048 175.637 297.003 175.743 296.924 175.821C296.846 175.899 296.74 175.944 296.63 175.947Z" fill="#D1D3D4"/>
<path d="M89.7778 136.88H15.6311C15.5196 136.88 15.4126 136.836 15.3337 136.757C15.2549 136.678 15.2106 136.571 15.2106 136.46C15.2093 136.404 15.2193 136.349 15.24 136.297C15.2607 136.246 15.2916 136.199 15.331 136.16C15.3703 136.12 15.4171 136.089 15.4687 136.069C15.5203 136.048 15.5755 136.038 15.6311 136.039H89.7778C89.833 136.039 89.8877 136.05 89.9387 136.071C89.9898 136.092 90.0361 136.123 90.0752 136.162C90.1142 136.201 90.1452 136.248 90.1664 136.299C90.1875 136.35 90.1984 136.404 90.1984 136.46C90.196 136.571 90.151 136.676 90.0726 136.755C89.9942 136.833 89.8886 136.878 89.7778 136.88Z" fill="#D1D3D4"/>
<path d="M8.50884 113.987C9.07436 113.987 9.53281 113.529 9.53281 112.963C9.53281 112.398 9.07436 111.939 8.50884 111.939C7.94331 111.939 7.48486 112.398 7.48486 112.963C7.48486 113.529 7.94331 113.987 8.50884 113.987Z" fill="white"/>
<path d="M12.8423 113.987C13.4079 113.987 13.8663 113.529 13.8663 112.963C13.8663 112.398 13.4079 111.939 12.8423 111.939C12.2768 111.939 11.8184 112.398 11.8184 112.963C11.8184 113.529 12.2768 113.987 12.8423 113.987Z" fill="white"/>
<path d="M17.1758 113.987C17.7414 113.987 18.1998 113.529 18.1998 112.963C18.1998 112.398 17.7414 111.939 17.1758 111.939C16.6103 111.939 16.1519 112.398 16.1519 112.963C16.1519 113.529 16.6103 113.987 17.1758 113.987Z" fill="white"/>
<path d="M118.486 30.5059L115.688 6.20483H152.588L147.687 31.1093L118.486 30.5059Z" fill="white"/>
<path d="M147.687 31.5848L118.486 30.9814C118.371 30.9797 118.261 30.9359 118.177 30.8583C118.093 30.7807 118.04 30.6748 118.028 30.5608L115.222 6.25973C115.218 6.191 115.231 6.12242 115.258 6.0591C115.285 5.99578 115.325 5.93935 115.377 5.89402C115.42 5.8442 115.473 5.80444 115.534 5.77758C115.594 5.75072 115.659 5.73741 115.725 5.7386H152.588C152.657 5.73947 152.726 5.75544 152.789 5.78543C152.853 5.81541 152.909 5.85869 152.953 5.91231C152.998 5.96464 153.03 6.02634 153.047 6.09282C153.065 6.1593 153.067 6.22885 153.054 6.2963L148.153 31.2008C148.132 31.3089 148.074 31.4063 147.989 31.4764C147.904 31.5464 147.797 31.5847 147.687 31.5848ZM118.906 30.0488L147.303 30.634L152.012 6.68029H116.218L118.906 30.0488Z" fill="#231F20"/>
<path d="M118.485 30.506V1.40503H152.99V31.1094L118.485 30.506Z" fill="#231F20"/>
<path d="M152.99 31.5848L118.486 30.9814C118.424 30.9802 118.364 30.967 118.308 30.9424C118.252 30.9179 118.201 30.8825 118.159 30.8384C118.116 30.7942 118.083 30.7421 118.06 30.6851C118.038 30.6281 118.027 30.5672 118.028 30.506V1.41413C118.027 1.35214 118.038 1.29052 118.061 1.23289C118.084 1.17526 118.118 1.12278 118.162 1.07851C118.205 1.03423 118.257 0.999067 118.314 0.975065C118.371 0.951063 118.433 0.938709 118.495 0.938721H152.999C153.061 0.938709 153.122 0.951063 153.18 0.975065C153.237 0.999067 153.289 1.03423 153.332 1.07851C153.375 1.12278 153.41 1.17526 153.432 1.23289C153.455 1.29052 153.466 1.35214 153.465 1.41413V31.1094C153.466 31.1721 153.455 31.2344 153.431 31.2925C153.408 31.3506 153.373 31.4034 153.328 31.4477C153.236 31.5341 153.116 31.5831 152.99 31.5848ZM118.961 30.0488L152.514 30.634V1.88041H118.961V30.0488Z" fill="#231F20"/>
<path d="M118.485 30.5059L122.984 8.3076H142.183L143.692 4.41284H158.685L152.834 31.1093L118.485 30.5059Z" fill="white"/>
<path d="M152.862 31.5848L118.513 30.9814C118.444 30.9804 118.375 30.9639 118.313 30.9333C118.251 30.9026 118.197 30.8586 118.154 30.8043C118.111 30.7501 118.081 30.687 118.066 30.6195C118.05 30.5521 118.05 30.4821 118.065 30.4146L122.563 8.2163C122.584 8.11062 122.641 8.01551 122.724 7.94717C122.808 7.87883 122.912 7.84148 123.02 7.84145H141.89L143.271 4.23926C143.306 4.14945 143.368 4.0725 143.448 4.01861C143.528 3.96472 143.622 3.93645 143.719 3.93755H158.713C158.783 3.93648 158.853 3.95159 158.916 3.98171C158.979 4.01184 159.035 4.05617 159.079 4.11126C159.124 4.1667 159.157 4.23154 159.174 4.3011C159.191 4.37067 159.193 4.44322 159.179 4.51354L153.328 31.21C153.305 31.3164 153.246 31.4117 153.161 31.48C153.076 31.5482 152.97 31.5852 152.862 31.5848ZM119.034 30.0489L152.432 30.634L158.073 4.87924H144.011L142.631 8.48144C142.596 8.56979 142.536 8.64573 142.458 8.6995C142.38 8.75327 142.287 8.7824 142.192 8.78314H123.377L119.034 30.0489Z" fill="#231F20"/>
<path d="M84.4386 81.3755H213.971C216.542 81.3755 219.007 82.3965 220.824 84.214C222.641 86.0314 223.662 88.4964 223.662 91.0667V170.178H74.7383V91.0667C74.7383 89.7932 74.9893 88.5323 75.4769 87.3559C75.9644 86.1795 76.6791 85.1108 77.58 84.2107C78.4809 83.3107 79.5503 82.597 80.7271 82.1106C81.904 81.6241 83.1652 81.3743 84.4386 81.3755Z" fill="#004680"/>
<path d="M214.364 89.3296H84.0542V170.178H214.364V89.3296Z" fill="white"/>
<path d="M59.2598 170.178H239.15C239.15 173.032 238.016 175.769 235.998 177.787C233.98 179.805 231.243 180.939 228.389 180.939H70.0206C67.1667 180.939 64.4296 179.805 62.4115 177.787C60.3935 175.769 59.2598 173.032 59.2598 170.178Z" fill="#004680"/>
<path d="M114.527 101.115L105.494 105.668L114.527 110.221L123.55 105.668L114.527 101.115Z" fill="white"/>
<path d="M114.527 110.641C114.464 110.656 114.398 110.656 114.335 110.641L105.302 106.07C105.234 106.034 105.176 105.98 105.136 105.914C105.096 105.848 105.074 105.772 105.073 105.695C105.072 105.617 105.093 105.541 105.133 105.475C105.174 105.408 105.232 105.355 105.302 105.32L114.335 100.749C114.394 100.722 114.457 100.708 114.522 100.708C114.587 100.708 114.651 100.722 114.71 100.749L123.743 105.32C123.812 105.355 123.871 105.408 123.911 105.475C123.951 105.541 123.972 105.617 123.971 105.695C123.97 105.772 123.949 105.848 123.908 105.914C123.868 105.98 123.811 106.034 123.743 106.07L114.71 110.641C114.649 110.655 114.587 110.655 114.527 110.641ZM106.426 105.668L114.527 109.745L122.618 105.668L114.527 101.581L106.426 105.668Z" fill="#D1D3D4"/>
<path d="M105.494 105.667V153.849L114.527 158.402V110.221L105.494 105.667Z" fill="white"/>
<path d="M114.527 158.823C114.46 158.823 114.394 158.807 114.335 158.777L105.302 154.206C105.234 154.169 105.176 154.116 105.136 154.05C105.096 153.984 105.074 153.908 105.073 153.831V105.649C105.073 105.576 105.091 105.504 105.126 105.44C105.162 105.376 105.213 105.322 105.274 105.283C105.337 105.247 105.408 105.228 105.48 105.228C105.552 105.228 105.623 105.247 105.686 105.283L114.71 109.855C114.781 109.888 114.841 109.941 114.883 110.007C114.925 110.074 114.948 110.151 114.947 110.23V158.411C114.946 158.483 114.927 158.553 114.892 158.615C114.857 158.677 114.807 158.73 114.746 158.768C114.68 158.807 114.604 158.826 114.527 158.823ZM105.914 153.584L114.097 157.716V110.476L105.914 106.353V153.584Z" fill="#D1D3D4"/>
<path d="M114.527 158.402L123.551 153.849V105.667L114.527 110.221V158.402Z" fill="white"/>
<path d="M114.527 158.823C114.446 158.824 114.367 158.802 114.298 158.759C114.238 158.721 114.188 158.668 114.153 158.606C114.117 158.544 114.098 158.474 114.097 158.402V110.221C114.097 110.142 114.119 110.065 114.161 109.998C114.203 109.932 114.264 109.879 114.335 109.846L123.359 105.274C123.421 105.238 123.492 105.219 123.564 105.219C123.637 105.219 123.708 105.238 123.77 105.274C123.832 105.313 123.883 105.367 123.918 105.431C123.953 105.495 123.972 105.567 123.971 105.64V153.822C123.97 153.899 123.949 153.975 123.908 154.041C123.868 154.106 123.811 154.16 123.743 154.197L114.71 158.768C114.654 158.8 114.591 158.819 114.527 158.823ZM114.947 110.477V157.716L123.13 153.584V106.353L114.947 110.477Z" fill="#D1D3D4"/>
<path d="M146.37 119.171L137.347 123.724L146.37 128.277L155.403 123.724L146.37 119.171Z" fill="white"/>
<path d="M146.371 128.698C146.311 128.715 146.247 128.715 146.188 128.698L137.155 124.126C137.086 124.091 137.028 124.037 136.988 123.971C136.947 123.905 136.926 123.829 136.926 123.752C136.927 123.674 136.949 123.599 136.989 123.533C137.029 123.467 137.087 123.413 137.155 123.377L146.188 118.805C146.245 118.774 146.31 118.758 146.375 118.758C146.441 118.758 146.505 118.774 146.563 118.805L155.596 123.377C155.664 123.413 155.721 123.467 155.761 123.533C155.801 123.599 155.823 123.674 155.824 123.752C155.824 123.829 155.803 123.905 155.763 123.971C155.722 124.037 155.664 124.091 155.596 124.126L146.563 128.698C146.5 128.717 146.433 128.717 146.371 128.698ZM138.279 123.724L146.371 127.811L154.471 123.724L146.371 119.646L138.279 123.724Z" fill="#D1D3D4"/>
<path d="M137.347 123.724V153.849L146.37 158.402V128.277L137.347 123.724Z" fill="white"/>
<path d="M146.371 158.823C146.307 158.822 146.245 158.806 146.188 158.777L137.155 154.206C137.087 154.17 137.029 154.116 136.989 154.05C136.949 153.984 136.927 153.908 136.926 153.831V123.66C136.925 123.588 136.943 123.517 136.978 123.454C137.014 123.392 137.065 123.34 137.127 123.304C137.19 123.268 137.261 123.249 137.333 123.249C137.405 123.249 137.476 123.268 137.539 123.304L146.563 127.875C146.633 127.909 146.693 127.962 146.735 128.028C146.777 128.095 146.8 128.171 146.8 128.25V158.375C146.799 158.446 146.78 158.516 146.745 158.579C146.71 158.641 146.66 158.693 146.599 158.731C146.534 158.784 146.454 158.816 146.371 158.823ZM137.767 153.584L145.95 157.716V128.542L137.767 124.41V153.584Z" fill="#D1D3D4"/>
<path d="M146.371 158.402L155.404 153.849V123.724L146.371 128.277V158.402Z" fill="white"/>
<path d="M146.371 158.823C146.293 158.823 146.217 158.801 146.151 158.759C146.091 158.721 146.041 158.668 146.006 158.606C145.97 158.544 145.951 158.474 145.95 158.402V128.277C145.951 128.199 145.974 128.122 146.016 128.056C146.058 127.99 146.117 127.936 146.188 127.902L155.212 123.331C155.274 123.295 155.345 123.276 155.417 123.276C155.49 123.276 155.561 123.295 155.623 123.331C155.685 123.367 155.737 123.419 155.772 123.482C155.808 123.545 155.826 123.616 155.824 123.688V153.858C155.823 153.935 155.802 154.011 155.761 154.077C155.721 154.143 155.664 154.197 155.596 154.233L146.563 158.804C146.501 158.825 146.435 158.832 146.371 158.823ZM146.8 128.542V157.716L154.983 153.584V124.41L146.8 128.542Z" fill="#D1D3D4"/>
<path d="M178.223 129.457L169.2 134.01L178.223 138.572L187.256 134.01L178.223 129.457Z" fill="white"/>
<path d="M178.224 138.992C178.16 138.991 178.097 138.976 178.041 138.947L169.008 134.375C168.939 134.339 168.881 134.284 168.841 134.217C168.801 134.15 168.78 134.074 168.78 133.996C168.78 133.918 168.801 133.841 168.841 133.775C168.881 133.708 168.939 133.653 169.008 133.617L178.041 129.045C178.099 129.018 178.163 129.004 178.228 129.004C178.293 129.004 178.357 129.018 178.416 129.045L187.448 133.617C187.517 133.653 187.575 133.708 187.615 133.775C187.655 133.841 187.676 133.918 187.676 133.996C187.676 134.074 187.655 134.15 187.615 134.217C187.575 134.284 187.517 134.339 187.448 134.375L178.416 138.947C178.356 138.976 178.29 138.991 178.224 138.992ZM170.132 134.019L178.224 138.096L186.324 134.019L178.224 129.932L170.132 134.019Z" fill="#D1D3D4"/>
<path d="M169.2 134.01V153.849L178.223 158.402V138.572L169.2 134.01Z" fill="white"/>
<path d="M178.223 158.823C178.16 158.822 178.097 158.806 178.04 158.777L169.007 154.206C168.939 154.17 168.882 154.116 168.842 154.05C168.801 153.984 168.78 153.908 168.779 153.831V134.019C168.777 133.946 168.794 133.874 168.829 133.81C168.864 133.745 168.914 133.691 168.976 133.653C169.038 133.614 169.109 133.592 169.181 133.589C169.254 133.586 169.327 133.602 169.391 133.635L178.415 138.206C178.486 138.239 178.546 138.292 178.587 138.359C178.627 138.425 178.647 138.503 178.644 138.581V158.411C178.645 158.483 178.627 158.554 178.592 158.617C178.557 158.68 178.505 158.732 178.443 158.768C178.377 158.809 178.3 158.828 178.223 158.823ZM169.62 153.584L177.803 157.716V138.828L169.62 134.695V153.584Z" fill="#D1D3D4"/>
<path d="M178.224 158.402L187.257 153.849V134.01L178.224 138.572V158.402Z" fill="white"/>
<path d="M178.223 158.823C178.146 158.823 178.069 158.801 178.004 158.758C177.943 158.72 177.893 158.668 177.858 158.606C177.823 158.543 177.804 158.473 177.803 158.402V138.572C177.801 138.493 177.823 138.415 177.865 138.348C177.908 138.282 177.968 138.229 178.041 138.197L187.064 133.625C187.128 133.592 187.198 133.574 187.27 133.574C187.342 133.574 187.412 133.592 187.476 133.625C187.538 133.664 187.588 133.718 187.624 133.782C187.659 133.846 187.677 133.918 187.677 133.991V153.821C187.676 153.899 187.654 153.974 187.614 154.04C187.574 154.106 187.517 154.16 187.448 154.196L178.415 158.768C178.356 158.799 178.29 158.817 178.223 158.823ZM178.644 138.828V157.716L186.872 153.584V134.695L178.644 138.828Z" fill="#D1D3D4"/>
<path d="M199.772 101.535H169.199C169.088 101.535 168.981 101.491 168.902 101.412C168.823 101.333 168.779 101.226 168.779 101.115C168.778 101.059 168.788 101.004 168.808 100.952C168.829 100.901 168.86 100.854 168.899 100.814C168.939 100.775 168.985 100.744 169.037 100.723C169.089 100.703 169.144 100.693 169.199 100.694H199.772C199.884 100.694 199.991 100.738 200.07 100.817C200.149 100.896 200.193 101.003 200.193 101.115C200.191 101.225 200.146 101.331 200.067 101.409C199.989 101.488 199.883 101.533 199.772 101.535Z" fill="#004680"/>
<path d="M199.772 107.761H169.199C169.088 107.761 168.981 107.717 168.902 107.638C168.823 107.559 168.779 107.452 168.779 107.34C168.779 107.229 168.823 107.122 168.902 107.043C168.981 106.964 169.088 106.92 169.199 106.92H199.772C199.828 106.92 199.882 106.931 199.933 106.952C199.984 106.973 200.031 107.004 200.07 107.043C200.109 107.082 200.14 107.129 200.161 107.18C200.182 107.231 200.193 107.285 200.193 107.34C200.193 107.396 200.182 107.45 200.161 107.501C200.14 107.552 200.109 107.599 200.07 107.638C200.031 107.677 199.984 107.708 199.933 107.729C199.882 107.75 199.828 107.761 199.772 107.761Z" fill="#004680"/>
<path d="M199.772 113.987H169.199C169.144 113.989 169.089 113.979 169.037 113.958C168.985 113.937 168.939 113.906 168.899 113.867C168.86 113.828 168.829 113.781 168.808 113.729C168.788 113.678 168.778 113.622 168.779 113.567C168.779 113.455 168.823 113.348 168.902 113.269C168.981 113.191 169.088 113.146 169.199 113.146H199.772C199.883 113.149 199.989 113.194 200.067 113.272C200.146 113.35 200.191 113.456 200.193 113.567C200.193 113.622 200.182 113.677 200.161 113.728C200.14 113.779 200.109 113.825 200.07 113.864C200.031 113.903 199.984 113.934 199.933 113.955C199.882 113.976 199.828 113.987 199.772 113.987Z" fill="#004680"/>
<path d="M192.065 120.223H169.209C169.097 120.223 168.99 120.178 168.911 120.099C168.833 120.021 168.788 119.914 168.788 119.802C168.787 119.746 168.797 119.691 168.818 119.64C168.838 119.588 168.869 119.541 168.909 119.502C168.948 119.463 168.995 119.432 169.046 119.411C169.098 119.39 169.153 119.38 169.209 119.381H192.065C192.177 119.381 192.284 119.426 192.363 119.505C192.442 119.583 192.486 119.69 192.486 119.802C192.484 119.913 192.438 120.018 192.36 120.097C192.282 120.175 192.176 120.22 192.065 120.223Z" fill="#004680"/>
<path d="M236.06 170.653H62.3497C62.2504 170.625 62.163 170.565 62.1008 170.482C62.0385 170.4 62.0049 170.299 62.0049 170.196C62.0049 170.093 62.0385 169.992 62.1008 169.91C62.163 169.827 62.2504 169.767 62.3497 169.739H236.06C236.159 169.767 236.246 169.827 236.309 169.91C236.371 169.992 236.404 170.093 236.404 170.196C236.404 170.299 236.371 170.4 236.309 170.482C236.246 170.565 236.159 170.625 236.06 170.653Z" fill="#231F20"/>
<path d="M244.215 56.8733H227.402C227.3 56.8583 227.207 56.8071 227.139 56.7291C227.072 56.651 227.035 56.5513 227.035 56.4482C227.035 56.3451 227.072 56.2454 227.139 56.1673C227.207 56.0893 227.3 56.0381 227.402 56.0231H244.215C246.229 56.0231 248.16 55.2239 249.584 53.8011C251.009 52.3782 251.81 50.4481 251.813 48.4347V39.1641C251.811 39.1081 251.821 39.0524 251.842 39.0003C251.863 38.9482 251.893 38.9008 251.933 38.8608C251.972 38.8207 252.019 38.7889 252.07 38.7672C252.122 38.7455 252.177 38.7344 252.233 38.7344C252.346 38.7368 252.453 38.7831 252.531 38.8634C252.61 38.9438 252.654 39.0517 252.654 39.1641V48.4347C252.651 50.672 251.762 52.817 250.179 54.3991C248.597 55.9811 246.452 56.8709 244.215 56.8733Z" fill="#D1D3D4"/>
<path d="M274.084 98.4724C273.973 98.4701 273.867 98.425 273.789 98.3466C273.711 98.2683 273.665 98.1626 273.663 98.0518V70.9622C273.658 67.2256 272.171 63.6435 269.528 61.0021C266.885 58.3607 263.302 56.8759 259.565 56.8735H232.576C232.474 56.8585 232.381 56.8073 232.314 56.7292C232.246 56.6512 232.209 56.5515 232.209 56.4483C232.209 56.3452 232.246 56.2455 232.314 56.1674C232.381 56.0894 232.474 56.0382 232.576 56.0232H259.565C263.526 56.028 267.323 57.6035 270.123 60.4041C272.924 63.2046 274.499 67.0016 274.504 70.9622V98.0518C274.502 98.1626 274.457 98.2683 274.379 98.3466C274.3 98.425 274.195 98.4701 274.084 98.4724Z" fill="#D1D3D4"/>
<path d="M271.67 42.1263H245.522V6.03125H277.522V35.0591L271.67 42.1263Z" fill="white"/>
<path d="M271.716 42.5924H245.568C245.506 42.5924 245.445 42.5801 245.387 42.5561C245.33 42.5321 245.278 42.4969 245.235 42.4526C245.192 42.4084 245.157 42.3559 245.134 42.2982C245.112 42.2406 245.1 42.179 245.102 42.117V6.03106C245.102 5.9074 245.151 5.7888 245.238 5.70136C245.326 5.61391 245.444 5.56479 245.568 5.56479H277.567C277.629 5.56357 277.691 5.57474 277.748 5.59762C277.806 5.62051 277.858 5.65466 277.903 5.69808C277.947 5.7415 277.982 5.79332 278.006 5.85049C278.03 5.90767 278.043 5.96905 278.043 6.03106V35.0589C278.042 35.1691 278.003 35.2758 277.933 35.3606L272.036 42.4644C271.949 42.5464 271.835 42.5922 271.716 42.5924ZM246.043 41.6782H271.496L277.101 34.9126V6.57048H246.016L246.043 41.6782Z" fill="#231F20"/>
<path d="M271.67 42.1262V34.6841H277.522" fill="#231F20"/>
<path d="M271.716 42.5927C271.654 42.5927 271.592 42.5803 271.535 42.5563C271.478 42.5323 271.426 42.4971 271.383 42.4529C271.339 42.4086 271.305 42.3561 271.282 42.2985C271.26 42.2409 271.248 42.1792 271.25 42.1172V34.6843C271.254 34.5638 271.306 34.4499 271.392 34.3663C271.479 34.2828 271.595 34.2362 271.716 34.2363H277.567C277.638 34.2161 277.712 34.2126 277.785 34.226C277.857 34.2395 277.925 34.2696 277.984 34.3139C278.043 34.3582 278.09 34.4156 278.123 34.4814C278.156 34.5473 278.173 34.6199 278.173 34.6934C278.173 34.767 278.156 34.8396 278.123 34.9055C278.09 34.9713 278.043 35.0287 277.984 35.073C277.925 35.1173 277.857 35.1474 277.785 35.1608C277.712 35.1743 277.638 35.1708 277.567 35.1506H272.191V42.1081C272.193 42.1713 272.181 42.2341 272.158 42.2928C272.134 42.3516 272.1 42.4051 272.055 42.4502C272.011 42.4953 271.958 42.5312 271.9 42.5556C271.842 42.5801 271.779 42.5927 271.716 42.5927Z" fill="#231F20"/>
<path d="M272.685 13.7476H250.368C250.256 13.7476 250.149 13.7033 250.07 13.6244C249.992 13.5456 249.947 13.4386 249.947 13.3271C249.947 13.2155 249.992 13.1085 250.07 13.0297C250.149 12.9508 250.256 12.9065 250.368 12.9065H272.685C272.797 12.9065 272.903 12.9508 272.982 13.0297C273.061 13.1085 273.106 13.2155 273.106 13.3271C273.106 13.4386 273.061 13.5456 272.982 13.6244C272.903 13.7033 272.797 13.7476 272.685 13.7476Z" fill="#004680"/>
<path d="M272.685 19.1876H250.368C250.256 19.1876 250.149 19.1432 250.07 19.0644C249.992 18.9855 249.947 18.8785 249.947 18.767C249.947 18.6555 249.992 18.5485 250.07 18.4696C250.149 18.3907 250.256 18.3464 250.368 18.3464H272.685C272.797 18.3464 272.903 18.3907 272.982 18.4696C273.061 18.5485 273.106 18.6555 273.106 18.767C273.106 18.8785 273.061 18.9855 272.982 19.0644C272.903 19.1432 272.797 19.1876 272.685 19.1876Z" fill="#004680"/>
<path d="M272.685 24.6273H250.368C250.312 24.6285 250.257 24.6185 250.206 24.5978C250.154 24.5771 250.107 24.5462 250.068 24.5069C250.028 24.4676 249.998 24.4207 249.977 24.3691C249.956 24.3175 249.946 24.2623 249.947 24.2067C249.947 24.0952 249.992 23.9882 250.071 23.9093C250.149 23.8304 250.256 23.7861 250.368 23.7861H272.685C272.796 23.7885 272.902 23.8335 272.98 23.9119C273.058 23.9903 273.103 24.0959 273.106 24.2067C273.106 24.3182 273.061 24.4252 272.982 24.5041C272.904 24.5829 272.797 24.6273 272.685 24.6273Z" fill="#004680"/>
<path d="M272.685 30.0672H250.368C250.312 30.0685 250.257 30.0584 250.206 30.0377C250.154 30.017 250.107 29.9861 250.068 29.9468C250.028 29.9075 249.998 29.8606 249.977 29.809C249.956 29.7575 249.946 29.7022 249.947 29.6466C249.947 29.5351 249.992 29.4281 250.071 29.3493C250.149 29.2704 250.256 29.2261 250.368 29.2261H272.685C272.796 29.2284 272.902 29.2735 272.98 29.3518C273.058 29.4302 273.103 29.5358 273.106 29.6466C273.106 29.7582 273.061 29.8651 272.982 29.944C272.904 30.0229 272.797 30.0672 272.685 30.0672Z" fill="#004680"/>
<path d="M227.402 58.3087C227.301 58.7841 227.21 59.223 227.091 59.7258C226.572 61.7653 225.395 63.5767 223.742 64.8792C222.089 66.1817 220.053 66.9026 217.948 66.9302C206.575 66.9302 195.204 66.9302 183.837 66.9302C181.446 66.9228 179.131 66.0858 177.287 64.5621C175.444 63.0385 174.186 60.9224 173.729 58.575C173.271 56.2276 173.643 53.7942 174.779 51.6898C175.915 49.5855 177.747 47.9407 179.961 47.0359C180.113 46.996 180.248 46.9074 180.346 46.7837C180.443 46.6599 180.497 46.5076 180.5 46.3502C180.62 45.1074 181.056 43.916 181.766 42.8893C182.477 41.8627 183.438 41.035 184.559 40.4851C185.68 39.9352 186.923 39.6813 188.17 39.7478C189.416 39.8142 190.625 40.1987 191.681 40.8646L192.084 41.1114C192.961 39.2731 194.222 37.6439 195.782 36.3335C197.342 35.023 199.164 34.0616 201.126 33.5139C203.933 32.7216 206.92 32.853 209.647 33.8888C212.492 34.9321 214.927 36.8617 216.592 39.3932C218.258 41.9248 219.067 44.9244 218.899 47.9501C219.329 48.0416 219.768 48.0964 220.188 48.2244C224.138 49.4038 226.588 51.9455 227.31 56.0779C227.332 56.1809 227.363 56.2818 227.402 56.3796V58.3087Z" fill="white"/>
<path d="M200.065 67.4147C194.442 67.4147 189.094 67.4147 183.8 67.4147C181.312 67.3841 178.908 66.5033 176.989 64.9184C175.07 63.3335 173.75 61.1399 173.25 58.7017C172.757 56.2396 173.141 53.6827 174.335 51.4738C175.528 49.2648 177.457 47.5428 179.787 46.6061C180.006 46.5146 180.015 46.4781 180.034 46.3135C180.186 44.9655 180.678 43.6783 181.463 42.5719C182.248 41.4655 183.301 40.5761 184.523 39.9868C185.688 39.4199 186.981 39.1657 188.275 39.249C189.568 39.3323 190.818 39.7504 191.901 40.4622C192.83 38.6733 194.117 37.0944 195.682 35.8237C197.247 34.5529 199.056 33.6173 200.998 33.075C203.901 32.2601 206.989 32.3946 209.811 33.459C212.684 34.5138 215.154 36.4432 216.873 38.9756C218.592 41.5079 219.473 44.5156 219.393 47.5752C219.701 47.6285 220.006 47.6987 220.307 47.7855C224.531 49.0471 227.036 51.8082 227.758 56.0138C227.749 56.056 227.749 56.0996 227.758 56.1418V56.2607C227.767 56.3059 227.767 56.3525 227.758 56.3978V58.336C227.763 58.3694 227.763 58.4033 227.758 58.4366L227.667 58.8755C227.603 59.2046 227.53 59.5429 227.447 59.872C226.906 62.0212 225.665 63.9293 223.921 65.2964C222.177 66.6635 220.027 67.4119 217.811 67.4238L200.065 67.4147ZM187.787 40.1605C186.798 40.1627 185.823 40.3877 184.934 40.8188C183.856 41.3367 182.927 42.1202 182.234 43.0958C181.542 44.0713 181.108 45.2069 180.975 46.3958C180.96 46.6369 180.872 46.8677 180.724 47.0584C180.575 47.2491 180.373 47.3909 180.143 47.4655C178.018 48.3194 176.258 49.8904 175.169 51.906C174.08 53.9216 173.731 56.2546 174.182 58.5006C174.636 60.7258 175.837 62.7286 177.587 64.1758C179.337 65.623 181.53 66.4272 183.8 66.4547C194.369 66.4547 205.532 66.4547 217.912 66.4547C219.918 66.4405 221.864 65.7603 223.443 64.521C225.021 63.2816 226.144 61.5531 226.634 59.6069C226.716 59.296 226.78 58.976 226.844 58.6926L226.926 58.2995V56.4709C226.887 56.3707 226.86 56.2665 226.844 56.1601C226.176 52.3019 223.955 49.8517 220.051 48.6814C219.777 48.6095 219.499 48.5515 219.219 48.5077L218.807 48.4254C218.695 48.4034 218.595 48.3409 218.526 48.2499C218.457 48.1589 218.424 48.0457 218.433 47.9317C218.586 45.0084 217.8 42.1127 216.19 39.6681C214.579 37.2236 212.229 35.3585 209.482 34.3458C206.849 33.347 203.965 33.2188 201.254 33.9801C199.351 34.5062 197.584 35.437 196.074 36.7087C194.564 37.9805 193.346 39.5634 192.504 41.349C192.465 41.4026 192.416 41.4479 192.36 41.4824C192.303 41.5169 192.24 41.54 192.175 41.5502C192.048 41.5787 191.914 41.5591 191.8 41.4953L191.389 41.2393C190.315 40.5438 189.066 40.1695 187.787 40.1605Z" fill="#231F20"/>
<path d="M299.18 93.8552H248.997V140.803H299.18V93.8552Z" fill="#231F20"/>
<path d="M299.144 141.278H248.996C248.871 141.276 248.751 141.225 248.663 141.136C248.574 141.048 248.523 140.928 248.521 140.803V93.8553C248.523 93.7308 248.575 93.6122 248.663 93.525C248.752 93.4378 248.872 93.389 248.996 93.389H299.144C299.206 93.3878 299.267 93.399 299.325 93.4218C299.383 93.4447 299.435 93.4789 299.479 93.5223C299.524 93.5657 299.559 93.6175 299.583 93.6747C299.607 93.7319 299.619 93.7933 299.619 93.8553V140.803C299.619 140.929 299.569 141.05 299.48 141.139C299.391 141.228 299.27 141.278 299.144 141.278ZM249.435 140.364H298.677V94.3307H249.472L249.435 140.364Z" fill="#231F20"/>
<path d="M299.652 132H249.495C247.289 132 245.5 133.789 245.5 135.995V144.48C245.5 146.686 247.289 148.475 249.495 148.475H299.652C301.858 148.475 303.647 146.686 303.647 144.48V135.995C303.647 133.789 301.858 132 299.652 132Z" fill="white"/>
<path d="M299.144 148.592H249.015C247.829 148.592 246.692 148.121 245.853 147.283C245.015 146.444 244.544 145.307 244.544 144.121V135.637C244.546 134.452 245.018 133.316 245.856 132.478C246.694 131.64 247.83 131.169 249.015 131.166H299.144C300.329 131.169 301.464 131.64 302.302 132.478C303.14 133.316 303.612 134.452 303.614 135.637V144.121C303.612 145.306 303.14 146.442 302.302 147.28C301.464 148.118 300.329 148.59 299.144 148.592ZM248.987 132.135C248.053 132.135 247.157 132.506 246.495 133.166C245.834 133.826 245.461 134.721 245.458 135.655V144.14C245.458 144.603 245.549 145.062 245.727 145.49C245.904 145.918 246.164 146.307 246.492 146.635C246.82 146.963 247.209 147.223 247.637 147.4C248.065 147.577 248.524 147.669 248.987 147.669H299.144C300.078 147.666 300.973 147.293 301.633 146.632C302.293 145.97 302.664 145.074 302.664 144.14V135.655C302.661 134.722 302.29 133.829 301.63 133.169C300.97 132.509 300.076 132.138 299.144 132.135H248.987Z" fill="#231F20"/>
<path d="M299.171 111.564H249.015C246.808 111.564 245.02 113.353 245.02 115.56V124.044C245.02 126.251 246.808 128.039 249.015 128.039H299.171C301.378 128.039 303.167 126.251 303.167 124.044V115.56C303.167 113.353 301.378 111.564 299.171 111.564Z" fill="white"/>
<path d="M299.144 128.515H249.015C247.83 128.512 246.694 128.041 245.856 127.203C245.018 126.365 244.546 125.229 244.544 124.044V115.606C244.544 114.42 245.015 113.283 245.853 112.444C246.692 111.606 247.829 111.135 249.015 111.135H299.144C300.329 111.137 301.464 111.609 302.302 112.447C303.14 113.285 303.612 114.421 303.614 115.606V124.09C303.6 125.267 303.123 126.391 302.286 127.219C301.45 128.047 300.321 128.513 299.144 128.515ZM248.987 112.058C248.524 112.058 248.065 112.149 247.637 112.327C247.209 112.504 246.82 112.764 246.492 113.092C246.164 113.42 245.904 113.809 245.727 114.237C245.549 114.665 245.458 115.124 245.458 115.587V124.072C245.461 125.006 245.834 125.901 246.495 126.561C247.157 127.221 248.053 127.591 248.987 127.591H299.144C300.076 127.589 300.97 127.217 301.63 126.558C302.29 125.898 302.661 125.004 302.664 124.072V115.606C302.664 114.671 302.293 113.775 301.633 113.113C300.973 112.452 300.078 112.079 299.144 112.076L248.987 112.058Z" fill="#231F20"/>
<path d="M299.171 91.478H249.015C246.808 91.478 245.02 93.2668 245.02 95.4733V103.958C245.02 106.164 246.808 107.953 249.015 107.953H299.171C301.378 107.953 303.167 106.164 303.167 103.958V95.4733C303.167 93.2668 301.378 91.478 299.171 91.478Z" fill="white"/>
<path d="M299.144 108.429H249.015C247.829 108.429 246.692 107.958 245.853 107.119C245.015 106.281 244.544 105.144 244.544 103.958V95.4917C244.544 94.306 245.015 93.1689 245.853 92.3304C246.692 91.492 247.829 91.021 249.015 91.021H299.144C300.329 91.0234 301.464 91.4952 302.302 92.3331C303.14 93.171 303.612 94.3068 303.614 95.4917V103.967C303.61 105.15 303.137 106.284 302.299 107.12C301.461 107.956 300.327 108.426 299.144 108.429ZM248.987 91.9718C248.524 91.9718 248.065 92.0631 247.637 92.2405C247.209 92.4178 246.82 92.6778 246.492 93.0055C246.164 93.3332 245.904 93.7222 245.727 94.1504C245.549 94.5785 245.458 95.0374 245.458 95.5009V103.976C245.458 104.44 245.549 104.898 245.727 105.327C245.904 105.755 246.164 106.144 246.492 106.472C246.82 106.799 247.209 107.059 247.637 107.237C248.065 107.414 248.524 107.505 248.987 107.505H299.144C300.078 107.503 300.973 107.13 301.633 106.468C302.293 105.807 302.664 104.91 302.664 103.976V95.4917C302.664 94.5574 302.293 93.6611 301.633 92.9995C300.973 92.338 300.078 91.9651 299.144 91.9627L248.987 91.9718Z" fill="#231F20"/>
<path d="M252.233 98.3261C252.839 98.3261 253.33 97.8349 253.33 97.2289C253.33 96.623 252.839 96.1318 252.233 96.1318C251.627 96.1318 251.136 96.623 251.136 97.2289C251.136 97.8349 251.627 98.3261 252.233 98.3261Z" fill="#ED2D24"/>
<path d="M252.233 98.7831C251.926 98.7831 251.625 98.6919 251.369 98.5211C251.114 98.3503 250.915 98.1076 250.797 97.8236C250.679 97.5396 250.649 97.2271 250.709 96.9256C250.769 96.6241 250.917 96.3472 251.134 96.1298C251.351 95.9124 251.628 95.7644 251.93 95.7044C252.231 95.6445 252.544 95.6752 252.828 95.7929C253.112 95.9105 253.354 96.1097 253.525 96.3653C253.696 96.6209 253.787 96.9214 253.787 97.2288C253.785 97.6403 253.62 98.0342 253.329 98.3252C253.038 98.6161 252.644 98.7807 252.233 98.7831ZM252.233 96.5888C252.063 96.5888 251.9 96.6563 251.78 96.7763C251.66 96.8963 251.593 97.0591 251.593 97.2288C251.593 97.3985 251.66 97.5613 251.78 97.6813C251.9 97.8014 252.063 97.8688 252.233 97.8688C252.403 97.8688 252.565 97.8014 252.685 97.6813C252.805 97.5613 252.873 97.3985 252.873 97.2288C252.873 97.0591 252.805 96.8963 252.685 96.7763C252.565 96.6563 252.403 96.5888 252.233 96.5888Z" fill="#ED2D24"/>
<path d="M256.877 98.3261C257.483 98.3261 257.974 97.8349 257.974 97.2289C257.974 96.623 257.483 96.1318 256.877 96.1318C256.271 96.1318 255.78 96.623 255.78 97.2289C255.78 97.8349 256.271 98.3261 256.877 98.3261Z" fill="#ED2D24"/>
<path d="M256.877 98.7831C256.57 98.7831 256.27 98.6919 256.014 98.5211C255.758 98.3503 255.559 98.1076 255.442 97.8236C255.324 97.5396 255.293 97.2271 255.353 96.9256C255.413 96.6241 255.561 96.3472 255.778 96.1298C255.996 95.9124 256.273 95.7644 256.574 95.7044C256.876 95.6445 257.188 95.6752 257.472 95.7929C257.756 95.9105 257.999 96.1097 258.17 96.3653C258.341 96.6209 258.432 96.9214 258.432 97.2288C258.432 97.641 258.268 98.0363 257.977 98.3278C257.685 98.6193 257.29 98.7831 256.877 98.7831ZM256.877 96.5888C256.751 96.5888 256.627 96.6264 256.522 96.6967C256.417 96.767 256.335 96.867 256.286 96.9839C256.238 97.1008 256.225 97.2295 256.25 97.3537C256.274 97.4778 256.335 97.5918 256.425 97.6813C256.514 97.7708 256.628 97.8318 256.753 97.8565C256.877 97.8812 257.005 97.8685 257.122 97.8201C257.239 97.7716 257.339 97.6896 257.41 97.5844C257.48 97.4791 257.517 97.3554 257.517 97.2288C257.517 97.0591 257.45 96.8963 257.33 96.7763C257.21 96.6563 257.047 96.5888 256.877 96.5888Z" fill="#ED2D24"/>
<path d="M261.522 98.3261C262.128 98.3261 262.619 97.8349 262.619 97.2289C262.619 96.623 262.128 96.1318 261.522 96.1318C260.916 96.1318 260.425 96.623 260.425 97.2289C260.425 97.8349 260.916 98.3261 261.522 98.3261Z" fill="#ED2D24"/>
<path d="M261.522 98.783C261.215 98.7812 260.915 98.6885 260.661 98.5167C260.406 98.3448 260.209 98.1014 260.092 97.8173C259.976 97.5331 259.947 97.2209 260.008 96.92C260.069 96.6191 260.217 96.343 260.435 96.1266C260.653 95.9101 260.93 95.763 261.231 95.7038C261.532 95.6445 261.844 95.6758 262.128 95.7937C262.411 95.9116 262.653 96.1109 262.824 96.3662C262.994 96.6216 263.085 96.9218 263.085 97.2288C263.085 97.4337 263.045 97.6365 262.966 97.8257C262.887 98.0149 262.772 98.1866 262.627 98.3311C262.481 98.4755 262.309 98.5898 262.119 98.6674C261.93 98.7449 261.727 98.7842 261.522 98.783ZM261.522 96.5888C261.352 96.5888 261.189 96.6562 261.069 96.7763C260.949 96.8963 260.882 97.059 260.882 97.2288C260.882 97.3985 260.949 97.5613 261.069 97.6813C261.189 97.8013 261.352 97.8688 261.522 97.8688C261.691 97.8688 261.854 97.8013 261.974 97.6813C262.094 97.5613 262.162 97.3985 262.162 97.2288C262.162 97.059 262.094 96.8963 261.974 96.7763C261.854 96.6562 261.691 96.5888 261.522 96.5888Z" fill="#ED2D24"/>
<path d="M15.6312 36.3939C15.9786 35.3608 16.3261 34.3368 16.6918 33.3037C16.8746 32.7734 17.0849 32.2523 17.3043 31.7312C17.4194 31.4012 17.6456 31.1214 17.944 30.9397C18.2425 30.7579 18.5949 30.6854 18.9408 30.7346C19.7728 30.826 20.5957 30.9997 21.4276 31.1369C21.8672 31.2307 22.3136 31.2888 22.7625 31.3106C23.0922 31.3139 23.4137 31.2078 23.6767 31.0089C24.591 30.0946 25.551 29.1804 26.4195 28.193C26.5705 28.0221 26.6784 27.8176 26.7341 27.5965C26.7898 27.3754 26.7916 27.1441 26.7395 26.9221C26.5292 25.9164 26.2915 24.9108 26.0812 23.9051C25.9863 23.5165 25.9493 23.1159 25.9715 22.7165C25.9972 22.419 26.1383 22.1433 26.3647 21.9485C27.896 20.9238 29.5726 20.1348 31.3382 19.608C31.5993 19.5259 31.88 19.5314 32.1376 19.6239C32.3951 19.7163 32.6153 19.8906 32.7645 20.12C33.3953 20.9886 34.0627 21.8388 34.6753 22.7348C34.8727 23.0694 35.162 23.3403 35.5088 23.5153C35.8557 23.6903 36.2454 23.7621 36.6318 23.7222C37.7381 23.6399 38.8443 23.6216 39.9415 23.5759C40.144 23.5636 40.3406 23.5023 40.5141 23.3971C40.6877 23.292 40.8332 23.1463 40.938 22.9725C41.3311 22.3874 41.706 21.7931 42.09 21.208C42.474 20.6229 42.7482 20.1932 43.0957 19.7086C43.2491 19.4568 43.4854 19.2662 43.7639 19.1695C44.0425 19.0727 44.346 19.0759 44.6225 19.1783C46.1493 19.7086 47.667 20.248 49.1938 20.824C49.4812 20.9375 49.7203 21.1472 49.8703 21.4173C50.0204 21.6874 50.0721 22.0011 50.0166 22.3051C49.9343 23.1462 49.7423 23.9873 49.6143 24.8285C49.5504 25.2216 49.4864 25.6147 49.4589 26.017C49.4271 26.2733 49.4561 26.5334 49.5434 26.7764C49.6308 27.0194 49.7741 27.2385 49.9618 27.4158C50.7663 28.1747 51.58 28.9244 52.3571 29.7106C52.5858 29.9552 52.8773 30.1323 53.1997 30.2226C53.5222 30.3129 53.8632 30.3129 54.1857 30.2226L57.4496 29.4821C57.8133 29.3631 58.2094 29.3923 58.5517 29.5635C58.894 29.7346 59.1551 30.0339 59.2781 30.3963C59.8876 31.6946 60.4971 33.0081 61.1066 34.3368C61.2172 34.5156 61.2903 34.7149 61.3216 34.9228C61.3529 35.1306 61.3417 35.3426 61.2888 35.546C61.2358 35.7495 61.1421 35.94 61.0133 36.1062C60.8846 36.2723 60.7235 36.4106 60.5398 36.5127C59.9821 36.9516 59.3787 37.3356 58.8027 37.7653C58.3913 38.0761 57.9799 38.3961 57.5959 38.6795C57.4299 38.8171 57.2975 38.9908 57.2088 39.1872C57.1201 39.3837 57.0774 39.5978 57.0839 39.8132C57.0839 40.9561 57.0839 42.0989 57.1844 43.2417C57.1957 43.5514 57.2856 43.8532 57.4455 44.1187C57.6054 44.3842 57.8302 44.6046 58.0987 44.7594L59.9272 45.8657C60.3146 46.0995 60.6899 46.3528 61.0518 46.6245C61.313 46.7962 61.5068 47.053 61.6001 47.3513C61.6934 47.6496 61.6806 47.9711 61.5638 48.261C61.0609 49.6415 60.5398 51.0038 60.0187 52.3843C59.9288 52.5918 59.8153 52.7881 59.6804 52.9695C59.5564 53.1903 59.366 53.3665 59.1363 53.4732C58.9066 53.5798 58.6491 53.6115 58.4004 53.5637L55.4291 53.07H55.2096C54.7955 52.9604 54.358 52.9775 53.9537 53.1194C53.5495 53.2612 53.1971 53.5211 52.9423 53.8654C52.3846 54.5329 51.7446 55.1271 51.1137 55.7488C50.8315 56.0225 50.6301 56.3687 50.5318 56.7493C50.4334 57.1299 50.4418 57.5303 50.556 57.9065C50.8029 58.8665 51.0406 59.8264 51.2326 60.7956C51.3102 60.9807 51.3478 61.1801 51.343 61.3808C51.3383 61.5814 51.2912 61.7788 51.2049 61.96C51.1186 62.1412 50.995 62.3022 50.8423 62.4324C50.6895 62.5626 50.5109 62.6591 50.3183 62.7155C48.9744 63.3646 47.5755 63.968 46.2316 64.544C45.9261 64.7197 45.5641 64.7693 45.2226 64.6822C44.8811 64.5952 44.5871 64.3783 44.4031 64.0778C43.8728 63.4012 43.3882 62.6972 42.8854 62.0024C41.8248 60.5121 41.5597 60.375 39.722 60.4664L37.5827 60.5944C37.2415 60.5975 36.9069 60.6892 36.612 60.8608C36.317 61.0323 36.0718 61.2776 35.9004 61.5727C35.4616 62.2949 35.0501 63.0264 34.593 63.7303C34.3522 64.0973 34.0767 64.4402 33.7702 64.7543C33.6346 64.9142 33.4528 65.0282 33.2498 65.0806C33.0468 65.133 32.8325 65.1212 32.6365 65.0469L28.3029 63.4286C28.1083 63.3436 27.9242 63.2362 27.7543 63.1086C27.5311 62.9863 27.3519 62.7969 27.242 62.5673C27.1321 62.3376 27.097 62.0793 27.1418 61.8287C27.2972 60.8504 27.4709 59.8722 27.6172 58.8939C27.6172 58.6013 27.6903 58.2996 27.7086 57.9796C27.7349 57.7355 27.7039 57.4886 27.6182 57.2585C27.5325 57.0284 27.3945 56.8214 27.2149 56.6539C26.4287 55.9317 25.6515 55.2003 24.8744 54.4689C24.6523 54.2535 24.3766 54.1018 24.0758 54.0294C23.7751 53.957 23.4604 53.9667 23.1647 54.0574C22.2505 54.2951 21.2356 54.5054 20.2665 54.7249H20.1568C18.8951 54.9534 18.4929 54.7889 17.9443 53.6277C17.3957 52.4666 16.7923 51.0587 16.2621 49.7787C16.1697 49.626 16.1098 49.456 16.0861 49.2792C16.0624 49.1023 16.0755 48.9225 16.1244 48.7509C16.1733 48.5793 16.257 48.4197 16.3704 48.2819C16.4837 48.1441 16.6242 48.0312 16.7832 47.9502C17.5512 47.365 18.3374 46.7982 19.142 46.2771C19.5399 46.0496 19.8617 45.7095 20.0667 45.2995C20.2717 44.8895 20.3508 44.428 20.294 43.9731C20.2208 42.9492 20.2025 41.916 20.1477 40.8921C20.1431 40.6766 20.0857 40.4655 19.9804 40.2774C19.8752 40.0893 19.7255 39.9299 19.5443 39.8132C18.6849 39.2647 17.8254 38.7344 16.9752 38.1767C16.3706 37.8838 15.8907 37.3844 15.6221 36.7687L15.6312 36.3939ZM48.3435 42.1355C48.3412 40.8502 48.0846 39.5781 47.5886 38.3923C47.0926 37.2066 46.367 36.1307 45.4535 35.2266C44.54 34.3224 43.4567 33.6079 42.2659 33.1241C41.0751 32.6403 39.8004 32.3969 38.5152 32.4077C35.9598 32.483 33.5323 33.5428 31.74 35.3659C29.9476 37.1889 28.9291 39.634 28.8972 42.1903C28.921 44.7508 29.9487 47.1996 31.7593 49.0102C33.5699 50.8208 36.0187 51.8485 38.5792 51.8724C39.8636 51.8882 41.1382 51.6474 42.3282 51.1641C43.5182 50.6807 44.5997 49.9646 45.5093 49.0576C46.4188 48.1506 47.138 47.0711 47.6247 45.8824C48.1114 44.6938 48.3558 43.4199 48.3435 42.1355Z" fill="#6F93B3"/>
<path d="M33.0203 65.5862C32.8386 65.5884 32.6583 65.5542 32.49 65.4856L31.3289 65.0559L28.1564 63.8674C27.9559 63.7865 27.7656 63.6821 27.5896 63.5565C27.2634 63.3876 26.9992 63.1195 26.8349 62.791C26.6707 62.4625 26.6148 62.0903 26.6753 61.728L26.8947 60.4206C26.977 59.8812 27.0684 59.3418 27.1507 58.7932C27.1962 58.5118 27.2237 58.2278 27.233 57.943C27.2531 57.7747 27.2329 57.604 27.1741 57.445C27.1152 57.2861 27.0195 57.1434 26.8947 57.0287C26.1724 56.3704 25.4593 55.703 24.7462 55.0265L24.5451 54.8436C24.3821 54.6804 24.1769 54.5657 23.9525 54.5124C23.728 54.4592 23.4932 54.4694 23.2742 54.5419C22.6068 54.7065 21.9303 54.8528 21.2629 55.0082L20.2937 55.2642C18.7943 55.5384 18.1818 55.2642 17.551 53.9019C16.9201 52.5397 16.2893 51.0403 15.8413 49.9432C15.6212 49.54 15.5688 49.0664 15.6954 48.6249C15.822 48.1834 16.1175 47.8095 16.5178 47.5844C17.4321 46.8987 18.1726 46.3592 18.9041 45.8838C19.2212 45.7048 19.4777 45.4351 19.6406 45.1093C19.8035 44.7835 19.8654 44.4165 19.8183 44.0553C19.8183 43.4153 19.7452 42.7753 19.7178 42.1354L19.6629 40.9651C19.666 40.8244 19.6322 40.6854 19.5649 40.5619C19.4975 40.4383 19.3989 40.3346 19.2789 40.2611L18.2092 39.5754L16.7098 38.6612C16.0139 38.3116 15.4658 37.7246 15.1647 37.0063C15.156 36.9549 15.156 36.9024 15.1647 36.8509V36.4761C15.156 36.4246 15.156 36.3721 15.1647 36.3206L15.4756 35.4064C15.7224 34.6841 15.9693 33.9527 16.2253 33.2304C16.4173 32.691 16.6275 32.1608 16.847 31.6305C17.004 31.2084 17.2988 30.8515 17.6837 30.6176C18.0685 30.3837 18.521 30.2864 18.9681 30.3414C19.5258 30.4054 20.0835 30.5059 20.632 30.6065L21.4823 30.7528L21.8114 30.8076C22.1121 30.8725 22.4182 30.9092 22.7257 30.9174C22.9414 30.9224 23.1541 30.8653 23.3382 30.7528C24.3439 29.8385 25.2948 28.7963 26.081 27.946C26.1876 27.8222 26.2591 27.6721 26.2881 27.5113C26.317 27.3505 26.3023 27.1849 26.2456 27.0317C26.1542 26.5838 26.0444 26.1175 25.9439 25.6878C25.8433 25.2581 25.697 24.5724 25.5873 24.0147C25.4807 23.5783 25.4407 23.1282 25.4685 22.6799C25.4862 22.4635 25.5491 22.2534 25.653 22.0628C25.757 21.8723 25.8996 21.7056 26.0719 21.5736C27.6698 20.5136 29.4213 19.7057 31.2649 19.1782C31.617 19.0706 31.9945 19.0801 32.3408 19.2054C32.687 19.3307 32.9832 19.565 33.1848 19.8731L33.8705 20.7873C34.2911 21.3542 34.7117 21.9119 35.1048 22.497C35.2569 22.7651 35.4845 22.9825 35.7592 23.1223C36.0339 23.2621 36.3436 23.3181 36.6499 23.2833C37.363 23.2284 38.0853 23.201 38.7984 23.1736L39.9687 23.1278C40.0971 23.1204 40.2216 23.0804 40.3303 23.0116C40.4391 22.9429 40.5286 22.8476 40.5904 22.7347C40.8281 22.3964 41.0475 22.049 41.2761 21.7016L41.8978 20.7873C42.172 20.3576 42.4555 19.8731 42.7572 19.5074C42.9677 19.1725 43.2874 18.9206 43.6621 18.794C44.0368 18.6674 44.4438 18.674 44.8143 18.8125C46.6428 19.4434 48.069 19.9554 49.3856 20.4582C49.7446 20.6162 50.0433 20.8855 50.2376 21.2263C50.4318 21.5671 50.5114 21.9613 50.4644 22.3507C50.4004 22.9358 50.2998 23.5027 50.1993 24.0604C50.1444 24.3438 50.0987 24.6272 50.053 24.9107C50.0073 25.1941 49.925 25.6786 49.8976 26.0626C49.8711 26.2502 49.8906 26.4413 49.9543 26.6197C50.018 26.798 50.124 26.9582 50.2633 27.0866L50.8301 27.626C51.4518 28.202 52.0735 28.7871 52.6586 29.3905C52.8258 29.5743 53.0416 29.7071 53.281 29.7734C53.5205 29.8397 53.7738 29.837 54.0117 29.7654C54.542 29.6557 55.0723 29.5277 55.5934 29.4088L57.2757 29.034C57.7381 28.8868 58.2393 28.9212 58.6773 29.13C59.1154 29.3389 59.4576 29.7066 59.6344 30.1585C60.2561 31.4568 60.8596 32.7916 61.463 34.1081C61.7309 34.5658 61.8073 35.1107 61.6754 35.6244C61.5436 36.1381 61.2142 36.5789 60.759 36.8509C60.4207 37.1161 60.0733 37.3629 59.7167 37.6098L59.0127 38.1126C58.6013 38.4143 58.2082 38.7252 57.8334 39.0269C57.7181 39.1176 57.6263 39.2348 57.5659 39.3684C57.5054 39.5021 57.478 39.6484 57.4859 39.7948V40.5171C57.4859 41.4314 57.4859 42.3456 57.5682 43.205C57.5702 43.4382 57.6349 43.6665 57.7556 43.8659C57.8762 44.0654 58.0484 44.2287 58.2539 44.3387C58.5099 44.5033 58.775 44.6587 59.0493 44.8141L60.1282 45.4541C60.4939 45.6827 60.9053 45.9387 61.2984 46.2404C61.6376 46.4756 61.8873 46.8186 62.0068 47.2136C62.1263 47.6087 62.1086 48.0326 61.9567 48.4163C61.4538 49.7877 60.9418 51.1591 60.4116 52.5397C60.3218 52.7604 60.2052 52.9693 60.0642 53.1614C59.8913 53.4813 59.6205 53.7374 59.2914 53.8921C58.9623 54.0467 58.5922 54.0918 58.2356 54.0208L55.2643 53.5271H55.0083C54.6749 53.4281 54.3188 53.4366 53.9906 53.5515C53.6623 53.6664 53.3786 53.8818 53.1798 54.1671C52.7775 54.6425 52.3386 55.0813 51.9089 55.511L51.3695 56.0687C51.1469 56.2862 50.9883 56.5607 50.9109 56.8622C50.8335 57.1636 50.8404 57.4805 50.9307 57.7784C51.205 58.8572 51.4244 59.7623 51.6164 60.6949C51.7024 60.933 51.7398 61.1859 51.7264 61.4387C51.7129 61.6915 51.6489 61.939 51.5381 62.1667C51.4273 62.3943 51.2719 62.5973 51.0812 62.7638C50.8905 62.9303 50.6683 63.0569 50.4278 63.136C49.1936 63.7302 47.8588 64.3337 46.3319 64.9645C45.9483 65.1505 45.5117 65.1965 45.0976 65.0947C44.6836 64.9928 44.3182 64.7495 44.0646 64.4068C43.6257 63.8491 43.2234 63.2731 42.812 62.7063L42.5377 62.3131C41.5595 60.9417 41.4498 60.8869 39.795 60.9783L38.5881 61.0423L37.6739 61.0972C37.4083 61.0965 37.1473 61.1664 36.9175 61.2998C36.6878 61.4331 36.4977 61.6251 36.3665 61.856L35.9368 62.5783C35.6442 63.0628 35.3608 63.5474 35.0225 64.0228C34.7524 64.4161 34.4464 64.7834 34.1082 65.1199C33.8213 65.4128 33.4302 65.5803 33.0203 65.5862ZM23.7039 53.5362C24.2679 53.5336 24.81 53.7537 25.2125 54.1488L25.4136 54.3316C26.1176 54.999 26.8307 55.6664 27.553 56.3247C27.785 56.5385 27.9638 56.8037 28.0749 57.099C28.186 57.3943 28.2265 57.7115 28.193 58.0252C28.1839 58.3317 28.1533 58.6373 28.1015 58.9395C28.0193 59.4881 27.9278 60.0366 27.8364 60.576L27.6078 61.9017C27.5767 62.0627 27.5992 62.2294 27.6718 62.3764C27.7445 62.5233 27.8633 62.6424 28.0101 62.7154L28.0924 62.7703C28.2106 62.8544 28.336 62.9278 28.4672 62.9897L31.6306 64.1691L32.8008 64.5988C32.91 64.6462 33.0322 64.6549 33.1469 64.6233C33.2617 64.5917 33.3622 64.5217 33.4317 64.4251C33.7112 64.1409 33.968 63.8352 34.1997 63.5108C34.4922 63.0445 34.7757 62.5966 35.0591 62.1029L35.4979 61.3623C35.7076 61.0008 36.0072 60.6997 36.3677 60.4882C36.7281 60.2768 37.1372 60.1621 37.555 60.1555L38.4693 60.1006L39.6852 60.0366C41.6601 59.936 42.0989 60.1463 43.2509 61.7737L43.5343 62.1577C43.9274 62.7154 44.3297 63.2822 44.7503 63.8125C44.81 63.9173 44.8899 64.0092 44.9853 64.083C45.0807 64.1567 45.1897 64.2109 45.3061 64.2423C45.4225 64.2738 45.544 64.2819 45.6636 64.2662C45.7832 64.2505 45.8985 64.2112 46.0028 64.1508C47.5205 63.5017 48.8461 62.9074 50.0621 62.3223C50.7935 61.9657 50.9032 61.7463 50.7387 60.9235C50.5741 60.1006 50.3364 59.0949 50.0621 58.0435C49.9304 57.5921 49.9229 57.1135 50.0404 56.6582C50.1578 56.2028 50.3959 55.7876 50.7295 55.4562L51.2872 54.8893C51.6987 54.4688 52.1284 54.0391 52.5032 53.5911C52.8198 53.1859 53.2489 52.883 53.7367 52.7204C54.2246 52.5578 54.7496 52.5426 55.246 52.6768H55.3374H55.438L58.4093 53.1796C58.5689 53.2086 58.7336 53.1851 58.8787 53.1126C59.0237 53.0401 59.1413 52.9224 59.2139 52.7774C59.3293 52.6241 59.4274 52.4585 59.5065 52.2837C60.0245 50.9245 60.5365 49.5531 61.0424 48.1695C61.119 47.9745 61.1262 47.7591 61.063 47.5594C60.9997 47.3597 60.8698 47.1878 60.695 47.0724C60.3384 46.7981 59.9453 46.5512 59.607 46.341L58.5373 45.7101L57.7785 45.2073C57.4428 45.0128 57.1619 44.7363 56.962 44.4037C56.7621 44.0712 56.6499 43.6934 56.6357 43.3056C56.6357 42.3913 56.5808 41.4771 56.5625 40.5628V39.8406C56.5527 39.5564 56.6078 39.2737 56.7234 39.0139C56.839 38.7541 57.0122 38.5241 57.2299 38.3412C57.6322 38.0029 58.0436 37.6738 58.4642 37.3629C58.7019 37.1801 58.9488 37.0063 59.1956 36.8418C59.4425 36.6772 59.8722 36.3664 60.1922 36.1104C60.3342 36.04 60.4596 35.9399 60.5596 35.8169C60.6596 35.6938 60.732 35.5507 60.7719 35.3973C60.8118 35.2438 60.8182 35.0835 60.7908 34.9274C60.7633 34.7712 60.7026 34.6228 60.6127 34.4921C60.0459 33.1847 59.4425 31.8682 58.7842 30.5699C58.7413 30.443 58.6732 30.326 58.5841 30.2259C58.4949 30.1259 58.3865 30.0448 58.2653 29.9876C58.1441 29.9304 58.0126 29.8983 57.8787 29.8931C57.7448 29.8879 57.6112 29.9098 57.4859 29.9574L55.822 30.3414L54.222 30.6979C53.827 30.8011 53.4114 30.7962 53.0189 30.6836C52.6265 30.571 52.2715 30.3549 51.9912 30.058C51.4061 29.4637 50.7935 28.8968 50.1627 28.3209L49.6233 27.8363C49.3758 27.606 49.1869 27.3199 49.0724 27.0019C48.9579 26.6838 48.9211 26.343 48.965 26.0078C49.0016 25.5933 49.0564 25.1819 49.1296 24.7735C49.1296 24.4901 49.2301 24.1975 49.2759 23.8593C49.3856 23.3016 49.477 22.7713 49.5319 22.241C49.5663 22.042 49.5338 21.8372 49.4395 21.6585C49.3452 21.4799 49.1945 21.3375 49.0107 21.2536C47.7033 20.7508 46.2679 20.2388 44.4394 19.6079C44.2594 19.5393 44.0607 19.5375 43.8795 19.603C43.6983 19.6684 43.5466 19.7967 43.452 19.9645C43.1594 20.3668 42.8852 20.7873 42.6109 21.2079L41.9892 22.1222C41.7698 22.4787 41.5412 22.8353 41.3035 23.1827C41.158 23.4166 40.9582 23.6119 40.721 23.752C40.4838 23.8921 40.2163 23.9728 39.9412 23.9872L38.7618 24.033C38.0579 24.033 37.3447 24.0878 36.6407 24.1427C36.1703 24.1906 35.6959 24.1034 35.2733 23.8912C34.8506 23.6791 34.4972 23.3509 34.2545 22.945C33.8705 22.3781 33.45 21.8204 33.0386 21.2719L32.3529 20.3576C32.2583 20.2094 32.1172 20.0968 31.9518 20.0372C31.7864 19.9777 31.6059 19.9746 31.4386 20.0285C29.7202 20.5512 28.0922 21.3344 26.6113 22.3507C26.5129 22.467 26.4523 22.6105 26.4376 22.7621C26.4242 23.116 26.4611 23.47 26.5473 23.8135C26.657 24.3621 26.785 24.9107 26.9039 25.4592C27.0227 26.0078 27.1141 26.3735 27.2056 26.8215C27.2923 27.1213 27.3009 27.4383 27.2305 27.7424C27.1601 28.0464 27.013 28.3274 26.8033 28.5586C25.9987 29.418 25.0388 30.3871 24.0148 31.3928C23.6623 31.6752 23.223 31.8271 22.7714 31.8225C22.3995 31.8216 22.0287 31.7817 21.6651 31.7036L21.3451 31.6488L20.4857 31.4933C19.9555 31.4019 19.4252 31.3014 18.8858 31.2465C18.6417 31.2109 18.3929 31.263 18.1837 31.3936C17.9744 31.5242 17.8183 31.7247 17.7429 31.9596C17.5235 32.4716 17.3132 32.9836 17.1304 33.5139C16.8744 34.227 16.6367 34.9493 16.3898 35.6715L16.0973 36.5218V36.7321C16.3484 37.204 16.7419 37.5847 17.2218 37.82L18.7303 38.7343L19.8092 39.42C20.0545 39.5739 20.2574 39.7866 20.3995 40.0389C20.5416 40.2912 20.6184 40.575 20.6229 40.8645L20.6777 42.0531C20.6777 42.6839 20.7326 43.3148 20.7783 43.9456C20.8383 44.4873 20.7398 45.0349 20.4948 45.5217C20.2497 46.0086 19.8686 46.4139 19.3978 46.6884C18.6846 47.1455 17.9441 47.6758 17.0664 48.3432C16.5178 48.7546 16.4538 48.9923 16.6915 49.5957C17.1395 50.6837 17.7247 52.1191 18.3829 53.5088C18.8309 54.423 19.0138 54.5419 20.0926 54.3408L20.2937 54.7796L20.184 54.3225L21.0983 54.1213L23.0365 53.6094C23.2557 53.5609 23.4795 53.5364 23.7039 53.5362ZM38.579 52.3385C35.8824 52.3265 33.3003 51.2474 31.397 49.3372C29.4937 47.427 28.4239 44.8411 28.4215 42.1445C28.4198 40.8047 28.6858 39.478 29.2039 38.2424C29.722 37.0068 30.4818 35.8871 31.4386 34.9493C33.3014 33.0572 35.8243 31.9596 38.4784 31.8865C39.8332 31.867 41.1783 32.1178 42.4351 32.6243C43.6918 33.1307 44.835 33.8826 45.7978 34.836C46.7605 35.7894 47.5236 36.9252 48.0423 38.177C48.561 39.4287 48.8249 40.7713 48.8187 42.1262C48.852 43.4189 48.6265 44.7051 48.1555 45.9094C47.6845 47.1136 46.9774 48.2116 46.0759 49.1386C45.1144 50.1599 43.952 50.9714 42.6619 51.522C41.3717 52.0727 39.9817 52.3507 38.579 52.3385ZM38.451 32.8282C36.0369 32.8931 33.7424 33.8928 32.0512 35.6167C31.1829 36.4677 30.4931 37.4834 30.0222 38.6043C29.5512 39.7252 29.3085 40.9287 29.3084 42.1445C29.3084 43.3611 29.5483 44.5657 30.0144 45.6894C30.4805 46.8132 31.1637 47.834 32.0248 48.6934C32.8859 49.5528 33.908 50.2339 35.0327 50.6978C36.1573 51.1617 37.3624 51.3992 38.579 51.3968C39.8498 51.4077 41.1092 51.1559 42.2782 50.6572C43.4471 50.1585 44.5004 49.4236 45.372 48.4986C46.1887 47.6622 46.8296 46.6706 47.2567 45.5824C47.6838 44.4942 47.8885 43.3314 47.8587 42.1628C47.8673 40.9334 47.631 39.7147 47.1637 38.5776C46.6963 37.4405 46.0073 36.4079 45.1367 35.5399C44.2662 34.6719 43.2315 33.9858 42.093 33.5218C40.9546 33.0578 39.7352 32.8251 38.5058 32.8373L38.451 32.8282Z" fill="#231F20"/>
<path d="M49.0168 118H9.98324C9.16407 118 8.5 118.67 8.5 119.496V146.504C8.5 147.33 9.16407 148 9.98324 148H49.0168C49.8359 148 50.5 147.33 50.5 146.504V119.496C50.5 118.67 49.8359 118 49.0168 118Z" fill="white"/>
<path d="M48.7095 149H9.29045C9.05532 149 8.8225 148.953 8.60527 148.862C8.38804 148.771 8.19067 148.638 8.02441 148.469C7.85815 148.301 7.72627 148.101 7.63629 147.881C7.54631 147.662 7.5 147.426 7.5 147.188V119.812C7.5 119.331 7.68864 118.871 8.02441 118.531C8.36019 118.191 8.81559 118 9.29045 118H48.7095C49.1844 118 49.6398 118.191 49.9756 118.531C50.3114 118.871 50.5 119.331 50.5 119.812V147.188C50.5 147.426 50.4537 147.662 50.3637 147.881C50.2737 148.101 50.1418 148.301 49.9756 148.469C49.8093 148.638 49.612 148.771 49.3947 148.862C49.1775 148.953 48.9447 149 48.7095 149ZM9.29045 118.592C8.97077 118.592 8.66419 118.721 8.43815 118.949C8.2121 119.178 8.08511 119.489 8.08511 119.812V147.188C8.08665 147.511 8.21413 147.82 8.43985 148.049C8.66556 148.277 8.97125 148.406 9.29045 148.408H48.7095C49.0292 148.408 49.3358 148.279 49.5619 148.051C49.7879 147.822 49.9149 147.511 49.9149 147.188V119.812C49.9149 119.489 49.7879 119.178 49.5619 118.949C49.3358 118.721 49.0292 118.592 48.7095 118.592H9.29045Z" fill="#231F20"/>
<path d="M49.2063 147H9.79369C9.7158 147 9.6411 146.969 9.58602 146.912C9.53094 146.856 9.5 146.78 9.5 146.701V120.299C9.5 120.22 9.53094 120.144 9.58602 120.087C9.6411 120.031 9.7158 120 9.79369 120H49.2063C49.2842 120 49.3589 120.031 49.414 120.087C49.4691 120.144 49.5 120.22 49.5 120.299V146.701C49.5 146.78 49.4691 146.856 49.414 146.912C49.3589 146.969 49.2842 147 49.2063 147ZM10.0698 146.403H48.9126V120.597H10.0874L10.0698 146.403Z" fill="#D1D3D4"/>
<path d="M35.5 153H23.5L24.8574 148H34.1426L35.5 153Z" fill="white"/>
<path d="M35.2024 153H22.7958C22.7483 153 22.7015 152.988 22.6594 152.966C22.6173 152.943 22.5812 152.91 22.5542 152.87C22.5278 152.831 22.5104 152.786 22.5035 152.739C22.4965 152.692 22.5001 152.644 22.5139 152.599L23.9174 148.213C23.9374 148.152 23.9752 148.099 24.0256 148.061C24.0761 148.023 24.1367 148.001 24.1992 148H33.7989C33.8619 148 33.9233 148.02 33.9741 148.058C34.0248 148.097 34.0622 148.151 34.0808 148.213L35.4842 152.599C35.4994 152.644 35.5037 152.692 35.4967 152.739C35.4897 152.787 35.4716 152.832 35.4439 152.87C35.4169 152.91 35.3808 152.943 35.3388 152.966C35.2967 152.988 35.2499 153 35.2024 153ZM23.2041 152.41H34.794L33.5861 148.626H24.3833L23.2041 152.41Z" fill="#231F20"/>
<path d="M36.6155 154H22.3845C22.1499 154 21.9249 153.947 21.7591 153.854C21.5932 153.76 21.5 153.633 21.5 153.5C21.5 153.367 21.5932 153.24 21.7591 153.146C21.9249 153.053 22.1499 153 22.3845 153H36.6155C36.8501 153 37.0751 153.053 37.2409 153.146C37.4068 153.24 37.5 153.367 37.5 153.5C37.5 153.633 37.4068 153.76 37.2409 153.854C37.0751 153.947 36.8501 154 36.6155 154ZM22.3845 153.314C22.3048 153.314 22.2284 153.332 22.172 153.364C22.1156 153.396 22.084 153.439 22.084 153.484C22.084 153.529 22.1156 153.572 22.172 153.604C22.2284 153.636 22.3048 153.654 22.3845 153.654H36.6155C36.6952 153.654 36.7716 153.636 36.828 153.604C36.8844 153.572 36.916 153.529 36.916 153.484C36.916 153.439 36.8844 153.396 36.828 153.364C36.7716 153.332 36.6952 153.314 36.6155 153.314H22.3845Z" fill="#231F20"/>
<path d="M23.5 152C23.7026 151.868 34.5 149.363 34.5 149.363L34.1468 148H24.4668L23.5 152Z" fill="#231F20"/>
<path d="M23.7643 151.999C23.6998 151.999 23.6375 151.973 23.5888 151.925C23.5485 151.883 23.5202 151.828 23.5075 151.768C23.4948 151.707 23.4983 151.644 23.5175 151.586L24.4608 148.216C24.4773 148.154 24.5114 148.099 24.5578 148.06C24.6043 148.021 24.6606 148 24.7185 148H33.8775C33.9348 148 33.9906 148.02 34.037 148.057C34.0834 148.095 34.1178 148.149 34.1353 148.21L34.4754 149.364C34.4916 149.404 34.5 149.447 34.5 149.491C34.5 149.534 34.4916 149.577 34.4754 149.617C34.4548 149.655 34.4276 149.687 34.3956 149.713C34.3635 149.738 34.3272 149.756 34.2889 149.765C30.2962 150.586 24.2304 151.851 23.9068 151.969C23.8623 151.992 23.8133 152.003 23.7643 151.999ZM24.9215 148.617L24.1811 151.265C25.6783 150.913 30.0275 150.031 33.8556 149.222L33.6801 148.605L24.9215 148.617Z" fill="#231F20"/>
<path d="M63.5 159.105C63.5 161.04 61.0397 161 58.003 161C54.9662 161 52.5 161.04 52.5 159.105C52.5 157.171 54.9603 154 58.003 154C61.0457 154 63.5 157.171 63.5 159.105Z" fill="white"/>
<path d="M58.3186 160.982H57.8337C56.6159 161.037 55.396 160.964 54.1914 160.764C53.7742 160.661 52.5 160.365 52.5 158.949C52.5 156.995 54.9639 154 58.0028 154C61.0418 154 63.5 157.025 63.5 158.949C63.5 160.359 62.2258 160.655 61.8086 160.764C60.6546 160.959 59.4857 161.032 58.3186 160.982ZM57.9972 160.377H58.1551C59.3331 160.429 60.5131 160.36 61.6789 160.171C62.8065 159.911 62.9305 159.409 62.9305 158.961C62.9305 157.285 60.6753 154.617 57.9972 154.617C55.3191 154.617 53.0582 157.285 53.0582 158.961C53.0582 159.415 53.2048 159.917 54.3155 160.171C55.4794 160.36 56.6575 160.429 57.8337 160.377H57.9972Z" fill="#231F20"/>
<path d="M58 158C57.8674 158 57.7402 157.966 57.6464 157.907C57.5527 157.847 57.5 157.766 57.5 157.681V154.319C57.5 154.234 57.5527 154.153 57.6464 154.093C57.7402 154.034 57.8674 154 58 154C58.1318 154.002 58.2575 154.036 58.3507 154.095C58.4439 154.155 58.4974 154.235 58.5 154.319V157.681C58.5 157.766 58.4473 157.847 58.3535 157.907C58.2598 157.966 58.1326 158 58 158Z" fill="#231F20"/>
<path d="M48.2096 160H3.79636C3.71776 160 3.64238 159.977 3.5868 159.935C3.53122 159.894 3.5 159.837 3.5 159.779V158.221C3.5 158.163 3.53122 158.106 3.5868 158.065C3.64238 158.023 3.71776 158 3.79636 158H48.2036C48.2822 158 48.3576 158.023 48.4132 158.065C48.4688 158.106 48.5 158.163 48.5 158.221V159.779C48.5 159.837 48.4696 159.892 48.4153 159.934C48.361 159.975 48.2871 159.999 48.2096 160ZM4.09866 159.558H47.9132V158.442H4.09866V159.558Z" fill="#231F20"/>
<path d="M46.2018 158H5.79818C5.7191 158 5.64326 157.981 5.58734 157.946C5.53142 157.911 5.5 157.864 5.5 157.815V157.185C5.5 157.136 5.53142 157.089 5.58734 157.054C5.64326 157.019 5.7191 157 5.79818 157H46.2018C46.2809 157 46.3568 157.019 46.4127 157.054C46.4686 157.089 46.5 157.136 46.5 157.185V157.815C46.5 157.864 46.4686 157.911 46.4127 157.946C46.3568 157.981 46.2809 158 46.2018 158ZM6.09636 157.631H45.9036V157.376H6.09636V157.631Z" fill="#231F20"/>
</svg>
