<svg width="261" height="181" viewBox="0 0 261 181" fill="none" xmlns="http://www.w3.org/2000/svg">
<g clip-path="url(#clip0_931_23035)">
<path d="M91.0862 49.6756C88.8382 47.513 86.9919 45.7949 85.2054 44.017C76.5808 35.4693 64.0499 32.905 53.4081 37.6746C42.3901 42.6066 35.911 53.2827 36.7743 65.6939C36.9709 68.5659 36.0649 69.4463 33.4407 70.1045C15.1744 74.6775 1.81435 91.1318 1.0707 109.612C0.104816 134.913 19.2089 154.838 44.5784 154.855C102.976 154.889 161.385 154.889 219.806 154.855C222.048 154.846 224.287 154.684 226.507 154.367C245.004 151.803 259.202 135.563 259.407 116.698C259.612 97.3972 245.842 80.7122 227.191 77.9171C222.917 77.276 218.489 77.3016 214.13 77.0623C221.558 38.2644 195.872 9.95453 169.913 2.98818C155.766 -0.798438 141.902 -0.234292 128.448 5.55248C108.763 13.9207 96.967 29.2381 91.0862 49.6756Z" fill="white" fill-opacity="0.87"/>
<path d="M214.13 77.4555C215.506 77.541 216.891 77.6008 218.276 77.6521C221.243 77.7295 224.204 77.9606 227.148 78.3445L214.13 77.4555ZM214.13 77.4555C214.069 77.4522 214.01 77.4351 213.956 77.4055C213.903 77.3759 213.857 77.3345 213.822 77.2846L214.13 77.4555Z" fill="#231F20" stroke="black"/>
<path d="M174.136 105.535H86.2656V153.256H174.136V105.535Z" fill="#D1D3D4"/>
<path d="M174.135 153.684H86.2653C86.1519 153.684 86.0432 153.639 85.9631 153.558C85.8829 153.478 85.8379 153.37 85.8379 153.256V105.517C85.8401 105.405 85.8858 105.297 85.9655 105.218C86.0452 105.138 86.1526 105.092 86.2653 105.09H174.135C174.248 105.092 174.355 105.138 174.435 105.218C174.515 105.297 174.561 105.405 174.563 105.517V153.239C174.565 153.297 174.556 153.354 174.535 153.408C174.515 153.462 174.484 153.511 174.444 153.552C174.404 153.594 174.356 153.627 174.303 153.65C174.25 153.672 174.193 153.684 174.135 153.684ZM86.6927 152.829H173.708V105.962H86.6927V152.829Z" fill="#231F20"/>
<path d="M174.136 81.4216H86.2656V105.287H174.136V81.4216Z" fill="#231F20"/>
<path d="M174.135 105.714H86.2653C86.1526 105.712 86.0452 105.666 85.9655 105.586C85.8858 105.507 85.8401 105.399 85.8379 105.287V81.4215C85.8379 81.3082 85.8829 81.1995 85.9631 81.1193C86.0432 81.0392 86.1519 80.9941 86.2653 80.9941H174.135C174.249 80.9941 174.357 81.0392 174.438 81.1193C174.518 81.1995 174.563 81.3082 174.563 81.4215V105.287C174.561 105.399 174.515 105.507 174.435 105.586C174.355 105.666 174.248 105.712 174.135 105.714ZM86.6927 104.859H173.708V81.8489H86.6927V104.859Z" fill="#231F20"/>
<path d="M169.417 86.627H98.4458V120.758H169.417V86.627Z" fill="white"/>
<path d="M169.417 121.185H98.4713C98.3587 121.183 98.2512 121.137 98.1715 121.058C98.0919 120.978 98.0461 120.871 98.0439 120.758V86.6271C98.0439 86.5137 98.089 86.405 98.1691 86.3249C98.2493 86.2447 98.358 86.1997 98.4713 86.1997H169.417C169.53 86.1997 169.639 86.2447 169.719 86.3249C169.799 86.405 169.844 86.5137 169.844 86.6271V120.758C169.844 120.871 169.799 120.98 169.719 121.06C169.639 121.14 169.53 121.185 169.417 121.185ZM98.8731 120.331H168.964V87.0545H98.8731V120.331Z" fill="#231F20"/>
<path d="M166.306 94.5766V88.7556H137.603L133.808 94.5766H94.4028V128.477H171.007V94.5766H166.306Z" fill="#004680"/>
<path d="M171.007 128.904H94.403C94.2896 128.904 94.1809 128.859 94.1008 128.779C94.0206 128.699 93.9756 128.59 93.9756 128.477V94.5765C93.9756 94.4631 94.0206 94.3544 94.1008 94.2743C94.1809 94.1941 94.2896 94.1491 94.403 94.1491H133.62L137.295 88.5247C137.333 88.4657 137.385 88.417 137.446 88.3827C137.507 88.3484 137.576 88.3297 137.646 88.3281H166.349C166.462 88.3281 166.571 88.3732 166.651 88.4533C166.731 88.5335 166.776 88.6422 166.776 88.7555V94.1491H171.05C171.163 94.1491 171.272 94.1941 171.352 94.2743C171.432 94.3544 171.477 94.4631 171.477 94.5765V128.477C171.478 128.536 171.465 128.596 171.441 128.651C171.417 128.705 171.382 128.755 171.337 128.795C171.293 128.835 171.241 128.866 171.184 128.885C171.127 128.903 171.067 128.91 171.007 128.904ZM94.8304 128.049H170.58V95.0039H166.306C166.193 95.0039 166.084 94.9588 166.004 94.8787C165.924 94.7985 165.879 94.6898 165.879 94.5765V89.1829H137.834L134.158 94.8158C134.12 94.8737 134.068 94.9213 134.007 94.9541C133.946 94.9869 133.877 95.004 133.808 95.0039H94.8304V128.049Z" fill="#231F20"/>
<path d="M91.0777 132.203H166.69V98.0725H91.0777V132.203Z" fill="white"/>
<path d="M166.699 132.631H91.0861C90.9727 132.631 90.864 132.586 90.7839 132.505C90.7037 132.425 90.6587 132.317 90.6587 132.203V98.0724C90.6587 97.9591 90.7037 97.8504 90.7839 97.7702C90.864 97.6901 90.9727 97.645 91.0861 97.645H166.699C166.812 97.645 166.921 97.6901 167.001 97.7702C167.081 97.8504 167.126 97.9591 167.126 98.0724V132.203C167.126 132.317 167.081 132.425 167.001 132.505C166.921 132.586 166.812 132.631 166.699 132.631ZM91.4793 131.776H166.271V98.4998H91.5135L91.4793 131.776Z" fill="#231F20"/>
<path d="M94.403 106.03V100.209H124.978L129.03 106.03H171.007V139.922H89.394V106.03H94.403Z" fill="#004680"/>
<path d="M171.007 140.349H89.3937C89.2803 140.349 89.1716 140.304 89.0915 140.224C89.0113 140.144 88.9663 140.035 88.9663 139.922V106.03C88.9663 105.917 89.0113 105.808 89.0915 105.728C89.1716 105.648 89.2803 105.603 89.3937 105.603H93.9752V100.209C93.9752 100.096 94.0203 99.9874 94.1004 99.9072C94.1806 99.8271 94.2893 99.782 94.4026 99.782H124.978C125.046 99.7809 125.114 99.7967 125.175 99.828C125.236 99.8593 125.289 99.9052 125.328 99.9615L129.251 105.603H171.007C171.12 105.603 171.229 105.648 171.309 105.728C171.389 105.808 171.434 105.917 171.434 106.03V139.922C171.434 140.035 171.389 140.144 171.309 140.224C171.229 140.304 171.12 140.349 171.007 140.349ZM89.804 139.495H170.562V106.458H129.029C128.96 106.458 128.891 106.441 128.83 106.408C128.769 106.375 128.717 106.328 128.679 106.27L124.755 100.637H94.8386V106.03C94.8386 106.144 94.7935 106.252 94.7134 106.333C94.6332 106.413 94.5245 106.458 94.4112 106.458H89.8296L89.804 139.495Z" fill="#231F20"/>
<path d="M170.511 108.612H94.8984V142.743H170.511V108.612Z" fill="white"/>
<path d="M170.511 143.178H94.8986C94.7852 143.178 94.6765 143.133 94.5964 143.053C94.5162 142.973 94.4712 142.864 94.4712 142.751V108.612C94.4712 108.498 94.5162 108.39 94.5964 108.31C94.6765 108.229 94.7852 108.184 94.8986 108.184H170.511C170.625 108.184 170.733 108.229 170.813 108.31C170.894 108.39 170.939 108.498 170.939 108.612V142.751C170.939 142.864 170.894 142.973 170.813 143.053C170.733 143.133 170.625 143.178 170.511 143.178ZM95.2918 142.324H170.05V109.039H95.326L95.2918 142.324Z" fill="#231F20"/>
<path d="M169.314 111.407H93.7017V145.538H169.314V111.407Z" fill="white"/>
<path d="M169.314 145.965H93.7018C93.5884 145.965 93.4797 145.92 93.3996 145.84C93.3194 145.76 93.2744 145.651 93.2744 145.538V111.407C93.2744 111.294 93.3194 111.185 93.3996 111.105C93.4797 111.025 93.5884 110.979 93.7018 110.979H169.314C169.428 110.979 169.537 111.025 169.617 111.105C169.697 111.185 169.742 111.294 169.742 111.407V145.538C169.742 145.651 169.697 145.76 169.617 145.84C169.537 145.92 169.428 145.965 169.314 145.965ZM94.095 145.11H168.853V111.834H94.1292L94.095 145.11Z" fill="#231F20"/>
<path d="M165.998 119.365V113.544H135.423L131.372 119.365H89.394V153.256H171.007V119.365H165.998Z" fill="#004680"/>
<path d="M171.007 153.684H89.3937C89.2803 153.684 89.1716 153.638 89.0915 153.558C89.0113 153.478 88.9663 153.369 88.9663 153.256V119.365C88.9663 119.251 89.0113 119.143 89.0915 119.062C89.1716 118.982 89.2803 118.937 89.3937 118.937H131.149L135.072 113.296C135.112 113.239 135.164 113.194 135.225 113.162C135.286 113.131 135.354 113.115 135.423 113.116H165.998C166.111 113.116 166.22 113.161 166.3 113.241C166.38 113.322 166.425 113.43 166.425 113.544V118.937H171.007C171.12 118.937 171.229 118.982 171.309 119.062C171.389 119.143 171.434 119.251 171.434 119.365V153.256C171.434 153.369 171.389 153.478 171.309 153.558C171.229 153.638 171.12 153.684 171.007 153.684ZM89.804 152.829H170.562V119.792H165.981C165.867 119.792 165.759 119.747 165.679 119.667C165.598 119.587 165.553 119.478 165.553 119.365V113.971H135.637L131.713 119.604C131.675 119.662 131.623 119.709 131.562 119.742C131.501 119.775 131.432 119.792 131.363 119.792H89.8211L89.804 152.829Z" fill="#231F20"/>
<path d="M178.059 134.793H82.3418V179.72H178.059V134.793Z" fill="#6F93B3"/>
<path d="M178.067 180.147H82.3331C82.2198 180.147 82.1111 180.102 82.0309 180.022C81.9508 179.942 81.9058 179.833 81.9058 179.72V134.793C81.9058 134.68 81.9508 134.571 82.0309 134.491C82.1111 134.411 82.2198 134.366 82.3331 134.366H178.067C178.18 134.366 178.289 134.411 178.369 134.491C178.449 134.571 178.494 134.68 178.494 134.793V179.72C178.494 179.833 178.449 179.942 178.369 180.022C178.289 180.102 178.18 180.147 178.067 180.147ZM82.7776 179.293H177.657V135.221H82.7776V179.293Z" fill="#231F20"/>
<path d="M174.204 176.138H86.1627C86.0494 176.138 85.9407 176.093 85.8605 176.013C85.7804 175.933 85.7354 175.824 85.7354 175.711V138.853C85.7354 138.74 85.7804 138.631 85.8605 138.551C85.9407 138.471 86.0494 138.426 86.1627 138.426H174.204C174.317 138.426 174.426 138.471 174.506 138.551C174.586 138.631 174.631 138.74 174.631 138.853V175.754C174.62 175.859 174.571 175.958 174.492 176.029C174.413 176.1 174.31 176.139 174.204 176.138ZM86.6243 175.284H173.793V139.238H86.6072L86.6243 175.284Z" fill="#E6E7E8"/>
<path d="M142.927 163.129H117.472C114.293 163.129 111.899 161.419 111.899 159.171V156.445H115.318V159.069C115.933 159.54 116.7 159.769 117.472 159.71H142.927C143.7 159.769 144.467 159.54 145.081 159.069V156.445H148.501V159.171C148.501 161.428 146.107 163.129 142.927 163.129Z" fill="#231F20"/>
<path d="M128.893 131.716C128.893 131.716 130.363 131.477 132.705 134.793H119.781C119.781 134.793 124.362 133.186 128.893 131.716Z" fill="#231F20"/>
<path d="M132.705 135.221H119.781C119.679 135.222 119.581 135.188 119.503 135.124C119.424 135.06 119.371 134.97 119.353 134.87C119.337 134.77 119.357 134.667 119.408 134.58C119.459 134.493 119.54 134.426 119.635 134.392C119.686 134.392 124.277 132.767 128.756 131.306H128.824C128.995 131.306 130.627 131.126 133.098 134.562C133.139 134.629 133.162 134.706 133.162 134.785C133.162 134.863 133.139 134.94 133.098 135.007C133.06 135.077 133.003 135.134 132.933 135.172C132.863 135.21 132.784 135.227 132.705 135.221ZM122.319 134.366H131.858C130.209 132.272 129.149 132.143 128.969 132.135C126.525 132.93 124.063 133.768 122.319 134.366Z" fill="#231F20"/>
<path d="M128.893 131.716H93.7019C93.7019 131.716 84.932 134.793 86.2654 150.179H125.585C125.585 150.179 122.439 137.563 128.893 131.716Z" fill="white"/>
<path d="M125.542 150.607H86.2224C86.1153 150.605 86.0125 150.564 85.9337 150.492C85.8548 150.419 85.8055 150.32 85.795 150.213C84.453 134.682 93.146 131.409 93.4879 131.314C93.5331 131.306 93.5794 131.306 93.6246 131.314H128.815C128.901 131.316 128.985 131.342 129.055 131.392C129.125 131.441 129.179 131.51 129.21 131.59C129.24 131.67 129.246 131.758 129.226 131.841C129.206 131.925 129.161 132 129.097 132.058C122.909 137.665 125.849 150.008 125.884 150.102C125.899 150.165 125.9 150.231 125.887 150.295C125.873 150.358 125.846 150.418 125.807 150.47C125.737 150.545 125.643 150.594 125.542 150.607ZM86.6583 149.752H125.012C124.507 147.35 122.875 137.648 127.858 132.144H93.787C93.0263 132.46 85.6069 135.922 86.6583 149.752Z" fill="#231F20"/>
<path d="M116.379 145.965H91.4108C91.2974 145.965 91.1887 145.92 91.1086 145.84C91.0284 145.76 90.9834 145.651 90.9834 145.538C90.9856 145.425 91.0313 145.318 91.111 145.238C91.1907 145.158 91.2981 145.113 91.4108 145.11H116.379C116.492 145.11 116.601 145.155 116.681 145.236C116.761 145.316 116.806 145.424 116.806 145.538C116.806 145.651 116.761 145.76 116.681 145.84C116.601 145.92 116.492 145.965 116.379 145.965Z" fill="#E6E7E8"/>
<path d="M119.781 141.418H91.4108C91.2981 141.416 91.1907 141.37 91.111 141.29C91.0313 141.21 90.9856 141.103 90.9834 140.99C90.9834 140.877 91.0284 140.768 91.1086 140.688C91.1887 140.608 91.2974 140.563 91.4108 140.563H119.781C119.894 140.563 120.003 140.608 120.083 140.688C120.163 140.768 120.208 140.877 120.208 140.99C120.206 141.103 120.16 141.21 120.08 141.29C120.001 141.37 119.893 141.416 119.781 141.418Z" fill="#E6E7E8"/>
<path d="M121.695 136.486H93.3253C93.212 136.486 93.1033 136.441 93.0231 136.361C92.943 136.281 92.8979 136.172 92.8979 136.058C92.8979 135.945 92.943 135.836 93.0231 135.756C93.1033 135.676 93.212 135.631 93.3253 135.631H121.695C121.808 135.631 121.917 135.676 121.997 135.756C122.077 135.836 122.122 135.945 122.122 136.058C122.122 136.172 122.077 136.281 121.997 136.361C121.917 136.441 121.808 136.486 121.695 136.486Z" fill="#E6E7E8"/>
<path d="M163.63 101.731H145.141C145.028 101.731 144.919 101.686 144.839 101.606C144.759 101.526 144.714 101.417 144.714 101.304C144.714 101.19 144.759 101.082 144.839 101.001C144.919 100.921 145.028 100.876 145.141 100.876H163.63C163.743 100.876 163.852 100.921 163.932 101.001C164.012 101.082 164.057 101.19 164.057 101.304C164.055 101.416 164.009 101.524 163.93 101.603C163.85 101.683 163.743 101.729 163.63 101.731Z" fill="#E6E7E8"/>
<path d="M122.388 90.7044H103.899C103.786 90.7044 103.677 90.6594 103.597 90.5792C103.517 90.4991 103.472 90.3903 103.472 90.277C103.472 90.1636 103.517 90.0549 103.597 89.9748C103.677 89.8946 103.786 89.8496 103.899 89.8496H122.388C122.501 89.8496 122.61 89.8946 122.69 89.9748C122.77 90.0549 122.815 90.1636 122.815 90.277C122.815 90.3903 122.77 90.4991 122.69 90.5792C122.61 90.6594 122.501 90.7044 122.388 90.7044Z" fill="#E6E7E8"/>
<path d="M24 46.2654C37.1302 48.1946 49.6291 52.7329 60.6037 59.5559L56.4489 64.1139L75 66L71.6485 50.2827L66.0741 53.9228C66.0741 53.9228 50.1475 37.3694 31.534 33L24 46.2654Z" fill="#ED2D24"/>
<path d="M74.6607 65.9322H74.6197L56.307 64.0826C56.2462 64.0769 56.1884 64.056 56.1401 64.0222C56.0918 63.9884 56.0549 63.9432 56.0336 63.8915C56.0101 63.8396 56.0028 63.7829 56.0125 63.7274C56.0221 63.672 56.0483 63.6201 56.0883 63.5771L59.9778 59.3663C42.957 48.7252 24.4871 46.5859 24.3026 46.5613C24.248 46.5556 24.1958 46.5381 24.1503 46.5104C24.1048 46.4826 24.0674 46.4454 24.0413 46.4019C24.0151 46.3583 24.001 46.3097 24 46.2602C23.9991 46.2107 24.0115 46.1617 24.036 46.1174L31.4458 33.1644C31.4819 33.1027 31.54 33.054 31.6108 33.026C31.6816 32.998 31.7607 32.9924 31.8354 33.0102C48.9245 37.0053 63.9629 51.5057 65.8974 53.4107L71.154 50.0014C71.2041 49.976 71.2606 49.9627 71.3181 49.9627C71.3755 49.9627 71.4321 49.976 71.4821 50.0014C71.5338 50.0205 71.5795 50.0507 71.6153 50.0894C71.651 50.1281 71.6757 50.1741 71.6872 50.2234L74.9957 65.6363C75.0035 65.6805 75.0007 65.7257 74.9876 65.7688C74.9745 65.812 74.9513 65.8521 74.9196 65.8866C74.8879 65.921 74.8484 65.9489 74.8037 65.9685C74.7591 65.9881 74.7103 65.9988 74.6607 66V65.9322ZM57.0179 63.5216L74.2369 65.2725L71.1199 50.7597L66.0478 54.0519C65.9779 54.0954 65.8928 54.1144 65.8085 54.1053C65.7242 54.0963 65.6464 54.0597 65.5898 54.0026C65.4326 53.8423 49.8679 37.9732 31.9311 33.6576L24.8699 46.0126C27.9255 46.4318 44.9667 49.1321 60.675 59.0395C60.7508 59.0903 60.8022 59.1653 60.8185 59.2491C60.8253 59.2917 60.8221 59.3351 60.8092 59.3765C60.7962 59.418 60.7738 59.4565 60.7434 59.4896L57.0179 63.5216Z" fill="#231F20"/>
<path d="M185 63.6304C185 63.6304 193.868 53.6884 217.052 46.555L214.426 42L234 43.5872L225.59 57.6062L221.859 52.296C221.859 52.296 210.332 55.2461 194.467 73L185 63.6304Z" fill="#ED2D24"/>
<path d="M194.666 73C194.62 73.0003 194.573 72.9916 194.531 72.9746C194.488 72.9576 194.451 72.9327 194.421 72.9016L185.077 63.6969C185.027 63.6449 185 63.5794 185 63.5118C185 63.4441 185.027 63.3786 185.077 63.3266C185.163 63.2283 194.049 53.526 216.481 46.595L214.071 42.4236C214.043 42.3775 214.03 42.3257 214.033 42.2736C214.037 42.2216 214.056 42.1713 214.089 42.1281C214.123 42.0848 214.169 42.0502 214.223 42.0279C214.277 42.0056 214.337 41.9964 214.396 42.0013L233.694 43.5576C233.749 43.5628 233.802 43.5792 233.848 43.6053C233.894 43.6314 233.932 43.6666 233.96 43.708C233.986 43.7497 234 43.7965 234 43.844C234 43.8915 233.986 43.9382 233.96 43.9799L225.666 57.7263C225.64 57.7721 225.601 57.8109 225.551 57.8385C225.502 57.866 225.445 57.8812 225.387 57.8825C225.327 57.8868 225.267 57.8761 225.214 57.8514C225.161 57.8268 225.117 57.7894 225.088 57.7436L221.548 52.7565C219.842 53.2946 209.097 57.1593 194.945 72.8901C194.88 72.9532 194.79 72.9925 194.693 73H194.666ZM185.761 63.4944L194.626 72.2594C202.595 63.4192 209.475 58.4321 213.825 55.7997C218.613 52.907 221.442 52.1606 221.562 52.1317C221.631 52.1128 221.706 52.1151 221.773 52.1383C221.841 52.1614 221.898 52.204 221.934 52.259L225.307 57.0089L233.143 44.0956L214.934 42.6261L217.205 46.6297C217.223 46.6672 217.233 46.7076 217.233 46.7483C217.233 46.789 217.223 46.8293 217.205 46.8669C217.186 46.9043 217.159 46.9379 217.125 46.9657C217.091 46.9936 217.05 47.0151 217.006 47.0289C196.267 53.3814 187.102 62.1233 185.761 63.4944Z" fill="#231F20"/>
</g>
<defs>
<clipPath id="clip0_931_23035">
<rect width="260" height="181" fill="white" transform="translate(0.5)"/>
</clipPath>
</defs>
</svg>
