<?xml version="1.0" encoding="UTF-8" standalone="no"?>
<svg
   width="1431.5853"
   height="1053.9758"
   viewBox="0 0 1431.5853 1053.9758"
   fill="none"
   version="1.1"
   id="svg138"
   sodipodi:docname="jobs-blob.svg"
   inkscape:version="1.2.2 (b0a84865, 2022-12-01)"
   xmlns:inkscape="http://www.inkscape.org/namespaces/inkscape"
   xmlns:sodipodi="http://sodipodi.sourceforge.net/DTD/sodipodi-0.dtd"
   xmlns="http://www.w3.org/2000/svg"
   xmlns:svg="http://www.w3.org/2000/svg">
  <defs
     id="defs142" />
  <sodipodi:namedview
     id="namedview140"
     pagecolor="#ffffff"
     bordercolor="#000000"
     borderopacity="0.25"
     inkscape:showpageshadow="2"
     inkscape:pageopacity="0.0"
     inkscape:pagecheckerboard="0"
     inkscape:deskcolor="#d1d1d1"
     showgrid="false"
     inkscape:zoom="0.18597321"
     inkscape:cx="672.13983"
     inkscape:cy="521.58051"
     inkscape:window-width="1309"
     inkscape:window-height="456"
     inkscape:window-x="0"
     inkscape:window-y="25"
     inkscape:window-maximized="0"
     inkscape:current-layer="svg138" />
  <path
     d="m 558.55842,773.80296 c 138.023,111.153 355.465,215.988 545.25498,184.798 101.68,-16.71 307.75,-178.731 327.59,-316.534 7.17,-145.641 -199.38,-195.646 -318.94,-219.925 -254.52798,-51.691 -82.64,-181.493 -356.19598,-201.122 -203.285,-14.587 -228.674,131.851 -265.366,255.276 -37.39,123.283 -70.366,186.353 67.657,297.507 z"
     fill="#e3f1f8"
     id="path132" />
  <path
     d="m 193.52042,469.99896 c 55.586,135.438 172.565,284.981 326.02,304.065 82.215,10.224 302.467,-85.455 374.813,-205.661 66.26,-130.489 -65.615,-227.508 -143.896,-279.426 -166.661,-110.535 14.82,-185.489 -179.333,-271.657001 -144.279,-64.0336 -224.347,62.628 -303.145,165.563001 -79.255,102.633 -130.045,151.679 -74.459,287.116 z"
     fill="#e3f1f8"
     id="path134" />
  <path
     d="m 47.110416,718.72096 c -79.716,-198.607 -75.379,-562.433 148.435004,-498.209 196.55,-1.14 309.592,-229.8750008 529.576,-149.716001 223.742,96.716001 222.712,214.873001 183.392,336.007001 -83.696,257.897 240.01998,278.95 95.98998,530.728 -107.02998,187.10004 -343.52798,105.67004 -552.56498,50.33 -209.267,-54.63 -325.111,-70.53 -404.828004,-269.14 z"
     fill="#badcef"
     id="path136" />
</svg>
