<svg width="1050" height="1042" viewBox="0 0 1050 1042" fill="none" xmlns="http://www.w3.org/2000/svg">
<path d="M179.245 864.104C65.5454 709.19 -13.6397 505.727 84.4131 330.748C187.721 181.209 375.851 31.7717 572.082 41.293C775.48 64.5434 816.145 217.821 815.101 337.122C812.878 591.118 1052.65 523.815 1000.6 789.37C961.921 986.709 752.146 980.711 570.912 990.273C389.672 1000.53 292.944 1019.02 179.245 864.104Z" fill="#E3F1F8"/>
<path d="M563.282 946.684C483.631 916.089 391.86 861.547 343.354 780.627C305.471 707.478 283.156 616.999 322.695 580.139C368.761 546.586 434.42 591.562 479.54 633.262C575.6 722.041 593.932 649.553 685.261 752.553C753.129 829.094 712.448 869.952 682.902 910.378C653.619 951.048 642.932 977.278 563.282 946.684Z" fill="#BADCEF"/>
</svg>
