<svg width="269" height="181" viewBox="0 0 269 181" fill="none" xmlns="http://www.w3.org/2000/svg">
<g clip-path="url(#clip0_931_22954)">
<path d="M113.383 23.2578H49.4762C47.7783 23.2578 46.4019 24.6342 46.4019 26.3322V119.238C46.4019 120.936 47.7783 122.312 49.4762 122.312H113.383C115.081 122.312 116.457 120.936 116.457 119.238V26.3322C116.457 24.6342 115.081 23.2578 113.383 23.2578Z" fill="white"/>
<path d="M113.383 122.794H49.4767C48.5343 122.791 47.6312 122.416 46.9648 121.75C46.2984 121.083 45.923 120.18 45.9204 119.238V26.332C45.9204 25.3879 46.2948 24.4824 46.9614 23.8139C47.6281 23.1455 48.5326 22.7687 49.4767 22.7661H113.383C114.326 22.7661 115.231 23.1408 115.898 23.8077C116.565 24.4746 116.939 25.3792 116.939 26.3224V119.228C116.941 119.696 116.85 120.159 116.671 120.592C116.493 121.025 116.231 121.418 115.901 121.749C115.571 122.08 115.178 122.343 114.746 122.522C114.314 122.702 113.851 122.794 113.383 122.794ZM49.4767 23.7299C48.7899 23.7324 48.1319 24.0064 47.6463 24.492C47.1607 24.9776 46.8867 25.6356 46.8842 26.3224V119.228C46.8867 119.915 47.1607 120.573 47.6463 121.058C48.1319 121.544 48.7899 121.818 49.4767 121.821H113.383C114.071 121.821 114.73 121.547 115.216 121.061C115.702 120.575 115.976 119.916 115.976 119.228V26.332C115.977 25.9907 115.911 25.6526 115.781 25.3369C115.651 25.0213 115.461 24.7343 115.22 24.4926C114.979 24.2508 114.693 24.059 114.377 23.9281C114.062 23.7972 113.724 23.7299 113.383 23.7299H49.4767Z" fill="#231F20"/>
<path d="M52.6665 43.6221L110.193 43.6221V29.426L52.6665 29.426V43.6221Z" fill="white"/>
<path d="M110.193 44.1039H52.6669C52.5391 44.1039 52.4166 44.0531 52.3262 43.9628C52.2358 43.8724 52.1851 43.7498 52.1851 43.622V29.426C52.1851 29.2982 52.2358 29.1756 52.3262 29.0852C52.4166 28.9949 52.5391 28.9441 52.6669 28.9441H110.193C110.321 28.9441 110.444 28.9949 110.534 29.0852C110.624 29.1756 110.675 29.2982 110.675 29.426V43.622C110.675 43.7498 110.624 43.8724 110.534 43.9628C110.444 44.0531 110.321 44.1039 110.193 44.1039ZM53.1488 43.1402H109.711V29.9078H53.1488V43.1402Z" fill="#D1D3D4"/>
<path d="M60.2608 39.497C61.9002 39.497 63.2292 38.168 63.2292 36.5287C63.2292 34.8893 61.9002 33.5603 60.2608 33.5603C58.6215 33.5603 57.2925 34.8893 57.2925 36.5287C57.2925 38.168 58.6215 39.497 60.2608 39.497Z" fill="#ED2D24"/>
<path d="M104.94 34.8131H79.9311C79.8033 34.8131 79.6807 34.7623 79.5903 34.672C79.5 34.5816 79.4492 34.459 79.4492 34.3312C79.4492 34.2034 79.5 34.0809 79.5903 33.9905C79.6807 33.9001 79.8033 33.8494 79.9311 33.8494H104.94C105.068 33.8494 105.191 33.9001 105.281 33.9905C105.372 34.0809 105.422 34.2034 105.422 34.3312C105.422 34.459 105.372 34.5816 105.281 34.672C105.191 34.7623 105.068 34.8131 104.94 34.8131Z" fill="#004680"/>
<path d="M104.94 39.1981H79.9311C79.8033 39.1981 79.6807 39.1474 79.5903 39.057C79.5 38.9666 79.4492 38.8441 79.4492 38.7163C79.4492 38.5884 79.5 38.4659 79.5903 38.3755C79.6807 38.2851 79.8033 38.2344 79.9311 38.2344H104.94C105.068 38.2344 105.191 38.2851 105.281 38.3755C105.372 38.4659 105.422 38.5884 105.422 38.7163C105.422 38.8441 105.372 38.9666 105.281 39.057C105.191 39.1474 105.068 39.1981 104.94 39.1981Z" fill="#004680"/>
<path d="M74.4665 39.7089H66.2939C66.1669 39.7064 66.0457 39.6549 65.9559 39.565C65.866 39.4752 65.8145 39.3541 65.812 39.227V33.83C65.812 33.7022 65.8628 33.5797 65.9532 33.4893C66.0435 33.3989 66.1661 33.3481 66.2939 33.3481H74.4665C74.5943 33.3481 74.7169 33.3989 74.8072 33.4893C74.8976 33.5797 74.9484 33.7022 74.9484 33.83V39.227C74.9484 39.3548 74.8976 39.4774 74.8072 39.5678C74.7169 39.6581 74.5943 39.7089 74.4665 39.7089ZM66.7565 38.7452H73.9654V34.3312H66.7565V38.7452Z" fill="#004680"/>
<path d="M52.6665 60.7668L110.193 60.7668V46.5708L52.6665 46.5708V60.7668Z" fill="white"/>
<path d="M110.193 61.2489H52.6669C52.5391 61.2489 52.4166 61.1982 52.3262 61.1078C52.2358 61.0174 52.1851 60.8949 52.1851 60.7671V46.571C52.1875 46.444 52.2391 46.3228 52.3289 46.233C52.4188 46.1431 52.5399 46.0916 52.6669 46.0891H110.193C110.321 46.0891 110.444 46.1399 110.534 46.2302C110.624 46.3206 110.675 46.4432 110.675 46.571V60.7671C110.675 60.8949 110.624 61.0174 110.534 61.1078C110.444 61.1982 110.321 61.2489 110.193 61.2489ZM53.1488 60.2852H109.711V47.0529H53.1488V60.2852Z" fill="#D1D3D4"/>
<path d="M60.2608 56.6423C61.9002 56.6423 63.2292 55.3133 63.2292 53.6739C63.2292 52.0345 61.9002 50.7056 60.2608 50.7056C58.6215 50.7056 57.2925 52.0345 57.2925 53.6739C57.2925 55.3133 58.6215 56.6423 60.2608 56.6423Z" fill="#ED2D24"/>
<path d="M104.94 51.9584H79.9311C79.8033 51.9584 79.6807 51.9076 79.5903 51.8172C79.5 51.7269 79.4492 51.6043 79.4492 51.4765C79.4492 51.3487 79.5 51.2261 79.5903 51.1358C79.6807 51.0454 79.8033 50.9946 79.9311 50.9946H104.94C105.068 50.9946 105.191 51.0454 105.281 51.1358C105.372 51.2261 105.422 51.3487 105.422 51.4765C105.422 51.6043 105.372 51.7269 105.281 51.8172C105.191 51.9076 105.068 51.9584 104.94 51.9584Z" fill="#004680"/>
<path d="M104.94 56.3532H79.9311C79.8033 56.3532 79.6807 56.3024 79.5903 56.212C79.5 56.1216 79.4492 55.9991 79.4492 55.8713C79.4492 55.7435 79.5 55.6209 79.5903 55.5305C79.6807 55.4402 79.8033 55.3894 79.9311 55.3894H104.94C105.068 55.3894 105.191 55.4402 105.281 55.5305C105.372 55.6209 105.422 55.7435 105.422 55.8713C105.422 55.9991 105.372 56.1216 105.281 56.212C105.191 56.3024 105.068 56.3532 104.94 56.3532Z" fill="#004680"/>
<path d="M74.4665 56.8542H66.2939C66.1669 56.8517 66.0457 56.8001 65.9559 56.7103C65.866 56.6205 65.8145 56.4993 65.812 56.3723V50.9753C65.812 50.8475 65.8628 50.7249 65.9532 50.6345C66.0435 50.5442 66.1661 50.4934 66.2939 50.4934H74.4665C74.5943 50.4934 74.7169 50.5442 74.8072 50.6345C74.8976 50.7249 74.9484 50.8475 74.9484 50.9753V56.3723C74.9484 56.5001 74.8976 56.6227 74.8072 56.713C74.7169 56.8034 74.5943 56.8542 74.4665 56.8542ZM66.7565 55.8904H73.9654V51.4572H66.7565V55.8904Z" fill="#004680"/>
<path d="M52.6665 77.9219H110.193V63.7258L52.6665 63.7258V77.9219Z" fill="white"/>
<path d="M110.193 78.394H52.6669C52.5391 78.394 52.4166 78.3432 52.3262 78.2528C52.2358 78.1624 52.1851 78.0399 52.1851 77.9121V63.716C52.1875 63.589 52.2391 63.4678 52.3289 63.378C52.4188 63.2882 52.5399 63.2366 52.6669 63.2341H110.193C110.321 63.2341 110.444 63.2849 110.534 63.3753C110.624 63.4656 110.675 63.5882 110.675 63.716V77.9121C110.675 78.0399 110.624 78.1624 110.534 78.2528C110.444 78.3432 110.321 78.394 110.193 78.394ZM53.1488 77.4302H109.711V64.2075H53.1488V77.4302Z" fill="#D1D3D4"/>
<path d="M60.2608 73.7873C61.9002 73.7873 63.2292 72.4583 63.2292 70.8189C63.2292 69.1796 61.9002 67.8506 60.2608 67.8506C58.6215 67.8506 57.2925 69.1796 57.2925 70.8189C57.2925 72.4583 58.6215 73.7873 60.2608 73.7873Z" fill="#ED2D24"/>
<path d="M104.94 69.1036H79.9311C79.8033 69.1036 79.6807 69.0529 79.5903 68.9625C79.5 68.8721 79.4492 68.7496 79.4492 68.6218C79.4492 68.494 79.5 68.3714 79.5903 68.281C79.6807 68.1907 79.8033 68.1399 79.9311 68.1399H104.94C105.068 68.1399 105.191 68.1907 105.281 68.281C105.372 68.3714 105.422 68.494 105.422 68.6218C105.422 68.7496 105.372 68.8721 105.281 68.9625C105.191 69.0529 105.068 69.1036 104.94 69.1036Z" fill="#004680"/>
<path d="M104.94 73.4982H79.9311C79.8033 73.4982 79.6807 73.4474 79.5903 73.357C79.5 73.2667 79.4492 73.1441 79.4492 73.0163C79.4492 72.8885 79.5 72.7659 79.5903 72.6756C79.6807 72.5852 79.8033 72.5344 79.9311 72.5344H104.94C105.068 72.5344 105.191 72.5852 105.281 72.6756C105.372 72.7659 105.422 72.8885 105.422 73.0163C105.422 73.1441 105.372 73.2667 105.281 73.357C105.191 73.4474 105.068 73.4982 104.94 73.4982Z" fill="#004680"/>
<path d="M74.4665 73.9994H66.2939C66.1669 73.997 66.0457 73.9454 65.9559 73.8556C65.866 73.7657 65.8145 73.6446 65.812 73.5176V68.1205C65.812 67.9927 65.8628 67.8702 65.9532 67.7798C66.0435 67.6894 66.1661 67.6387 66.2939 67.6387H74.4665C74.5943 67.6387 74.7169 67.6894 74.8072 67.7798C74.8976 67.8702 74.9484 67.9927 74.9484 68.1205V73.5176C74.9484 73.6454 74.8976 73.7679 74.8072 73.8583C74.7169 73.9487 74.5943 73.9994 74.4665 73.9994ZM66.7565 73.0357H73.9654V68.6024H66.7565V73.0357Z" fill="#004680"/>
<path d="M52.6665 95.0671H110.193V80.8711H52.6665V95.0671Z" fill="white"/>
<path d="M110.193 95.5392H52.6669C52.5391 95.5392 52.4166 95.4885 52.3262 95.3981C52.2358 95.3077 52.1851 95.1851 52.1851 95.0573V80.8613C52.1875 80.7342 52.2391 80.6131 52.3289 80.5233C52.4188 80.4334 52.5399 80.3819 52.6669 80.3794H110.193C110.321 80.3794 110.444 80.4302 110.534 80.5205C110.624 80.6109 110.675 80.7335 110.675 80.8613V95.0477C110.676 95.1118 110.665 95.1755 110.641 95.2351C110.618 95.2946 110.582 95.3489 110.537 95.3947C110.493 95.4405 110.439 95.4768 110.38 95.5016C110.321 95.5265 110.257 95.5392 110.193 95.5392ZM53.1488 94.5755H109.711V81.3431H53.1488V94.5755Z" fill="#D1D3D4"/>
<path d="M60.2608 90.9323C61.9002 90.9323 63.2292 89.6033 63.2292 87.9639C63.2292 86.3246 61.9002 84.9956 60.2608 84.9956C58.6215 84.9956 57.2925 86.3246 57.2925 87.9639C57.2925 89.6033 58.6215 90.9323 60.2608 90.9323Z" fill="#ED2D24"/>
<path d="M104.94 86.2487H79.9311C79.8033 86.2487 79.6807 86.1979 79.5903 86.1075C79.5 86.0172 79.4492 85.8946 79.4492 85.7668C79.4492 85.639 79.5 85.5164 79.5903 85.4261C79.6807 85.3357 79.8033 85.2849 79.9311 85.2849H104.94C105.068 85.2849 105.191 85.3357 105.281 85.4261C105.372 85.5164 105.422 85.639 105.422 85.7668C105.422 85.8946 105.372 86.0172 105.281 86.1075C105.191 86.1979 105.068 86.2487 104.94 86.2487Z" fill="#004680"/>
<path d="M104.94 90.6434H79.9311C79.8033 90.6434 79.6807 90.5927 79.5903 90.5023C79.5 90.4119 79.4492 90.2894 79.4492 90.1616C79.4492 90.0338 79.5 89.9112 79.5903 89.8208C79.6807 89.7305 79.8033 89.6797 79.9311 89.6797H104.94C105.068 89.6797 105.191 89.7305 105.281 89.8208C105.372 89.9112 105.422 90.0338 105.422 90.1616C105.422 90.2894 105.372 90.4119 105.281 90.5023C105.191 90.5927 105.068 90.6434 104.94 90.6434Z" fill="#004680"/>
<path d="M74.4665 91.1928H66.2939C66.1661 91.1928 66.0435 91.142 65.9532 91.0517C65.8628 90.9613 65.812 90.8387 65.812 90.7109V85.3139C65.812 85.1861 65.8628 85.0635 65.9532 84.9732C66.0435 84.8828 66.1661 84.832 66.2939 84.832H74.4665C74.5943 84.832 74.7169 84.8828 74.8072 84.9732C74.8976 85.0635 74.9484 85.1861 74.9484 85.3139V90.7109C74.9484 90.8387 74.8976 90.9613 74.8072 91.0517C74.7169 91.142 74.5943 91.1928 74.4665 91.1928ZM66.7565 90.229H73.9654V85.7958H66.7565V90.229Z" fill="#004680"/>
<path d="M52.6665 112.202H110.193V98.0063H52.6665V112.202Z" fill="white"/>
<path d="M110.193 112.694H52.6669C52.5399 112.692 52.4188 112.64 52.3289 112.55C52.2391 112.46 52.1875 112.339 52.1851 112.212V98.0161C52.1851 97.8883 52.2358 97.7657 52.3262 97.6753C52.4166 97.5849 52.5391 97.5342 52.6669 97.5342H110.193C110.321 97.5342 110.444 97.5849 110.534 97.6753C110.624 97.7657 110.675 97.8883 110.675 98.0161V112.212C110.675 112.34 110.624 112.462 110.534 112.553C110.444 112.643 110.321 112.694 110.193 112.694ZM53.1488 111.73H109.711V98.4979H53.1488V111.73Z" fill="#D1D3D4"/>
<path d="M60.2608 108.078C61.9002 108.078 63.2292 106.749 63.2292 105.109C63.2292 103.47 61.9002 102.141 60.2608 102.141C58.6215 102.141 57.2925 103.47 57.2925 105.109C57.2925 106.749 58.6215 108.078 60.2608 108.078Z" fill="#004680"/>
<path d="M104.94 103.394H79.9311C79.8033 103.394 79.6807 103.343 79.5903 103.253C79.5 103.162 79.4492 103.04 79.4492 102.912C79.4492 102.784 79.5 102.661 79.5903 102.571C79.6807 102.481 79.8033 102.43 79.9311 102.43H104.94C105.068 102.43 105.191 102.481 105.281 102.571C105.372 102.661 105.422 102.784 105.422 102.912C105.422 103.04 105.372 103.162 105.281 103.253C105.191 103.343 105.068 103.394 104.94 103.394Z" fill="#004680"/>
<path d="M104.94 107.788H79.9311C79.8033 107.788 79.6807 107.738 79.5903 107.647C79.5 107.557 79.4492 107.434 79.4492 107.307C79.4492 107.179 79.5 107.056 79.5903 106.966C79.6807 106.875 79.8033 106.825 79.9311 106.825H104.94C105.068 106.825 105.191 106.875 105.281 106.966C105.372 107.056 105.422 107.179 105.422 107.307C105.422 107.434 105.372 107.557 105.281 107.647C105.191 107.738 105.068 107.788 104.94 107.788Z" fill="#004680"/>
<path d="M74.4665 108.29H66.2939C66.1661 108.29 66.0435 108.239 65.9532 108.149C65.8628 108.058 65.812 107.936 65.812 107.808V102.411C65.812 102.283 65.8628 102.16 65.9532 102.07C66.0435 101.98 66.1661 101.929 66.2939 101.929H74.4665C74.5943 101.929 74.7169 101.98 74.8072 102.07C74.8976 102.16 74.9484 102.283 74.9484 102.411V107.808C74.9484 107.936 74.8976 108.058 74.8072 108.149C74.7169 108.239 74.5943 108.29 74.4665 108.29ZM66.7565 107.326H73.9654V102.893H66.7565V107.326Z" fill="#004680"/>
<path d="M193.808 97.1488C192.844 96.1851 192.016 95.4526 191.225 94.672C189.459 92.853 187.182 91.6129 184.695 91.1156C182.209 90.6183 179.63 90.8872 177.299 91.8868C174.956 92.915 172.996 94.6538 171.695 96.8571C170.395 99.0605 169.82 101.617 170.052 104.165C170.139 105.418 169.743 105.813 168.587 106.092C164.095 107.209 160.17 109.939 157.562 113.763C154.953 117.587 153.842 122.237 154.441 126.827C155.04 131.416 157.307 135.626 160.81 138.652C164.313 141.678 168.806 143.309 173.435 143.235C199.013 143.235 224.594 143.235 250.178 143.235C251.162 143.232 252.144 143.162 253.118 143.023C257.102 142.416 260.74 140.41 263.38 137.364C266.02 134.318 267.489 130.432 267.524 126.401C267.559 122.371 266.157 118.46 263.57 115.369C260.983 112.278 257.38 110.209 253.407 109.533C251.527 109.254 249.6 109.263 247.692 109.148C250.939 92.147 239.692 79.7435 228.32 76.698C222.318 74.9556 215.897 75.3507 210.153 77.816C201.557 81.4879 196.381 88.1956 193.808 97.1488Z" fill="#004680"/>
<path d="M203.253 143.717H173.435C170.79 143.758 168.165 143.254 165.723 142.237C163.282 141.22 161.076 139.711 159.242 137.804C157.409 135.898 155.987 133.634 155.067 131.155C154.146 128.675 153.745 126.033 153.89 123.392C154.084 119.264 155.603 115.308 158.223 112.112C160.843 108.916 164.423 106.649 168.433 105.649C169.396 105.398 169.599 105.177 169.531 104.223C169.293 101.571 169.897 98.9113 171.257 96.6224C172.617 94.3334 174.664 92.5312 177.106 91.4721C179.524 90.4242 182.203 90.1396 184.787 90.6563C187.37 91.173 189.734 92.4663 191.563 94.3633C192.083 94.8837 192.623 95.3945 193.211 95.9631L193.558 96.2908C196.362 87.2123 201.884 80.8708 209.941 77.3916C215.883 74.8773 222.512 74.5041 228.698 76.3358C234.884 78.1674 240.242 82.0902 243.856 87.4339C245.955 90.5159 247.422 93.9833 248.173 97.6358C248.924 101.288 248.944 105.053 248.231 108.714L249.484 108.771C250.812 108.803 252.138 108.906 253.455 109.08C257.543 109.773 261.251 111.9 263.913 115.08C266.574 118.259 268.017 122.283 267.981 126.429C267.945 130.576 266.433 134.574 263.716 137.707C261 140.839 257.256 142.902 253.156 143.524C252.16 143.664 251.155 143.735 250.149 143.736L203.253 143.717ZM182.205 91.3275C180.587 91.3134 178.984 91.6418 177.502 92.2913C175.241 93.2736 173.348 94.9428 172.091 97.062C170.833 99.1813 170.275 101.643 170.495 104.097C170.558 104.379 170.56 104.671 170.499 104.953C170.439 105.235 170.318 105.501 170.145 105.732C169.971 105.963 169.75 106.153 169.496 106.29C169.242 106.427 168.962 106.508 168.674 106.526C164.868 107.484 161.47 109.639 158.982 112.674C156.494 115.708 155.047 119.462 154.853 123.382C154.714 125.893 155.094 128.406 155.968 130.765C156.843 133.123 158.194 135.275 159.938 137.088C161.681 138.901 163.779 140.336 166.101 141.302C168.423 142.268 170.92 142.746 173.435 142.705C199.012 142.705 224.594 142.705 250.178 142.705C251.145 142.702 252.111 142.635 253.069 142.503C256.939 141.912 260.473 139.963 263.037 137.005C265.601 134.047 267.028 130.272 267.062 126.358C267.097 122.443 265.737 118.644 263.226 115.641C260.715 112.637 257.217 110.626 253.358 109.966C252.08 109.795 250.793 109.695 249.503 109.668C248.896 109.668 248.289 109.668 247.692 109.581C247.622 109.577 247.553 109.558 247.492 109.525C247.43 109.491 247.376 109.445 247.335 109.388C247.295 109.333 247.266 109.271 247.251 109.205C247.236 109.138 247.235 109.069 247.248 109.003C250.419 92.4551 239.808 80.2154 228.224 77.1122C222.325 75.4163 216.022 75.8043 210.375 78.2108C202.241 81.6996 196.979 87.9254 194.3 97.2546C194.275 97.3326 194.231 97.4033 194.172 97.4604C194.113 97.5176 194.041 97.5594 193.962 97.5823C193.882 97.6048 193.797 97.6059 193.716 97.5857C193.635 97.5654 193.56 97.5243 193.5 97.4666L192.584 96.5896C191.987 96.021 191.447 95.5102 190.917 94.9801C189.776 93.8283 188.42 92.9128 186.925 92.286C185.43 91.6593 183.826 91.3335 182.205 91.3275Z" fill="#231F20"/>
<path d="M203.667 0.706055H106.984C104.418 0.706055 102.338 2.78582 102.338 5.35134V145.886C102.338 148.451 104.418 150.531 106.984 150.531H203.667C206.233 150.531 208.313 148.451 208.313 145.886V5.35134C208.313 2.78582 206.233 0.706055 203.667 0.706055Z" fill="white"/>
<path d="M203.658 151.022H106.984C105.623 151.02 104.319 150.478 103.358 149.514C102.396 148.551 101.856 147.246 101.856 145.886V5.36092C101.856 4.00022 102.396 2.69512 103.358 1.73206C104.319 0.768997 105.623 0.226674 106.984 0.224121H203.658C205.018 0.226674 206.322 0.768997 207.284 1.73206C208.245 2.69512 208.785 4.00022 208.785 5.36092V145.886C208.785 147.246 208.245 148.551 207.284 149.514C206.322 150.478 205.018 151.02 203.658 151.022ZM106.984 1.18787C105.879 1.19043 104.82 1.63121 104.039 2.41353C103.259 3.19586 102.82 4.25583 102.82 5.36092V145.886C102.823 146.99 103.262 148.048 104.042 148.83C104.822 149.612 105.879 150.054 106.984 150.059H203.658C204.762 150.054 205.819 149.612 206.599 148.83C207.379 148.048 207.818 146.99 207.821 145.886V5.36092C207.821 4.25583 207.383 3.19586 206.602 2.41353C205.822 1.63121 204.763 1.19043 203.658 1.18787H106.984Z" fill="#231F20"/>
<path d="M111.812 31.5073L198.829 31.5073V10.0349L111.812 10.0349V31.5073Z" fill="white"/>
<path d="M198.829 31.9991H111.812C111.684 31.9991 111.562 31.9484 111.471 31.858C111.381 31.7676 111.33 31.6451 111.33 31.5173V10.0449C111.33 9.91706 111.381 9.7945 111.471 9.70413C111.562 9.61376 111.684 9.56299 111.812 9.56299H198.829C198.957 9.56299 199.08 9.61376 199.17 9.70413C199.26 9.7945 199.311 9.91706 199.311 10.0449V31.5173C199.311 31.6451 199.26 31.7676 199.17 31.858C199.08 31.9484 198.957 31.9991 198.829 31.9991ZM112.294 31.0354H198.347V10.5267H112.294V31.0354Z" fill="#D1D3D4"/>
<path d="M123.291 25.2625C125.766 25.2625 127.772 23.256 127.772 20.781C127.772 18.306 125.766 16.2996 123.291 16.2996C120.815 16.2996 118.809 18.306 118.809 20.781C118.809 23.256 120.815 25.2625 123.291 25.2625Z" fill="#004680"/>
<path d="M190.878 17.9476H153.051C152.923 17.9476 152.8 17.8969 152.71 17.8065C152.62 17.7161 152.569 17.5936 152.569 17.4658C152.569 17.338 152.62 17.2154 152.71 17.125C152.8 17.0347 152.923 16.9839 153.051 16.9839H190.878C191.006 16.9839 191.128 17.0347 191.219 17.125C191.309 17.2154 191.36 17.338 191.36 17.4658C191.36 17.5936 191.309 17.7161 191.219 17.8065C191.128 17.8969 191.006 17.9476 190.878 17.9476Z" fill="#004680"/>
<path d="M190.878 24.578H153.051C152.923 24.578 152.8 24.5272 152.71 24.4369C152.62 24.3465 152.569 24.2239 152.569 24.0961C152.569 23.9683 152.62 23.8458 152.71 23.7554C152.8 23.665 152.923 23.6143 153.051 23.6143H190.878C191.006 23.6143 191.128 23.665 191.219 23.7554C191.309 23.8458 191.36 23.9683 191.36 24.0961C191.36 24.2239 191.309 24.3465 191.219 24.4369C191.128 24.5272 191.006 24.578 190.878 24.578Z" fill="#004680"/>
<path d="M144.792 25.3396H132.465C132.337 25.3396 132.215 25.2889 132.125 25.1985C132.034 25.1081 131.983 24.9855 131.983 24.8577V16.6948C131.983 16.567 132.034 16.4444 132.125 16.354C132.215 16.2637 132.337 16.2129 132.465 16.2129H144.83C144.958 16.2129 145.081 16.2637 145.171 16.354C145.261 16.4444 145.312 16.567 145.312 16.6948V24.8577C145.312 24.9244 145.299 24.9904 145.272 25.0515C145.246 25.1126 145.207 25.1676 145.158 25.2129C145.109 25.2582 145.051 25.2928 144.988 25.3146C144.925 25.3364 144.858 25.345 144.792 25.3396ZM132.909 24.3759H144.31V17.1766H132.909V24.3759Z" fill="#004680"/>
<path d="M111.812 57.4421L198.829 57.4421V35.9697L111.812 35.9697V57.4421Z" fill="white"/>
<path d="M198.829 57.9335H111.812C111.684 57.9335 111.562 57.8827 111.471 57.7923C111.381 57.702 111.33 57.5794 111.33 57.4516V35.9792C111.33 35.8514 111.381 35.7288 111.471 35.6385C111.562 35.5481 111.684 35.4973 111.812 35.4973H198.829C198.957 35.4973 199.08 35.5481 199.17 35.6385C199.26 35.7288 199.311 35.8514 199.311 35.9792V57.4612C199.308 57.5873 199.257 57.7075 199.166 57.7957C199.076 57.884 198.955 57.9335 198.829 57.9335ZM112.294 56.9697H198.347V36.4611H112.294V56.9697Z" fill="#D1D3D4"/>
<path d="M123.291 51.197C125.766 51.197 127.772 49.1906 127.772 46.7156C127.772 44.2405 125.766 42.2341 123.291 42.2341C120.815 42.2341 118.809 44.2405 118.809 46.7156C118.809 49.1906 120.815 51.197 123.291 51.197Z" fill="#004680"/>
<path d="M190.878 43.8724H153.051C152.923 43.8724 152.8 43.8217 152.71 43.7313C152.62 43.6409 152.569 43.5184 152.569 43.3906C152.569 43.2628 152.62 43.1402 152.71 43.0498C152.8 42.9595 152.923 42.9087 153.051 42.9087H190.878C191.006 42.9087 191.128 42.9595 191.219 43.0498C191.309 43.1402 191.36 43.2628 191.36 43.3906C191.36 43.5184 191.309 43.6409 191.219 43.7313C191.128 43.8217 191.006 43.8724 190.878 43.8724Z" fill="#004680"/>
<path d="M190.878 50.5128H153.051C152.923 50.5128 152.8 50.4621 152.71 50.3717C152.62 50.2813 152.569 50.1587 152.569 50.0309C152.569 49.9031 152.62 49.7806 152.71 49.6902C152.8 49.5998 152.923 49.5491 153.051 49.5491H190.878C191.006 49.5491 191.128 49.5998 191.219 49.6902C191.309 49.7806 191.36 49.9031 191.36 50.0309C191.36 50.1587 191.309 50.2813 191.219 50.3717C191.128 50.4621 191.006 50.5128 190.878 50.5128Z" fill="#004680"/>
<path d="M144.792 51.2742H132.465C132.337 51.2742 132.215 51.2234 132.125 51.1331C132.034 51.0427 131.983 50.9201 131.983 50.7923V42.6293C131.983 42.5015 132.034 42.379 132.125 42.2886C132.215 42.1982 132.337 42.1475 132.465 42.1475H144.83C144.957 42.1499 145.078 42.2015 145.168 42.2913C145.258 42.3812 145.31 42.5023 145.312 42.6293V50.7923C145.312 50.859 145.299 50.925 145.272 50.9861C145.246 51.0472 145.207 51.1022 145.158 51.1474C145.109 51.1927 145.051 51.2274 144.988 51.2492C144.925 51.271 144.858 51.2795 144.792 51.2742ZM132.909 50.3104H144.31V43.1112H132.909V50.3104Z" fill="#004680"/>
<path d="M111.812 83.3862L198.829 83.3862V61.9138L111.812 61.9138V83.3862Z" fill="white"/>
<path d="M198.829 83.8683H111.812C111.684 83.8683 111.562 83.8175 111.471 83.7271C111.381 83.6368 111.33 83.5142 111.33 83.3864V61.914C111.33 61.7862 111.381 61.6636 111.471 61.5733C111.562 61.4829 111.684 61.4321 111.812 61.4321H198.829C198.957 61.4321 199.08 61.4829 199.17 61.5733C199.26 61.6636 199.311 61.7862 199.311 61.914V83.3864C199.311 83.5142 199.26 83.6368 199.17 83.7271C199.08 83.8175 198.957 83.8683 198.829 83.8683ZM112.294 82.9045H198.347V62.3959H112.294V82.9045Z" fill="#D1D3D4"/>
<path d="M123.291 77.1316C125.766 77.1316 127.772 75.1252 127.772 72.6501C127.772 70.1751 125.766 68.1687 123.291 68.1687C120.815 68.1687 118.809 70.1751 118.809 72.6501C118.809 75.1252 120.815 77.1316 123.291 77.1316Z" fill="#004680"/>
<path d="M190.878 69.807H153.051C152.923 69.807 152.8 69.7563 152.71 69.6659C152.62 69.5755 152.569 69.4529 152.569 69.3251C152.569 69.1973 152.62 69.0748 152.71 68.9844C152.8 68.894 152.923 68.8433 153.051 68.8433H190.878C191.006 68.8433 191.128 68.894 191.219 68.9844C191.309 69.0748 191.36 69.1973 191.36 69.3251C191.36 69.4529 191.309 69.5755 191.219 69.6659C191.128 69.7563 191.006 69.807 190.878 69.807Z" fill="#004680"/>
<path d="M190.878 76.4569H153.051C152.923 76.4569 152.8 76.4061 152.71 76.3158C152.62 76.2254 152.569 76.1028 152.569 75.975C152.569 75.8472 152.62 75.7247 152.71 75.6343C152.8 75.5439 152.923 75.4932 153.051 75.4932H190.878C191.006 75.4932 191.128 75.5439 191.219 75.6343C191.309 75.7247 191.36 75.8472 191.36 75.975C191.36 76.1028 191.309 76.2254 191.219 76.3158C191.128 76.4061 191.006 76.4569 190.878 76.4569Z" fill="#004680"/>
<path d="M144.792 77.2085H132.465C132.337 77.2085 132.215 77.1577 132.125 77.0674C132.034 76.977 131.983 76.8544 131.983 76.7266V68.5637C131.983 68.4359 132.034 68.3133 132.125 68.2229C132.215 68.1325 132.337 68.0818 132.465 68.0818H144.83C144.957 68.0843 145.078 68.1358 145.168 68.2257C145.258 68.3155 145.31 68.4366 145.312 68.5637V76.7363C145.311 76.8021 145.296 76.867 145.269 76.927C145.242 76.987 145.203 77.0408 145.154 77.0851C145.105 77.1293 145.048 77.1631 144.986 77.1843C144.923 77.2056 144.857 77.2138 144.792 77.2085ZM132.909 76.2448H144.31V69.0263H132.909V76.2448Z" fill="#004680"/>
<path d="M111.812 109.321L198.829 109.321V87.8484L111.812 87.8484V109.321Z" fill="white"/>
<path d="M198.829 109.803H111.812C111.684 109.803 111.562 109.752 111.471 109.662C111.381 109.571 111.33 109.449 111.33 109.321V87.8486C111.33 87.7208 111.381 87.5982 111.471 87.5078C111.562 87.4175 111.684 87.3667 111.812 87.3667H198.829C198.957 87.3667 199.08 87.4175 199.17 87.5078C199.26 87.5982 199.311 87.7208 199.311 87.8486V109.321C199.311 109.449 199.26 109.571 199.17 109.662C199.08 109.752 198.957 109.803 198.829 109.803ZM112.294 108.839H198.347V88.3015H112.294V108.839Z" fill="#D1D3D4"/>
<path d="M123.291 103.066C125.766 103.066 127.772 101.06 127.772 98.5847C127.772 96.1097 125.766 94.1033 123.291 94.1033C120.815 94.1033 118.809 96.1097 118.809 98.5847C118.809 101.06 120.815 103.066 123.291 103.066Z" fill="#004680"/>
<path d="M190.878 95.7416H153.051C152.923 95.7416 152.8 95.6908 152.71 95.6004C152.62 95.5101 152.569 95.3875 152.569 95.2597C152.569 95.1319 152.62 95.0093 152.71 94.919C152.8 94.8286 152.923 94.7778 153.051 94.7778H190.878C191.006 94.7778 191.128 94.8286 191.219 94.919C191.309 95.0093 191.36 95.1319 191.36 95.2597C191.36 95.3875 191.309 95.5101 191.219 95.6004C191.128 95.6908 191.006 95.7416 190.878 95.7416Z" fill="#004680"/>
<path d="M190.878 102.391H153.051C152.923 102.391 152.8 102.341 152.71 102.25C152.62 102.16 152.569 102.037 152.569 101.91C152.569 101.782 152.62 101.659 152.71 101.569C152.8 101.479 152.923 101.428 153.051 101.428H190.878C191.006 101.428 191.128 101.479 191.219 101.569C191.309 101.659 191.36 101.782 191.36 101.91C191.36 102.037 191.309 102.16 191.219 102.25C191.128 102.341 191.006 102.391 190.878 102.391Z" fill="#004680"/>
<path d="M144.792 103.143H132.465C132.337 103.143 132.215 103.092 132.125 103.002C132.034 102.912 131.983 102.789 131.983 102.661V94.4982C131.983 94.3704 132.034 94.2479 132.125 94.1575C132.215 94.0671 132.337 94.0164 132.465 94.0164H144.83C144.957 94.0188 145.078 94.0704 145.168 94.1602C145.258 94.2501 145.31 94.3712 145.312 94.4982V102.661C145.312 102.728 145.299 102.794 145.272 102.855C145.246 102.916 145.207 102.971 145.158 103.016C145.109 103.062 145.051 103.096 144.988 103.118C144.925 103.14 144.858 103.148 144.792 103.143ZM132.909 102.179H144.31V94.9801H132.909V102.179Z" fill="#004680"/>
<path d="M111.812 135.255H198.829V113.783L111.812 113.783V135.255Z" fill="white"/>
<path d="M198.829 135.737H111.812C111.684 135.737 111.562 135.686 111.471 135.596C111.381 135.506 111.33 135.383 111.33 135.255V113.783C111.33 113.655 111.381 113.533 111.471 113.442C111.562 113.352 111.684 113.301 111.812 113.301H198.829C198.957 113.301 199.08 113.352 199.17 113.442C199.26 113.533 199.311 113.655 199.311 113.783V135.255C199.311 135.383 199.26 135.506 199.17 135.596C199.08 135.686 198.957 135.737 198.829 135.737ZM112.294 134.773H198.347V114.265H112.294V134.773Z" fill="#D1D3D4"/>
<path d="M123.291 129.001C125.766 129.001 127.772 126.994 127.772 124.519C127.772 122.044 125.766 120.038 123.291 120.038C120.815 120.038 118.809 122.044 118.809 124.519C118.809 126.994 120.815 129.001 123.291 129.001Z" fill="#004680"/>
<path d="M190.878 121.676H153.051C152.923 121.676 152.8 121.625 152.71 121.535C152.62 121.445 152.569 121.322 152.569 121.194C152.569 121.066 152.62 120.944 152.71 120.854C152.8 120.763 152.923 120.712 153.051 120.712H190.878C191.006 120.712 191.128 120.763 191.219 120.854C191.309 120.944 191.36 121.066 191.36 121.194C191.36 121.322 191.309 121.445 191.219 121.535C191.128 121.625 191.006 121.676 190.878 121.676Z" fill="#004680"/>
<path d="M190.878 128.326H153.051C152.923 128.326 152.8 128.275 152.71 128.185C152.62 128.095 152.569 127.972 152.569 127.844C152.569 127.716 152.62 127.594 152.71 127.503C152.8 127.413 152.923 127.362 153.051 127.362H190.878C191.006 127.362 191.128 127.413 191.219 127.503C191.309 127.594 191.36 127.716 191.36 127.844C191.36 127.972 191.309 128.095 191.219 128.185C191.128 128.275 191.006 128.326 190.878 128.326Z" fill="#004680"/>
<path d="M144.792 129.087H132.465C132.337 129.087 132.215 129.037 132.125 128.946C132.034 128.856 131.983 128.733 131.983 128.606V120.443C131.983 120.315 132.034 120.192 132.125 120.102C132.215 120.011 132.337 119.961 132.465 119.961H144.83C144.958 119.961 145.081 120.011 145.171 120.102C145.261 120.192 145.312 120.315 145.312 120.443V128.606C145.311 128.672 145.296 128.737 145.269 128.798C145.242 128.858 145.203 128.912 145.155 128.957C145.106 129.002 145.049 129.037 144.986 129.059C144.924 129.082 144.858 129.091 144.792 129.087ZM132.909 128.124H144.31V120.924H132.909V128.124Z" fill="#004680"/>
<path d="M48.9273 108.463C47.7419 107.316 46.7588 106.41 45.8144 105.466C43.6834 103.262 40.9311 101.76 37.9246 101.161C34.9181 100.562 31.8003 100.894 28.9873 102.112C26.1458 103.344 23.7652 105.44 22.1838 108.103C20.6023 110.766 19.9007 113.86 20.1786 116.944C20.2846 118.457 19.8027 118.929 18.4149 119.276C13.0091 120.65 8.29507 123.959 5.16595 128.576C2.03684 133.193 0.710087 138.798 1.43712 144.328C2.16415 149.858 4.89445 154.929 9.11064 158.58C13.3268 162.231 18.736 164.209 24.3131 164.139C55.2174 164.139 86.1281 164.139 117.045 164.139C118.232 164.13 119.417 164.043 120.592 163.879C125.41 163.15 129.811 160.728 133.006 157.047C136.2 153.367 137.979 148.669 138.023 143.796C138.067 138.923 136.373 134.194 133.246 130.456C130.119 126.719 125.762 124.218 120.958 123.401C118.684 123.054 116.351 123.074 114.048 122.929C117.97 102.392 104.41 87.4052 90.6288 83.714C83.3769 81.6231 75.6254 82.0996 68.6842 85.0632C58.2564 89.5351 52.0402 97.6402 48.9273 108.463Z" fill="#6F93B3"/>
<path d="M60.9163 164.631H24.2937C21.1096 164.689 17.9477 164.089 15.0062 162.868C12.0647 161.648 9.40686 159.833 7.19927 157.538C4.99168 155.243 3.28188 152.516 2.17697 149.529C1.07206 146.542 0.595849 143.36 0.778173 140.18C1.01137 135.212 2.83995 130.451 5.99264 126.604C9.14532 122.757 13.4541 120.028 18.2799 118.823C19.5231 118.505 19.7641 118.197 19.6774 116.983C19.394 113.801 20.1194 110.61 21.7505 107.863C23.3817 105.116 25.836 102.952 28.7655 101.678C31.665 100.418 34.8805 100.074 37.981 100.692C41.0816 101.31 43.919 102.862 46.1131 105.138C46.7492 105.765 47.4045 106.381 48.1177 107.066L48.6477 107.576C52.0209 96.5511 58.6804 88.8314 68.4625 84.6391C75.6226 81.6077 83.6132 81.1575 91.0685 83.3654C98.5238 85.5733 104.981 90.3023 109.335 96.7438C111.873 100.472 113.645 104.668 114.547 109.087C115.448 113.506 115.462 118.061 114.588 122.486L116.207 122.563C117.818 122.603 119.427 122.725 121.026 122.929C125.951 123.755 130.42 126.312 133.63 130.139C136.839 133.966 138.578 138.812 138.534 143.806C138.489 148.8 136.665 153.615 133.389 157.384C130.112 161.154 125.599 163.631 120.659 164.37C119.462 164.538 118.254 164.628 117.045 164.64L60.9163 164.631ZM34.895 101.322C32.922 101.323 30.9715 101.74 29.1703 102.546C26.4261 103.745 24.1286 105.777 22.603 108.354C21.0775 110.931 20.4012 113.923 20.67 116.905C20.7953 118.833 19.9858 119.382 18.5401 119.749C13.917 120.903 9.7892 123.517 6.7686 127.203C3.74801 130.888 1.99547 135.449 1.77084 140.209C1.59363 143.259 2.0487 146.312 3.10749 149.178C4.16627 152.043 5.80591 154.659 7.9235 156.86C10.0411 159.062 12.5909 160.803 15.413 161.972C18.235 163.142 21.2684 163.715 24.3226 163.657C55.227 163.657 86.1377 163.657 117.055 163.657C118.222 163.648 119.388 163.561 120.544 163.397C125.241 162.675 129.528 160.307 132.638 156.714C135.749 153.121 137.479 148.539 137.521 143.788C137.563 139.036 135.913 134.424 132.866 130.777C129.819 127.131 125.574 124.687 120.891 123.883C119.337 123.677 117.773 123.558 116.207 123.526L114.019 123.42C113.951 123.415 113.884 123.396 113.824 123.362C113.764 123.329 113.712 123.283 113.672 123.228C113.631 123.173 113.601 123.111 113.584 123.045C113.567 122.979 113.565 122.91 113.576 122.842C117.431 102.787 104.565 87.9544 90.5228 84.1958C83.3645 82.128 75.7119 82.5944 68.8576 85.5161C58.9984 89.747 52.628 97.2931 49.3706 108.588C49.3476 108.669 49.3046 108.742 49.2456 108.801C49.1866 108.86 49.1135 108.903 49.0332 108.926C48.9525 108.945 48.8682 108.945 48.7876 108.925C48.707 108.905 48.6325 108.865 48.5706 108.81L47.472 107.759C46.7491 107.066 46.0938 106.449 45.4577 105.832C44.0816 104.423 42.4412 103.3 40.6304 102.526C38.8195 101.752 36.8738 101.343 34.9046 101.322H34.895Z" fill="#231F20"/>
<path d="M173.097 100.059C166.75 97.3502 159.663 96.9145 153.032 98.8254C140.503 102.199 128.051 115.894 131.636 134.667C129.526 134.802 127.396 134.783 125.324 135.101C120.937 135.85 116.96 138.137 114.105 141.551C111.25 144.966 109.704 149.285 109.743 153.735C109.783 158.185 111.405 162.476 114.32 165.84C117.235 169.203 121.252 171.418 125.651 172.09C126.724 172.239 127.806 172.316 128.89 172.321C157.16 172.321 185.43 172.321 213.7 172.321C218.797 172.384 223.74 170.576 227.593 167.239C231.446 163.902 233.941 159.267 234.606 154.214C235.271 149.16 234.06 144.038 231.201 139.818C228.343 135.597 224.036 132.571 219.097 131.314C217.825 130.996 217.381 130.562 217.478 129.184C217.728 126.365 217.085 123.539 215.641 121.106C214.197 118.672 212.024 116.755 209.43 115.624C206.854 114.503 203.997 114.196 201.241 114.744C198.485 115.291 195.962 116.668 194.01 118.688C193.143 119.556 192.247 120.385 191.119 121.425C188.305 111.547 182.58 104.136 173.097 100.059Z" fill="white"/>
<path d="M180.431 172.813H128.89C127.783 172.81 126.679 172.73 125.584 172.572C121.069 171.885 116.947 169.613 113.955 166.163C110.964 162.713 109.298 158.31 109.258 153.744C109.217 149.178 110.804 144.746 113.734 141.243C116.664 137.741 120.745 135.396 125.247 134.629C126.698 134.441 128.159 134.328 129.622 134.292L131.068 134.224C130.275 130.181 130.293 126.02 131.12 121.983C131.947 117.947 133.567 114.114 135.886 110.709C139.871 104.813 145.78 100.485 152.602 98.4638C159.424 96.4422 166.737 96.8528 173.29 99.6254C182.224 103.48 188.315 110.497 191.399 120.548L191.842 120.134C192.497 119.508 193.085 118.949 193.663 118.37C195.675 116.285 198.276 114.863 201.117 114.294C203.959 113.726 206.906 114.038 209.565 115.19C212.253 116.357 214.504 118.34 216.001 120.859C217.497 123.378 218.162 126.304 217.902 129.222C217.825 130.302 218.037 130.581 219.155 130.851C223.571 131.959 227.514 134.461 230.399 137.984C233.284 141.508 234.957 145.866 235.172 150.415C235.337 153.326 234.9 156.24 233.887 158.974C232.875 161.709 231.31 164.205 229.289 166.307C227.268 168.409 224.836 170.072 222.144 171.191C219.451 172.31 216.557 172.862 213.642 172.813H180.431ZM161.522 98.1509C158.696 98.1648 155.883 98.5504 153.157 99.2977C140.339 102.758 128.61 116.25 132.109 134.561C132.124 134.628 132.124 134.697 132.109 134.764C132.094 134.831 132.064 134.893 132.022 134.947C131.98 135.003 131.927 135.05 131.865 135.083C131.804 135.117 131.735 135.136 131.665 135.14L129.661 135.236C128.233 135.268 126.807 135.378 125.391 135.564C121.119 136.296 117.247 138.526 114.468 141.852C111.689 145.179 110.185 149.386 110.224 153.72C110.264 158.055 111.844 162.234 114.683 165.509C117.522 168.785 121.434 170.943 125.719 171.598C126.769 171.749 127.829 171.826 128.89 171.83C157.16 171.83 185.43 171.83 213.7 171.83C216.486 171.881 219.253 171.356 221.827 170.288C224.401 169.22 226.726 167.632 228.658 165.623C230.59 163.615 232.086 161.229 233.052 158.615C234.019 156.002 234.436 153.217 234.276 150.434C234.068 146.092 232.468 141.931 229.712 138.569C226.955 135.207 223.189 132.822 218.972 131.767C217.632 131.439 216.88 130.899 217.044 129.135C217.291 126.415 216.674 123.687 215.281 121.337C213.888 118.988 211.791 117.137 209.286 116.048C206.802 114.97 204.048 114.677 201.394 115.21C198.739 115.742 196.311 117.074 194.434 119.026C193.847 119.604 193.249 120.173 192.594 120.799L191.582 121.763C191.523 121.821 191.451 121.862 191.371 121.882C191.291 121.902 191.208 121.901 191.129 121.878C191.048 121.86 190.974 121.82 190.914 121.762C190.855 121.704 190.812 121.631 190.791 121.551C187.813 111.239 182.002 104.348 173.001 100.483C169.375 98.9257 165.468 98.1318 161.522 98.1509Z" fill="#231F20"/>
<path d="M76.5865 169.295V136.961H82.3498L71.0835 124.558L59.8076 136.961H65.5709V169.295" fill="white"/>
<path d="M76.5674 169.777C76.4396 169.777 76.3171 169.726 76.2267 169.636C76.1363 169.546 76.0856 169.423 76.0856 169.295V136.961C76.088 136.834 76.1396 136.713 76.2294 136.623C76.3193 136.533 76.4404 136.482 76.5674 136.479H81.2416L71.0644 125.271L60.8968 136.489H65.571C65.6988 136.489 65.8214 136.54 65.9118 136.63C66.0021 136.721 66.0529 136.843 66.0529 136.971V169.257C66.0529 169.384 66.0021 169.507 65.9118 169.597C65.8214 169.688 65.6988 169.739 65.571 169.739C65.4432 169.739 65.3207 169.688 65.2303 169.597C65.1399 169.507 65.0892 169.384 65.0892 169.257V137.453H59.8078C59.7148 137.454 59.6235 137.428 59.5448 137.379C59.4662 137.329 59.4035 137.258 59.3645 137.173C59.3268 137.088 59.3149 136.993 59.3303 136.9C59.3457 136.808 59.3877 136.722 59.4512 136.653L70.7271 124.249C70.773 124.201 70.8283 124.162 70.8896 124.136C70.9509 124.11 71.017 124.096 71.0837 124.096C71.1504 124.096 71.2164 124.11 71.2778 124.136C71.3391 124.162 71.3944 124.201 71.4403 124.249L82.7065 136.653C82.7712 136.721 82.8139 136.807 82.8294 136.9C82.8448 136.993 82.8323 137.088 82.7933 137.173C82.7542 137.258 82.6916 137.329 82.6129 137.379C82.5343 137.428 82.4429 137.454 82.35 137.453H77.0686V169.257C77.0741 169.325 77.0651 169.393 77.0421 169.458C77.0192 169.522 76.9828 169.581 76.9354 169.63C76.888 169.679 76.8307 169.718 76.7673 169.743C76.7038 169.768 76.6357 169.78 76.5674 169.777Z" fill="#231F20"/>
<path d="M166.91 134.995V167.329H161.146L172.413 179.742L183.689 167.329H177.925V134.995" fill="white"/>
<path d="M172.413 180.224C172.345 180.223 172.278 180.208 172.217 180.18C172.156 180.152 172.101 180.111 172.056 180.06L160.79 167.657C160.725 167.589 160.683 167.503 160.667 167.41C160.652 167.317 160.664 167.222 160.703 167.136C160.742 167.051 160.804 166.978 160.883 166.927C160.961 166.876 161.053 166.848 161.146 166.847H166.428V134.995C166.428 134.868 166.479 134.745 166.569 134.655C166.659 134.564 166.782 134.513 166.91 134.513C167.037 134.516 167.158 134.567 167.248 134.657C167.338 134.747 167.389 134.868 167.392 134.995V167.329C167.392 167.457 167.341 167.58 167.25 167.67C167.16 167.76 167.038 167.811 166.91 167.811H162.236L172.413 179.02L182.58 167.811H177.906C177.778 167.811 177.656 167.76 177.565 167.67C177.475 167.58 177.424 167.457 177.424 167.329V134.995C177.424 134.868 177.475 134.745 177.565 134.655C177.656 134.564 177.778 134.513 177.906 134.513C178.034 134.513 178.157 134.564 178.247 134.655C178.337 134.745 178.388 134.868 178.388 134.995V166.847H183.669C183.763 166.848 183.855 166.876 183.933 166.927C184.012 166.978 184.074 167.051 184.113 167.136C184.149 167.222 184.16 167.317 184.145 167.409C184.13 167.501 184.088 167.587 184.026 167.657L172.75 180.06C172.708 180.11 172.657 180.15 172.599 180.178C172.541 180.206 172.477 180.222 172.413 180.224Z" fill="#231F20"/>
</g>
<defs>
<clipPath id="clip0_931_22954">
<rect width="268" height="181" fill="white" transform="translate(0.5)"/>
</clipPath>
</defs>
</svg>
