<svg width="187" height="180" viewBox="0 0 187 180" fill="none" xmlns="http://www.w3.org/2000/svg">
<g clip-path="url(#clip0_931_23078)">
<path d="M0.972168 171.956H185.242V176.103C185.242 177.137 184.831 178.128 184.1 178.859C183.369 179.589 182.378 180 181.345 180H4.86884C3.83538 180 2.84425 179.589 2.11348 178.859C1.38271 178.128 0.972168 177.137 0.972168 176.103V171.956Z" fill="black"/>
<path d="M182.09 175.415H4.12347C3.62295 175.414 3.12973 175.295 2.68467 175.066C2.2396 174.837 1.85548 174.505 1.56411 174.098C1.27274 173.691 1.0825 173.22 1.00913 172.725C0.935769 172.23 0.981399 171.725 1.14223 171.251L17.134 124.061C17.8269 122.013 19.1446 120.234 20.9016 118.974C22.6585 117.714 24.7663 117.037 26.9283 117.038H159.285C161.447 117.037 163.555 117.714 165.312 118.974C167.069 120.234 168.387 122.013 169.08 124.061L185.071 171.251C185.232 171.725 185.278 172.23 185.204 172.725C185.131 173.22 184.941 173.691 184.649 174.098C184.358 174.505 183.974 174.837 183.529 175.066C183.084 175.295 182.591 175.414 182.09 175.415Z" fill="white"/>
<path d="M182.09 175.788H4.12372C3.56511 175.786 3.01487 175.652 2.51838 175.396C2.02188 175.14 1.59335 174.769 1.26814 174.315C0.942932 173.861 0.730355 173.336 0.647939 172.783C0.565524 172.231 0.615637 171.667 0.794138 171.137L16.7778 123.94C17.4946 121.816 18.8595 119.97 20.6804 118.662C22.5013 117.354 24.6866 116.65 26.9285 116.649H159.286C161.527 116.65 163.713 117.354 165.534 118.662C167.355 119.97 168.719 121.816 169.436 123.94L185.46 171.137C185.639 171.667 185.689 172.231 185.607 172.783C185.524 173.336 185.312 173.861 184.986 174.315C184.661 174.769 184.233 175.14 183.736 175.396C183.24 175.652 182.689 175.786 182.131 175.788H182.09ZM26.9285 117.402C24.8384 117.404 22.8017 118.062 21.1065 119.285C19.4114 120.508 18.1436 122.233 17.4826 124.215L1.49084 171.372C1.34926 171.791 1.30935 172.236 1.37442 172.673C1.43949 173.11 1.60767 173.525 1.86502 173.883C2.12237 174.242 2.46149 174.534 2.85428 174.736C3.24708 174.937 3.68224 175.042 4.12372 175.042H182.09C182.532 175.042 182.967 174.937 183.36 174.736C183.753 174.534 184.092 174.242 184.349 173.883C184.606 173.525 184.775 173.11 184.84 172.673C184.905 172.236 184.865 171.791 184.723 171.372L168.731 124.215C168.065 122.239 166.795 120.521 165.1 119.304C163.405 118.088 161.372 117.434 159.286 117.435L26.9285 117.402Z" fill="#231F20"/>
<path d="M164.008 147.709H22.6268C22.2223 147.71 21.8232 147.616 21.4615 147.434C21.0999 147.253 20.7856 146.99 20.5439 146.666C20.3022 146.341 20.1398 145.965 20.0696 145.566C19.9994 145.168 20.0234 144.759 20.1397 144.371L25.8105 125.22C25.9898 124.629 26.3528 124.112 26.8467 123.741C27.3406 123.371 27.9397 123.169 28.5568 123.162H157.366C158.057 123.167 158.729 123.393 159.283 123.807C159.837 124.221 160.243 124.801 160.444 125.463L166.172 144.752C166.275 145.095 166.297 145.457 166.236 145.809C166.174 146.162 166.031 146.496 165.818 146.783C165.605 147.07 165.327 147.304 165.007 147.465C164.687 147.625 164.334 147.709 163.976 147.709H164.008ZM28.5568 123.972C28.1143 123.976 27.6846 124.121 27.3304 124.386C26.9762 124.652 26.7162 125.023 26.5883 125.447L20.9174 144.606C20.8379 144.872 20.8216 145.153 20.8701 145.427C20.9185 145.701 21.0302 145.959 21.1962 146.182C21.3623 146.405 21.5781 146.585 21.8265 146.71C22.0749 146.834 22.349 146.899 22.6268 146.899H164.008C164.24 146.899 164.468 146.844 164.674 146.74C164.881 146.636 165.06 146.485 165.198 146.299C165.336 146.114 165.428 145.898 165.468 145.67C165.507 145.442 165.493 145.208 165.426 144.987L159.699 125.69C159.547 125.196 159.243 124.764 158.829 124.455C158.415 124.146 157.914 123.977 157.398 123.972H28.5568Z" fill="#D1D3D4"/>
<path d="M117.613 169.039H68.6008C68.1884 169.041 67.7808 168.95 67.4089 168.772C67.037 168.594 66.7105 168.333 66.454 168.01C66.1941 167.69 66.0097 167.316 65.9143 166.915C65.819 166.513 65.8151 166.096 65.9031 165.693L68.2443 155.04C68.4642 154.11 68.9903 153.281 69.7381 152.686C70.486 152.091 71.4121 151.765 72.3678 151.759H113.846C114.806 151.766 115.736 152.097 116.484 152.699C117.232 153.3 117.756 154.137 117.969 155.073L120.311 165.726C120.399 166.128 120.395 166.546 120.299 166.947C120.204 167.348 120.02 167.723 119.76 168.043C119.5 168.36 119.172 168.614 118.8 168.786C118.429 168.959 118.023 169.045 117.613 169.039ZM72.3678 152.569C71.5911 152.573 70.8386 152.84 70.2336 153.327C69.6287 153.814 69.2072 154.493 69.0383 155.251L66.697 165.896C66.6338 166.18 66.6355 166.476 66.7019 166.76C66.7682 167.044 66.8976 167.309 67.0804 167.536C67.2632 167.763 67.4948 167.946 67.758 168.072C68.0212 168.197 68.3092 168.262 68.6008 168.261H117.613C117.904 168.262 118.193 168.197 118.456 168.072C118.719 167.946 118.95 167.763 119.133 167.536C119.316 167.309 119.445 167.044 119.512 166.76C119.578 166.476 119.58 166.18 119.517 165.896L117.175 155.251C117.007 154.493 116.585 153.814 115.98 153.327C115.375 152.84 114.623 152.573 113.846 152.569H72.3678Z" fill="#D1D3D4"/>
<path d="M161.432 15.2463H24.6601C21.7474 15.2463 19.3862 17.6075 19.3862 20.5202V111.764C19.3862 114.676 21.7474 117.038 24.6601 117.038H161.432C164.345 117.038 166.706 114.676 166.706 111.764V20.5202C166.706 17.6075 164.345 15.2463 161.432 15.2463Z" fill="#231F20"/>
<path d="M161.424 117.443H24.6601C23.1561 117.443 21.7137 116.845 20.6502 115.782C19.5867 114.718 18.9893 113.276 18.9893 111.772V20.5202C18.9893 19.0162 19.5867 17.5738 20.6502 16.5103C21.7137 15.4468 23.1561 14.8494 24.6601 14.8494H161.424C162.928 14.8494 164.37 15.4468 165.434 16.5103C166.497 17.5738 167.095 19.0162 167.095 20.5202V111.756C167.097 112.502 166.952 113.241 166.668 113.931C166.384 114.621 165.967 115.248 165.44 115.776C164.913 116.304 164.287 116.723 163.598 117.009C162.909 117.295 162.17 117.443 161.424 117.443ZM24.6601 15.6595C23.3709 15.6595 22.1346 16.1716 21.223 17.0831C20.3115 17.9947 19.7994 19.231 19.7994 20.5202V111.756C19.7994 113.045 20.3115 114.281 21.223 115.193C22.1346 116.104 23.3709 116.616 24.6601 116.616H161.424C162.713 116.616 163.95 116.104 164.861 115.193C165.773 114.281 166.285 113.045 166.285 111.756V20.5202C166.285 19.231 165.773 17.9947 164.861 17.0831C163.95 16.1716 162.713 15.6595 161.424 15.6595H24.6601Z" fill="#231F20"/>
<path d="M158.832 22.262H26.9448V109.876H158.832V22.262Z" fill="#004680"/>
<path d="M37.371 0.380868H148.843C149.814 0.380868 150.746 0.766658 151.432 1.45337C152.119 2.14007 152.505 3.07145 152.505 4.0426V109.86H33.7012V4.0507C33.7001 3.56847 33.7943 3.09078 33.9784 2.64506C34.1624 2.19933 34.4327 1.79435 34.7737 1.45336C35.1147 1.11237 35.5196 0.84209 35.9654 0.658042C36.4111 0.473994 36.8888 0.3798 37.371 0.380868Z" fill="white"/>
<path d="M152.513 110.225H33.701C33.6043 110.225 33.5116 110.186 33.4432 110.118C33.3748 110.049 33.3364 109.957 33.3364 109.86V4.05059C33.3364 2.9763 33.7632 1.94602 34.5228 1.18639C35.2824 0.426757 36.3127 0 37.387 0H148.843C149.917 0 150.948 0.426757 151.707 1.18639C152.467 1.94602 152.894 2.9763 152.894 4.05059V109.86C152.894 109.909 152.884 109.958 152.864 110.003C152.845 110.049 152.817 110.09 152.781 110.124C152.746 110.158 152.703 110.184 152.657 110.202C152.611 110.219 152.562 110.227 152.513 110.225ZM34.0736 109.487H152.14V4.05059C152.14 3.17612 151.793 2.33747 151.174 1.71913C150.556 1.10079 149.717 0.75341 148.843 0.75341H37.3708C36.4963 0.75341 35.6577 1.10079 35.0394 1.71913C34.421 2.33747 34.0736 3.17612 34.0736 4.05059V109.487Z" fill="#231F20"/>
<path d="M152.513 11.9897H33.7008C33.6019 11.9897 33.5072 11.9504 33.4373 11.8805C33.3674 11.8107 33.3281 11.7159 33.3281 11.617C33.3281 11.5182 33.3674 11.4234 33.4373 11.3535C33.5072 11.2836 33.6019 11.2444 33.7008 11.2444H152.513C152.611 11.2444 152.706 11.2836 152.776 11.3535C152.846 11.4234 152.885 11.5182 152.885 11.617C152.885 11.7159 152.846 11.8107 152.776 11.8805C152.706 11.9504 152.611 11.9897 152.513 11.9897Z" fill="#231F20"/>
<path d="M74.6043 19.9207H45.2942C43.0348 19.9207 41.2031 21.7523 41.2031 24.0117V34.1706C41.2031 36.4301 43.0348 38.2617 45.2942 38.2617H74.6043C76.8637 38.2617 78.6954 36.4301 78.6954 34.1706V24.0117C78.6954 21.7523 76.8637 19.9207 74.6043 19.9207Z" fill="#E6E7E8"/>
<path d="M74.6043 43.3169H45.2942C43.0348 43.3169 41.2031 45.1485 41.2031 47.408V98.5588C41.2031 100.818 43.0348 102.65 45.2942 102.65H74.6043C76.8637 102.65 78.6954 100.818 78.6954 98.5588V47.408C78.6954 45.1485 76.8637 43.3169 74.6043 43.3169Z" fill="#E6E7E8"/>
<path d="M140.921 19.9207H87.7444C85.485 19.9207 83.6533 21.7523 83.6533 24.0117V98.5507C83.6533 100.81 85.485 102.642 87.7444 102.642H140.921C143.18 102.642 145.012 100.81 145.012 98.5507V24.0117C145.012 21.7523 143.18 19.9207 140.921 19.9207Z" fill="#E6E7E8"/>
<path d="M43.7628 7.53422C44.7337 7.53422 45.5208 6.74716 45.5208 5.77626C45.5208 4.80537 44.7337 4.01831 43.7628 4.01831C42.7919 4.01831 42.0049 4.80537 42.0049 5.77626C42.0049 6.74716 42.7919 7.53422 43.7628 7.53422Z" fill="#ED2D24"/>
<path d="M50.568 7.53422C51.5389 7.53422 52.326 6.74716 52.326 5.77626C52.326 4.80537 51.5389 4.01831 50.568 4.01831C49.5971 4.01831 48.8101 4.80537 48.8101 5.77626C48.8101 6.74716 49.5971 7.53422 50.568 7.53422Z" fill="#E6E7E8"/>
<path d="M57.3727 7.53422C58.3436 7.53422 59.1307 6.74716 59.1307 5.77626C59.1307 4.80537 58.3436 4.01831 57.3727 4.01831C56.4018 4.01831 55.6147 4.80537 55.6147 5.77626C55.6147 6.74716 56.4018 7.53422 57.3727 7.53422Z" fill="#E6E7E8"/>
<path d="M143.237 6.17309H124.702C124.653 6.17309 124.604 6.16345 124.559 6.14472C124.514 6.12599 124.473 6.09854 124.438 6.06394C124.404 6.02934 124.376 5.98825 124.357 5.94304C124.339 5.89783 124.329 5.84937 124.329 5.80043C124.329 5.75187 124.339 5.7038 124.358 5.65903C124.376 5.61426 124.404 5.57371 124.439 5.53975C124.473 5.50579 124.515 5.47911 124.56 5.46127C124.605 5.44343 124.653 5.4348 124.702 5.43588H143.253C143.301 5.43588 143.349 5.44531 143.393 5.46363C143.437 5.48195 143.477 5.5088 143.511 5.54266C143.545 5.57651 143.572 5.61669 143.59 5.66092C143.609 5.70515 143.618 5.75256 143.618 5.80043C143.618 5.85006 143.608 5.89919 143.589 5.94494C143.57 5.99069 143.541 6.03213 143.506 6.06684C143.471 6.10156 143.429 6.12884 143.382 6.14708C143.336 6.16532 143.287 6.17417 143.237 6.17309Z" fill="#E6E7E8"/>
<path d="M92.9935 139.202C102.837 139.202 110.816 137.57 110.816 135.557C110.816 133.544 102.837 131.911 92.9935 131.911C83.1503 131.911 75.1709 133.544 75.1709 135.557C75.1709 137.57 83.1503 139.202 92.9935 139.202Z" fill="#E6E7E8"/>
<path d="M138.514 30.9222V32.8341C138.514 42.1018 138.425 51.3696 138.514 60.6373C138.733 78.7758 133.054 94.9701 122.466 109.512C115.229 119.523 105.498 127.466 94.241 132.551C93.882 132.743 93.4814 132.843 93.0745 132.843C92.6676 132.843 92.2669 132.743 91.9079 132.551C74.0853 124.264 61.893 110.63 54.1321 92.799C49.6921 82.7123 47.4815 71.7862 47.6512 60.7669C47.7808 51.4587 47.6512 42.1342 47.6512 32.8179V30.8088C50.1949 30.8088 52.5686 30.8088 54.9422 30.8088C62.7275 30.6954 70.4722 30.2984 78.0711 28.3784C83.0277 27.1789 87.7466 25.1522 92.0294 22.3836C92.3211 22.1389 92.6897 22.0049 93.0704 22.0049C93.4511 22.0049 93.8197 22.1389 94.1114 22.3836C100.623 26.5931 108.077 29.1232 115.806 29.7475C122.798 30.3713 129.838 30.5576 136.869 30.8817C137.388 30.9384 137.874 30.9222 138.514 30.9222Z" fill="#6F93B3"/>
<path d="M93.107 133.208C92.64 133.195 92.1813 133.082 91.7622 132.875C74.6525 124.928 61.877 111.488 53.8082 92.9447C49.3694 82.8035 47.1593 71.8276 47.3273 60.7587C47.4164 54.2778 47.4002 47.7402 47.3759 41.3888C47.3759 38.5291 47.3759 35.6694 47.3759 32.8097V30.8087C47.3779 30.7105 47.4179 30.6169 47.4873 30.5475C47.5568 30.478 47.6503 30.4381 47.7485 30.436H50.1303C51.7991 30.436 53.4193 30.436 54.991 30.436C62.4035 30.3307 70.3184 29.9662 78.0307 28.0057C82.9487 26.8208 87.6301 24.8102 91.8756 22.0594C92.2281 21.7761 92.6669 21.6216 93.1192 21.6216C93.5714 21.6216 94.0102 21.7761 94.3627 22.0594C100.823 26.2342 108.22 28.7395 115.887 29.3505C120.748 29.788 125.755 29.9986 130.575 30.1606C132.689 30.2497 134.812 30.3388 136.926 30.4523C137.234 30.4523 137.55 30.4523 137.907 30.4523H138.514C138.613 30.4523 138.708 30.4915 138.778 30.5614C138.847 30.6313 138.887 30.7261 138.887 30.8249V32.834C138.887 35.718 138.887 38.6101 138.887 41.4942C138.887 47.7645 138.846 54.2535 138.887 60.6372C139.097 78.2411 133.678 94.7594 122.773 109.73C115.495 119.783 105.723 127.766 94.4194 132.892C94.0104 133.092 93.5624 133.2 93.107 133.208ZM48.0807 31.1814V32.8016C48.0807 35.664 48.0807 38.5237 48.0807 41.3807C48.0807 47.7321 48.1293 54.3021 48.0321 60.7587C47.8873 71.726 50.0973 82.5967 54.513 92.6369C62.5089 111.01 75.1548 124.321 92.1025 132.195C92.4131 132.364 92.7613 132.453 93.1151 132.453C93.4689 132.453 93.8171 132.364 94.1277 132.195C105.323 127.126 115.001 119.224 122.206 109.269C133.013 94.4272 138.409 78.0629 138.182 60.621C138.109 54.2373 138.125 47.7402 138.182 41.4699C138.182 38.575 138.182 35.6883 138.182 32.8097V31.2948H137.947C137.574 31.2948 137.242 31.2948 136.918 31.2948C134.804 31.1895 132.689 31.1003 130.575 31.0112C125.714 30.8006 120.748 30.59 115.855 30.1525C108.063 29.5261 100.547 26.9764 93.9819 22.7318C93.7507 22.5268 93.4524 22.4136 93.1435 22.4136C92.8345 22.4136 92.5362 22.5268 92.305 22.7318C87.9883 25.5246 83.2308 27.5679 78.2332 28.7753C70.4237 30.6872 62.4522 31.0517 55.0315 31.1733C53.4112 31.1733 51.791 31.1733 50.1222 31.1733L48.0807 31.1814Z" fill="#231F20"/>
<path d="M93.1072 127.828C93.0539 127.841 92.9985 127.841 92.9452 127.828C77.2694 120.278 65.9926 108.207 58.4828 90.9357C54.3251 81.4628 52.2477 71.2083 52.3907 60.8641C52.4879 54.3427 52.4636 47.7645 52.4393 41.4213V35.9692C52.4433 35.8717 52.4838 35.7792 52.5529 35.7101C52.6219 35.6411 52.7144 35.6006 52.812 35.5966H55.0641C62.7845 35.4832 71.0558 35.0943 79.2623 33.0447C84.0608 31.8769 88.6625 30.0127 92.9209 27.5116C92.9778 27.4797 93.0419 27.4629 93.1072 27.4629C93.1725 27.4629 93.2366 27.4797 93.2935 27.5116C100.044 31.5017 107.611 33.9087 115.426 34.5515C120.432 35.0052 125.488 35.2158 130.373 35.4264L133.427 35.5561C133.522 35.5582 133.613 35.5975 133.679 35.6657C133.746 35.7338 133.783 35.8253 133.783 35.9206V41.6481C133.783 47.9023 133.743 54.3751 133.824 60.7588C134.018 77.4715 129.068 92.5316 118.683 106.79C112.129 115.837 103.396 123.083 93.2935 127.853C93.2304 127.862 93.1659 127.853 93.1072 127.828ZM53.1684 36.2852V41.3646C53.1684 47.7321 53.1684 54.3265 53.1198 60.8074C52.9736 71.0477 55.0262 81.2001 59.139 90.5792C66.5597 107.592 77.6664 119.541 93.091 127.035C103.013 122.311 111.59 115.172 118.035 106.271C128.323 92.1509 133.232 77.2366 133.03 60.6859C132.957 54.3022 132.973 47.8212 133.03 41.559V36.2123L130.373 36.0988C125.512 35.8882 120.416 35.6776 115.394 35.2239C107.532 34.5813 99.9162 32.181 93.1072 28.2002C88.8397 30.6752 84.2403 32.5275 79.4486 33.7009C71.1611 35.7667 62.8331 36.1312 55.0722 36.269C54.4484 36.2852 53.8165 36.2852 53.1846 36.2852H53.1684Z" fill="white"/>
<path d="M88.1004 95.2375C87.4011 95.2389 86.7091 95.0958 86.0678 94.8169C85.4265 94.5381 84.8498 94.1296 84.3739 93.6172L68.9816 76.7344C68.0863 75.7325 67.6223 74.4179 67.6901 73.0759C67.758 71.734 68.3523 70.4729 69.3441 69.5664C70.3359 68.6599 71.6452 68.1811 72.9879 68.2339C74.3305 68.2867 75.5982 68.8668 76.5157 69.8484L88.2381 82.6807L116.843 52.3499C117.776 51.383 119.052 50.8227 120.395 50.7905C121.738 50.7584 123.039 51.257 124.017 52.1782C124.995 53.0993 125.57 54.3688 125.618 55.7113C125.665 57.0538 125.182 58.3609 124.272 59.3493L91.8675 93.6821C91.3807 94.187 90.7948 94.5858 90.1465 94.8535C89.4982 95.1211 88.8016 95.2519 88.1004 95.2375Z" fill="white"/>
</g>
<defs>
<clipPath id="clip0_931_23078">
<rect width="186" height="180" fill="white" transform="translate(0.5)"/>
</clipPath>
</defs>
</svg>
