<svg width="261" height="181" viewBox="0 0 261 181" fill="none" xmlns="http://www.w3.org/2000/svg">
<g clip-path="url(#clip0_931_23035)">
<path d="M91.0862 49.6756C88.8382 47.513 86.9919 45.7949 85.2054 44.017C76.5808 35.4693 64.0499 32.905 53.4081 37.6746C42.3901 42.6066 35.911 53.2827 36.7743 65.6939C36.9709 68.5659 36.0649 69.4463 33.4407 70.1045C15.1744 74.6775 1.81435 91.1318 1.0707 109.612C0.104816 134.913 19.2089 154.838 44.5783 154.855C102.976 154.889 161.385 154.889 219.806 154.855C222.048 154.846 224.287 154.684 226.507 154.367C245.004 151.803 259.202 135.563 259.407 116.698C259.612 97.3972 245.842 80.7122 227.191 77.9171C222.917 77.276 218.489 77.3016 214.13 77.0623C221.558 38.2644 195.872 9.95453 169.913 2.98818C155.766 -0.798438 141.902 -0.234292 128.448 5.55248C108.763 13.9207 96.967 29.2381 91.0862 49.6756Z" fill="white" fill-opacity="0.87"/>
<mask id="path-2-inside-1_931_23035" fill="white">
<path d="M113.353 155.299H44.5783C38.6299 155.404 32.7239 154.28 27.2296 151.998C21.7354 149.716 16.7711 146.325 12.6473 142.037C8.52357 137.749 5.32903 132.656 3.26353 127.076C1.19804 121.497 0.306015 115.552 0.64327 109.612C1.07659 100.329 4.49161 91.4337 10.3814 84.2459C16.2712 77.058 24.3218 71.961 33.3381 69.7113C35.7144 69.113 36.5264 68.4206 36.3469 65.7452C35.4921 53.2485 41.9542 42.3502 53.2371 37.2985C64.0584 32.4606 76.7261 34.9821 85.5045 43.7349C86.7012 44.9231 87.8979 46.0685 89.2826 47.3848L90.8725 48.8892C97.1208 27.8021 109.677 13.083 128.243 5.12511C141.338 -0.499253 155.373 -1.36257 169.981 2.56081C183.657 6.23631 196.393 15.4507 204.856 27.8277C211.608 37.7259 218.746 54.1973 214.6 76.6435C215.814 76.7204 217.028 76.7717 218.241 76.823C221.24 76.8928 224.234 77.1239 227.208 77.5153C246.013 80.3275 260.005 97.175 259.792 116.724C259.578 135.845 245.261 152.222 226.524 154.803C224.284 155.122 222.025 155.288 219.763 155.299C185.384 155.282 149.527 155.299 113.353 155.299ZM64.6311 35.7087C60.8328 35.7058 57.0773 36.51 53.6132 38.0678C42.6636 42.9571 36.3896 53.5391 37.2273 65.6683C37.4495 68.942 36.1674 69.8737 33.5689 70.5233C24.7323 72.7287 16.8423 77.7243 11.0696 84.7688C5.29698 91.8133 1.94941 100.531 1.52368 109.629C1.19226 115.453 2.06642 121.283 4.09148 126.754C6.11653 132.225 9.24889 137.22 13.2926 141.425C17.3363 145.63 22.2042 148.955 27.5919 151.192C32.9796 153.429 38.7711 154.531 44.6039 154.427C103.583 154.427 163.647 154.427 219.831 154.427C222.054 154.419 224.273 154.256 226.473 153.94C244.816 151.376 258.8 135.4 259.005 116.698C259.21 97.5767 245.517 81.0883 227.148 78.3445C224.204 77.9606 221.243 77.7295 218.276 77.6521C216.891 77.6008 215.506 77.541 214.13 77.4555C214.069 77.4522 214.01 77.4351 213.956 77.4055C213.903 77.3759 213.857 77.3345 213.822 77.2846C213.783 77.2375 213.756 77.1824 213.741 77.1232C213.726 77.0641 213.725 77.0024 213.737 76.9427C218.011 54.5392 210.925 38.1277 204.215 28.2979C195.872 16.0747 183.341 6.99705 169.827 3.37284C155.348 -0.473609 141.492 0.381157 128.576 5.88586C109.814 13.9378 97.7192 28.2979 91.4965 49.7867C91.4761 49.8579 91.4379 49.9227 91.3856 49.975C91.3333 50.0273 91.2685 50.0655 91.1973 50.0859C91.1257 50.1034 91.0509 50.1033 90.9794 50.0854C90.908 50.0675 90.8419 50.0325 90.787 49.9833L88.6928 47.9831C87.3594 46.7181 86.1285 45.5214 84.8977 44.3247C82.2469 41.6262 79.0905 39.4764 75.6087 37.998C72.1269 36.5196 68.388 35.7417 64.6055 35.7087H64.6311Z"/>
</mask>
<path d="M113.353 155.299H44.5783C38.6299 155.404 32.7239 154.28 27.2296 151.998C21.7354 149.716 16.7711 146.325 12.6473 142.037C8.52357 137.749 5.32903 132.656 3.26353 127.076C1.19804 121.497 0.306015 115.552 0.64327 109.612C1.07659 100.329 4.49161 91.4337 10.3814 84.2459C16.2712 77.058 24.3218 71.961 33.3381 69.7113C35.7144 69.113 36.5264 68.4206 36.3469 65.7452C35.4921 53.2485 41.9542 42.3502 53.2371 37.2985C64.0584 32.4606 76.7261 34.9821 85.5045 43.7349C86.7012 44.9231 87.8979 46.0685 89.2826 47.3848L90.8725 48.8892C97.1208 27.8021 109.677 13.083 128.243 5.12511C141.338 -0.499253 155.373 -1.36257 169.981 2.56081C183.657 6.23631 196.393 15.4507 204.856 27.8277C211.608 37.7259 218.746 54.1973 214.6 76.6435C215.814 76.7204 217.028 76.7717 218.241 76.823C221.24 76.8928 224.234 77.1239 227.208 77.5153C246.013 80.3275 260.005 97.175 259.792 116.724C259.578 135.845 245.261 152.222 226.524 154.803C224.284 155.122 222.025 155.288 219.763 155.299C185.384 155.282 149.527 155.299 113.353 155.299ZM64.6311 35.7087C60.8328 35.7058 57.0773 36.51 53.6132 38.0678C42.6636 42.9571 36.3896 53.5391 37.2273 65.6683C37.4495 68.942 36.1674 69.8737 33.5689 70.5233C24.7323 72.7287 16.8423 77.7243 11.0696 84.7688C5.29698 91.8133 1.94941 100.531 1.52368 109.629C1.19226 115.453 2.06642 121.283 4.09148 126.754C6.11653 132.225 9.24889 137.22 13.2926 141.425C17.3363 145.63 22.2042 148.955 27.5919 151.192C32.9796 153.429 38.7711 154.531 44.6039 154.427C103.583 154.427 163.647 154.427 219.831 154.427C222.054 154.419 224.273 154.256 226.473 153.94C244.816 151.376 258.8 135.4 259.005 116.698C259.21 97.5767 245.517 81.0883 227.148 78.3445C224.204 77.9606 221.243 77.7295 218.276 77.6521C216.891 77.6008 215.506 77.541 214.13 77.4555C214.069 77.4522 214.01 77.4351 213.956 77.4055C213.903 77.3759 213.857 77.3345 213.822 77.2846C213.783 77.2375 213.756 77.1824 213.741 77.1232C213.726 77.0641 213.725 77.0024 213.737 76.9427C218.011 54.5392 210.925 38.1277 204.215 28.2979C195.872 16.0747 183.341 6.99705 169.827 3.37284C155.348 -0.473609 141.492 0.381157 128.576 5.88586C109.814 13.9378 97.7192 28.2979 91.4965 49.7867C91.4761 49.8579 91.4379 49.9227 91.3856 49.975C91.3333 50.0273 91.2685 50.0655 91.1973 50.0859C91.1257 50.1034 91.0509 50.1033 90.9794 50.0854C90.908 50.0675 90.8419 50.0325 90.787 49.9833L88.6928 47.9831C87.3594 46.7181 86.1285 45.5214 84.8977 44.3247C82.2469 41.6262 79.0905 39.4764 75.6087 37.998C72.1269 36.5196 68.388 35.7417 64.6055 35.7087H64.6311Z" fill="#231F20"/>
<path d="M44.5783 155.299V154.299H44.5695L44.5607 154.299L44.5783 155.299ZM0.64327 109.612L1.64171 109.669L1.64218 109.658L0.64327 109.612ZM33.3381 69.7113L33.5802 70.6816L33.5823 70.681L33.3381 69.7113ZM36.3469 65.7452L37.3446 65.6783L37.3446 65.677L36.3469 65.7452ZM53.2371 37.2985L52.8289 36.3856L52.8284 36.3859L53.2371 37.2985ZM85.5045 43.7349L84.7985 44.4431L84.8 44.4446L85.5045 43.7349ZM89.2826 47.3848L88.5936 48.1096L88.5953 48.1112L89.2826 47.3848ZM90.8725 48.8892L90.1852 49.6156L91.3685 50.7352L91.8313 49.1733L90.8725 48.8892ZM128.243 5.12511L128.637 6.04424L128.638 6.04395L128.243 5.12511ZM169.981 2.56081L170.241 1.59508L170.241 1.59504L169.981 2.56081ZM204.856 27.8277L205.682 27.2642L205.681 27.2633L204.856 27.8277ZM214.6 76.6435L213.617 76.4619L213.412 77.5702L214.537 77.6415L214.6 76.6435ZM218.241 76.823L218.199 77.8221L218.209 77.8225L218.218 77.8227L218.241 76.823ZM227.208 77.5153L227.356 76.5263L227.347 76.525L227.338 76.5239L227.208 77.5153ZM259.792 116.724L260.792 116.735V116.734L259.792 116.724ZM226.524 154.803L226.388 153.813L226.383 153.813L226.524 154.803ZM219.763 155.299L219.762 156.299L219.768 156.299L219.763 155.299ZM64.6311 35.7087V36.7087L64.6319 34.7087L64.6311 35.7087ZM53.6132 38.0678L54.0209 38.9809L54.0233 38.9799L53.6132 38.0678ZM37.2273 65.6683L38.225 65.6005L38.2249 65.5994L37.2273 65.6683ZM33.5689 70.5233L33.811 71.4936L33.8114 71.4935L33.5689 70.5233ZM1.52368 109.629L2.52212 109.686L2.52259 109.676L1.52368 109.629ZM44.6039 154.427V153.427H44.5951L44.5862 153.427L44.6039 154.427ZM219.831 154.427V155.427L219.835 155.427L219.831 154.427ZM226.473 153.94L226.334 152.95L226.331 152.95L226.473 153.94ZM259.005 116.698L260.005 116.709V116.709L259.005 116.698ZM227.148 78.3445L227.296 77.3554L227.287 77.3541L227.277 77.3529L227.148 78.3445ZM218.276 77.6521L218.239 78.6515L218.249 78.6518L218.276 77.6521ZM214.13 77.4555L214.192 76.4574L214.183 76.4569L214.13 77.4555ZM213.822 77.2846L214.642 76.7115L214.619 76.6793L214.594 76.6489L213.822 77.2846ZM213.737 76.9426L214.717 77.1403L214.719 77.13L213.737 76.9426ZM204.215 28.2979L203.389 28.8616L203.389 28.8616L204.215 28.2979ZM169.827 3.37284L170.086 2.40697L170.084 2.40636L169.827 3.37284ZM128.576 5.88586L128.184 4.96592L128.182 4.96691L128.576 5.88586ZM91.4965 49.7867L90.5359 49.5085L90.5351 49.5116L91.4965 49.7867ZM91.1973 50.0859L91.4356 51.057L91.4541 51.0525L91.4724 51.0473L91.1973 50.0859ZM90.787 49.9833L90.0963 50.7064L90.1078 50.7174L90.1197 50.7281L90.787 49.9833ZM88.6928 47.9831L89.3835 47.26L89.3811 47.2577L88.6928 47.9831ZM84.8977 44.3247L84.1843 45.0255L84.1923 45.0337L84.2006 45.0417L84.8977 44.3247ZM64.6055 35.7087V34.7087L64.5968 36.7086L64.6055 35.7087ZM113.353 154.299H44.5783V156.299H113.353V154.299ZM44.5607 154.299C38.7498 154.402 32.9804 153.304 27.6132 151.075L26.846 152.922C32.4674 155.257 38.51 156.406 44.5959 156.299L44.5607 154.299ZM27.6132 151.075C22.246 148.845 17.3965 145.533 13.3681 141.344L11.9265 142.73C16.1457 147.117 21.2247 150.587 26.846 152.922L27.6132 151.075ZM13.3681 141.344C9.33973 137.155 6.21907 132.179 4.20133 126.729L2.32574 127.423C4.439 133.132 7.70742 138.343 11.9265 142.73L13.3681 141.344ZM4.20133 126.729C2.1836 121.279 1.31221 115.471 1.64166 109.669L-0.355121 109.555C-0.700176 115.632 0.212473 121.715 2.32574 127.423L4.20133 126.729ZM1.64218 109.658C2.06547 100.591 5.40144 91.9012 11.1549 84.8797L9.60792 83.6121C3.58178 90.9663 0.0877088 100.068 -0.355642 109.565L1.64218 109.658ZM11.1549 84.8797C16.9084 77.8582 24.7726 72.8791 33.5802 70.6816L33.096 68.7411C23.871 71.0428 15.634 76.2578 9.60792 83.6121L11.1549 84.8797ZM33.5823 70.681C34.772 70.3815 35.8695 70.0004 36.5741 69.1413C37.3035 68.2521 37.4386 67.0779 37.3446 65.6783L35.3491 65.8121C35.4347 67.0879 35.2536 67.5976 35.0277 67.873C34.7771 68.1785 34.2805 68.4428 33.0939 68.7416L33.5823 70.681ZM37.3446 65.677C36.5178 53.59 42.7529 43.0883 53.6457 38.2112L52.8284 36.3859C41.1555 41.6122 34.4664 52.907 35.3492 65.8134L37.3446 65.677ZM53.6452 38.2115C64.0667 33.5523 76.2958 35.9653 84.7985 44.4431L86.2106 43.0268C77.1564 33.999 64.0502 31.3689 52.8289 36.3856L53.6452 38.2115ZM84.8 44.4446C86.0048 45.6408 87.2081 46.7925 88.5936 48.1096L89.9716 46.66C88.5877 45.3444 87.3976 44.2053 86.2091 43.0253L84.8 44.4446ZM88.5953 48.1112L90.1852 49.6156L91.5598 48.1628L89.9699 46.6584L88.5953 48.1112ZM91.8313 49.1733C98.0038 28.342 110.372 13.8734 128.637 6.04424L127.849 4.20599C108.983 12.2926 96.2378 27.2622 89.9137 48.6051L91.8313 49.1733ZM128.638 6.04395C141.513 0.513925 155.317 -0.342303 169.722 3.52659L170.241 1.59504C155.43 -2.38283 141.163 -1.51243 127.848 4.20628L128.638 6.04395ZM169.722 3.52655C183.154 7.13646 195.695 16.2003 204.03 28.3921L205.681 27.2633C197.092 14.7011 184.161 5.33616 170.241 1.59508L169.722 3.52655ZM204.03 28.3913C210.672 38.1281 217.703 54.3354 213.617 76.4619L215.583 76.8251C219.788 54.0592 212.545 37.3238 205.682 27.2642L204.03 28.3913ZM214.537 77.6415C215.763 77.7192 216.987 77.7709 218.199 77.8221L218.284 75.8239C217.068 75.7725 215.865 75.7216 214.663 75.6455L214.537 77.6415ZM218.218 77.8227C221.181 77.8917 224.139 78.1201 227.077 78.5068L227.338 76.5239C224.328 76.1278 221.3 75.8939 218.265 75.8232L218.218 77.8227ZM227.06 78.5043C245.349 81.2395 259 97.6412 258.792 116.713L260.792 116.734C261.01 96.7087 246.676 79.4156 227.356 76.5263L227.06 78.5043ZM258.792 116.712C258.583 135.346 244.626 151.3 226.388 153.813L226.661 155.794C245.895 153.144 260.572 136.343 260.792 116.735L258.792 116.712ZM226.383 153.813C224.188 154.126 221.975 154.288 219.758 154.299L219.768 156.299C222.076 156.288 224.38 156.119 226.665 155.793L226.383 153.813ZM219.763 154.299C185.384 154.282 149.526 154.299 113.353 154.299V156.299C149.527 156.299 185.384 156.282 219.762 156.299L219.763 154.299ZM64.6319 34.7087C60.6919 34.7057 56.7963 35.5398 53.203 37.1558L54.0233 38.9799C57.3583 37.4801 60.9737 36.7059 64.6304 36.7087L64.6319 34.7087ZM53.2055 37.1547C41.8648 42.2186 35.3637 53.198 36.2297 65.7372L38.2249 65.5994C37.4156 53.8802 43.4625 43.6956 54.0209 38.9809L53.2055 37.1547ZM36.2296 65.736C36.3329 67.2576 36.0675 67.9947 35.6954 68.4305C35.2953 68.8991 34.598 69.2353 33.3264 69.5532L33.8114 71.4935C35.1383 71.1618 36.3813 70.7073 37.2164 69.7292C38.0794 68.7184 38.344 67.3526 38.225 65.6005L36.2296 65.736ZM33.3268 69.5531C24.2815 71.8105 16.2051 76.9241 10.2962 84.135L11.8431 85.4026C17.4794 78.5245 25.1832 73.6469 33.811 71.4936L33.3268 69.5531ZM10.2962 84.135C4.38719 91.3459 0.960552 100.27 0.524773 109.582L2.52259 109.676C2.93826 100.793 6.20678 92.2808 11.8431 85.4026L10.2962 84.135ZM0.525295 109.572C0.186057 115.534 1.08084 121.501 3.15366 127.102L5.02929 126.407C3.05201 121.065 2.19846 115.373 2.52206 109.686L0.525295 109.572ZM3.15366 127.102C5.22648 132.702 8.43272 137.814 12.5718 142.118L14.0134 140.731C10.0651 136.626 7.00658 131.749 5.02929 126.407L3.15366 127.102ZM12.5718 142.118C16.7108 146.422 21.6936 149.826 27.2084 152.116L27.9754 150.269C22.7148 148.084 17.9617 144.837 14.0134 140.731L12.5718 142.118ZM27.2084 152.116C32.7232 154.406 38.6512 155.533 44.6217 155.427L44.5862 153.427C38.8909 153.529 33.2361 152.453 27.9754 150.269L27.2084 152.116ZM44.6039 155.427C44.7191 155.427 44.8343 155.427 44.9495 155.427C45.0647 155.427 45.1799 155.427 45.2952 155.427C45.4104 155.427 45.5256 155.427 45.6408 155.427C45.756 155.427 45.8712 155.427 45.9865 155.427C46.1017 155.427 46.2169 155.427 46.3321 155.427C46.4474 155.427 46.5626 155.427 46.6779 155.427C46.7931 155.427 46.9083 155.427 47.0236 155.427C47.1388 155.427 47.2541 155.427 47.3694 155.427C47.4846 155.427 47.5999 155.427 47.7151 155.427C47.8304 155.427 47.9457 155.427 48.0609 155.427C48.1762 155.427 48.2915 155.427 48.4068 155.427C48.5221 155.427 48.6373 155.427 48.7526 155.427C48.8679 155.427 48.9832 155.427 49.0985 155.427C49.2138 155.427 49.3291 155.427 49.4444 155.427C49.5597 155.427 49.675 155.427 49.7903 155.427C49.9056 155.427 50.0209 155.427 50.1362 155.427C50.2516 155.427 50.3669 155.427 50.4822 155.427C50.5975 155.427 50.7129 155.427 50.8282 155.427C50.9435 155.427 51.0588 155.427 51.1742 155.427C51.2895 155.427 51.4049 155.427 51.5202 155.427C51.6356 155.427 51.7509 155.427 51.8663 155.427C51.9816 155.427 52.097 155.427 52.2123 155.427C52.3277 155.427 52.443 155.427 52.5584 155.427C52.6738 155.427 52.7891 155.427 52.9045 155.427C53.0199 155.427 53.1352 155.427 53.2506 155.427C53.366 155.427 53.4814 155.427 53.5968 155.427C53.7121 155.427 53.8275 155.427 53.9429 155.427C54.0583 155.427 54.1737 155.427 54.2891 155.427C54.4045 155.427 54.5199 155.427 54.6353 155.427C54.7507 155.427 54.8661 155.427 54.9815 155.427C55.0969 155.427 55.2123 155.427 55.3277 155.427C55.4432 155.427 55.5586 155.427 55.674 155.427C55.7894 155.427 55.9048 155.427 56.0203 155.427C56.1357 155.427 56.2511 155.427 56.3666 155.427C56.482 155.427 56.5974 155.427 56.7129 155.427C56.8283 155.427 56.9437 155.427 57.0592 155.427C57.1746 155.427 57.2901 155.427 57.4055 155.427C57.521 155.427 57.6364 155.427 57.7519 155.427C57.8673 155.427 57.9828 155.427 58.0983 155.427C58.2137 155.427 58.3292 155.427 58.4446 155.427C58.5601 155.427 58.6756 155.427 58.791 155.427C58.9065 155.427 59.022 155.427 59.1375 155.427C59.2529 155.427 59.3684 155.427 59.4839 155.427C59.5994 155.427 59.7149 155.427 59.8303 155.427C59.9458 155.427 60.0613 155.427 60.1768 155.427C60.2923 155.427 60.4078 155.427 60.5233 155.427C60.6388 155.427 60.7543 155.427 60.8698 155.427C60.9853 155.427 61.1008 155.427 61.2163 155.427C61.3318 155.427 61.4473 155.427 61.5628 155.427C61.6783 155.427 61.7938 155.427 61.9094 155.427C62.0249 155.427 62.1404 155.427 62.2559 155.427C62.3714 155.427 62.4869 155.427 62.6025 155.427C62.718 155.427 62.8335 155.427 62.9491 155.427C63.0646 155.427 63.1801 155.427 63.2956 155.427C63.4112 155.427 63.5267 155.427 63.6422 155.427C63.7578 155.427 63.8733 155.427 63.9889 155.427C64.1044 155.427 64.2199 155.427 64.3355 155.427C64.451 155.427 64.5666 155.427 64.6821 155.427C64.7977 155.427 64.9132 155.427 65.0288 155.427C65.1443 155.427 65.2599 155.427 65.3755 155.427C65.491 155.427 65.6066 155.427 65.7221 155.427C65.8377 155.427 65.9533 155.427 66.0688 155.427C66.1844 155.427 66.2999 155.427 66.4155 155.427C66.5311 155.427 66.6467 155.427 66.7622 155.427C66.8778 155.427 66.9934 155.427 67.1089 155.427C67.2245 155.427 67.3401 155.427 67.4557 155.427C67.5713 155.427 67.6868 155.427 67.8024 155.427C67.918 155.427 68.0336 155.427 68.1492 155.427C68.2648 155.427 68.3803 155.427 68.4959 155.427C68.6115 155.427 68.7271 155.427 68.8427 155.427C68.9583 155.427 69.0739 155.427 69.1895 155.427C69.3051 155.427 69.4207 155.427 69.5363 155.427C69.6519 155.427 69.7675 155.427 69.8831 155.427C69.9987 155.427 70.1143 155.427 70.2299 155.427C70.3455 155.427 70.4611 155.427 70.5767 155.427C70.6923 155.427 70.8079 155.427 70.9235 155.427C71.0391 155.427 71.1547 155.427 71.2703 155.427C71.386 155.427 71.5016 155.427 71.6172 155.427C71.7328 155.427 71.8484 155.427 71.964 155.427C72.0796 155.427 72.1953 155.427 72.3109 155.427C72.4265 155.427 72.5421 155.427 72.6577 155.427C72.7734 155.427 72.889 155.427 73.0046 155.427C73.1202 155.427 73.2359 155.427 73.3515 155.427C73.4671 155.427 73.5827 155.427 73.6984 155.427C73.814 155.427 73.9296 155.427 74.0452 155.427C74.1609 155.427 74.2765 155.427 74.3921 155.427C74.5078 155.427 74.6234 155.427 74.739 155.427C74.8547 155.427 74.9703 155.427 75.0859 155.427C75.2016 155.427 75.3172 155.427 75.4329 155.427C75.5485 155.427 75.6641 155.427 75.7798 155.427C75.8954 155.427 76.011 155.427 76.1267 155.427C76.2423 155.427 76.358 155.427 76.4736 155.427C76.5892 155.427 76.7049 155.427 76.8205 155.427C76.9362 155.427 77.0518 155.427 77.1675 155.427C77.2831 155.427 77.3988 155.427 77.5144 155.427C77.6301 155.427 77.7457 155.427 77.8613 155.427C77.977 155.427 78.0926 155.427 78.2083 155.427C78.3239 155.427 78.4396 155.427 78.5552 155.427C78.6709 155.427 78.7865 155.427 78.9022 155.427C79.0178 155.427 79.1335 155.427 79.2491 155.427C79.3648 155.427 79.4804 155.427 79.5961 155.427C79.7117 155.427 79.8274 155.427 79.9431 155.427C80.0587 155.427 80.1744 155.427 80.29 155.427C80.4057 155.427 80.5213 155.427 80.637 155.427C80.7526 155.427 80.8683 155.427 80.9839 155.427C81.0996 155.427 81.2152 155.427 81.3309 155.427C81.4466 155.427 81.5622 155.427 81.6779 155.427C81.7935 155.427 81.9092 155.427 82.0248 155.427C82.1405 155.427 82.2561 155.427 82.3718 155.427C82.4875 155.427 82.6031 155.427 82.7188 155.427C82.8344 155.427 82.9501 155.427 83.0657 155.427C83.1814 155.427 83.2971 155.427 83.4127 155.427C83.5284 155.427 83.644 155.427 83.7597 155.427C83.8753 155.427 83.991 155.427 84.1067 155.427C84.2223 155.427 84.338 155.427 84.4536 155.427C84.5693 155.427 84.6849 155.427 84.8006 155.427C84.9163 155.427 85.0319 155.427 85.1476 155.427C85.2632 155.427 85.3789 155.427 85.4945 155.427C85.6102 155.427 85.7258 155.427 85.8415 155.427C85.9571 155.427 86.0728 155.427 86.1885 155.427C86.3041 155.427 86.4198 155.427 86.5354 155.427C86.6511 155.427 86.7667 155.427 86.8824 155.427C86.998 155.427 87.1137 155.427 87.2293 155.427C87.345 155.427 87.4606 155.427 87.5763 155.427C87.6919 155.427 87.8076 155.427 87.9232 155.427C88.0389 155.427 88.1545 155.427 88.2702 155.427C88.3858 155.427 88.5015 155.427 88.6171 155.427C88.7328 155.427 88.8484 155.427 88.9641 155.427C89.0797 155.427 89.1954 155.427 89.311 155.427C89.4267 155.427 89.5423 155.427 89.658 155.427C89.7736 155.427 89.8892 155.427 90.0049 155.427C90.1205 155.427 90.2362 155.427 90.3518 155.427C90.4675 155.427 90.5831 155.427 90.6987 155.427C90.8144 155.427 90.93 155.427 91.0457 155.427C91.1613 155.427 91.2769 155.427 91.3926 155.427C91.5082 155.427 91.6238 155.427 91.7395 155.427C91.8551 155.427 91.9707 155.427 92.0864 155.427C92.202 155.427 92.3176 155.427 92.4333 155.427C92.5489 155.427 92.6645 155.427 92.7802 155.427C92.8958 155.427 93.0114 155.427 93.1271 155.427C93.2427 155.427 93.3583 155.427 93.4739 155.427C93.5896 155.427 93.7052 155.427 93.8208 155.427C93.9364 155.427 94.0521 155.427 94.1677 155.427C94.2833 155.427 94.3989 155.427 94.5145 155.427C94.6301 155.427 94.7458 155.427 94.8614 155.427C94.977 155.427 95.0926 155.427 95.2082 155.427C95.3238 155.427 95.4395 155.427 95.5551 155.427C95.6707 155.427 95.7863 155.427 95.9019 155.427C96.0175 155.427 96.1331 155.427 96.2487 155.427C96.3643 155.427 96.4799 155.427 96.5955 155.427C96.7111 155.427 96.8267 155.427 96.9423 155.427C97.0579 155.427 97.1735 155.427 97.2891 155.427C97.4047 155.427 97.5203 155.427 97.6359 155.427C97.7515 155.427 97.8671 155.427 97.9827 155.427C98.0983 155.427 98.2139 155.427 98.3295 155.427C98.4451 155.427 98.5606 155.427 98.6762 155.427C98.7918 155.427 98.9074 155.427 99.023 155.427C99.1386 155.427 99.2541 155.427 99.3697 155.427C99.4853 155.427 99.6009 155.427 99.7164 155.427C99.832 155.427 99.9476 155.427 100.063 155.427C100.179 155.427 100.294 155.427 100.41 155.427C100.525 155.427 100.641 155.427 100.757 155.427C100.872 155.427 100.988 155.427 101.103 155.427C101.219 155.427 101.334 155.427 101.45 155.427C101.565 155.427 101.681 155.427 101.797 155.427C101.912 155.427 102.028 155.427 102.143 155.427C102.259 155.427 102.374 155.427 102.49 155.427C102.605 155.427 102.721 155.427 102.837 155.427C102.952 155.427 103.068 155.427 103.183 155.427C103.299 155.427 103.414 155.427 103.53 155.427C103.645 155.427 103.761 155.427 103.876 155.427C103.992 155.427 104.107 155.427 104.223 155.427C104.338 155.427 104.454 155.427 104.569 155.427C104.685 155.427 104.8 155.427 104.916 155.427C105.032 155.427 105.147 155.427 105.263 155.427C105.378 155.427 105.494 155.427 105.609 155.427C105.725 155.427 105.84 155.427 105.956 155.427C106.071 155.427 106.187 155.427 106.302 155.427C106.418 155.427 106.533 155.427 106.649 155.427C106.764 155.427 106.88 155.427 106.995 155.427C107.11 155.427 107.226 155.427 107.341 155.427C107.457 155.427 107.572 155.427 107.688 155.427C107.803 155.427 107.919 155.427 108.034 155.427C108.15 155.427 108.265 155.427 108.381 155.427C108.496 155.427 108.612 155.427 108.727 155.427C108.843 155.427 108.958 155.427 109.073 155.427C109.189 155.427 109.304 155.427 109.42 155.427C109.535 155.427 109.651 155.427 109.766 155.427C109.882 155.427 109.997 155.427 110.112 155.427C110.228 155.427 110.343 155.427 110.459 155.427C110.574 155.427 110.69 155.427 110.805 155.427C110.92 155.427 111.036 155.427 111.151 155.427C111.267 155.427 111.382 155.427 111.498 155.427C111.613 155.427 111.728 155.427 111.844 155.427C111.959 155.427 112.075 155.427 112.19 155.427C112.305 155.427 112.421 155.427 112.536 155.427C112.652 155.427 112.767 155.427 112.882 155.427C112.998 155.427 113.113 155.427 113.229 155.427C113.344 155.427 113.459 155.427 113.575 155.427C113.69 155.427 113.805 155.427 113.921 155.427C114.036 155.427 114.152 155.427 114.267 155.427C114.382 155.427 114.498 155.427 114.613 155.427C114.728 155.427 114.844 155.427 114.959 155.427C115.074 155.427 115.19 155.427 115.305 155.427C115.42 155.427 115.536 155.427 115.651 155.427C115.766 155.427 115.882 155.427 115.997 155.427C116.112 155.427 116.228 155.427 116.343 155.427C116.458 155.427 116.574 155.427 116.689 155.427C116.804 155.427 116.92 155.427 117.035 155.427C117.15 155.427 117.266 155.427 117.381 155.427C117.496 155.427 117.611 155.427 117.727 155.427C117.842 155.427 117.957 155.427 118.073 155.427C118.188 155.427 118.303 155.427 118.418 155.427C118.534 155.427 118.649 155.427 118.764 155.427C118.88 155.427 118.995 155.427 119.11 155.427C119.225 155.427 119.341 155.427 119.456 155.427C119.571 155.427 119.686 155.427 119.802 155.427C119.917 155.427 120.032 155.427 120.147 155.427C120.263 155.427 120.378 155.427 120.493 155.427C120.608 155.427 120.724 155.427 120.839 155.427C120.954 155.427 121.069 155.427 121.184 155.427C121.3 155.427 121.415 155.427 121.53 155.427C121.645 155.427 121.76 155.427 121.876 155.427C121.991 155.427 122.106 155.427 122.221 155.427C122.336 155.427 122.452 155.427 122.567 155.427C122.682 155.427 122.797 155.427 122.912 155.427C123.028 155.427 123.143 155.427 123.258 155.427C123.373 155.427 123.488 155.427 123.603 155.427C123.719 155.427 123.834 155.427 123.949 155.427C124.064 155.427 124.179 155.427 124.294 155.427C124.409 155.427 124.525 155.427 124.64 155.427C124.755 155.427 124.87 155.427 124.985 155.427C125.1 155.427 125.215 155.427 125.33 155.427C125.446 155.427 125.561 155.427 125.676 155.427C125.791 155.427 125.906 155.427 126.021 155.427C126.136 155.427 126.251 155.427 126.366 155.427C126.481 155.427 126.596 155.427 126.712 155.427C126.827 155.427 126.942 155.427 127.057 155.427C127.172 155.427 127.287 155.427 127.402 155.427C127.517 155.427 127.632 155.427 127.747 155.427C127.862 155.427 127.977 155.427 128.092 155.427C128.207 155.427 128.322 155.427 128.437 155.427C128.552 155.427 128.667 155.427 128.782 155.427C128.897 155.427 129.012 155.427 129.128 155.427C129.243 155.427 129.358 155.427 129.473 155.427C129.588 155.427 129.703 155.427 129.818 155.427C129.932 155.427 130.047 155.427 130.162 155.427C130.277 155.427 130.392 155.427 130.507 155.427C130.622 155.427 130.737 155.427 130.852 155.427C130.967 155.427 131.082 155.427 131.197 155.427C131.312 155.427 131.427 155.427 131.542 155.427C131.657 155.427 131.772 155.427 131.887 155.427C132.002 155.427 132.117 155.427 132.232 155.427C132.347 155.427 132.461 155.427 132.576 155.427C132.691 155.427 132.806 155.427 132.921 155.427C133.036 155.427 133.151 155.427 133.266 155.427C133.381 155.427 133.495 155.427 133.61 155.427C133.725 155.427 133.84 155.427 133.955 155.427C134.07 155.427 134.185 155.427 134.3 155.427C134.414 155.427 134.529 155.427 134.644 155.427C134.759 155.427 134.874 155.427 134.989 155.427C135.103 155.427 135.218 155.427 135.333 155.427C135.448 155.427 135.563 155.427 135.678 155.427C135.792 155.427 135.907 155.427 136.022 155.427C136.137 155.427 136.252 155.427 136.366 155.427C136.481 155.427 136.596 155.427 136.711 155.427C136.826 155.427 136.94 155.427 137.055 155.427C137.17 155.427 137.285 155.427 137.399 155.427C137.514 155.427 137.629 155.427 137.744 155.427C137.858 155.427 137.973 155.427 138.088 155.427C138.203 155.427 138.317 155.427 138.432 155.427C138.547 155.427 138.661 155.427 138.776 155.427C138.891 155.427 139.006 155.427 139.12 155.427C139.235 155.427 139.35 155.427 139.464 155.427C139.579 155.427 139.694 155.427 139.808 155.427C139.923 155.427 140.038 155.427 140.152 155.427C140.267 155.427 140.382 155.427 140.496 155.427C140.611 155.427 140.726 155.427 140.84 155.427C140.955 155.427 141.07 155.427 141.184 155.427C141.299 155.427 141.413 155.427 141.528 155.427C141.643 155.427 141.757 155.427 141.872 155.427C141.986 155.427 142.101 155.427 142.216 155.427C142.33 155.427 142.445 155.427 142.559 155.427C142.674 155.427 142.788 155.427 142.903 155.427C143.018 155.427 143.132 155.427 143.247 155.427C143.361 155.427 143.476 155.427 143.59 155.427C143.705 155.427 143.819 155.427 143.934 155.427C144.048 155.427 144.163 155.427 144.277 155.427C144.392 155.427 144.506 155.427 144.621 155.427C144.735 155.427 144.85 155.427 144.964 155.427C145.079 155.427 145.193 155.427 145.308 155.427C145.422 155.427 145.537 155.427 145.651 155.427C145.766 155.427 145.88 155.427 145.995 155.427C146.109 155.427 146.223 155.427 146.338 155.427C146.452 155.427 146.567 155.427 146.681 155.427C146.796 155.427 146.91 155.427 147.024 155.427C147.139 155.427 147.253 155.427 147.368 155.427C147.482 155.427 147.596 155.427 147.711 155.427C147.825 155.427 147.939 155.427 148.054 155.427C148.168 155.427 148.283 155.427 148.397 155.427C148.511 155.427 148.626 155.427 148.74 155.427C148.854 155.427 148.969 155.427 149.083 155.427C149.197 155.427 149.312 155.427 149.426 155.427C149.54 155.427 149.654 155.427 149.769 155.427C149.883 155.427 149.997 155.427 150.112 155.427C150.226 155.427 150.34 155.427 150.454 155.427C150.569 155.427 150.683 155.427 150.797 155.427C150.911 155.427 151.026 155.427 151.14 155.427C151.254 155.427 151.368 155.427 151.483 155.427C151.597 155.427 151.711 155.427 151.825 155.427C151.939 155.427 152.054 155.427 152.168 155.427C152.282 155.427 152.396 155.427 152.51 155.427C152.625 155.427 152.739 155.427 152.853 155.427C152.967 155.427 153.081 155.427 153.195 155.427C153.309 155.427 153.424 155.427 153.538 155.427C153.652 155.427 153.766 155.427 153.88 155.427C153.994 155.427 154.108 155.427 154.222 155.427C154.337 155.427 154.451 155.427 154.565 155.427C154.679 155.427 154.793 155.427 154.907 155.427C155.021 155.427 155.135 155.427 155.249 155.427C155.363 155.427 155.477 155.427 155.591 155.427C155.705 155.427 155.819 155.427 155.933 155.427C156.047 155.427 156.161 155.427 156.275 155.427C156.389 155.427 156.503 155.427 156.617 155.427C156.731 155.427 156.845 155.427 156.959 155.427C157.073 155.427 157.187 155.427 157.301 155.427C157.415 155.427 157.529 155.427 157.643 155.427C157.757 155.427 157.871 155.427 157.985 155.427C158.099 155.427 158.213 155.427 158.327 155.427C158.441 155.427 158.555 155.427 158.668 155.427C158.782 155.427 158.896 155.427 159.01 155.427C159.124 155.427 159.238 155.427 159.352 155.427C159.466 155.427 159.579 155.427 159.693 155.427C159.807 155.427 159.921 155.427 160.035 155.427C160.149 155.427 160.262 155.427 160.376 155.427C160.49 155.427 160.604 155.427 160.718 155.427C160.831 155.427 160.945 155.427 161.059 155.427C161.173 155.427 161.287 155.427 161.4 155.427C161.514 155.427 161.628 155.427 161.742 155.427C161.855 155.427 161.969 155.427 162.083 155.427C162.197 155.427 162.31 155.427 162.424 155.427C162.538 155.427 162.651 155.427 162.765 155.427C162.879 155.427 162.993 155.427 163.106 155.427C163.22 155.427 163.334 155.427 163.447 155.427C163.561 155.427 163.675 155.427 163.788 155.427C163.902 155.427 164.015 155.427 164.129 155.427C164.243 155.427 164.356 155.427 164.47 155.427C164.584 155.427 164.697 155.427 164.811 155.427C164.924 155.427 165.038 155.427 165.152 155.427C165.265 155.427 165.379 155.427 165.492 155.427C165.606 155.427 165.719 155.427 165.833 155.427C165.946 155.427 166.06 155.427 166.173 155.427C166.287 155.427 166.401 155.427 166.514 155.427C166.628 155.427 166.741 155.427 166.855 155.427C166.968 155.427 167.081 155.427 167.195 155.427C167.308 155.427 167.422 155.427 167.535 155.427C167.649 155.427 167.762 155.427 167.876 155.427C167.989 155.427 168.103 155.427 168.216 155.427C168.329 155.427 168.443 155.427 168.556 155.427C168.67 155.427 168.783 155.427 168.896 155.427C169.01 155.427 169.123 155.427 169.236 155.427C169.35 155.427 169.463 155.427 169.577 155.427C169.69 155.427 169.803 155.427 169.917 155.427C170.03 155.427 170.143 155.427 170.256 155.427C170.37 155.427 170.483 155.427 170.596 155.427C170.71 155.427 170.823 155.427 170.936 155.427C171.049 155.427 171.163 155.427 171.276 155.427C171.389 155.427 171.502 155.427 171.616 155.427C171.729 155.427 171.842 155.427 171.955 155.427C172.069 155.427 172.182 155.427 172.295 155.427C172.408 155.427 172.521 155.427 172.634 155.427C172.748 155.427 172.861 155.427 172.974 155.427C173.087 155.427 173.2 155.427 173.313 155.427C173.427 155.427 173.54 155.427 173.653 155.427C173.766 155.427 173.879 155.427 173.992 155.427C174.105 155.427 174.218 155.427 174.331 155.427C174.444 155.427 174.557 155.427 174.671 155.427C174.784 155.427 174.897 155.427 175.01 155.427C175.123 155.427 175.236 155.427 175.349 155.427C175.462 155.427 175.575 155.427 175.688 155.427C175.801 155.427 175.914 155.427 176.027 155.427C176.14 155.427 176.253 155.427 176.366 155.427C176.479 155.427 176.592 155.427 176.704 155.427C176.817 155.427 176.93 155.427 177.043 155.427C177.156 155.427 177.269 155.427 177.382 155.427C177.495 155.427 177.608 155.427 177.721 155.427C177.834 155.427 177.946 155.427 178.059 155.427C178.172 155.427 178.285 155.427 178.398 155.427C178.511 155.427 178.623 155.427 178.736 155.427C178.849 155.427 178.962 155.427 179.075 155.427C179.188 155.427 179.3 155.427 179.413 155.427C179.526 155.427 179.639 155.427 179.751 155.427C179.864 155.427 179.977 155.427 180.09 155.427C180.202 155.427 180.315 155.427 180.428 155.427C180.54 155.427 180.653 155.427 180.766 155.427C180.879 155.427 180.991 155.427 181.104 155.427C181.217 155.427 181.329 155.427 181.442 155.427C181.555 155.427 181.667 155.427 181.78 155.427C181.892 155.427 182.005 155.427 182.118 155.427C182.23 155.427 182.343 155.427 182.455 155.427C182.568 155.427 182.681 155.427 182.793 155.427C182.906 155.427 183.018 155.427 183.131 155.427C183.243 155.427 183.356 155.427 183.468 155.427C183.581 155.427 183.693 155.427 183.806 155.427C183.918 155.427 184.031 155.427 184.143 155.427C184.256 155.427 184.368 155.427 184.481 155.427C184.593 155.427 184.706 155.427 184.818 155.427C184.931 155.427 185.043 155.427 185.155 155.427C185.268 155.427 185.38 155.427 185.493 155.427C185.605 155.427 185.717 155.427 185.83 155.427C185.942 155.427 186.055 155.427 186.167 155.427C186.279 155.427 186.392 155.427 186.504 155.427C186.616 155.427 186.729 155.427 186.841 155.427C186.953 155.427 187.065 155.427 187.178 155.427C187.29 155.427 187.402 155.427 187.514 155.427C187.627 155.427 187.739 155.427 187.851 155.427C187.963 155.427 188.076 155.427 188.188 155.427C188.3 155.427 188.412 155.427 188.525 155.427C188.637 155.427 188.749 155.427 188.861 155.427C188.973 155.427 189.085 155.427 189.198 155.427C189.31 155.427 189.422 155.427 189.534 155.427C189.646 155.427 189.758 155.427 189.87 155.427C189.982 155.427 190.094 155.427 190.207 155.427C190.319 155.427 190.431 155.427 190.543 155.427C190.655 155.427 190.767 155.427 190.879 155.427C190.991 155.427 191.103 155.427 191.215 155.427C191.327 155.427 191.439 155.427 191.551 155.427C191.663 155.427 191.775 155.427 191.887 155.427C191.999 155.427 192.111 155.427 192.223 155.427C192.335 155.427 192.446 155.427 192.558 155.427C192.67 155.427 192.782 155.427 192.894 155.427C193.006 155.427 193.118 155.427 193.23 155.427C193.342 155.427 193.453 155.427 193.565 155.427C193.677 155.427 193.789 155.427 193.901 155.427C194.013 155.427 194.124 155.427 194.236 155.427C194.348 155.427 194.46 155.427 194.572 155.427C194.683 155.427 194.795 155.427 194.907 155.427C195.019 155.427 195.13 155.427 195.242 155.427C195.354 155.427 195.465 155.427 195.577 155.427C195.689 155.427 195.801 155.427 195.912 155.427C196.024 155.427 196.136 155.427 196.247 155.427C196.359 155.427 196.47 155.427 196.582 155.427C196.694 155.427 196.805 155.427 196.917 155.427C197.029 155.427 197.14 155.427 197.252 155.427C197.363 155.427 197.475 155.427 197.586 155.427C197.698 155.427 197.81 155.427 197.921 155.427C198.033 155.427 198.144 155.427 198.256 155.427C198.367 155.427 198.479 155.427 198.59 155.427C198.702 155.427 198.813 155.427 198.924 155.427C199.036 155.427 199.147 155.427 199.259 155.427C199.37 155.427 199.482 155.427 199.593 155.427C199.704 155.427 199.816 155.427 199.927 155.427C200.039 155.427 200.15 155.427 200.261 155.427C200.373 155.427 200.484 155.427 200.595 155.427C200.707 155.427 200.818 155.427 200.929 155.427C201.041 155.427 201.152 155.427 201.263 155.427C201.374 155.427 201.486 155.427 201.597 155.427C201.708 155.427 201.819 155.427 201.931 155.427C202.042 155.427 202.153 155.427 202.264 155.427C202.375 155.427 202.487 155.427 202.598 155.427C202.709 155.427 202.82 155.427 202.931 155.427C203.042 155.427 203.154 155.427 203.265 155.427C203.376 155.427 203.487 155.427 203.598 155.427C203.709 155.427 203.82 155.427 203.931 155.427C204.042 155.427 204.153 155.427 204.264 155.427C204.375 155.427 204.486 155.427 204.598 155.427C204.709 155.427 204.82 155.427 204.931 155.427C205.042 155.427 205.152 155.427 205.263 155.427C205.374 155.427 205.485 155.427 205.596 155.427C205.707 155.427 205.818 155.427 205.929 155.427C206.04 155.427 206.151 155.427 206.262 155.427C206.373 155.427 206.484 155.427 206.594 155.427C206.705 155.427 206.816 155.427 206.927 155.427C207.038 155.427 207.149 155.427 207.259 155.427C207.37 155.427 207.481 155.427 207.592 155.427C207.703 155.427 207.813 155.427 207.924 155.427C208.035 155.427 208.146 155.427 208.256 155.427C208.367 155.427 208.478 155.427 208.588 155.427C208.699 155.427 208.81 155.427 208.92 155.427C209.031 155.427 209.142 155.427 209.252 155.427C209.363 155.427 209.474 155.427 209.584 155.427C209.695 155.427 209.806 155.427 209.916 155.427C210.027 155.427 210.137 155.427 210.248 155.427C210.358 155.427 210.469 155.427 210.58 155.427C210.69 155.427 210.801 155.427 210.911 155.427C211.022 155.427 211.132 155.427 211.243 155.427C211.353 155.427 211.464 155.427 211.574 155.427C211.684 155.427 211.795 155.427 211.905 155.427C212.016 155.427 212.126 155.427 212.236 155.427C212.347 155.427 212.457 155.427 212.568 155.427C212.678 155.427 212.788 155.427 212.899 155.427C213.009 155.427 213.119 155.427 213.23 155.427C213.34 155.427 213.45 155.427 213.561 155.427C213.671 155.427 213.781 155.427 213.891 155.427C214.002 155.427 214.112 155.427 214.222 155.427C214.332 155.427 214.443 155.427 214.553 155.427C214.663 155.427 214.773 155.427 214.883 155.427C214.993 155.427 215.104 155.427 215.214 155.427C215.324 155.427 215.434 155.427 215.544 155.427C215.654 155.427 215.764 155.427 215.874 155.427C215.985 155.427 216.095 155.427 216.205 155.427C216.315 155.427 216.425 155.427 216.535 155.427C216.645 155.427 216.755 155.427 216.865 155.427C216.975 155.427 217.085 155.427 217.195 155.427C217.305 155.427 217.415 155.427 217.525 155.427C217.635 155.427 217.744 155.427 217.854 155.427C217.964 155.427 218.074 155.427 218.184 155.427C218.294 155.427 218.404 155.427 218.514 155.427C218.624 155.427 218.733 155.427 218.843 155.427C218.953 155.427 219.063 155.427 219.173 155.427C219.282 155.427 219.392 155.427 219.502 155.427C219.612 155.427 219.721 155.427 219.831 155.427V153.427C219.721 153.427 219.612 153.427 219.502 153.427C219.392 153.427 219.282 153.427 219.173 153.427C219.063 153.427 218.953 153.427 218.843 153.427C218.733 153.427 218.624 153.427 218.514 153.427C218.404 153.427 218.294 153.427 218.184 153.427C218.074 153.427 217.964 153.427 217.854 153.427C217.744 153.427 217.635 153.427 217.525 153.427C217.415 153.427 217.305 153.427 217.195 153.427C217.085 153.427 216.975 153.427 216.865 153.427C216.755 153.427 216.645 153.427 216.535 153.427C216.425 153.427 216.315 153.427 216.205 153.427C216.095 153.427 215.985 153.427 215.874 153.427C215.764 153.427 215.654 153.427 215.544 153.427C215.434 153.427 215.324 153.427 215.214 153.427C215.104 153.427 214.993 153.427 214.883 153.427C214.773 153.427 214.663 153.427 214.553 153.427C214.443 153.427 214.332 153.427 214.222 153.427C214.112 153.427 214.002 153.427 213.891 153.427C213.781 153.427 213.671 153.427 213.561 153.427C213.45 153.427 213.34 153.427 213.23 153.427C213.119 153.427 213.009 153.427 212.899 153.427C212.788 153.427 212.678 153.427 212.568 153.427C212.457 153.427 212.347 153.427 212.236 153.427C212.126 153.427 212.016 153.427 211.905 153.427C211.795 153.427 211.684 153.427 211.574 153.427C211.464 153.427 211.353 153.427 211.243 153.427C211.132 153.427 211.022 153.427 210.911 153.427C210.801 153.427 210.69 153.427 210.58 153.427C210.469 153.427 210.358 153.427 210.248 153.427C210.137 153.427 210.027 153.427 209.916 153.427C209.806 153.427 209.695 153.427 209.584 153.427C209.474 153.427 209.363 153.427 209.252 153.427C209.142 153.427 209.031 153.427 208.92 153.427C208.81 153.427 208.699 153.427 208.588 153.427C208.478 153.427 208.367 153.427 208.256 153.427C208.146 153.427 208.035 153.427 207.924 153.427C207.813 153.427 207.703 153.427 207.592 153.427C207.481 153.427 207.37 153.427 207.259 153.427C207.149 153.427 207.038 153.427 206.927 153.427C206.816 153.427 206.705 153.427 206.594 153.427C206.484 153.427 206.373 153.427 206.262 153.427C206.151 153.427 206.04 153.427 205.929 153.427C205.818 153.427 205.707 153.427 205.596 153.427C205.485 153.427 205.374 153.427 205.263 153.427C205.152 153.427 205.042 153.427 204.931 153.427C204.82 153.427 204.709 153.427 204.598 153.427C204.486 153.427 204.375 153.427 204.264 153.427C204.153 153.427 204.042 153.427 203.931 153.427C203.82 153.427 203.709 153.427 203.598 153.427C203.487 153.427 203.376 153.427 203.265 153.427C203.154 153.427 203.042 153.427 202.931 153.427C202.82 153.427 202.709 153.427 202.598 153.427C202.487 153.427 202.375 153.427 202.264 153.427C202.153 153.427 202.042 153.427 201.931 153.427C201.819 153.427 201.708 153.427 201.597 153.427C201.486 153.427 201.374 153.427 201.263 153.427C201.152 153.427 201.041 153.427 200.929 153.427C200.818 153.427 200.707 153.427 200.595 153.427C200.484 153.427 200.373 153.427 200.261 153.427C200.15 153.427 200.039 153.427 199.927 153.427C199.816 153.427 199.704 153.427 199.593 153.427C199.482 153.427 199.37 153.427 199.259 153.427C199.147 153.427 199.036 153.427 198.924 153.427C198.813 153.427 198.702 153.427 198.59 153.427C198.479 153.427 198.367 153.427 198.256 153.427C198.144 153.427 198.033 153.427 197.921 153.427C197.81 153.427 197.698 153.427 197.586 153.427C197.475 153.427 197.363 153.427 197.252 153.427C197.14 153.427 197.029 153.427 196.917 153.427C196.805 153.427 196.694 153.427 196.582 153.427C196.47 153.427 196.359 153.427 196.247 153.427C196.136 153.427 196.024 153.427 195.912 153.427C195.801 153.427 195.689 153.427 195.577 153.427C195.465 153.427 195.354 153.427 195.242 153.427C195.13 153.427 195.019 153.427 194.907 153.427C194.795 153.427 194.683 153.427 194.572 153.427C194.46 153.427 194.348 153.427 194.236 153.427C194.124 153.427 194.013 153.427 193.901 153.427C193.789 153.427 193.677 153.427 193.565 153.427C193.453 153.427 193.342 153.427 193.23 153.427C193.118 153.427 193.006 153.427 192.894 153.427C192.782 153.427 192.67 153.427 192.558 153.427C192.446 153.427 192.335 153.427 192.223 153.427C192.111 153.427 191.999 153.427 191.887 153.427C191.775 153.427 191.663 153.427 191.551 153.427C191.439 153.427 191.327 153.427 191.215 153.427C191.103 153.427 190.991 153.427 190.879 153.427C190.767 153.427 190.655 153.427 190.543 153.427C190.431 153.427 190.319 153.427 190.207 153.427C190.094 153.427 189.982 153.427 189.87 153.427C189.758 153.427 189.646 153.427 189.534 153.427C189.422 153.427 189.31 153.427 189.198 153.427C189.085 153.427 188.973 153.427 188.861 153.427C188.749 153.427 188.637 153.427 188.525 153.427C188.412 153.427 188.3 153.427 188.188 153.427C188.076 153.427 187.963 153.427 187.851 153.427C187.739 153.427 187.627 153.427 187.514 153.427C187.402 153.427 187.29 153.427 187.178 153.427C187.065 153.427 186.953 153.427 186.841 153.427C186.729 153.427 186.616 153.427 186.504 153.427C186.392 153.427 186.279 153.427 186.167 153.427C186.055 153.427 185.942 153.427 185.83 153.427C185.717 153.427 185.605 153.427 185.493 153.427C185.38 153.427 185.268 153.427 185.155 153.427C185.043 153.427 184.931 153.427 184.818 153.427C184.706 153.427 184.593 153.427 184.481 153.427C184.368 153.427 184.256 153.427 184.143 153.427C184.031 153.427 183.918 153.427 183.806 153.427C183.693 153.427 183.581 153.427 183.468 153.427C183.356 153.427 183.243 153.427 183.131 153.427C183.018 153.427 182.906 153.427 182.793 153.427C182.681 153.427 182.568 153.427 182.455 153.427C182.343 153.427 182.23 153.427 182.118 153.427C182.005 153.427 181.892 153.427 181.78 153.427C181.667 153.427 181.555 153.427 181.442 153.427C181.329 153.427 181.217 153.427 181.104 153.427C180.991 153.427 180.879 153.427 180.766 153.427C180.653 153.427 180.54 153.427 180.428 153.427C180.315 153.427 180.202 153.427 180.09 153.427C179.977 153.427 179.864 153.427 179.751 153.427C179.639 153.427 179.526 153.427 179.413 153.427C179.3 153.427 179.188 153.427 179.075 153.427C178.962 153.427 178.849 153.427 178.736 153.427C178.623 153.427 178.511 153.427 178.398 153.427C178.285 153.427 178.172 153.427 178.059 153.427C177.946 153.427 177.834 153.427 177.721 153.427C177.608 153.427 177.495 153.427 177.382 153.427C177.269 153.427 177.156 153.427 177.043 153.427C176.93 153.427 176.817 153.427 176.704 153.427C176.592 153.427 176.479 153.427 176.366 153.427C176.253 153.427 176.14 153.427 176.027 153.427C175.914 153.427 175.801 153.427 175.688 153.427C175.575 153.427 175.462 153.427 175.349 153.427C175.236 153.427 175.123 153.427 175.01 153.427C174.897 153.427 174.784 153.427 174.671 153.427C174.557 153.427 174.444 153.427 174.331 153.427C174.218 153.427 174.105 153.427 173.992 153.427C173.879 153.427 173.766 153.427 173.653 153.427C173.54 153.427 173.427 153.427 173.313 153.427C173.2 153.427 173.087 153.427 172.974 153.427C172.861 153.427 172.748 153.427 172.634 153.427C172.521 153.427 172.408 153.427 172.295 153.427C172.182 153.427 172.069 153.427 171.955 153.427C171.842 153.427 171.729 153.427 171.616 153.427C171.502 153.427 171.389 153.427 171.276 153.427C171.163 153.427 171.049 153.427 170.936 153.427C170.823 153.427 170.71 153.427 170.596 153.427C170.483 153.427 170.37 153.427 170.256 153.427C170.143 153.427 170.03 153.427 169.917 153.427C169.803 153.427 169.69 153.427 169.577 153.427C169.463 153.427 169.35 153.427 169.236 153.427C169.123 153.427 169.01 153.427 168.896 153.427C168.783 153.427 168.67 153.427 168.556 153.427C168.443 153.427 168.329 153.427 168.216 153.427C168.103 153.427 167.989 153.427 167.876 153.427C167.762 153.427 167.649 153.427 167.535 153.427C167.422 153.427 167.308 153.427 167.195 153.427C167.081 153.427 166.968 153.427 166.855 153.427C166.741 153.427 166.628 153.427 166.514 153.427C166.401 153.427 166.287 153.427 166.173 153.427C166.06 153.427 165.946 153.427 165.833 153.427C165.719 153.427 165.606 153.427 165.492 153.427C165.379 153.427 165.265 153.427 165.152 153.427C165.038 153.427 164.924 153.427 164.811 153.427C164.697 153.427 164.584 153.427 164.47 153.427C164.356 153.427 164.243 153.427 164.129 153.427C164.015 153.427 163.902 153.427 163.788 153.427C163.675 153.427 163.561 153.427 163.447 153.427C163.334 153.427 163.22 153.427 163.106 153.427C162.993 153.427 162.879 153.427 162.765 153.427C162.651 153.427 162.538 153.427 162.424 153.427C162.31 153.427 162.197 153.427 162.083 153.427C161.969 153.427 161.855 153.427 161.742 153.427C161.628 153.427 161.514 153.427 161.4 153.427C161.287 153.427 161.173 153.427 161.059 153.427C160.945 153.427 160.831 153.427 160.718 153.427C160.604 153.427 160.49 153.427 160.376 153.427C160.262 153.427 160.149 153.427 160.035 153.427C159.921 153.427 159.807 153.427 159.693 153.427C159.579 153.427 159.466 153.427 159.352 153.427C159.238 153.427 159.124 153.427 159.01 153.427C158.896 153.427 158.782 153.427 158.668 153.427C158.555 153.427 158.441 153.427 158.327 153.427C158.213 153.427 158.099 153.427 157.985 153.427C157.871 153.427 157.757 153.427 157.643 153.427C157.529 153.427 157.415 153.427 157.301 153.427C157.187 153.427 157.073 153.427 156.959 153.427C156.845 153.427 156.731 153.427 156.617 153.427C156.503 153.427 156.389 153.427 156.275 153.427C156.161 153.427 156.047 153.427 155.933 153.427C155.819 153.427 155.705 153.427 155.591 153.427C155.477 153.427 155.363 153.427 155.249 153.427C155.135 153.427 155.021 153.427 154.907 153.427C154.793 153.427 154.679 153.427 154.565 153.427C154.451 153.427 154.337 153.427 154.222 153.427C154.108 153.427 153.994 153.427 153.88 153.427C153.766 153.427 153.652 153.427 153.538 153.427C153.424 153.427 153.309 153.427 153.195 153.427C153.081 153.427 152.967 153.427 152.853 153.427C152.739 153.427 152.625 153.427 152.51 153.427C152.396 153.427 152.282 153.427 152.168 153.427C152.054 153.427 151.939 153.427 151.825 153.427C151.711 153.427 151.597 153.427 151.483 153.427C151.368 153.427 151.254 153.427 151.14 153.427C151.026 153.427 150.911 153.427 150.797 153.427C150.683 153.427 150.569 153.427 150.454 153.427C150.34 153.427 150.226 153.427 150.112 153.427C149.997 153.427 149.883 153.427 149.769 153.427C149.654 153.427 149.54 153.427 149.426 153.427C149.312 153.427 149.197 153.427 149.083 153.427C148.969 153.427 148.854 153.427 148.74 153.427C148.626 153.427 148.511 153.427 148.397 153.427C148.283 153.427 148.168 153.427 148.054 153.427C147.939 153.427 147.825 153.427 147.711 153.427C147.596 153.427 147.482 153.427 147.368 153.427C147.253 153.427 147.139 153.427 147.024 153.427C146.91 153.427 146.796 153.427 146.681 153.427C146.567 153.427 146.452 153.427 146.338 153.427C146.223 153.427 146.109 153.427 145.995 153.427C145.88 153.427 145.766 153.427 145.651 153.427C145.537 153.427 145.422 153.427 145.308 153.427C145.193 153.427 145.079 153.427 144.964 153.427C144.85 153.427 144.735 153.427 144.621 153.427C144.506 153.427 144.392 153.427 144.277 153.427C144.163 153.427 144.048 153.427 143.934 153.427C143.819 153.427 143.705 153.427 143.59 153.427C143.476 153.427 143.361 153.427 143.247 153.427C143.132 153.427 143.018 153.427 142.903 153.427C142.788 153.427 142.674 153.427 142.559 153.427C142.445 153.427 142.33 153.427 142.216 153.427C142.101 153.427 141.986 153.427 141.872 153.427C141.757 153.427 141.643 153.427 141.528 153.427C141.413 153.427 141.299 153.427 141.184 153.427C141.07 153.427 140.955 153.427 140.84 153.427C140.726 153.427 140.611 153.427 140.496 153.427C140.382 153.427 140.267 153.427 140.152 153.427C140.038 153.427 139.923 153.427 139.808 153.427C139.694 153.427 139.579 153.427 139.464 153.427C139.35 153.427 139.235 153.427 139.12 153.427C139.006 153.427 138.891 153.427 138.776 153.427C138.661 153.427 138.547 153.427 138.432 153.427C138.317 153.427 138.203 153.427 138.088 153.427C137.973 153.427 137.858 153.427 137.744 153.427C137.629 153.427 137.514 153.427 137.399 153.427C137.285 153.427 137.17 153.427 137.055 153.427C136.94 153.427 136.826 153.427 136.711 153.427C136.596 153.427 136.481 153.427 136.366 153.427C136.252 153.427 136.137 153.427 136.022 153.427C135.907 153.427 135.792 153.427 135.678 153.427C135.563 153.427 135.448 153.427 135.333 153.427C135.218 153.427 135.103 153.427 134.989 153.427C134.874 153.427 134.759 153.427 134.644 153.427C134.529 153.427 134.414 153.427 134.3 153.427C134.185 153.427 134.07 153.427 133.955 153.427C133.84 153.427 133.725 153.427 133.61 153.427C133.495 153.427 133.381 153.427 133.266 153.427C133.151 153.427 133.036 153.427 132.921 153.427C132.806 153.427 132.691 153.427 132.576 153.427C132.461 153.427 132.347 153.427 132.232 153.427C132.117 153.427 132.002 153.427 131.887 153.427C131.772 153.427 131.657 153.427 131.542 153.427C131.427 153.427 131.312 153.427 131.197 153.427C131.082 153.427 130.967 153.427 130.852 153.427C130.737 153.427 130.622 153.427 130.507 153.427C130.392 153.427 130.277 153.427 130.162 153.427C130.047 153.427 129.932 153.427 129.818 153.427C129.703 153.427 129.588 153.427 129.473 153.427C129.358 153.427 129.243 153.427 129.128 153.427C129.012 153.427 128.897 153.427 128.782 153.427C128.667 153.427 128.552 153.427 128.437 153.427C128.322 153.427 128.207 153.427 128.092 153.427C127.977 153.427 127.862 153.427 127.747 153.427C127.632 153.427 127.517 153.427 127.402 153.427C127.287 153.427 127.172 153.427 127.057 153.427C126.942 153.427 126.827 153.427 126.712 153.427C126.596 153.427 126.481 153.427 126.366 153.427C126.251 153.427 126.136 153.427 126.021 153.427C125.906 153.427 125.791 153.427 125.676 153.427C125.561 153.427 125.446 153.427 125.33 153.427C125.215 153.427 125.1 153.427 124.985 153.427C124.87 153.427 124.755 153.427 124.64 153.427C124.525 153.427 124.409 153.427 124.294 153.427C124.179 153.427 124.064 153.427 123.949 153.427C123.834 153.427 123.719 153.427 123.603 153.427C123.488 153.427 123.373 153.427 123.258 153.427C123.143 153.427 123.028 153.427 122.912 153.427C122.797 153.427 122.682 153.427 122.567 153.427C122.452 153.427 122.336 153.427 122.221 153.427C122.106 153.427 121.991 153.427 121.876 153.427C121.76 153.427 121.645 153.427 121.53 153.427C121.415 153.427 121.3 153.427 121.184 153.427C121.069 153.427 120.954 153.427 120.839 153.427C120.724 153.427 120.608 153.427 120.493 153.427C120.378 153.427 120.263 153.427 120.147 153.427C120.032 153.427 119.917 153.427 119.802 153.427C119.686 153.427 119.571 153.427 119.456 153.427C119.341 153.427 119.225 153.427 119.11 153.427C118.995 153.427 118.88 153.427 118.764 153.427C118.649 153.427 118.534 153.427 118.418 153.427C118.303 153.427 118.188 153.427 118.073 153.427C117.957 153.427 117.842 153.427 117.727 153.427C117.611 153.427 117.496 153.427 117.381 153.427C117.266 153.427 117.15 153.427 117.035 153.427C116.92 153.427 116.804 153.427 116.689 153.427C116.574 153.427 116.458 153.427 116.343 153.427C116.228 153.427 116.112 153.427 115.997 153.427C115.882 153.427 115.766 153.427 115.651 153.427C115.536 153.427 115.42 153.427 115.305 153.427C115.19 153.427 115.074 153.427 114.959 153.427C114.844 153.427 114.728 153.427 114.613 153.427C114.498 153.427 114.382 153.427 114.267 153.427C114.152 153.427 114.036 153.427 113.921 153.427C113.805 153.427 113.69 153.427 113.575 153.427C113.459 153.427 113.344 153.427 113.229 153.427C113.113 153.427 112.998 153.427 112.882 153.427C112.767 153.427 112.652 153.427 112.536 153.427C112.421 153.427 112.305 153.427 112.19 153.427C112.075 153.427 111.959 153.427 111.844 153.427C111.728 153.427 111.613 153.427 111.498 153.427C111.382 153.427 111.267 153.427 111.151 153.427C111.036 153.427 110.92 153.427 110.805 153.427C110.69 153.427 110.574 153.427 110.459 153.427C110.343 153.427 110.228 153.427 110.112 153.427C109.997 153.427 109.882 153.427 109.766 153.427C109.651 153.427 109.535 153.427 109.42 153.427C109.304 153.427 109.189 153.427 109.073 153.427C108.958 153.427 108.843 153.427 108.727 153.427C108.612 153.427 108.496 153.427 108.381 153.427C108.265 153.427 108.15 153.427 108.034 153.427C107.919 153.427 107.803 153.427 107.688 153.427C107.572 153.427 107.457 153.427 107.341 153.427C107.226 153.427 107.11 153.427 106.995 153.427C106.88 153.427 106.764 153.427 106.649 153.427C106.533 153.427 106.418 153.427 106.302 153.427C106.187 153.427 106.071 153.427 105.956 153.427C105.84 153.427 105.725 153.427 105.609 153.427C105.494 153.427 105.378 153.427 105.263 153.427C105.147 153.427 105.032 153.427 104.916 153.427C104.8 153.427 104.685 153.427 104.569 153.427C104.454 153.427 104.338 153.427 104.223 153.427C104.107 153.427 103.992 153.427 103.876 153.427C103.761 153.427 103.645 153.427 103.53 153.427C103.414 153.427 103.299 153.427 103.183 153.427C103.068 153.427 102.952 153.427 102.837 153.427C102.721 153.427 102.605 153.427 102.49 153.427C102.374 153.427 102.259 153.427 102.143 153.427C102.028 153.427 101.912 153.427 101.797 153.427C101.681 153.427 101.565 153.427 101.45 153.427C101.334 153.427 101.219 153.427 101.103 153.427C100.988 153.427 100.872 153.427 100.757 153.427C100.641 153.427 100.525 153.427 100.41 153.427C100.294 153.427 100.179 153.427 100.063 153.427C99.9476 153.427 99.832 153.427 99.7164 153.427C99.6009 153.427 99.4853 153.427 99.3697 153.427C99.2541 153.427 99.1386 153.427 99.023 153.427C98.9074 153.427 98.7918 153.427 98.6762 153.427C98.5606 153.427 98.4451 153.427 98.3295 153.427C98.2139 153.427 98.0983 153.427 97.9827 153.427C97.8671 153.427 97.7515 153.427 97.6359 153.427C97.5203 153.427 97.4047 153.427 97.2891 153.427C97.1735 153.427 97.0579 153.427 96.9423 153.427C96.8267 153.427 96.7111 153.427 96.5955 153.427C96.4799 153.427 96.3643 153.427 96.2487 153.427C96.1331 153.427 96.0175 153.427 95.9019 153.427C95.7863 153.427 95.6707 153.427 95.5551 153.427C95.4395 153.427 95.3238 153.427 95.2082 153.427C95.0926 153.427 94.977 153.427 94.8614 153.427C94.7458 153.427 94.6301 153.427 94.5145 153.427C94.3989 153.427 94.2833 153.427 94.1677 153.427C94.0521 153.427 93.9364 153.427 93.8208 153.427C93.7052 153.427 93.5896 153.427 93.4739 153.427C93.3583 153.427 93.2427 153.427 93.1271 153.427C93.0114 153.427 92.8958 153.427 92.7802 153.427C92.6645 153.427 92.5489 153.427 92.4333 153.427C92.3176 153.427 92.202 153.427 92.0864 153.427C91.9707 153.427 91.8551 153.427 91.7395 153.427C91.6238 153.427 91.5082 153.427 91.3926 153.427C91.2769 153.427 91.1613 153.427 91.0457 153.427C90.93 153.427 90.8144 153.427 90.6987 153.427C90.5831 153.427 90.4675 153.427 90.3518 153.427C90.2362 153.427 90.1205 153.427 90.0049 153.427C89.8892 153.427 89.7736 153.427 89.658 153.427C89.5423 153.427 89.4267 153.427 89.311 153.427C89.1954 153.427 89.0797 153.427 88.9641 153.427C88.8484 153.427 88.7328 153.427 88.6171 153.427C88.5015 153.427 88.3858 153.427 88.2702 153.427C88.1545 153.427 88.0389 153.427 87.9232 153.427C87.8076 153.427 87.6919 153.427 87.5763 153.427C87.4606 153.427 87.345 153.427 87.2293 153.427C87.1137 153.427 86.998 153.427 86.8824 153.427C86.7667 153.427 86.6511 153.427 86.5354 153.427C86.4198 153.427 86.3041 153.427 86.1885 153.427C86.0728 153.427 85.9571 153.427 85.8415 153.427C85.7258 153.427 85.6102 153.427 85.4945 153.427C85.3789 153.427 85.2632 153.427 85.1476 153.427C85.0319 153.427 84.9163 153.427 84.8006 153.427C84.6849 153.427 84.5693 153.427 84.4536 153.427C84.338 153.427 84.2223 153.427 84.1067 153.427C83.991 153.427 83.8753 153.427 83.7597 153.427C83.644 153.427 83.5284 153.427 83.4127 153.427C83.2971 153.427 83.1814 153.427 83.0657 153.427C82.9501 153.427 82.8344 153.427 82.7188 153.427C82.6031 153.427 82.4875 153.427 82.3718 153.427C82.2561 153.427 82.1405 153.427 82.0248 153.427C81.9092 153.427 81.7935 153.427 81.6779 153.427C81.5622 153.427 81.4466 153.427 81.3309 153.427C81.2152 153.427 81.0996 153.427 80.9839 153.427C80.8683 153.427 80.7526 153.427 80.637 153.427C80.5213 153.427 80.4057 153.427 80.29 153.427C80.1744 153.427 80.0587 153.427 79.9431 153.427C79.8274 153.427 79.7117 153.427 79.5961 153.427C79.4804 153.427 79.3648 153.427 79.2491 153.427C79.1335 153.427 79.0178 153.427 78.9022 153.427C78.7865 153.427 78.6709 153.427 78.5552 153.427C78.4396 153.427 78.3239 153.427 78.2083 153.427C78.0926 153.427 77.977 153.427 77.8613 153.427C77.7457 153.427 77.6301 153.427 77.5144 153.427C77.3988 153.427 77.2831 153.427 77.1675 153.427C77.0518 153.427 76.9362 153.427 76.8205 153.427C76.7049 153.427 76.5892 153.427 76.4736 153.427C76.358 153.427 76.2423 153.427 76.1267 153.427C76.011 153.427 75.8954 153.427 75.7798 153.427C75.6641 153.427 75.5485 153.427 75.4329 153.427C75.3172 153.427 75.2016 153.427 75.0859 153.427C74.9703 153.427 74.8547 153.427 74.739 153.427C74.6234 153.427 74.5078 153.427 74.3921 153.427C74.2765 153.427 74.1609 153.427 74.0452 153.427C73.9296 153.427 73.814 153.427 73.6984 153.427C73.5827 153.427 73.4671 153.427 73.3515 153.427C73.2359 153.427 73.1202 153.427 73.0046 153.427C72.889 153.427 72.7734 153.427 72.6577 153.427C72.5421 153.427 72.4265 153.427 72.3109 153.427C72.1953 153.427 72.0796 153.427 71.964 153.427C71.8484 153.427 71.7328 153.427 71.6172 153.427C71.5016 153.427 71.386 153.427 71.2703 153.427C71.1547 153.427 71.0391 153.427 70.9235 153.427C70.8079 153.427 70.6923 153.427 70.5767 153.427C70.4611 153.427 70.3455 153.427 70.2299 153.427C70.1143 153.427 69.9987 153.427 69.8831 153.427C69.7675 153.427 69.6519 153.427 69.5363 153.427C69.4207 153.427 69.3051 153.427 69.1895 153.427C69.0739 153.427 68.9583 153.427 68.8427 153.427C68.7271 153.427 68.6115 153.427 68.4959 153.427C68.3803 153.427 68.2648 153.427 68.1492 153.427C68.0336 153.427 67.918 153.427 67.8024 153.427C67.6868 153.427 67.5713 153.427 67.4557 153.427C67.3401 153.427 67.2245 153.427 67.1089 153.427C66.9934 153.427 66.8778 153.427 66.7622 153.427C66.6467 153.427 66.5311 153.427 66.4155 153.427C66.2999 153.427 66.1844 153.427 66.0688 153.427C65.9533 153.427 65.8377 153.427 65.7221 153.427C65.6066 153.427 65.491 153.427 65.3755 153.427C65.2599 153.427 65.1443 153.427 65.0288 153.427C64.9132 153.427 64.7977 153.427 64.6821 153.427C64.5666 153.427 64.451 153.427 64.3355 153.427C64.2199 153.427 64.1044 153.427 63.9889 153.427C63.8733 153.427 63.7578 153.427 63.6422 153.427C63.5267 153.427 63.4112 153.427 63.2956 153.427C63.1801 153.427 63.0646 153.427 62.9491 153.427C62.8335 153.427 62.718 153.427 62.6025 153.427C62.4869 153.427 62.3714 153.427 62.2559 153.427C62.1404 153.427 62.0249 153.427 61.9094 153.427C61.7938 153.427 61.6783 153.427 61.5628 153.427C61.4473 153.427 61.3318 153.427 61.2163 153.427C61.1008 153.427 60.9853 153.427 60.8698 153.427C60.7543 153.427 60.6388 153.427 60.5233 153.427C60.4078 153.427 60.2923 153.427 60.1768 153.427C60.0613 153.427 59.9458 153.427 59.8303 153.427C59.7149 153.427 59.5994 153.427 59.4839 153.427C59.3684 153.427 59.2529 153.427 59.1375 153.427C59.022 153.427 58.9065 153.427 58.791 153.427C58.6756 153.427 58.5601 153.427 58.4446 153.427C58.3292 153.427 58.2137 153.427 58.0983 153.427C57.9828 153.427 57.8673 153.427 57.7519 153.427C57.6364 153.427 57.521 153.427 57.4055 153.427C57.2901 153.427 57.1746 153.427 57.0592 153.427C56.9437 153.427 56.8283 153.427 56.7129 153.427C56.5974 153.427 56.482 153.427 56.3666 153.427C56.2511 153.427 56.1357 153.427 56.0203 153.427C55.9048 153.427 55.7894 153.427 55.674 153.427C55.5586 153.427 55.4432 153.427 55.3277 153.427C55.2123 153.427 55.0969 153.427 54.9815 153.427C54.8661 153.427 54.7507 153.427 54.6353 153.427C54.5199 153.427 54.4045 153.427 54.2891 153.427C54.1737 153.427 54.0583 153.427 53.9429 153.427C53.8275 153.427 53.7121 153.427 53.5968 153.427C53.4814 153.427 53.366 153.427 53.2506 153.427C53.1352 153.427 53.0199 153.427 52.9045 153.427C52.7891 153.427 52.6738 153.427 52.5584 153.427C52.443 153.427 52.3277 153.427 52.2123 153.427C52.097 153.427 51.9816 153.427 51.8663 153.427C51.7509 153.427 51.6356 153.427 51.5202 153.427C51.4049 153.427 51.2895 153.427 51.1742 153.427C51.0588 153.427 50.9435 153.427 50.8282 153.427C50.7129 153.427 50.5975 153.427 50.4822 153.427C50.3669 153.427 50.2516 153.427 50.1362 153.427C50.0209 153.427 49.9056 153.427 49.7903 153.427C49.675 153.427 49.5597 153.427 49.4444 153.427C49.3291 153.427 49.2138 153.427 49.0985 153.427C48.9832 153.427 48.8679 153.427 48.7526 153.427C48.6373 153.427 48.5221 153.427 48.4068 153.427C48.2915 153.427 48.1762 153.427 48.0609 153.427C47.9457 153.427 47.8304 153.427 47.7151 153.427C47.5999 153.427 47.4846 153.427 47.3694 153.427C47.2541 153.427 47.1388 153.427 47.0236 153.427C46.9083 153.427 46.7931 153.427 46.6779 153.427C46.5626 153.427 46.4474 153.427 46.3321 153.427C46.2169 153.427 46.1017 153.427 45.9865 153.427C45.8712 153.427 45.756 153.427 45.6408 153.427C45.5256 153.427 45.4104 153.427 45.2952 153.427C45.1799 153.427 45.0647 153.427 44.9495 153.427C44.8343 153.427 44.7191 153.427 44.6039 153.427V155.427ZM219.835 155.427C222.104 155.419 224.369 155.253 226.615 154.93L226.331 152.95C224.177 153.26 222.004 153.419 219.827 153.427L219.835 155.427ZM226.611 154.93C245.45 152.297 259.795 135.9 260.005 116.709L258.005 116.687C257.805 134.9 244.182 150.455 226.334 152.95L226.611 154.93ZM260.005 116.709C260.215 97.111 246.181 80.1763 227.296 77.3554L227 79.3335C244.853 82.0002 258.205 98.0425 258.005 116.687L260.005 116.709ZM227.277 77.3529C224.3 76.9645 221.304 76.7307 218.302 76.6524L218.249 78.6518C221.182 78.7282 224.109 78.9567 227.019 79.3361L227.277 77.3529ZM218.313 76.6528C216.931 76.6016 215.556 76.5422 214.192 76.4574L214.068 78.4536C215.456 78.5398 216.85 78.6 218.239 78.6514L218.313 76.6528ZM214.183 76.4569C214.274 76.4618 214.363 76.4873 214.442 76.5314L213.471 78.2797C213.657 78.383 213.864 78.4427 214.076 78.4541L214.183 76.4569ZM214.442 76.5314C214.521 76.5754 214.59 76.6369 214.642 76.7115L213.003 77.8576C213.125 78.0321 213.285 78.1764 213.471 78.2797L214.442 76.5314ZM214.594 76.6489C214.65 76.7166 214.69 76.7958 214.711 76.8807L212.771 77.3658C212.822 77.5689 212.917 77.7584 213.05 77.9202L214.594 76.6489ZM214.711 76.8807C214.732 76.9658 214.734 77.0545 214.717 77.1403L212.756 76.745C212.715 76.9503 212.72 77.1624 212.771 77.3658L214.711 76.8807ZM214.719 77.13C219.054 54.4054 211.862 37.7273 205.041 27.7341L203.389 28.8616C209.987 38.528 216.967 54.673 212.754 76.7553L214.719 77.13ZM205.041 27.7341C196.571 15.3255 183.845 6.09682 170.086 2.40697L169.568 4.33871C182.837 7.89728 195.173 16.8238 203.389 28.8616L205.041 27.7341ZM170.084 2.40636C155.404 -1.49342 141.318 -0.631926 128.184 4.96593L128.968 6.80579C141.665 1.39424 155.292 0.546205 169.571 4.33932L170.084 2.40636ZM128.182 4.96691C109.115 13.1497 96.8324 27.7649 90.5359 49.5085L92.457 50.0648C98.6059 28.8308 110.514 14.7258 128.971 6.80481L128.182 4.96691ZM90.5351 49.5116C90.5614 49.4194 90.6108 49.3356 90.6785 49.2679L92.0927 50.6821C92.2651 50.5097 92.3908 50.2963 92.4579 50.0618L90.5351 49.5116ZM90.6785 49.2679C90.7462 49.2002 90.8301 49.1508 90.9222 49.1245L91.4724 51.0473C91.7068 50.9802 91.9203 50.8545 92.0927 50.6821L90.6785 49.2679ZM90.959 49.1147C91.0453 49.0935 91.1356 49.0937 91.222 49.1153L90.7369 51.0555C90.9662 51.1129 91.2061 51.1134 91.4356 51.057L90.959 49.1147ZM91.222 49.1153C91.3083 49.1368 91.3881 49.1792 91.4543 49.2385L90.1197 50.7281C90.2957 50.8858 90.5076 50.9982 90.7369 51.0555L91.222 49.1153ZM91.4777 49.2601L89.3835 47.26L88.0021 48.7063L90.0963 50.7064L91.4777 49.2601ZM89.3811 47.2577C88.0527 45.9975 86.8261 44.8049 85.5947 43.6077L84.2006 45.0417C85.4309 46.2379 86.666 47.4387 88.0046 48.7086L89.3811 47.2577ZM85.6111 43.624C82.8683 40.8317 79.6022 38.6072 75.9995 37.0775L75.2179 38.9185C78.5788 40.3455 81.6256 42.4207 84.1843 45.0255L85.6111 43.624ZM75.9995 37.0775C72.3969 35.5478 68.5281 34.7429 64.6142 34.7087L64.5968 36.7086C68.2479 36.7405 71.857 37.4914 75.2179 38.9185L75.9995 37.0775ZM64.6055 36.7087H64.6311V34.7087H64.6055V36.7087Z" fill="black" mask="url(#path-2-inside-1_931_23035)"/>
<path d="M174.136 105.535H86.2656V153.256H174.136V105.535Z" fill="#D1D3D4"/>
<path d="M174.135 153.684H86.2653C86.1519 153.684 86.0432 153.639 85.9631 153.558C85.8829 153.478 85.8379 153.37 85.8379 153.256V105.517C85.8401 105.405 85.8858 105.297 85.9655 105.218C86.0452 105.138 86.1526 105.092 86.2653 105.09H174.135C174.248 105.092 174.355 105.138 174.435 105.218C174.515 105.297 174.561 105.405 174.563 105.517V153.239C174.565 153.297 174.556 153.354 174.535 153.408C174.515 153.462 174.484 153.511 174.444 153.552C174.404 153.594 174.356 153.627 174.303 153.65C174.25 153.672 174.193 153.684 174.135 153.684ZM86.6927 152.829H173.708V105.962H86.6927V152.829Z" fill="#231F20"/>
<path d="M174.136 81.4216H86.2656V105.287H174.136V81.4216Z" fill="#231F20"/>
<path d="M174.135 105.714H86.2653C86.1526 105.712 86.0452 105.666 85.9655 105.586C85.8858 105.507 85.8401 105.399 85.8379 105.287V81.4215C85.8379 81.3082 85.8829 81.1995 85.9631 81.1193C86.0432 81.0392 86.1519 80.9941 86.2653 80.9941H174.135C174.249 80.9941 174.357 81.0392 174.438 81.1193C174.518 81.1995 174.563 81.3082 174.563 81.4215V105.287C174.561 105.399 174.515 105.507 174.435 105.586C174.355 105.666 174.248 105.712 174.135 105.714ZM86.6927 104.859H173.708V81.8489H86.6927V104.859Z" fill="#231F20"/>
<path d="M169.417 86.627H98.4458V120.758H169.417V86.627Z" fill="white"/>
<path d="M169.417 121.185H98.4713C98.3587 121.183 98.2512 121.137 98.1715 121.058C98.0919 120.978 98.0461 120.871 98.0439 120.758V86.6271C98.0439 86.5137 98.089 86.405 98.1691 86.3249C98.2493 86.2447 98.358 86.1997 98.4713 86.1997H169.417C169.53 86.1997 169.639 86.2447 169.719 86.3249C169.799 86.405 169.844 86.5137 169.844 86.6271V120.758C169.844 120.871 169.799 120.98 169.719 121.06C169.639 121.14 169.53 121.185 169.417 121.185ZM98.8731 120.331H168.964V87.0545H98.8731V120.331Z" fill="#231F20"/>
<path d="M166.306 94.5766V88.7556H137.603L133.808 94.5766H94.4028V128.477H171.007V94.5766H166.306Z" fill="#004680"/>
<path d="M171.007 128.904H94.403C94.2896 128.904 94.1809 128.859 94.1008 128.779C94.0206 128.699 93.9756 128.59 93.9756 128.477V94.5765C93.9756 94.4631 94.0206 94.3544 94.1008 94.2743C94.1809 94.1941 94.2896 94.1491 94.403 94.1491H133.62L137.295 88.5247C137.333 88.4657 137.385 88.417 137.446 88.3827C137.507 88.3484 137.576 88.3297 137.646 88.3281H166.349C166.462 88.3281 166.571 88.3732 166.651 88.4533C166.731 88.5335 166.776 88.6422 166.776 88.7555V94.1491H171.05C171.163 94.1491 171.272 94.1941 171.352 94.2743C171.432 94.3544 171.477 94.4631 171.477 94.5765V128.477C171.478 128.536 171.465 128.596 171.441 128.651C171.417 128.705 171.382 128.755 171.337 128.795C171.293 128.835 171.241 128.866 171.184 128.885C171.127 128.903 171.067 128.91 171.007 128.904ZM94.8304 128.049H170.58V95.0039H166.306C166.193 95.0039 166.084 94.9588 166.004 94.8787C165.924 94.7985 165.879 94.6898 165.879 94.5765V89.1829H137.834L134.158 94.8158C134.12 94.8737 134.068 94.9213 134.007 94.9541C133.946 94.9869 133.877 95.004 133.808 95.0039H94.8304V128.049Z" fill="#231F20"/>
<path d="M91.0777 132.203H166.69V98.0725H91.0777V132.203Z" fill="white"/>
<path d="M166.699 132.631H91.0861C90.9727 132.631 90.864 132.586 90.7839 132.505C90.7037 132.425 90.6587 132.317 90.6587 132.203V98.0724C90.6587 97.9591 90.7037 97.8504 90.7839 97.7702C90.864 97.6901 90.9727 97.645 91.0861 97.645H166.699C166.812 97.645 166.921 97.6901 167.001 97.7702C167.081 97.8504 167.126 97.9591 167.126 98.0724V132.203C167.126 132.317 167.081 132.425 167.001 132.505C166.921 132.586 166.812 132.631 166.699 132.631ZM91.4793 131.776H166.271V98.4998H91.5135L91.4793 131.776Z" fill="#231F20"/>
<path d="M94.403 106.03V100.209H124.978L129.03 106.03H171.007V139.922H89.394V106.03H94.403Z" fill="#004680"/>
<path d="M171.007 140.349H89.3937C89.2803 140.349 89.1716 140.304 89.0915 140.224C89.0113 140.144 88.9663 140.035 88.9663 139.922V106.03C88.9663 105.917 89.0113 105.808 89.0915 105.728C89.1716 105.648 89.2803 105.603 89.3937 105.603H93.9752V100.209C93.9752 100.096 94.0203 99.9874 94.1004 99.9072C94.1806 99.8271 94.2893 99.782 94.4026 99.782H124.978C125.046 99.7809 125.114 99.7967 125.175 99.828C125.236 99.8593 125.289 99.9052 125.328 99.9615L129.251 105.603H171.007C171.12 105.603 171.229 105.648 171.309 105.728C171.389 105.808 171.434 105.917 171.434 106.03V139.922C171.434 140.035 171.389 140.144 171.309 140.224C171.229 140.304 171.12 140.349 171.007 140.349ZM89.804 139.495H170.562V106.458H129.029C128.96 106.458 128.891 106.441 128.83 106.408C128.769 106.375 128.717 106.328 128.679 106.27L124.755 100.637H94.8386V106.03C94.8386 106.144 94.7935 106.252 94.7134 106.333C94.6332 106.413 94.5245 106.458 94.4112 106.458H89.8296L89.804 139.495Z" fill="#231F20"/>
<path d="M170.511 108.612H94.8984V142.743H170.511V108.612Z" fill="white"/>
<path d="M170.511 143.178H94.8986C94.7852 143.178 94.6765 143.133 94.5964 143.053C94.5162 142.973 94.4712 142.864 94.4712 142.751V108.612C94.4712 108.498 94.5162 108.39 94.5964 108.31C94.6765 108.229 94.7852 108.184 94.8986 108.184H170.511C170.625 108.184 170.733 108.229 170.813 108.31C170.894 108.39 170.939 108.498 170.939 108.612V142.751C170.939 142.864 170.894 142.973 170.813 143.053C170.733 143.133 170.625 143.178 170.511 143.178ZM95.2918 142.324H170.05V109.039H95.326L95.2918 142.324Z" fill="#231F20"/>
<path d="M169.314 111.407H93.7017V145.538H169.314V111.407Z" fill="white"/>
<path d="M169.314 145.965H93.7018C93.5884 145.965 93.4797 145.92 93.3996 145.84C93.3194 145.76 93.2744 145.651 93.2744 145.538V111.407C93.2744 111.294 93.3194 111.185 93.3996 111.105C93.4797 111.025 93.5884 110.979 93.7018 110.979H169.314C169.428 110.979 169.537 111.025 169.617 111.105C169.697 111.185 169.742 111.294 169.742 111.407V145.538C169.742 145.651 169.697 145.76 169.617 145.84C169.537 145.92 169.428 145.965 169.314 145.965ZM94.095 145.11H168.853V111.834H94.1292L94.095 145.11Z" fill="#231F20"/>
<path d="M165.998 119.365V113.544H135.423L131.372 119.365H89.394V153.256H171.007V119.365H165.998Z" fill="#004680"/>
<path d="M171.007 153.684H89.3937C89.2803 153.684 89.1716 153.638 89.0915 153.558C89.0113 153.478 88.9663 153.369 88.9663 153.256V119.365C88.9663 119.251 89.0113 119.143 89.0915 119.062C89.1716 118.982 89.2803 118.937 89.3937 118.937H131.149L135.072 113.296C135.112 113.239 135.164 113.194 135.225 113.162C135.286 113.131 135.354 113.115 135.423 113.116H165.998C166.111 113.116 166.22 113.161 166.3 113.241C166.38 113.322 166.425 113.43 166.425 113.544V118.937H171.007C171.12 118.937 171.229 118.982 171.309 119.062C171.389 119.143 171.434 119.251 171.434 119.365V153.256C171.434 153.369 171.389 153.478 171.309 153.558C171.229 153.638 171.12 153.684 171.007 153.684ZM89.804 152.829H170.562V119.792H165.981C165.867 119.792 165.759 119.747 165.679 119.667C165.598 119.587 165.553 119.478 165.553 119.365V113.971H135.637L131.713 119.604C131.675 119.662 131.623 119.709 131.562 119.742C131.501 119.775 131.432 119.792 131.363 119.792H89.8211L89.804 152.829Z" fill="#231F20"/>
<path d="M178.059 134.793H82.3418V179.72H178.059V134.793Z" fill="#6F93B3"/>
<path d="M178.067 180.147H82.3331C82.2198 180.147 82.1111 180.102 82.0309 180.022C81.9508 179.942 81.9058 179.833 81.9058 179.72V134.793C81.9058 134.68 81.9508 134.571 82.0309 134.491C82.1111 134.411 82.2198 134.366 82.3331 134.366H178.067C178.18 134.366 178.289 134.411 178.369 134.491C178.449 134.571 178.494 134.68 178.494 134.793V179.72C178.494 179.833 178.449 179.942 178.369 180.022C178.289 180.102 178.18 180.147 178.067 180.147ZM82.7776 179.293H177.657V135.221H82.7776V179.293Z" fill="#231F20"/>
<path d="M174.204 176.138H86.1627C86.0494 176.138 85.9407 176.093 85.8605 176.013C85.7804 175.933 85.7354 175.824 85.7354 175.711V138.853C85.7354 138.74 85.7804 138.631 85.8605 138.551C85.9407 138.471 86.0494 138.426 86.1627 138.426H174.204C174.317 138.426 174.426 138.471 174.506 138.551C174.586 138.631 174.631 138.74 174.631 138.853V175.754C174.62 175.859 174.571 175.958 174.492 176.029C174.413 176.1 174.31 176.139 174.204 176.138ZM86.6243 175.284H173.793V139.238H86.6072L86.6243 175.284Z" fill="#E6E7E8"/>
<path d="M142.927 163.129H117.472C114.293 163.129 111.899 161.419 111.899 159.171V156.445H115.318V159.069C115.933 159.54 116.7 159.769 117.472 159.71H142.927C143.7 159.769 144.467 159.54 145.081 159.069V156.445H148.501V159.171C148.501 161.428 146.107 163.129 142.927 163.129Z" fill="#231F20"/>
<path d="M128.893 131.716C128.893 131.716 130.363 131.477 132.705 134.793H119.781C119.781 134.793 124.362 133.186 128.893 131.716Z" fill="#231F20"/>
<path d="M132.705 135.221H119.781C119.679 135.222 119.581 135.188 119.503 135.124C119.424 135.06 119.371 134.97 119.353 134.87C119.337 134.77 119.357 134.667 119.408 134.58C119.459 134.493 119.54 134.426 119.635 134.392C119.686 134.392 124.277 132.767 128.756 131.306H128.824C128.995 131.306 130.627 131.126 133.098 134.562C133.139 134.629 133.162 134.706 133.162 134.785C133.162 134.863 133.139 134.94 133.098 135.007C133.06 135.077 133.003 135.134 132.933 135.172C132.863 135.21 132.784 135.227 132.705 135.221ZM122.319 134.366H131.858C130.209 132.272 129.149 132.143 128.969 132.135C126.525 132.93 124.063 133.768 122.319 134.366Z" fill="#231F20"/>
<path d="M128.893 131.716H93.7019C93.7019 131.716 84.932 134.793 86.2654 150.179H125.585C125.585 150.179 122.439 137.563 128.893 131.716Z" fill="white"/>
<path d="M125.542 150.607H86.2224C86.1153 150.605 86.0125 150.564 85.9337 150.492C85.8548 150.419 85.8055 150.32 85.795 150.213C84.453 134.682 93.146 131.409 93.4879 131.314C93.5331 131.306 93.5794 131.306 93.6246 131.314H128.815C128.901 131.316 128.985 131.342 129.055 131.392C129.125 131.441 129.179 131.51 129.21 131.59C129.24 131.67 129.246 131.758 129.226 131.841C129.206 131.925 129.161 132 129.097 132.058C122.909 137.665 125.849 150.008 125.884 150.102C125.899 150.165 125.9 150.231 125.887 150.295C125.873 150.358 125.846 150.418 125.807 150.47C125.737 150.545 125.643 150.594 125.542 150.607ZM86.6583 149.752H125.012C124.507 147.35 122.875 137.648 127.858 132.144H93.787C93.0263 132.46 85.6069 135.922 86.6583 149.752Z" fill="#231F20"/>
<path d="M116.379 145.965H91.4108C91.2974 145.965 91.1887 145.92 91.1086 145.84C91.0284 145.76 90.9834 145.651 90.9834 145.538C90.9856 145.425 91.0313 145.318 91.111 145.238C91.1907 145.158 91.2981 145.113 91.4108 145.11H116.379C116.492 145.11 116.601 145.155 116.681 145.236C116.761 145.316 116.806 145.424 116.806 145.538C116.806 145.651 116.761 145.76 116.681 145.84C116.601 145.92 116.492 145.965 116.379 145.965Z" fill="#E6E7E8"/>
<path d="M119.781 141.418H91.4108C91.2981 141.416 91.1907 141.37 91.111 141.29C91.0313 141.21 90.9856 141.103 90.9834 140.99C90.9834 140.877 91.0284 140.768 91.1086 140.688C91.1887 140.608 91.2974 140.563 91.4108 140.563H119.781C119.894 140.563 120.003 140.608 120.083 140.688C120.163 140.768 120.208 140.877 120.208 140.99C120.206 141.103 120.16 141.21 120.08 141.29C120.001 141.37 119.893 141.416 119.781 141.418Z" fill="#E6E7E8"/>
<path d="M121.695 136.486H93.3253C93.212 136.486 93.1033 136.441 93.0231 136.361C92.943 136.281 92.8979 136.172 92.8979 136.058C92.8979 135.945 92.943 135.836 93.0231 135.756C93.1033 135.676 93.212 135.631 93.3253 135.631H121.695C121.808 135.631 121.917 135.676 121.997 135.756C122.077 135.836 122.122 135.945 122.122 136.058C122.122 136.172 122.077 136.281 121.997 136.361C121.917 136.441 121.808 136.486 121.695 136.486Z" fill="#E6E7E8"/>
<path d="M163.63 101.731H145.141C145.028 101.731 144.919 101.686 144.839 101.606C144.759 101.526 144.714 101.417 144.714 101.304C144.714 101.19 144.759 101.082 144.839 101.001C144.919 100.921 145.028 100.876 145.141 100.876H163.63C163.743 100.876 163.852 100.921 163.932 101.001C164.012 101.082 164.057 101.19 164.057 101.304C164.055 101.416 164.009 101.524 163.93 101.603C163.85 101.683 163.743 101.729 163.63 101.731Z" fill="#E6E7E8"/>
<path d="M122.388 90.7044H103.899C103.786 90.7044 103.677 90.6594 103.597 90.5792C103.517 90.4991 103.472 90.3903 103.472 90.277C103.472 90.1636 103.517 90.0549 103.597 89.9748C103.677 89.8946 103.786 89.8496 103.899 89.8496H122.388C122.501 89.8496 122.61 89.8946 122.69 89.9748C122.77 90.0549 122.815 90.1636 122.815 90.277C122.815 90.3903 122.77 90.4991 122.69 90.5792C122.61 90.6594 122.501 90.7044 122.388 90.7044Z" fill="#E6E7E8"/>
<path d="M24 46.2654C37.1302 48.1946 49.6291 52.7329 60.6037 59.5559L56.4489 64.1139L75 66L71.6485 50.2827L66.0741 53.9228C66.0741 53.9228 50.1475 37.3694 31.534 33L24 46.2654Z" fill="#ED2D24"/>
<path d="M74.6607 65.9322H74.6197L56.307 64.0826C56.2462 64.0769 56.1884 64.056 56.1401 64.0222C56.0918 63.9884 56.0549 63.9432 56.0336 63.8915C56.0101 63.8396 56.0028 63.7829 56.0125 63.7274C56.0221 63.672 56.0483 63.6201 56.0883 63.5771L59.9778 59.3663C42.957 48.7252 24.4871 46.5859 24.3026 46.5613C24.248 46.5556 24.1958 46.5381 24.1503 46.5104C24.1048 46.4826 24.0674 46.4454 24.0413 46.4019C24.0151 46.3583 24.001 46.3097 24 46.2602C23.9991 46.2107 24.0115 46.1617 24.036 46.1174L31.4458 33.1644C31.4819 33.1027 31.54 33.054 31.6108 33.026C31.6816 32.998 31.7607 32.9924 31.8354 33.0102C48.9245 37.0053 63.9629 51.5057 65.8974 53.4107L71.154 50.0014C71.2041 49.976 71.2606 49.9627 71.3181 49.9627C71.3756 49.9627 71.4321 49.976 71.4821 50.0014C71.5338 50.0205 71.5795 50.0507 71.6153 50.0894C71.651 50.1281 71.6757 50.1741 71.6872 50.2234L74.9957 65.6363C75.0035 65.6805 75.0007 65.7257 74.9876 65.7688C74.9745 65.812 74.9513 65.8521 74.9196 65.8866C74.8879 65.921 74.8484 65.9489 74.8037 65.9685C74.7591 65.9881 74.7103 65.9988 74.6607 66V65.9322ZM57.0179 63.5216L74.2369 65.2725L71.1199 50.7597L66.0478 54.0519C65.9779 54.0954 65.8928 54.1144 65.8085 54.1053C65.7242 54.0963 65.6464 54.0597 65.5898 54.0026C65.4326 53.8423 49.8679 37.9732 31.9311 33.6576L24.8699 46.0126C27.9255 46.4318 44.9667 49.1321 60.675 59.0395C60.7508 59.0903 60.8022 59.1653 60.8185 59.2491C60.8253 59.2917 60.8221 59.3351 60.8092 59.3765C60.7962 59.418 60.7738 59.4565 60.7434 59.4896L57.0179 63.5216Z" fill="#231F20"/>
<path d="M185 63.6304C185 63.6304 193.868 53.6884 217.052 46.555L214.426 42L234 43.5872L225.59 57.6062L221.859 52.296C221.859 52.296 210.332 55.2461 194.467 73L185 63.6304Z" fill="#ED2D24"/>
<path d="M194.666 73C194.62 73.0003 194.573 72.9916 194.531 72.9746C194.488 72.9576 194.451 72.9327 194.421 72.9016L185.077 63.6969C185.027 63.6449 185 63.5794 185 63.5118C185 63.4441 185.027 63.3786 185.077 63.3266C185.163 63.2283 194.049 53.526 216.481 46.595L214.071 42.4236C214.043 42.3775 214.03 42.3257 214.033 42.2736C214.037 42.2216 214.056 42.1713 214.089 42.1281C214.123 42.0848 214.169 42.0502 214.223 42.0279C214.277 42.0056 214.337 41.9964 214.396 42.0013L233.694 43.5576C233.749 43.5628 233.802 43.5792 233.848 43.6053C233.894 43.6314 233.932 43.6666 233.96 43.708C233.986 43.7497 234 43.7965 234 43.844C234 43.8915 233.986 43.9382 233.96 43.9799L225.666 57.7263C225.64 57.7721 225.601 57.8109 225.551 57.8385C225.502 57.866 225.445 57.8812 225.387 57.8825C225.327 57.8868 225.267 57.8761 225.214 57.8514C225.161 57.8268 225.117 57.7894 225.088 57.7436L221.548 52.7565C219.842 53.2946 209.097 57.1593 194.945 72.8901C194.88 72.9532 194.79 72.9925 194.693 73H194.666ZM185.761 63.4944L194.626 72.2594C202.595 63.4192 209.475 58.4321 213.825 55.7997C218.613 52.907 221.442 52.1606 221.562 52.1317C221.631 52.1128 221.706 52.1151 221.773 52.1383C221.841 52.1614 221.898 52.204 221.934 52.259L225.307 57.0089L233.143 44.0956L214.934 42.6261L217.205 46.6297C217.223 46.6672 217.233 46.7076 217.233 46.7483C217.233 46.789 217.223 46.8293 217.205 46.8669C217.186 46.9043 217.159 46.9379 217.125 46.9657C217.091 46.9936 217.05 47.0151 217.006 47.0289C196.267 53.3814 187.102 62.1233 185.761 63.4944Z" fill="#231F20"/>
</g>
<defs>
<clipPath id="clip0_931_23035">
<rect width="260" height="181" fill="white" transform="translate(0.5)"/>
</clipPath>
</defs>
</svg>
