<svg id="Layer_1" data-name="Layer 1"
  xmlns="http://www.w3.org/2000/svg" viewBox="0 0 388.51 200.22">
  <defs>
    <style>.cls-1{fill:#004680;}.cls-2{fill:#fff;}</style>
  </defs>
  <title>MODINO_logo basic bg</title>
  <!-- <rect class="cls-1" x="0.71" y="0.65" width="388.51" height="200.22"/> -->
  <path class="cls-2" d="M107.76,72.2a30.25,30.25,0,0,1,4.86.39,12.69,12.69,0,0,1,4.44,1.59,21.29,21.29,0,0,1,3.66-1.38,17.26,17.26,0,0,1,4.74-.6,27.14,27.14,0,0,1,4.83.45,11,11,0,0,1,4.5,1.89,10.54,10.54,0,0,1,3.3,4.14,16.7,16.7,0,0,1,1.29,7.14v17.94a24.22,24.22,0,0,1-2.82.39q-1.26.09-2.22.09t-2.28-.09a24.22,24.22,0,0,1-2.82-.39V86.9a7.49,7.49,0,0,0-1.08-4.56A4.22,4.22,0,0,0,124.62,81a7.58,7.58,0,0,0-1.65.18,8.38,8.38,0,0,0-1.11.3,19.34,19.34,0,0,1,.54,4.8v17.52a24.22,24.22,0,0,1-2.82.39q-1.26.09-2.22.09t-2.28-.09a24.22,24.22,0,0,1-2.82-.39V86.9a7.83,7.83,0,0,0-1-4.56A4,4,0,0,0,107.76,81a9,9,0,0,0-1.41.12,3,3,0,0,0-.93.24v22.44a24.22,24.22,0,0,1-2.82.39q-1.26.09-2.22.09t-2.28-.09a24.22,24.22,0,0,1-2.82-.39V74.3q2.1-.72,5-1.41A33.36,33.36,0,0,1,107.76,72.2Z"/>
  <path class="cls-2" d="M144.3,88.37a21.45,21.45,0,0,1,1-6.69,14.22,14.22,0,0,1,2.94-5.19,13,13,0,0,1,4.83-3.33,19.71,19.71,0,0,1,13.38,0,13,13,0,0,1,4.83,3.33,14.22,14.22,0,0,1,2.94,5.19,21.45,21.45,0,0,1,1,6.69,20.68,20.68,0,0,1-1,6.57,14,14,0,0,1-2.94,5.1,12.85,12.85,0,0,1-4.83,3.27,20.2,20.2,0,0,1-13.38,0,12.85,12.85,0,0,1-4.83-3.27,14,14,0,0,1-2.94-5.1A20.68,20.68,0,0,1,144.3,88.37Zm20.64,0a11.05,11.05,0,0,0-1.29-5.88,4.33,4.33,0,0,0-3.93-2,4.26,4.26,0,0,0-3.9,2,11.27,11.27,0,0,0-1.26,5.88,11.13,11.13,0,0,0,1.26,5.82,4.26,4.26,0,0,0,3.9,2,4.33,4.33,0,0,0,3.93-2A10.92,10.92,0,0,0,164.94,88.37Z"/>
  <path class="cls-2" d="M191,72a26.65,26.65,0,0,1,8.31,1.14A15.14,15.14,0,0,1,205,76.34a12.21,12.21,0,0,1,3.24,5,19.86,19.86,0,0,1,1,6.54,21,21,0,0,1-1.05,6.84,12.94,12.94,0,0,1-3.3,5.22,15,15,0,0,1-5.82,3.33,27.83,27.83,0,0,1-8.61,1.17q-2.94,0-5.25-.21t-4.83-.57V72.83q2.52-.3,5.34-.57T191,72Zm-.48,23.88a4.34,4.34,0,0,1,.63.06,8.37,8.37,0,0,0,1.17.06,6.3,6.3,0,0,0,5-1.89Q199,92.21,199,87.89q0-3.84-1.62-5.61a6,6,0,0,0-4.62-1.77q-.72,0-1.32.06t-.9.12Z"/>
  <path class="cls-2" d="M244,72.2a31.37,31.37,0,0,1,5.28.45A12,12,0,0,1,254,74.54a10.55,10.55,0,0,1,3.48,4.14,16.05,16.05,0,0,1,1.35,7.14v17.94a24.22,24.22,0,0,1-2.82.39q-1.26.09-2.22.09t-2.28-.09a24.22,24.22,0,0,1-2.82-.39V86.9q0-3.18-1.2-4.56A4.59,4.59,0,0,0,243.84,81a9,9,0,0,0-1.41.12,3,3,0,0,0-.93.24v22.44a24.22,24.22,0,0,1-2.82.39q-1.26.09-2.22.09t-2.28-.09a24.22,24.22,0,0,1-2.82-.39V74.3a51.78,51.78,0,0,1,5.1-1.41A34.19,34.19,0,0,1,244,72.2Z"/>
  <path class="cls-2" d="M263.76,88.37a21.45,21.45,0,0,1,1-6.69,14.22,14.22,0,0,1,2.94-5.19,13,13,0,0,1,4.83-3.33,19.71,19.71,0,0,1,13.38,0,13,13,0,0,1,4.83,3.33,14.22,14.22,0,0,1,2.94,5.19,21.45,21.45,0,0,1,1,6.69,20.68,20.68,0,0,1-1,6.57,14,14,0,0,1-2.94,5.1,12.85,12.85,0,0,1-4.83,3.27,20.2,20.2,0,0,1-13.38,0,12.85,12.85,0,0,1-4.83-3.27,14,14,0,0,1-2.94-5.1A20.68,20.68,0,0,1,263.76,88.37Zm20.64,0a11.05,11.05,0,0,0-1.29-5.88,4.33,4.33,0,0,0-3.93-2,4.26,4.26,0,0,0-3.9,2A11.27,11.27,0,0,0,274,88.37a11.13,11.13,0,0,0,1.26,5.82,4.26,4.26,0,0,0,3.9,2,4.33,4.33,0,0,0,3.93-2A10.92,10.92,0,0,0,284.4,88.37Z"/>
  <path class="cls-2" d="M214.23,66.65a23.26,23.26,0,0,1,2.79-.3q1.35-.06,2.55-.06t2.52.06a25.13,25.13,0,0,1,2.82.3l-.54,28q-1.5.3-2.64.42a20.68,20.68,0,0,1-2.16.12,27.72,27.72,0,0,1-4.8-.54Zm10.82,38a5.48,5.48,0,1,1-5.48-5.48A5.48,5.48,0,0,1,225.05,104.66Z"/>
  <path class="cls-2" d="M112.86,130.18a2.66,2.66,0,0,1-1.5,5,4.3,4.3,0,0,1-1.93-.47c-.37-.21-.67-.5-.67-.83a.73.73,0,0,1,.63-.74c.47,0,.9.74,1.93.74a1.29,1.29,0,0,0,1.44-1.27c0-.78-.58-1.16-1.16-1.47-.82-.43-2.61-1.07-2.61-2.85a2.53,2.53,0,0,1,2.81-2.42c1.18,0,2.32.54,2.32,1.15a.74.74,0,0,1-.64.72c-.43,0-.86-.57-1.69-.57s-1.26.43-1.26,1C110.53,129.24,111.9,129.6,112.86,130.18Z"/>
  <path class="cls-2" d="M120.9,132.41h-3.26l-.75,2c-.18.45-.32.75-.94.75s-.7-.18-.7-.48a1.11,1.11,0,0,1,.13-.46l3-7.33c.22-.56.4-.93,1-.93s.71.37.93.93l2.9,7.33a1.23,1.23,0,0,1,.11.46c0,.3-.23.48-.72.48s-.75-.25-.94-.75Zm-2.75-1.33h2.25l-1.11-2.9Z"/>
  <path class="cls-2" d="M126.37,134.26a1,1,0,0,1-.11.61.85.85,0,0,1-.65.25.86.86,0,0,1-.67-.25,1,1,0,0,1-.11-.61v-7.54c0-.46.22-.66.74-.66H129a.85.85,0,0,1,.54.12.62.62,0,0,1,.24.56.65.65,0,0,1-.24.57.85.85,0,0,1-.54.11h-2.65v2.37h2.24a.81.81,0,0,1,.54.13.6.6,0,0,1,.23.55.65.65,0,0,1-.23.57.87.87,0,0,1-.54.11h-2.24Z"/>
  <path class="cls-2" d="M132.92,129.55h1.93a.85.85,0,0,1,.54.13.61.61,0,0,1,.24.55.63.63,0,0,1-.24.57.79.79,0,0,1-.54.12h-1.93v2.76h2.8a.88.88,0,0,1,.55.12.66.66,0,0,1,.23.56.68.68,0,0,1-.23.57.88.88,0,0,1-.55.11h-3.58c-.55,0-.73-.22-.73-.74v-7.51c0-.54.2-.73.73-.73h3.22a.84.84,0,0,1,.54.12.62.62,0,0,1,.24.56.65.65,0,0,1-.24.57.84.84,0,0,1-.54.11h-2.44Z"/>
  <path class="cls-2" d="M147.14,132.41h-3.27l-.75,2c-.18.45-.31.75-.94.75s-.69-.18-.69-.48a1.06,1.06,0,0,1,.12-.46l3-7.33c.22-.56.4-.93,1-.93s.7.37.93.93l2.9,7.33a1.23,1.23,0,0,1,.11.46c0,.3-.24.48-.72.48s-.75-.25-.95-.75Zm-2.75-1.33h2.25l-1.11-2.9Z"/>
  <path class="cls-2" d="M152.55,134.26a1,1,0,0,1-.11.61.92.92,0,0,1-1.26,0,1,1,0,0,1-.11-.61v-7.69c0-.4.25-.63.7-.63s.74.31,1.14.8l4.56,5.63v-5.56a1,1,0,0,1,.11-.6.74.74,0,0,1,.62-.25.74.74,0,0,1,.63.25,1,1,0,0,1,.12.6v7.71a.59.59,0,0,1-.68.63c-.46,0-.68-.26-1.1-.78l-4.62-5.69Z"/>
  <path class="cls-2" d="M167.62,134.22a6.91,6.91,0,0,1-3.83.9,6.24,6.24,0,0,1-1.86-.21c-.41-.14-.48-.37-.48-.83V127c0-.52.13-.77.78-.91a9.89,9.89,0,0,1,1.89-.14,6.23,6.23,0,0,1,3.62.87,4.76,4.76,0,0,1-.12,7.39Zm-4.62-.46a8,8,0,0,0,1.05.06c1.17,0,3.8-.17,3.8-3.25a3.15,3.15,0,0,0-1.11-2.64,3.94,3.94,0,0,0-2.56-.67,6.36,6.36,0,0,0-1.18.09Z"/>
  <path class="cls-2" d="M178.66,130.18a2.66,2.66,0,0,1-1.5,5,4.26,4.26,0,0,1-1.93-.47c-.38-.21-.67-.5-.67-.83a.73.73,0,0,1,.63-.74c.47,0,.9.74,1.93.74a1.29,1.29,0,0,0,1.44-1.27c0-.78-.58-1.16-1.17-1.47-.82-.43-2.61-1.07-2.61-2.85a2.53,2.53,0,0,1,2.82-2.42c1.18,0,2.32.54,2.32,1.15a.75.75,0,0,1-.64.72c-.43,0-.86-.57-1.69-.57s-1.27.43-1.27,1C176.32,129.24,177.7,129.6,178.66,130.18Z"/>
  <path class="cls-2" d="M183.52,129.55h1.93a.85.85,0,0,1,.54.13.61.61,0,0,1,.24.55.63.63,0,0,1-.24.57.79.79,0,0,1-.54.12h-1.93v2.76h2.8a.88.88,0,0,1,.55.12.66.66,0,0,1,.23.56.68.68,0,0,1-.23.57.88.88,0,0,1-.55.11h-3.58c-.55,0-.73-.22-.73-.74v-7.51c0-.54.2-.73.73-.73H186a.84.84,0,0,1,.54.12.62.62,0,0,1,.24.56.65.65,0,0,1-.24.57.84.84,0,0,1-.54.11h-2.44Z"/>
  <path class="cls-2" d="M192.71,133.84a3.4,3.4,0,0,0,1.31-.26c.54-.22.76-.44,1-.44s.61.45.61.75-.22.51-.55.72a4.82,4.82,0,0,1-2.42.59,4.39,4.39,0,0,1-4.56-4.72,4.32,4.32,0,0,1,4.56-4.62,4.74,4.74,0,0,1,2.42.6c.36.22.55.43.55.72s-.22.78-.61.78-.52-.22-1.07-.45a3.39,3.39,0,0,0-1.34-.29c-1.46,0-2.93.9-2.93,3.22S191.17,133.84,192.71,133.84Z"/>
  <path class="cls-2" d="M203.07,133.21a3,3,0,0,0,.49-2v-4.42a1,1,0,0,1,.11-.61.77.77,0,0,1,.65-.24.79.79,0,0,1,.66.24,1,1,0,0,1,.11.61v4.33a4.14,4.14,0,0,1-.82,2.94,4.66,4.66,0,0,1-6.11,0,4,4,0,0,1-.82-2.94v-4.33a1,1,0,0,1,.11-.61.8.8,0,0,1,.67-.24.76.76,0,0,1,.65.24,1,1,0,0,1,.11.61v4.42a3,3,0,0,0,.49,2,2.35,2.35,0,0,0,1.86.7A2.29,2.29,0,0,0,203.07,133.21Z"/>
  <path class="cls-2" d="M209.07,134.26a1,1,0,0,1-.11.61.76.76,0,0,1-.62.25.86.86,0,0,1-.67-.25,1,1,0,0,1-.11-.61V127c0-.43,0-.75.67-.93a5.93,5.93,0,0,1,1.44-.15,4.82,4.82,0,0,1,2.18.42,2.35,2.35,0,0,1,1.3,2.22,2.57,2.57,0,0,1-1.63,2.47l2.33,3.22c.26.36.18.83-.63.83a1.14,1.14,0,0,1-1.09-.66l-1.43-2.12c-.32-.47-.59-.94-.59-.94a4.79,4.79,0,0,1-.56,0,2.62,2.62,0,0,1-.48,0Zm0-4.09h.42c1.26,0,2.08-.38,2.08-1.5s-.79-1.42-1.76-1.42a4.77,4.77,0,0,0-.74.06Z"/>
  <path class="cls-2" d="M217,129.55H219a.88.88,0,0,1,.55.13.64.64,0,0,1,.23.55.65.65,0,0,1-.23.57.82.82,0,0,1-.55.12H217v2.76h2.81a.85.85,0,0,1,.54.12.63.63,0,0,1,.24.56.65.65,0,0,1-.24.57.85.85,0,0,1-.54.11h-3.58c-.56,0-.74-.22-.74-.74v-7.51c0-.54.21-.73.74-.73h3.22a.85.85,0,0,1,.54.12.62.62,0,0,1,.24.56.65.65,0,0,1-.24.57.85.85,0,0,1-.54.11H217Z"/>
  <path class="cls-2" d="M232.28,133.21a3,3,0,0,0,.48-2v-4.42a.93.93,0,0,1,.12-.61,1,1,0,0,1,1.3,0,1,1,0,0,1,.11.61v4.33a4.14,4.14,0,0,1-.82,2.94,4.66,4.66,0,0,1-6.11,0,4,4,0,0,1-.81-2.94v-4.33a1,1,0,0,1,.11-.61.77.77,0,0,1,.66-.24.76.76,0,0,1,.65.24.93.93,0,0,1,.12.61v4.42a3,3,0,0,0,.48,2,2.36,2.36,0,0,0,1.86.7A2.32,2.32,0,0,0,232.28,133.21Z"/>
  <path class="cls-2" d="M238.83,131.86a4.78,4.78,0,0,1-.53,0v2.43a1,1,0,0,1-.11.61,1,1,0,0,1-1.31,0,.94.94,0,0,1-.12-.61V127c0-.4,0-.72.56-.9a5.15,5.15,0,0,1,1.51-.18,4.54,4.54,0,0,1,2.57.64,2.57,2.57,0,0,1,1.17,2.26C242.57,131,240.79,131.86,238.83,131.86Zm-.53-1.33s.21,0,.48,0c1.09,0,2.2-.33,2.2-1.63,0-1.14-.86-1.66-2-1.66a4,4,0,0,0-.63,0Z"/>
  <path class="cls-2" d="M250.31,134.22a6.91,6.91,0,0,1-3.83.9,6.24,6.24,0,0,1-1.86-.21c-.4-.14-.47-.37-.47-.83V127c0-.52.12-.77.77-.91a10,10,0,0,1,1.89-.14,6.28,6.28,0,0,1,3.63.87,4.77,4.77,0,0,1-.13,7.39Zm-4.62-.46a8,8,0,0,0,1.05.06c1.17,0,3.81-.17,3.81-3.25a3.18,3.18,0,0,0-1.11-2.64,4,4,0,0,0-2.57-.67,6.36,6.36,0,0,0-1.18.09Z"/>
  <path class="cls-2" d="M258.43,132.41h-3.26l-.75,2c-.18.45-.32.75-.95.75-.48,0-.69-.18-.69-.48a1.23,1.23,0,0,1,.12-.46l3-7.33c.22-.56.4-.93,1-.93s.71.37.93.93l2.9,7.33a1.23,1.23,0,0,1,.11.46c0,.3-.23.48-.72.48s-.75-.25-.94-.75Zm-2.75-1.33h2.25l-1.11-2.9Z"/>
  <path class="cls-2" d="M264.82,134.26a1,1,0,0,1-.11.61.83.83,0,0,1-.65.25.86.86,0,0,1-.67-.25,1,1,0,0,1-.11-.61v-6.84h-2.14a.87.87,0,0,1-.55-.11.65.65,0,0,1-.24-.57.62.62,0,0,1,.24-.56.87.87,0,0,1,.55-.12H267a.85.85,0,0,1,.54.12.62.62,0,0,1,.24.56.65.65,0,0,1-.24.57.85.85,0,0,1-.54.11h-2.15Z"/>
  <path class="cls-2" d="M270.73,129.55h1.93a.85.85,0,0,1,.54.13.61.61,0,0,1,.24.55.63.63,0,0,1-.24.57.79.79,0,0,1-.54.12h-1.93v2.76h2.8a.88.88,0,0,1,.55.12.63.63,0,0,1,.23.56.65.65,0,0,1-.23.57.88.88,0,0,1-.55.11H270c-.55,0-.73-.22-.73-.74v-7.51c0-.54.21-.73.73-.73h3.22a.88.88,0,0,1,.55.12.64.64,0,0,1,.23.56.68.68,0,0,1-.23.57.88.88,0,0,1-.55.11h-2.44Z"/>
  <path class="cls-2" d="M279.73,130.18a2.66,2.66,0,0,1-1.5,5,4.26,4.26,0,0,1-1.93-.47c-.38-.21-.67-.5-.67-.83a.73.73,0,0,1,.63-.74c.47,0,.9.74,1.93.74a1.29,1.29,0,0,0,1.44-1.27c0-.78-.58-1.16-1.17-1.47-.82-.43-2.61-1.07-2.61-2.85a2.53,2.53,0,0,1,2.82-2.42c1.18,0,2.32.54,2.32,1.15a.75.75,0,0,1-.64.72c-.43,0-.86-.57-1.69-.57s-1.26.43-1.26,1C277.4,129.24,278.77,129.6,279.73,130.18Z"/>
</svg>
