<svg width="200" height="70" viewBox="0 0 200 70" fill="none" xmlns="http://www.w3.org/2000/svg">
<path d="M12.5175 6.00345C14.1502 6.00246 15.7804 6.13494 17.3921 6.3996C18.9632 6.65142 20.4737 7.19923 21.8454 8.01465C23.024 7.43432 24.2529 6.96509 25.5164 6.61291C27.0656 6.18754 28.6657 5.98242 30.2707 6.00345C31.8958 6.00907 33.5171 6.16205 35.1152 6.46055C36.7427 6.75011 38.2851 7.40619 39.6287 8.38033C41.0673 9.47405 42.2066 10.9215 42.9386 12.5856C43.8895 14.8778 44.3313 17.3538 44.2325 19.8381V38.0608C43.2982 38.2489 42.3537 38.3811 41.404 38.4569C40.5615 38.5178 39.8193 38.5483 39.1774 38.5483C38.5354 38.5483 37.7732 38.5178 36.8905 38.4569C35.9408 38.3811 34.9964 38.2489 34.062 38.0608V20.9351C34.1995 19.3135 33.8198 17.6901 32.9788 16.3032C32.5325 15.812 31.9791 15.4332 31.3626 15.1969C30.7462 14.9606 30.0838 14.8734 29.4282 14.9421C28.8716 14.9415 28.3166 15.0028 27.7732 15.125C27.3956 15.2006 27.0236 15.3024 26.6599 15.4297C27.0409 17.0256 27.2228 18.6636 27.2015 20.3053V38.1014C26.2671 38.2895 25.3227 38.4218 24.373 38.4975C23.5305 38.5585 22.7883 38.5889 22.1463 38.5889C21.5044 38.5889 20.7421 38.5585 19.8595 38.4975C18.9098 38.4218 17.9654 38.2895 17.031 38.1014V20.9351C17.1695 19.3238 16.8196 17.708 16.028 16.3032C15.5971 15.8033 15.0519 15.4178 14.4399 15.1806C13.8279 14.9433 13.1679 14.8614 12.5175 14.9421C12.0437 14.9451 11.5708 14.9859 11.1033 15.064C10.7814 15.094 10.4665 15.1763 10.1705 15.3078V38.1014C9.23613 38.2895 8.29167 38.4218 7.34199 38.4975C6.49947 38.5585 5.75724 38.5889 5.11532 38.5889C4.4734 38.5889 3.71112 38.5585 2.82847 38.4975C1.87879 38.4218 0.934339 38.2895 0 38.1014V8.13655C1.40421 7.64898 3.07588 7.17157 5.01502 6.70433C7.48182 6.1854 9.9986 5.95028 12.5175 6.00345Z" fill="#FBFBFB"/>
<path d="M49.1691 22.4277C49.1464 20.1231 49.485 17.8295 50.1721 15.6323C50.7759 13.6837 51.781 11.8869 53.1209 10.3606C54.4602 8.87396 56.1172 7.71702 57.9654 6.97809C62.302 5.39337 67.0491 5.39337 71.3856 6.97809C73.2339 7.71702 74.8909 8.87396 76.2301 10.3606C77.57 11.8869 78.5751 13.6837 79.179 15.6323C79.8661 17.8295 80.2046 20.1231 80.182 22.4277C80.2051 24.6925 79.8664 26.9461 79.179 29.1013C78.5697 31.0202 77.5645 32.786 76.2301 34.2816C74.8881 35.7502 73.2305 36.8867 71.3856 37.6032C67.0421 39.1471 62.3089 39.1471 57.9654 37.6032C56.1205 36.8867 54.463 35.7502 53.1209 34.2816C51.7865 32.786 50.7814 31.0202 50.1721 29.1013C49.4847 26.9461 49.146 24.6925 49.1691 22.4277ZM69.8711 22.4277C69.9939 20.354 69.546 18.2863 68.5772 16.4551C68.1601 15.7899 67.5742 15.2505 66.8808 14.8931C66.1874 14.5357 65.4119 14.3736 64.6354 14.4236C63.8628 14.3715 63.0908 14.533 62.4018 14.8908C61.7128 15.2486 61.1328 15.7893 60.7237 16.4551C59.776 18.2933 59.3392 20.3577 59.4599 22.4277C59.3431 24.478 59.7801 26.5217 60.7237 28.3395C61.1328 29.0052 61.7128 29.5459 62.4018 29.9038C63.0908 30.2616 63.8628 30.4231 64.6354 30.371C65.4119 30.421 66.1874 30.2588 66.8808 29.9014C67.5742 29.5441 68.1601 29.0046 68.5772 28.3395C69.5415 26.5285 69.9895 24.4817 69.8711 22.4277Z" fill="#FBFBFB"/>
<path d="M96.0074 5.80032C98.8286 5.73832 101.642 6.12915 104.342 6.95828C106.455 7.60857 108.403 8.71782 110.049 10.2087C111.53 11.6039 112.647 13.3488 113.299 15.2875C113.998 17.4295 114.337 19.675 114.302 21.9305C114.333 24.2895 113.977 26.6373 113.249 28.8783C112.584 30.8904 111.449 32.7096 109.939 34.1806C108.27 35.7397 106.275 36.8961 104.102 37.563C101.302 38.4146 98.3881 38.8157 95.4658 38.7515C93.4999 38.7515 91.7446 38.6804 90.2 38.5382C88.6554 38.396 87.0405 38.203 85.3555 37.9592V6.6434C87.0405 6.44024 88.8259 6.24725 90.7115 6.06441C92.5972 5.88158 94.3624 5.79354 96.0074 5.80032ZM95.5259 30.0566C95.7377 30.0613 95.9489 30.0817 96.1578 30.1175C96.5471 30.1656 96.9392 30.1859 97.3313 30.1785C98.2551 30.2504 99.1832 30.1157 100.05 29.7839C100.917 29.4522 101.701 28.9315 102.346 28.2587C103.47 26.9721 104.031 24.8661 104.031 21.9407C104.031 19.3404 103.49 17.4409 102.407 16.2423C101.805 15.6262 101.08 15.1472 100.281 14.8371C99.482 14.5271 98.6269 14.3932 97.7727 14.4444C97.2912 14.4444 96.8499 14.4647 96.4487 14.5054C96.0475 14.546 95.7466 14.5866 95.546 14.6272L95.5259 30.0566Z" fill="#FBFBFB"/>
<path d="M149.166 6.00332C150.941 6.00414 152.713 6.15706 154.462 6.46041C156.157 6.75055 157.772 7.40517 159.196 8.38019C160.701 9.45098 161.904 10.9003 162.687 12.5854C163.68 14.8663 164.143 17.3474 164.041 19.8379V38.0606C163.106 38.2487 162.162 38.381 161.212 38.4568C160.37 38.5177 159.628 38.5482 158.986 38.5482C158.344 38.5482 157.581 38.5177 156.699 38.4568C155.749 38.381 154.805 38.2487 153.87 38.0606V20.9349C153.87 18.7815 153.469 17.2376 152.667 16.3031C152.192 15.8187 151.618 15.4458 150.986 15.2106C150.353 14.9754 149.677 14.8837 149.006 14.942C148.532 14.945 148.059 14.9857 147.592 15.0639C147.27 15.0939 146.955 15.1762 146.659 15.3077V38.1012C145.724 38.2893 144.78 38.4216 143.83 38.4974C142.988 38.5583 142.246 38.5888 141.604 38.5888C140.962 38.5888 140.199 38.5583 139.317 38.4974C138.367 38.4216 137.423 38.2893 136.488 38.1012V8.13641C138.168 7.57103 139.876 7.093 141.604 6.70419C144.091 6.18774 146.628 5.95267 149.166 6.00332Z" fill="#FBFBFB"/>
<path d="M168.985 22.4277C168.963 20.1231 169.301 17.8295 169.988 15.6323C170.592 13.6837 171.597 11.8869 172.937 10.3606C174.277 8.87396 175.934 7.71702 177.782 6.97809C182.118 5.39337 186.865 5.39337 191.202 6.97809C193.05 7.71702 194.707 8.87396 196.047 10.3606C197.386 11.8869 198.392 13.6837 198.995 15.6323C199.682 17.8295 200.021 20.1231 199.998 22.4277C200.021 24.6925 199.683 26.9461 198.995 29.1013C198.386 31.0202 197.381 32.786 196.047 34.2816C194.704 35.7502 193.047 36.8867 191.202 37.6032C186.859 39.1471 182.125 39.1471 177.782 37.6032C175.937 36.8867 174.279 35.7502 172.937 34.2816C171.603 32.786 170.598 31.0202 169.988 29.1013C169.301 26.9461 168.962 24.6925 168.985 22.4277ZM189.687 22.4277C189.81 20.354 189.362 18.2863 188.394 16.4551C187.976 15.7899 187.391 15.2505 186.697 14.8931C186.004 14.5357 185.228 14.3736 184.452 14.4236C183.679 14.3715 182.907 14.533 182.218 14.8908C181.529 15.2486 180.949 15.7893 180.54 16.4551C179.585 18.2913 179.142 20.3558 179.256 22.4277C179.139 24.478 179.576 26.5217 180.52 28.3395C180.929 29.0052 181.509 29.5459 182.198 29.9038C182.887 30.2616 183.659 30.4231 184.432 30.371C185.208 30.421 185.984 30.2588 186.677 29.9014C187.371 29.5441 187.956 29.0046 188.374 28.3395C189.345 26.5306 189.8 24.4836 189.687 22.4277Z" fill="#FBFBFB"/>
<path d="M119.308 0.365673C120.234 0.207157 121.169 0.105393 122.107 0.0609429C123.009 0.0203127 123.862 0 124.664 0C125.467 0 126.309 0.0203127 127.192 0.0609429C128.14 0.10852 129.084 0.21026 130.02 0.365673L129.479 28.8069C128.476 29.01 127.593 29.1522 126.831 29.2335C126.111 29.3124 125.388 29.3531 124.664 29.3554C123.047 29.3148 121.436 29.1312 119.85 28.8069L119.308 0.365673ZM130.161 38.9644C130.161 40.0654 129.839 41.1416 129.235 42.0569C128.631 42.9723 127.772 43.6858 126.768 44.1071C125.763 44.5284 124.658 44.6386 123.592 44.4238C122.526 44.2091 121.547 43.6789 120.778 42.9004C120.009 42.122 119.486 41.1301 119.274 40.0504C119.062 38.9706 119.17 37.8514 119.586 36.8343C120.002 35.8172 120.707 34.9478 121.611 34.3362C122.515 33.7245 123.577 33.3981 124.664 33.3981C125.387 33.3981 126.103 33.5424 126.77 33.8228C127.438 34.1031 128.044 34.5141 128.555 35.032C129.065 35.55 129.47 36.1648 129.745 36.8413C130.021 37.5178 130.162 38.2428 130.161 38.9746V38.9644Z" fill="#FBFBFB"/>
<path d="M17.632 64.8968C18.1789 65.189 18.6086 65.6645 18.8476 66.242C19.0866 66.8195 19.1202 67.4631 18.9425 68.0629C18.7648 68.6627 18.387 69.1813 17.8735 69.5302C17.3601 69.8791 16.7429 70.0365 16.1275 69.9756C15.4543 69.9717 14.7914 69.8082 14.1917 69.4982C13.8206 69.2849 13.5197 68.9903 13.5197 68.6551C13.5156 68.4731 13.5777 68.2959 13.6942 68.1573C13.8107 68.0187 13.9735 67.9284 14.1516 67.9035C14.623 67.9035 15.0543 68.6551 16.0874 68.6551C16.2678 68.6765 16.4507 68.6592 16.6241 68.6043C16.7975 68.5494 16.9575 68.4581 17.0937 68.3364C17.23 68.2147 17.3394 68.0654 17.4149 67.898C17.4903 67.7307 17.5302 67.5491 17.5317 67.3651C17.5317 66.5728 16.95 66.1868 16.3683 65.872C15.5458 65.4352 13.7504 64.7851 13.7504 62.977C13.7634 62.6237 13.8483 62.2769 13.9997 61.9584C14.1511 61.6398 14.3658 61.3562 14.6303 61.1255C14.8948 60.8948 15.2035 60.7218 15.5371 60.6175C15.8707 60.5131 16.2219 60.4795 16.5689 60.5189C17.7524 60.5189 18.8958 61.0674 18.8958 61.687C18.8927 61.8665 18.8262 62.0388 18.7085 62.173C18.5907 62.3071 18.4295 62.3942 18.2539 62.4184C17.8226 62.4184 17.3913 61.8394 16.5588 61.8394C15.7263 61.8394 15.295 62.2762 15.295 62.8552C15.295 63.942 16.6692 64.3077 17.632 64.8968Z" fill="#FBFBFB"/>
<path d="M25.6982 67.162H22.4284L21.6762 69.1935C21.4956 69.6506 21.3552 69.9553 20.7334 69.9553C20.1115 69.9553 20.0312 69.7725 20.0312 69.4678C20.0407 69.3043 20.0852 69.1448 20.1616 69.0005L23.1707 61.555C23.3913 60.9862 23.5719 60.6104 24.1737 60.6104C24.7755 60.6104 24.8858 60.9862 25.1065 61.555L28.0152 69.0005C28.0814 69.1476 28.1189 69.3062 28.1255 69.4678C28.1255 69.7725 27.8948 69.9553 27.4033 69.9553C26.9119 69.9553 26.6511 69.7014 26.4605 69.1935L25.6982 67.162ZM22.94 65.811H25.1967L24.0834 62.8653L22.94 65.811Z" fill="#FBFBFB"/>
<path d="M31.1829 69.0412C31.2118 69.2544 31.1732 69.4714 31.0726 69.6608C30.9878 69.7474 30.8858 69.8148 30.7734 69.8585C30.6611 69.9023 30.5408 69.9215 30.4206 69.9148C30.2972 69.9238 30.1733 69.9057 30.0573 69.8619C29.9413 69.8181 29.8361 69.7495 29.7486 69.6608C29.6479 69.4714 29.6093 69.2544 29.6383 69.0412V61.3824C29.6383 60.9152 29.8589 60.712 30.3805 60.712H33.8208C34.0097 60.6904 34.2003 60.7333 34.3624 60.8339C34.4475 60.8997 34.5144 60.9867 34.5565 61.0863C34.5987 61.186 34.6148 61.295 34.6031 61.4027C34.6137 61.5119 34.5972 61.622 34.5551 61.7231C34.5131 61.8242 34.4469 61.9131 34.3624 61.9817C34.1991 62.0788 34.0086 62.1182 33.8208 62.0935H31.1628V64.5008H33.4096C33.5998 64.4788 33.7917 64.5256 33.9512 64.6328C34.0344 64.6975 34.0994 64.7831 34.1399 64.8811C34.1804 64.9791 34.1948 65.0861 34.1819 65.1915C34.1936 65.2998 34.1786 65.4093 34.1384 65.5104C34.0981 65.6114 34.0338 65.7007 33.9512 65.7705C33.7874 65.8662 33.5973 65.9054 33.4096 65.8822H31.1628L31.1829 69.0412Z" fill="#FBFBFB"/>
<path d="M37.7528 64.2569H39.6886C39.8787 64.2382 40.0694 64.2847 40.2302 64.3889C40.3145 64.4531 40.3809 64.5383 40.4231 64.6362C40.4653 64.7341 40.4818 64.8413 40.471 64.9476C40.4834 65.0569 40.4678 65.1676 40.4256 65.2691C40.3834 65.3705 40.3161 65.4592 40.2302 65.5266C40.0701 65.632 39.8778 65.6753 39.6886 65.6485H37.7528V68.4519H40.5612C40.7533 68.4303 40.9471 68.4731 41.1129 68.5738C41.1934 68.6431 41.2563 68.7309 41.2964 68.8299C41.3366 68.9288 41.3527 69.0361 41.3436 69.1427C41.3527 69.2507 41.3366 69.3595 41.2965 69.4601C41.2564 69.5606 41.1935 69.6503 41.1129 69.7216C40.946 69.8188 40.7522 69.8581 40.5612 69.8334H36.9705C36.4188 69.8334 36.2383 69.6099 36.2383 69.0817V61.4534C36.2383 60.9049 36.4389 60.7119 36.9705 60.7119H40.2001C40.3891 60.6894 40.58 60.7324 40.7418 60.8338C40.8268 60.8996 40.8937 60.9865 40.9359 61.0862C40.9781 61.1858 40.9941 61.2948 40.9825 61.4026C40.993 61.5118 40.9765 61.6219 40.9345 61.7229C40.8925 61.824 40.8262 61.9129 40.7418 61.9816C40.5788 62.0794 40.388 62.1188 40.2001 62.0933H37.7528V64.2569Z" fill="#FBFBFB"/>
<path d="M52.0146 67.162H48.7348L47.9825 69.1935C47.802 69.6506 47.6716 69.9553 47.0397 69.9553C46.4078 69.9553 46.3477 69.7725 46.3477 69.4678C46.3523 69.3048 46.3935 69.145 46.468 69.0005L49.477 61.555C49.6977 60.9862 49.8782 60.6104 50.48 60.6104C51.0818 60.6104 51.1821 60.9862 51.4128 61.555L54.3215 69.0005C54.3878 69.1476 54.4253 69.3062 54.4319 69.4678C54.4319 69.7725 54.1911 69.9553 53.7097 69.9553C53.2283 69.9553 52.9575 69.7014 52.7569 69.1935L52.0146 67.162ZM49.2564 65.811H51.5131L50.3998 62.8653L49.2564 65.811Z" fill="#FBFBFB"/>
<path d="M57.443 69.0409C57.472 69.2541 57.4333 69.4711 57.3327 69.6605C57.1616 69.8234 56.9356 69.914 56.7008 69.914C56.466 69.914 56.24 69.8234 56.0689 69.6605C55.9682 69.4711 55.9296 69.2541 55.9586 69.0409V61.2298C55.9586 60.8235 56.2093 60.5898 56.6607 60.5898C57.112 60.5898 57.4029 60.9047 57.8041 61.4024L62.3778 67.1212V61.4735C62.351 61.2637 62.3896 61.0507 62.4881 60.8641C62.5648 60.7753 62.6611 60.7061 62.7691 60.662C62.8772 60.6178 62.9939 60.6001 63.11 60.6102C63.2277 60.5984 63.3464 60.6154 63.4563 60.6596C63.5662 60.7037 63.6642 60.7739 63.7419 60.8641C63.8439 61.0495 63.886 61.2627 63.8622 61.4735V69.305C63.8694 69.3954 63.8562 69.4862 63.8237 69.5707C63.7912 69.6551 63.7402 69.731 63.6745 69.7926C63.6089 69.8542 63.5303 69.8999 63.4447 69.9263C63.359 69.9527 63.2686 69.9591 63.1802 69.945C62.7188 69.945 62.4982 69.6809 62.0769 69.1527L57.443 63.373V69.0409Z" fill="#FBFBFB"/>
<path d="M72.5557 69.0007C71.3897 69.676 70.0551 69.9936 68.7142 69.9149C68.0853 69.9392 67.4564 69.8673 66.8486 69.7016C66.4374 69.5594 66.3672 69.3257 66.3672 68.8585V61.6669C66.3672 61.1387 66.4976 60.8848 67.1495 60.7426C67.7755 60.6338 68.4103 60.5862 69.0452 60.6004C70.3161 60.5133 71.583 60.8216 72.6761 61.4841C73.2201 61.9464 73.6555 62.5259 73.9504 63.1802C74.2453 63.8345 74.3923 64.5472 74.3808 65.2663C74.3693 65.9855 74.1994 66.693 73.8837 67.3372C73.568 67.9815 73.1143 68.5463 72.5557 68.9905V69.0007ZM67.9218 68.5334C68.2712 68.5771 68.623 68.5975 68.975 68.5944C70.1485 68.5944 72.7864 68.4217 72.7864 65.2932C72.8233 64.7889 72.7416 64.283 72.5481 63.8168C72.3545 63.3507 72.0547 62.9377 71.6731 62.6116C70.9203 62.0917 70.0132 61.8513 69.1054 61.931C68.7089 61.9242 68.3127 61.9548 67.9218 62.0224V68.5334Z" fill="#FBFBFB"/>
<path d="M83.6321 64.8965C84.1789 65.1887 84.6086 65.6642 84.8476 66.2417C85.0866 66.8192 85.1202 67.4628 84.9425 68.0626C84.7648 68.6623 84.387 69.181 83.8735 69.5299C83.3601 69.8788 82.7429 70.0362 82.1275 69.9753C81.4541 69.9729 80.7908 69.8093 80.1917 69.4979C79.8106 69.2846 79.5197 68.99 79.5197 68.6548C79.5156 68.4728 79.5777 68.2956 79.6942 68.157C79.8107 68.0184 79.9736 67.928 80.1516 67.9032C80.623 67.9032 81.0543 68.6548 82.0874 68.6548C82.2678 68.6762 82.4507 68.6589 82.6241 68.604C82.7975 68.5491 82.9575 68.4578 83.0938 68.3361C83.23 68.2144 83.3394 68.0651 83.4149 67.8977C83.4903 67.7303 83.5302 67.5488 83.5317 67.3648C83.5317 66.5725 82.95 66.1865 82.3582 65.8716C81.5358 65.4349 79.7404 64.7848 79.7404 62.9767C79.7533 62.6225 79.8384 62.2747 79.9904 61.9554C80.1424 61.636 80.358 61.352 80.6237 61.1211C80.8894 60.8902 81.1993 60.7175 81.5341 60.6138C81.8688 60.5102 82.2211 60.4777 82.5689 60.5186C83.7524 60.5186 84.8958 61.0671 84.8958 61.6867C84.8907 61.8656 84.8235 62.0368 84.7061 62.1706C84.5888 62.3043 84.4287 62.3919 84.2539 62.4181C83.8226 62.4181 83.3913 61.8391 82.5588 61.8391C81.7263 61.8391 81.285 62.2759 81.285 62.8548C81.285 63.9417 82.6692 64.3074 83.6321 64.8965Z" fill="#FBFBFB"/>
<path d="M88.5067 64.2569H90.4425C90.6326 64.2382 90.8233 64.2847 90.9842 64.3889C91.0684 64.4531 91.1349 64.5383 91.177 64.6362C91.2192 64.7341 91.2357 64.8413 91.2249 64.9476C91.2373 65.0569 91.2217 65.1676 91.1795 65.2691C91.1373 65.3705 91.07 65.4592 90.9842 65.5266C90.824 65.632 90.6317 65.6753 90.4425 65.6485H88.5067V68.4519H91.3151C91.5072 68.4303 91.701 68.4731 91.8668 68.5738C91.9473 68.6431 92.0102 68.7309 92.0503 68.8299C92.0905 68.9288 92.1066 69.0361 92.0975 69.1427C92.1066 69.2507 92.0905 69.3595 92.0504 69.4601C92.0103 69.5606 91.9474 69.6503 91.8668 69.7216C91.6999 69.8188 91.5061 69.8581 91.3151 69.8334H87.7244C87.1727 69.8334 86.9922 69.6099 86.9922 69.0817V61.4534C86.9922 60.9049 87.1928 60.7119 87.7244 60.7119H90.9942C91.1831 60.6894 91.374 60.7324 91.5358 60.8338C91.6209 60.8996 91.6877 60.9865 91.7299 61.0862C91.7721 61.1858 91.7881 61.2948 91.7765 61.4026C91.787 61.5118 91.7705 61.6219 91.7285 61.7229C91.6865 61.824 91.6202 61.9129 91.5358 61.9816C91.3728 62.0794 91.182 62.1188 90.9942 62.0933H88.5468L88.5067 64.2569Z" fill="#FBFBFB"/>
<path d="M97.7225 68.6146C98.1735 68.6154 98.62 68.5257 99.0365 68.3505C99.5781 68.127 99.7988 67.9036 100.039 67.9036C100.28 67.9036 100.651 68.3607 100.651 68.6654C100.651 68.9701 100.431 69.1834 100.1 69.3967C99.3564 69.8084 98.5194 70.0151 97.6724 69.996C97.051 70.0222 96.4312 69.9149 95.8538 69.681C95.2764 69.4471 94.7545 69.092 94.3224 68.639C93.8903 68.1861 93.5578 67.6456 93.3469 67.0531C93.136 66.4606 93.0514 65.8296 93.0987 65.2017C93.0549 64.5792 93.1426 63.9545 93.3561 63.3691C93.5696 62.7837 93.904 62.2512 94.3368 61.807C94.7697 61.3629 95.2911 61.0174 95.8663 60.7935C96.4415 60.5697 97.0572 60.4726 97.6724 60.5089C98.5207 60.489 99.3588 60.6995 100.1 61.1183C100.461 61.3418 100.651 61.5551 100.651 61.8497C100.651 62.1442 100.431 62.642 100.039 62.642C99.6483 62.642 99.5179 62.4185 98.9663 62.1849C98.5427 61.995 98.0854 61.8948 97.6222 61.8903C96.1578 61.8903 94.6834 62.8045 94.6834 65.161C94.6834 67.5176 96.1779 68.6146 97.7225 68.6146Z" fill="#FBFBFB"/>
<path d="M108.116 67.9746C108.511 67.3773 108.685 66.6578 108.607 65.9431V61.4534C108.578 61.2403 108.617 61.0233 108.717 60.8338C108.8 60.7444 108.902 60.6758 109.015 60.6335C109.128 60.5911 109.25 60.5762 109.369 60.59C109.491 60.5762 109.614 60.591 109.729 60.6333C109.843 60.6756 109.947 60.7442 110.031 60.8338C110.132 61.0233 110.171 61.2403 110.142 61.4534V65.8516C110.253 66.9168 109.959 67.9849 109.319 68.838C108.469 69.5855 107.381 69.9971 106.255 69.9971C105.129 69.9971 104.041 69.5855 103.191 68.838C102.538 67.9917 102.242 66.918 102.368 65.8516V61.4534C102.339 61.2403 102.378 61.0233 102.479 60.8338C102.565 60.7434 102.67 60.6744 102.787 60.6321C102.903 60.5898 103.028 60.5754 103.151 60.59C103.271 60.5754 103.392 60.5899 103.506 60.6323C103.619 60.6747 103.721 60.7438 103.803 60.8338C103.903 61.0233 103.942 61.2403 103.913 61.4534V65.9431C103.835 66.6578 104.009 67.3773 104.405 67.9746C104.645 68.2239 104.937 68.4168 105.259 68.5396C105.582 68.6625 105.927 68.7123 106.27 68.6856C106.611 68.7135 106.953 68.6642 107.272 68.5412C107.591 68.4182 107.88 68.2246 108.116 67.9746Z" fill="#FBFBFB"/>
<path d="M114.133 69.0407C114.162 69.2538 114.124 69.4708 114.023 69.6603C113.945 69.7478 113.849 69.8162 113.741 69.8602C113.633 69.9042 113.517 69.9227 113.401 69.9142C113.278 69.9232 113.154 69.9052 113.038 69.8614C112.922 69.8175 112.817 69.749 112.729 69.6603C112.628 69.4708 112.59 69.2538 112.619 69.0407V61.6663C112.619 61.2295 112.619 60.9045 113.291 60.7216C113.764 60.6113 114.249 60.5601 114.735 60.5693C115.487 60.5372 116.235 60.6833 116.922 60.9959C117.332 61.2027 117.674 61.5261 117.905 61.9266C118.137 62.3271 118.248 62.7873 118.226 63.2509C118.242 63.7887 118.093 64.3184 117.8 64.7676C117.508 65.2167 117.085 65.5632 116.591 65.7598L118.928 69.0305C119.188 69.3962 119.108 69.8736 118.296 69.8736C118.068 69.8848 117.843 69.827 117.648 69.7075C117.453 69.5881 117.298 69.4125 117.202 69.2032L115.768 67.0498C115.447 66.5724 115.176 66.095 115.176 66.095C114.989 66.1061 114.802 66.1061 114.615 66.095C114.455 66.1099 114.293 66.1099 114.133 66.095V69.0407ZM114.133 64.8862H114.555C115.818 64.8862 116.641 64.5003 116.641 63.3626C116.641 62.225 115.848 61.9202 114.875 61.9202C114.627 61.921 114.379 61.9414 114.133 61.9812V64.8862Z" fill="#FBFBFB"/>
<path d="M122.085 64.257H124.091C124.284 64.2384 124.478 64.2848 124.643 64.3891C124.723 64.4562 124.786 64.5422 124.826 64.6395C124.866 64.7369 124.882 64.8426 124.873 64.9477C124.885 65.056 124.87 65.1656 124.83 65.2666C124.789 65.3676 124.725 65.457 124.643 65.5267C124.479 65.632 124.283 65.6752 124.091 65.6486H122.085V68.4521H124.903C125.092 68.4304 125.283 68.4733 125.445 68.574C125.529 68.6405 125.596 68.7275 125.638 68.827C125.68 68.9264 125.696 69.0351 125.686 69.1428C125.696 69.252 125.68 69.3621 125.638 69.4631C125.596 69.5642 125.529 69.6531 125.445 69.7218C125.282 69.8189 125.091 69.8582 124.903 69.8335H121.313C120.751 69.8335 120.57 69.6101 120.57 69.0819V61.4535C120.57 60.905 120.781 60.712 121.313 60.712H124.542C124.731 60.6904 124.922 60.7333 125.084 60.8339C125.169 60.8997 125.236 60.9867 125.278 61.0863C125.32 61.186 125.336 61.295 125.325 61.4027C125.335 61.5119 125.319 61.622 125.277 61.7231C125.235 61.8242 125.168 61.9131 125.084 61.9817C124.921 62.0788 124.73 62.1182 124.542 62.0935H122.085V64.257Z" fill="#FBFBFB"/>
<path d="M137.41 67.9746C137.802 67.3761 137.972 66.6566 137.891 65.9431V61.4535C137.86 61.2391 137.903 61.0203 138.012 60.8338C138.193 60.6765 138.425 60.59 138.664 60.59C138.903 60.59 139.134 60.6765 139.316 60.8338C139.416 61.0233 139.455 61.2403 139.426 61.4535V65.8517C139.537 66.9169 139.243 67.985 138.604 68.838C137.753 69.5855 136.665 69.9971 135.539 69.9971C134.413 69.9971 133.325 69.5855 132.475 68.838C131.826 67.9903 131.534 66.9167 131.663 65.8517V61.4535C131.634 61.2403 131.672 61.0233 131.773 60.8338C131.856 60.743 131.96 60.6735 132.075 60.6311C132.19 60.5887 132.314 60.5746 132.435 60.5901C132.555 60.5755 132.677 60.5899 132.79 60.6323C132.903 60.6747 133.005 60.7438 133.087 60.8338C133.196 61.0203 133.239 61.2391 133.207 61.4535V65.9431C133.126 66.6566 133.297 67.3761 133.689 67.9746C133.93 68.2234 134.222 68.4159 134.544 68.5387C134.866 68.6615 135.211 68.7117 135.554 68.6856C135.896 68.7129 136.24 68.6634 136.561 68.5404C136.882 68.4175 137.172 68.2243 137.41 67.9746Z" fill="#FBFBFB"/>
<path d="M143.98 66.6033C143.803 66.6132 143.626 66.6132 143.449 66.6033V69.0716C143.478 69.2847 143.439 69.5017 143.338 69.6912C143.156 69.8513 142.923 69.9394 142.681 69.9394C142.44 69.9394 142.207 69.8513 142.024 69.6912C141.916 69.5045 141.874 69.286 141.904 69.0716V61.6667C141.904 61.2604 141.904 60.9354 142.466 60.7525C142.959 60.616 143.469 60.5544 143.98 60.5697C144.884 60.5221 145.782 60.7484 146.558 61.2198C146.934 61.4663 147.239 61.8076 147.445 62.2102C147.651 62.6127 147.75 63.0625 147.732 63.5154C147.732 65.7297 145.946 66.6033 143.98 66.6033ZM143.449 65.2523C143.449 65.2523 143.659 65.2523 143.93 65.2523C145.023 65.2523 146.137 64.9171 146.137 63.5966C146.137 62.4387 145.274 61.9105 144.131 61.9105C143.92 61.8937 143.709 61.8937 143.499 61.9105L143.449 65.2523Z" fill="#FBFBFB"/>
<path d="M155.495 69.0004C154.329 69.6756 152.994 69.9932 151.653 69.9145C151.024 69.9388 150.396 69.8669 149.788 69.7012C149.387 69.559 149.316 69.3254 149.316 68.8582V61.6666C149.316 61.1384 149.437 60.8845 150.089 60.7423C150.715 60.6342 151.349 60.5866 151.984 60.6001C153.258 60.5141 154.528 60.8223 155.625 61.4838C156.167 61.9479 156.6 62.5282 156.893 63.1828C157.186 63.8374 157.332 64.5498 157.319 65.2683C157.307 65.9869 157.137 66.6936 156.821 67.3374C156.505 67.9811 156.053 68.5457 155.495 68.9902V69.0004ZM150.861 68.5331C151.21 68.5768 151.562 68.5972 151.914 68.5941C153.088 68.5941 155.736 68.4214 155.736 65.2929C155.77 64.7888 155.687 64.2837 155.494 63.8179C155.301 63.3522 155.002 62.9389 154.622 62.6113C153.865 62.0937 152.955 61.8536 152.045 61.9307C151.648 61.9239 151.252 61.9545 150.861 62.0221V68.5331Z" fill="#FBFBFB"/>
<path d="M163.64 67.162H160.37L159.618 69.1935C159.437 69.6506 159.297 69.9553 158.665 69.9553C158.183 69.9553 157.973 69.7725 157.973 69.4678C157.982 69.3056 158.023 69.1469 158.093 69.0005L161.102 61.555C161.323 60.9862 161.503 60.6104 162.105 60.6104C162.707 60.6104 162.817 60.9862 163.038 61.555L165.947 69.0005C166.013 69.1476 166.05 69.3062 166.057 69.4678C166.057 69.7725 165.826 69.9553 165.335 69.9553C164.843 69.9553 164.582 69.7014 164.392 69.1935L163.64 67.162ZM160.881 65.811H163.138L162.025 62.8653L160.881 65.811Z" fill="#FBFBFB"/>
<path d="M170.05 69.0411C170.079 69.2542 170.04 69.4712 169.939 69.6607C169.855 69.7483 169.753 69.8164 169.641 69.8602C169.528 69.9041 169.408 69.9226 169.287 69.9146C169.164 69.9236 169.04 69.9056 168.924 69.8617C168.808 69.8179 168.703 69.7493 168.615 69.6607C168.515 69.4712 168.476 69.2542 168.505 69.0411V62.0933H166.359C166.168 62.1187 165.974 62.0795 165.807 61.9816C165.722 61.9129 165.656 61.824 165.614 61.7229C165.572 61.6218 165.556 61.5117 165.566 61.4026C165.555 61.2948 165.571 61.1858 165.613 61.0862C165.655 60.9865 165.722 60.8996 165.807 60.8337C165.972 60.7323 166.166 60.6895 166.359 60.7119H172.236C172.425 60.6902 172.616 60.7331 172.778 60.8337C172.863 60.8996 172.93 60.9865 172.972 61.0862C173.014 61.1858 173.03 61.2948 173.018 61.4026C173.029 61.5117 173.013 61.6218 172.97 61.7229C172.928 61.824 172.862 61.9129 172.778 61.9816C172.614 62.0787 172.424 62.118 172.236 62.0933H170.08L170.05 69.0411Z" fill="#FBFBFB"/>
<path d="M175.976 64.257H177.912C178.102 64.2384 178.293 64.2849 178.454 64.3891C178.538 64.4533 178.604 64.5385 178.646 64.6363C178.689 64.7342 178.705 64.8415 178.694 64.9477C178.707 65.057 178.691 65.1678 178.649 65.2692C178.607 65.3706 178.539 65.4593 178.454 65.5267C178.293 65.6321 178.101 65.6754 177.912 65.6486H175.976V68.4521H178.785C178.977 68.4304 179.17 68.4733 179.336 68.574C179.419 68.6416 179.483 68.7291 179.523 68.8285C179.564 68.9279 179.579 69.036 179.567 69.1428C179.579 69.2511 179.564 69.3606 179.523 69.4617C179.483 69.5627 179.419 69.652 179.336 69.7218C179.169 69.819 178.976 69.8582 178.785 69.8335H175.244C174.692 69.8335 174.512 69.6101 174.512 69.0819V61.4535C174.512 60.905 174.722 60.712 175.244 60.712H178.474C178.666 60.6904 178.859 60.7332 179.025 60.8339C179.107 60.9021 179.171 60.9897 179.211 61.089C179.251 61.1882 179.267 61.296 179.256 61.4027C179.265 61.5108 179.249 61.6195 179.209 61.7201C179.169 61.8207 179.106 61.9103 179.025 61.9817C178.858 62.0789 178.665 62.1181 178.474 62.0935H176.026L175.976 64.257Z" fill="#FBFBFB"/>
<path d="M185.003 64.8965C185.55 65.1887 185.98 65.6642 186.219 66.2417C186.458 66.8192 186.491 67.4628 186.314 68.0626C186.136 68.6623 185.758 69.181 185.245 69.5299C184.731 69.8788 184.114 70.0362 183.499 69.9753C182.825 69.9729 182.162 69.8093 181.563 69.4979C181.182 69.2846 180.891 68.99 180.891 68.6548C180.887 68.4728 180.949 68.2956 181.065 68.157C181.182 68.0184 181.345 67.928 181.523 67.9032C181.994 67.9032 182.425 68.6548 183.459 68.6548C183.639 68.6762 183.822 68.6589 183.995 68.604C184.169 68.5491 184.329 68.4578 184.465 68.3361C184.601 68.2144 184.711 68.0651 184.786 67.8977C184.861 67.7303 184.901 67.5488 184.903 67.3648C184.903 66.5725 184.321 66.1865 183.729 65.8716C182.907 65.4349 181.111 64.7848 181.111 62.9767C181.124 62.6225 181.209 62.2747 181.361 61.9554C181.514 61.636 181.729 61.352 181.995 61.1211C182.26 60.8902 182.57 60.7175 182.905 60.6138C183.24 60.5102 183.592 60.4777 183.94 60.5186C185.124 60.5186 186.267 61.0671 186.267 61.6867C186.262 61.8656 186.195 62.0368 186.077 62.1706C185.96 62.3043 185.8 62.3919 185.625 62.4181C185.194 62.4181 184.762 61.8391 183.93 61.8391C183.097 61.8391 182.666 62.2759 182.666 62.8548C182.666 63.9417 184.04 64.3074 185.003 64.8965Z" fill="#FBFBFB"/>
</svg>
