<svg width="140" height="32" viewBox="0 0 140 32" fill="none" xmlns="http://www.w3.org/2000/svg">
<path d="M8.76225 4.54808C9.90517 4.54739 11.0463 4.63936 12.1745 4.82309C13.2742 4.9979 14.3316 5.3782 15.2918 5.94428C16.1168 5.5414 16.977 5.21566 17.8615 4.97117C18.9459 4.67587 20.066 4.53347 21.1895 4.54808C22.327 4.55197 23.4619 4.65818 24.5806 4.8654C25.7199 5.06642 26.7996 5.52188 27.7401 6.19814C28.7471 6.95742 29.5446 7.96223 30.057 9.11748C30.7227 10.7088 31.0319 12.4276 30.9628 14.1523V26.8027C30.3087 26.9333 29.6476 27.0251 28.9828 27.0777C28.3931 27.1201 27.8735 27.1412 27.4242 27.1412C26.9748 27.1412 26.4412 27.1201 25.8234 27.0777C25.1586 27.0251 24.4975 26.9333 23.8434 26.8027V14.9138C23.9396 13.7881 23.6739 12.6611 23.0852 11.6983C22.7727 11.3574 22.3853 11.0944 21.9538 10.9303C21.5223 10.7663 21.0586 10.7057 20.5997 10.7534C20.2101 10.753 19.8216 10.7956 19.4412 10.8804C19.1769 10.9329 18.9166 11.0036 18.6619 11.0919C18.9286 12.1998 19.056 13.3369 19.041 14.4766V26.8309C18.387 26.9615 17.7259 27.0533 17.0611 27.1059C16.4713 27.1483 15.9518 27.1694 15.5024 27.1694C15.0531 27.1694 14.5195 27.1483 13.9016 27.1059C13.2369 27.0533 12.5758 26.9615 11.9217 26.8309V14.9138C12.0187 13.7952 11.7737 12.6735 11.2196 11.6983C10.918 11.3513 10.5363 11.0837 10.1079 10.919C9.67956 10.7542 9.21754 10.6974 8.76225 10.7534C8.43056 10.7555 8.09955 10.7838 7.77228 10.8381C7.54699 10.8589 7.32652 10.916 7.11933 11.0073V26.8309C6.46529 26.9615 5.80417 27.0533 5.1394 27.1059C4.54963 27.1483 4.03007 27.1694 3.58073 27.1694C3.13138 27.1694 2.59778 27.1483 1.97993 27.1059C1.31516 27.0533 0.654037 26.9615 0 26.8309V6.0289C0.982945 5.69043 2.15312 5.35901 3.51052 5.03463C5.23727 4.67439 6.99902 4.51117 8.76225 4.54808Z" fill="#004680"/>
<path d="M34.4187 15.9499C34.4029 14.35 34.6399 12.7577 35.1208 11.2324C35.5436 9.87965 36.2471 8.6323 37.185 7.57267C38.1225 6.54066 39.2824 5.73749 40.5762 5.22451C43.6118 4.12438 46.9347 4.12438 49.9703 5.22451C51.2641 5.73749 52.424 6.54066 53.3615 7.57267C54.2994 8.6323 55.003 9.87965 55.4257 11.2324C55.9067 12.7577 56.1436 14.35 56.1278 15.9499C56.1439 17.5221 55.9068 19.0866 55.4257 20.5828C54.9992 21.9149 54.2955 23.1408 53.3615 24.179C52.422 25.1986 51.2618 25.9875 49.9703 26.4849C46.9299 27.5567 43.6166 27.5567 40.5762 26.4849C39.2848 25.9875 38.1245 25.1986 37.185 24.179C36.251 23.1408 35.5474 21.9149 35.1208 20.5828C34.6397 19.0866 34.4026 17.5221 34.4187 15.9499ZM48.9102 15.9499C48.9961 14.5102 48.6826 13.0749 48.0044 11.8036C47.7125 11.3418 47.3023 10.9673 46.8169 10.7192C46.3315 10.4711 45.7887 10.3586 45.2452 10.3933C44.7044 10.3571 44.1639 10.4692 43.6816 10.7176C43.1993 10.966 42.7933 11.3414 42.507 11.8036C41.8436 13.0797 41.5378 14.5128 41.6223 15.9499C41.5406 17.3732 41.8464 18.792 42.507 20.0539C42.7933 20.5161 43.1993 20.8914 43.6816 21.1399C44.1639 21.3883 44.7044 21.5004 45.2452 21.4642C45.7887 21.4989 46.3315 21.3863 46.8169 21.1382C47.3023 20.8902 47.7125 20.5156 48.0044 20.0539C48.6795 18.7967 48.9931 17.3758 48.9102 15.9499Z" fill="#004680"/>
<path d="M67.2063 4.40677C69.1812 4.36373 71.1504 4.63505 73.0408 5.21064C74.52 5.66208 75.8833 6.43214 77.0358 7.46713C78.0723 8.4357 78.8538 9.64702 79.3106 10.9929C79.7997 12.4799 80.037 14.0388 80.0127 15.6046C80.0342 17.2422 79.7851 18.8721 79.2755 20.4279C78.8103 21.8246 78.0153 23.0876 76.9585 24.1088C75.7903 25.1911 74.3934 25.9939 72.8723 26.4569C70.9127 27.0481 68.8728 27.3265 66.8272 27.2819C65.4511 27.2819 64.2224 27.2326 63.1412 27.1339C62.0599 27.0351 60.9295 26.9012 59.75 26.7319V4.99204C60.9295 4.85101 62.1793 4.71703 63.4992 4.59011C64.8192 4.46318 66.0549 4.40206 67.2063 4.40677ZM66.8693 21.2458C67.0176 21.2491 67.1654 21.2632 67.3116 21.2881C67.5841 21.3215 67.8586 21.3356 68.1331 21.3305C68.7798 21.3804 69.4294 21.2869 70.0361 21.0566C70.6427 20.8262 71.1915 20.4648 71.6436 19.9977C72.43 19.1045 72.8232 17.6425 72.8232 15.6117C72.8232 13.8065 72.444 12.4878 71.6858 11.6557C71.2645 11.228 70.7573 10.8955 70.1979 10.6803C69.6386 10.465 69.04 10.3721 68.442 10.4076C68.105 10.4076 67.7961 10.4217 67.5153 10.4499C67.2344 10.4781 67.0238 10.5063 66.8834 10.5346L66.8693 21.2458Z" fill="#004680"/>
<path d="M104.418 4.54813C105.66 4.54871 106.9 4.65486 108.125 4.86546C109.311 5.06687 110.441 5.52132 111.439 6.1982C112.492 6.94155 113.334 7.94773 113.882 9.11753C114.577 10.701 114.901 12.4234 114.83 14.1523V26.8028C114.176 26.9334 113.515 27.0252 112.85 27.0778C112.26 27.1201 111.74 27.1413 111.291 27.1413C110.842 27.1413 110.308 27.1201 109.69 27.0778C109.026 27.0252 108.364 26.9334 107.71 26.8028V14.9139C107.71 13.419 107.43 12.3471 106.868 11.6984C106.536 11.3621 106.134 11.1032 105.691 10.9399C105.248 10.7767 104.775 10.713 104.305 10.7535C103.974 10.7556 103.643 10.7838 103.315 10.8381C103.09 10.8589 102.869 10.9161 102.662 11.0073V26.831C102.008 26.9616 101.347 27.0534 100.682 27.106C100.093 27.1483 99.573 27.1695 99.1237 27.1695C98.6744 27.1695 98.1407 27.1483 97.5229 27.106C96.8581 27.0534 96.197 26.9616 95.543 26.831V6.02896C96.7189 5.63646 97.914 5.30461 99.1237 5.03469C100.865 4.67616 102.64 4.51297 104.418 4.54813Z" fill="#004680"/>
<path d="M118.29 15.9499C118.274 14.35 118.511 12.7577 118.992 11.2324C119.415 9.87965 120.118 8.6323 121.056 7.57267C121.994 6.54066 123.154 5.73749 124.447 5.22451C127.483 4.12438 130.806 4.12438 133.841 5.22451C135.135 5.73749 136.295 6.54066 137.233 7.57267C138.171 8.6323 138.874 9.87965 139.297 11.2324C139.778 12.7577 140.015 14.35 139.999 15.9499C140.015 17.5221 139.778 19.0866 139.297 20.5828C138.87 21.9149 138.167 23.1408 137.233 24.179C136.293 25.1986 135.133 25.9875 133.841 26.4849C130.801 27.5567 127.488 27.5567 124.447 26.4849C123.156 25.9875 121.996 25.1986 121.056 24.179C120.122 23.1408 119.418 21.9149 118.992 20.5828C118.511 19.0866 118.274 17.5221 118.29 15.9499ZM132.781 15.9499C132.867 14.5102 132.554 13.0749 131.876 11.8036C131.584 11.3418 131.173 10.9673 130.688 10.7192C130.203 10.4711 129.66 10.3586 129.116 10.3933C128.575 10.3571 128.035 10.4692 127.553 10.7176C127.07 10.966 126.664 11.3414 126.378 11.8036C125.71 13.0783 125.399 14.5115 125.479 15.9499C125.398 17.3732 125.703 18.792 126.364 20.0539C126.65 20.5161 127.056 20.8914 127.539 21.1399C128.021 21.3883 128.561 21.5004 129.102 21.4642C129.646 21.4989 130.189 21.3863 130.674 21.1382C131.159 20.8902 131.57 20.5156 131.861 20.0539C132.541 18.7981 132.86 17.3771 132.781 15.9499Z" fill="#004680"/>
<path d="M83.5163 0.634227C84.1644 0.524182 84.8185 0.453536 85.4751 0.422679C86.107 0.394472 86.7038 0.380371 87.2655 0.380371C87.8272 0.380371 88.4169 0.394472 89.0348 0.422679C89.6982 0.455707 90.3592 0.526337 91.0147 0.634227L90.6356 20.3785C89.9335 20.5196 89.3156 20.6183 88.782 20.6747C88.2783 20.7295 87.7721 20.7577 87.2655 20.7593C86.1332 20.7311 85.0056 20.6037 83.8954 20.3785L83.5163 0.634227ZM91.113 27.4301C91.113 28.1943 90.8874 28.9415 90.4646 29.5769C90.0418 30.2124 89.4409 30.7077 88.7379 31.0002C88.0348 31.2926 87.2612 31.3692 86.5149 31.2201C85.7685 31.071 85.083 30.7029 84.5449 30.1625C84.0068 29.6221 83.6404 28.9335 83.4919 28.1839C83.3434 27.4343 83.4196 26.6574 83.7108 25.9513C84.0021 25.2452 84.4952 24.6417 85.1279 24.2171C85.7607 23.7925 86.5045 23.5658 87.2655 23.5658C87.7714 23.5658 88.2722 23.666 88.7395 23.8606C89.2068 24.0553 89.6312 24.3405 89.9886 24.7001C90.346 25.0597 90.6292 25.4865 90.8222 25.9562C91.0151 26.4258 91.1139 26.9291 91.113 27.4371V27.4301Z" fill="#004680"/>
</svg>
