<svg width="460" height="430" viewBox="0 0 460 430" fill="none" xmlns="http://www.w3.org/2000/svg">
<path d="M457.047 185.115V401.103H56.5V185.115L256.783 64.5469L457.047 185.115Z" fill="#F1F2F2"/>
<path d="M457.046 401.998H56.4451C56.2069 401.998 55.9784 401.904 55.81 401.736C55.6415 401.568 55.5469 401.341 55.5469 401.104V185.115C55.5478 184.959 55.5898 184.806 55.6686 184.671C55.7474 184.536 55.8602 184.424 55.996 184.346L256.368 63.7781C256.508 63.6908 256.67 63.6445 256.836 63.6445C257.001 63.6445 257.163 63.6908 257.303 63.7781L457.567 184.346C457.7 184.426 457.809 184.539 457.885 184.674C457.96 184.809 457.999 184.961 457.998 185.115V401.104C457.999 401.226 457.974 401.346 457.925 401.459C457.877 401.571 457.806 401.672 457.717 401.756C457.627 401.839 457.522 401.904 457.407 401.946C457.291 401.987 457.169 402.005 457.046 401.998ZM57.3972 400.209H456.202V185.58L256.8 65.5488L57.3972 185.58V400.209Z" fill="#231F20"/>
<path d="M343.767 95.1865C343.767 95.1865 353.019 77.9804 351.815 66.5693C350.612 55.1581 339.24 53.1192 339.24 53.1192C339.24 53.1192 311.809 38.9 305.45 29.0449L305.665 43.4608C300.684 41.7486 296.089 39.081 292.138 35.609C292.138 35.609 287.863 42.96 292.479 49.5062C292.479 49.5062 284.396 51.0802 279.078 45.7502C279.078 45.7502 281.791 67.392 300.959 70.1822C313.587 71.935 330.025 96.0271 343.767 95.1865Z" fill="white"/>
<path d="M343.067 96.0983C335.486 96.0983 327.349 89.3017 319.48 82.7376C312.726 77.1036 306.366 71.7736 300.869 70.9867C281.253 68.1249 278.253 45.9466 278.217 45.7677C278.196 45.5835 278.233 45.3975 278.323 45.2352C278.413 45.0729 278.551 44.9425 278.719 44.862C278.887 44.7815 279.075 44.7548 279.259 44.7857C279.442 44.8166 279.612 44.9035 279.744 45.0344C281.264 46.378 283.05 47.3903 284.987 48.0063C286.923 48.6223 288.968 48.8285 290.989 48.6116C287.396 42.0475 291.223 35.2867 291.402 35.0005C291.465 34.8853 291.552 34.7854 291.658 34.7082C291.764 34.631 291.887 34.5785 292.016 34.5545C292.145 34.5305 292.278 34.5356 292.405 34.5694C292.532 34.6033 292.65 34.665 292.75 34.7501C296.343 37.8094 300.407 40.2733 304.786 42.0475L304.588 28.9015C304.581 28.7089 304.639 28.5195 304.753 28.3637C304.867 28.208 305.03 28.095 305.217 28.0429C305.403 27.9832 305.604 27.9859 305.789 28.0504C305.974 28.115 306.133 28.238 306.241 28.4007C312.205 37.6297 337.678 51.0977 339.582 52.0993C340.965 52.4033 351.51 55.0325 352.714 66.4079C353.936 78.0515 344.936 94.9178 344.558 95.6332C344.485 95.7666 344.379 95.8793 344.251 95.9607C344.122 96.0421 343.974 96.0894 343.822 96.0983H343.067ZM280.48 47.9498C281.845 53.5301 286.624 67.0875 301.139 69.216C307.121 70.0924 313.714 75.5654 320.63 81.3604C328.265 87.7277 336.133 94.3097 343.067 94.3097H343.211C344.63 91.5374 351.978 76.6564 350.918 66.5689C349.804 55.8374 339.546 54.0488 339.115 53.9057L338.864 53.8163C337.804 53.2797 314.864 41.2963 306.42 31.6559L306.6 43.3532C306.601 43.4903 306.57 43.6258 306.511 43.7497C306.452 43.8735 306.366 43.9825 306.259 44.0686C306.149 44.1549 306.02 44.2144 305.883 44.2424C305.745 44.2703 305.603 44.2659 305.468 44.2296C300.715 42.6134 296.314 40.1127 292.498 36.8606C291.575 38.7533 291.16 40.8514 291.292 42.9512C291.424 45.051 292.1 47.081 293.253 48.8441C293.333 48.9704 293.384 49.1138 293.399 49.2628C293.415 49.4118 293.395 49.5624 293.342 49.7026C293.285 49.84 293.194 49.9611 293.078 50.0548C292.962 50.1484 292.825 50.2118 292.678 50.2392C288.468 50.9642 284.136 50.1512 280.48 47.9498Z" fill="#231F20"/>
<path d="M329.54 273.31C329.54 273.31 373.75 219.993 381.061 179.267C388.373 138.541 362.828 129.187 353.917 126.146C345.007 123.106 298.57 103.932 275.252 120.673C251.935 137.414 228.707 241.849 228.707 241.849L329.54 273.31Z" fill="#6F93B3"/>
<path d="M170.144 326.378L217.695 267.355C217.695 267.355 250.785 225.341 232.3 220.852C232.3 220.852 206.647 224.178 164.736 238.737C152.287 243.048 130.892 292.269 117.383 326.378H170.144Z" fill="#231F20"/>
<path d="M170.145 327.271H117.294C117.148 327.272 117.005 327.236 116.876 327.167C116.748 327.098 116.638 326.999 116.558 326.878C116.492 326.751 116.457 326.61 116.457 326.466C116.457 326.323 116.492 326.182 116.558 326.055C131.54 288.209 152.019 242.171 164.45 237.86C205.947 223.552 231.924 219.975 232.193 219.975H232.517C233.824 220.206 235.046 220.777 236.059 221.632C237.072 222.487 237.84 223.593 238.283 224.84C242.541 237.002 219.403 266.585 218.415 267.765L170.845 326.788C170.778 326.92 170.679 327.034 170.556 327.118C170.434 327.202 170.293 327.255 170.145 327.271ZM118.713 325.483H169.714L216.852 266.728C217.085 266.442 240.367 236.68 236.451 225.448C236.116 224.508 235.538 223.674 234.774 223.03C234.011 222.386 233.089 221.955 232.103 221.781C229.84 222.085 204.474 225.841 164.899 239.56C155.774 242.725 139.39 273.221 118.624 325.483H118.713Z" fill="#231F20"/>
<path d="M249.776 326.377L261.848 297.098C261.848 297.098 291.309 305.88 310.962 298.511C324.794 293.324 329.016 275.528 335.268 261.112C335.268 261.112 252.632 241.616 234.183 233.675C234.183 233.675 233.033 233.675 211.89 255.782C202.44 265.708 194.913 295.953 189.488 326.377H249.776Z" fill="#231F20"/>
<path d="M249.777 327.272H189.49C189.356 327.273 189.224 327.245 189.103 327.189C188.982 327.134 188.874 327.052 188.789 326.95C188.709 326.85 188.649 326.736 188.615 326.612C188.581 326.489 188.573 326.361 188.591 326.234C195.49 287.601 203.124 263.634 211.244 255.174C232.658 232.71 233.807 232.763 234.22 232.781C234.328 232.764 234.437 232.764 234.544 232.781C252.777 240.758 334.658 260.057 335.413 260.254C335.539 260.285 335.657 260.342 335.759 260.423C335.862 260.503 335.946 260.604 336.006 260.719C336.059 260.837 336.087 260.965 336.087 261.094C336.087 261.224 336.059 261.352 336.006 261.47C334.838 264.153 333.724 267.014 332.646 269.769C327.814 282.164 322.802 294.988 311.179 299.352C293.035 306.149 267.203 299.531 262.28 298.172L250.514 326.789C250.445 326.927 250.34 327.044 250.211 327.129C250.082 327.213 249.932 327.263 249.777 327.272ZM190.496 325.483H249.185L261.041 296.759C261.122 296.553 261.278 296.385 261.478 296.289C261.678 296.192 261.907 296.175 262.119 296.24C262.424 296.24 291.526 304.843 310.622 297.671C321.401 293.611 326.341 281.162 331.047 269.053C332 266.603 332.988 264.081 334.012 261.667C324.473 259.395 252.256 242.117 234.256 234.605C233.232 235.375 228.993 239.077 212.52 256.337C204.849 264.475 197.25 288.352 190.55 325.483H190.496Z" fill="#231F20"/>
<path d="M275.251 120.674C275.251 120.674 255.491 142.137 244.461 152.868C233.431 163.6 211.802 177.497 211.802 177.497C211.802 177.497 147.31 182.666 146.628 183.685C145.945 184.705 146.628 206.025 146.628 206.025C146.628 206.025 209.646 218.062 221.143 215.987C232.64 213.912 259.766 195.758 259.766 195.758L275.251 120.674Z" fill="#6F93B3"/>
<path d="M302.701 110.013L300.707 130.206C300.707 130.206 304.3 141.796 317.989 139.721C331.677 137.646 334.156 128.31 334.156 128.31L343.031 88.854C343.031 88.854 334.821 82.9517 327.078 59.879C327.078 59.879 298.479 54.5133 297.491 65.4952C297.491 65.4952 291.851 85.1695 292.264 95.5611C292.641 105.667 302.521 109.852 302.701 110.013Z" fill="white"/>
<path d="M314.843 140.867C311.573 140.89 308.376 139.904 305.693 138.042C303.009 136.181 300.972 133.538 299.861 130.475C299.834 130.364 299.834 130.247 299.861 130.135L301.765 110.461C295.352 106.991 291.615 101.518 291.382 95.5086C290.969 85.0633 296.412 65.9792 296.645 65.1028C296.734 64.1978 297.02 63.3227 297.482 62.5383C297.944 61.7539 298.572 61.0789 299.322 60.5598C306.508 55.0868 326.43 58.7713 327.256 58.7713C327.416 58.8029 327.565 58.8757 327.688 58.9824C327.811 59.0891 327.904 59.226 327.957 59.3794C335.466 81.7902 343.496 87.8535 343.586 87.9966C343.723 88.101 343.828 88.2421 343.889 88.4036C343.949 88.565 343.962 88.7402 343.927 88.9088L335.053 128.365C334.927 128.812 332.178 138.327 318.148 140.473C317.057 140.682 315.953 140.813 314.843 140.867ZM301.621 130.135C302.124 131.531 305.897 140.688 317.789 138.864C330.669 136.896 333.202 128.132 333.22 128.132L341.969 89.2665C340.083 87.6389 332.987 80.5561 326.322 60.6493C323.16 60.1127 306.346 57.5372 300.31 62.098C299.742 62.4905 299.268 63.0038 298.923 63.6007C298.578 64.1977 298.371 64.8635 298.316 65.55C298.316 65.9077 292.693 85.2243 293.088 95.4907C293.394 103.11 299.322 107.277 302.825 109.066C302.978 109.139 303.123 109.229 303.256 109.334C303.355 109.427 303.431 109.542 303.477 109.669C303.524 109.797 303.541 109.933 303.526 110.068L301.621 130.135Z" fill="#231F20"/>
<path d="M333.184 89.5332C333.8 87.7502 334.979 86.2131 336.544 85.1512C338.894 83.4321 341.834 82.7116 344.717 83.148C348.041 84.078 349.729 88.1202 349.011 91.4827C348.565 93.4982 347.613 95.368 346.243 96.9167C344.873 98.4653 343.13 99.6419 341.178 100.336C339.835 100.732 338.426 100.86 337.033 100.712C335.639 100.565 334.289 100.145 333.059 99.4777" fill="white"/>
<path d="M338.18 101.66C336.241 101.67 334.332 101.19 332.629 100.265C332.526 100.209 332.434 100.133 332.36 100.041C332.285 99.9495 332.23 99.8442 332.197 99.7312C332.163 99.6183 332.153 99.4999 332.165 99.3829C332.178 99.2658 332.213 99.1524 332.27 99.049C332.327 98.9457 332.403 98.8545 332.495 98.7806C332.587 98.7066 332.693 98.6515 332.806 98.6183C332.92 98.5851 333.039 98.5744 333.156 98.587C333.274 98.5995 333.388 98.6349 333.492 98.6913C335.77 99.9194 338.443 100.202 340.929 99.4783C342.721 98.8291 344.32 97.7394 345.576 96.3104C346.833 94.8814 347.706 93.1594 348.115 91.3045C348.707 88.4964 347.36 84.812 344.522 84.025C343.225 83.8209 341.9 83.8738 340.624 84.1807C339.348 84.4877 338.145 85.0426 337.084 85.8136C335.679 86.7555 334.625 88.1321 334.084 89.7305C334.008 89.9677 333.84 90.1651 333.618 90.2791C333.396 90.3931 333.137 90.4146 332.899 90.3387C332.661 90.2628 332.462 90.0958 332.348 89.8744C332.233 89.653 332.212 89.3954 332.288 89.1582C332.963 87.1917 334.262 85.4969 335.989 84.3291C337.264 83.3896 338.718 82.7168 340.261 82.351C341.805 81.9853 343.407 81.9341 344.971 82.2006C348.887 83.2738 350.683 87.9241 349.911 91.5728C349.45 93.7743 348.428 95.8207 346.943 97.5152C345.458 99.2098 343.56 100.496 341.432 101.249C340.374 101.545 339.279 101.684 338.18 101.66Z" fill="#231F20"/>
<path d="M313.154 79.6426C313.154 79.6426 304.927 89.1399 306.364 91.1431C307.801 93.1463 312.561 92.5024 312.561 92.5024" fill="white"/>
<path d="M310.89 93.5037C309.935 93.6066 308.968 93.4998 308.059 93.1908C307.15 92.8818 306.319 92.3781 305.627 91.7151C304.028 89.4794 309.219 82.7722 312.471 79.1951C312.634 79.0489 312.845 78.9671 313.064 78.9649C313.283 78.9627 313.495 79.0404 313.661 79.1833C313.826 79.3262 313.934 79.5245 313.963 79.7408C313.992 79.9571 313.94 80.1765 313.818 80.3577C309.866 84.9364 306.722 89.8013 307.1 90.7851C307.908 91.894 310.818 91.9655 312.489 91.7509C312.727 91.7201 312.968 91.7847 313.158 91.9306C313.349 92.0765 313.473 92.2917 313.504 92.5289C313.535 92.7661 313.47 93.0058 313.323 93.1953C313.177 93.3848 312.961 93.5086 312.722 93.5395C312.111 93.562 311.5 93.5501 310.89 93.5037Z" fill="#231F20"/>
<path d="M328.1 78.4402C328.315 77.114 327.728 75.9162 326.787 75.7647C325.847 75.6133 324.91 76.5656 324.695 77.8917C324.479 79.2179 325.067 80.4157 326.007 80.5672C326.947 80.7186 327.884 79.7663 328.1 78.4402Z" fill="#231F20"/>
<path d="M305.624 79.2999C306.576 79.267 307.309 78.1519 307.262 76.8093C307.215 75.4667 306.406 74.405 305.454 74.4379C304.502 74.4709 303.768 75.586 303.815 76.9286C303.862 78.2712 304.672 79.3329 305.624 79.2999Z" fill="#231F20"/>
<path d="M302.7 110.013C302.7 110.013 315.023 114.144 322.873 110.639C322.873 110.639 312.993 126.736 301.316 123.856L302.7 110.013Z" fill="#231F20"/>
<path d="M304.226 125.108C303.179 125.113 302.135 124.987 301.119 124.732C300.912 124.678 300.73 124.554 300.605 124.381C300.481 124.208 300.421 123.996 300.436 123.784L301.801 109.94C301.813 109.805 301.855 109.674 301.923 109.557C301.992 109.44 302.085 109.338 302.196 109.261C302.317 109.204 302.449 109.174 302.583 109.174C302.716 109.174 302.848 109.204 302.969 109.261C303.095 109.261 315.077 113.231 322.514 109.905C322.69 109.83 322.886 109.812 323.072 109.854C323.259 109.896 323.428 109.995 323.556 110.137C323.668 110.29 323.729 110.475 323.729 110.665C323.729 110.854 323.668 111.039 323.556 111.192C323.268 111.729 314.933 125.108 304.226 125.108ZM302.304 123.158C310.37 124.571 317.574 116.397 320.592 112.427C314.143 114 306.31 112.087 303.472 111.264L302.304 123.158Z" fill="#231F20"/>
<path d="M302.864 83.2022H302.271L295.642 82.6835C293.744 82.5329 291.984 81.6383 290.747 80.1963C289.511 78.7543 288.901 76.8827 289.049 74.9926L289.48 69.6269C289.503 69.3927 289.618 69.1768 289.799 69.0261C289.981 68.8755 290.215 68.8021 290.451 68.8221L309.6 70.3245C309.838 70.3501 310.056 70.4653 310.211 70.6464C310.289 70.7335 310.349 70.8355 310.386 70.9462C310.423 71.0569 310.437 71.174 310.427 71.2903L309.996 76.656C309.846 78.4494 309.024 80.1209 307.692 81.3375C306.361 82.554 304.617 83.2262 302.81 83.2201L302.864 83.2022ZM291.205 70.6822L290.846 75.0821C290.737 76.4974 291.195 77.8982 292.121 78.9776C293.047 80.057 294.365 80.7272 295.786 80.8413L302.415 81.36C303.119 81.4247 303.828 81.3472 304.501 81.1321C305.174 80.9169 305.797 80.5686 306.331 80.108C307.404 79.2058 308.08 77.9223 308.217 76.5308L308.558 72.1309L291.205 70.6822Z" fill="#231F20"/>
<path d="M326.684 85.1514H326.091L319.463 84.6148C317.564 84.4642 315.804 83.5697 314.568 82.1276C313.332 80.6856 312.721 78.814 312.87 76.924L313.301 71.5582C313.31 71.4407 313.342 71.326 313.396 71.221C313.45 71.1159 313.524 71.0224 313.614 70.9459C313.704 70.8695 313.809 70.8115 313.921 70.7754C314.034 70.7393 314.153 70.7257 314.271 70.7355L333.421 72.2558C333.536 72.2648 333.649 72.2965 333.753 72.3491C333.856 72.4017 333.948 72.4742 334.023 72.5623C334.098 72.6504 334.155 72.7524 334.19 72.8625C334.226 72.9726 334.239 73.0886 334.229 73.2037L333.816 78.5695C333.671 80.366 332.851 82.0419 331.518 83.2622C330.186 84.4825 328.44 85.1572 326.63 85.1514H326.684ZM326.235 83.3628C327.658 83.4725 329.066 83.0158 330.151 82.093C331.191 81.1756 331.834 79.8941 331.948 78.5158L332.307 74.1159L315.007 72.6314L314.666 77.0134C314.557 78.4287 315.015 79.8295 315.941 80.9089C316.867 81.9883 318.185 82.6585 319.606 82.7726L326.235 83.3628Z" fill="#231F20"/>
<path d="M313.856 75.8874L309.185 75.5117C309.067 75.5026 308.952 75.4704 308.846 75.4169C308.741 75.3634 308.647 75.2896 308.57 75.1998C308.493 75.11 308.435 75.006 308.399 74.8937C308.362 74.7815 308.349 74.6631 308.359 74.5456C308.386 74.3116 308.501 74.0965 308.681 73.9438C308.861 73.7911 309.092 73.712 309.329 73.7226L313.999 74.0983C314.238 74.0983 314.466 74.1926 314.634 74.3603C314.803 74.5281 314.898 74.7556 314.898 74.9928C314.898 75.2301 314.803 75.4576 314.634 75.6254C314.466 75.7931 314.238 75.8874 313.999 75.8874H313.856Z" fill="#231F20"/>
<path d="M310.965 107.438C305.342 107.438 300.905 103.109 299.126 98.0657C299.078 97.9247 299.066 97.774 299.091 97.6272C299.116 97.4804 299.177 97.3422 299.27 97.225C299.349 97.1012 299.462 97.002 299.596 96.9388C299.729 96.8755 299.878 96.8508 300.024 96.8673C307.691 97.2669 315.356 96.0478 322.515 93.2902C322.657 93.2282 322.813 93.2038 322.967 93.2195C323.122 93.2351 323.269 93.2903 323.396 93.3796C323.525 93.4681 323.628 93.5894 323.694 93.7309C323.761 93.8724 323.788 94.029 323.773 94.1844C323.773 94.5958 322.839 104.415 314.162 106.883C313.129 107.222 312.052 107.408 310.965 107.438ZM301.282 98.7095C303.168 102.662 307.533 107.009 313.623 105.256C319.228 103.664 321.096 98.2624 321.689 95.6153C315.131 97.8673 308.216 98.9157 301.282 98.7095Z" fill="#231F20"/>
<path d="M376.927 142.709C387.382 147.592 404.358 261.989 385.909 269.698C357.166 281.628 279.363 241.081 279.363 241.081L294.669 211.086C294.669 211.086 347.519 226.754 351.184 216.059C354.849 205.363 336.705 146.537 342.885 140.133C349.064 133.73 376.927 142.709 376.927 142.709Z" fill="#6F93B3"/>
<path d="M297.561 223.195C288.568 221.37 279.803 218.569 271.423 214.843C264.992 211.784 259.441 208.851 252.273 207.313C243.38 205.39 234.214 205.051 225.201 206.311C224.837 206.34 224.486 206.457 224.177 206.651C223.117 207.545 224.68 209.084 225.974 209.495C229.473 210.519 233.106 211.013 236.752 210.961C227.533 211.807 218.47 213.883 209.806 217.132C208.818 217.508 207.65 218.205 207.812 219.225C207.974 220.244 209.698 220.548 210.92 220.352L232.297 216.774C226.833 217.421 221.515 218.968 216.561 221.353C215.86 221.693 215.052 222.194 215.016 222.981C215.016 224.34 216.92 224.59 218.267 224.322C224.827 223.004 231.258 221.119 237.489 218.688L223.315 224.501C223.25 224.742 223.235 224.993 223.268 225.24C223.302 225.487 223.385 225.725 223.512 225.94C223.639 226.154 223.808 226.342 224.009 226.491C224.209 226.64 224.437 226.748 224.68 226.808C225.671 226.998 226.695 226.918 227.644 226.576L242.788 222.534L233.07 226.111C231.543 226.665 229.692 227.703 229.944 229.312C230.231 231.208 232.872 231.351 234.776 231.101C242.308 229.981 249.942 229.699 257.537 230.26C260.321 230.421 263.106 229.956 265.764 230.761C269.591 231.924 273.453 234.678 277.01 236.538C282.579 239.436 288.13 242.387 293.681 245.338" fill="white"/>
<path d="M293.754 246.018C293.616 246.023 293.48 245.992 293.359 245.928C287.826 242.983 282.269 240.05 276.688 237.129C275.574 236.556 274.424 235.877 273.257 235.179C270.85 233.643 268.277 232.383 265.586 231.423C263.889 231.011 262.138 230.86 260.394 230.976C259.442 230.976 258.508 230.976 257.556 230.976C250.021 230.415 242.447 230.697 234.975 231.817C233.377 232.153 231.71 231.919 230.268 231.155C229.977 230.945 229.733 230.679 229.551 230.371C229.368 230.063 229.252 229.721 229.208 229.366C229.138 228.871 229.198 228.366 229.384 227.902C229.57 227.438 229.875 227.03 230.268 226.719L227.933 227.345C226.834 227.743 225.643 227.818 224.502 227.56C224.113 227.434 223.753 227.232 223.444 226.964C223.135 226.697 222.884 226.37 222.705 226.004C222.58 225.722 222.515 225.418 222.515 225.109C222.515 224.801 222.58 224.497 222.705 224.215C221.322 224.537 219.957 224.841 218.574 225.127C217.965 225.279 217.332 225.304 216.713 225.199C216.095 225.094 215.505 224.863 214.981 224.519C214.755 224.326 214.578 224.083 214.462 223.81C214.347 223.537 214.297 223.241 214.316 222.945C214.316 221.55 215.789 220.871 216.31 220.62L217.352 220.137L211.154 221.175C210.062 221.414 208.918 221.249 207.939 220.71C207.718 220.552 207.531 220.353 207.389 220.122C207.247 219.892 207.153 219.635 207.113 219.368C207.005 218.653 207.113 217.311 209.628 216.399C215.979 213.971 222.556 212.174 229.262 211.033C228.108 210.865 226.963 210.638 225.831 210.354C225.204 210.182 224.627 209.861 224.152 209.418C223.676 208.976 223.316 208.426 223.101 207.814C223.042 207.502 223.068 207.181 223.175 206.882C223.282 206.583 223.468 206.319 223.711 206.115C224.128 205.816 224.619 205.637 225.131 205.596C234.238 204.31 243.502 204.649 252.49 206.598C258.425 208.047 264.152 210.234 269.538 213.108L271.837 214.199C280.135 217.842 288.802 220.588 297.688 222.391C297.899 222.442 298.082 222.574 298.196 222.758C298.311 222.942 298.347 223.164 298.299 223.374C298.276 223.48 298.231 223.58 298.169 223.668C298.106 223.756 298.026 223.83 297.934 223.887C297.842 223.944 297.739 223.981 297.632 223.998C297.525 224.014 297.416 224.009 297.311 223.983C288.268 222.13 279.452 219.318 271.011 215.594L268.712 214.485C263.437 211.68 257.83 209.541 252.023 208.118C243.225 206.201 234.154 205.868 225.238 207.134C225.03 207.133 224.825 207.189 224.646 207.295C224.646 207.796 225.418 208.476 226.173 208.708C229.591 209.702 233.139 210.184 236.7 210.139C236.896 210.168 237.074 210.266 237.204 210.416C237.333 210.565 237.404 210.756 237.404 210.953C237.404 211.15 237.333 211.341 237.204 211.49C237.074 211.64 236.896 211.738 236.7 211.767C227.567 212.619 218.589 214.682 210.005 217.901C209.286 218.17 208.46 218.653 208.532 219.1C208.538 219.153 208.555 219.205 208.583 219.252C208.611 219.298 208.649 219.338 208.693 219.368C209.319 219.649 210.021 219.712 210.687 219.547L227.232 216.757C228.84 216.402 230.465 216.127 232.101 215.934C232.314 215.913 232.527 215.973 232.697 216.103C232.867 216.232 232.981 216.421 233.017 216.632C233.048 216.845 232.994 217.061 232.866 217.235C232.739 217.409 232.548 217.526 232.334 217.562L227.538 218.366C223.812 219.177 220.195 220.42 216.759 222.069C215.879 222.498 215.681 222.82 215.681 222.999C215.676 223.049 215.682 223.1 215.701 223.147C215.72 223.193 215.75 223.235 215.789 223.267C216.449 223.602 217.21 223.684 217.927 223.5C224.45 222.191 230.845 220.318 237.041 217.901C237.241 217.824 237.464 217.828 237.662 217.911C237.86 217.995 238.017 218.151 238.101 218.349C238.179 218.551 238.176 218.775 238.093 218.975C238.009 219.175 237.851 219.335 237.652 219.422L223.891 225.074C223.868 225.149 223.868 225.23 223.891 225.306C224.052 225.634 224.336 225.884 224.682 226.004C225.525 226.157 226.395 226.076 227.196 225.771L242.34 221.711C242.537 221.679 242.738 221.72 242.908 221.824C243.077 221.928 243.202 222.09 243.262 222.279C243.321 222.469 243.309 222.673 243.229 222.854C243.149 223.036 243.005 223.182 242.825 223.267L233.125 226.844C232.28 227.148 230.34 227.989 230.52 229.152C230.537 229.287 230.583 229.418 230.654 229.535C230.726 229.652 230.82 229.753 230.933 229.831C232.01 230.354 233.236 230.486 234.4 230.207C241.996 229.064 249.698 228.776 257.358 229.348C258.257 229.348 259.155 229.348 260.071 229.348C261.985 229.22 263.907 229.395 265.766 229.867C268.585 230.848 271.275 232.163 273.778 233.784C274.927 234.446 276.059 235.108 277.155 235.68C282.724 238.589 288.281 241.523 293.826 244.48C293.923 244.529 294.009 244.597 294.079 244.679C294.149 244.762 294.201 244.858 294.233 244.962C294.265 245.065 294.276 245.174 294.264 245.282C294.253 245.39 294.22 245.494 294.167 245.589C294.091 245.78 293.943 245.934 293.754 246.018Z" fill="#231F20"/>
<path d="M279.445 131.207C275.726 133.371 255.786 178.014 247.109 199.316L279.445 131.207Z" fill="white"/>
<path d="M246.257 200.14C246.121 200.141 245.988 200.108 245.868 200.046C245.748 199.983 245.646 199.892 245.57 199.781C245.493 199.67 245.446 199.542 245.431 199.408C245.416 199.274 245.434 199.138 245.484 199.013C253.335 179.643 273.886 132.961 278.125 130.493C278.219 130.432 278.323 130.391 278.433 130.372C278.542 130.353 278.655 130.356 278.763 130.381C278.872 130.406 278.974 130.452 279.064 130.518C279.154 130.583 279.23 130.666 279.286 130.761C279.343 130.857 279.38 130.962 279.395 131.072C279.41 131.182 279.402 131.294 279.373 131.401C279.343 131.508 279.292 131.608 279.223 131.694C279.154 131.781 279.067 131.853 278.97 131.906C275.79 133.694 256.82 175.422 247.011 199.621C246.953 199.774 246.85 199.905 246.715 199.997C246.58 200.09 246.42 200.14 246.257 200.14Z" fill="#231F20"/>
<path d="M136.372 217.042L135.348 226.127L251.845 276.082L252.205 266.531L136.372 217.042Z" fill="white"/>
<path d="M251.844 276.977C251.726 277.003 251.603 277.003 251.485 276.977L134.987 227.022C134.808 226.946 134.659 226.814 134.562 226.646C134.464 226.478 134.425 226.284 134.448 226.092L135.472 217.006C135.486 216.867 135.534 216.734 135.612 216.618C135.691 216.503 135.797 216.408 135.921 216.344C136.045 216.278 136.184 216.244 136.325 216.244C136.466 216.244 136.605 216.278 136.729 216.344L252.562 265.798C252.73 265.868 252.873 265.988 252.969 266.142C253.066 266.296 253.112 266.475 253.101 266.656L252.742 276.207C252.734 276.355 252.691 276.498 252.616 276.626C252.541 276.754 252.436 276.861 252.311 276.941C252.162 276.995 252 277.008 251.844 276.977ZM136.298 225.573L250.982 274.741L251.287 267.086L137.125 218.311L136.298 225.573Z" fill="#231F20"/>
<path d="M136.371 217.041C136.371 217.041 170.305 200.837 171.168 201.302C172.03 201.767 292.049 249.593 292.049 249.593L252.204 266.531L136.371 217.041Z" fill="white"/>
<path d="M252.201 267.427C252.082 267.452 251.96 267.452 251.841 267.427L136.008 217.866C135.85 217.797 135.716 217.685 135.62 217.542C135.524 217.399 135.472 217.232 135.469 217.061C135.463 216.89 135.508 216.721 135.597 216.575C135.686 216.428 135.817 216.311 135.972 216.238C170.338 199.819 171.092 200.23 171.595 200.517C173.392 201.321 291.201 248.289 292.386 248.808C292.553 248.871 292.697 248.984 292.796 249.131C292.896 249.279 292.947 249.453 292.943 249.631C292.946 249.806 292.897 249.978 292.8 250.125C292.704 250.271 292.566 250.386 292.404 250.454L252.56 267.391C252.444 267.429 252.321 267.441 252.201 267.427ZM138.541 216.989L252.201 265.567L289.692 249.702C271.153 242.298 176.949 204.756 171.02 202.287C168.685 202.824 150.721 211.194 138.541 216.989Z" fill="#231F20"/>
<path d="M251.844 276.084L290.557 258.144L292.048 249.595L252.203 266.533L251.844 276.084Z" fill="white"/>
<path d="M251.846 276.977C251.667 276.985 251.491 276.935 251.343 276.834C251.212 276.751 251.106 276.634 251.036 276.495C250.967 276.356 250.936 276.202 250.948 276.047L251.307 266.496C251.317 266.329 251.373 266.167 251.468 266.029C251.562 265.89 251.693 265.78 251.846 265.709L291.708 248.771C291.855 248.707 292.017 248.685 292.175 248.707C292.334 248.729 292.483 248.795 292.607 248.897C292.738 248.993 292.839 249.126 292.896 249.278C292.954 249.431 292.965 249.596 292.93 249.755L291.457 258.287C291.429 258.428 291.369 258.561 291.282 258.675C291.195 258.79 291.083 258.883 290.954 258.948L252.223 276.834C252.109 276.909 251.981 276.958 251.846 276.977ZM253.085 267.14L252.78 274.742L289.75 257.607L290.864 251.132L253.085 267.14Z" fill="#231F20"/>
<path d="M136.37 217.042L133.98 133.104L255.939 188.854L252.203 266.532L136.37 217.042Z" fill="white"/>
<path d="M252.201 267.427C252.083 267.452 251.96 267.452 251.842 267.427L136.009 217.866C135.85 217.799 135.714 217.687 135.618 217.544C135.522 217.401 135.47 217.233 135.47 217.061L133.063 133.123C133.06 132.97 133.096 132.82 133.169 132.685C133.241 132.55 133.347 132.436 133.476 132.354C133.607 132.28 133.756 132.242 133.907 132.242C134.058 132.242 134.206 132.28 134.338 132.354L256.369 188.05C256.532 188.12 256.67 188.238 256.763 188.389C256.856 188.539 256.9 188.714 256.89 188.891L253.153 266.569C253.147 266.712 253.106 266.852 253.034 266.977C252.963 267.101 252.862 267.207 252.74 267.284C252.583 267.394 252.392 267.445 252.201 267.427ZM137.23 216.435L251.357 265.209L254.95 189.41L134.913 134.518L137.23 216.435Z" fill="#231F20"/>
<path d="M317.143 262.222C317.019 262.246 316.891 262.246 316.766 262.222L292.101 250.9C291.912 250.814 291.758 250.666 291.666 250.48C291.574 250.294 291.55 250.082 291.598 249.88L299.053 218.831C299.101 218.607 299.235 218.41 299.426 218.283C299.618 218.156 299.851 218.109 300.077 218.151L348.293 225.842L346.712 149.756C346.707 149.638 346.727 149.52 346.769 149.41C346.811 149.299 346.875 149.198 346.957 149.113C347.039 149.028 347.138 148.96 347.247 148.914C347.356 148.867 347.474 148.844 347.593 148.844C347.826 148.848 348.05 148.941 348.217 149.104C348.384 149.267 348.482 149.488 348.491 149.72L350.09 226.879C350.091 227.01 350.063 227.139 350.007 227.256C349.951 227.374 349.868 227.478 349.766 227.559C349.67 227.645 349.555 227.709 349.431 227.746C349.307 227.783 349.176 227.793 349.048 227.774L300.544 220.047L293.448 249.576L317.449 260.433C317.556 260.481 317.652 260.55 317.732 260.636C317.812 260.722 317.874 260.823 317.914 260.933C317.955 261.043 317.972 261.16 317.966 261.277C317.96 261.393 317.931 261.508 317.88 261.613C317.829 261.775 317.732 261.918 317.602 262.026C317.471 262.134 317.312 262.202 317.143 262.222Z" fill="#231F20"/>
<path d="M103.389 326.377C99.2033 323.229 94.1913 321.565 90.6523 326.377H103.389Z" fill="white"/>
<path d="M103.387 327.2H90.6509C90.4991 327.198 90.3505 327.155 90.2209 327.077C90.0913 326.998 89.9854 326.886 89.9143 326.752C89.835 326.623 89.793 326.475 89.793 326.323C89.793 326.172 89.835 326.023 89.9143 325.894C90.4892 325.033 91.2354 324.298 92.1067 323.735C92.978 323.172 93.956 322.793 94.9803 322.621C97.5851 322.227 100.567 323.283 103.819 325.733C103.954 325.838 104.054 325.981 104.105 326.144C104.157 326.307 104.157 326.482 104.106 326.645C104.05 326.795 103.953 326.926 103.826 327.024C103.699 327.122 103.547 327.183 103.387 327.2ZM92.4832 325.572H100.657C99.0551 324.553 97.1629 324.082 95.2677 324.231C94.2278 324.397 93.2598 324.864 92.4832 325.572Z" fill="#231F20"/>
<path d="M195.168 299.513H195.025C194.792 299.473 194.584 299.344 194.446 299.153C194.309 298.963 194.252 298.725 194.288 298.493C194.432 297.599 197.881 276.601 204.546 265.941C204.679 265.761 204.875 265.636 205.096 265.593C205.317 265.55 205.546 265.591 205.738 265.708C205.93 265.825 206.071 266.009 206.133 266.225C206.195 266.44 206.173 266.671 206.073 266.871C199.659 277.227 196.085 298.565 196.049 298.779C196.014 298.986 195.907 299.174 195.745 299.309C195.583 299.443 195.379 299.516 195.168 299.513Z" fill="white"/>
<path d="M306.185 143.621L308.018 149.738L285.113 196.706L291.634 213.501L305.934 201.356L311.808 149.702L314.844 146.59L311.718 141.385L306.185 143.621Z" fill="#ED2D24"/>
<path d="M308.072 149.934L306.261 143.612L311.695 141.354L314.865 146.773L311.695 149.934L305.808 201.417L291.317 213.611L284.977 196.449L308.072 149.934Z" stroke="black"/>
<path d="M457.047 185.116V401.105H56.5V185.116L256.783 320.905L457.047 185.116Z" fill="white"/>
<path d="M457.046 401.998H56.4451C56.2069 401.998 55.9784 401.904 55.81 401.737C55.6415 401.569 55.5469 401.341 55.5469 401.104V185.116C55.5462 184.953 55.5912 184.792 55.6769 184.653C55.7626 184.514 55.8855 184.402 56.0319 184.329C56.1733 184.245 56.3346 184.201 56.499 184.201C56.6633 184.201 56.8247 184.245 56.9661 184.329L256.728 319.796L456.489 184.329C456.627 184.245 456.786 184.201 456.948 184.201C457.109 184.201 457.268 184.245 457.406 184.329C457.553 184.4 457.678 184.512 457.763 184.652C457.849 184.791 457.893 184.952 457.891 185.116V401.104C457.891 401.332 457.804 401.552 457.647 401.718C457.49 401.885 457.275 401.985 457.046 401.998ZM57.3972 400.21H456.202V186.797L257.339 321.656C257.188 321.751 257.014 321.802 256.836 321.802C256.657 321.802 256.483 321.751 256.333 321.656L57.3972 186.797V400.21Z" fill="#231F20"/>
<path d="M256.785 321.798C256.608 321.797 256.434 321.748 256.282 321.655L55.9998 185.848C55.8058 185.715 55.6725 185.51 55.6288 185.279C55.5851 185.048 55.6345 184.809 55.7662 184.614C55.9012 184.417 56.1085 184.28 56.3436 184.234C56.5787 184.187 56.8229 184.234 57.0237 184.364L256.785 319.831L456.547 184.364C456.745 184.234 456.987 184.188 457.219 184.235C457.451 184.282 457.655 184.418 457.787 184.614C457.854 184.71 457.902 184.818 457.927 184.933C457.952 185.047 457.953 185.165 457.932 185.28C457.91 185.395 457.865 185.505 457.8 185.603C457.735 185.7 457.651 185.784 457.553 185.848L257.288 321.655C257.136 321.745 256.963 321.795 256.785 321.798Z" fill="#231F20"/>
<path d="M56.5 401.104L256.765 276.816L457.047 401.104H56.5Z" fill="white"/>
<path d="M457.046 401.998H56.4451C56.2507 401.998 56.0616 401.935 55.9062 401.819C55.7507 401.703 55.6372 401.54 55.5828 401.354C55.5275 401.167 55.5362 400.967 55.6078 400.786C55.6794 400.605 55.8097 400.452 55.978 400.353L256.368 276.064C256.512 275.978 256.677 275.932 256.845 275.932C257.012 275.932 257.177 275.978 257.321 276.064L457.567 400.353C457.736 400.452 457.866 400.605 457.938 400.786C458.009 400.967 458.018 401.167 457.963 401.354C457.906 401.549 457.784 401.719 457.618 401.836C457.451 401.953 457.25 402.01 457.046 401.998ZM59.6427 400.21H453.974L256.854 277.871L59.6427 400.21Z" fill="#231F20"/>
<path d="M404.806 256.496L352.438 279.841L365.431 308.735L417.799 285.39L404.806 256.496Z" fill="#6F93B3"/>
<path d="M365.446 309.701C365.272 309.706 365.101 309.659 364.954 309.567C364.807 309.474 364.69 309.341 364.62 309.183L351.631 280.279C351.581 280.173 351.552 280.057 351.548 279.939C351.543 279.822 351.562 279.704 351.604 279.594C351.646 279.484 351.71 279.383 351.792 279.298C351.873 279.213 351.972 279.145 352.081 279.099L404.428 255.758C404.648 255.66 404.897 255.653 405.122 255.736C405.347 255.82 405.53 255.988 405.632 256.205L418.584 285.019C418.674 285.237 418.674 285.481 418.584 285.699C418.493 285.916 418.328 286.093 418.117 286.199L365.751 309.451C365.669 309.556 365.565 309.641 365.446 309.701ZM353.625 280.369L365.895 307.627L416.608 285.019L404.356 257.761L353.625 280.369Z" fill="#231F20"/>
<path d="M365.445 308.718L384.326 280.852L417.793 285.377L365.445 308.718Z" fill="#6F93B3"/>
<path d="M365.446 309.7C365.279 309.709 365.114 309.67 364.968 309.589C364.823 309.508 364.704 309.387 364.625 309.241C364.546 309.094 364.51 308.929 364.522 308.763C364.533 308.598 364.592 308.439 364.691 308.305L383.589 280.439C383.682 280.3 383.812 280.189 383.964 280.12C384.117 280.05 384.285 280.025 384.452 280.046L417.919 284.589C418.112 284.614 418.292 284.7 418.431 284.836C418.571 284.971 418.662 285.148 418.691 285.34C418.717 285.533 418.681 285.728 418.587 285.899C418.493 286.069 418.347 286.206 418.17 286.288L365.805 309.539C365.698 309.618 365.576 309.673 365.446 309.7ZM384.757 281.888L367.943 306.713L414.56 285.93L384.757 281.888Z" fill="#231F20"/>
<path d="M352.441 279.833L386.573 285.807L404.807 256.492L352.441 279.833Z" fill="#6F93B3"/>
<path d="M386.556 286.701H386.413L352.281 280.728C352.094 280.694 351.922 280.601 351.793 280.462C351.663 280.323 351.582 280.147 351.562 279.959C351.537 279.768 351.575 279.575 351.668 279.408C351.762 279.24 351.908 279.107 352.083 279.028L404.431 255.688C404.609 255.609 404.808 255.589 404.999 255.631C405.19 255.673 405.362 255.774 405.491 255.92C405.606 256.072 405.668 256.257 405.668 256.448C405.668 256.638 405.606 256.823 405.491 256.975L387.257 286.308C387.178 286.422 387.074 286.517 386.952 286.585C386.831 286.654 386.696 286.693 386.556 286.701ZM355.478 279.547L386.125 284.913L402.509 258.585L355.478 279.547Z" fill="#231F20"/>
<path d="M208.516 337.603C208.278 337.603 208.049 337.509 207.881 337.342C207.713 337.175 207.618 336.948 207.618 336.711C207.618 336.475 207.713 336.248 207.881 336.08C208.049 335.913 208.278 335.819 208.516 335.819C210.902 335.819 213.289 335.819 215.694 335.64C215.932 335.64 216.16 335.734 216.328 335.902C216.497 336.069 216.591 336.296 216.591 336.533C216.591 336.769 216.497 336.996 216.328 337.164C216.16 337.331 215.932 337.425 215.694 337.425C213.289 337.514 210.884 337.568 208.516 337.603ZM201.337 337.603C198.951 337.603 196.546 337.603 194.159 337.425C193.924 337.416 193.703 337.315 193.542 337.145C193.381 336.975 193.293 336.749 193.298 336.515C193.312 336.278 193.416 336.056 193.59 335.893C193.763 335.73 193.993 335.64 194.231 335.64C196.618 335.73 198.987 335.783 201.409 335.819C201.647 335.819 201.875 335.913 202.044 336.08C202.212 336.248 202.307 336.475 202.307 336.711C202.307 336.948 202.212 337.175 202.044 337.342C201.875 337.509 201.647 337.603 201.409 337.603H201.337ZM222.872 337.104C222.645 337.104 222.426 337.017 222.263 336.86C222.099 336.704 222.002 336.491 221.993 336.265C221.985 336.148 222.001 336.03 222.04 335.919C222.078 335.808 222.139 335.706 222.217 335.618C222.295 335.53 222.39 335.458 222.497 335.407C222.603 335.356 222.718 335.326 222.836 335.319C225.205 335.194 227.592 335.034 230.014 334.837C230.131 334.828 230.249 334.841 230.361 334.878C230.472 334.914 230.575 334.972 230.664 335.048C230.753 335.125 230.825 335.218 230.877 335.323C230.928 335.428 230.959 335.542 230.965 335.658C230.975 335.776 230.962 335.894 230.925 336.006C230.889 336.118 230.831 336.221 230.754 336.311C230.678 336.4 230.584 336.474 230.478 336.527C230.373 336.581 230.258 336.613 230.14 336.622C227.753 336.8 225.366 336.961 222.962 337.104H222.872ZM186.981 337.104C184.576 336.961 182.19 336.8 179.803 336.604C179.685 336.595 179.57 336.562 179.465 336.509C179.36 336.455 179.266 336.382 179.19 336.292C179.113 336.203 179.055 336.099 179.018 335.987C178.982 335.875 178.968 335.758 178.978 335.64C178.987 335.523 179.019 335.409 179.073 335.304C179.127 335.2 179.201 335.107 179.291 335.03C179.381 334.954 179.485 334.896 179.598 334.86C179.71 334.824 179.829 334.81 179.947 334.819C182.333 335.016 184.702 335.176 187.125 335.319C187.363 335.319 187.591 335.413 187.759 335.581C187.927 335.748 188.022 335.975 188.022 336.211C188.022 336.448 187.927 336.675 187.759 336.842C187.591 337.01 187.363 337.104 187.125 337.104H186.981ZM237.228 335.979C237.007 335.973 236.796 335.889 236.632 335.742C236.467 335.595 236.361 335.394 236.331 335.176C236.319 335.059 236.33 334.941 236.364 334.828C236.398 334.715 236.454 334.609 236.529 334.518C236.604 334.427 236.697 334.351 236.801 334.296C236.906 334.24 237.021 334.206 237.139 334.195C239.531 333.945 241.924 333.677 244.317 333.392C244.435 333.377 244.554 333.385 244.669 333.415C244.784 333.446 244.891 333.499 244.985 333.571C245.08 333.643 245.158 333.733 245.218 333.835C245.277 333.938 245.315 334.051 245.331 334.168C245.346 334.285 245.338 334.404 245.307 334.518C245.276 334.633 245.223 334.739 245.15 334.833C245.078 334.927 244.988 335.005 244.885 335.064C244.782 335.123 244.668 335.161 244.55 335.176C242.157 335.486 239.765 335.753 237.372 335.979H237.228ZM172.75 335.979H172.661C170.274 335.712 167.887 335.426 165.483 335.123C165.245 335.092 165.029 334.969 164.882 334.779C164.736 334.59 164.671 334.351 164.702 334.115C164.733 333.878 164.857 333.663 165.047 333.518C165.237 333.372 165.478 333.307 165.716 333.338C168.067 333.642 170.436 333.927 172.894 334.177C173.132 334.191 173.355 334.299 173.513 334.476C173.671 334.654 173.752 334.886 173.737 335.123C173.723 335.36 173.615 335.581 173.437 335.738C173.258 335.895 173.024 335.976 172.786 335.962L172.75 335.979ZM251.477 334.195C251.265 334.193 251.06 334.117 250.899 333.98C250.738 333.843 250.632 333.653 250.598 333.445C250.577 333.329 250.581 333.21 250.608 333.095C250.635 332.98 250.686 332.872 250.756 332.777C250.826 332.682 250.916 332.602 251.018 332.542C251.12 332.482 251.234 332.443 251.351 332.428C253.702 332.071 256.071 331.696 258.422 331.304C258.538 331.283 258.656 331.286 258.771 331.312C258.885 331.338 258.993 331.387 259.089 331.455C259.184 331.523 259.264 331.61 259.326 331.709C259.387 331.809 259.427 331.92 259.445 332.035C259.468 332.149 259.468 332.267 259.444 332.381C259.42 332.495 259.373 332.602 259.306 332.697C259.238 332.793 259.152 332.873 259.053 332.934C258.953 332.995 258.843 333.036 258.727 333.053C256.358 333.463 253.989 333.838 251.549 334.195H251.477ZM158.538 334.052H158.394C156.025 333.677 153.657 333.267 151.306 332.839C151.188 332.817 151.075 332.774 150.975 332.709C150.874 332.645 150.787 332.561 150.719 332.464C150.65 332.366 150.602 332.256 150.576 332.139C150.551 332.023 150.549 331.903 150.57 331.786C150.591 331.668 150.635 331.557 150.7 331.456C150.765 331.356 150.849 331.27 150.947 331.202C151.045 331.134 151.156 331.086 151.273 331.06C151.39 331.035 151.511 331.033 151.629 331.054C153.98 331.5 156.33 331.893 158.681 332.268C158.799 332.277 158.914 332.309 159.019 332.363C159.124 332.416 159.218 332.49 159.295 332.579C159.371 332.669 159.43 332.772 159.466 332.884C159.502 332.996 159.516 333.114 159.507 333.231C159.497 333.348 159.465 333.463 159.411 333.567C159.357 333.672 159.283 333.765 159.193 333.841C159.103 333.917 158.999 333.975 158.887 334.012C158.774 334.048 158.656 334.061 158.538 334.052ZM265.636 331.786C265.398 331.809 265.16 331.738 264.975 331.587C264.79 331.437 264.673 331.219 264.649 330.983C264.625 330.746 264.697 330.51 264.848 330.326C265 330.141 265.218 330.025 265.456 330.001C267.807 329.537 270.158 329.055 272.473 328.556C272.711 328.503 272.96 328.548 273.165 328.678C273.371 328.809 273.515 329.015 273.568 329.252C273.62 329.488 273.576 329.736 273.445 329.94C273.313 330.144 273.106 330.288 272.868 330.34L265.815 331.786H265.636ZM144.451 331.429H144.253C141.902 330.929 139.569 330.394 137.237 329.823C137.123 329.796 137.016 329.746 136.921 329.677C136.827 329.609 136.748 329.522 136.687 329.422C136.627 329.322 136.588 329.212 136.571 329.097C136.554 328.982 136.561 328.864 136.59 328.752C136.646 328.523 136.79 328.325 136.992 328.201C137.194 328.077 137.436 328.038 137.667 328.092C139.982 328.663 142.297 329.18 144.63 329.68C144.746 329.705 144.855 329.753 144.952 329.821C145.049 329.888 145.132 329.974 145.195 330.074C145.259 330.173 145.302 330.284 145.322 330.401C145.342 330.517 145.338 330.636 145.312 330.751C145.265 330.953 145.148 331.133 144.98 331.257C144.812 331.382 144.605 331.442 144.397 331.429H144.451ZM279.579 328.734C279.38 328.735 279.186 328.668 279.029 328.545C278.873 328.422 278.763 328.249 278.718 328.056C278.688 327.942 278.682 327.824 278.698 327.708C278.714 327.591 278.754 327.479 278.814 327.378C278.874 327.277 278.953 327.189 279.048 327.118C279.142 327.048 279.25 326.996 279.364 326.967C281.697 326.396 284.012 325.801 286.309 325.183C286.537 325.122 286.78 325.154 286.985 325.271C287.19 325.388 287.341 325.581 287.404 325.807C287.46 326.037 287.427 326.279 287.31 326.484C287.193 326.69 287.002 326.843 286.776 326.914C284.461 327.52 282.128 328.109 279.795 328.698L279.579 328.734ZM130.435 328.056H130.184C127.869 327.413 125.572 326.753 123.275 326.057C123.037 325.986 122.837 325.824 122.719 325.606C122.602 325.389 122.576 325.134 122.647 324.897C122.718 324.66 122.881 324.462 123.1 324.345C123.319 324.227 123.575 324.202 123.813 324.273C126.074 324.969 128.372 325.629 130.669 326.253C130.898 326.32 131.092 326.473 131.209 326.68C131.326 326.886 131.358 327.13 131.297 327.36C131.254 327.549 131.15 327.72 131.001 327.846C130.852 327.971 130.666 328.045 130.471 328.056H130.435ZM293.451 325.004C293.213 325.037 292.972 324.975 292.78 324.831C292.588 324.687 292.462 324.473 292.428 324.237C292.395 324 292.458 323.76 292.602 323.569C292.747 323.378 292.962 323.253 293.2 323.22C295.497 322.559 297.776 321.845 300.037 321.132C300.155 321.095 300.279 321.082 300.402 321.094C300.525 321.105 300.644 321.14 300.753 321.197C300.862 321.255 300.959 321.333 301.038 321.427C301.117 321.521 301.176 321.63 301.213 321.747C301.249 321.864 301.262 321.988 301.251 322.11C301.239 322.232 301.204 322.351 301.147 322.459C301.089 322.568 301.011 322.664 300.916 322.742C300.821 322.821 300.711 322.88 300.594 322.916C298.314 323.648 296.017 324.344 293.702 325.022C293.63 325.03 293.557 325.024 293.487 325.004H293.451ZM116.725 323.862C116.63 323.879 116.533 323.879 116.438 323.862C114.159 323.095 111.898 322.274 109.672 321.435C109.476 321.335 109.323 321.167 109.244 320.962C109.164 320.758 109.163 320.531 109.241 320.326C109.319 320.121 109.47 319.951 109.665 319.85C109.86 319.748 110.087 319.722 110.3 319.775C112.526 320.596 114.751 321.399 117.012 322.167C117.236 322.248 117.42 322.412 117.523 322.625C117.627 322.839 117.643 323.084 117.568 323.309C117.504 323.47 117.393 323.609 117.249 323.708C117.106 323.806 116.935 323.86 116.761 323.862H116.725ZM307.126 320.614C306.941 320.617 306.759 320.561 306.608 320.455C306.457 320.35 306.343 320.199 306.282 320.025C306.207 319.8 306.223 319.555 306.327 319.342C306.431 319.128 306.615 318.964 306.839 318.883C309.1 318.098 311.343 317.277 313.568 316.438C313.677 316.395 313.794 316.375 313.912 316.378C314.029 316.381 314.145 316.407 314.252 316.456C314.359 316.504 314.456 316.573 314.535 316.659C314.615 316.745 314.677 316.846 314.717 316.956C314.76 317.066 314.781 317.183 314.778 317.301C314.775 317.419 314.749 317.536 314.7 317.644C314.652 317.752 314.582 317.849 314.496 317.93C314.409 318.011 314.307 318.074 314.196 318.116C311.971 318.954 309.71 319.775 307.431 320.578C307.344 320.605 307.253 320.617 307.162 320.614H307.126ZM103.32 318.829C103.207 318.855 103.091 318.855 102.979 318.829C100.754 317.901 98.5283 316.938 96.3749 315.974C96.2671 315.924 96.1704 315.854 96.0903 315.766C96.0102 315.679 95.9483 315.577 95.9082 315.466C95.8681 315.355 95.8507 315.237 95.8569 315.119C95.863 315.001 95.8927 314.885 95.9442 314.778C95.9924 314.672 96.0616 314.576 96.1477 314.497C96.2338 314.417 96.3351 314.356 96.4455 314.316C96.5559 314.276 96.6732 314.258 96.7905 314.264C96.9079 314.27 97.0228 314.299 97.1286 314.35C99.2641 315.314 101.453 316.277 103.661 317.188C103.77 317.231 103.87 317.295 103.954 317.377C104.038 317.459 104.105 317.557 104.15 317.666C104.195 317.774 104.218 317.89 104.217 318.007C104.216 318.124 104.192 318.24 104.145 318.348C104.071 318.491 103.957 318.611 103.818 318.693C103.678 318.775 103.518 318.816 103.356 318.812L103.32 318.829ZM320.567 315.546C320.388 315.55 320.213 315.499 320.065 315.4C319.918 315.301 319.804 315.158 319.741 314.993C319.695 314.885 319.67 314.769 319.669 314.652C319.668 314.535 319.691 314.419 319.736 314.311C319.782 314.202 319.848 314.104 319.932 314.022C320.016 313.94 320.116 313.876 320.226 313.833C322.433 312.922 324.622 312.048 326.794 311.031C326.902 310.984 327.019 310.958 327.137 310.956C327.255 310.954 327.373 310.975 327.483 311.018C327.593 311.061 327.694 311.125 327.779 311.207C327.864 311.289 327.931 311.387 327.978 311.495C328.071 311.711 328.075 311.954 327.992 312.173C327.908 312.393 327.743 312.572 327.53 312.673C325.34 313.636 323.133 314.564 320.908 315.492C320.808 315.518 320.706 315.53 320.603 315.528L320.567 315.546ZM90.3273 312.887C90.1911 312.883 90.0571 312.852 89.9325 312.798C87.779 311.727 85.6435 310.602 83.5618 309.46C83.4579 309.404 83.3662 309.328 83.2919 309.237C83.2176 309.146 83.1621 309.04 83.1288 308.928C83.0954 308.815 83.0848 308.697 83.0976 308.58C83.1103 308.463 83.1461 308.35 83.2029 308.247C83.3201 308.042 83.5129 307.89 83.7405 307.823C83.9682 307.756 84.213 307.78 84.4232 307.89C86.4869 309.032 88.6045 310.138 90.74 311.191C90.9493 311.305 91.1068 311.494 91.1803 311.72C91.2537 311.946 91.2374 312.191 91.1348 312.405C91.0567 312.55 90.9404 312.672 90.7981 312.757C90.6559 312.842 90.4931 312.887 90.3273 312.887ZM333.721 309.746C333.552 309.751 333.385 309.706 333.241 309.617C333.098 309.528 332.984 309.399 332.913 309.246C332.861 309.141 332.831 309.026 332.823 308.909C332.816 308.792 332.832 308.674 332.87 308.563C332.908 308.452 332.968 308.35 333.047 308.262C333.125 308.174 333.22 308.102 333.326 308.05C335.479 307.015 337.615 305.962 339.732 304.874C339.944 304.765 340.191 304.744 340.418 304.816C340.645 304.888 340.834 305.047 340.944 305.258C341.053 305.468 341.074 305.713 341.002 305.939C340.929 306.165 340.77 306.353 340.558 306.462C338.422 307.551 336.287 308.622 334.098 309.657C333.98 309.713 333.85 309.738 333.721 309.728V309.746ZM77.7834 305.998C77.6176 305.994 77.4561 305.945 77.3168 305.855C75.2531 304.624 73.2074 303.339 71.2154 302.036C71.0187 301.906 70.882 301.703 70.8349 301.472C70.7878 301.242 70.8343 301.002 70.9642 300.805C71.0277 300.706 71.1105 300.621 71.2077 300.555C71.3049 300.489 71.4146 300.443 71.5301 300.419C71.6456 300.396 71.7646 300.396 71.8801 300.419C71.9956 300.443 72.1052 300.489 72.2024 300.555C74.1764 301.84 76.2042 303.107 78.25 304.339C78.4507 304.461 78.5951 304.656 78.6522 304.883C78.7092 305.11 78.6744 305.35 78.5551 305.552C78.4754 305.686 78.3627 305.797 78.2277 305.875C78.0926 305.953 77.9397 305.996 77.7834 305.998ZM346.462 303.161C346.303 303.159 346.147 303.118 346.009 303.04C345.871 302.961 345.755 302.85 345.672 302.715C345.562 302.505 345.538 302.262 345.605 302.036C345.672 301.809 345.825 301.618 346.031 301.501C348.113 300.341 350.177 299.145 352.204 297.932C352.306 297.871 352.418 297.83 352.535 297.813C352.652 297.795 352.772 297.8 352.887 297.828C353.002 297.857 353.11 297.907 353.205 297.977C353.301 298.047 353.381 298.134 353.443 298.235C353.504 298.336 353.545 298.448 353.563 298.564C353.58 298.681 353.575 298.799 353.547 298.914C353.518 299.028 353.468 299.136 353.397 299.231C353.327 299.325 353.239 299.406 353.138 299.467C351.092 300.656 349.01 301.846 346.893 303.036C346.762 303.113 346.614 303.156 346.462 303.161ZM65.8138 298.128C65.6282 298.127 65.447 298.071 65.2934 297.967C63.3314 296.552 61.4112 295.106 59.533 293.631C59.3481 293.484 59.2292 293.27 59.2023 293.036C59.1754 292.802 59.2427 292.567 59.3894 292.382C59.5432 292.201 59.7609 292.085 59.9979 292.058C60.2348 292.032 60.473 292.096 60.6635 292.239C62.4581 293.702 64.4141 295.13 66.3343 296.522C66.4313 296.59 66.5139 296.676 66.5773 296.775C66.6407 296.875 66.6837 296.986 66.7037 297.102C66.7237 297.218 66.7204 297.337 66.694 297.452C66.6675 297.567 66.6185 297.675 66.5496 297.771C66.4632 297.883 66.3518 297.974 66.2241 298.036C66.0964 298.098 65.9559 298.129 65.8138 298.128ZM54.58 289.205C54.3636 289.204 54.1543 289.128 53.9878 288.991C52.3727 287.581 50.7576 286.136 49.2143 284.69L48.658 284.155C48.5745 284.073 48.5081 283.976 48.4628 283.869C48.4175 283.762 48.3941 283.646 48.3941 283.53C48.3941 283.414 48.4175 283.299 48.4628 283.191C48.5081 283.084 48.5745 282.987 48.658 282.905C48.7415 282.822 48.8407 282.755 48.95 282.71C49.0594 282.665 49.1767 282.642 49.2951 282.642C49.4136 282.642 49.5308 282.665 49.6402 282.71C49.7495 282.755 49.8488 282.822 49.9322 282.905L50.4705 283.423C52.0138 284.869 53.593 286.296 55.2081 287.67C55.3481 287.789 55.4479 287.948 55.4939 288.126C55.5398 288.303 55.5298 288.49 55.4652 288.662C55.4005 288.833 55.2843 288.981 55.1323 289.085C54.9804 289.188 54.8001 289.243 54.6159 289.241L54.58 289.205ZM44.1717 279.39C43.9292 279.389 43.6968 279.293 43.5257 279.122C41.8388 277.338 40.1878 275.553 38.6086 273.875C38.5251 273.794 38.4587 273.697 38.4134 273.59C38.368 273.482 38.3447 273.367 38.3447 273.251C38.3447 273.134 38.368 273.019 38.4134 272.912C38.4587 272.805 38.5251 272.708 38.6086 272.626C38.692 272.543 38.7913 272.476 38.9006 272.431C39.01 272.386 39.1272 272.362 39.2457 272.362C39.3641 272.362 39.4814 272.386 39.5907 272.431C39.7001 272.476 39.7993 272.543 39.8827 272.626C41.4619 274.411 43.095 276.195 44.7639 277.819C44.848 277.902 44.9147 278.001 44.9603 278.11C45.0058 278.218 45.0293 278.335 45.0293 278.453C45.0293 278.571 45.0058 278.687 44.9603 278.796C44.9147 278.905 44.848 279.003 44.7639 279.086C44.6205 279.281 44.4092 279.414 44.1717 279.461V279.39ZM34.5889 268.682C34.4543 268.68 34.3218 268.649 34.2009 268.59C34.0799 268.532 33.9734 268.447 33.889 268.343C32.3457 266.559 30.8562 264.595 29.4206 262.722C29.2823 262.531 29.2238 262.294 29.2572 262.061C29.2907 261.828 29.4136 261.617 29.6 261.472C29.7904 261.33 30.0297 261.269 30.2653 261.303C30.5009 261.336 30.7134 261.462 30.8562 261.651C32.2739 263.435 33.7634 265.381 35.2708 267.219C35.3477 267.307 35.4061 267.41 35.4424 267.521C35.4787 267.632 35.4923 267.75 35.4822 267.866C35.4722 267.983 35.4388 268.096 35.384 268.199C35.3292 268.303 35.2541 268.394 35.1631 268.468C35.0279 268.662 34.8219 268.797 34.5889 268.843V268.682ZM25.9571 257.279C25.8114 257.279 25.6678 257.243 25.5394 257.175C25.4109 257.106 25.3017 257.007 25.2213 256.886C23.8575 254.905 22.5295 252.871 21.2913 250.854C21.1905 250.654 21.1689 250.424 21.2308 250.209C21.2926 249.994 21.4334 249.81 21.6252 249.693C21.817 249.576 22.0459 249.535 22.2666 249.579C22.4872 249.622 22.6836 249.746 22.8167 249.926C24.0369 251.907 25.347 253.924 26.6929 255.887C26.7604 255.982 26.808 256.09 26.8328 256.204C26.8577 256.319 26.8593 256.436 26.8375 256.551C26.8158 256.666 26.7711 256.775 26.7062 256.873C26.6413 256.97 26.5574 257.053 26.4596 257.118C26.3371 257.282 26.1584 257.397 25.9571 257.439V257.279ZM18.4559 245.125C18.2949 245.124 18.1371 245.08 17.9985 244.999C17.8598 244.917 17.7453 244.801 17.6663 244.661C16.4999 242.556 15.3873 240.396 14.3464 238.273C14.295 238.166 14.2653 238.051 14.2591 237.933C14.253 237.815 14.2704 237.696 14.3105 237.585C14.3505 237.474 14.4124 237.372 14.4925 237.285C14.5726 237.197 14.6694 237.127 14.7771 237.077C14.8818 237.026 14.9957 236.995 15.1123 236.988C15.2288 236.981 15.3456 236.997 15.4559 237.035C15.5661 237.073 15.6676 237.133 15.7544 237.211C15.8412 237.288 15.9116 237.382 15.9615 237.487C16.9844 239.593 18.097 241.717 19.2276 243.805C19.2872 243.905 19.3258 244.016 19.3409 244.131C19.356 244.247 19.3473 244.364 19.3154 244.476C19.2835 244.587 19.2291 244.692 19.1553 244.782C19.0816 244.872 18.9902 244.947 18.8866 245.001C18.7794 245.141 18.6277 245.242 18.4559 245.286V245.125ZM12.193 232.419C12.0128 232.422 11.836 232.37 11.6855 232.272C11.5351 232.173 11.418 232.032 11.3496 231.866C10.4343 229.671 9.55501 227.404 8.76542 225.174C8.69221 224.953 8.70839 224.713 8.81051 224.504C8.91263 224.295 9.09264 224.134 9.31229 224.055C9.53194 223.976 9.77391 223.985 9.98679 224.081C10.1997 224.176 10.3667 224.351 10.4523 224.567C11.2419 226.78 12.1033 229.011 13.0185 231.188C13.103 231.406 13.0999 231.648 13.0097 231.864C12.9195 232.08 12.7491 232.253 12.5339 232.348C12.4267 232.395 12.3105 232.42 12.193 232.419ZM7.41951 218.963C7.22464 218.966 7.03429 218.905 6.87838 218.788C6.72246 218.672 6.60982 218.508 6.55813 218.321C5.89415 216.019 5.28401 213.681 4.76359 211.361C4.73713 211.246 4.7338 211.127 4.75381 211.011C4.77382 210.895 4.81677 210.784 4.88017 210.684C4.94357 210.585 5.02617 210.499 5.12321 210.431C5.22024 210.363 5.32979 210.315 5.44552 210.29C5.67619 210.242 5.91653 210.287 6.11464 210.413C6.31275 210.54 6.45271 210.74 6.5043 210.968C7.02472 213.253 7.61691 215.555 8.29884 217.821C8.33183 217.934 8.34222 218.051 8.32941 218.168C8.3166 218.284 8.28085 218.397 8.22419 218.5C8.16754 218.603 8.09109 218.693 7.99921 218.767C7.90732 218.84 7.80181 218.895 7.6887 218.928C7.6138 218.954 7.53471 218.966 7.4554 218.963H7.41951ZM4.27907 205.043C4.064 205.046 3.8551 204.972 3.6904 204.834C3.52571 204.697 3.41619 204.505 3.3818 204.294C3.00494 201.92 2.69987 199.529 2.46658 197.155C2.44517 196.919 2.51916 196.683 2.67228 196.501C2.82541 196.319 3.04513 196.204 3.2831 196.183C3.52107 196.161 3.7578 196.235 3.94121 196.387C4.12463 196.54 4.23971 196.758 4.26112 196.995C4.49441 199.315 4.79948 201.67 5.17634 204.008C5.19692 204.124 5.19417 204.243 5.16827 204.358C5.14236 204.473 5.0938 204.582 5.02539 204.678C4.95698 204.775 4.87008 204.856 4.76971 204.919C4.66933 204.982 4.55747 205.024 4.44058 205.043H4.27907ZM2.89727 190.856C2.66375 190.851 2.44075 190.758 2.27393 190.596C2.10712 190.433 2.00912 190.213 2 189.981C2 188.803 2 187.626 2 186.412C2 185.199 2 183.949 2 182.736C2.0022 182.618 2.02838 182.502 2.07697 182.394C2.12556 182.286 2.19556 182.19 2.28274 182.11C2.36993 182.029 2.4725 181.968 2.58428 181.928C2.69606 181.889 2.81474 181.872 2.93316 181.879C3.16799 181.889 3.38978 181.989 3.55086 182.159C3.71193 182.329 3.79943 182.556 3.79454 182.789C3.79454 183.985 3.79454 185.199 3.79454 186.359C3.79454 187.519 3.79454 188.661 3.79454 189.821C3.79934 189.939 3.78027 190.058 3.73845 190.169C3.69664 190.28 3.63292 190.382 3.55102 190.469C3.46912 190.555 3.3707 190.624 3.26153 190.672C3.15235 190.72 3.03461 190.746 2.91522 190.749L2.89727 190.856ZM3.3818 176.579C3.26452 176.57 3.15023 176.538 3.0457 176.484C2.94116 176.431 2.8485 176.357 2.77321 176.267C2.69791 176.177 2.6415 176.073 2.60733 175.961C2.57316 175.849 2.56191 175.732 2.57425 175.615C2.82549 173.224 3.1485 170.815 3.56125 168.477C3.57863 168.361 3.6191 168.251 3.68027 168.151C3.74145 168.051 3.82209 167.965 3.91743 167.896C4.01278 167.828 4.12089 167.78 4.2354 167.754C4.34991 167.728 4.46849 167.725 4.58414 167.745C4.70103 167.765 4.81289 167.807 4.91327 167.87C5.01364 167.932 5.10055 168.014 5.16896 168.11C5.23737 168.206 5.28592 168.315 5.31183 168.43C5.33774 168.545 5.34048 168.664 5.3199 168.78C4.9251 171.082 4.60208 173.438 4.36879 175.794C4.33788 176.021 4.22363 176.228 4.04805 176.377C3.87246 176.525 3.64794 176.603 3.41769 176.597L3.3818 176.579ZM5.80442 162.516H5.58908C5.47468 162.487 5.36719 162.436 5.27276 162.365C5.17833 162.295 5.09883 162.207 5.03881 162.105C4.97879 162.004 4.93943 161.892 4.923 161.776C4.90657 161.66 4.91338 161.541 4.94304 161.428C5.49935 159.09 6.16333 156.77 6.89909 154.503C6.97301 154.279 7.13358 154.092 7.34556 153.985C7.55753 153.878 7.80358 153.859 8.02966 153.932C8.14087 153.967 8.24409 154.023 8.33333 154.097C8.42256 154.172 8.49602 154.263 8.54945 154.366C8.60288 154.469 8.63521 154.582 8.64456 154.697C8.6539 154.813 8.64009 154.929 8.60391 155.039C7.88609 157.27 7.24006 159.554 6.68375 161.856C6.63684 162.045 6.52902 162.214 6.37673 162.336C6.22444 162.459 6.03606 162.528 5.84031 162.534L5.80442 162.516ZM10.201 148.936C10.089 148.962 9.97217 148.962 9.86009 148.936C9.75044 148.892 9.65044 148.828 9.56583 148.746C9.48121 148.664 9.41363 148.567 9.36696 148.459C9.32029 148.351 9.29544 148.236 9.29384 148.118C9.29223 148.001 9.3139 147.884 9.35761 147.776C10.2549 145.563 11.2598 143.35 12.3186 141.208C12.3608 141.089 12.428 140.98 12.5156 140.889C12.6031 140.798 12.7092 140.726 12.8268 140.679C12.9443 140.631 13.0707 140.609 13.1975 140.613C13.3243 140.618 13.4486 140.649 13.5624 140.705C13.6761 140.761 13.7767 140.84 13.8573 140.938C13.938 141.035 13.997 141.149 14.0304 141.27C14.0638 141.392 14.0708 141.519 14.0511 141.644C14.0313 141.769 13.9852 141.888 13.9157 141.993C12.8929 144.099 11.9059 146.259 11.0265 148.454C10.9523 148.6 10.8398 148.724 10.7008 148.812C10.5619 148.899 10.4016 148.948 10.2369 148.953L10.201 148.936ZM16.5537 136.211C16.3953 136.212 16.2399 136.169 16.1051 136.086C16.0024 136.029 15.9124 135.952 15.8403 135.859C15.7682 135.767 15.7155 135.661 15.6854 135.548C15.6553 135.434 15.6483 135.316 15.6649 135.2C15.6815 135.085 15.7214 134.973 15.7821 134.873C17.0024 132.821 18.2765 130.768 19.6044 128.77C19.7447 128.596 19.9449 128.482 20.1658 128.448C20.3867 128.413 20.6125 128.463 20.7988 128.585C20.9852 128.708 21.1188 128.896 21.1733 129.111C21.2279 129.327 21.1996 129.555 21.0939 129.751C19.8018 131.714 18.5277 133.749 17.3254 135.765C17.2471 135.9 17.1347 136.012 16.9993 136.09C16.8639 136.169 16.7103 136.21 16.5537 136.211ZM24.4676 124.29C24.2728 124.294 24.0826 124.231 23.9293 124.112C23.7412 123.973 23.6153 123.766 23.5784 123.536C23.5415 123.306 23.5966 123.071 23.7319 122.88C25.1675 120.953 26.657 119.043 28.1823 117.205C28.2555 117.114 28.3464 117.037 28.4498 116.981C28.5531 116.925 28.6667 116.89 28.7838 116.879C28.901 116.867 29.0193 116.879 29.1318 116.913C29.2442 116.948 29.3485 117.005 29.4385 117.08C29.6207 117.23 29.7361 117.445 29.7596 117.679C29.7831 117.913 29.7129 118.147 29.5641 118.33C28.0567 120.114 26.5852 122.024 25.1855 123.933C25.0957 124.033 24.9848 124.112 24.8607 124.165C24.7366 124.217 24.6024 124.242 24.4676 124.237V124.29ZM33.566 113.261C33.4567 113.264 33.3481 113.244 33.2465 113.204C33.1448 113.165 33.0521 113.105 32.9738 113.029C32.8897 112.946 32.8229 112.848 32.7773 112.739C32.7318 112.63 32.7083 112.514 32.7083 112.396C32.7083 112.278 32.7318 112.161 32.7773 112.053C32.8229 111.944 32.8897 111.845 32.9738 111.762C34.5889 109.978 36.2937 108.193 37.9985 106.605C38.0803 106.522 38.1781 106.456 38.2859 106.411C38.3938 106.366 38.5096 106.342 38.6266 106.342C38.7436 106.342 38.8594 106.366 38.9672 106.411C39.0751 106.456 39.1728 106.522 39.2547 106.605C39.3388 106.688 39.4055 106.786 39.4511 106.895C39.4966 107.004 39.5201 107.121 39.5201 107.238C39.5201 107.356 39.4966 107.473 39.4511 107.581C39.4055 107.69 39.3388 107.789 39.2547 107.872C37.5678 109.496 35.8989 111.209 34.2838 112.958C34.1906 113.05 34.0777 113.121 33.9534 113.164C33.8292 113.207 33.6968 113.222 33.566 113.208V113.261ZM43.8307 103.285C43.7045 103.286 43.5795 103.26 43.4648 103.207C43.35 103.155 43.2483 103.078 43.1668 102.982C43.0832 102.901 43.0168 102.803 42.9715 102.696C42.9262 102.589 42.9028 102.474 42.9028 102.357C42.9028 102.241 42.9262 102.126 42.9715 102.019C43.0168 101.911 43.0832 101.814 43.1668 101.733C44.9613 100.145 46.8635 98.6098 48.7478 97.1464C48.9397 97.0333 49.1665 96.9938 49.3857 97.0353C49.6048 97.0768 49.8011 97.1965 49.9378 97.3719C50.0744 97.5472 50.142 97.7662 50.1277 97.9875C50.1135 98.2089 50.0184 98.4175 49.8604 98.5741C48.0658 100.002 46.1457 101.519 44.3511 103.071C44.1986 103.177 44.0167 103.233 43.8307 103.232V103.285ZM192.957 100.466C192.794 100.464 192.634 100.419 192.495 100.334C192.356 100.249 192.242 100.128 192.167 99.9839C190.993 97.9846 189.597 96.1228 188.004 94.4338C187.845 94.2563 187.763 94.0231 187.776 93.7855C187.79 93.5479 187.897 93.3253 188.076 93.1668C188.254 93.0082 188.489 92.9266 188.728 92.94C188.967 92.9534 189.191 93.0607 189.35 93.2381C191.048 95.0319 192.524 97.021 193.747 99.163C193.802 99.2658 193.837 99.3786 193.848 99.4949C193.859 99.6112 193.847 99.7285 193.812 99.8399C193.777 99.9514 193.72 100.055 193.644 100.144C193.568 100.233 193.475 100.306 193.37 100.359C193.239 100.411 193.097 100.43 192.957 100.412V100.466ZM55.2619 94.4874C55.1156 94.4911 54.9708 94.4568 54.8418 94.388C54.7128 94.3191 54.604 94.2181 54.5262 94.0948C54.4587 93.9992 54.4111 93.8911 54.3862 93.777C54.3614 93.6628 54.3598 93.5449 54.3815 93.4301C54.4033 93.3153 54.4479 93.2061 54.5128 93.1087C54.5778 93.0114 54.6616 92.928 54.7595 92.8634C56.7335 91.5071 58.7792 90.2043 60.825 88.9729C60.9255 88.909 61.038 88.866 61.1557 88.8466C61.2734 88.8272 61.3938 88.8319 61.5096 88.8603C61.6255 88.8886 61.7343 88.9402 61.8295 89.0117C61.9246 89.0832 62.0042 89.1733 62.0633 89.2763C62.1251 89.3769 62.1663 89.4887 62.1845 89.6053C62.2026 89.7218 62.1973 89.8408 62.169 89.9553C62.1406 90.0698 62.0897 90.1776 62.0192 90.2724C61.9487 90.3672 61.86 90.4472 61.7582 90.5077C59.7304 91.7034 57.7205 93.0061 55.7644 94.3267C55.6185 94.4324 55.4424 94.4887 55.2619 94.4874ZM183.5 89.8117C183.289 89.8112 183.085 89.7352 182.926 89.5976C181.107 88.1009 179.202 86.7124 177.219 85.4394C177.12 85.375 177.035 85.2918 176.968 85.1946C176.901 85.0974 176.855 84.9881 176.83 84.8729C176.806 84.7577 176.805 84.6389 176.827 84.5233C176.849 84.4077 176.894 84.2976 176.959 84.1991C177.023 84.1007 177.107 84.0159 177.205 83.9497C177.303 83.8834 177.413 83.8369 177.528 83.8129C177.644 83.7889 177.764 83.7878 177.88 83.8096C177.996 83.8315 178.107 83.8759 178.206 83.9404C180.244 85.2596 182.204 86.6956 184.074 88.2413C184.213 88.3593 184.312 88.5167 184.359 88.6924C184.405 88.8681 184.397 89.0537 184.334 89.2244C184.272 89.3951 184.158 89.5428 184.009 89.6478C183.86 89.7527 183.682 89.8099 183.5 89.8117ZM67.4648 87.1348C67.299 87.1348 67.1362 87.09 66.9939 87.0051C66.8517 86.9202 66.7353 86.7985 66.6573 86.653C66.5495 86.4444 66.5286 86.202 66.5992 85.9783C66.6697 85.7545 66.8259 85.5674 67.0341 85.4573C69.1517 84.3508 71.341 83.2979 73.5483 82.3164C73.6552 82.2661 73.7712 82.2378 73.8893 82.2331C74.0074 82.2284 74.1253 82.2474 74.2359 82.2891C74.3465 82.3307 74.4474 82.3941 74.5328 82.4755C74.6182 82.5568 74.6862 82.6545 74.7327 82.7625C74.8251 82.9785 74.8299 83.2216 74.7463 83.4411C74.6628 83.6606 74.4971 83.8394 74.2841 83.9404C72.1127 84.9041 69.9592 85.9391 67.8776 87.0277C67.7509 87.0966 67.6092 87.1333 67.4648 87.1348ZM171.548 81.9952C171.41 81.993 171.274 81.9562 171.153 81.8881C169.09 80.8709 166.9 79.9072 164.675 79.0506C164.455 78.9665 164.277 78.7995 164.179 78.5857C164.082 78.3719 164.073 78.1286 164.155 77.9084C164.196 77.7978 164.26 77.6965 164.341 77.6105C164.423 77.5244 164.521 77.4553 164.629 77.4072C164.738 77.359 164.855 77.3328 164.973 77.33C165.092 77.3272 165.21 77.3479 165.321 77.3909C167.6 78.2653 169.843 79.1755 171.961 80.2998C172.172 80.4068 172.332 80.5926 172.406 80.8166C172.48 81.0407 172.462 81.2847 172.356 81.4955C172.275 81.6556 172.148 81.7884 171.992 81.8773C171.835 81.9662 171.656 82.0072 171.476 81.9952H171.548ZM80.6188 81.2813C80.4371 81.2802 80.2598 81.2252 80.1096 81.1235C79.9594 81.0218 79.8431 80.878 79.7754 80.7103C79.7324 80.6014 79.7119 80.4851 79.7149 80.3683C79.7179 80.2514 79.7444 80.1363 79.793 80.0298C79.8415 79.9234 79.911 79.8276 79.9974 79.7483C80.0837 79.669 80.1852 79.6077 80.2958 79.5681C82.539 78.7115 84.836 77.9263 87.133 77.2124C87.2448 77.1742 87.3633 77.1592 87.4812 77.1684C87.599 77.1777 87.7137 77.211 87.8181 77.2662C87.9225 77.3215 88.0143 77.3975 88.0878 77.4896C88.1614 77.5816 88.2151 77.6877 88.2456 77.8013C88.2814 77.9126 88.2945 78.0299 88.284 78.1463C88.2735 78.2627 88.2396 78.3758 88.1844 78.4789C88.1292 78.582 88.0537 78.6731 87.9625 78.7468C87.8713 78.8205 87.7662 78.8752 87.6534 78.9078C85.4102 79.6216 83.1312 80.389 80.9239 81.2278C80.804 81.274 80.6751 81.2923 80.547 81.2813H80.6188ZM94.2932 77.0161C94.0552 77.0445 93.8157 76.9778 93.6272 76.8305C93.4387 76.6832 93.3168 76.4676 93.2883 76.2309C93.2597 75.9942 93.3268 75.756 93.4749 75.5686C93.623 75.3812 93.8399 75.2599 94.0778 75.2315C96.3928 74.6426 98.7616 74.1251 101.13 73.6789C101.246 73.6555 101.365 73.6549 101.481 73.6771C101.596 73.6994 101.706 73.7442 101.805 73.8088C101.903 73.8734 101.988 73.9567 102.054 74.0538C102.12 74.151 102.166 74.2601 102.189 74.3749C102.231 74.6089 102.18 74.85 102.046 75.0468C101.912 75.2436 101.706 75.3803 101.471 75.4278C99.1385 75.874 96.8056 76.3915 94.5085 76.9626L94.2932 77.0161ZM158.179 76.8555H157.946C155.72 76.2309 153.405 75.6598 151.037 75.178C150.921 75.1546 150.811 75.1088 150.714 75.0432C150.616 74.9776 150.532 74.8935 150.467 74.7957C150.402 74.6979 150.357 74.5884 150.335 74.4733C150.312 74.3582 150.313 74.2399 150.337 74.1251C150.388 73.8954 150.528 73.6947 150.725 73.5649C150.922 73.4352 151.163 73.3865 151.395 73.4291C153.8 73.9288 156.169 74.4998 158.43 75.2137C158.659 75.2802 158.853 75.4332 158.97 75.6399C159.088 75.8466 159.119 76.0907 159.058 76.3201C158.979 76.4992 158.843 76.6481 158.672 76.7445C158.5 76.841 158.302 76.8799 158.107 76.8555H158.179ZM108.38 74.3214C108.263 74.3296 108.144 74.3146 108.032 74.2774C107.92 74.2401 107.817 74.1813 107.727 74.1042C107.547 73.9486 107.437 73.7282 107.42 73.4915C107.404 73.2549 107.482 73.0213 107.639 72.8423C107.795 72.6632 108.017 72.5533 108.255 72.5368C110.624 72.2156 113.028 71.9479 115.433 71.7516C115.551 71.7422 115.669 71.756 115.782 71.7922C115.894 71.8283 115.998 71.8862 116.088 71.9624C116.178 72.0387 116.252 72.1318 116.306 72.2364C116.36 72.3411 116.393 72.4553 116.402 72.5725C116.411 72.6896 116.397 72.8075 116.361 72.9194C116.325 73.0312 116.267 73.1348 116.19 73.2243C116.113 73.3138 116.02 73.3874 115.914 73.4409C115.809 73.4944 115.694 73.5268 115.576 73.5362C113.226 73.7503 110.839 74.0002 108.506 74.3214H108.38ZM144.146 74.0002H144.02C141.741 73.7146 139.354 73.4648 136.949 73.3042C136.831 73.2973 136.716 73.2674 136.61 73.2162C136.504 73.1649 136.409 73.0933 136.33 73.0054C136.252 72.9175 136.192 72.8151 136.153 72.7041C136.115 72.593 136.099 72.4755 136.106 72.3583C136.124 72.12 136.236 71.8984 136.418 71.7414C136.599 71.5845 136.835 71.5048 137.075 71.5196C139.516 71.698 141.938 71.93 144.253 72.2334C144.371 72.2404 144.486 72.2705 144.592 72.3218C144.699 72.3731 144.794 72.4448 144.872 72.5326C144.95 72.6204 145.01 72.7227 145.049 72.8337C145.087 72.9446 145.104 73.0621 145.097 73.1792C145.09 73.2964 145.059 73.4111 145.008 73.5166C144.956 73.6222 144.884 73.7166 144.796 73.7945C144.707 73.8724 144.605 73.9322 144.493 73.9706C144.381 74.0089 144.263 74.025 144.146 74.018V74.0002ZM122.611 73.09C122.379 73.0902 122.156 73.0011 121.989 72.8414C121.822 72.6817 121.723 72.4638 121.714 72.2334C121.709 71.9979 121.796 71.7697 121.956 71.5966C122.117 71.4236 122.339 71.3192 122.575 71.3054C124.962 71.3054 127.402 71.1983 129.753 71.3054C129.99 71.3146 130.213 71.4146 130.377 71.5843C130.541 71.754 130.633 71.9802 130.633 72.2156C130.63 72.3327 130.605 72.4483 130.558 72.5557C130.51 72.6631 130.442 72.7601 130.357 72.8413C130.272 72.9225 130.172 72.9863 130.062 73.029C129.952 73.0716 129.835 73.0924 129.717 73.09C127.367 73.09 124.944 73.09 122.539 73.09H122.611Z" fill="#D1D3D4"/>
</svg>
