<svg id="Layer_1" data-name="Layer 1" xmlns="http://www.w3.org/2000/svg" viewBox="40 50 310 100"><defs><style>.cls-1{fill:#004680;}</style></defs><title>MODINO_logo basic</title><path class="cls-1" d="M109.43,71.2a30.25,30.25,0,0,1,4.86.39,12.69,12.69,0,0,1,4.44,1.59,21.29,21.29,0,0,1,3.66-1.38,17.26,17.26,0,0,1,4.74-.6,27.14,27.14,0,0,1,4.83.45,11,11,0,0,1,4.5,1.89,10.54,10.54,0,0,1,3.3,4.14,16.7,16.7,0,0,1,1.29,7.14v17.94a24.22,24.22,0,0,1-2.82.39q-1.26.09-2.22.09t-2.28-.09a24.22,24.22,0,0,1-2.82-.39V85.9a7.49,7.49,0,0,0-1.08-4.56A4.22,4.22,0,0,0,126.29,80a7.58,7.58,0,0,0-1.65.18,8.38,8.38,0,0,0-1.11.3,19.34,19.34,0,0,1,.54,4.8v17.52a24.22,24.22,0,0,1-2.82.39q-1.26.09-2.22.09t-2.28-.09a24.22,24.22,0,0,1-2.82-.39V85.9a7.83,7.83,0,0,0-1-4.56A4,4,0,0,0,109.43,80a9,9,0,0,0-1.41.12,3,3,0,0,0-.93.24v22.44a24.22,24.22,0,0,1-2.82.39q-1.26.09-2.22.09t-2.28-.09a24.22,24.22,0,0,1-2.82-.39V73.3q2.1-.72,5-1.41A33.36,33.36,0,0,1,109.43,71.2Z"/><path class="cls-1" d="M146,87.37a21.45,21.45,0,0,1,1-6.69,14.22,14.22,0,0,1,2.94-5.19,13,13,0,0,1,4.83-3.33,19.71,19.71,0,0,1,13.38,0,13,13,0,0,1,4.83,3.33,14.22,14.22,0,0,1,2.94,5.19,21.45,21.45,0,0,1,1,6.69,20.68,20.68,0,0,1-1,6.57,14,14,0,0,1-2.94,5.1,12.85,12.85,0,0,1-4.83,3.27,20.2,20.2,0,0,1-13.38,0A12.85,12.85,0,0,1,149.9,99a14,14,0,0,1-2.94-5.1A20.68,20.68,0,0,1,146,87.37Zm20.64,0a11.05,11.05,0,0,0-1.29-5.88,4.33,4.33,0,0,0-3.93-2,4.26,4.26,0,0,0-3.9,2,11.27,11.27,0,0,0-1.26,5.88,11.13,11.13,0,0,0,1.26,5.82,4.26,4.26,0,0,0,3.9,2,4.33,4.33,0,0,0,3.93-2A10.92,10.92,0,0,0,166.61,87.37Z"/><path class="cls-1" d="M192.71,71A26.65,26.65,0,0,1,201,72.13a15.14,15.14,0,0,1,5.67,3.21,12.21,12.21,0,0,1,3.24,5,19.86,19.86,0,0,1,1,6.54,21,21,0,0,1-1,6.84A12.94,12.94,0,0,1,206.6,99a15,15,0,0,1-5.82,3.33,27.83,27.83,0,0,1-8.61,1.17q-2.94,0-5.25-.21t-4.83-.57V71.83q2.52-.3,5.34-.57T192.71,71Zm-.48,23.88a4.34,4.34,0,0,1,.63.06A8.37,8.37,0,0,0,194,95a6.3,6.3,0,0,0,5-1.89q1.65-1.89,1.65-6.21,0-3.84-1.62-5.61a6,6,0,0,0-4.62-1.77q-.72,0-1.32.06t-.9.12Z"/><path class="cls-1" d="M245.63,71.2a31.37,31.37,0,0,1,5.28.45,12,12,0,0,1,4.77,1.89,10.55,10.55,0,0,1,3.48,4.14,16.05,16.05,0,0,1,1.35,7.14v17.94a24.22,24.22,0,0,1-2.82.39q-1.26.09-2.22.09t-2.28-.09a24.22,24.22,0,0,1-2.82-.39V85.9q0-3.18-1.2-4.56A4.59,4.59,0,0,0,245.51,80a9,9,0,0,0-1.41.12,3,3,0,0,0-.93.24v22.44a24.22,24.22,0,0,1-2.82.39q-1.26.09-2.22.09t-2.28-.09a24.22,24.22,0,0,1-2.82-.39V73.3a51.78,51.78,0,0,1,5.1-1.41A34.19,34.19,0,0,1,245.63,71.2Z"/><path class="cls-1" d="M265.43,87.37a21.45,21.45,0,0,1,1-6.69,14.22,14.22,0,0,1,2.94-5.19,13,13,0,0,1,4.83-3.33,19.71,19.71,0,0,1,13.38,0,13,13,0,0,1,4.83,3.33,14.22,14.22,0,0,1,2.94,5.19,21.45,21.45,0,0,1,1,6.69,20.68,20.68,0,0,1-1,6.57A14,14,0,0,1,292.4,99a12.85,12.85,0,0,1-4.83,3.27,20.2,20.2,0,0,1-13.38,0A12.85,12.85,0,0,1,269.36,99a14,14,0,0,1-2.94-5.1A20.68,20.68,0,0,1,265.43,87.37Zm20.64,0a11.05,11.05,0,0,0-1.29-5.88,4.33,4.33,0,0,0-3.93-2,4.26,4.26,0,0,0-3.9,2,11.27,11.27,0,0,0-1.26,5.88A11.13,11.13,0,0,0,277,93.19a4.26,4.26,0,0,0,3.9,2,4.33,4.33,0,0,0,3.93-2A10.92,10.92,0,0,0,286.07,87.37Z"/><path class="cls-1" d="M215.9,65.65a23.26,23.26,0,0,1,2.79-.3q1.35-.06,2.55-.06t2.52.06a25.13,25.13,0,0,1,2.82.3l-.54,28q-1.5.3-2.64.42a20.68,20.68,0,0,1-2.16.12,27.72,27.72,0,0,1-4.8-.54Zm10.82,38a5.48,5.48,0,1,1-5.48-5.48A5.48,5.48,0,0,1,226.72,103.66Z"/><path class="cls-1" d="M114.53,129.18a2.66,2.66,0,0,1-1.49,5,4.26,4.26,0,0,1-1.93-.47c-.38-.21-.67-.5-.67-.83a.72.72,0,0,1,.62-.74c.48,0,.91.74,1.93.74a1.29,1.29,0,0,0,1.45-1.27c0-.78-.59-1.16-1.17-1.47-.82-.43-2.61-1.07-2.61-2.85a2.53,2.53,0,0,1,2.82-2.42c1.18,0,2.32.54,2.32,1.15a.75.75,0,0,1-.64.72c-.43,0-.86-.57-1.69-.57s-1.27.43-1.27,1C112.2,128.24,113.58,128.6,114.53,129.18Z"/><path class="cls-1" d="M122.58,131.41h-3.27l-.75,2c-.18.45-.32.75-.94.75s-.69-.18-.69-.48a1.06,1.06,0,0,1,.12-.46l3-7.33c.22-.56.4-.93,1-.93s.7.37.93.93l2.9,7.33a1.23,1.23,0,0,1,.11.46c0,.3-.24.48-.72.48s-.75-.25-1-.75Zm-2.75-1.33h2.25l-1.11-2.9Z"/><path class="cls-1" d="M128.05,133.26a.94.94,0,0,1-.12.61,1,1,0,0,1-1.31,0,.94.94,0,0,1-.12-.61v-7.54c0-.46.23-.66.74-.66h3.46a.85.85,0,0,1,.54.12.62.62,0,0,1,.23.56.65.65,0,0,1-.23.57.85.85,0,0,1-.54.11h-2.65v2.37h2.23a.8.8,0,0,1,.54.13.6.6,0,0,1,.24.55.65.65,0,0,1-.24.57.85.85,0,0,1-.54.11h-2.23Z"/><path class="cls-1" d="M134.59,128.55h1.93a.88.88,0,0,1,.55.13.64.64,0,0,1,.23.55.65.65,0,0,1-.23.57.82.82,0,0,1-.55.12h-1.93v2.76h2.81a.85.85,0,0,1,.54.12.63.63,0,0,1,.24.56.65.65,0,0,1-.24.57.85.85,0,0,1-.54.11h-3.58c-.56,0-.74-.22-.74-.74v-7.51c0-.54.21-.73.74-.73H137a.85.85,0,0,1,.54.12.62.62,0,0,1,.24.56.65.65,0,0,1-.24.57.85.85,0,0,1-.54.11h-2.45Z"/><path class="cls-1" d="M148.81,131.41h-3.26l-.75,2c-.18.45-.32.75-.94.75s-.7-.18-.7-.48a1.11,1.11,0,0,1,.13-.46l3-7.33c.22-.56.41-.93,1-.93s.71.37.93.93l2.9,7.33a1.23,1.23,0,0,1,.11.46c0,.3-.23.48-.72.48s-.75-.25-.94-.75Zm-2.75-1.33h2.25l-1.11-2.9Z"/><path class="cls-1" d="M154.23,133.26a.94.94,0,0,1-.12.61.72.72,0,0,1-.62.25.75.75,0,0,1-.64-.25,1,1,0,0,1-.11-.61v-7.69c0-.4.25-.63.71-.63s.73.31,1.14.8l4.55,5.63v-5.56a1,1,0,0,1,.11-.6.74.74,0,0,1,.63-.25.71.71,0,0,1,.62.25,1,1,0,0,1,.13.6v7.71a.59.59,0,0,1-.68.63c-.46,0-.68-.26-1.1-.78l-4.62-5.69Z"/><path class="cls-1" d="M169.29,133.22a6.91,6.91,0,0,1-3.83.9,6.24,6.24,0,0,1-1.86-.21c-.4-.14-.47-.37-.47-.83V126c0-.52.12-.77.78-.91a9.82,9.82,0,0,1,1.89-.14,6.27,6.27,0,0,1,3.62.87,4.77,4.77,0,0,1-.13,7.39Zm-4.62-.46a8.28,8.28,0,0,0,1.06.06c1.16,0,3.8-.17,3.8-3.25a3.18,3.18,0,0,0-1.11-2.64,4,4,0,0,0-2.57-.67,6.36,6.36,0,0,0-1.18.09Z"/><path class="cls-1" d="M180.33,129.18a2.66,2.66,0,0,1-1.5,5,4.3,4.3,0,0,1-1.93-.47,1.09,1.09,0,0,1-.66-.83.72.72,0,0,1,.62-.74c.47,0,.9.74,1.93.74a1.29,1.29,0,0,0,1.44-1.27c0-.78-.58-1.16-1.16-1.47-.82-.43-2.61-1.07-2.61-2.85a2.53,2.53,0,0,1,2.82-2.42c1.18,0,2.32.54,2.32,1.15a.75.75,0,0,1-.64.72c-.43,0-.86-.57-1.7-.57s-1.26.43-1.26,1C178,128.24,179.37,128.6,180.33,129.18Z"/><path class="cls-1" d="M185.19,128.55h1.93a.88.88,0,0,1,.55.13.64.64,0,0,1,.23.55.65.65,0,0,1-.23.57.82.82,0,0,1-.55.12h-1.93v2.76H188a.85.85,0,0,1,.54.12.63.63,0,0,1,.24.56.65.65,0,0,1-.24.57.85.85,0,0,1-.54.11h-3.58c-.56,0-.74-.22-.74-.74v-7.51c0-.54.21-.73.74-.73h3.22a.85.85,0,0,1,.54.12.62.62,0,0,1,.24.56.65.65,0,0,1-.24.57.85.85,0,0,1-.54.11h-2.45Z"/><path class="cls-1" d="M194.39,132.84a3.35,3.35,0,0,0,1.3-.26c.54-.22.77-.44,1-.44s.61.45.61.75-.22.51-.56.72a4.78,4.78,0,0,1-2.41.59,4.39,4.39,0,0,1-4.57-4.72,4.33,4.33,0,0,1,4.57-4.62,4.71,4.71,0,0,1,2.41.6c.37.22.56.43.56.72s-.22.78-.61.78-.53-.22-1.07-.45a3.44,3.44,0,0,0-1.35-.29,2.87,2.87,0,0,0-2.93,3.22C191.37,131.76,192.85,132.84,194.39,132.84Z"/><path class="cls-1" d="M204.75,132.21a3,3,0,0,0,.49-2v-4.42a1,1,0,0,1,.11-.61,1,1,0,0,1,1.3,0,1,1,0,0,1,.11.61v4.33a4.14,4.14,0,0,1-.82,2.94,3.78,3.78,0,0,1-3.05,1.14,3.74,3.74,0,0,1-3-1.14,4,4,0,0,1-.82-2.94v-4.33a1,1,0,0,1,.11-.61.77.77,0,0,1,.66-.24.79.79,0,0,1,.66.24,1,1,0,0,1,.11.61v4.42a3,3,0,0,0,.48,2,2.36,2.36,0,0,0,1.86.7A2.32,2.32,0,0,0,204.75,132.21Z"/><path class="cls-1" d="M210.75,133.26a1,1,0,0,1-.11.61.8.8,0,0,1-.63.25.84.84,0,0,1-.66-.25,1,1,0,0,1-.11-.61V126c0-.43,0-.75.66-.93a6.09,6.09,0,0,1,1.45-.15,4.81,4.81,0,0,1,2.17.42,2.35,2.35,0,0,1,1.31,2.22,2.56,2.56,0,0,1-1.64,2.47l2.33,3.22c.27.36.18.83-.62.83a1.14,1.14,0,0,1-1.1-.66l-1.43-2.12c-.32-.47-.58-.94-.58-.94a5.09,5.09,0,0,1-.57,0,2.56,2.56,0,0,1-.47,0Zm0-4.09h.41c1.27,0,2.09-.38,2.09-1.5s-.79-1.42-1.77-1.42a4.56,4.56,0,0,0-.73.06Z"/><path class="cls-1" d="M218.71,128.55h1.93a.85.85,0,0,1,.54.13.61.61,0,0,1,.24.55.63.63,0,0,1-.24.57.79.79,0,0,1-.54.12h-1.93v2.76h2.8a.88.88,0,0,1,.55.12.66.66,0,0,1,.23.56.68.68,0,0,1-.23.57.88.88,0,0,1-.55.11h-3.58c-.55,0-.73-.22-.73-.74v-7.51c0-.54.2-.73.73-.73h3.22a.84.84,0,0,1,.54.12.62.62,0,0,1,.24.56.65.65,0,0,1-.24.57.84.84,0,0,1-.54.11h-2.44Z"/><path class="cls-1" d="M234,132.21a3,3,0,0,0,.49-2v-4.42a1,1,0,0,1,.11-.61.77.77,0,0,1,.65-.24.79.79,0,0,1,.66.24,1,1,0,0,1,.11.61v4.33a4.14,4.14,0,0,1-.82,2.94,3.81,3.81,0,0,1-3.06,1.14,3.76,3.76,0,0,1-3.05-1.14,4,4,0,0,1-.82-2.94v-4.33a1,1,0,0,1,.11-.61A.79.79,0,0,1,229,125a.76.76,0,0,1,.65.24,1,1,0,0,1,.11.61v4.42a3,3,0,0,0,.49,2,2.35,2.35,0,0,0,1.86.7A2.31,2.31,0,0,0,234,132.21Z"/><path class="cls-1" d="M240.51,130.86a4.78,4.78,0,0,1-.53,0v2.43a1,1,0,0,1-.11.61.85.85,0,0,1-.65.25.86.86,0,0,1-.67-.25,1,1,0,0,1-.11-.61V126c0-.4,0-.72.55-.9a5.23,5.23,0,0,1,1.52-.18,4.56,4.56,0,0,1,2.57.64,2.58,2.58,0,0,1,1.16,2.26C244.24,130,242.46,130.86,240.51,130.86Zm-.53-1.33s.21,0,.47,0c1.1,0,2.21-.33,2.21-1.63,0-1.14-.86-1.66-2.06-1.66a3.94,3.94,0,0,0-.62,0Z"/><path class="cls-1" d="M252,133.22a7,7,0,0,1-3.84.9,6.24,6.24,0,0,1-1.86-.21c-.4-.14-.47-.37-.47-.83V126c0-.52.13-.77.78-.91a9.89,9.89,0,0,1,1.89-.14,6.25,6.25,0,0,1,3.62.87,4.78,4.78,0,0,1-.12,7.39Zm-4.63-.46a8.28,8.28,0,0,0,1.06.06c1.16,0,3.8-.17,3.8-3.25a3.15,3.15,0,0,0-1.11-2.64,4,4,0,0,0-2.57-.67,6.36,6.36,0,0,0-1.18.09Z"/><path class="cls-1" d="M260.11,131.41h-3.27l-.75,2c-.18.45-.32.75-.94.75s-.7-.18-.7-.48a1.11,1.11,0,0,1,.13-.46l3-7.33c.22-.56.4-.93.95-.93s.71.37.93.93l2.91,7.33a1.23,1.23,0,0,1,.11.46c0,.3-.24.48-.72.48s-.75-.25-1-.75Zm-2.75-1.33h2.25l-1.11-2.9Z"/><path class="cls-1" d="M266.5,133.26a.94.94,0,0,1-.12.61,1,1,0,0,1-1.31,0,1,1,0,0,1-.11-.61v-6.84h-2.14a.88.88,0,0,1-.56-.11.65.65,0,0,1-.23-.57.62.62,0,0,1,.23-.56.88.88,0,0,1,.56-.12h5.83a.85.85,0,0,1,.54.12.62.62,0,0,1,.24.56.65.65,0,0,1-.24.57.85.85,0,0,1-.54.11H266.5Z"/><path class="cls-1" d="M272.41,128.55h1.93a.87.87,0,0,1,.54.13.61.61,0,0,1,.23.55.63.63,0,0,1-.23.57.81.81,0,0,1-.54.12h-1.93v2.76h2.8a.85.85,0,0,1,.54.12.63.63,0,0,1,.24.56.65.65,0,0,1-.24.57.85.85,0,0,1-.54.11h-3.58c-.56,0-.74-.22-.74-.74v-7.51c0-.54.21-.73.74-.73h3.22a.85.85,0,0,1,.54.12.62.62,0,0,1,.24.56.65.65,0,0,1-.24.57.85.85,0,0,1-.54.11h-2.44Z"/><path class="cls-1" d="M281.4,129.18a2.66,2.66,0,0,1-1.5,5,4.3,4.3,0,0,1-1.93-.47,1.09,1.09,0,0,1-.66-.83.72.72,0,0,1,.62-.74c.47,0,.9.74,1.93.74a1.3,1.3,0,0,0,1.45-1.27c0-.78-.59-1.16-1.17-1.47-.82-.43-2.61-1.07-2.61-2.85a2.53,2.53,0,0,1,2.82-2.42c1.18,0,2.32.54,2.32,1.15a.75.75,0,0,1-.64.72c-.43,0-.86-.57-1.7-.57s-1.26.43-1.26,1C279.07,128.24,280.44,128.6,281.4,129.18Z"/></svg>
