<svg width="140" height="49" viewBox="0 0 140 49" fill="none" xmlns="http://www.w3.org/2000/svg">
<path d="M8.76225 4.20242C9.90517 4.20172 11.0463 4.29446 12.1745 4.47972C13.2742 4.65599 14.3316 5.03946 15.2918 5.61026C16.1168 5.20402 16.977 4.87556 17.8615 4.62904C18.9459 4.33128 20.066 4.18769 21.1895 4.20242C22.327 4.20635 23.4619 4.31343 24.5806 4.52238C25.7199 4.72508 26.7996 5.18433 27.7401 5.86623C28.7471 6.63183 29.5446 7.64502 30.057 8.80989C30.7227 10.4145 31.0319 12.1476 30.9628 13.8866V26.6425C30.3087 26.7742 29.6476 26.8668 28.9828 26.9198C28.3931 26.9625 27.8735 26.9838 27.4242 26.9838C26.9748 26.9838 26.4412 26.9625 25.8234 26.9198C25.1586 26.8668 24.4975 26.7742 23.8434 26.6425V14.6546C23.9396 13.5195 23.6739 12.3831 23.0852 11.4123C22.7727 11.0684 22.3853 10.8033 21.9538 10.6378C21.5223 10.4724 21.0586 10.4113 20.5997 10.4595C20.2101 10.4591 19.8216 10.502 19.4412 10.5875C19.1769 10.6404 18.9166 10.7117 18.6619 10.8008C18.9286 11.9179 19.056 13.0645 19.041 14.2137V26.671C18.387 26.8026 17.7259 26.8952 17.0611 26.9483C16.4713 26.9909 15.9518 27.0123 15.5024 27.0123C15.0531 27.0123 14.5195 26.9909 13.9016 26.9483C13.2369 26.8952 12.5758 26.8026 11.9217 26.671V14.6546C12.0187 13.5266 11.7737 12.3956 11.2196 11.4123C10.918 11.0623 10.5363 10.7925 10.1079 10.6264C9.67956 10.4603 9.21754 10.403 8.76225 10.4595C8.43056 10.4616 8.09955 10.4901 7.77228 10.5448C7.54699 10.5658 7.32652 10.6234 7.11933 10.7155V26.671C6.46529 26.8026 5.80417 26.8952 5.1394 26.9483C4.54963 26.9909 4.03007 27.0123 3.58073 27.0123C3.13138 27.0123 2.59778 26.9909 1.97993 26.9483C1.31516 26.8952 0.654037 26.8026 0 26.671V5.69558C0.982945 5.35429 2.15312 5.0201 3.51052 4.69303C5.23727 4.32978 6.99902 4.1652 8.76225 4.20242Z" fill="#004680"/>
<path d="M34.4187 15.6995C34.4029 14.0862 34.6399 12.4807 35.1208 10.9427C35.5436 9.57864 36.2471 8.32089 37.185 7.25243C38.1225 6.21182 39.2824 5.40196 40.5762 4.88471C43.6118 3.77541 46.9347 3.77541 49.9703 4.88471C51.2641 5.40196 52.424 6.21182 53.3615 7.25243C54.2994 8.32089 55.003 9.57864 55.4257 10.9427C55.9067 12.4807 56.1436 14.0862 56.1278 15.6995C56.1439 17.2848 55.9068 18.8623 55.4257 20.3709C54.9992 21.7142 54.2955 22.9503 53.3615 23.9972C52.422 25.0252 51.2618 25.8207 49.9703 26.3223C46.9299 27.403 43.6166 27.403 40.5762 26.3223C39.2848 25.8207 38.1245 25.0252 37.185 23.9972C36.251 22.9503 35.5474 21.7142 35.1208 20.3709C34.6397 18.8623 34.4026 17.2848 34.4187 15.6995ZM48.9102 15.6995C48.9961 14.2478 48.6826 12.8005 48.0044 11.5186C47.7125 11.053 47.3023 10.6754 46.8169 10.4252C46.3315 10.1751 45.7887 10.0616 45.2452 10.0966C44.7044 10.0601 44.1639 10.1731 43.6816 10.4236C43.1993 10.6741 42.7933 11.0526 42.507 11.5186C41.8436 12.8054 41.5378 14.2504 41.6223 15.6995C41.5406 17.1346 41.8464 18.5652 42.507 19.8377C42.7933 20.3037 43.1993 20.6822 43.6816 20.9327C44.1639 21.1831 44.7044 21.2962 45.2452 21.2597C45.7887 21.2947 46.3315 21.1812 46.8169 20.9311C47.3023 20.6809 47.7125 20.3033 48.0044 19.8377C48.6795 18.57 48.9931 17.1372 48.9102 15.6995Z" fill="#004680"/>
<path d="M67.2063 4.06012C69.1812 4.01673 71.1504 4.29031 73.0408 4.8707C74.52 5.3259 75.8833 6.10238 77.0358 7.14599C78.0723 8.12263 78.8538 9.34404 79.3106 10.7011C79.7997 12.2005 80.037 13.7724 80.0127 15.3513C80.0342 17.0026 79.7851 18.646 79.2755 20.2147C78.8103 21.6232 78.0153 22.8966 76.9585 23.9263C75.7903 25.0177 74.3934 25.8272 72.8723 26.294C70.9127 26.8901 68.8728 27.1709 66.8272 27.1259C65.4511 27.1259 64.2224 27.0762 63.1412 26.9766C62.0599 26.8771 60.9295 26.742 59.75 26.5713V4.65028C60.9295 4.50807 62.1793 4.37298 63.4992 4.24499C64.8192 4.11701 66.0549 4.05538 67.2063 4.06012ZM66.8693 21.0395C67.0176 21.0428 67.1654 21.0571 67.3116 21.0822C67.5841 21.1158 67.8586 21.1301 68.1331 21.1248C68.7798 21.1752 69.4294 21.0809 70.0361 20.8487C70.6427 20.6164 71.1915 20.2519 71.6436 19.781C72.43 18.8804 72.8232 17.4062 72.8232 15.3584C72.8232 13.5382 72.444 12.2085 71.6858 11.3695C71.2645 10.9382 70.7573 10.6029 70.1979 10.3859C69.6386 10.1689 69.04 10.0752 68.442 10.111C68.105 10.111 67.7961 10.1252 67.5153 10.1536C67.2344 10.1821 67.0238 10.2105 66.8834 10.239L66.8693 21.0395Z" fill="#004680"/>
<path d="M104.418 4.20247C105.66 4.20305 106.9 4.31009 108.125 4.52244C109.311 4.72553 110.441 5.18376 111.439 5.86628C112.492 6.61583 113.334 7.63039 113.882 8.80995C114.577 10.4066 114.901 12.1433 114.83 13.8867V26.6426C114.176 26.7742 113.515 26.8668 112.85 26.9199C112.26 26.9625 111.74 26.9839 111.291 26.9839C110.842 26.9839 110.308 26.9625 109.69 26.9199C109.026 26.8668 108.364 26.7742 107.71 26.6426V14.6546C107.71 13.1472 107.43 12.0665 106.868 11.4123C106.536 11.0732 106.134 10.8122 105.691 10.6475C105.248 10.4829 104.775 10.4187 104.305 10.4595C103.974 10.4616 103.643 10.4901 103.315 10.5449C103.09 10.5659 102.869 10.6235 102.662 10.7155V26.671C102.008 26.8027 101.347 26.8953 100.682 26.9483C100.093 26.991 99.573 27.0123 99.1237 27.0123C98.6744 27.0123 98.1407 26.991 97.5229 26.9483C96.8581 26.8953 96.197 26.8027 95.543 26.671V5.69564C96.7189 5.29987 97.914 4.96525 99.1237 4.69308C100.865 4.33156 102.64 4.16702 104.418 4.20247Z" fill="#004680"/>
<path d="M118.29 15.6995C118.274 14.0862 118.511 12.4807 118.992 10.9427C119.415 9.57864 120.118 8.32089 121.056 7.25243C121.994 6.21182 123.154 5.40196 124.447 4.88471C127.483 3.77541 130.806 3.77541 133.841 4.88471C135.135 5.40196 136.295 6.21182 137.233 7.25243C138.171 8.32089 138.874 9.57864 139.297 10.9427C139.778 12.4807 140.015 14.0862 139.999 15.6995C140.015 17.2848 139.778 18.8623 139.297 20.3709C138.87 21.7142 138.167 22.9503 137.233 23.9972C136.293 25.0252 135.133 25.8207 133.841 26.3223C130.801 27.403 127.488 27.403 124.447 26.3223C123.156 25.8207 121.996 25.0252 121.056 23.9972C120.122 22.9503 119.418 21.7142 118.992 20.3709C118.511 18.8623 118.274 17.2848 118.29 15.6995ZM132.781 15.6995C132.867 14.2478 132.554 12.8005 131.876 11.5186C131.584 11.053 131.173 10.6754 130.688 10.4252C130.203 10.1751 129.66 10.0616 129.116 10.0966C128.575 10.0601 128.035 10.1731 127.553 10.4236C127.07 10.6741 126.664 11.0526 126.378 11.5186C125.71 12.804 125.399 14.2491 125.479 15.6995C125.398 17.1346 125.703 18.5652 126.364 19.8377C126.65 20.3037 127.056 20.6822 127.539 20.9327C128.021 21.1831 128.561 21.2962 129.102 21.2597C129.646 21.2947 130.189 21.1812 130.674 20.9311C131.159 20.6809 131.57 20.3033 131.861 19.8377C132.541 18.5715 132.86 17.1386 132.781 15.6995Z" fill="#004680"/>
<path d="M83.5163 0.255971C84.1644 0.14501 84.8185 0.0737749 85.4751 0.0426601C86.107 0.0142189 86.7038 0 87.2655 0C87.8272 0 88.4169 0.0142189 89.0348 0.0426601C89.6982 0.0759637 90.3592 0.147182 91.0147 0.255971L90.6356 20.1648C89.9335 20.307 89.3156 20.4066 88.782 20.4634C88.2783 20.5187 87.7721 20.5471 87.2655 20.5488C86.1332 20.5203 85.0056 20.3919 83.8954 20.1648L83.5163 0.255971ZM91.113 27.2751C91.113 28.0458 90.8874 28.7991 90.4646 29.4399C90.0418 30.0806 89.4409 30.58 88.7379 30.875C88.0348 31.1699 87.2612 31.247 86.5149 31.0967C85.7685 30.9463 85.083 30.5752 84.5449 30.0303C84.0068 29.4854 83.6404 28.7911 83.4919 28.0353C83.3434 27.2794 83.4196 26.496 83.7108 25.784C84.0021 25.072 84.4952 24.4635 85.1279 24.0353C85.7607 23.6072 86.5045 23.3787 87.2655 23.3787C87.7714 23.3787 88.2722 23.4797 88.7395 23.6759C89.2068 23.8722 89.6312 24.1598 89.9886 24.5224C90.346 24.885 90.6292 25.3154 90.8222 25.7889C91.0151 26.2625 91.1139 26.7699 91.113 27.2822V27.2751Z" fill="#004680"/>
<path d="M12.3436 45.4278C12.7264 45.6323 13.0272 45.9652 13.1945 46.3694C13.3618 46.7736 13.3853 47.2242 13.2609 47.644C13.1365 48.0639 12.872 48.4269 12.5126 48.6711C12.1532 48.9153 11.7212 49.0255 11.2904 48.9829C10.8192 48.9802 10.3551 48.8657 9.93539 48.6487C9.67561 48.4994 9.46498 48.2932 9.46498 48.0586C9.46208 47.9312 9.50555 47.8072 9.58712 47.7101C9.66869 47.6131 9.78265 47.5498 9.9073 47.5324C10.2373 47.5324 10.5392 48.0586 11.2624 48.0586C11.3887 48.0736 11.5167 48.0614 11.638 48.023C11.7594 47.9846 11.8714 47.9207 11.9668 47.8355C12.0622 47.7503 12.1388 47.6458 12.1916 47.5286C12.2444 47.4115 12.2723 47.2844 12.2734 47.1556C12.2734 46.601 11.8662 46.3308 11.459 46.1104C10.8832 45.8046 9.62646 45.3496 9.62646 44.0839C9.63557 43.8366 9.69497 43.5939 9.80095 43.3708C9.90693 43.1478 10.0572 42.9494 10.2424 42.7879C10.4276 42.6264 10.6437 42.5053 10.8771 42.4322C11.1106 42.3592 11.3565 42.3357 11.5994 42.3632C12.4279 42.3632 13.2283 42.7472 13.2283 43.1809C13.226 43.3065 13.1795 43.4272 13.0971 43.5211C13.0147 43.615 12.9018 43.6759 12.7789 43.6929C12.477 43.6929 12.1751 43.2876 11.5924 43.2876C11.0096 43.2876 10.7077 43.5933 10.7077 43.9986C10.7077 44.7594 11.6696 45.0154 12.3436 45.4278Z" fill="#004680"/>
<path d="M17.9864 47.0134H15.6976L15.171 48.4355C15.0446 48.7554 14.9463 48.9687 14.511 48.9687C14.0757 48.9687 14.0195 48.8407 14.0195 48.6274C14.0261 48.513 14.0573 48.4014 14.1108 48.3004L16.2171 43.0885C16.3716 42.6903 16.498 42.4272 16.9192 42.4272C17.3405 42.4272 17.4177 42.6903 17.5722 43.0885L19.6083 48.3004C19.6547 48.4033 19.6809 48.5144 19.6855 48.6274C19.6855 48.8407 19.524 48.9687 19.18 48.9687C18.836 48.9687 18.6534 48.791 18.52 48.4355L17.9864 47.0134ZM16.0556 46.0677H17.6354L16.856 44.0057L16.0556 46.0677Z" fill="#004680"/>
<path d="M21.83 48.3289C21.8502 48.4781 21.8232 48.63 21.7527 48.7626C21.6934 48.8232 21.622 48.8704 21.5434 48.901C21.4647 48.9317 21.3805 48.9451 21.2964 48.9404C21.21 48.9467 21.1232 48.9341 21.0421 48.9034C20.9609 48.8727 20.8872 48.8247 20.826 48.7626C20.7555 48.63 20.7285 48.4781 20.7487 48.3289V42.9678C20.7487 42.6407 20.9032 42.4985 21.2683 42.4985H23.6765C23.8087 42.4833 23.9422 42.5133 24.0556 42.5838C24.1152 42.6299 24.162 42.6907 24.1915 42.7605C24.221 42.8302 24.2323 42.9065 24.2241 42.982C24.2315 43.0584 24.22 43.1355 24.1905 43.2062C24.1611 43.277 24.1148 43.3392 24.0556 43.3873C23.9413 43.4552 23.808 43.4828 23.6765 43.4655H21.8159V45.1506H23.3886C23.5218 45.1352 23.6561 45.1679 23.7678 45.243C23.826 45.2883 23.8716 45.3482 23.8999 45.4168C23.9282 45.4854 23.9383 45.5603 23.9293 45.6341C23.9375 45.7099 23.927 45.7866 23.8988 45.8573C23.8706 45.928 23.8256 45.9906 23.7678 46.0394C23.6531 46.1064 23.52 46.1338 23.3886 46.1176H21.8159L21.83 48.3289Z" fill="#004680"/>
<path d="M26.4274 44.9797H27.7824C27.9155 44.9667 28.049 44.9992 28.1616 45.0721C28.2205 45.1171 28.2671 45.1767 28.2966 45.2452C28.3261 45.3138 28.3376 45.3888 28.3301 45.4632C28.3388 45.5397 28.3278 45.6172 28.2983 45.6882C28.2688 45.7592 28.2217 45.8213 28.1616 45.8685C28.0495 45.9423 27.9148 45.9726 27.7824 45.9538H26.4274V47.9163H28.3933C28.5277 47.9011 28.6634 47.9311 28.7794 48.0016C28.8357 48.0501 28.8798 48.1116 28.9079 48.1808C28.936 48.2501 28.9473 48.3252 28.9409 48.3998C28.9473 48.4754 28.936 48.5515 28.9079 48.6219C28.8799 48.6923 28.8359 48.7551 28.7794 48.805C28.6626 48.8731 28.5269 48.9005 28.3933 48.8833H25.8797C25.4936 48.8833 25.3672 48.7268 25.3672 48.3571V43.0173C25.3672 42.6333 25.5076 42.4982 25.8797 42.4982H28.1405C28.2728 42.4825 28.4064 42.5126 28.5196 42.5835C28.5792 42.6296 28.626 42.6905 28.6555 42.7602C28.685 42.83 28.6963 42.9063 28.6881 42.9817C28.6955 43.0581 28.6839 43.1352 28.6545 43.206C28.6251 43.2767 28.5787 43.3389 28.5196 43.387C28.4055 43.4555 28.272 43.4831 28.1405 43.4652H26.4274V44.9797Z" fill="#004680"/>
<path d="M36.4122 47.0134H34.1163L33.5897 48.4355C33.4634 48.7554 33.3721 48.9687 32.9298 48.9687C32.4874 48.9687 32.4453 48.8407 32.4453 48.6274C32.4486 48.5133 32.4774 48.4015 32.5296 48.3004L34.6359 43.0885C34.7903 42.6903 34.9167 42.4272 35.338 42.4272C35.7592 42.4272 35.8294 42.6903 35.9909 43.0885L38.027 48.3004C38.0734 48.4033 38.0997 48.5144 38.1043 48.6274C38.1043 48.8407 37.9358 48.9687 37.5987 48.9687C37.2617 48.9687 37.0722 48.791 36.9318 48.4355L36.4122 47.0134ZM34.4814 46.0677H36.0611L35.2818 44.0057L34.4814 46.0677Z" fill="#004680"/>
<path d="M40.2097 48.3288C40.23 48.4781 40.2029 48.6299 40.1325 48.7626C40.0127 48.8766 39.8545 48.94 39.6902 48.94C39.5258 48.94 39.3676 48.8766 39.2478 48.7626C39.1774 48.6299 39.1503 48.4781 39.1706 48.3288V42.861C39.1706 42.5766 39.3461 42.4131 39.6621 42.4131C39.978 42.4131 40.1816 42.6335 40.4625 42.9819L43.6641 46.985V43.0317C43.6453 42.8848 43.6723 42.7357 43.7413 42.6051C43.795 42.5429 43.8624 42.4944 43.938 42.4636C44.0136 42.4327 44.0954 42.4203 44.1766 42.4273C44.259 42.4191 44.3421 42.431 44.419 42.4619C44.496 42.4928 44.5645 42.5419 44.6189 42.6051C44.6903 42.7349 44.7198 42.8841 44.7032 43.0317V48.5137C44.7082 48.577 44.699 48.6405 44.6762 48.6997C44.6535 48.7588 44.6178 48.8119 44.5718 48.855C44.5258 48.8981 44.4708 48.9301 44.4109 48.9486C44.3509 48.9671 44.2876 48.9715 44.2258 48.9617C43.9028 48.9617 43.7483 48.7768 43.4534 48.4071L40.2097 44.3613V48.3288Z" fill="#004680"/>
<path d="M50.789 48.3005C49.9728 48.7732 49.0386 48.9955 48.1 48.9404C47.6597 48.9574 47.2195 48.9071 46.794 48.7911C46.5062 48.6916 46.457 48.528 46.457 48.2009V43.1669C46.457 42.7971 46.5483 42.6194 47.0047 42.5198C47.4428 42.4437 47.8872 42.4104 48.3316 42.4203C49.2213 42.3593 50.1081 42.5751 50.8733 43.0389C51.2541 43.3625 51.5588 43.7681 51.7653 44.2261C51.9717 44.6841 52.0746 45.183 52.0666 45.6864C52.0585 46.1899 51.9396 46.6851 51.7186 47.1361C51.4976 47.5871 51.18 47.9824 50.789 48.2934V48.3005ZM47.5453 47.9734C47.7898 48.004 48.0361 48.0183 48.2825 48.0161C49.104 48.0161 50.9505 47.8952 50.9505 45.7052C50.9763 45.3522 50.9191 44.9981 50.7836 44.6718C50.6482 44.3455 50.4383 44.0564 50.1712 43.8281C49.6442 43.4642 49.0092 43.2959 48.3738 43.3517C48.0962 43.3469 47.8189 43.3684 47.5453 43.4157V47.9734Z" fill="#004680"/>
<path d="M58.5428 45.4276C58.9256 45.6321 59.2264 45.965 59.3937 46.3692C59.561 46.7735 59.5845 47.224 59.4601 47.6439C59.3358 48.0637 59.0713 48.4267 58.7119 48.671C58.3524 48.9152 57.9204 49.0254 57.4897 48.9828C57.0183 48.9811 56.554 48.8666 56.1346 48.6486C55.8678 48.4993 55.6642 48.2931 55.6642 48.0584C55.6613 47.931 55.7048 47.807 55.7863 47.71C55.8679 47.6129 55.9819 47.5497 56.1065 47.5323C56.4365 47.5323 56.7384 48.0584 57.4616 48.0584C57.5879 48.0734 57.7159 48.0613 57.8373 48.0228C57.9586 47.9844 58.0706 47.9205 58.166 47.8353C58.2614 47.7501 58.338 47.6456 58.3908 47.5284C58.4436 47.4113 58.4715 47.2842 58.4726 47.1554C58.4726 46.6008 58.0654 46.3306 57.6512 46.1102C57.0754 45.8045 55.8187 45.3494 55.8187 44.0838C55.8277 43.8358 55.8873 43.5924 55.9937 43.3688C56.1001 43.1453 56.251 42.9464 56.437 42.7848C56.6229 42.6232 56.8399 42.5023 57.0742 42.4297C57.3086 42.3572 57.5552 42.3345 57.7986 42.3631C58.6271 42.3631 59.4275 42.747 59.4275 43.1808C59.4239 43.3059 59.3769 43.4258 59.2947 43.5194C59.2125 43.613 59.1005 43.6744 58.9781 43.6927C58.6762 43.6927 58.3743 43.2874 57.7916 43.2874C57.2088 43.2874 56.8999 43.5932 56.8999 43.9984C56.8999 44.7592 57.8688 45.0152 58.5428 45.4276Z" fill="#004680"/>
<path d="M61.9547 44.9797H63.3098C63.4428 44.9667 63.5763 44.9992 63.6889 45.0721C63.7479 45.1171 63.7944 45.1767 63.8239 45.2452C63.8534 45.3138 63.865 45.3888 63.8574 45.4632C63.8661 45.5397 63.8552 45.6172 63.8256 45.6882C63.7961 45.7592 63.749 45.8213 63.6889 45.8685C63.5768 45.9423 63.4422 45.9726 63.3098 45.9538H61.9547V47.9163H63.9206C64.0551 47.9011 64.1907 47.9311 64.3067 48.0016C64.3631 48.0501 64.4071 48.1116 64.4352 48.1808C64.4633 48.2501 64.4746 48.3252 64.4682 48.3998C64.4746 48.4754 64.4634 48.5515 64.4353 48.6219C64.4072 48.6923 64.3632 48.7551 64.3067 48.805C64.1899 48.8731 64.0543 48.9005 63.9206 48.8833H61.4071C61.0209 48.8833 60.8945 48.7268 60.8945 48.3571V43.0173C60.8945 42.6333 61.035 42.4982 61.4071 42.4982H63.6959C63.8282 42.4825 63.9618 42.5126 64.0751 42.5835C64.1346 42.6296 64.1814 42.6905 64.2109 42.7602C64.2405 42.83 64.2517 42.9063 64.2436 42.9817C64.2509 43.0581 64.2394 43.1352 64.21 43.206C64.1805 43.2767 64.1342 43.3389 64.0751 43.387C63.961 43.4555 63.8274 43.4831 63.6959 43.4652H61.9828L61.9547 44.9797Z" fill="#004680"/>
<path d="M68.4058 48.0303C68.7214 48.0308 69.034 47.968 69.3255 47.8454C69.7047 47.689 69.8591 47.5326 70.0276 47.5326C70.1961 47.5326 70.4559 47.8525 70.4559 48.0658C70.4559 48.2791 70.3014 48.4285 70.0698 48.5778C69.5495 48.866 68.9635 49.0106 68.3707 48.9973C67.9357 49.0156 67.5019 48.9405 67.0977 48.7767C66.6935 48.613 66.3281 48.3644 66.0257 48.0474C65.7232 47.7303 65.4905 47.352 65.3428 46.9372C65.1952 46.5225 65.136 46.0808 65.1691 45.6412C65.1384 45.2055 65.1998 44.7682 65.3493 44.3584C65.4987 43.9486 65.7328 43.5759 66.0358 43.265C66.3388 42.9541 66.7038 42.7122 67.1064 42.5555C67.509 42.3988 67.9401 42.3309 68.3707 42.3563C68.9645 42.3424 69.5511 42.4897 70.0698 42.7829C70.3225 42.9393 70.4559 43.0886 70.4559 43.2948C70.4559 43.501 70.3014 43.8494 70.0276 43.8494C69.7538 43.8494 69.6625 43.693 69.2764 43.5295C68.9799 43.3966 68.6598 43.3264 68.3356 43.3233C67.3105 43.3233 66.2784 43.9632 66.2784 45.6128C66.2784 47.2624 67.3245 48.0303 68.4058 48.0303Z" fill="#004680"/>
<path d="M75.6798 47.5823C75.9566 47.1642 76.0784 46.6605 76.0238 46.1602V43.0174C76.0036 42.8682 76.0306 42.7164 76.1011 42.5837C76.1587 42.5211 76.23 42.4731 76.3092 42.4435C76.3885 42.4138 76.4735 42.4034 76.5574 42.4131C76.6424 42.4034 76.7285 42.4138 76.8089 42.4434C76.8893 42.473 76.9618 42.521 77.0208 42.5837C77.0913 42.7164 77.1183 42.8682 77.098 43.0174V46.0962C77.176 46.8418 76.9701 47.5895 76.5223 48.1866C75.9272 48.7099 75.1655 48.998 74.3774 48.998C73.5893 48.998 72.8276 48.7099 72.2325 48.1866C71.7753 47.5943 71.5683 46.8427 71.6567 46.0962V43.0174C71.6365 42.8682 71.6635 42.7164 71.734 42.5837C71.7941 42.5204 71.8678 42.4721 71.9494 42.4425C72.031 42.4129 72.1183 42.4028 72.2044 42.4131C72.2884 42.4028 72.3735 42.413 72.4529 42.4427C72.5322 42.4723 72.6035 42.5207 72.6608 42.5837C72.7312 42.7164 72.7583 42.8682 72.738 43.0174V46.1602C72.6834 46.6605 72.8053 47.1642 73.082 47.5823C73.2506 47.7568 73.4548 47.8918 73.6805 47.9778C73.9061 48.0638 74.1476 48.0987 74.3879 48.08C74.6263 48.0995 74.8659 48.065 75.0894 47.9789C75.3129 47.8928 75.5146 47.7573 75.6798 47.5823Z" fill="#004680"/>
<path d="M79.891 48.3285C79.9112 48.4777 79.8842 48.6296 79.8137 48.7623C79.7593 48.8235 79.6919 48.8714 79.6164 48.9022C79.541 48.933 79.4595 48.9459 79.3784 48.94C79.292 48.9463 79.2053 48.9337 79.1241 48.903C79.0429 48.8723 78.9692 48.8243 78.908 48.7623C78.8375 48.6296 78.8105 48.4777 78.8308 48.3285V43.1665C78.8308 42.8607 78.8308 42.6332 79.3012 42.5052C79.6326 42.428 79.9722 42.3921 80.3122 42.3985C80.8384 42.3761 81.3625 42.4784 81.8428 42.6972C82.13 42.8419 82.3693 43.0683 82.5314 43.3487C82.6935 43.629 82.7714 43.9512 82.7555 44.2757C82.7668 44.6521 82.6628 45.023 82.458 45.3373C82.2531 45.6517 81.9573 45.8943 81.6111 46.0319L83.247 48.3214C83.4296 48.5774 83.3734 48.9116 82.8047 48.9116C82.6455 48.9194 82.4876 48.8789 82.3512 48.7953C82.2149 48.7117 82.1063 48.5888 82.0394 48.4423L81.0354 46.9349C80.8107 46.6007 80.6211 46.2665 80.6211 46.2665C80.4902 46.2743 80.3589 46.2743 80.228 46.2665C80.1159 46.277 80.0031 46.277 79.891 46.2665V48.3285ZM79.891 45.4204H80.1858C81.0705 45.4204 81.6462 45.1502 81.6462 44.3539C81.6462 43.5575 81.0915 43.3442 80.4105 43.3442C80.2365 43.3447 80.0628 43.359 79.891 43.3869V45.4204Z" fill="#004680"/>
<path d="M85.4586 44.98H86.8628C86.9981 44.9669 87.1338 44.9994 87.249 45.0724C87.3052 45.1194 87.3493 45.1796 87.3774 45.2477C87.4056 45.3159 87.4169 45.3899 87.4105 45.4635C87.4186 45.5393 87.4082 45.6159 87.38 45.6867C87.3518 45.7574 87.3068 45.8199 87.249 45.8688C87.1342 45.9425 86.9974 45.9727 86.8628 45.9541H85.4586V47.9165H87.4315C87.5638 47.9013 87.6972 47.9314 87.8107 48.0018C87.8697 48.0484 87.9161 48.1093 87.9456 48.1789C87.9751 48.2486 87.9866 48.3246 87.9792 48.4C87.9865 48.4764 87.975 48.5535 87.9455 48.6243C87.9161 48.695 87.8698 48.7572 87.8107 48.8053C87.6964 48.8733 87.563 48.9008 87.4315 48.8835H84.918C84.5248 48.8835 84.3984 48.7271 84.3984 48.3574V43.0175C84.3984 42.6336 84.5459 42.4985 84.918 42.4985H87.1788C87.311 42.4833 87.4444 42.5133 87.5579 42.5838C87.6175 42.6299 87.6643 42.6907 87.6938 42.7605C87.7233 42.8302 87.7345 42.9065 87.7264 42.982C87.7338 43.0584 87.7222 43.1355 87.6928 43.2062C87.6634 43.277 87.617 43.3392 87.5579 43.3873C87.4436 43.4552 87.3102 43.4828 87.1788 43.4655H85.4586V44.98Z" fill="#004680"/>
<path d="M96.1885 47.5821C96.4628 47.1631 96.5822 46.6595 96.5256 46.1601V43.0173C96.5037 42.8672 96.5334 42.7141 96.6098 42.5836C96.737 42.4734 96.8988 42.4129 97.0662 42.4129C97.2335 42.4129 97.3954 42.4734 97.5225 42.5836C97.593 42.7162 97.62 42.8681 97.5998 43.0173V46.0961C97.6778 46.8417 97.4719 47.5894 97.0241 48.1865C96.4289 48.7098 95.6673 48.9979 94.8791 48.9979C94.091 48.9979 93.3293 48.7098 92.7342 48.1865C92.2795 47.5931 92.0751 46.8416 92.1655 46.0961V43.0173C92.1452 42.8681 92.1723 42.7162 92.2427 42.5836C92.3011 42.52 92.3735 42.4713 92.4541 42.4417C92.5347 42.412 92.6211 42.4021 92.7061 42.4129C92.7901 42.4027 92.8753 42.4129 92.9546 42.4425C93.034 42.4722 93.1052 42.5206 93.1625 42.5836C93.2389 42.7141 93.2686 42.8672 93.2467 43.0173V46.1601C93.1901 46.6595 93.3095 47.1631 93.5838 47.5821C93.7526 47.7563 93.9569 47.891 94.1825 47.977C94.408 48.063 94.6493 48.0981 94.8897 48.0799C95.129 48.099 95.3696 48.0643 95.5941 47.9782C95.8187 47.8922 96.0216 47.7569 96.1885 47.5821Z" fill="#004680"/>
<path d="M100.788 46.6224C100.664 46.6294 100.54 46.6294 100.416 46.6224V48.3502C100.436 48.4994 100.409 48.6513 100.339 48.7839C100.211 48.896 100.048 48.9577 99.879 48.9577C99.71 48.9577 99.5468 48.896 99.4191 48.7839C99.3433 48.6532 99.3135 48.5003 99.3348 48.3502V43.1668C99.3348 42.8824 99.3349 42.6549 99.728 42.5269C100.073 42.4313 100.431 42.3882 100.788 42.3989C101.421 42.3656 102.049 42.524 102.593 42.8539C102.855 43.0265 103.069 43.2654 103.214 43.5472C103.358 43.829 103.427 44.1439 103.414 44.4609C103.414 46.0109 102.164 46.6224 100.788 46.6224ZM100.416 45.6767C100.416 45.6767 100.564 45.6767 100.753 45.6767C101.518 45.6767 102.298 45.4421 102.298 44.5177C102.298 43.7072 101.694 43.3374 100.894 43.3374C100.746 43.3257 100.598 43.3257 100.451 43.3374L100.416 45.6767Z" fill="#004680"/>
<path d="M108.848 48.3003C108.032 48.7729 107.098 48.9953 106.159 48.9402C105.719 48.9572 105.279 48.9069 104.853 48.7909C104.573 48.6913 104.523 48.5278 104.523 48.2007V43.1666C104.523 42.7969 104.608 42.6191 105.064 42.5196C105.502 42.4439 105.947 42.4106 106.391 42.42C107.283 42.3599 108.172 42.5756 108.94 43.0386C109.319 43.3635 109.622 43.7698 109.827 44.228C110.032 44.6862 110.134 45.1848 110.125 45.6878C110.117 46.1908 109.998 46.6855 109.777 47.1362C109.556 47.5868 109.239 47.982 108.848 48.2931V48.3003ZM105.605 47.9732C105.849 48.0038 106.095 48.018 106.342 48.0158C107.163 48.0158 109.017 47.895 109.017 45.705C109.041 45.3522 108.983 44.9986 108.848 44.6726C108.712 44.3465 108.503 44.0572 108.238 43.8279C107.707 43.4656 107.071 43.2975 106.433 43.3515C106.156 43.3467 105.878 43.3681 105.605 43.4155V47.9732Z" fill="#004680"/>
<path d="M114.549 47.0134H112.26L111.733 48.4355C111.607 48.7554 111.509 48.9687 111.066 48.9687C110.729 48.9687 110.582 48.8407 110.582 48.6274C110.589 48.5139 110.617 48.4028 110.666 48.3004L112.773 43.0885C112.927 42.6903 113.053 42.4272 113.475 42.4272C113.896 42.4272 113.973 42.6903 114.128 43.0885L116.164 48.3004C116.21 48.4033 116.236 48.5144 116.241 48.6274C116.241 48.8407 116.079 48.9687 115.735 48.9687C115.391 48.9687 115.209 48.791 115.075 48.4355L114.549 47.0134ZM112.618 46.0677H114.198L113.419 44.0057L112.618 46.0677Z" fill="#004680"/>
<path d="M119.036 48.3286C119.056 48.4779 119.029 48.6297 118.958 48.7624C118.899 48.8237 118.828 48.8714 118.749 48.9021C118.671 48.9328 118.586 48.9457 118.502 48.9401C118.415 48.9464 118.329 48.9338 118.248 48.9031C118.166 48.8725 118.093 48.8244 118.032 48.7624C117.961 48.6297 117.934 48.4779 117.954 48.3286V43.4652H116.452C116.318 43.483 116.182 43.4555 116.066 43.387C116.006 43.3389 115.96 43.2767 115.931 43.2059C115.901 43.1352 115.89 43.0581 115.897 42.9817C115.889 42.9063 115.9 42.83 115.93 42.7602C115.959 42.6905 116.006 42.6296 116.066 42.5835C116.181 42.5125 116.317 42.4825 116.452 42.4982H120.566C120.698 42.483 120.832 42.5131 120.945 42.5835C121.005 42.6296 121.052 42.6905 121.081 42.7602C121.111 42.83 121.122 42.9063 121.114 42.9817C121.121 43.0581 121.11 43.1352 121.08 43.2059C121.051 43.2767 121.004 43.3389 120.945 43.387C120.831 43.455 120.698 43.4825 120.566 43.4652H119.057L119.036 48.3286Z" fill="#004680"/>
<path d="M123.185 44.98H124.54C124.673 44.9669 124.807 44.9995 124.919 45.0724C124.978 45.1173 125.025 45.177 125.054 45.2455C125.084 45.314 125.096 45.3891 125.088 45.4635C125.097 45.54 125.086 45.6175 125.056 45.6885C125.027 45.7595 124.98 45.8216 124.919 45.8687C124.807 45.9425 124.673 45.9728 124.54 45.9541H123.185V47.9165H125.151C125.286 47.9014 125.421 47.9313 125.537 48.0018C125.595 48.0491 125.64 48.1104 125.668 48.18C125.697 48.2496 125.707 48.3253 125.699 48.4C125.707 48.4758 125.696 48.5525 125.668 48.6232C125.64 48.6939 125.595 48.7565 125.537 48.8053C125.42 48.8733 125.285 48.9008 125.151 48.8835H122.673C122.287 48.8835 122.16 48.7271 122.16 48.3574V43.0175C122.16 42.6336 122.308 42.4985 122.673 42.4985H124.933C125.068 42.4833 125.204 42.5133 125.32 42.5838C125.377 42.6315 125.422 42.6928 125.45 42.7623C125.478 42.8318 125.489 42.9073 125.481 42.982C125.488 43.0576 125.476 43.1337 125.448 43.2041C125.42 43.2746 125.376 43.3373 125.32 43.3873C125.203 43.4553 125.067 43.4827 124.933 43.4655H123.22L123.185 44.98Z" fill="#004680"/>
<path d="M129.504 45.4276C129.887 45.6321 130.187 45.965 130.355 46.3692C130.522 46.7735 130.545 47.224 130.421 47.6439C130.297 48.0637 130.032 48.4267 129.673 48.671C129.313 48.9152 128.881 49.0254 128.451 48.9828C127.979 48.9811 127.515 48.8666 127.096 48.6486C126.829 48.4993 126.625 48.2931 126.625 48.0584C126.622 47.931 126.666 47.807 126.747 47.71C126.829 47.6129 126.943 47.5497 127.067 47.5323C127.397 47.5323 127.699 48.0584 128.423 48.0584C128.549 48.0734 128.677 48.0613 128.798 48.0228C128.92 47.9844 129.032 47.9205 129.127 47.8353C129.222 47.7501 129.299 47.6456 129.352 47.5284C129.405 47.4113 129.432 47.2842 129.434 47.1554C129.434 46.6008 129.026 46.3306 128.612 46.1102C128.036 45.8045 126.78 45.3494 126.78 44.0838C126.789 43.8358 126.848 43.5924 126.955 43.3688C127.061 43.1453 127.212 42.9464 127.398 42.7848C127.584 42.6232 127.801 42.5023 128.035 42.4297C128.27 42.3572 128.516 42.3345 128.76 42.3631C129.588 42.3631 130.388 42.747 130.388 43.1808C130.385 43.3059 130.338 43.4258 130.256 43.5194C130.173 43.613 130.061 43.6744 129.939 43.6927C129.637 43.6927 129.335 43.2874 128.753 43.2874C128.17 43.2874 127.868 43.5932 127.868 43.9984C127.868 44.7592 128.83 45.0152 129.504 45.4276Z" fill="#004680"/>
</svg>
