<svg width="210" height="197" viewBox="0 0 210 197" fill="none" xmlns="http://www.w3.org/2000/svg">
<g clip-path="url(#clip0_836_94553)">
<path d="M155.774 43.7771L122.475 51.8395C121.579 52.4077 115.516 52.8607 113.103 51.963C110.689 51.0654 110.988 49.0807 111.444 47.7383C111.9 46.396 117.299 46.0171 117.299 46.0171C117.299 46.0171 114.903 44.9383 115.035 43.9254C115.168 42.9124 119.381 45.416 119.381 45.416L151.154 35.8301L155.774 43.7771Z" fill="white"/>
<path d="M117.366 52.876C115.881 52.939 114.395 52.7723 112.962 52.3819C111.536 51.8466 110.051 50.5948 111.055 47.6383C111.444 46.4936 114.115 45.9913 115.94 45.7607C115.235 45.2913 114.53 44.6324 114.629 43.9077C114.641 43.7967 114.682 43.6907 114.747 43.5998C114.813 43.509 114.901 43.4363 115.002 43.3889C115.832 43.0101 118.063 44.2124 119.44 45.036L151.03 35.4336C151.12 35.4048 151.217 35.4079 151.305 35.4425C151.393 35.477 151.466 35.5409 151.511 35.623L156.131 43.5701C156.159 43.6278 156.174 43.6911 156.174 43.7554C156.174 43.8196 156.159 43.883 156.131 43.9407C156.103 43.999 156.062 44.0507 156.012 44.0919C155.962 44.1331 155.903 44.163 155.84 44.1795L122.608 52.2254C121.911 52.6042 119.63 52.876 117.366 52.876ZM115.459 44.0972C115.566 44.5254 116.553 45.2254 117.474 45.6454C117.558 45.6815 117.628 45.7455 117.67 45.8266C117.712 45.9076 117.725 46.0007 117.706 46.0901C117.689 46.1787 117.643 46.2595 117.576 46.3203C117.509 46.3811 117.423 46.4188 117.333 46.4277C114.845 46.6007 112.066 47.1936 111.843 47.8689C111.187 49.7877 111.635 50.9736 113.252 51.5748C115.641 52.4642 121.546 51.9454 122.259 51.4924C122.297 51.4668 122.339 51.4473 122.384 51.4348L155.135 43.5042L150.989 36.3148L119.506 45.7936C119.453 45.8158 119.397 45.8273 119.34 45.8273C119.283 45.8273 119.227 45.8158 119.174 45.7936C118.036 45.0333 116.781 44.4604 115.459 44.0972Z" fill="#231F20"/>
<path d="M117.3 46.0156C117.3 46.0156 116.354 48.8156 118.892 49.5239Z" fill="white"/>
<path d="M118.892 49.9117H118.784C118.417 49.8248 118.073 49.6627 117.773 49.4357C117.473 49.2088 117.224 48.9221 117.042 48.594C116.663 47.7324 116.615 46.7621 116.91 45.8681C116.946 45.7659 117.02 45.6819 117.118 45.6341C117.216 45.5863 117.329 45.5787 117.432 45.6128C117.537 45.6468 117.623 45.7205 117.673 45.8177C117.723 45.915 117.732 46.0279 117.698 46.1317C117.472 46.8135 117.501 47.5532 117.781 48.2152C117.909 48.4428 118.085 48.6407 118.297 48.7954C118.508 48.9502 118.751 49.0584 119.008 49.1128C119.06 49.128 119.109 49.1532 119.152 49.1871C119.194 49.2209 119.229 49.2627 119.256 49.3102C119.282 49.3576 119.298 49.4096 119.304 49.4634C119.31 49.5171 119.305 49.5715 119.29 49.6234C119.265 49.7081 119.212 49.7822 119.14 49.8343C119.068 49.8864 118.981 49.9135 118.892 49.9117Z" fill="#231F20"/>
<path d="M83.4368 53.2059C83.8438 53.4404 84.2036 53.7475 84.4984 54.1118C84.8942 54.5949 85.1744 55.1609 85.3181 55.7672C85.4618 56.3734 85.465 57.0041 85.3277 57.6118C84.8882 59.4565 82.5825 60.033 81.0482 60.8483C79.2153 61.8283 77.3492 62.7341 75.4666 63.6153C71.6266 65.3941 67.712 67.0083 63.7642 68.5565C60.5131 69.8083 57.2371 71.0271 53.9197 72.0647C52.8498 72.4106 50.4861 73.6047 49.3167 73.2671C47.9814 72.8883 45.1699 65.7071 51.6389 64.5788C52.9207 64.2263 54.1672 63.7577 55.3628 63.1788C58.3816 62.0314 61.3867 60.8702 64.378 59.6953C67.8945 58.3035 71.4027 56.8953 74.8777 55.4047C77.3575 54.3259 80.8574 51.7565 83.4368 53.2059Z" fill="white"/>
<path d="M49.7895 73.7191C49.5938 73.7235 49.3985 73.7013 49.2089 73.6532C48.2054 73.365 47.0194 70.9026 47.1438 68.712C47.2184 67.2956 47.8985 64.825 51.5726 64.1908C52.4356 64.0007 53.2713 63.7047 54.0607 63.3097C54.4671 63.1285 54.8901 62.9556 55.2467 62.8073C58.3485 61.6297 61.384 60.4603 64.2453 59.3238C68.4751 57.6767 71.7096 56.3344 74.7368 55.0414C75.2593 54.8191 75.8398 54.5226 76.4535 54.2179C78.6762 53.0732 81.4297 51.6485 83.669 52.892C84.1149 53.1565 84.5107 53.4966 84.8384 53.8967C85.2751 54.4299 85.5841 55.0546 85.7422 55.7237C85.9002 56.3927 85.9031 57.0887 85.7507 57.7591C85.3692 59.4061 83.7602 60.1144 82.342 60.7485C81.9688 60.9214 81.5956 61.0861 81.2722 61.2591C79.6134 62.1485 77.7722 63.0544 75.6657 64.0344C72.0911 65.6814 68.2594 67.3285 63.9384 68.9756C60.2063 70.4167 57.0713 71.5285 54.069 72.492C53.8202 72.5744 53.4884 72.7061 53.1235 72.8544C52.0697 73.3287 50.9422 73.6211 49.7895 73.7191ZM81.6868 53.205C80.1525 53.205 78.3694 54.1026 76.8102 54.9179C76.1799 55.2473 75.591 55.5438 75.0353 55.7414C71.9999 57.0426 68.757 58.3603 64.5273 60.032C61.6577 61.1685 58.6222 62.3379 55.5121 63.5238C55.1472 63.6638 54.7657 63.8285 54.3759 64.0014C53.5294 64.4208 52.6357 64.7388 51.7136 64.9485C48.761 65.4591 48.0478 67.2626 47.9732 68.6956C47.857 70.8367 49.0347 72.7144 49.4328 72.8132C50.1793 73.0273 51.7468 72.4014 52.7503 71.9897C53.1401 71.8332 53.4884 71.7014 53.7621 71.6108C56.7395 70.6556 59.8662 69.5438 63.5818 68.1108C67.8862 66.4638 71.7013 64.8167 75.2593 63.1697C77.3493 62.2061 79.1656 61.3003 80.816 60.4191C81.1643 60.2379 81.5459 60.065 81.9357 59.8838C83.2461 59.2991 84.5979 58.6897 84.8882 57.4132C85.0117 56.8669 85.0088 56.2999 84.8795 55.755C84.7502 55.21 84.4979 54.7014 84.1418 54.2673C83.8794 53.9382 83.5591 53.6592 83.1963 53.4438C82.721 53.2407 82.2022 53.1587 81.6868 53.205Z" fill="#231F20"/>
<path d="M128.903 52.2592C128.452 52.9548 127.767 53.4685 126.97 53.7086C125.817 54.2192 124.656 54.7051 123.503 55.2074C123.258 55.3103 123.043 55.4728 122.878 55.6801C122.712 55.8874 122.602 56.1327 122.558 56.3933C122.293 57.6368 122.06 58.8639 121.778 60.1157C121.633 60.6513 121.647 61.2173 121.819 61.745C121.992 62.2727 122.314 62.7395 122.749 63.0886C123.644 63.9121 124.49 64.7357 125.32 65.5592C125.663 65.8272 125.886 66.2187 125.94 66.6488C125.994 67.0789 125.876 67.513 125.61 67.8568C124.698 69.3639 123.76 70.8545 122.757 72.3121C121.861 73.6133 121.33 73.7368 119.829 73.218L119.697 73.1604C118.56 72.7074 117.416 72.2627 116.288 71.7851C115.943 71.6182 115.559 71.547 115.176 71.5789C114.794 71.6107 114.427 71.7446 114.115 71.9662C113.009 72.7074 111.903 73.4404 110.798 74.1651C110.55 74.3363 110.347 74.5624 110.203 74.8255C110.059 75.0885 109.978 75.3812 109.968 75.6804C109.925 76.0495 109.903 76.4206 109.902 76.7921C109.902 78.011 109.902 79.2627 109.902 80.4486C109.909 80.762 109.816 81.0696 109.638 81.3281C109.459 81.5866 109.203 81.7831 108.907 81.8898C108.671 82.0094 108.424 82.1032 108.168 82.1698C106.294 82.5568 104.42 82.9274 102.545 83.298C102.292 83.3523 102.028 83.3267 101.79 83.2248C101.552 83.123 101.352 82.9499 101.218 82.7298C100.9 82.2858 100.623 81.8145 100.389 81.3215C99.966 80.3745 99.6011 79.411 99.2113 78.4474C99.055 78.0585 98.8018 77.7154 98.4754 77.4504C98.149 77.1853 97.7601 77.007 97.3452 76.9321L94.741 76.3721C92.51 75.9027 92.1617 76.0098 90.5942 77.6239C89.8477 78.3733 89.1179 79.1392 88.3383 79.8474C88.0592 80.1758 87.6618 80.3829 87.231 80.4245C86.8003 80.466 86.3702 80.3387 86.0327 80.0698C84.4652 79.098 82.9142 78.0933 81.3965 77.0557C80.3349 76.3227 80.1773 75.7463 80.6335 74.5357C81.0896 73.3251 81.5375 72.271 82.0185 71.151C82.2322 70.717 82.3212 70.233 82.2759 69.7521C82.2305 69.2712 82.0525 68.8121 81.7614 68.4251C81.1477 67.5521 80.4925 66.7039 79.9368 65.7898C79.6907 65.3209 79.3086 64.9361 78.8399 64.685C78.3713 64.434 77.8375 64.3283 77.3077 64.3815C77.2165 64.3815 77.1253 64.3815 77.0341 64.3815H73.3019C72.9876 64.3876 72.6791 64.2965 72.4191 64.121C72.1591 63.9454 71.9604 63.694 71.8505 63.4015C71.7177 63.1392 71.6148 62.863 71.5437 62.578C71.1787 60.8157 70.8138 59.0451 70.4655 57.2745C70.3737 56.8998 70.4172 56.5049 70.5884 56.1588C70.7597 55.8127 71.0478 55.5372 71.4027 55.3804C71.8986 55.1206 72.408 54.8869 72.9287 54.6804C73.7581 54.3427 74.5874 54.0298 75.4168 53.6921C75.7748 53.5614 76.0926 53.3411 76.3397 53.0525C76.5867 52.764 76.7544 52.4169 76.8267 52.0451C77.117 50.6615 77.3575 49.278 77.6146 47.9274C77.6656 47.6678 77.6563 47.4001 77.5873 47.1446C77.5183 46.8892 77.3915 46.6527 77.2165 46.4533C76.8018 45.9674 76.3871 45.5063 75.9227 45.0533C75.3007 44.4192 74.6372 43.8345 74.04 43.1921C73.8344 43.0323 73.6637 42.8326 73.5383 42.6052C73.4129 42.3778 73.3355 42.1274 73.3106 41.8693C73.2858 41.6112 73.3141 41.3508 73.3939 41.1039C73.4737 40.8571 73.6032 40.6289 73.7747 40.4333C74.7367 38.9345 75.7237 37.4604 76.7355 35.9945C76.9693 35.5913 77.3503 35.2929 77.7996 35.1611C78.2489 35.0292 78.732 35.0741 79.1489 35.2862C80.4344 35.7886 81.7117 36.3239 83.0055 36.818C83.3754 36.9858 83.7846 37.0492 84.1884 37.0012C84.5922 36.9533 84.9749 36.7959 85.2945 36.5462C86.3893 35.7227 87.5338 34.9898 88.67 34.2157C88.936 34.0387 89.1558 33.8016 89.3115 33.5239C89.4672 33.2461 89.5544 32.9357 89.5658 32.618C89.5658 32.1239 89.6072 31.6298 89.6072 31.1357C89.6072 30.0815 89.5326 29.0357 89.6072 27.9898C89.5979 27.609 89.7217 27.2368 89.9575 26.9365C90.1934 26.6362 90.5269 26.4264 90.901 26.3427C92.8583 25.9227 94.8322 25.5192 96.8061 25.2145C97.1633 25.1453 97.5336 25.201 97.8541 25.3722C98.1746 25.5433 98.4255 25.8193 98.5644 26.1533C98.8961 26.8121 99.203 27.4874 99.5099 28.171C99.8167 28.8545 100.207 29.7521 100.571 30.5345C100.652 30.7845 100.797 31.0093 100.992 31.1869C101.187 31.3644 101.425 31.4887 101.683 31.5474C103.018 31.8274 104.37 32.058 105.705 32.371C106.172 32.4993 106.666 32.4897 107.127 32.3435C107.588 32.1972 107.996 31.9205 108.301 31.5474C109.213 30.5839 110.2 29.678 111.146 28.7392C111.37 28.4865 111.673 28.3152 112.007 28.2526C112.34 28.19 112.685 28.2395 112.987 28.3933C115.05 29.3424 116.956 30.5945 118.643 32.1074C118.88 32.3873 118.999 32.7473 118.975 33.1121C118.92 33.6051 118.795 34.0876 118.602 34.5451C118.154 35.7227 117.665 36.8921 117.208 38.078C117.087 38.3389 117.031 38.6256 117.047 38.9129C117.063 39.2001 117.15 39.479 117.3 39.7251C118.22 41.0674 119.149 42.4015 120.144 43.6863C120.429 43.9822 120.806 44.1738 121.214 44.2298C121.765 44.2947 122.32 44.3113 122.873 44.2792C123.918 44.2792 124.963 44.2215 126 44.2792C126.434 44.28 126.855 44.432 127.188 44.7089C127.522 44.9857 127.747 45.3699 127.824 45.7945C127.99 46.4698 128.156 47.1451 128.281 47.8286C128.521 49.1463 128.745 50.4639 128.977 51.7815L128.903 52.2592ZM97.8677 66.1851C101.019 66.6601 104.232 65.882 106.81 64.0196C109.387 62.1571 111.121 59.3606 111.635 56.2368C112.087 53.1222 111.311 49.9545 109.467 47.3949C107.623 44.8353 104.855 43.0818 101.741 42.5004C100.165 42.2394 98.5533 42.2905 96.9978 42.6508C95.4422 43.0111 93.9738 43.6734 92.6771 44.5996C91.3805 45.5259 90.2812 46.6977 89.4426 48.0476C88.604 49.3975 88.0427 50.8988 87.7909 52.4651C86.6298 57.6533 90.1795 64.991 97.8677 66.1851Z" fill="white"/>
<path d="M102.28 83.7917C102 83.7886 101.725 83.7153 101.482 83.5785C101.238 83.4417 101.033 83.2459 100.886 83.0094C100.559 82.5477 100.281 82.0537 100.057 81.5353C99.7666 80.9011 99.5095 80.2588 99.2275 79.6082C99.1031 79.2953 98.9705 78.9741 98.846 78.6529C98.7169 78.3239 98.5036 78.0339 98.2273 77.8115C97.951 77.5892 97.6212 77.442 97.2702 77.3847L96.134 77.1376L94.6743 76.8247C92.5926 76.38 92.377 76.4458 90.8758 77.9611L90.4778 78.3647C89.8806 78.9741 89.2586 79.6082 88.6117 80.2011C88.2616 80.5836 87.7808 80.8232 87.2628 80.8735C86.7448 80.9237 86.2264 80.7809 85.8084 80.4729C84.0668 79.3858 82.5407 78.3976 81.1557 77.4423C79.9531 76.6188 79.7126 75.7953 80.2351 74.4364C80.6747 73.267 81.164 72.1058 81.6284 71.0353C81.8145 70.6668 81.8929 70.2539 81.8548 69.8435C81.8166 69.433 81.6635 69.0414 81.4128 68.7129C81.2303 68.4494 81.0479 68.1858 80.8571 67.8894C80.4176 67.2882 79.9697 66.6623 79.5716 66.0117C79.3667 65.6077 79.0425 65.2754 78.6424 65.0591C78.2423 64.8428 77.7853 64.7528 77.3323 64.8011C77.2607 64.8094 77.1883 64.8094 77.1167 64.8011H77.0255H75.7814H73.2933C72.9002 64.8074 72.5146 64.694 72.1884 64.4761C71.8622 64.2581 71.611 63.9462 71.4687 63.5823C71.3295 63.321 71.221 63.0447 71.1452 62.7588C70.7693 60.9855 70.4071 59.2149 70.0588 57.447C69.9516 56.9871 70.0068 56.5046 70.2151 56.0803C70.4235 55.6561 70.7724 55.3157 71.2033 55.1164C71.7088 54.8458 72.2294 54.6038 72.7625 54.3917L74.2305 53.8153L75.2838 53.4035C75.5823 53.2963 75.8469 53.1126 76.0508 52.8711C76.2547 52.6295 76.3907 52.3387 76.4449 52.0282C76.6771 50.9494 76.8762 49.8623 77.0752 48.7341L77.2328 47.8529C77.2727 47.6522 77.265 47.445 77.2103 47.2477C77.1556 47.0505 77.0554 46.8686 76.9176 46.7164C76.5361 46.2635 76.0883 45.8188 75.6487 45.3411C75.3999 45.0858 75.1428 44.8305 74.8774 44.5835C74.612 44.3364 74.1144 43.8505 73.7578 43.4635C73.5159 43.2699 73.3157 43.03 73.1689 42.7582C73.0221 42.4863 72.9317 42.188 72.9031 41.8808C72.8744 41.5737 72.9082 41.264 73.0023 40.97C73.0964 40.676 73.2489 40.4038 73.4509 40.1694C74.4047 38.6788 75.4082 37.18 76.42 35.7223C76.7092 35.2459 77.1695 34.8961 77.7082 34.7432C78.2468 34.5904 78.8238 34.646 79.3228 34.8988L81.2967 35.6811L83.1793 36.4305C83.4846 36.57 83.8227 36.623 84.1563 36.5837C84.49 36.5445 84.8063 36.4145 85.0703 36.2082C85.8997 35.5823 86.8037 34.9894 87.6579 34.4129L88.4873 33.8694C88.6991 33.7237 88.8739 33.531 88.9977 33.3066C89.1215 33.0821 89.191 32.8321 89.2005 32.5764C89.242 32.0823 89.242 31.5882 89.242 31.127C89.242 30.6658 89.242 30.4188 89.242 30.0647C89.242 29.3729 89.242 28.6647 89.242 27.9564C89.2391 27.482 89.4033 27.0214 89.7062 26.6545C90.0091 26.2876 90.4316 26.0373 90.9007 25.947C92.6175 25.5847 94.4421 25.2388 96.8141 24.8188C97.2592 24.7312 97.721 24.7979 98.1225 25.0078C98.5241 25.2176 98.8409 25.5579 99.0202 25.9717C99.3022 26.5317 99.5593 27.1 99.8496 27.6682L99.9989 28.0058C100.148 28.327 100.289 28.6482 100.43 28.9694C100.637 29.4388 100.845 29.9082 101.06 30.3694C101.128 30.5453 101.239 30.7013 101.385 30.8224C101.53 30.9435 101.704 31.0257 101.89 31.0611L103.3 31.3411C104.179 31.5141 105.05 31.687 105.921 31.8847C106.316 31.9963 106.735 31.9894 107.126 31.8648C107.517 31.7403 107.862 31.5036 108.118 31.1847C108.715 30.5506 109.354 29.9411 109.96 29.3564L110.98 28.3682C111.262 28.0561 111.639 27.8445 112.054 27.7656C112.469 27.6868 112.899 27.7451 113.277 27.9317C115.382 28.8937 117.327 30.1714 119.041 31.72C119.208 31.898 119.335 32.1086 119.415 32.3383C119.495 32.5681 119.526 32.8119 119.506 33.0541C119.455 33.5868 119.324 34.1089 119.116 34.6023C118.867 35.2694 118.602 35.9282 118.336 36.587C118.129 37.1058 117.921 37.6247 117.722 38.1435C117.623 38.3431 117.574 38.5642 117.582 38.7869C117.589 39.0096 117.651 39.2271 117.764 39.42C118.593 40.6058 119.547 41.9976 120.6 43.3647C120.827 43.5802 121.118 43.7162 121.43 43.7517C121.82 43.806 122.214 43.8226 122.607 43.8011H124.092C124.772 43.8011 125.477 43.8011 126.174 43.8011C126.68 43.8495 127.156 44.0633 127.526 44.4091C127.897 44.7549 128.142 45.213 128.222 45.7117C128.38 46.3541 128.546 47.0541 128.678 47.7706C128.852 48.7011 129.01 49.64 129.176 50.5706L129.375 51.7317C129.383 51.7753 129.383 51.82 129.375 51.8635L129.3 52.3247C129.294 52.368 129.28 52.4098 129.259 52.4482C128.775 53.2278 128.029 53.8115 127.152 54.0953C126.447 54.4082 125.759 54.6964 125.071 54.9929L123.661 55.5941C123.476 55.6717 123.314 55.7949 123.191 55.952C123.067 56.1091 122.986 56.2949 122.956 56.4917C122.856 56.9611 122.765 57.4223 122.665 57.8917C122.508 58.6658 122.35 59.4482 122.168 60.2223C122.033 60.689 122.04 61.1847 122.188 61.6475C122.335 62.1104 122.617 62.5198 122.997 62.8247C123.827 63.5329 124.614 64.3317 125.585 65.2953C126.003 65.6217 126.275 66.0993 126.34 66.6239C126.406 67.1485 126.259 67.6775 125.933 68.0953C124.813 69.9317 123.934 71.307 123.072 72.567C122.077 74.0082 121.413 74.2141 119.655 73.6294L119.547 73.58L118.502 73.1682C117.673 72.847 116.893 72.5258 116.089 72.1882C115.807 72.0508 115.494 71.9913 115.182 72.016C114.869 72.0406 114.569 72.1485 114.314 72.3282L113.866 72.6329C112.92 73.2753 111.975 73.9094 111.021 74.5353C110.819 74.6688 110.652 74.8483 110.534 75.0588C110.415 75.2694 110.349 75.5049 110.341 75.7458C110.297 76.1011 110.275 76.4586 110.275 76.8164C110.275 77.4917 110.275 78.167 110.275 78.8341V80.4811C110.281 80.8737 110.165 81.2585 109.942 81.5829C109.719 81.9073 109.401 82.1553 109.031 82.2929L108.931 82.3423C108.701 82.4561 108.459 82.5444 108.21 82.6058L104.162 83.4294L102.586 83.7423C102.486 83.7678 102.383 83.7844 102.28 83.7917ZM93.0903 75.7706C93.6833 75.7934 94.2724 75.8762 94.8485 76.0176L96.3165 76.3306L97.4527 76.5776C97.9356 76.6619 98.3885 76.8684 98.7677 77.1771C99.1468 77.4858 99.4395 77.8863 99.6174 78.34C99.75 78.6611 99.8827 78.9823 100.007 79.3117C100.264 79.9458 100.513 80.58 100.837 81.2058C101.048 81.6749 101.307 82.1218 101.608 82.54C101.695 82.6965 101.831 82.8206 101.996 82.8934C102.161 82.9662 102.345 82.9838 102.52 82.9435L104.088 82.6305C105.439 82.3588 106.783 82.0953 108.127 81.807C108.319 81.7599 108.506 81.6908 108.682 81.6011L108.782 81.5517C109.005 81.4806 109.2 81.3395 109.336 81.1494C109.472 80.9594 109.542 80.7307 109.537 80.4976V78.8506C109.537 78.1753 109.537 77.5 109.537 76.8247C109.537 76.487 109.537 76.1164 109.603 75.6717C109.623 75.3077 109.729 74.9534 109.912 74.6373C110.094 74.3212 110.35 74.0522 110.656 73.8517C111.602 73.2341 112.547 72.6 113.493 71.9576L113.94 71.6611C114.31 71.4023 114.741 71.2453 115.192 71.2063C115.642 71.1672 116.094 71.2474 116.503 71.4388L118.9 72.4106L119.912 72.8141V73.2423L120.053 72.8553C121.405 73.3329 121.712 73.2341 122.5 72.1141C123.329 70.8706 124.225 69.5035 125.336 67.6753C125.449 67.5456 125.534 67.3937 125.584 67.2294C125.634 67.0651 125.648 66.8921 125.626 66.7219C125.605 66.5516 125.547 66.3879 125.457 66.2414C125.366 66.0949 125.246 65.9689 125.104 65.8717C124.15 64.8835 123.337 64.0929 122.558 63.4011C122.065 63.0003 121.699 62.4673 121.504 61.8657C121.308 61.264 121.291 60.6192 121.455 60.0082C121.629 59.2423 121.786 58.4682 121.944 57.6941C122.043 57.2247 122.135 56.7553 122.234 56.2941C122.293 55.969 122.432 55.6635 122.639 55.4048C122.846 55.1462 123.115 54.9424 123.42 54.8117L124.83 54.2023C125.518 53.9141 126.207 53.6176 126.887 53.3129C127.571 53.108 128.168 52.6856 128.587 52.1105L128.637 51.7894L128.363 50.7353C128.206 49.8047 128.04 48.8741 127.874 47.9435C127.741 47.2435 127.584 46.56 127.426 45.9341C127.371 45.5978 127.199 45.2914 126.94 45.0686C126.681 44.8457 126.351 44.7206 126.008 44.7153C125.336 44.7153 124.639 44.7153 123.976 44.7153H122.5C122.051 44.7452 121.6 44.7259 121.156 44.6576C120.645 44.5838 120.174 44.3399 119.821 43.9658C118.759 42.5823 117.78 41.1741 116.968 39.98C116.776 39.6793 116.662 39.3358 116.638 38.9806C116.613 38.6255 116.678 38.2698 116.827 37.9458L117.449 36.3811C117.714 35.7306 117.971 35.0717 118.228 34.4129C118.401 33.9936 118.515 33.5532 118.568 33.1035C118.587 32.8657 118.519 32.6293 118.378 32.4364C116.724 30.9471 114.854 29.7143 112.829 28.78C112.602 28.664 112.342 28.627 112.091 28.6747C111.84 28.7225 111.612 28.8523 111.444 29.0435C111.112 29.3811 110.764 29.7106 110.424 30.04C109.819 30.6247 109.197 31.2341 108.608 31.8435C108.25 32.266 107.778 32.5792 107.249 32.7468C106.719 32.9144 106.152 32.9296 105.614 32.7905C104.784 32.5847 103.889 32.42 103.026 32.247L101.608 31.967C101.298 31.9 101.01 31.7603 100.766 31.5597C100.522 31.3591 100.33 31.1035 100.206 30.8141C99.9906 30.3447 99.7832 29.8753 99.5676 29.3976L99.1446 28.4423L98.987 28.1047C98.7382 27.5447 98.4894 26.9847 98.2074 26.4576C98.1088 26.2028 97.9217 25.9914 97.6799 25.8616C97.4381 25.7317 97.1575 25.6919 96.8887 25.7494C94.5251 26.1611 92.7419 26.507 91.0002 26.8611C90.7316 26.9367 90.4954 27.0977 90.3276 27.3193C90.1599 27.5409 90.0698 27.811 90.0714 28.0882C90.0299 28.7553 90.0714 29.4553 90.0714 30.1306C90.0714 30.4929 90.0714 30.847 90.0714 31.2094C90.0714 31.5717 90.0714 32.2058 90.0299 32.7247C90.0102 33.104 89.9027 33.4737 89.7157 33.8051C89.5287 34.1364 89.2672 34.4205 88.9517 34.6353L88.1224 35.1788C87.293 35.747 86.3973 36.34 85.5596 36.9494C85.1819 37.2371 84.7337 37.4194 84.2612 37.4773C83.7887 37.5352 83.3093 37.4667 82.8725 37.2788L80.9898 36.5294L79.0242 35.7058C78.8625 35.6148 78.6841 35.5569 78.4994 35.5354C78.3148 35.514 78.1277 35.5294 77.9492 35.5808C77.7707 35.6322 77.6043 35.7186 77.4599 35.8348C77.3155 35.9511 77.196 36.0948 77.1084 36.2576C76.0966 37.7153 75.1013 39.2058 74.1476 40.6882C74.0005 40.8449 73.8885 41.0307 73.8191 41.2335C73.7496 41.4362 73.7242 41.6513 73.7446 41.8646C73.765 42.0778 73.8307 42.2843 73.9373 42.4705C74.0439 42.6566 74.1891 42.8183 74.3632 42.9447C74.7115 43.3153 75.0847 43.6694 75.4497 44.0235C75.8146 44.3776 75.9887 44.5341 76.279 44.7976C76.7601 45.2835 77.1913 45.7529 77.5894 46.2223C77.8046 46.4673 77.9606 46.7579 78.0454 47.0719C78.1302 47.3859 78.1416 47.715 78.0787 48.0341L77.9212 48.9153C77.7221 50.0106 77.5231 51.0976 77.2908 52.2094C77.2087 52.6506 77.0127 53.0632 76.7219 53.4067C76.4312 53.7503 76.0557 54.013 75.6321 54.1694L74.5705 54.5894L73.1191 55.1658C72.6127 55.3648 72.1171 55.5902 71.6346 55.8411C71.359 55.9591 71.1344 56.1703 71.0008 56.4372C70.8672 56.7041 70.8331 57.0094 70.9047 57.2988C71.2531 59.0611 71.618 60.8317 71.9829 62.5941C72.0404 62.808 72.121 63.0151 72.2234 63.2117C72.2932 63.4488 72.4383 63.6571 72.6371 63.8055C72.8359 63.9539 73.0778 64.0345 73.3265 64.0353H75.8146H77.0586H77.3157C77.9261 63.9778 78.5397 64.1042 79.0767 64.3979C79.6137 64.6917 80.0492 65.1393 80.3263 65.6823C80.7078 66.3082 81.1557 66.9176 81.5704 67.5106C81.7611 67.7658 81.9519 68.0294 82.1343 68.3341C82.4651 68.7783 82.6677 69.3035 82.7203 69.8535C82.7729 70.4034 82.6735 70.9572 82.4329 71.4553C81.9768 72.5258 81.4874 73.6706 81.0479 74.8317C80.6083 75.9929 80.7742 76.2482 81.6616 76.8576C83.0466 77.8129 84.5561 78.7929 86.2895 79.8717C86.419 79.9785 86.5687 80.0585 86.7298 80.1072C86.8908 80.1559 87.06 80.1723 87.2275 80.1555C87.395 80.1386 87.5575 80.0888 87.7054 80.009C87.8533 79.9292 87.9838 79.8209 88.0892 79.6906C88.7195 79.1141 89.3332 78.4882 89.9304 77.887L90.3285 77.4835C91.4564 76.207 92.0618 75.7706 93.0903 75.7706ZM99.7252 66.7447C99.0806 66.7451 98.437 66.6928 97.8011 66.5882C96.1029 66.3376 94.4754 65.7406 93.021 64.835C91.5665 63.9293 90.3166 62.7345 89.3498 61.3258C88.4377 60.0409 87.7945 58.5873 87.4583 57.0511C87.1221 55.5148 87.0997 53.9273 87.3925 52.3823C87.7798 50.0595 88.8276 47.895 90.4124 46.1437C91.9972 44.3924 94.053 43.1273 96.3377 42.4974C98.6224 41.8676 101.041 41.8991 103.308 42.5884C105.575 43.2777 107.597 44.596 109.135 46.388C110.673 48.18 111.663 50.3712 111.988 52.7033C112.314 55.0354 111.962 57.4114 110.973 59.5513C109.984 61.6913 108.4 63.5061 106.408 64.782C104.415 66.0579 102.096 66.7417 99.7252 66.7529V66.7447ZM97.9337 65.7811C99.4406 66.0157 100.979 65.9531 102.462 65.597C103.944 65.2409 105.342 64.5982 106.574 63.7057C107.806 62.8132 108.849 61.6884 109.644 60.3955C110.438 59.1026 110.968 57.6669 111.204 56.1705C111.446 54.6704 111.384 53.1372 111.023 51.6609C110.661 50.1846 110.006 48.7948 109.097 47.5729C107.765 45.6984 105.898 44.2633 103.736 43.4526C101.575 42.6418 99.2185 42.4928 96.9709 43.0245C94.7234 43.5563 92.6879 44.7446 91.127 46.436C89.566 48.1275 88.5513 50.2445 88.2136 52.5141C87.9402 53.9525 87.9609 55.4307 88.2743 56.861C88.5878 58.2913 89.1876 59.6444 90.0382 60.84C90.9393 62.1621 92.1072 63.2839 93.4677 64.1345C94.8283 64.985 96.3519 65.5458 97.942 65.7811H97.9337Z" fill="#231F20"/>
<path d="M53.1647 115.597L51.987 117.853C48.9018 123.75 46.8201 133.756 40.5667 139.562C38.261 141.703 12.9405 152.689 12.9405 152.689L10.2036 145.277C10.2036 145.277 30.2991 132.669 32.0159 130.948C34.1557 128.773 43.287 99.8594 43.287 99.8594L53.1647 115.597Z" fill="white"/>
<path d="M12.9404 153.091C12.8858 153.103 12.8291 153.103 12.7746 153.091C12.7228 153.07 12.6761 153.039 12.6374 152.999C12.5988 152.96 12.5692 152.912 12.5506 152.86L9.81372 145.448C9.78213 145.359 9.78214 145.261 9.81378 145.171C9.84542 145.081 9.90681 145.005 9.98789 144.954C16.9131 140.614 30.3488 132.058 31.6509 130.724C33.3511 128.994 40.2929 107.813 42.8224 99.8001C42.847 99.7241 42.8928 99.6567 42.9544 99.6057C43.0161 99.5546 43.0912 99.5221 43.1708 99.5118C43.2494 99.5042 43.3287 99.5178 43.4002 99.5511C43.4717 99.5845 43.5328 99.6363 43.5772 99.7012L53.4798 115.447C53.5163 115.508 53.5356 115.578 53.5356 115.649C53.5356 115.72 53.5163 115.79 53.4798 115.851C53.4798 115.851 53.0402 116.674 52.3021 118.107C51.2863 120.183 50.381 122.311 49.5901 124.481C47.525 129.809 45.1861 135.854 40.7988 139.922C38.4683 142.088 14.1264 152.679 13.0897 153.099C13.0399 153.106 12.9892 153.103 12.9404 153.091ZM10.7426 145.44L13.2307 152.16C22.0634 148.322 38.5429 140.919 40.3012 139.288C44.5475 135.352 46.8532 129.406 48.8851 124.152C49.683 121.952 50.5994 119.797 51.6303 117.695L52.7002 115.645L43.3781 100.829C41.8189 105.729 34.2551 129.2 32.2812 131.234C30.6722 132.873 13.2888 143.793 10.7426 145.44Z" fill="#231F20"/>
<path d="M10.2366 145.244C10.2366 145.244 4.06616 146.265 4.10763 147.171C4.1491 148.077 9.08382 163.543 10.9084 162.884C12.733 162.225 12.9404 152.689 12.9404 152.689L10.2366 145.244Z" fill="#231F20"/>
<path d="M10.7927 163.311C10.5958 163.308 10.4046 163.245 10.2454 163.13C7.90655 161.59 3.73485 147.919 3.69338 147.195C3.69338 146.874 3.63533 145.91 10.1707 144.831C10.2668 144.816 10.3651 144.835 10.4485 144.885C10.5318 144.935 10.595 145.012 10.6269 145.103L13.3638 152.515C13.3724 152.566 13.3724 152.619 13.3638 152.671C13.3057 154.969 12.9823 162.554 11.025 163.245C10.9516 163.279 10.8732 163.302 10.7927 163.311ZM4.53104 147.211C4.63886 147.829 5.73362 151.452 7.11866 155.175C9.76433 162.282 10.7513 162.488 10.7927 162.488C11.7382 162.15 12.4515 157.184 12.5593 152.754L9.97167 145.704C7.55822 146.124 4.92913 146.791 4.53104 147.211Z" fill="#231F20"/>
<path d="M60.5547 111.002C60.5547 111.002 60.8532 111.916 61.326 113.423C63.3247 119.764 68.5331 136.482 68.699 139.01C68.9064 142.148 57.3036 164.844 57.3036 164.844L49.4329 163.469C49.4329 163.469 56.4659 139.109 56.441 136.712C56.441 133.673 42.3418 106.785 42.3418 106.785L60.5547 111.002Z" fill="white"/>
<path d="M57.3034 165.256H57.237L49.3746 163.881C49.3181 163.873 49.2641 163.853 49.2166 163.822C49.1692 163.79 49.1296 163.748 49.101 163.699C49.0683 163.65 49.0469 163.594 49.0384 163.536C49.0298 163.478 49.0341 163.418 49.0512 163.362C51.4729 154.962 56.0593 138.574 56.0427 136.729C56.0427 134.316 45.883 114.436 41.9435 106.983C41.9016 106.916 41.8794 106.839 41.8794 106.761C41.8794 106.682 41.9016 106.605 41.9435 106.538C41.9936 106.477 42.0595 106.431 42.1341 106.405C42.2087 106.379 42.2891 106.374 42.3665 106.39L60.6125 110.607C60.6815 110.623 60.7452 110.656 60.7975 110.704C60.8498 110.751 60.8889 110.811 60.9111 110.878L61.6824 113.308C63.8471 120.184 68.9062 136.449 69.0721 138.994C69.2877 142.205 58.1079 164.111 57.6351 165.042C57.6022 165.102 57.5546 165.153 57.4966 165.191C57.4387 165.228 57.3723 165.251 57.3034 165.256ZM49.9718 163.139L57.0794 164.391C60.3969 157.902 68.45 141.481 68.2842 139.043C68.1183 136.605 62.6113 118.891 60.9277 113.514L60.2144 111.348L43.1212 107.387C45.4932 111.949 56.8223 133.871 56.8555 136.712C56.897 138.985 50.9504 159.738 49.9718 163.139Z" fill="#231F20"/>
<path d="M31.9498 44.4099C30.2889 44.5213 28.6687 44.9698 27.1893 45.7275C24.6016 46.9628 22.1301 49.0216 21.5579 51.7805C21.0934 54.0452 21.9643 56.3593 23.0673 58.3687C24.1704 60.3781 25.5554 62.3463 26.1443 64.5699C26.7331 66.7934 26.476 69.511 24.7095 70.9687C27.1159 70.055 29.3568 68.7589 31.3444 67.131C32.5206 66.1793 33.2885 64.8192 33.4924 63.3263C33.4888 62.0984 33.1873 60.8893 32.6133 59.8016C31.7627 58.1804 31.2014 56.425 30.9546 54.6134C30.8302 52.8016 31.5103 50.8087 33.086 49.8863C34.4711 49.0628 38.9911 49.1534 38.2779 46.5922C37.7388 44.6816 33.5671 44.344 31.9498 44.4099Z" fill="white"/>
<path d="M24.7095 71.4048C24.6243 71.4057 24.541 71.3805 24.4708 71.3327C24.4006 71.2849 24.3469 71.2168 24.317 71.1376C24.2871 71.0585 24.2825 70.9721 24.3037 70.8903C24.325 70.8084 24.3711 70.735 24.4358 70.6801C26.2106 69.1813 26.2521 66.5624 25.7462 64.7013C25.22 63.1056 24.4956 61.5814 23.5898 60.1636C23.2913 59.6366 22.9844 59.1177 22.7024 58.5907C21.2344 55.8813 20.7451 53.6495 21.1515 51.6977C21.8565 48.2801 25.1241 46.2542 27.0068 45.3566C28.5365 44.5698 30.2141 44.1071 31.9332 43.9977C33.592 43.9319 38.054 44.2613 38.6926 46.5424C38.7781 46.7896 38.809 47.0521 38.7833 47.3121C38.7575 47.5722 38.6757 47.8237 38.5433 48.0495C37.9544 49.0542 36.4035 49.4166 35.0434 49.7377C34.4492 49.8442 33.87 50.0211 33.3183 50.2648C31.7342 51.1871 31.2863 53.1883 31.3859 54.613C31.6003 56.2939 32.1024 57.926 32.8704 59.4389L32.9699 59.6613C33.5699 60.8116 33.8828 62.0882 33.8822 63.3836C33.6828 64.9961 32.8661 66.4705 31.6015 67.5013C29.5867 69.157 27.3153 70.478 24.8753 71.413C24.82 71.4212 24.7637 71.4184 24.7095 71.4048ZM31.9664 44.8213C30.3599 44.9271 28.7927 45.3617 27.3634 46.0977C25.6218 46.9213 22.5946 48.7907 21.9643 51.8624C21.5993 53.6495 22.0638 55.6671 23.4322 58.2036C23.7142 58.7224 24.0128 59.233 24.3114 59.7519C25.2533 61.2305 26.0029 62.8215 26.5424 64.4871C27.0834 66.2837 26.9296 68.2161 26.1111 69.906C27.8998 69.1452 29.5611 68.1177 31.0375 66.8589C32.1252 65.9684 32.843 64.7101 33.0529 63.326C33.0516 62.164 32.767 61.0197 32.2235 59.9907L32.124 59.7683C31.3158 58.1703 30.7911 56.4458 30.5731 54.6707C30.4561 53.6875 30.6121 52.6913 31.0244 51.7898C31.4366 50.8884 32.0894 50.1161 32.9119 49.5566C33.534 49.2657 34.1921 49.058 34.8692 48.9389C36.0137 48.6671 37.4319 48.3295 37.8466 47.6295C37.9125 47.5036 37.9523 47.3658 37.9637 47.2244C37.9751 47.083 37.9578 46.9407 37.913 46.806C37.4568 45.1589 33.6583 44.7966 31.983 44.8624L31.9664 44.8213Z" fill="#231F20"/>
<path d="M33.9731 44.9703C33.4278 45.9149 33.2203 47.0149 33.3842 48.0915C33.435 48.816 33.7005 49.5094 34.1472 50.0844C34.4432 50.4111 34.8114 50.6652 35.223 50.8266C35.6346 50.9881 36.0783 51.0526 36.5192 51.015C36.9182 51.007 37.2997 50.8513 37.5891 50.5785C37.7966 50.3219 37.9312 50.0148 37.9789 49.6891C38.4599 47.4409 36.7929 40.5562 33.9731 44.9703Z" fill="#ED2D24"/>
<path d="M36.2956 51.4358C35.8265 51.4437 35.3612 51.3506 34.9317 51.1629C34.5022 50.9753 34.1187 50.6975 33.8075 50.3488C33.3153 49.7119 33.0264 48.9432 32.9782 48.1417C32.8064 46.9724 33.0373 45.7798 33.6334 44.757C34.7281 43.0358 35.6902 42.97 36.2956 43.217C38.0207 43.9088 38.7837 48.0347 38.3939 49.8053C38.3334 50.205 38.1642 50.5809 37.9046 50.8923C37.5451 51.2423 37.0644 51.4426 36.561 51.4523L36.2956 51.4358ZM34.33 45.1935C33.8352 46.0569 33.6482 47.0609 33.7992 48.0429C33.8355 48.6886 34.0667 49.3084 34.4627 49.8217C34.7155 50.1041 35.0301 50.3252 35.3823 50.468C35.7346 50.6107 36.1151 50.6714 36.4947 50.6453C36.7989 50.645 37.0929 50.5369 37.324 50.3405C37.4759 50.1345 37.5729 49.8937 37.606 49.6405C37.9295 48.1253 37.1665 44.4853 36.0136 44.0158C35.4414 43.7935 34.7945 44.5511 34.3549 45.2347L34.33 45.1935Z" fill="#231F20"/>
<path d="M48.8357 59.7946C48.1639 60.6181 47.177 61.0134 45.4685 60.8487C44.0739 60.6567 42.749 60.1248 41.6119 59.3005C39.3972 57.7523 37.6596 55.6231 36.5933 53.1508C35.5271 50.6785 35.1742 47.9604 35.5742 45.3005C36.4782 39.9063 41.8856 34.5369 47.7161 36.5875C48.6988 36.9439 49.5915 37.5087 50.332 38.2426C51.0726 38.9764 51.6431 39.8618 52.0039 40.8369C52.3982 40.704 52.8229 40.6877 53.2263 40.79C53.6298 40.8923 53.9946 41.1089 54.2763 41.4134C55.7858 42.904 55.7277 44.5016 54.9232 46.2969C53.5963 49.2369 51.9707 52.0616 50.7764 55.0428C50.088 56.7228 49.8226 58.6087 48.8357 59.7946Z" fill="white"/>
<path d="M46.1151 61.2517C45.8829 61.2517 45.6424 61.2517 45.3935 61.2517C43.9258 61.0518 42.5332 60.485 41.3462 59.6046C39.0536 58.0171 37.2558 55.8222 36.1576 53.27C35.0594 50.7178 34.7048 47.9107 35.1343 45.1682C35.4424 43.4803 36.1035 41.8753 37.0749 40.4569C38.0463 39.0384 39.3064 37.8379 40.774 36.9329C41.816 36.2882 42.991 35.8853 44.2116 35.7541C45.4322 35.6229 46.6668 35.7669 47.8236 36.1752C48.8007 36.5269 49.6949 37.0737 50.4509 37.7819C51.207 38.4901 51.8088 39.3447 52.2192 40.2929C52.643 40.2382 53.0739 40.2843 53.4762 40.4275C53.8786 40.5707 54.2408 40.8068 54.5331 41.1164C56.4822 43.0352 55.885 45.0776 55.2713 46.4529C54.7239 47.6717 54.1185 48.8741 53.5296 50.0435C52.7003 51.6905 51.8709 53.4364 51.1328 55.1905C50.9088 55.7505 50.7264 56.3435 50.5522 56.9117C50.2903 58.0525 49.8025 59.1303 49.1174 60.0823C48.7391 60.4906 48.2722 60.8081 47.752 61.0107C47.2319 61.2133 46.6721 61.2957 46.1151 61.2517ZM45.1116 36.4799C43.7444 36.492 42.4049 36.8643 41.2301 37.5588C39.8616 38.4065 38.6872 39.5297 37.783 40.856C36.8787 42.1823 36.2646 43.6822 35.9803 45.2588C35.5957 47.8466 35.94 50.4896 36.9749 52.8952C38.0098 55.3007 39.695 57.375 41.8439 58.8882C42.9236 59.6742 44.1834 60.1808 45.5097 60.3623C46.0483 60.4804 46.6085 60.4583 47.1359 60.2981C47.6634 60.1379 48.1403 59.8452 48.5202 59.4482C49.1278 58.5804 49.5614 57.6046 49.7975 56.5741C49.9716 55.9894 50.1624 55.3799 50.3946 54.787C51.1079 52.9999 51.9787 51.2623 52.8164 49.5823C53.4052 48.4211 54.0024 47.2188 54.5414 46.0164C55.3708 44.1388 55.2215 42.8211 53.9858 41.6023C53.7614 41.3574 53.4714 41.1809 53.1499 41.0934C52.8283 41.0059 52.4882 41.011 52.1695 41.1082C52.1173 41.1294 52.0613 41.1401 52.0049 41.1396C51.9485 41.139 51.8927 41.1273 51.8409 41.105C51.7892 41.0828 51.7424 41.0505 51.7034 41.01C51.6644 40.9695 51.6339 40.9217 51.6138 40.8694C51.279 39.9503 50.7442 39.1158 50.0475 38.4254C49.3508 37.735 48.5094 37.2057 47.5831 36.8752C46.7992 36.6053 45.9744 36.4715 45.1447 36.4799H45.1116Z" fill="#231F20"/>
<path d="M53.1567 47.3008C53.1567 47.3008 56.6898 50.282 56.4078 51.1878C56.1259 52.0937 54.2847 52.0855 54.2847 52.0855" fill="white"/>
<path d="M54.3095 52.4969C54.1988 52.4948 54.0933 52.4496 54.0157 52.371C53.9382 52.2925 53.8948 52.1869 53.8948 52.0769C53.8936 52.0222 53.9038 51.9678 53.9248 51.9172C53.9458 51.8665 53.9772 51.8208 54.017 51.7829C54.0568 51.7449 54.104 51.7156 54.1558 51.6968C54.2076 51.6779 54.2627 51.67 54.3178 51.6734C54.7656 51.6734 55.8936 51.5252 56.0346 51.0722C56.1756 50.6193 54.6164 49.0463 52.9162 47.6134C52.8326 47.5424 52.7808 47.4414 52.7723 47.3325C52.7637 47.2236 52.7991 47.1158 52.8705 47.0328C52.942 46.9498 53.0438 46.8984 53.1535 46.8899C53.2631 46.8814 53.3717 46.9165 53.4552 46.9875C54.8486 48.1652 57.1459 50.2816 56.8308 51.311C56.5156 52.3405 54.6412 52.4969 54.3095 52.4969Z" fill="#231F20"/>
<path d="M55.122 67.4283C51.1576 67.7413 44.3403 63.7883 44.3403 63.6401C43.6157 61.0854 43.0205 58.4963 42.5571 55.8825C42.5571 55.8825 45.236 55.1248 45.8746 51.5095C46.5132 47.8942 49.897 47.326 51.2074 42.5742C53.1398 43.3977 53.4716 46.1978 53.9692 47.9436C54.6659 50.4032 55.3045 52.8738 55.885 55.3554C56.2582 56.9366 52.2192 58.1389 51.365 57.8754C52.2773 60.2142 52.2773 60.2142 55.122 67.4283Z" fill="white"/>
<path d="M54.6825 67.8559C50.6849 67.8559 44.1081 64.3065 43.9007 63.7383C43.1628 61.1631 42.5594 58.5517 42.0927 55.9147C42.0765 55.8138 42.0978 55.7105 42.1528 55.624C42.2077 55.5376 42.2925 55.4741 42.3913 55.4453C42.4908 55.4453 44.8794 54.7041 45.4351 51.4018C45.7935 49.8153 46.6363 48.3773 47.8485 47.2841C49.2429 45.9762 50.2644 44.3256 50.8094 42.4994C50.8259 42.4431 50.8542 42.3909 50.8923 42.3462C50.9304 42.3014 50.9775 42.265 51.0307 42.2394C51.0838 42.2138 51.1417 42.1995 51.2007 42.1975C51.2598 42.1955 51.3185 42.2058 51.3733 42.2277C53.173 42.9935 53.7038 45.1677 54.1268 46.9218C54.2097 47.2594 54.2844 47.5806 54.3673 47.8688C55.064 50.3394 55.7109 52.81 56.2915 55.2806C56.3446 55.565 56.3178 55.8585 56.2139 56.1287C56.11 56.3989 55.9331 56.6355 55.7026 56.8124C54.6235 57.6435 53.3355 58.1648 51.9788 58.3194C52.692 60.1394 52.9159 60.7241 55.5119 67.2959C55.5341 67.3567 55.542 67.4217 55.5348 67.486C55.5276 67.5503 55.5056 67.6121 55.4704 67.6665C55.4371 67.7209 55.3911 67.7666 55.3362 67.7996C55.2813 67.8326 55.2192 67.8519 55.1552 67.8559C54.9978 67.8644 54.8399 67.8644 54.6825 67.8559ZM44.6803 63.3924C45.4019 63.87 50.8674 66.9665 54.5249 67.0324C51.8958 60.3618 51.8709 60.3041 50.9835 58.023C50.9556 57.951 50.9485 57.8728 50.9632 57.797C50.9779 57.7213 51.0136 57.6512 51.0665 57.5947C51.1196 57.5389 51.1871 57.4987 51.2617 57.4784C51.3363 57.4581 51.415 57.4584 51.4894 57.4794C52.8111 57.454 54.0888 57.0031 55.1303 56.1947C55.4206 55.923 55.5367 55.6759 55.487 55.4535C54.9064 52.983 54.2595 50.5124 53.5711 48.0418C53.4799 47.7453 53.4053 47.4077 53.3223 47.0618C52.974 45.6535 52.5593 43.9406 51.4645 43.1665C50.8567 44.9348 49.8398 46.5369 48.4954 47.8441C47.3909 48.8258 46.6201 50.1234 46.2893 51.5583C46.1737 52.5354 45.8081 53.4668 45.2274 54.264C44.6467 55.0611 43.8702 55.6974 42.9718 56.1124C43.229 57.323 43.9837 61.2347 44.6803 63.3924Z" fill="#231F20"/>
<path d="M55.2961 53.5508C55.1027 53.779 54.8622 53.9634 54.5909 54.0914C54.3196 54.2194 54.0237 54.2881 53.7234 54.2928C53.423 54.2975 53.1251 54.2381 52.8499 54.1186C52.5746 53.9991 52.3284 53.8223 52.1279 53.6002" fill="white"/>
<path d="M53.6294 54.7383C53.2886 54.7307 52.953 54.6538 52.6434 54.5121C52.3338 54.3704 52.0568 54.1671 51.8296 53.9147C51.7538 53.835 51.7129 53.7286 51.716 53.619C51.7191 53.5093 51.7659 53.4054 51.8462 53.33C51.9265 53.2547 52.0337 53.2141 52.1441 53.2172C52.2545 53.2203 52.3592 53.2668 52.4351 53.3465C52.5776 53.5315 52.7607 53.6819 52.9705 53.786C53.1804 53.8902 53.4114 53.9455 53.646 53.9477C54.1565 53.899 54.6328 53.6713 54.9895 53.3053C55.065 53.2318 55.1659 53.1897 55.2716 53.1876C55.3773 53.1855 55.4799 53.2236 55.5582 53.294C55.6366 53.3645 55.6849 53.462 55.6933 53.5667C55.7017 53.6713 55.6695 53.7752 55.6033 53.8571C55.0948 54.3975 54.3976 54.7245 53.6542 54.7712L53.6294 54.7383Z" fill="#231F20"/>
<path d="M51.3652 57.8748C50.7686 58.0114 50.1501 58.0249 49.548 57.9144C48.946 57.8039 48.3732 57.5718 47.8652 57.2324C47.8652 57.2324 49.0927 60.9465 52.6258 61.103L51.3652 57.8748Z" fill="#231F20"/>
<path d="M52.6255 61.5151C48.8519 61.3504 47.5415 57.5209 47.4918 57.3974C47.4618 57.3129 47.4611 57.2209 47.4896 57.1359C47.5181 57.0509 47.5743 56.9778 47.6494 56.928C47.7217 56.8758 47.8088 56.8477 47.8982 56.8477C47.9876 56.8477 48.0747 56.8758 48.147 56.928C48.6057 57.2274 49.1204 57.432 49.6604 57.5296C50.2004 57.6272 50.7547 57.6159 51.2903 57.4962C51.387 57.4715 51.4895 57.483 51.5783 57.5286C51.667 57.5742 51.7357 57.6506 51.7713 57.7433L53.0319 60.9715C53.0563 61.0341 53.0648 61.1017 53.0568 61.1684C53.0489 61.235 53.0246 61.2987 52.9862 61.3539C52.9478 61.4091 52.8963 61.4542 52.8364 61.4851C52.7764 61.5161 52.7097 61.532 52.6421 61.5315L52.6255 61.5151ZM48.7773 58.2209C49.1047 58.8372 49.5614 59.3765 50.1165 59.8027C50.6716 60.2289 51.3122 60.532 51.9952 60.6915L51.0912 58.3445C50.3146 58.446 49.525 58.3786 48.7773 58.1468V58.2209Z" fill="#231F20"/>
<path d="M52.1689 47.2457C52.3614 47.2045 52.4306 46.771 52.3234 46.2775C52.2162 45.784 51.9733 45.4173 51.7807 45.4585C51.5882 45.4998 51.519 45.9333 51.6262 46.4268C51.7334 46.9203 51.9764 47.2869 52.1689 47.2457Z" fill="#231F20"/>
<path d="M48.4956 50.0031C48.2461 49.4095 47.8355 48.8963 47.3096 48.5207C46.9459 48.1887 46.5351 47.9112 46.0905 47.6972C45.8655 47.5893 45.6188 47.5332 45.3689 47.5332C45.1191 47.5332 44.8724 47.5893 44.6474 47.6972C44.4562 47.808 44.2909 47.9578 44.1622 48.1366C44.0336 48.3155 43.9445 48.5194 43.901 48.7348C43.8178 49.1695 43.8349 49.6171 43.9507 50.0443C44.1891 50.9699 44.6675 51.8173 45.3383 52.5022C46.0091 53.1871 46.8489 53.6855 47.7741 53.9478L47.5999 53.8407" fill="white"/>
<path d="M47.7737 54.3593C47.7382 54.3671 47.7014 54.3671 47.6659 54.3593C46.6683 54.0662 45.7653 53.519 45.0465 52.7721C44.3278 52.0252 43.8184 51.1046 43.5688 50.1017C43.4377 49.6151 43.4207 49.1052 43.5191 48.6111C43.5695 48.336 43.6794 48.075 43.8412 47.8461C44.003 47.6172 44.2128 47.4258 44.4562 47.2852C44.7393 47.1489 45.0498 47.0781 45.3644 47.0781C45.679 47.0781 45.9895 47.1489 46.2726 47.2852C46.7561 47.5221 47.2007 47.8303 47.5912 48.1993C48.1722 48.6183 48.6256 49.1882 48.9016 49.8464C48.918 49.9004 48.9234 49.9572 48.9177 50.0133C48.9119 50.0695 48.8951 50.124 48.8682 50.1737C48.8412 50.2234 48.8047 50.2674 48.7606 50.3031C48.7165 50.3387 48.6658 50.3654 48.6114 50.3817C48.5569 50.3979 48.4998 50.4033 48.4432 50.3976C48.3866 50.3919 48.3318 50.3752 48.2817 50.3484C48.2317 50.3216 48.1874 50.2854 48.1515 50.2416C48.1155 50.1979 48.0886 50.1475 48.0723 50.0934C47.8465 49.5751 47.4822 49.128 47.019 48.8005C46.6892 48.4721 46.3118 48.1945 45.8993 47.977C45.7292 47.8982 45.5438 47.8574 45.3561 47.8574C45.1684 47.8574 44.983 47.8982 44.8129 47.977C44.6747 48.0598 44.5559 48.171 44.4643 48.3031C44.3728 48.4352 44.3107 48.5851 44.2821 48.7428C44.2093 49.1144 44.2235 49.4976 44.3235 49.8628C44.5239 50.661 44.9149 51.3995 45.4635 52.0159C46.0121 52.6323 46.7021 53.1084 47.4751 53.404C47.5758 53.3863 47.6794 53.4069 47.7654 53.4617L47.9396 53.5687C48.0268 53.6175 48.0924 53.6972 48.1231 53.7918C48.1538 53.8864 48.1475 53.9891 48.1054 54.0793C48.0826 54.1524 48.0393 54.2176 47.9805 54.2672C47.9218 54.3167 47.8501 54.3487 47.7737 54.3593Z" fill="#231F20"/>
<path d="M58.2071 65.8396C58.2071 65.8396 46.596 60.0255 42.5321 63.9043C38.4682 67.7831 38.6507 80.4243 38.4434 101.581L63.4321 99.8596C63.4321 99.8596 63.8136 68.9114 58.2071 65.8396Z" fill="#6F93B3"/>
<path d="M68.1097 74.0577C69.8182 74.1401 86.0489 76.1083 87.7574 74.5024C89.4659 72.8966 92.9741 70.6236 93.1897 71.2083C93.4054 71.793 91.0583 74.6836 91.0583 74.6836C91.0583 74.6836 96.2916 73.0366 97.0795 73.8601C97.8673 74.6836 95.8271 78.2989 94.5914 79.3695C94.2596 79.666 90.8095 80.366 88.7858 80.9507C79.6628 83.5613 67.3716 83.5366 63.9048 81.1401C59.1277 77.846 45.6588 71.4554 44.8792 70.3272C44.0996 69.1989 46.4218 61.8448 52.1776 64.9989C52.1776 64.966 66.4095 73.9836 68.1097 74.0577Z" fill="white"/>
<path d="M73.982 83.3058C69.379 83.3058 65.4644 82.6881 63.673 81.4446C61.2429 79.7975 56.5404 77.2775 52.4019 75.0787C47.6662 72.6081 44.9376 71.134 44.5395 70.5246C43.9424 69.7011 44.581 67.0246 46.0738 65.3693C47.0276 64.3152 49.1093 62.8164 52.377 64.6034C57.8674 68.0787 66.9655 73.5964 68.1349 73.6622C68.4501 73.6622 69.2463 73.7611 70.3493 73.8599C74.2722 74.247 86.2068 75.3999 87.4674 74.2222C88.7281 73.0446 92.1948 70.5081 93.1818 70.7387C93.2728 70.7568 93.3574 70.7982 93.4273 70.8589C93.4972 70.9196 93.5498 70.9974 93.5799 71.0846C93.7457 71.5211 93.273 72.4764 92.1782 73.934C94.0526 73.4152 96.6817 72.8552 97.3784 73.5552C97.4884 73.6773 97.5711 73.8211 97.6211 73.9773C97.6712 74.1334 97.6874 74.2983 97.6686 74.4611C97.6686 75.9599 95.9104 78.7599 94.8903 79.6575C94.6332 79.8881 93.8535 80.094 91.6723 80.6211C90.6937 80.8599 89.6901 81.1069 88.8857 81.3293C84.0289 82.6457 79.0164 83.3104 73.982 83.3058ZM49.4825 64.5952C48.9491 64.6031 48.4238 64.7257 47.9427 64.9546C47.4616 65.1835 47.0362 65.5132 46.6959 65.9211C45.2445 67.5187 44.9791 69.7175 45.2196 70.0387C45.5596 70.5164 49.3664 72.5093 52.7917 74.3375C56.9385 76.5446 61.6742 79.0481 64.1457 80.7528C67.2558 82.9187 79.1821 83.2234 88.6534 80.5058C89.4828 80.2752 90.4946 80.0281 91.4733 79.7893C92.4517 79.575 93.4157 79.3 94.3595 78.9658C95.3215 78.1422 96.8476 75.5317 96.8476 74.3705C96.863 74.2662 96.8457 74.1598 96.7978 74.0658C96.4412 73.7446 93.8204 74.1975 91.1913 75.0293C91.1063 75.0535 91.0157 75.0507 90.9324 75.0211C90.8491 74.9916 90.7772 74.9368 90.7268 74.8646C90.6724 74.7952 90.6428 74.7097 90.6428 74.6217C90.6428 74.5336 90.6724 74.4481 90.7268 74.3787C91.4625 73.4997 92.1176 72.5571 92.6841 71.5622C90.9875 72.3979 89.4206 73.4712 88.0314 74.7493C86.6795 76.0175 78.6928 75.4328 70.2581 74.6175C69.1716 74.5105 68.3838 74.4364 68.0852 74.4199C66.3186 74.3375 53.4137 66.1846 51.9457 65.2622C51.1939 64.8385 50.3469 64.6091 49.4825 64.5952Z" fill="#231F20"/>
<path d="M38.4434 101.58L26.5752 130.617C26.5752 130.617 57.0295 140.977 70.996 138.581L63.4322 99.875L38.4434 101.58Z" fill="#231F20"/>
<path d="M66.1114 139.331C51.1828 139.331 27.5542 131.359 26.4428 130.981C26.3891 130.963 26.3393 130.935 26.2966 130.899C26.2539 130.862 26.219 130.817 26.194 130.766C26.1717 130.714 26.1602 130.658 26.1602 130.602C26.1602 130.545 26.1717 130.489 26.194 130.437L38.0623 101.424C38.0908 101.352 38.1396 101.29 38.2028 101.244C38.266 101.199 38.341 101.173 38.4189 101.169L63.4077 99.4477C63.5071 99.4434 63.6048 99.4741 63.6837 99.5344C63.7626 99.5946 63.8175 99.6806 63.8389 99.7771L71.4027 138.483C71.4189 138.592 71.3954 138.703 71.3364 138.796C71.2713 138.887 71.1731 138.949 71.0627 138.969C69.4255 139.228 67.7692 139.349 66.1114 139.331ZM27.1312 130.346C30.7887 131.549 57.5274 140.163 70.5153 138.219L63.1008 100.337L38.7423 101.984L27.1312 130.346Z" fill="#231F20"/>
<path d="M49.4324 163.469C49.4324 163.469 47.2263 169.283 48.0474 169.703C48.8685 170.123 64.8006 173.631 65.1489 171.721C65.4972 169.81 57.2865 164.844 57.2865 164.844L49.4324 163.469Z" fill="#231F20"/>
<path d="M63.0923 172.7C58.4313 172.7 48.4291 170.353 47.8735 170.073C47.5915 169.925 46.729 169.488 49.0595 163.32C49.0959 163.231 49.1618 163.158 49.2463 163.111C49.3308 163.065 49.4288 163.048 49.5239 163.065L57.378 164.44C57.4277 164.448 57.4755 164.465 57.519 164.49C59.5012 165.692 65.9453 169.76 65.5721 171.794C65.5434 171.933 65.4807 172.063 65.3896 172.172C65.2985 172.281 65.1817 172.366 65.0496 172.42C64.4235 172.646 63.7572 172.741 63.0923 172.7ZM48.313 169.324C51.0261 170.053 53.7748 170.644 56.5486 171.094C64.071 172.379 64.7428 171.621 64.7677 171.588C64.9418 170.608 60.9692 167.52 57.1541 165.206L49.6898 163.905C48.877 166.219 48.1472 168.813 48.313 169.324Z" fill="#231F20"/>
<path d="M189.902 135.666C190.101 136.259 192.075 139.594 191.669 140.236C191.263 140.879 184.86 144.922 186.751 145.523C188.642 146.124 199.49 144.7 199.49 144.7L192.913 127.57L189.902 135.666Z" fill="#231F20"/>
<path d="M188.451 146.074C187.838 146.102 187.225 146.049 186.626 145.918C186.471 145.881 186.33 145.801 186.22 145.687C186.11 145.573 186.035 145.43 186.004 145.275C185.846 144.411 187.14 143.258 189.91 141.158C190.405 140.81 190.876 140.43 191.32 140.021C191.42 139.626 190.383 137.592 189.993 136.826C189.728 136.299 189.57 136.002 189.504 135.805C189.475 135.717 189.475 135.621 189.504 135.533L192.531 127.438C192.56 127.358 192.613 127.289 192.683 127.241C192.753 127.192 192.836 127.166 192.921 127.166C193.005 127.167 193.087 127.193 193.155 127.242C193.224 127.29 193.275 127.359 193.302 127.438L199.871 144.526C199.897 144.583 199.911 144.645 199.911 144.707C199.911 144.77 199.897 144.831 199.871 144.888C199.839 144.941 199.796 144.987 199.744 145.021C199.693 145.055 199.634 145.077 199.572 145.086C198.635 145.193 191.959 146.074 188.451 146.074ZM186.792 145.111H186.85C188.252 145.555 195.575 144.74 198.892 144.287L192.913 128.739L190.325 135.657C190.408 135.838 190.557 136.134 190.715 136.48C191.876 138.745 192.374 139.922 192 140.491C191.522 141.002 190.985 141.455 190.4 141.841C189.438 142.55 186.867 144.501 186.817 145.111H186.792Z" fill="#231F20"/>
<path d="M159.298 132.363C159.298 132.363 163.055 143.119 162.425 143.374C161.795 143.629 145.838 147.261 146.559 146.297C147.281 145.334 154.671 141.488 154.754 141.933C154.836 142.377 153.758 136.712 153.758 136.712L159.298 132.363Z" fill="#231F20"/>
<path d="M147.049 146.808C146.609 146.808 146.319 146.759 146.22 146.643C146.156 146.559 146.121 146.456 146.121 146.351C146.121 146.245 146.156 146.143 146.22 146.059C146.734 145.334 152.365 142.13 154.273 141.57C154.173 141.126 154.041 140.45 153.841 139.413L153.344 136.786C153.328 136.713 153.333 136.636 153.359 136.566C153.386 136.496 153.432 136.435 153.493 136.39L159.033 132.042C159.085 132 159.146 131.972 159.211 131.959C159.276 131.946 159.343 131.949 159.406 131.968C159.47 131.987 159.528 132.021 159.576 132.067C159.623 132.113 159.659 132.169 159.68 132.232C163.57 143.349 162.998 143.596 162.575 143.761C162.459 143.794 150.391 146.808 147.049 146.808ZM154.563 142.336C152.109 143.353 149.752 144.588 147.522 146.026C150.507 145.729 160.468 143.506 162.085 143.044C162.036 142.015 160.601 137.387 159.1 133.047L154.206 136.884C154.397 137.856 155.086 141.439 155.16 141.826C155.178 141.933 155.153 142.044 155.091 142.134C155.03 142.224 154.936 142.288 154.828 142.312C154.762 142.386 154.638 142.402 154.563 142.336ZM154.397 142.023H154.356C154.362 142.066 154.377 142.107 154.4 142.144C154.423 142.181 154.453 142.212 154.488 142.237C154.452 142.169 154.421 142.097 154.397 142.023Z" fill="#231F20"/>
<path d="M153.327 68.9919C153.327 68.9919 142.206 91.8284 142.065 99.059C141.924 106.29 151.445 136.711 151.445 136.711L161.148 135.113C161.148 135.113 153.916 104.708 155.011 101.53C156.106 98.3507 164.449 77.9107 164.449 77.9107C164.449 77.9107 167.767 95.4437 170.072 101.9C172.378 108.357 187.157 136.052 187.157 136.052L197.317 134.108C197.317 134.108 183.856 103.127 183.359 97.7825C182.861 92.4378 180.215 63.8613 180.215 63.8613L153.327 68.9919Z" fill="#231F20"/>
<path d="M151.444 137.124C151.356 137.124 151.269 137.096 151.198 137.045C151.126 136.993 151.073 136.919 151.046 136.835C150.656 135.592 141.5 106.274 141.641 99.0519C141.782 91.8295 152.489 69.7507 152.946 68.8119C152.974 68.7542 153.016 68.7041 153.068 68.6654C153.12 68.6268 153.18 68.6008 153.244 68.5895L180.124 63.4589C180.181 63.4478 180.24 63.4487 180.297 63.4614C180.355 63.4742 180.408 63.4986 180.456 63.533C180.546 63.6048 180.605 63.7078 180.621 63.8213C180.621 63.8213 183.267 92.3977 183.765 97.7507C184.254 102.972 197.557 133.64 197.69 133.945C197.716 134.002 197.73 134.063 197.73 134.126C197.73 134.189 197.716 134.25 197.69 134.307C197.659 134.36 197.618 134.406 197.568 134.442C197.517 134.478 197.46 134.502 197.399 134.513L187.24 136.457C187.153 136.475 187.063 136.463 186.983 136.425C186.903 136.386 186.839 136.322 186.8 136.242C186.195 135.114 172.013 108.457 169.69 102.041C167.75 96.6883 165.145 83.6354 164.316 79.3695C162.467 83.9154 156.338 99.0024 155.417 101.662C154.588 104.182 159.564 126.591 161.563 135.015C161.578 135.07 161.581 135.127 161.571 135.183C161.561 135.238 161.538 135.291 161.505 135.337C161.476 135.386 161.436 135.427 161.389 135.459C161.341 135.49 161.287 135.51 161.231 135.518L151.527 137.115L151.444 137.124ZM153.601 69.3554C152.547 71.546 142.603 92.3483 142.471 99.0683C142.338 105.788 150.681 132.874 151.726 136.251L160.642 134.777C159.547 130.14 153.551 104.487 154.621 101.399C155.691 98.3107 163.744 78.5954 164.059 77.7636C164.09 77.6799 164.149 77.6091 164.226 77.5628C164.302 77.5164 164.393 77.4972 164.482 77.5083C164.571 77.5159 164.655 77.5523 164.721 77.6118C164.786 77.6713 164.831 77.7507 164.847 77.8377C164.847 78.0107 168.164 95.4119 170.453 101.761C172.635 107.781 185.838 132.709 187.372 135.592L196.719 133.805C194.969 129.753 183.408 102.873 182.935 97.8248C182.463 92.7766 180.174 68.0213 179.834 64.3566L153.601 69.3554Z" fill="#231F20"/>
<path d="M152.033 30.4512L139.07 37.1547L141.517 50.3476L153.7 47.4406L152.033 30.4512Z" fill="#6F93B3"/>
<path d="M152.034 30.4509C152.805 29.405 168.787 25.765 173.597 29.7426C178.407 33.7203 181.667 61.8603 182.413 70.4991L150.964 72.7638C150.964 72.7638 147.771 36.2238 152.034 30.4509Z" fill="#6F93B3"/>
<path d="M150.748 70.1127C150.644 70.1129 150.545 70.0738 150.469 70.0034C150.394 69.933 150.348 69.8366 150.342 69.7339C150.259 68.6963 148.359 44.2621 149.753 38.2257C149.778 38.1199 149.845 38.0285 149.938 37.9714C150.032 37.9144 150.144 37.8962 150.25 37.921C150.304 37.9326 150.354 37.9547 150.399 37.986C150.443 38.0173 150.481 38.0573 150.509 38.1034C150.538 38.1495 150.557 38.2008 150.565 38.2544C150.573 38.308 150.571 38.3626 150.557 38.4151C149.197 44.3198 151.146 69.421 151.163 69.668C151.167 69.7221 151.161 69.7766 151.144 69.8283C151.127 69.88 151.101 69.9279 151.065 69.9692C151.03 70.0105 150.986 70.0445 150.938 70.0691C150.889 70.0938 150.836 70.1086 150.781 70.1127H150.748Z" fill="#231F20"/>
<path d="M161.206 24.4484C162.961 24.0931 164.585 23.2671 165.901 22.0601C166.513 21.5366 166.948 20.8376 167.145 20.0589C167.23 19.669 167.187 19.262 167.021 18.8985C166.855 18.535 166.576 18.2343 166.224 18.0413C166.609 17.8263 166.935 17.5224 167.176 17.1554C167.417 16.7884 167.566 16.3691 167.609 15.9331C167.693 15.0559 167.532 14.1728 167.145 13.3801C166.963 12.8401 166.644 12.356 166.218 11.975C165.792 11.594 165.274 11.329 164.715 11.206C165.196 10.3825 165.693 9.36954 165.353 8.45542C165.15 8.01317 164.847 7.62402 164.466 7.31895C163.752 6.67075 162.977 6.09166 162.152 5.58954C161.712 5.32601 161.148 5.07071 160.709 5.35071C160.528 4.44207 160.095 3.60203 159.457 2.9264C158.819 2.25077 158.003 1.76675 157.101 1.52954C156.21 1.27191 155.258 1.3183 154.397 1.6613C153.569 2.16633 152.789 2.74519 152.067 3.39071C151.323 3.14095 150.53 3.06747 149.753 3.17615C148.975 3.28483 148.234 3.57264 147.588 4.0166C147.135 4.42421 146.799 4.94382 146.614 5.52249C146.429 6.10116 146.402 6.7182 146.535 7.31071C145.549 7.78153 144.678 8.4586 143.98 9.29542C143.629 9.71318 143.377 10.2038 143.242 10.7311C143.107 11.2584 143.093 11.809 143.201 12.3425C143.327 12.8719 143.625 13.3453 144.049 13.6893C144.474 14.0333 145 14.2285 145.548 14.2448C145.076 14.6724 144.777 15.2559 144.707 15.8864C144.637 16.5168 144.8 17.1511 145.166 17.6707C145.56 18.1705 146.094 18.5425 146.701 18.7391C147.308 18.9357 147.961 18.9479 148.575 18.7742C148.741 18.708 148.921 18.6853 149.098 18.7084C149.307 18.7818 149.494 18.9098 149.637 19.0789C150.168 19.5484 150.864 19.4495 151.436 19.7707C152.214 20.303 152.946 20.898 153.626 21.5495C154.336 22.1097 155.075 22.632 155.84 23.1142C156.638 23.7498 157.5 24.3017 158.411 24.7613C159.241 25.0825 159.763 24.7613 160.593 24.5554L161.206 24.4484Z" fill="white"/>
<path d="M159.075 25.3457C158.791 25.3447 158.51 25.2917 158.245 25.1893C157.583 24.9035 156.968 24.5204 156.421 24.0528C156.147 23.8469 155.873 23.641 155.591 23.4598C154.809 22.9707 154.056 22.4373 153.336 21.8622C153.112 21.681 152.871 21.4669 152.639 21.2528C152.203 20.8322 151.725 20.4569 151.212 20.1328C151.001 20.0272 150.774 19.955 150.541 19.9187C150.102 19.8459 149.688 19.6646 149.338 19.3916L149.23 19.2846C149.159 19.2138 149.078 19.1529 148.99 19.1034C148.899 19.1074 148.81 19.124 148.724 19.1528C148.022 19.3646 147.271 19.3591 146.572 19.137C145.873 18.9148 145.258 18.4866 144.81 17.9093C144.468 17.4169 144.277 16.8365 144.261 16.2386C144.244 15.6406 144.404 15.0509 144.718 14.541C144.245 14.3778 143.82 14.1005 143.481 13.7339C143.143 13.3674 142.901 12.9232 142.778 12.441C142.651 11.8486 142.66 11.2355 142.804 10.6469C142.947 10.0583 143.222 9.50918 143.607 9.03984C144.281 8.21777 145.127 7.55167 146.087 7.08808C145.997 6.46205 146.063 5.8236 146.28 5.22901C146.497 4.63443 146.858 4.102 147.331 3.67867C147.993 3.20062 148.756 2.87811 149.562 2.73546C150.368 2.5928 151.196 2.63372 151.984 2.85514C152.695 2.24617 153.455 1.69535 154.256 1.20808C155.201 0.830197 156.247 0.778001 157.225 1.05984C158.126 1.29837 158.949 1.76314 159.615 2.40934C160.282 3.05555 160.77 3.86142 161.032 4.74926C161.519 4.74376 161.995 4.89072 162.392 5.16925C163.234 5.6852 164.025 6.27796 164.756 6.93984C165.193 7.28539 165.537 7.73221 165.759 8.24102C165.88 8.68007 165.907 9.13952 165.837 9.58936C165.767 10.0392 165.602 10.4693 165.353 10.8516C165.853 11.0686 166.303 11.3841 166.677 11.7791C167.05 12.174 167.339 12.6402 167.526 13.1493C167.943 14.0094 168.115 14.9662 168.024 15.9163C167.93 16.7127 167.546 17.4476 166.945 17.9834C167.204 18.2593 167.393 18.5916 167.498 18.9535C167.603 19.3154 167.621 19.6968 167.551 20.0669C167.344 20.9317 166.868 21.7098 166.191 22.2904C164.817 23.5363 163.129 24.39 161.306 24.761L160.667 24.9093C160.476 24.9093 160.302 25.0081 160.136 25.0575C159.799 25.2048 159.441 25.3019 159.075 25.3457ZM148.957 18.2798H149.156C149.4 18.3432 149.62 18.4781 149.786 18.6669L149.877 18.7493C150.121 18.9291 150.406 19.0453 150.706 19.0869C151.012 19.1469 151.308 19.2495 151.586 19.3916C152.159 19.7392 152.691 20.1509 153.17 20.6187C153.394 20.8246 153.618 21.0222 153.841 21.2034C154.551 21.7533 155.29 22.2646 156.056 22.7351C156.346 22.9328 156.636 23.1469 156.927 23.3693C157.414 23.7827 157.958 24.1239 158.544 24.3822C158.985 24.5366 159.47 24.5159 159.896 24.3246C160.078 24.2669 160.269 24.2093 160.485 24.1598L161.107 24.0198C162.788 23.6736 164.344 22.8825 165.61 21.7304C166.164 21.2691 166.559 20.647 166.738 19.9516C166.807 19.6529 166.778 19.3401 166.656 19.0587C166.534 18.7774 166.324 18.542 166.058 18.3869C165.987 18.3544 165.927 18.3035 165.883 18.2398C165.84 18.176 165.814 18.1016 165.809 18.0245C165.808 17.9462 165.83 17.8692 165.871 17.8022C165.912 17.7353 165.971 17.6811 166.041 17.6457C166.364 17.4565 166.637 17.1947 166.839 16.8814C167.04 16.5681 167.165 16.2122 167.203 15.8422C167.273 15.0409 167.124 14.2356 166.771 13.5116C166.531 12.9681 165.842 11.6916 164.69 11.5681C164.621 11.5628 164.554 11.5395 164.498 11.5004C164.441 11.4613 164.395 11.4079 164.366 11.3457C164.333 11.2864 164.316 11.2198 164.316 11.1522C164.316 11.0846 164.333 11.018 164.366 10.9587C164.806 10.1845 165.254 9.31161 164.98 8.55396C164.801 8.17364 164.533 7.84069 164.2 7.58219C163.505 6.96463 162.752 6.4132 161.953 5.93514C161.629 5.73749 161.198 5.53161 160.949 5.68808C160.889 5.72051 160.822 5.73751 160.754 5.73751C160.686 5.73751 160.619 5.72051 160.559 5.68808C160.495 5.66346 160.439 5.62216 160.397 5.56854C160.355 5.51491 160.328 5.45095 160.319 5.38337C160.145 4.5535 159.744 3.78769 159.158 3.1712C158.572 2.55471 157.826 2.11174 157.001 1.89161C156.198 1.65953 155.339 1.70304 154.563 2.01514C153.829 2.48818 153.123 3.00235 152.448 3.55514C152.4 3.64346 152.322 3.71143 152.227 3.74631C152.132 3.78118 152.028 3.78055 151.934 3.74455C151.261 3.51964 150.545 3.45242 149.841 3.54814C149.137 3.64386 148.466 3.89993 147.878 4.29631C147.475 4.65512 147.177 5.1153 147.015 5.62836C146.853 6.14143 146.833 6.68838 146.958 7.21161C146.979 7.30135 146.969 7.39558 146.93 7.47919C146.891 7.56281 146.825 7.63098 146.742 7.67278C145.783 8.09686 144.933 8.73021 144.254 9.52572C143.941 9.89389 143.715 10.3266 143.592 10.7924C143.468 11.2582 143.451 11.7454 143.541 12.2187C143.642 12.6562 143.885 13.0487 144.233 13.3358C144.58 13.6229 145.013 13.7888 145.465 13.8081C145.553 13.7983 145.642 13.8193 145.716 13.8674C145.79 13.9155 145.845 13.9877 145.871 14.0716C145.904 14.1514 145.91 14.2397 145.887 14.323C145.865 14.4062 145.815 14.4799 145.747 14.5328C145.356 14.8953 145.11 15.386 145.055 15.9143C145.001 16.4426 145.14 16.9728 145.448 17.4069C145.793 17.8374 146.257 18.1571 146.784 18.3256C147.311 18.4942 147.877 18.504 148.409 18.354C148.587 18.3027 148.771 18.2777 148.957 18.2798Z" fill="#231F20"/>
<path d="M149.089 19.3828C149.089 19.3828 147.53 23.5746 148.202 24.2087C148.874 24.8428 150.424 23.9616 150.424 23.9616" fill="white"/>
<path d="M148.882 24.8524C148.528 24.8659 148.183 24.7418 147.92 24.5066C147.157 23.7901 148.077 20.8995 148.699 19.2442C148.737 19.1416 148.814 19.0579 148.913 19.0116C149.013 18.9653 149.127 18.9601 149.23 18.9972C149.333 19.0378 149.416 19.1159 149.462 19.2155C149.508 19.3151 149.514 19.4286 149.479 19.5324C148.732 21.5336 148.276 23.5842 148.5 23.9219C148.724 24.2595 149.819 23.8313 150.217 23.6007C150.313 23.5495 150.426 23.5372 150.531 23.5663C150.636 23.5955 150.725 23.6639 150.781 23.7572C150.809 23.8034 150.827 23.8548 150.835 23.9083C150.843 23.9618 150.84 24.0163 150.826 24.0685C150.812 24.1207 150.787 24.1697 150.754 24.2124C150.721 24.2551 150.679 24.2907 150.632 24.3171C150.098 24.6265 149.499 24.8097 148.882 24.8524Z" fill="#231F20"/>
<path d="M147.994 11.2888C147.793 11.4694 147.661 11.714 147.621 11.9806C147.443 12.9166 147.443 13.8775 147.621 14.8135C147.877 16.6695 148.254 18.5071 148.749 20.3147C149.33 22.7194 149.977 25.1077 150.673 27.4794C151.113 28.9865 155.102 28.0971 155.699 27.4794L156.528 33.6477C156.528 33.6477 158.56 33.73 161.422 31.5065C164.283 29.283 164.076 28.5006 164.076 28.5006L162.168 21.6077C162.168 21.6077 159.539 22.2335 157.25 19.4912C156.885 19.0465 156.611 18.2971 156.172 17.9512C155.732 17.6053 154.969 17.5641 154.513 16.9547C154.302 16.6712 154.16 16.343 154.098 15.9957C154.036 15.6485 154.056 15.2918 154.156 14.9535C154.198 14.8053 154.256 14.6241 154.156 14.5088C154.082 14.4579 153.997 14.4241 153.908 14.41C153.655 14.3498 153.418 14.2397 153.209 14.0863C153.001 13.9329 152.825 13.7394 152.694 13.5172C152.562 13.2951 152.477 13.049 152.443 12.7934C152.41 12.5379 152.428 12.2783 152.498 12.03C151.494 12.2606 150.59 11.4206 149.902 10.6465C150.117 10.8935 148.351 11.083 148.326 11.0994C148.204 11.1397 148.091 11.2041 147.994 11.2888Z" fill="white"/>
<path d="M156.487 34.0591H156.421C156.324 34.0559 156.231 34.0185 156.16 33.9536C156.088 33.8886 156.043 33.8005 156.031 33.705L155.309 28.1462C154.095 28.6538 152.763 28.8163 151.461 28.6156C151.178 28.5788 150.911 28.4635 150.691 28.2829C150.471 28.1022 150.307 27.8636 150.217 27.5944C149.52 25.2309 148.874 22.8097 148.285 20.4133L148.16 19.8944C147.712 18.2412 147.374 16.5602 147.148 14.8627C146.979 13.8717 146.996 12.8581 147.198 11.8733C147.257 11.5164 147.442 11.1922 147.721 10.9591C147.855 10.8591 148.007 10.7838 148.169 10.7368H148.318C148.721 10.6953 149.121 10.6209 149.512 10.5144C149.535 10.4708 149.566 10.4317 149.603 10.3991C149.642 10.3605 149.688 10.3299 149.738 10.309C149.789 10.2881 149.843 10.2773 149.898 10.2773C149.953 10.2773 150.007 10.2881 150.057 10.309C150.108 10.3299 150.154 10.3605 150.192 10.3991C150.798 11.0827 151.594 11.8403 152.382 11.6509C152.453 11.6356 152.527 11.6389 152.597 11.6606C152.667 11.6822 152.73 11.7214 152.78 11.7744C152.829 11.8282 152.863 11.8936 152.879 11.9643C152.895 12.035 152.892 12.1086 152.871 12.178C152.816 12.3692 152.801 12.5697 152.828 12.7668C152.856 12.9639 152.924 13.1532 153.029 13.3227C153.127 13.4947 153.259 13.6453 153.417 13.7656C153.575 13.8859 153.756 13.9733 153.949 14.0227C154.123 14.0436 154.285 14.1186 154.414 14.2368C154.503 14.3523 154.561 14.4894 154.58 14.6341C154.599 14.7788 154.579 14.9259 154.521 15.0603C154.435 15.3381 154.416 15.6322 154.467 15.9186C154.517 16.2049 154.636 16.4752 154.812 16.7074C155.016 16.9462 155.287 17.1184 155.591 17.2015C155.888 17.3019 156.168 17.4463 156.421 17.6297C156.735 17.9182 156.994 18.2615 157.184 18.6427C157.299 18.8453 157.426 19.0406 157.565 19.2274C159.647 21.698 161.961 21.2203 162.06 21.2038C162.165 21.1785 162.275 21.1944 162.368 21.2482C162.461 21.3019 162.529 21.3894 162.558 21.4921L164.466 28.3933C164.532 28.7309 164.366 29.6615 161.604 31.8109C158.842 33.9603 156.811 34.0591 156.487 34.0591ZM155.658 27.0674C155.699 27.0594 155.741 27.0594 155.782 27.0674C155.857 27.0897 155.924 27.1337 155.975 27.1938C156.025 27.2539 156.056 27.3274 156.064 27.405L156.819 33.1697C158.4 32.8754 159.876 32.1739 161.098 31.1356C163.28 29.4391 163.586 28.665 163.644 28.5168L161.853 22.0356C160.903 22.091 159.955 21.9089 159.094 21.506C158.233 21.1032 157.488 20.4925 156.927 19.7297C156.754 19.5105 156.601 19.2762 156.47 19.0297C156.325 18.7391 156.132 18.4746 155.898 18.2474C155.719 18.112 155.517 18.0089 155.301 17.9427C154.857 17.8039 154.462 17.5408 154.165 17.185C153.913 16.8482 153.744 16.4577 153.67 16.0446C153.597 15.6315 153.621 15.2071 153.742 14.805V14.7556C153.442 14.6912 153.16 14.5638 152.914 14.382C152.668 14.2002 152.464 13.9681 152.315 13.7015C152.091 13.3287 151.976 12.9007 151.984 12.4662C151.139 12.3198 150.378 11.8716 149.844 11.2062C149.381 11.3433 148.906 11.437 148.426 11.4862C148.351 11.5015 148.28 11.5324 148.218 11.5768C148.135 11.6427 148.077 11.7497 147.994 12.0462C147.828 12.9307 147.828 13.8381 147.994 14.7227C148.22 16.389 148.553 18.0394 148.99 19.6638L149.114 20.1827C149.703 22.5709 150.341 24.9756 151.038 27.3309C151.096 27.545 151.312 27.6933 151.677 27.7838C152.94 27.9782 154.233 27.7585 155.359 27.158C155.446 27.089 155.556 27.0565 155.666 27.0674H155.658Z" fill="#231F20"/>
<path d="M155.351 18.6172C155.273 17.9982 155.374 17.3699 155.641 16.8054C155.775 16.3433 155.985 15.9064 156.263 15.5125C156.398 15.3123 156.578 15.1452 156.787 15.024C156.997 14.9027 157.232 14.8304 157.474 14.8125C157.689 14.8161 157.901 14.8649 158.095 14.9557C158.289 15.0466 158.462 15.1774 158.602 15.3396C158.877 15.6652 159.076 16.0479 159.183 16.4596C159.439 17.3555 159.452 18.3028 159.22 19.2053C158.989 20.1079 158.521 20.9335 157.864 21.5984L157.963 21.4254" fill="white"/>
<path d="M157.864 21.9944C157.774 21.9963 157.686 21.9672 157.615 21.9121C157.534 21.8513 157.479 21.7633 157.459 21.6647C157.439 21.5661 157.456 21.4637 157.507 21.3768L157.582 21.245C158.171 20.6311 158.589 19.8756 158.796 19.0526C159.002 18.2297 158.99 17.3676 158.759 16.5509C158.67 16.1979 158.503 15.8688 158.27 15.5874C158.167 15.4684 158.04 15.3724 157.897 15.3057C157.754 15.239 157.599 15.2031 157.441 15.2003C157.262 15.2186 157.09 15.2761 156.936 15.3687C156.783 15.4613 156.652 15.5866 156.553 15.7356C156.306 16.1004 156.116 16.5003 155.989 16.9215C155.749 17.4122 155.654 17.9605 155.716 18.5027C155.736 18.6105 155.713 18.7218 155.653 18.8138C155.593 18.9057 155.5 18.9712 155.392 18.9968C155.339 19.0089 155.285 19.0103 155.231 19.001C155.178 18.9917 155.127 18.9719 155.081 18.9428C155.036 18.9136 154.996 18.8757 154.966 18.8312C154.935 18.7867 154.914 18.7366 154.903 18.6839C154.804 17.9906 154.911 17.2838 155.21 16.6497C155.356 16.146 155.586 15.67 155.89 15.2415C156.067 14.9989 156.297 14.7989 156.563 14.6564C156.828 14.5138 157.123 14.4324 157.424 14.418C157.698 14.4189 157.969 14.4782 158.218 14.5919C158.467 14.7055 158.688 14.8709 158.867 15.0768C159.187 15.4487 159.417 15.8881 159.539 16.3615C159.814 17.3264 159.831 18.3459 159.589 19.3193C159.346 20.2928 158.851 21.1864 158.154 21.9121C158.071 21.9748 157.968 22.0042 157.864 21.9944Z" fill="#231F20"/>
<path d="M155.666 27.4791C156.761 26.8242 157.642 25.869 158.204 24.7285C158.204 24.7285 158.934 28.4262 156.023 30.2297L155.666 27.4791Z" fill="#231F20"/>
<path d="M156.022 30.6401C155.962 30.6515 155.9 30.6515 155.84 30.6401C155.778 30.6091 155.725 30.5637 155.684 30.5078C155.644 30.4518 155.618 30.3871 155.608 30.319L155.251 27.5684C155.241 27.4892 155.255 27.4089 155.29 27.3373C155.326 27.2656 155.381 27.2057 155.45 27.1648C156.463 26.5545 157.284 25.6762 157.822 24.6284C157.85 24.5422 157.908 24.4687 157.986 24.4205C158.063 24.3724 158.155 24.3527 158.245 24.3648C158.334 24.3724 158.418 24.4088 158.484 24.4683C158.55 24.5278 158.594 24.6072 158.61 24.6943C158.61 24.859 159.356 28.6884 156.238 30.6154C156.17 30.6425 156.095 30.6511 156.022 30.6401ZM156.105 27.6837L156.346 29.479C156.813 29.047 157.188 28.5263 157.449 27.9477C157.709 27.3691 157.851 26.7444 157.864 26.1107C157.356 26.7129 156.764 27.2398 156.105 27.6754V27.6837Z" fill="#231F20"/>
<path d="M149.487 18.5297C149.672 18.48 149.718 18.061 149.591 17.5938C149.464 17.1266 149.211 16.7881 149.026 16.8378C148.841 16.8875 148.795 17.3065 148.922 17.7737C149.05 18.2409 149.303 18.5793 149.487 18.5297Z" fill="#231F20"/>
<path d="M151.08 25.7912C150.889 25.7959 150.699 25.7709 150.516 25.7171C150.406 25.6854 150.313 25.6117 150.258 25.5121C150.202 25.4124 150.189 25.2951 150.221 25.1859C150.253 25.0767 150.327 24.9846 150.428 24.9297C150.528 24.8749 150.646 24.8619 150.756 24.8936C150.822 24.8936 152.149 25.2724 153.112 23.3453C153.163 23.2499 153.249 23.1778 153.353 23.144C153.456 23.1103 153.569 23.1175 153.667 23.1642C153.716 23.1879 153.76 23.221 153.796 23.2616C153.832 23.3022 153.86 23.3494 153.878 23.4007C153.896 23.452 153.903 23.5062 153.9 23.5603C153.896 23.6144 153.882 23.6673 153.858 23.7159C153.647 24.292 153.272 24.7948 152.779 25.1632C152.286 25.5317 151.695 25.7498 151.08 25.7912Z" fill="#231F20"/>
<path d="M153.385 45.1348C153.385 45.1348 131.706 59.6701 128.629 59.5054C125.552 59.3407 121.073 57.0924 120.957 58.6818C120.841 60.2712 125.403 61.6465 125.403 61.6465C125.403 61.6465 119.058 62.4042 119.257 64.2489C119.456 66.0936 121.704 68.2183 124.366 67.9136C127.028 67.6089 128.903 66.2665 131.275 65.8465C133.647 65.4265 158.445 53.3783 158.445 53.3783L153.385 45.1348Z" fill="white"/>
<path d="M123.852 68.3756C122.667 68.3675 121.522 67.9546 120.609 67.2062C119.665 66.5072 119.034 65.4699 118.851 64.3156C118.676 62.7344 121.679 61.8944 123.719 61.5073C122.276 60.9144 120.451 59.9179 120.542 58.6662C120.549 58.5234 120.589 58.384 120.658 58.2585C120.727 58.133 120.823 58.0246 120.941 57.9414C121.637 57.4473 123.055 57.8344 124.863 58.3203C126.099 58.6961 127.369 58.9553 128.654 59.0944C130.951 59.0944 144.503 50.5709 153.112 44.7979C153.158 44.7651 153.211 44.7422 153.266 44.7309C153.322 44.7195 153.379 44.7199 153.435 44.732C153.49 44.7441 153.542 44.7671 153.587 44.7997C153.633 44.8322 153.671 44.8737 153.7 44.9215L158.751 53.1567C158.784 53.2045 158.805 53.2589 158.814 53.3159C158.822 53.3729 158.818 53.431 158.801 53.4862C158.784 53.5396 158.755 53.5889 158.718 53.6314C158.681 53.6738 158.636 53.7084 158.585 53.7332C157.565 54.2273 133.704 65.8391 131.299 66.2344C130.271 66.4432 129.268 66.7578 128.305 67.1732C127.054 67.7307 125.731 68.1132 124.374 68.3097C124.225 68.3591 124.076 68.3756 123.852 68.3756ZM121.82 58.4932C121.682 58.4817 121.543 58.5103 121.422 58.5756C121.422 58.5756 121.38 58.5756 121.372 58.6991C121.305 59.572 123.81 60.725 125.519 61.2356C125.629 61.2443 125.731 61.2961 125.802 61.3795C125.874 61.4629 125.909 61.5711 125.9 61.6803C125.891 61.7895 125.839 61.8907 125.755 61.9618C125.671 62.0328 125.562 62.0678 125.452 62.0591C122.964 62.3556 119.572 63.2697 119.647 64.2085C119.808 65.1449 120.328 65.9829 121.098 66.5473C121.54 66.9113 122.051 67.1834 122.601 67.3475C123.151 67.5116 123.729 67.5644 124.299 67.5026C125.582 67.3135 126.832 66.9505 128.015 66.4238C129.03 65.9867 130.09 65.6581 131.175 65.4438C132.975 65.1473 149.156 57.4309 157.822 53.2144L153.236 45.7038C149.778 48.0097 131.548 60.0744 128.579 59.9014C127.234 59.7541 125.906 59.4783 124.615 59.0779C123.704 58.8028 122.767 58.618 121.82 58.5262V58.4932Z" fill="#231F20"/>
<path d="M161.812 36.9824L152.73 43.5377L159.448 54.7954L166.937 50.0765" fill="#6F93B3"/>
<path d="M159.448 55.2071H159.348C159.24 55.1763 159.148 55.1056 159.091 55.0095L152.374 43.7601C152.322 43.6719 152.305 43.5682 152.324 43.4681C152.344 43.3681 152.4 43.2787 152.481 43.2165L161.604 36.6283C161.693 36.5662 161.802 36.5409 161.909 36.5579C162.016 36.5748 162.112 36.6326 162.177 36.7189C162.21 36.7622 162.234 36.8118 162.248 36.8647C162.261 36.9176 162.264 36.9726 162.255 37.0265C162.247 37.0804 162.227 37.132 162.198 37.1782C162.169 37.2244 162.13 37.2643 162.085 37.2954L153.311 43.6365L159.622 54.2024L166.755 49.7142C166.8 49.6777 166.853 49.6512 166.91 49.6364C166.966 49.6216 167.025 49.6188 167.083 49.6283C167.141 49.6378 167.196 49.6594 167.245 49.6915C167.293 49.7236 167.335 49.7657 167.366 49.8148C167.397 49.864 167.418 49.9191 167.426 49.9766C167.434 50.0342 167.43 50.0928 167.414 50.1486C167.397 50.2045 167.37 50.2563 167.332 50.3006C167.294 50.345 167.247 50.3809 167.194 50.4059L159.73 55.1248C159.648 55.1835 159.549 55.2126 159.448 55.2071Z" fill="#231F20"/>
<path d="M87.1271 52.3172C86.7337 52.5329 86.3981 52.8392 86.1484 53.2103C85.8988 53.5815 85.7424 54.0066 85.6923 54.4501C85.6438 54.7366 85.706 55.0307 85.8665 55.2737C85.9071 55.3318 85.9589 55.3814 86.0189 55.4195C86.079 55.4577 86.146 55.4836 86.2162 55.4959C86.2864 55.5081 86.3583 55.5064 86.4278 55.4909C86.4974 55.4754 86.5631 55.4463 86.6212 55.4054C86.4544 55.5417 86.317 55.7101 86.2175 55.9005C86.1179 56.0909 86.0582 56.2993 86.0419 56.5132C86.0257 56.7271 86.0532 56.9421 86.1228 57.1452C86.1924 57.3482 86.3027 57.5352 86.4471 57.6948C86.7588 57.9991 87.1514 58.2088 87.5789 58.2992C88.0064 58.3896 88.451 58.3571 88.8605 58.2054C89.6737 57.8786 90.3598 57.3013 90.8178 56.5584C91.9623 54.8454 92.8498 50.9172 90.4114 49.8384C89.8809 49.6679 89.3173 49.6245 88.7666 49.7119C88.216 49.7992 87.6939 50.0147 87.2433 50.3407C86.7954 50.6289 86.0158 51.0242 86.0573 51.6748C86.0821 52.136 86.6378 52.8525 87.1271 52.3172Z" fill="white"/>
<path d="M88.0229 58.7484C87.6681 58.7524 87.3166 58.6809 86.9918 58.5389C86.6671 58.3969 86.3768 58.1875 86.1402 57.9249C85.9449 57.7007 85.7996 57.4381 85.7139 57.1542C85.6281 56.8704 85.6038 56.5717 85.6426 56.2778C85.6676 56.0819 85.7206 55.8905 85.8002 55.7096C85.7004 55.6434 85.611 55.5629 85.5348 55.4707C85.3091 55.1496 85.2197 54.7532 85.286 54.3672C85.3583 53.6951 85.6495 53.0648 86.1154 52.5719C85.8586 52.3259 85.7022 51.9946 85.6758 51.6413C85.626 50.8178 86.3891 50.3484 86.895 49.9943L87.0525 49.8955C87.5619 49.5357 88.1493 49.2998 88.7673 49.2068C89.3853 49.1138 90.0167 49.1664 90.6105 49.3602C91.0157 49.5338 91.3757 49.7968 91.6631 50.1293C91.9505 50.4618 92.1578 50.855 92.2692 51.279C92.6447 53.1451 92.2728 55.0831 91.2325 56.6813C90.7265 57.5043 89.9635 58.1406 89.0596 58.4931C88.7321 58.6387 88.381 58.7252 88.0229 58.7484ZM86.8037 55.7755C86.613 55.9419 86.4942 56.1749 86.472 56.426C86.4482 56.5999 86.4609 56.7767 86.5095 56.9454C86.558 57.1141 86.6413 57.2709 86.754 57.406C87.0099 57.6533 87.3322 57.8222 87.6823 57.8923C88.0324 57.9624 88.3954 57.9308 88.7279 57.8013C89.4538 57.506 90.0645 56.9861 90.4695 56.319C91.3696 54.9195 91.7044 53.2342 91.4067 51.6002C91.3305 51.2944 91.1858 51.0098 90.9833 50.7673C90.7808 50.5249 90.5258 50.331 90.2373 50.2002C89.77 50.0601 89.2762 50.0304 88.7953 50.1133C88.3144 50.1963 87.8596 50.3896 87.4672 50.6778L87.3014 50.7849C86.9364 51.0072 86.472 51.3119 86.472 51.6084C86.4961 51.7758 86.5818 51.9283 86.7125 52.0366L86.9281 51.9131C87.0153 51.8665 87.1161 51.8516 87.2131 51.8712C87.31 51.8908 87.3971 51.9435 87.4589 52.0202C87.5226 52.0934 87.5576 52.1869 87.5576 52.2837C87.5576 52.3804 87.5226 52.474 87.4589 52.5472C87.3499 52.6736 87.2099 52.77 87.0525 52.8272C86.7957 53.0264 86.5819 53.2749 86.4237 53.5579C86.2655 53.8408 86.1663 54.1525 86.132 54.4743C86.0976 54.6551 86.13 54.8422 86.2232 55.0013C86.2395 55.0229 86.2608 55.0402 86.2854 55.0517C86.31 55.0632 86.337 55.0685 86.3642 55.0672H86.4139C86.4994 55.0073 86.6049 54.9823 86.7084 54.9977C86.8119 55.013 86.9055 55.0674 86.9696 55.1496C87.0343 55.2318 87.0652 55.3354 87.056 55.4393C87.0467 55.5433 86.9981 55.6399 86.9198 55.7096L86.8037 55.7755Z" fill="#231F20"/>
<path d="M64.3279 172.082H1.04736V195.643H64.3279V172.082Z" fill="#ED2D24"/>
<path d="M64.3612 196.055H1.0475C0.937514 196.055 0.832038 196.011 0.75427 195.934C0.676502 195.857 0.632812 195.752 0.632812 195.643V172.082C0.632812 171.972 0.676502 171.868 0.75427 171.791C0.832038 171.713 0.937514 171.67 1.0475 171.67H64.3612C64.4705 171.672 64.5748 171.716 64.6521 171.793C64.7294 171.87 64.7738 171.973 64.7759 172.082V195.676C64.7657 195.779 64.7178 195.874 64.6413 195.944C64.5649 196.014 64.4651 196.053 64.3612 196.055ZM1.49535 195.231H63.9465V172.493H1.46218L1.49535 195.231Z" fill="#231F20"/>
<path d="M136.64 159.598H73.3599V195.644H136.64V159.598Z" fill="#6F93B3"/>
<path d="M136.641 196.055H73.36C73.25 196.055 73.1445 196.012 73.0668 195.934C72.989 195.857 72.9453 195.752 72.9453 195.643V159.597C72.9453 159.488 72.989 159.383 73.0668 159.306C73.1445 159.229 73.25 159.186 73.36 159.186H136.641C136.751 159.186 136.856 159.229 136.934 159.306C137.012 159.383 137.055 159.488 137.055 159.597V195.676C137.047 195.78 137 195.876 136.923 195.946C136.846 196.016 136.745 196.055 136.641 196.055ZM73.7747 195.231H136.226V160.009H73.7747V195.231Z" fill="#231F20"/>
<path d="M208.953 144.666H145.672V195.642H208.953V144.666Z" fill="white"/>
<path d="M208.953 196.056H145.639C145.529 196.054 145.425 196.01 145.348 195.933C145.271 195.856 145.226 195.753 145.224 195.644V144.668C145.224 144.558 145.268 144.454 145.346 144.376C145.423 144.299 145.529 144.256 145.639 144.256H208.919C209.029 144.256 209.135 144.299 209.213 144.376C209.29 144.454 209.334 144.558 209.334 144.668V195.677C209.326 195.775 209.284 195.867 209.214 195.936C209.144 196.006 209.051 196.048 208.953 196.056ZM146.087 195.232H208.538V145.079H146.087V195.232Z" fill="#231F20"/>
</g>
<defs>
<clipPath id="clip0_836_94553">
<rect width="209" height="196" fill="white" transform="translate(0.5 0.5)"/>
</clipPath>
</defs>
</svg>
