<?xml version="1.0" encoding="UTF-8" standalone="no"?>
<!-- Created with Inkscape (http://www.inkscape.org/) -->

<svg
   width="12.7mm"
   height="12.7mm"
   viewBox="0 0 12.7 12.7"
   version="1.1"
   id="svg5480"
   xmlns="http://www.w3.org/2000/svg"
   xmlns:svg="http://www.w3.org/2000/svg">
  <defs
     id="defs5477" />
  <g
     id="layer1"
     transform="translate(-262.61319,-107.698)">
    <path
       d="m 271.83393,116.95842 q -0.33073,0 -0.49609,-0.2712 -0.16537,-0.2712 -0.0199,-0.56224 l 0.635,-1.28323 h -1.66687 q -0.33073,0 -0.56224,-0.23151 -0.23151,-0.23151 -0.23151,-0.56224 v -2.11667 q 0,-0.33073 0.23151,-0.56224 0.23151,-0.23151 0.56224,-0.23151 h 2.11666 q 0.33073,0 0.56224,0.23151 0.23151,0.23151 0.23151,0.56224 v 2.83105 q 0,0.0926 -0.0198,0.1852 -0.0198,0.0926 -0.0595,0.17198 l -0.76729,1.52136 q -0.0661,0.14552 -0.20506,0.23151 -0.1389,0.086 -0.31088,0.086 z m -4.7625,0 q -0.33073,0 -0.49609,-0.2712 -0.16537,-0.2712 -0.0198,-0.56224 l 0.635,-1.28323 h -1.66687 q -0.33073,0 -0.56224,-0.23151 -0.23151,-0.23151 -0.23151,-0.56224 v -2.11667 q 0,-0.33073 0.23151,-0.56224 0.23151,-0.23151 0.56224,-0.23151 h 2.11666 q 0.33073,0 0.56224,0.23151 0.23151,0.23151 0.23151,0.56224 v 2.83105 q 0,0.0926 -0.0198,0.1852 -0.0198,0.0926 -0.0595,0.17198 l -0.76729,1.52136 q -0.0661,0.14552 -0.20506,0.23151 -0.1389,0.086 -0.31088,0.086 z"
       id="path4683"
       style="stroke-width:0.264583" />
  </g>
</svg>
