<?xml version="1.0" encoding="UTF-8" standalone="no"?>
<!-- Created with Inkscape (http://www.inkscape.org/) -->

<svg
   width="13.229167mm"
   height="13.229167mm"
   viewBox="0 0 13.229167 13.229167"
   version="1.1"
   id="svg3780"
   xmlns="http://www.w3.org/2000/svg"
   xmlns:svg="http://www.w3.org/2000/svg">
  <defs
     id="defs3777" />
  <g
     id="layer1"
     transform="translate(-139.27182,-54.686218)">
    <g
       id="g3508"
       transform="matrix(0.26458333,0,0,0.26458333,156.16811,45.703201)">
      <path
         id="path2116"
         style="opacity:1;fill-opacity:1;stroke-width:1.00636"
         d="m -51.374049,42.454242 a 10.881893,10.881893 0 0 0 -10.882813,10.882812 10.881893,10.881893 0 0 0 8.687501,10.630859 c -0.005,0.01239 -0.01273,0.02686 -0.01758,0.03906 -1.544286,3.884347 -4.144532,6.847656 -4.144532,6.847656 -1.932761,1.744747 -1.130174,3.241668 -0.759766,3.748047 1.125912,1.539218 2.979131,0.598717 4.341797,0.130859 2.357764,-0.809514 8.496656,-3.84234 11.625001,-10.748047 1.134754,-2.504928 2.825319,-7.96114 1.822265,-12.771484 -0.02754,-0.1321 -0.05621,-0.263482 -0.08789,-0.394531 a 10.881893,10.881893 0 0 0 -0.04687,-0.191407 c -0.004,-0.01559 -0.0076,-0.0313 -0.01172,-0.04687 -0.0046,-0.01747 -0.01066,-0.03206 -0.01563,-0.04883 a 10.881893,10.881893 0 0 0 -10.509763,-8.078124 z" />
      <path
         id="path3284"
         style="opacity:1;fill-opacity:1;stroke-width:1.00636"
         d="m -26.440728,42.454242 a 10.881893,10.881893 0 0 0 -10.882812,10.882812 10.881893,10.881893 0 0 0 8.6875,10.630859 c -0.005,0.01239 -0.01273,0.02686 -0.01758,0.03906 -1.544285,3.884347 -4.144532,6.847656 -4.144532,6.847656 -1.932761,1.744747 -1.130173,3.241668 -0.759765,3.748047 1.125912,1.539218 2.97913,0.598717 4.341797,0.130859 2.357763,-0.809514 8.496655,-3.84234 11.625,-10.748047 1.134754,-2.504928 2.825319,-7.96114 1.822265,-12.771484 -0.02754,-0.1321 -0.05621,-0.263482 -0.08789,-0.394531 a 10.881893,10.881893 0 0 0 -0.04687,-0.191407 c -0.004,-0.01559 -0.0076,-0.0313 -0.01172,-0.04687 -0.0046,-0.01747 -0.01066,-0.03206 -0.01563,-0.04883 a 10.881893,10.881893 0 0 0 -10.509763,-8.078124 z" />
    </g>
  </g>
</svg>
